<?xml version="1.0" encoding="utf-8"?>
<!-- Generator: Adobe Illustrator 24.0.1, SVG Export Plug-In . SVG Version: 6.00 Build 0)  -->
<svg version="1.1" id="Layer_1" xmlns="http://www.w3.org/2000/svg" xmlns:xlink="http://www.w3.org/1999/xlink" x="0px" y="0px"
	 viewBox="0 0 500 500" style="enable-background:new 0 0 500 500;" xml:space="preserve">
<style type="text/css">
	.st0{fill:#FFFFFF;}
	.st1{fill:#B5E84F;}
	.st2{fill:#9FCD4D;}
	.st3{fill:#4C2357;}
	.st4{opacity:0.2;clip-path:url(#SVGID_2_);fill:#3D3D91;enable-background:new    ;}
	.st5{opacity:0.1;fill:#6031A2;enable-background:new    ;}
	.st6{fill:#3D2558;}
	.st7{fill:#CCCCF2;}
	.st8{opacity:0.2;clip-path:url(#SVGID_4_);fill:#3D3D91;enable-background:new    ;}
	.st9{clip-path:url(#SVGID_6_);fill:#CCCCF2;}
	.st10{clip-path:url(#SVGID_8_);fill:url(#SVGID_9_);}
	.st11{clip-path:url(#SVGID_11_);fill:#3D2558;}
	.st12{opacity:0.7;clip-path:url(#SVGID_13_);fill:#FFFFFF;enable-background:new    ;}
	.st13{clip-path:url(#SVGID_15_);fill:#FFFFFF;}
	.st14{clip-path:url(#SVGID_17_);fill:#FFFFFF;}
	.st15{clip-path:url(#SVGID_19_);fill:#FFFFFF;}
	.st16{clip-path:url(#SVGID_21_);fill:#FFFFFF;}
	.st17{clip-path:url(#SVGID_23_);fill:#FFFFFF;}
	.st18{clip-path:url(#SVGID_25_);fill:#FFFFFF;}
	.st19{clip-path:url(#SVGID_27_);fill:#FFFFFF;}
	.st20{clip-path:url(#SVGID_29_);fill:#FFD83F;}
	.st21{fill:#682363;}
	.st22{fill:#594470;}
	.st23{opacity:0.7;fill:#DFE9FF;enable-background:new    ;}
	.st24{fill:#3DC7FF;}
	.st25{fill:#FFD83F;}
	.st26{fill:#CA4C72;}
	.st27{fill:#FF4889;}
	.st28{fill:#FF9043;}
	.st29{clip-path:url(#SVGID_31_);fill:#FFFFFF;}
	.st30{fill:#331E46;}
	.st31{fill:#D6D6F5;}
	.st32{fill:#FFD0C4;}
	.st33{clip-path:url(#SVGID_33_);fill:#FFFFFF;}
	.st34{fill:#883657;}
	.st35{fill:#FFB3A3;}
	.st36{clip-path:url(#SVGID_35_);fill:#FFD83F;}
	.st37{fill:#48243A;}
	.st38{fill:#371F2A;}
</style>
<g id="BACKGROUND">
	<rect id="XMLID_1_" y="0" class="st0" width="500" height="500"/>
</g>
<g id="OBJECTS">
	<g>
		<g>
			<path class="st1" d="M405.4,248.6c-4.7-5.6-6.2-13.8-3.7-20.7c0.6-1.6,1.4-3.2,1.2-4.9c-0.1-1.1-0.6-2.1-1.1-3.1
				c-2.1-3.7-5.2-6.9-6.8-10.8c-1.5-3.6-1.7-7.8-0.5-11.6c0.8-2.6,2.3-5.2,1.8-7.9c-0.6-2.8-3.1-4.7-4.5-7.2
				c-1.8-3.3-1.2-7.7,1.3-10.5c2.5-2.8,6.8-3.7,10.3-2.4c3.5,1.4,6,5,6.1,8.7c0.1,2.7-0.9,5.3-1.5,7.9c-0.5,2.3-0.6,4.6-0.3,6.9
				c0.1,1.1,0.3,2.2,1,3.2c1.2,1.8,3.5,2.4,5.6,2.4c2.1,0,4.2-0.5,6.3-0.4c4.5,0.2,8.5,3.2,11.4,6.6c2.6,3.1,4.7,7,4.2,11.1
				c-0.3,2.2-1.3,4.3-2.5,6.2c-3.6,5.7-8.8,10.7-10.7,17.2c-0.7,2.4-0.8,4.9-2,7c-1.7,3.3-5.6,5.2-9.3,4.6"/>
			<path class="st0" d="M408,240.6c-0.2,0-0.4-0.2-0.5-0.4c-0.9-5.1-1.1-9-0.6-12.7c0.3-2.2,0.9-4.3,1.4-6.4c0.3-1.3,0.7-2.6,1-3.9
				c0.9-4.1,0.8-7.4-0.2-10.1c-0.8-2.2-2.3-4-3.8-5.9c-1.2-1.5-2.4-3-3.3-4.7c-2.1-3.9-2.4-8.5-2.4-12.4c0-2.7,0.2-5.5,1.8-7.7
				c0.2-0.2,0.5-0.3,0.7-0.1c0.2,0.2,0.3,0.5,0.1,0.7c-1.5,2-1.6,4.7-1.6,7.1c0,3.8,0.2,8.2,2.2,11.9c0.9,1.6,2.1,3.1,3.2,4.5
				c1.5,1.9,3.1,3.8,4,6.1c1.1,2.9,1.2,6.3,0.3,10.6c-0.3,1.3-0.6,2.7-1,4c-0.5,2-1.1,4.1-1.4,6.2c-0.5,3.5-0.3,7.3,0.6,12.3
				C408.6,240.3,408.4,240.6,408,240.6C408.1,240.6,408,240.6,408,240.6z"/>
			<path class="st2" d="M412,227.7c-1.7-2.4-3.5-4.8-4.3-7.7c-0.8-2.8-0.3-6.3,2.1-8c1.4-1,3.3-1.4,4.5-2.6c1.2-1.2,1.5-3.1,1.3-4.8
				c-0.2-1.7-0.9-3.3-1.3-4.9c-1.4-4.6-1.4-9.7,0.9-13.9c1.7-3.2,5.5-5.7,8.8-4.4c2.5,1.1,3.8,4.1,3.8,6.8s-1.1,5.4-1.9,8
				s-1.3,5.5-0.4,8.1c0.6,1.6,1.8,3,2.5,4.6c1.6,3.2,1.4,7.1,0.4,10.5s-2.7,6.7-4.1,10c-1.1,2.5-4.3,14.9-7.9,12.7
				c-2.5-1.5-1-4.4-1.1-6.5C415.2,232.8,413.6,230.1,412,227.7z"/>
			<path class="st0" d="M417.5,238.3c-0.1,0-0.2,0-0.2-0.1c-0.2-0.1-0.3-0.4-0.2-0.7c1.1-2.1,2.2-4.1,2.7-6.3
				c0.6-2.4,0.4-4.7-0.5-6.5c-0.3-0.5-0.6-1-0.9-1.5c-0.6-0.9-1.3-1.9-1.5-3.1c-0.4-2.1,0.7-4.1,1.7-5.9c0.2-0.3,0.3-0.6,0.5-0.9
				c1.3-2.4,1.8-4.7,1.6-6.7c-0.1-1.1-0.4-2.1-0.8-3.2c-0.2-0.7-0.4-1.4-0.6-2.1c-0.8-3.6-0.2-7.4,1.6-10.5c0.1-0.2,0.4-0.3,0.7-0.2
				c0.2,0.1,0.3,0.4,0.2,0.7c-1.7,2.9-2.3,6.5-1.5,9.8c0.2,0.7,0.4,1.3,0.6,2c0.3,1.1,0.7,2.2,0.8,3.4c0.2,2.2-0.3,4.7-1.7,7.3
				c-0.2,0.3-0.3,0.6-0.5,0.9c-0.9,1.7-1.9,3.5-1.6,5.2c0.2,1,0.7,1.8,1.3,2.7c0.3,0.5,0.7,1,1,1.6c1,2,1.2,4.6,0.6,7.2
				c-0.6,2.3-1.6,4.4-2.8,6.6C417.8,238.2,417.7,238.3,417.5,238.3z"/>
			<g>
				<g>
					<polygon id="XMLID_70_" class="st3" points="396.7,236 402.5,265.7 422.7,265.7 428.1,236.4 					"/>
				</g>
				<g>
					<defs>
						<polygon id="SVGID_1_" points="396.7,236 402.5,265.7 422.7,265.7 428.1,236.4 						"/>
					</defs>
					<clipPath id="SVGID_2_">
						<use xlink:href="#SVGID_1_"  style="overflow:visible;"/>
					</clipPath>
					<rect x="390.7" y="228.1" class="st4" width="44.6" height="15.6"/>
				</g>
			</g>
			<rect x="394.4" y="234.2" class="st3" width="35.9" height="5.3"/>
		</g>
		<ellipse class="st5" cx="250" cy="427" rx="225.7" ry="32.9"/>
		<rect x="195.5" y="243.9" class="st6" width="109.1" height="14.4"/>
		<g>
			<g>
				<rect id="XMLID_69_" x="230.7" y="209.8" class="st7" width="38.6" height="29.2"/>
			</g>
			<g>
				<defs>
					<rect id="SVGID_3_" x="230.7" y="209.8" width="38.6" height="29.2"/>
				</defs>
				<clipPath id="SVGID_4_">
					<use xlink:href="#SVGID_3_"  style="overflow:visible;"/>
				</clipPath>
				<rect x="216.7" y="188.6" class="st8" width="72.7" height="35.9"/>
			</g>
		</g>
		<g>
			<g>
				<path id="XMLID_68_" class="st6" d="M338.4,216.5H161.6c-2.6,0-4.7-2.1-4.7-4.7V99.4c0-2.6,2.1-4.7,4.7-4.7h176.9
					c2.6,0,4.7,2.1,4.7,4.7v112.4C343.2,214.4,341,216.5,338.4,216.5z"/>
			</g>
			<g>
				<defs>
					<path id="SVGID_5_" d="M338.4,216.5H161.6c-2.6,0-4.7-2.1-4.7-4.7V99.4c0-2.6,2.1-4.7,4.7-4.7h176.9c2.6,0,4.7,2.1,4.7,4.7
						v112.4C343.2,214.4,341,216.5,338.4,216.5z"/>
				</defs>
				<clipPath id="SVGID_6_">
					<use xlink:href="#SVGID_5_"  style="overflow:visible;"/>
				</clipPath>
				<rect x="147.7" y="198.2" class="st9" width="202.5" height="36.7"/>
			</g>
			<g>
				<defs>
					<path id="SVGID_7_" d="M338.4,216.5H161.6c-2.6,0-4.7-2.1-4.7-4.7V99.4c0-2.6,2.1-4.7,4.7-4.7h176.9c2.6,0,4.7,2.1,4.7,4.7
						v112.4C343.2,214.4,341,216.5,338.4,216.5z"/>
				</defs>
				<clipPath id="SVGID_8_">
					<use xlink:href="#SVGID_7_"  style="overflow:visible;"/>
				</clipPath>
				
					<linearGradient id="SVGID_9_" gradientUnits="userSpaceOnUse" x1="249.9395" y1="315.2319" x2="249.9395" y2="416.2432" gradientTransform="matrix(1 0 0 -1 0 499.8898)">
					<stop  offset="0" style="stop-color:#BFFFF3"/>
					<stop  offset="1" style="stop-color:#61D2DF"/>
				</linearGradient>
				<rect x="164.8" y="101.4" class="st10" width="170.3" height="87.2"/>
			</g>
			<g>
				<defs>
					<path id="SVGID_10_" d="M338.4,216.5H161.6c-2.6,0-4.7-2.1-4.7-4.7V99.4c0-2.6,2.1-4.7,4.7-4.7h176.9c2.6,0,4.7,2.1,4.7,4.7
						v112.4C343.2,214.4,341,216.5,338.4,216.5z"/>
				</defs>
				<clipPath id="SVGID_11_">
					<use xlink:href="#SVGID_10_"  style="overflow:visible;"/>
				</clipPath>
				<path class="st11" d="M254.1,207.3c0,2.3-1.9,4.2-4.2,4.2s-4.2-1.9-4.2-4.2s1.9-4.2,4.2-4.2S254.1,205,254.1,207.3z"/>
			</g>
			<g>
				<defs>
					<path id="SVGID_12_" d="M338.4,216.5H161.6c-2.6,0-4.7-2.1-4.7-4.7V99.4c0-2.6,2.1-4.7,4.7-4.7h176.9c2.6,0,4.7,2.1,4.7,4.7
						v112.4C343.2,214.4,341,216.5,338.4,216.5z"/>
				</defs>
				<clipPath id="SVGID_13_">
					<use xlink:href="#SVGID_12_"  style="overflow:visible;"/>
				</clipPath>
				<rect x="175.9" y="107.2" class="st12" width="52.5" height="75.7"/>
			</g>
			<g>
				<defs>
					<path id="SVGID_14_" d="M338.4,216.5H161.6c-2.6,0-4.7-2.1-4.7-4.7V99.4c0-2.6,2.1-4.7,4.7-4.7h176.9c2.6,0,4.7,2.1,4.7,4.7
						v112.4C343.2,214.4,341,216.5,338.4,216.5z"/>
				</defs>
				<clipPath id="SVGID_15_">
					<use xlink:href="#SVGID_14_"  style="overflow:visible;"/>
				</clipPath>
				<rect x="246.5" y="112.1" class="st13" width="74.4" height="9.1"/>
			</g>
			<g>
				<defs>
					<path id="SVGID_16_" d="M338.4,216.5H161.6c-2.6,0-4.7-2.1-4.7-4.7V99.4c0-2.6,2.1-4.7,4.7-4.7h176.9c2.6,0,4.7,2.1,4.7,4.7
						v112.4C343.2,214.4,341,216.5,338.4,216.5z"/>
				</defs>
				<clipPath id="SVGID_17_">
					<use xlink:href="#SVGID_16_"  style="overflow:visible;"/>
				</clipPath>
				<rect x="304.1" y="158.1" class="st14" width="16.9" height="24.3"/>
			</g>
			<g>
				<defs>
					<path id="SVGID_18_" d="M338.4,216.5H161.6c-2.6,0-4.7-2.1-4.7-4.7V99.4c0-2.6,2.1-4.7,4.7-4.7h176.9c2.6,0,4.7,2.1,4.7,4.7
						v112.4C343.2,214.4,341,216.5,338.4,216.5z"/>
				</defs>
				<clipPath id="SVGID_19_">
					<use xlink:href="#SVGID_18_"  style="overflow:visible;"/>
				</clipPath>
				<rect x="246.5" y="125.6" class="st15" width="74.4" height="3.4"/>
			</g>
			<g>
				<defs>
					<path id="SVGID_20_" d="M338.4,216.5H161.6c-2.6,0-4.7-2.1-4.7-4.7V99.4c0-2.6,2.1-4.7,4.7-4.7h176.9c2.6,0,4.7,2.1,4.7,4.7
						v112.4C343.2,214.4,341,216.5,338.4,216.5z"/>
				</defs>
				<clipPath id="SVGID_21_">
					<use xlink:href="#SVGID_20_"  style="overflow:visible;"/>
				</clipPath>
				<rect x="286.6" y="134.1" class="st16" width="34.4" height="3.4"/>
			</g>
			<g>
				<defs>
					<path id="SVGID_22_" d="M338.4,216.5H161.6c-2.6,0-4.7-2.1-4.7-4.7V99.4c0-2.6,2.1-4.7,4.7-4.7h176.9c2.6,0,4.7,2.1,4.7,4.7
						v112.4C343.2,214.4,341,216.5,338.4,216.5z"/>
				</defs>
				<clipPath id="SVGID_23_">
					<use xlink:href="#SVGID_22_"  style="overflow:visible;"/>
				</clipPath>
				<rect x="265" y="142.6" class="st17" width="56" height="3.4"/>
			</g>
			<g>
				<defs>
					<path id="SVGID_24_" d="M338.4,216.5H161.6c-2.6,0-4.7-2.1-4.7-4.7V99.4c0-2.6,2.1-4.7,4.7-4.7h176.9c2.6,0,4.7,2.1,4.7,4.7
						v112.4C343.2,214.4,341,216.5,338.4,216.5z"/>
				</defs>
				<clipPath id="SVGID_25_">
					<use xlink:href="#SVGID_24_"  style="overflow:visible;"/>
				</clipPath>
				<rect x="252.9" y="151.1" class="st18" width="68.1" height="3.4"/>
			</g>
			<g>
				<defs>
					<path id="SVGID_26_" d="M339.6,107.2L214.6,232.3c-1.8,1.8-4.8,1.8-6.7,0l-79.5-79.5c-1.8-1.8-1.8-4.8,0-6.7L253.5,21
						c1.8-1.8,4.8-1.8,6.7,0l79.5,79.5C341.5,102.4,341.5,105.4,339.6,107.2z"/>
				</defs>
				<clipPath id="SVGID_27_">
					<use xlink:href="#SVGID_26_"  style="overflow:visible;"/>
				</clipPath>
				<ellipse class="st19" cx="207.1" cy="160.4" rx="14.9" ry="14.9"/>
			</g>
			<g>
				<defs>
					<path id="SVGID_28_" d="M339.6,107.2L214.6,232.3c-1.8,1.8-4.8,1.8-6.7,0l-79.5-79.5c-1.8-1.8-1.8-4.8,0-6.7L253.5,21
						c1.8-1.8,4.8-1.8,6.7,0l79.5,79.5C341.5,102.4,341.5,105.4,339.6,107.2z"/>
				</defs>
				<clipPath id="SVGID_29_">
					<use xlink:href="#SVGID_28_"  style="overflow:visible;"/>
				</clipPath>
				<ellipse class="st20" cx="207.1" cy="160.4" rx="12.3" ry="12.3"/>
			</g>
		</g>
		<g>
			<path class="st21" d="M77.3,438.4L77.3,438.4c-3.7,0-6.6-3-6.6-6.6V272.3c0-3.7,3-6.6,6.6-6.6l0,0c3.7,0,6.6,3,6.6,6.6v159.4
				C84,435.4,81,438.4,77.3,438.4z"/>
			<path class="st21" d="M422.7,438.4L422.7,438.4c-3.7,0-6.6-3-6.6-6.6V272.3c0-3.7,3-6.6,6.6-6.6l0,0c3.7,0,6.6,3,6.6,6.6v159.4
				C429.3,435.4,426.3,438.4,422.7,438.4z"/>
		</g>
		<g>
			<path class="st3" d="M107.3,418.4L107.3,418.4c-3.7,0-6.6-3-6.6-6.6V272.3c0-3.7,3-6.6,6.6-6.6l0,0c3.7,0,6.6,3,6.6,6.6v139.4
				C114,415.4,111,418.4,107.3,418.4z"/>
			<path class="st3" d="M392.7,418.4L392.7,418.4c-3.7,0-6.6-3-6.6-6.6V272.3c0-3.7,3-6.6,6.6-6.6l0,0c3.7,0,6.6,3,6.6,6.6v139.4
				C399.3,415.4,396.3,418.4,392.7,418.4z"/>
		</g>
		<g>
			<path class="st6" d="M364.2,272.4c-5.1,0-10.1-1.1-14.7-3.2l0.8-1.8c5.2,2.4,11,3.4,16.7,2.9c4.6-0.4,8.4-1.7,11.2-3.9
				c3.3-2.6,5.2-6.4,4.9-10c-0.3-3.4-2.2-6.3-4.3-9.3c-2.2-3.2-4.4-6.6-4.6-10.6c-0.2-3.3,1.1-6.4,2.4-8.9c1.2-2.5,2.6-4.9,4-7.2
				l0.8-1.4c1.3-2.3,2.5-4.5,3.3-6.8c1.2-3.6,1.1-7.6,0-11.2c-1.6-4.9-5.4-8.7-9.7-9.8c-2-0.5-4.3-0.5-7,0
				c-4.9,0.9-9.4,3.3-12.5,6.6c-3.4,3.6-5.3,8.3-5.1,12.9l-2,0.1c-0.2-5.1,1.9-10.3,5.7-14.3c3.4-3.6,8.3-6.2,13.6-7.2
				c3-0.6,5.6-0.6,7.9,0c5,1.3,9.3,5.5,11.1,11.1c1.3,4,1.3,8.4,0,12.4c-0.8,2.5-2.1,4.9-3.5,7.2l-0.8,1.4c-1.3,2.3-2.7,4.7-3.9,7.1
				c-1.2,2.3-2.3,5.1-2.2,8c0.2,3.4,2.2,6.4,4.3,9.5c2.1,3.2,4.3,6.4,4.6,10.3c0.3,4.3-1.8,8.8-5.7,11.8c-3.1,2.4-7.3,3.9-12.3,4.3
				C366.2,272.4,365.2,272.4,364.2,272.4z"/>
			<g>
				<path class="st22" d="M366,262.1h-89.7c-1.8,0-3.3-1.5-3.3-3.3v-45.9c0-1.8,1.5-3.3,3.3-3.3H366c1.8,0,3.3,1.5,3.3,3.3v45.9
					C369.3,260.6,367.9,262.1,366,262.1z"/>
				<rect x="284.4" y="213.8" class="st23" width="73.5" height="36.1"/>
				<rect x="275.5" y="218.2" class="st6" width="1.9" height="13.6"/>
				<rect x="361.9" y="218.2" class="st6" width="5.2" height="13.6"/>
				<rect x="279.3" y="218.2" class="st6" width="1.9" height="20.2"/>
				<rect x="275.5" y="211.4" class="st24" width="5.7" height="0.7"/>
			</g>
			<rect x="342.9" y="217.5" class="st0" width="10.1" height="28.3"/>
			<path class="st0" d="M340.8,246.2h-25.1V217h25.1V246.2z M316.6,245.2h23.1V218h-23.1V245.2z"/>
			<circle class="st0" cx="324.9" cy="227.1" r="5.5"/>
			<circle class="st25" cx="324.9" cy="227.1" r="3.4"/>
		</g>
		<rect x="60.2" y="258.3" class="st26" width="379.5" height="14.6"/>
		<rect x="306.2" y="159.9" class="st25" width="5.5" height="5.5"/>
		<rect x="313.4" y="159.9" class="st26" width="5.5" height="5.5"/>
		<rect x="306.2" y="167.2" class="st27" width="5.5" height="5.5"/>
		<rect x="313.4" y="167.2" class="st22" width="5.5" height="5.5"/>
		<rect x="306.2" y="174.5" class="st6" width="5.5" height="5.5"/>
		<rect x="313.4" y="174.5" class="st28" width="5.5" height="5.5"/>
		<g>
			<g>
				<g>
					<path id="XMLID_71_" class="st25" d="M170.8,399.6l-7.1,16.3l44,25.7c0,0,8.1-22.9-19.7-32.9"/>
				</g>
				<g>
					<defs>
						<path id="SVGID_30_" d="M170.8,399.6l-7.1,16.3l44,25.7c0,0,8.1-22.9-19.7-32.9"/>
					</defs>
					<clipPath id="SVGID_31_">
						<use xlink:href="#SVGID_30_"  style="overflow:visible;"/>
					</clipPath>
					<polygon class="st29" points="160.9,410 219.9,444.6 216.5,450.2 163.6,423.7 					"/>
				</g>
			</g>
			<path class="st30" d="M150.3,335.3l37.8,13.4l-20.3,50.5c0,0,14.7,13.1,26.7,10.4c9.7-15.2,36.2-71.5,36.2-71.5L150.3,335.3z"/>
			<path class="st31" d="M282.8,239h-65.6c-1.3,0-2.4,1.1-2.4,2.4l0,0c0,1.3,1.1,2.4,2.4,2.4h65.6c1.3,0,2.4-1.1,2.4-2.4l0,0
				C285.2,240.1,284.1,239,282.8,239z"/>
			<path class="st0" d="M289,247.1c0,0,8.8-28.1,9.5-29.4c3-0.7,3.2,0.8,3.2,0.8l-10,29.7L289,247.1z"/>
			<path class="st32" d="M252.9,238.6c0.2-0.1,15.1,0.6,16,0.6c5.8-3.7,12.3-6.7,14.3-6.7c2.3,0,14.6,3.6,18.3,7.8
				c3.8,4.4-1.3,6.8-0.7,10.5c0.9,5.3-5.9,8.4-5.9,8.4l-17.7-0.1l-8.2-4.7l-15.1,2.5L252.9,238.6z"/>
			<g>
				<g>
					<path id="XMLID_72_" class="st25" d="M276.5,426.5l1.5,11.8l53.3-0.5c0,0-6-22-38.5-20"/>
				</g>
				<g>
					<defs>
						<path id="SVGID_32_" d="M276.5,426.5l1.5,11.8l53.3-0.5c0,0-6-22-38.5-20"/>
					</defs>
					<clipPath id="SVGID_33_">
						<use xlink:href="#SVGID_32_"  style="overflow:visible;"/>
					</clipPath>
					<rect x="273.5" y="434.5" class="st33" width="63.4" height="13.1"/>
				</g>
			</g>
			<g>
				<path class="st27" d="M171.4,164c13.2-3.5,41.7,64.9,41.7,64.9l47.8,8.7c0,0,6.8,13.6-3.2,21.5c-28.9,4.1-62.3-0.7-62.3-0.7
					l-26.1-43.5C169.4,214.9,158.2,167.4,171.4,164z"/>
				<g>
					<path class="st32" d="M127.9,135.8l-7,20.5c0,0,18,5,33.4,4c4.8-7.7,3.7-20.4,3.7-20.4"/>
					<path class="st25" d="M184.4,92.6c-3.8,0-7,3.9-7,8.6c0,4.8,3.1,8.6,7,8.6c3.8,0,7-3.9,7-8.6C191.3,96.4,188.2,92.6,184.4,92.6
						z M184.4,107.2c-2.7,0-5-2.7-5-6s2.2-6,5-6s5,2.7,5,6S187.1,107.2,184.4,107.2z"/>
					<path class="st32" d="M121.9,87.5c-4.7,7.1-9.1,40.9,7.1,49.2c28.1,14.6,51.9,6.1,51.9,6.1c5.9-17.3,3.9-55.7,0.8-66.6
						C178.7,65.4,137.9,62.9,121.9,87.5z"/>
					<path class="st34" d="M178.9,92c0.1,0.6,0.5,1.3,1.2,1.6c0.4,0.2,0.9,0.2,1.3,0.3c1.1,0.1,2.2,0,3.1-0.5c1.2-0.7,1.6-1.9,1.4-3
						c-0.1-0.3-0.2-0.7-0.4-0.9c-0.3-0.4-0.9-0.5-1.5-0.6c-0.6,0-1.2,0-1.8,0.2c-0.8,0.2-2.3,0.4-2.9,0.9
						C178.8,90.4,178.9,91.5,178.9,92z"/>
					<path class="st34" d="M158.1,96.6c0,0,3,26.1,6.5,28.6c3.5,2.5,19.5,0,19.5,0s5.9,10,0,16.3c-5.9,6.3-25.9,3.8-25.9,3.8
						l-6.3-48.7L158.1,96.6L158.1,96.6z"/>
					<path class="st34" d="M158.1,96.6l4.1-12.1c0,0-12.5-4.8-9.3-9.1s23.8-1.8,31.8-0.7c-2.7-10-22.3-16.8-43.4-11.6
						s-28.7,21.1-29.1,34.3s3.3,31.7,15.8,38.4c17,0,17.4-22.9,17.4-22.9l1.9-14.4L158.1,96.6z"/>
					<polygon class="st25" points="147.2,95.5 189.4,97.5 189.4,99.9 149.8,98.3 					"/>
					<path class="st32" d="M152,97.8c0,0-4.2-5.4-9.8-2.4c-5.7,3-5,15-2.2,18.4c4.2,5,9.5,2.1,9.5,2.1"/>
				</g>
				<path class="st27" d="M133.9,148.2c0,0-31.1,0-43.3,23.3c-9.9,19.1,0,126.9,0,126.9s56.8,12.4,83.5,1.3c3.3-21,12-110.9,6.7-125
					C175.4,160.7,162.8,152.3,133.9,148.2z"/>
			</g>
			<path class="st6" d="M90.6,298.4c0,0-9.1,37.2,21.4,44.3s106.5-0.5,106.5-0.5L274,427c0,0,19.9,1,27.6-14.3
				c-0.2-1.3-49.7-98.5-56.2-104.3s-71.3-8.6-71.3-8.6S110.6,292.3,90.6,298.4z"/>
			<path class="st35" d="M143,99.8c-0.4,0.6-0.5,1.5-0.1,2.1c0.4,0.5,1.1,0.7,1.7,1s1.2,0.8,1.2,1.4c0,0.6-0.5,1-1,1.4
				c-1,0.9-1.8,2.1-1.8,3.5c0,1.3,0.9,2.7,2.2,2.9c1,0.2,2.1-0.4,2.8-1.2c2.5-2.5,2.6-6.5,1.9-9.8C149.4,97.9,145,96.9,143,99.8z"/>
			<g>
				<g>
					<g>
						<path id="XMLID_73_" class="st28" d="M74.4,193.3c-1.9,1.5,4.4,130.7,6.5,134.7s73.2,5.3,78.3,2.7
							c5.1-2.7,10.5-130.8,7.8-137.3C164.4,186.7,91.7,179.3,74.4,193.3z"/>
					</g>
					<g>
						<defs>
							<path id="SVGID_34_" d="M74.4,193.3c-1.9,1.5,4.4,130.7,6.5,134.7s73.2,5.3,78.3,2.7c5.1-2.7,10.5-130.8,7.8-137.3
								C164.4,186.7,91.7,179.3,74.4,193.3z"/>
						</defs>
						<clipPath id="SVGID_35_">
							<use xlink:href="#SVGID_34_"  style="overflow:visible;"/>
						</clipPath>
						<path class="st36" d="M82.7,265.7c0.5,9.2,0.9,18.3,1.9,27.5c0.8,6.7,2,13.7,6.2,19c4,5,10.1,7.7,16.2,9.9
							c9.4,3.3,20.6,5.5,28.6-0.3c4.3-3.1,6.9-8,8.9-12.9c5.4-13.4,7-28.1,7.9-42.5c0.9-14.5,1-29.2-0.6-43.6
							c-0.6-5-1.4-10.1-4.1-14.3c-4.2-6.6-12.1-9.8-19.6-11.7c-8.5-2.1-17.6-3-26.3-1.4c-5.7,1.1-15,3.7-17.6,9.5
							c-3.6,7.8-2.3,20.6-2.4,29.1C81.7,244.5,82.2,255.1,82.7,265.7z"/>
					</g>
				</g>
				<rect x="125.8" y="352" class="st37" width="11" height="88.2"/>
				<path class="st28" d="M86.2,343.3c0,0-2,10.1,1.3,12.1s98.5,2.8,104-2.5c5.4-5.3,1.4-12.9-4.5-12.5S90.9,339.4,86.2,343.3z"/>
				<path class="st37" d="M96,305c0,0-9.2,47,6.8,53.7c16,6.7,31.5-1.7,31.5-1.7l-21-5.4c0,0-5.6-17.7-1-45.4
					C104.1,297.3,96,305,96,305z"/>
				<path class="st37" d="M91.7,308c1.2,1.8,3.1,3.1,5,4.1c3.9,2.1,8.5,3.3,12.8,2.5c4.4-0.8,8.5-3.8,9.7-8.1
					c1.4-4.8-1.1-10.1-5.1-13.1c-4.2-3.1-12.5-5.6-17.4-2.9C91.2,293.6,88,302.6,91.7,308z"/>
				
					<ellipse transform="matrix(0.2298 -0.9732 0.9732 0.2298 -327.3987 489.513)" class="st38" cx="145.6" cy="451.6" rx="11.3" ry="11.3"/>
				<path class="st37" d="M174.9,451.3h-70.1c-3.7,0-6.7-3-6.7-6.7l0,0c0-3.7,3-6.7,6.7-6.7h70.1c3.7,0,6.7,3,6.7,6.7l0,0
					C181.6,448.3,178.6,451.3,174.9,451.3z"/>
				
					<ellipse transform="matrix(0.2298 -0.9732 0.9732 0.2298 -368.6693 449.3587)" class="st38" cx="99.6" cy="457.6" rx="11.3" ry="11.3"/>
				
					<ellipse transform="matrix(0.1602 -0.9871 0.9871 0.1602 -299.7731 562.8326)" class="st38" cx="180.9" cy="457.6" rx="11.3" ry="11.3"/>
			</g>
			<path class="st30" d="M172.3,402.4"/>
		</g>
		<path class="st0" d="M192.9,413.9c-0.5,0.5-0.9,1.2-0.7,1.9c0.1,0.4,0.4,0.6,0.6,0.9c1.6,1.4,4.2,1.2,6,0c1-0.7,1.8-1.7,1.8-2.9
			C200.7,409.4,194.3,412.4,192.9,413.9z"/>
		<path class="st0" d="M303.9,422.9c0.1,0.7,0.3,1.5,1,1.8c0.3,0.2,0.7,0.1,1.1,0.1c2.1-0.3,3.6-2.4,3.9-4.5c0.1-1.2-0.1-2.5-1-3.3
			C305.5,414.1,303.7,420.8,303.9,422.9z"/>
	</g>
</g>
</svg>
