<?xml version="1.0" encoding="utf-8"?>
<!-- Generator: Adobe Illustrator 24.0.1, SVG Export Plug-In . SVG Version: 6.00 Build 0)  -->
<svg version="1.1" id="Layer_1" xmlns="http://www.w3.org/2000/svg" xmlns:xlink="http://www.w3.org/1999/xlink" x="0px" y="0px"
	 viewBox="0 0 496 123.9" style="enable-background:new 0 0 496 123.9;" xml:space="preserve">
<style type="text/css">
	.st0{fill:#FFFFFF;}
	.st1{fill:#282828;}
</style>
<g>
	<path class="st0" d="M6.6-33.9v-16.7h2.6l2.5,12.9L14-50.6h2.6v16.7h-1.9v-6.3l0.1-6L12.5-34h-1.7L8.3-46.2l0.1,6v6.3H6.6z"/>
	<path class="st0" d="M18.4-33.9l2.5-16.7h2.8l2.7,16.7h-2.1L23.8-37h-2.9l-0.4,3.1H18.4z M21.2-38.8h2.4l-1.2-8.7h0L21.2-38.8z"/>
	<path class="st0" d="M28-33.9v-16.7h1.7l3.7,10.8l-0.2-4.7v-6.1h2v16.7h-1.6l-3.7-11l0.1,4.3v6.7L28-33.9L28-33.9z"/>
	<path class="st0" d="M36.9-33.9l2.5-16.7h2.8l2.7,16.7h-2.1L42.3-37h-2.9L39-33.9H36.9z M39.7-38.8h2.4l-1.2-8.7h0L39.7-38.8z"/>
	<path class="st0" d="M46.6-33.9v-16.7h2.2v7.8l2.8-7.8h2.2l-3,8.3l3.2,8.5h-2.3l-2.9-7.9v7.9H46.6z"/>
	<path class="st0" d="M54.5-33.9L57-50.6h2.8l2.7,16.7h-2.1L59.9-37H57l-0.4,3.1H54.5z M57.3-38.8h2.4l-1.2-8.7h0L57.3-38.8z"/>
	<path class="st0" d="M64.2-33.9v-16.7h2.6l2.5,12.9l2.4-12.9h2.7v16.7h-1.9v-6.3l0.1-6L70.1-34h-1.7l-2.5-12.3l0.1,6v6.3H64.2z"/>
	<path class="st0" d="M76-33.9l2.5-16.7h2.8l2.7,16.7h-2.1L81.4-37h-2.9l-0.4,3.1H76z M78.8-38.8h2.4l-1.2-8.7h0L78.8-38.8z"/>
	<path class="st0" d="M85.6-33.9v-16.7h1.7l3.7,10.8l-0.2-4.7v-6.1h2v16.7h-1.6l-3.7-11l0.1,4.3v6.7L85.6-33.9L85.6-33.9z"/>
	<path class="st0" d="M94.5-33.9L97-50.6h2.8l2.7,16.7h-2.1L99.9-37h-2.9l-0.4,3.1H94.5z M97.3-38.8h2.4l-1.2-8.7h0L97.3-38.8z"/>
	<path class="st0" d="M108.3-33.9v-16.7h3.3c0.8,0,1.5,0.1,2,0.4s0.8,0.7,1,1.2s0.3,1.3,0.3,2.2v0.4c0,0.9-0.1,1.6-0.3,2.2
		c-0.2,0.6-0.6,1-1.1,1.2c0.4,0.2,0.7,0.4,1,0.8s0.4,0.8,0.5,1.4c0.1,0.6,0.2,1.1,0.2,1.8v0.4c0,1.1-0.1,2-0.4,2.7
		c-0.2,0.7-0.6,1.2-1.1,1.5s-1.2,0.5-2,0.5L108.3-33.9L108.3-33.9z M110.6-43.8h1c0.3,0,0.4,0,0.6-0.1s0.3-0.2,0.4-0.3
		c0.1-0.2,0.1-0.4,0.2-0.8s0-0.8,0-1.3v-0.7c0-0.6-0.1-1-0.1-1.2c-0.1-0.3-0.2-0.5-0.4-0.6c-0.2-0.1-0.4-0.1-0.8-0.1h-0.9
		L110.6-43.8L110.6-43.8z M110.6-35.7h1.1c0.4,0,0.6-0.1,0.8-0.3s0.3-0.5,0.4-0.9c0.1-0.4,0.1-1,0.1-1.7v-0.9c0-0.9-0.1-1.6-0.2-2
		c-0.2-0.4-0.5-0.6-1-0.6h-1.2L110.6-35.7L110.6-35.7z"/>
	<path class="st0" d="M117.3-33.9v-16.7h2.2v16.7H117.3z"/>
	<path class="st0" d="M122.2-33.9v-16.7h1.7l3.7,10.8l-0.2-4.7v-6.1h2v16.7h-1.6l-3.7-11l0.1,4.3v6.7L122.2-33.9L122.2-33.9z"/>
	<path class="st0" d="M132.1-33.9v-16.7h3.4c0.9,0,1.5,0.2,2,0.5s0.9,0.9,1.1,1.5c0.2,0.7,0.3,1.4,0.3,2.4l0,7.4
		c0,1.1-0.1,2-0.4,2.7c-0.2,0.7-0.6,1.2-1.1,1.6c-0.5,0.4-1.2,0.5-2,0.5L132.1-33.9L132.1-33.9z M134.3-35.7h0.9
		c0.3,0,0.6-0.1,0.8-0.2s0.4-0.4,0.5-0.8c0.1-0.4,0.2-0.9,0.2-1.6l0-7.9c0-1-0.1-1.7-0.4-2.1c-0.2-0.4-0.6-0.6-1.2-0.6h-0.9V-35.7z"
		/>
	<path class="st0" d="M141.3-33.9v-16.7h2.2v16.7H141.3z"/>
	<path class="st0" d="M146.2-33.9v-16.7h1.7l3.7,10.8l-0.2-4.7v-6.1h2v16.7h-1.6l-3.7-11l0.1,4.3v6.7L146.2-33.9L146.2-33.9z"/>
	<path class="st0" d="M159-33.8c-1,0-1.8-0.4-2.3-1.2c-0.6-0.8-0.8-2.1-0.8-3.9V-46c0-0.7,0.1-1.4,0.2-2s0.3-1.1,0.6-1.5
		c0.3-0.4,0.6-0.8,1.1-1c0.5-0.2,1-0.3,1.7-0.3c0.7,0,1.3,0.1,1.7,0.3c0.4,0.2,0.8,0.6,1,1c0.2,0.4,0.4,0.9,0.5,1.6
		c0.1,0.6,0.1,1.3,0.1,2v1.2h-2.1v-2c0-0.8-0.1-1.4-0.2-1.7c-0.2-0.4-0.5-0.5-0.9-0.5c-0.5,0-0.9,0.2-1.1,0.6
		c-0.2,0.4-0.3,1.2-0.3,2.3v7.1c0,1.2,0.1,2,0.3,2.5s0.5,0.8,1.1,0.8c0.5,0,0.9-0.3,1.1-0.8c0.2-0.5,0.3-1.4,0.3-2.6v-2.2h-1.3v-1.7
		h3.3v8.9h-1.1l-0.3-1.4c-0.2,0.5-0.4,0.9-0.9,1.2C160.1-33.9,159.6-33.8,159-33.8z"/>
	<path class="st0" d="M169.4-33.9v-16.7h3.6c0.7,0,1.2,0.1,1.6,0.3s0.8,0.5,1,0.9c0.2,0.4,0.4,0.9,0.5,1.5c0.1,0.6,0.1,1.3,0.1,2
		v0.3c0,1.1-0.1,2-0.3,2.8c-0.2,0.8-0.5,1.3-1,1.7s-1.1,0.6-2,0.6h-1.4v6.6L169.4-33.9L169.4-33.9z M171.6-42.3h1.1
		c0.4,0,0.7-0.1,0.9-0.3s0.3-0.6,0.4-1c0.1-0.5,0.1-1.1,0.1-1.9v-0.3c0-1-0.1-1.8-0.2-2.3s-0.5-0.7-1.1-0.7h-1.1L171.6-42.3
		L171.6-42.3z"/>
	<path class="st0" d="M178.1-33.9v-16.7h3.8c0.9,0,1.5,0.2,2,0.5c0.4,0.3,0.7,0.8,0.8,1.4c0.1,0.6,0.2,1.4,0.2,2.4
		c0,1-0.1,1.8-0.3,2.4c-0.2,0.6-0.6,1-1.2,1.2c0.3,0.1,0.6,0.2,0.8,0.4c0.2,0.2,0.4,0.5,0.5,0.9c0.1,0.4,0.2,0.9,0.3,1.6
		c0.1,0.7,0.1,1.5,0.1,2.5c0,0.1,0,0.3,0,0.5s0,0.5,0,0.8c0,0.3,0,0.6,0,0.9c0,0.3,0,0.6,0,0.8c0,0.2,0,0.4,0.1,0.4h-2.2
		c0,0,0-0.2-0.1-0.4c0-0.2,0-0.6,0-0.9c0-0.4,0-0.8,0-1.3s0-1,0-1.5c0-0.5,0-1.1,0-1.6c0-0.6,0-1-0.1-1.3c-0.1-0.3-0.2-0.5-0.4-0.6
		c-0.2-0.1-0.5-0.2-0.9-0.2l-1-0.1v8L178.1-33.9L178.1-33.9z M180.3-43.6h1.1c0.3,0,0.6-0.1,0.8-0.2s0.3-0.4,0.4-0.8
		c0.1-0.4,0.1-1,0.1-1.8v-0.1c0-0.7,0-1.2-0.1-1.5c-0.1-0.3-0.2-0.6-0.4-0.7c-0.2-0.1-0.5-0.2-0.9-0.2h-1.1L180.3-43.6L180.3-43.6z"
		/>
	<path class="st0" d="M187.2-33.9v-16.7h5.3v1.9h-3.1v5.3h2.9v1.8h-2.9v5.8h3.1v1.9L187.2-33.9L187.2-33.9z"/>
	<path class="st0" d="M197.4-33.7c-0.7,0-1.2-0.1-1.7-0.4s-0.8-0.6-1-1c-0.3-0.4-0.4-1-0.5-1.6s-0.1-1.3-0.1-2v-1.6h2.1v1.7
		c0,1.1,0.1,1.8,0.2,2.3s0.5,0.7,1,0.7c0.4,0,0.6-0.1,0.8-0.3s0.3-0.4,0.3-0.8s0.1-0.8,0.1-1.4c0-0.7-0.1-1.3-0.4-1.8
		s-0.6-1.1-1.1-1.6l-1.2-1.2c-0.3-0.3-0.6-0.7-0.9-1.1c-0.3-0.4-0.5-0.8-0.7-1.3c-0.2-0.5-0.3-1-0.3-1.7c0-0.8,0.1-1.6,0.3-2.2
		c0.2-0.6,0.5-1.1,1-1.4c0.5-0.3,1.2-0.5,2-0.5c0.7,0,1.2,0.1,1.6,0.3c0.4,0.2,0.7,0.6,1,1c0.2,0.4,0.4,0.9,0.4,1.5s0.1,1.2,0.1,2v1
		h-2.1v-1.2c0-0.6,0-1.1-0.1-1.5s-0.2-0.7-0.3-0.9s-0.4-0.3-0.7-0.3c-0.3,0-0.5,0.1-0.7,0.2c-0.2,0.1-0.3,0.3-0.4,0.6
		c-0.1,0.3-0.1,0.7-0.1,1.1c0,0.4,0.1,0.7,0.1,1c0.1,0.3,0.3,0.5,0.4,0.8c0.2,0.2,0.5,0.5,0.8,0.8l1.2,1.3c0.6,0.7,1.1,1.4,1.5,2.1
		c0.4,0.8,0.6,1.6,0.6,2.6c0,1-0.1,1.8-0.3,2.4c-0.2,0.7-0.5,1.2-1,1.5C198.9-33.9,198.2-33.7,197.4-33.7z"/>
	<path class="st0" d="M205.4-33.7c-0.7,0-1.2-0.1-1.7-0.4s-0.8-0.6-1-1c-0.3-0.4-0.4-1-0.5-1.6s-0.1-1.3-0.1-2v-1.6h2.1v1.7
		c0,1.1,0.1,1.8,0.2,2.3s0.5,0.7,1,0.7c0.4,0,0.6-0.1,0.8-0.3s0.3-0.4,0.3-0.8s0.1-0.8,0.1-1.4c0-0.7-0.1-1.3-0.4-1.8
		s-0.6-1.1-1.1-1.6l-1.2-1.2c-0.3-0.3-0.6-0.7-0.9-1.1c-0.3-0.4-0.5-0.8-0.7-1.3c-0.2-0.5-0.3-1-0.3-1.7c0-0.8,0.1-1.6,0.3-2.2
		c0.2-0.6,0.5-1.1,1-1.4c0.5-0.3,1.2-0.5,2-0.5c0.7,0,1.2,0.1,1.6,0.3c0.4,0.2,0.7,0.6,1,1c0.2,0.4,0.4,0.9,0.4,1.5s0.1,1.2,0.1,2v1
		h-2.1v-1.2c0-0.6,0-1.1-0.1-1.5s-0.2-0.7-0.3-0.9s-0.4-0.3-0.7-0.3c-0.3,0-0.5,0.1-0.7,0.2c-0.2,0.1-0.3,0.3-0.4,0.6
		c-0.1,0.3-0.1,0.7-0.1,1.1c0,0.4,0.1,0.7,0.1,1c0.1,0.3,0.3,0.5,0.4,0.8c0.2,0.2,0.5,0.5,0.8,0.8l1.2,1.3c0.6,0.7,1.1,1.4,1.5,2.1
		c0.4,0.8,0.6,1.6,0.6,2.6c0,1-0.1,1.8-0.3,2.4c-0.2,0.7-0.5,1.2-1,1.5C207-33.9,206.3-33.7,205.4-33.7z"/>
</g>
<g>
	<g>
		<path class="st1" d="M123.6,64.2V116h15.6l0,0V92.7c-0.2-0.2-0.4-0.3-0.7-0.5c0.4,0.3,0.7,0.5,1.1,0.7c9.2,5.8,21.4,7.3,33.7,1.6
			c6.3-2.9,11.4-7.9,14.4-14.1c12.1-25.3-6.2-50.2-30.1-50.2c-6.6,0-12.8,1.9-18,5.2c-3,1.9-5.7,4.2-8,6.9
			C126.6,48.3,123.6,55.9,123.6,64.2 M167.8,79.3c-17.4,10.1-35.4-7.9-25.4-25.3c1.1-2,2.8-3.6,4.7-4.8
			c17.4-10.2,35.5,7.9,25.4,25.4C171.4,76.5,169.8,78.1,167.8,79.3z"/>
		<g>
			<path class="st1" d="M139.1,7.9v27.8c-2.8,1.8-5.4,4.1-7.6,6.7c-5,5.9-8,13.5-8,21.8V7.9H139.1z"/>
		</g>
		<g>
			<g>
				<path class="st1" d="M37.5,102.9H21.9v-84h15.6v9.2c3.5-1.7,7.5-2.6,11.7-2.6c15,0,27.2,12.2,27.2,27.2H60.8
					c0-9.2-10.8-16-20.4-8.3c-1.9,1.5-2.9,3.8-2.9,6.3L37.5,102.9z"/>
			</g>
			<g>
				<path class="st1" d="M115.3,102.9H99.7V50.6c0-2.4-1-4.8-2.9-6.3c-9.6-7.7-20.4-0.9-20.4,8.3v50.2H60.8V50.6
					c0-8.6,4.5-16.6,12-20.8c21-11.9,42.5,3.1,42.5,23C115.3,52.7,115.3,102.9,115.3,102.9z"/>
			</g>
		</g>
		<g>
			<path class="st1" d="M119.6,116H9.9c-2.9,0-5.3-2.4-5.3-5.3V14.1c0-2.9,2.4-5.3,5.3-5.3h109.7v2.8H9.9c-1.4,0-2.6,1.1-2.6,2.6
				v96.6c0,1.4,1.2,2.6,2.6,2.6h109.7L119.6,116L119.6,116z"/>
		</g>
		<g>
			<path class="st1" d="M204,116h-59.8v-2.8H204c1.4,0,2.6-1.1,2.6-2.6V14.1c0-1.4-1.1-2.6-2.6-2.6h-59.8V8.7H204
				c2.9,0,5.3,2.4,5.3,5.3v96.6C209.3,113.6,206.9,116,204,116z"/>
		</g>
	</g>
	<g>
		<path class="st1" d="M219.2,62.4V20.9h7.8l5.9,30.3l5.5-30.3h7.9v41.4h-5.6V46.9l0.2-14.2l-5.6,29.4h-5l-5.8-29.4l0.2,14.2v15.4
			H219.2z"/>
		<path class="st1" d="M253,62.4l5.9-41.4h8.3l6.3,41.4h-5.9l-1-7.4H260l-0.9,7.4H253z M260.6,49.9h5.4l-2.8-20.8h-0.1L260.6,49.9z"
			/>
		<path class="st1" d="M280.2,62.4V20.9h4.9l8.8,24.9l-0.4-11.3V20.9h5.7v41.4h-4.5l-9-25.7l0.4,10.9v14.9H280.2z"/>
		<path class="st1" d="M305.8,62.4l5.9-41.4h8.3l6.3,41.4h-5.9l-1-7.4h-6.7l-0.9,7.4H305.8z M313.4,49.9h5.4l-2.8-20.8H316
			L313.4,49.9z"/>
		<path class="st1" d="M333,62.4V20.9h6.3V40l6.3-19.1h6.5l-6.9,20.4l7.4,21H346L339.4,43v19.4H333z"/>
		<path class="st1" d="M356.6,62.4l5.9-41.4h8.3l6.3,41.4h-5.9l-1-7.4h-6.7l-0.9,7.4H356.6z M364.1,49.9h5.4l-2.8-20.8h-0.1
			L364.1,49.9z"/>
		<path class="st1" d="M383.7,62.4V20.9h7.8l5.9,30.3l5.5-30.3h7.9v41.4h-5.6V46.9l0.2-14.2l-5.6,29.4h-5l-5.8-29.4l0.2,14.2v15.4
			H383.7z"/>
		<path class="st1" d="M417.6,62.4l5.9-41.4h8.3l6.3,41.4h-5.9l-1-7.4h-6.7l-0.9,7.4H417.6z M425.2,49.9h5.4l-2.8-20.8h-0.1
			L425.2,49.9z"/>
		<path class="st1" d="M444.8,62.4V20.9h4.9l8.8,24.9L458,34.5V20.9h5.7v41.4h-4.5l-9-25.7l0.4,10.9v14.9H444.8z"/>
		<path class="st1" d="M470.4,62.4l5.9-41.4h8.3l6.3,41.4H485l-1-7.4h-6.7l-0.9,7.4H470.4z M478,49.9h5.4l-2.8-20.8h-0.1L478,49.9z"
			/>
		<path class="st1" d="M218.8,107.3V74.4h5.9c1.7,0,3,0.2,3.9,0.7c0.9,0.5,1.6,1.3,1.9,2.4c0.4,1.1,0.6,2.5,0.6,4.3v0.7
			c0,1.8-0.2,3.3-0.5,4.5c-0.3,1.2-1,2-2,2.5c0.8,0.3,1.4,0.9,1.8,1.6s0.7,1.7,0.9,2.8c0.2,1.1,0.3,2.2,0.3,3.5v0.7
			c0,2.1-0.2,3.9-0.6,5.2s-1.1,2.4-2,3c-0.9,0.6-2.2,1-3.8,1H218.8z M222.7,88.2h2.2c0.5,0,0.9-0.1,1.3-0.2c0.3-0.1,0.6-0.4,0.8-0.7
			c0.2-0.4,0.3-0.9,0.4-1.6c0.1-0.7,0.1-1.7,0.1-2.9v-0.9c0-1.2-0.1-2.2-0.3-2.8c-0.2-0.6-0.5-1-0.9-1.2c-0.4-0.2-0.9-0.3-1.6-0.3
			h-1.9V88.2z M222.7,104.2h2.4c0.7,0,1.3-0.2,1.7-0.5c0.4-0.4,0.7-1,0.8-1.9c0.2-0.9,0.2-2.2,0.2-3.8v-1.1c0-2-0.2-3.5-0.5-4.4
			c-0.3-0.9-1-1.3-2.1-1.3h-2.6V104.2z"/>
		<path class="st1" d="M242.4,107.3V74.4h3.9v32.9H242.4z"/>
		<path class="st1" d="M258.1,107.3V74.4h2.9l7.6,22.4l-0.4-9.5V74.4h3.4v32.9h-2.8l-7.4-22.6l0.2,8.3v14.3H258.1z"/>
		<path class="st1" d="M283.6,107.3V74.4h6.2c1.7,0,3.1,0.4,4,1.1c1,0.7,1.6,1.7,2,3.1s0.6,2.9,0.6,4.8l0,14.4c0,2.2-0.2,4-0.7,5.4
			c-0.4,1.4-1.2,2.4-2.1,3.1s-2.3,1-3.9,1H283.6z M287.4,104.2h2c0.7,0,1.3-0.2,1.7-0.5c0.5-0.3,0.8-0.9,1-1.7
			c0.2-0.8,0.3-2,0.3-3.6V83.3c0-2.1-0.2-3.5-0.7-4.4s-1.3-1.3-2.4-1.3h-2V104.2z"/>
		<path class="st1" d="M307.9,107.3V74.4h3.9v32.9H307.9z"/>
		<path class="st1" d="M323.6,107.3V74.4h2.9l7.6,22.4l-0.4-9.5V74.4h3.4v32.9h-2.8L327,84.7l0.2,8.3v14.3H323.6z"/>
		<path class="st1" d="M354.6,107.6c-1.9,0-3.4-0.8-4.4-2.4c-1-1.6-1.5-4.2-1.5-7.7V83.7c0-1.4,0.1-2.8,0.3-3.9
			c0.2-1.2,0.6-2.2,1.1-3.1c0.5-0.9,1.2-1.5,2-2c0.9-0.5,2-0.7,3.3-0.7c1.4,0,2.5,0.2,3.3,0.7c0.8,0.5,1.4,1.1,1.9,2
			c0.4,0.9,0.7,1.9,0.8,3.1c0.1,1.2,0.2,2.5,0.2,4v2.5h-3.7v-4.3c0-1.6-0.2-2.8-0.5-3.5s-1-1.1-2-1.1c-1.1,0-1.8,0.5-2.2,1.4
			c-0.4,0.9-0.6,2.5-0.6,4.8v13.8c0,2.5,0.2,4.3,0.5,5.4c0.3,1.1,1.1,1.6,2.2,1.6c1.1,0,1.8-0.5,2.2-1.6c0.4-1.1,0.6-2.9,0.6-5.5V93
			h-2.7v-3h6.2v17.2h-2l-0.5-2.5c-0.3,0.9-0.9,1.6-1.7,2.1C356.6,107.4,355.7,107.6,354.6,107.6z"/>
		<path class="st1" d="M388.8,107.3V74.4h6.6c1.3,0,2.4,0.2,3.2,0.7c0.8,0.4,1.4,1.1,1.9,1.9s0.7,1.8,0.9,3c0.2,1.2,0.2,2.5,0.2,3.9
			v0.5c0,2.2-0.2,4.1-0.5,5.5c-0.3,1.5-1,2.6-1.8,3.4c-0.9,0.8-2.2,1.1-3.8,1.1h-2.7v12.9H388.8z M392.7,91.2h2.4
			c0.8,0,1.3-0.2,1.7-0.6c0.4-0.4,0.7-1.1,0.8-2.1c0.1-1,0.2-2.3,0.2-4.1v-0.6c0-2.1-0.2-3.7-0.5-4.7c-0.3-1-1-1.5-2.1-1.5h-2.4
			V91.2z"/>
		<path class="st1" d="M412,107.3V74.4h6.9c1.7,0,3,0.3,3.9,0.9c0.8,0.6,1.4,1.5,1.6,2.8c0.3,1.2,0.4,2.8,0.4,4.7
			c0,2-0.2,3.6-0.6,4.8c-0.4,1.2-1.2,2-2.4,2.3c0.6,0.1,1.1,0.4,1.5,0.8c0.4,0.4,0.7,1.1,0.9,1.9s0.4,2,0.5,3.5
			c0.1,1.5,0.1,3.3,0.1,5.5c0,0.2,0,0.5,0,0.9s0,0.8,0,1.3c0,0.5,0,0.9,0,1.4c0,0.5,0,0.9,0.1,1.2c0,0.4,0.1,0.6,0.1,0.8h-3.8
			c0-0.1-0.1-0.4-0.1-0.7s-0.1-0.9-0.1-1.5c0-0.6,0-1.4-0.1-2.3s0-1.9,0-2.9c0-1.1,0-2.3,0-3.6c0-1.2-0.1-2.2-0.2-2.8
			c-0.1-0.7-0.4-1.1-0.7-1.4c-0.4-0.3-1-0.4-1.9-0.5l-2.3-0.1v15.9H412z M415.8,88.6h2.5c0.7,0,1.3-0.1,1.6-0.4
			c0.4-0.3,0.6-0.8,0.8-1.7c0.1-0.8,0.2-2.1,0.2-3.8v-0.2c0-1.4-0.1-2.4-0.2-3.2s-0.4-1.2-0.8-1.4s-0.9-0.4-1.7-0.4h-2.4V88.6z"/>
		<path class="st1" d="M436,107.3V74.4h9.8v3.2h-6v11.2h5.6v3.2h-5.6v12h6v3.2H436z"/>
		<path class="st1" d="M461.9,107.7c-1.3,0-2.4-0.2-3.2-0.7s-1.5-1.2-1.9-2c-0.4-0.9-0.8-1.9-0.9-3.1s-0.3-2.5-0.3-4v-3.2h3.8v3.3
			c0,2.3,0.2,3.9,0.5,4.9c0.3,1,1,1.5,2.1,1.5c0.8,0,1.3-0.2,1.7-0.5c0.4-0.4,0.6-0.9,0.7-1.7s0.1-1.8,0.1-3.1
			c0-1.5-0.3-2.7-0.8-3.8s-1.3-2.1-2.2-3l-2.1-2.1c-0.6-0.6-1.2-1.3-1.8-2.1s-1.1-1.6-1.5-2.6c-0.4-1-0.6-2.1-0.6-3.3
			c0-1.7,0.2-3.1,0.5-4.3c0.3-1.2,1-2.1,1.9-2.8c0.9-0.7,2.2-1,3.9-1c1.3,0,2.4,0.2,3.2,0.7s1.4,1.1,1.8,2c0.4,0.9,0.7,1.9,0.8,3
			s0.2,2.5,0.2,3.9v1.9h-3.7v-2.2c0-1.3-0.1-2.4-0.2-3.3c-0.1-0.9-0.3-1.6-0.6-2c-0.3-0.4-0.8-0.7-1.5-0.7c-0.6,0-1.1,0.2-1.5,0.5
			c-0.4,0.3-0.7,0.8-0.8,1.4c-0.2,0.6-0.3,1.5-0.3,2.4c0,0.9,0.1,1.6,0.3,2.2c0.2,0.6,0.5,1.1,1,1.6c0.4,0.5,1,1.1,1.6,1.7l2.2,2.4
			c1.2,1.2,2.1,2.6,2.9,4.1c0.8,1.5,1.1,3.3,1.1,5.3c0,1.8-0.2,3.4-0.5,4.7s-1,2.3-1.9,3C464.9,107.3,463.6,107.7,461.9,107.7z"/>
		<path class="st1" d="M483.9,107.7c-1.3,0-2.4-0.2-3.2-0.7s-1.5-1.2-1.9-2c-0.4-0.9-0.8-1.9-0.9-3.1s-0.3-2.5-0.3-4v-3.2h3.8v3.3
			c0,2.3,0.2,3.9,0.5,4.9c0.3,1,1,1.5,2.1,1.5c0.8,0,1.3-0.2,1.7-0.5c0.4-0.4,0.6-0.9,0.7-1.7s0.1-1.8,0.1-3.1
			c0-1.5-0.3-2.7-0.8-3.8s-1.3-2.1-2.2-3l-2.1-2.1c-0.6-0.6-1.2-1.3-1.8-2.1s-1.1-1.6-1.5-2.6c-0.4-1-0.6-2.1-0.6-3.3
			c0-1.7,0.2-3.1,0.5-4.3c0.3-1.2,1-2.1,1.9-2.8c0.9-0.7,2.2-1,3.9-1c1.3,0,2.4,0.2,3.2,0.7s1.4,1.1,1.8,2c0.4,0.9,0.7,1.9,0.8,3
			s0.2,2.5,0.2,3.9v1.9H486v-2.2c0-1.3-0.1-2.4-0.2-3.3c-0.1-0.9-0.3-1.6-0.6-2c-0.3-0.4-0.8-0.7-1.5-0.7c-0.6,0-1.1,0.2-1.5,0.5
			c-0.4,0.3-0.7,0.8-0.8,1.4c-0.2,0.6-0.3,1.5-0.3,2.4c0,0.9,0.1,1.6,0.3,2.2c0.2,0.6,0.5,1.1,1,1.6c0.4,0.5,1,1.1,1.6,1.7l2.2,2.4
			c1.2,1.2,2.1,2.6,2.9,4.1c0.8,1.5,1.1,3.3,1.1,5.3c0,1.8-0.2,3.4-0.5,4.7s-1,2.3-1.9,3C486.9,107.3,485.6,107.7,483.9,107.7z"/>
	</g>
</g>
</svg>
