<?xml version="1.0" encoding="utf-8"?>
<!-- Generator: Adobe Illustrator 24.0.1, SVG Export Plug-In . SVG Version: 6.00 Build 0)  -->
<svg version="1.1" id="Layer_1" xmlns="http://www.w3.org/2000/svg" xmlns:xlink="http://www.w3.org/1999/xlink" x="0px" y="0px"
	 viewBox="0 0 496 123.9" style="enable-background:new 0 0 496 123.9;" xml:space="preserve">
<style type="text/css">
	.st0{fill:#FFFFFF;}
	.st1{fill:url(#SVGID_1_);}
	.st2{fill:url(#SVGID_2_);}
</style>
<g>
	<path class="st0" d="M6.6-33.9v-16.7h2.6l2.5,12.9L14-50.6h2.6v16.7h-1.9v-6.3l0.1-6L12.5-34h-1.7L8.3-46.2l0.1,6v6.3H6.6z"/>
	<path class="st0" d="M18.4-33.9l2.5-16.7h2.8l2.7,16.7h-2.1L23.8-37h-2.9l-0.4,3.1H18.4z M21.2-38.8h2.4l-1.2-8.7l0,0L21.2-38.8z"
		/>
	<path class="st0" d="M28-33.9v-16.7h1.7l3.7,10.8l-0.2-4.7v-6.1h2v16.7h-1.6l-3.7-11l0.1,4.3v6.7H28L28-33.9z"/>
	<path class="st0" d="M36.9-33.9l2.5-16.7h2.8l2.7,16.7h-2.1L42.3-37h-2.9L39-33.9H36.9z M39.7-38.8h2.4l-1.2-8.7l0,0L39.7-38.8z"/>
	<path class="st0" d="M46.6-33.9v-16.7h2.2v7.8l2.8-7.8h2.2l-3,8.3l3.2,8.5h-2.3l-2.9-7.9v7.9L46.6-33.9L46.6-33.9z"/>
	<path class="st0" d="M54.5-33.9L57-50.6h2.8l2.7,16.7h-2.1L59.9-37H57l-0.4,3.1H54.5z M57.3-38.8h2.4l-1.2-8.7l0,0L57.3-38.8z"/>
	<path class="st0" d="M64.2-33.9v-16.7h2.6l2.5,12.9l2.4-12.9h2.7v16.7h-1.9v-6.3l0.1-6L70.1-34h-1.7l-2.5-12.3l0.1,6v6.3L64.2-33.9
		L64.2-33.9z"/>
	<path class="st0" d="M76-33.9l2.5-16.7h2.8L84-33.9h-2.1L81.4-37h-2.9l-0.4,3.1H76z M78.8-38.8h2.4L80-47.5l0,0L78.8-38.8z"/>
	<path class="st0" d="M85.6-33.9v-16.7h1.7L91-39.8l-0.2-4.7v-6.1h2v16.7h-1.6l-3.7-11l0.1,4.3v6.7H85.6L85.6-33.9z"/>
	<path class="st0" d="M94.5-33.9L97-50.6h2.8l2.7,16.7h-2.1L99.9-37H97l-0.4,3.1H94.5z M97.3-38.8h2.4l-1.2-8.7l0,0L97.3-38.8z"/>
	<path class="st0" d="M108.3-33.9v-16.7h3.3c0.8,0,1.5,0.1,2,0.4s0.8,0.7,1,1.2s0.3,1.3,0.3,2.2v0.4c0,0.9-0.1,1.6-0.3,2.2
		c-0.2,0.6-0.6,1-1.1,1.2c0.4,0.2,0.7,0.4,1,0.8s0.4,0.8,0.5,1.4c0.1,0.6,0.2,1.1,0.2,1.8v0.4c0,1.1-0.1,2-0.4,2.7
		c-0.2,0.7-0.6,1.2-1.1,1.5s-1.2,0.5-2,0.5L108.3-33.9L108.3-33.9z M110.6-43.8h1c0.3,0,0.4,0,0.6-0.1s0.3-0.2,0.4-0.3
		c0.1-0.2,0.1-0.4,0.2-0.8s0-0.8,0-1.3V-47c0-0.6-0.1-1-0.1-1.2c-0.1-0.3-0.2-0.5-0.4-0.6c-0.2-0.1-0.4-0.1-0.8-0.1h-0.9L110.6-43.8
		L110.6-43.8z M110.6-35.7h1.1c0.4,0,0.6-0.1,0.8-0.3s0.3-0.5,0.4-0.9s0.1-1,0.1-1.7v-0.9c0-0.9-0.1-1.6-0.2-2
		c-0.2-0.4-0.5-0.6-1-0.6h-1.2L110.6-35.7L110.6-35.7z"/>
	<path class="st0" d="M117.3-33.9v-16.7h2.2v16.7H117.3z"/>
	<path class="st0" d="M122.2-33.9v-16.7h1.7l3.7,10.8l-0.2-4.7v-6.1h2v16.7h-1.6l-3.7-11l0.1,4.3v6.7H122.2L122.2-33.9z"/>
	<path class="st0" d="M132.1-33.9v-16.7h3.4c0.9,0,1.5,0.2,2,0.5s0.9,0.9,1.1,1.5c0.2,0.7,0.3,1.4,0.3,2.4v7.4c0,1.1-0.1,2-0.4,2.7
		c-0.2,0.7-0.6,1.2-1.1,1.6c-0.5,0.4-1.2,0.5-2,0.5L132.1-33.9L132.1-33.9z M134.3-35.7h0.9c0.3,0,0.6-0.1,0.8-0.2s0.4-0.4,0.5-0.8
		c0.1-0.4,0.2-0.9,0.2-1.6v-7.9c0-1-0.1-1.7-0.4-2.1c-0.2-0.4-0.6-0.6-1.2-0.6h-0.9L134.3-35.7L134.3-35.7z"/>
	<path class="st0" d="M141.3-33.9v-16.7h2.2v16.7H141.3z"/>
	<path class="st0" d="M146.2-33.9v-16.7h1.7l3.7,10.8l-0.2-4.7v-6.1h2v16.7h-1.6l-3.7-11l0.1,4.3v6.7H146.2L146.2-33.9z"/>
	<path class="st0" d="M159-33.8c-1,0-1.8-0.4-2.3-1.2c-0.6-0.8-0.8-2.1-0.8-3.9V-46c0-0.7,0.1-1.4,0.2-2s0.3-1.1,0.6-1.5
		s0.6-0.8,1.1-1s1-0.3,1.7-0.3s1.3,0.1,1.7,0.3s0.8,0.6,1,1s0.4,0.9,0.5,1.6c0.1,0.6,0.1,1.3,0.1,2v1.2h-2.1v-2
		c0-0.8-0.1-1.4-0.2-1.7c-0.2-0.4-0.5-0.5-0.9-0.5c-0.5,0-0.9,0.2-1.1,0.6c-0.2,0.4-0.3,1.2-0.3,2.3v7.1c0,1.2,0.1,2,0.3,2.5
		s0.5,0.8,1.1,0.8c0.5,0,0.9-0.3,1.1-0.8c0.2-0.5,0.3-1.4,0.3-2.6v-2.2h-1.3v-1.7h3.3v8.9h-1.1l-0.3-1.4c-0.2,0.5-0.4,0.9-0.9,1.2
		C160.1-33.9,159.6-33.8,159-33.8z"/>
	<path class="st0" d="M169.4-33.9v-16.7h3.6c0.7,0,1.2,0.1,1.6,0.3s0.8,0.5,1,0.9s0.4,0.9,0.5,1.5s0.1,1.3,0.1,2v0.3
		c0,1.1-0.1,2-0.3,2.8s-0.5,1.3-1,1.7s-1.1,0.6-2,0.6h-1.4v6.6L169.4-33.9L169.4-33.9z M171.6-42.3h1.1c0.4,0,0.7-0.1,0.9-0.3
		s0.3-0.6,0.4-1c0.1-0.5,0.1-1.1,0.1-1.9v-0.3c0-1-0.1-1.8-0.2-2.3s-0.5-0.7-1.1-0.7h-1.1L171.6-42.3L171.6-42.3z"/>
	<path class="st0" d="M178.1-33.9v-16.7h3.8c0.9,0,1.5,0.2,2,0.5c0.4,0.3,0.7,0.8,0.8,1.4c0.1,0.6,0.2,1.4,0.2,2.4s-0.1,1.8-0.3,2.4
		c-0.2,0.6-0.6,1-1.2,1.2c0.3,0.1,0.6,0.2,0.8,0.4s0.4,0.5,0.5,0.9s0.2,0.9,0.3,1.6c0.1,0.7,0.1,1.5,0.1,2.5c0,0.1,0,0.3,0,0.5
		s0,0.5,0,0.8s0,0.6,0,0.9c0,0.3,0,0.6,0,0.8s0,0.4,0.1,0.4H183c0,0,0-0.2-0.1-0.4c0-0.2,0-0.6,0-0.9c0-0.4,0-0.8,0-1.3s0-1,0-1.5
		s0-1.1,0-1.6c0-0.6,0-1-0.1-1.3s-0.2-0.5-0.4-0.6s-0.5-0.2-0.9-0.2l-1-0.1v8L178.1-33.9L178.1-33.9z M180.3-43.6h1.1
		c0.3,0,0.6-0.1,0.8-0.2s0.3-0.4,0.4-0.8c0.1-0.4,0.1-1,0.1-1.8v-0.1c0-0.7,0-1.2-0.1-1.5s-0.2-0.6-0.4-0.7
		c-0.2-0.1-0.5-0.2-0.9-0.2h-1.1L180.3-43.6L180.3-43.6z"/>
	<path class="st0" d="M187.2-33.9v-16.7h5.3v1.9h-3.1v5.3h2.9v1.8h-2.9v5.8h3.1v1.9H187.2L187.2-33.9z"/>
	<path class="st0" d="M197.4-33.7c-0.7,0-1.2-0.1-1.7-0.4s-0.8-0.6-1-1c-0.3-0.4-0.4-1-0.5-1.6s-0.1-1.3-0.1-2v-1.6h2.1v1.7
		c0,1.1,0.1,1.8,0.2,2.3s0.5,0.7,1,0.7c0.4,0,0.6-0.1,0.8-0.3s0.3-0.4,0.3-0.8s0.1-0.8,0.1-1.4c0-0.7-0.1-1.3-0.4-1.8
		s-0.6-1.1-1.1-1.6l-1.2-1.2c-0.3-0.3-0.6-0.7-0.9-1.1c-0.3-0.4-0.5-0.8-0.7-1.3s-0.3-1-0.3-1.7c0-0.8,0.1-1.6,0.3-2.2
		c0.2-0.6,0.5-1.1,1-1.4c0.5-0.3,1.2-0.5,2-0.5c0.7,0,1.2,0.1,1.6,0.3c0.4,0.2,0.7,0.6,1,1c0.2,0.4,0.4,0.9,0.4,1.5s0.1,1.2,0.1,2v1
		h-2.1v-1.2c0-0.6,0-1.1-0.1-1.5s-0.2-0.7-0.3-0.9s-0.4-0.3-0.7-0.3s-0.5,0.1-0.7,0.2c-0.2,0.1-0.3,0.3-0.4,0.6
		c-0.1,0.3-0.1,0.7-0.1,1.1c0,0.4,0.1,0.7,0.1,1c0.1,0.3,0.3,0.5,0.4,0.8c0.2,0.2,0.5,0.5,0.8,0.8l1.2,1.3c0.6,0.7,1.1,1.4,1.5,2.1
		c0.4,0.8,0.6,1.6,0.6,2.6s-0.1,1.8-0.3,2.4c-0.2,0.7-0.5,1.2-1,1.5C198.9-33.9,198.2-33.7,197.4-33.7z"/>
	<path class="st0" d="M205.4-33.7c-0.7,0-1.2-0.1-1.7-0.4s-0.8-0.6-1-1c-0.3-0.4-0.4-1-0.5-1.6s-0.1-1.3-0.1-2v-1.6h2.1v1.7
		c0,1.1,0.1,1.8,0.2,2.3s0.5,0.7,1,0.7c0.4,0,0.6-0.1,0.8-0.3s0.3-0.4,0.3-0.8s0.1-0.8,0.1-1.4c0-0.7-0.1-1.3-0.4-1.8
		s-0.6-1.1-1.1-1.6l-1.2-1.2c-0.3-0.3-0.6-0.7-0.9-1.1c-0.3-0.4-0.5-0.8-0.7-1.3s-0.3-1-0.3-1.7c0-0.8,0.1-1.6,0.3-2.2
		c0.2-0.6,0.5-1.1,1-1.4c0.5-0.3,1.2-0.5,2-0.5c0.7,0,1.2,0.1,1.6,0.3c0.4,0.2,0.7,0.6,1,1c0.2,0.4,0.4,0.9,0.4,1.5s0.1,1.2,0.1,2v1
		h-2.1v-1.2c0-0.6,0-1.1-0.1-1.5s-0.2-0.7-0.3-0.9s-0.4-0.3-0.7-0.3s-0.5,0.1-0.7,0.2c-0.2,0.1-0.3,0.3-0.4,0.6
		c-0.1,0.3-0.1,0.7-0.1,1.1c0,0.4,0.1,0.7,0.1,1c0.1,0.3,0.3,0.5,0.4,0.8c0.2,0.2,0.5,0.5,0.8,0.8l1.2,1.3c0.6,0.7,1.1,1.4,1.5,2.1
		c0.4,0.8,0.6,1.6,0.6,2.6s-0.1,1.8-0.3,2.4c-0.2,0.7-0.5,1.2-1,1.5C207-33.9,206.3-33.7,205.4-33.7z"/>
</g>
<g>
	<path class="st0" d="M123.6,251.4v51.8h15.6l0,0v-23.3c-0.2-0.2-0.4-0.3-0.7-0.5c0.4,0.3,0.7,0.5,1.1,0.7
		c9.2,5.8,21.4,7.3,33.7,1.6c6.3-2.9,11.4-7.9,14.4-14.1c12.1-25.3-6.2-50.2-30.1-50.2c-6.6,0-12.8,1.9-18,5.2c-3,1.9-5.7,4.2-8,6.9
		C126.6,235.5,123.6,243.1,123.6,251.4 M167.8,266.5c-17.4,10.1-35.4-7.9-25.4-25.3c1.1-2,2.8-3.6,4.7-4.8
		c17.4-10.2,35.5,7.9,25.4,25.4C171.4,263.7,169.8,265.3,167.8,266.5z"/>
	<g>
		<path class="st0" d="M139.1,195.1v27.8c-2.8,1.8-5.4,4.1-7.6,6.7c-5,5.9-8,13.5-8,21.8v-56.3H139.1z"/>
	</g>
	<g>
		<g>
			<path class="st0" d="M37.5,290.1H21.9v-84h15.6v9.2c3.5-1.7,7.5-2.6,11.7-2.6c15,0,27.2,12.2,27.2,27.2H60.8
				c0-9.2-10.8-16-20.4-8.3c-1.9,1.5-2.9,3.8-2.9,6.3V290.1z"/>
		</g>
		<g>
			<path class="st0" d="M115.3,290.1H99.7v-52.3c0-2.4-1-4.8-2.9-6.3c-9.6-7.7-20.4-0.9-20.4,8.3V290H60.8v-52.2
				c0-8.6,4.5-16.6,12-20.8c21-11.9,42.5,3.1,42.5,23C115.3,239.9,115.3,290.1,115.3,290.1z"/>
		</g>
	</g>
	<g>
		<path class="st0" d="M119.6,303.2H9.9c-2.9,0-5.3-2.4-5.3-5.3v-96.6c0-2.9,2.4-5.3,5.3-5.3h109.7v2.8H9.9c-1.4,0-2.6,1.1-2.6,2.6
			V298c0,1.4,1.2,2.6,2.6,2.6h109.7V303.2L119.6,303.2z"/>
	</g>
	<g>
		<path class="st0" d="M204,303.2h-59.8v-2.8H204c1.4,0,2.6-1.1,2.6-2.6v-96.5c0-1.4-1.1-2.6-2.6-2.6h-59.8v-2.8H204
			c2.9,0,5.3,2.4,5.3,5.3v96.6C209.3,300.8,206.9,303.2,204,303.2z"/>
	</g>
</g>
<g>
	<path class="st0" d="M219.2,62V20.5h7.8l5.9,30.3l5.5-30.3h7.9v41.4h-5.6V46.5l0.2-14.2l-5.6,29.4h-5l-5.8-29.4l0.2,14.2v15.4h-5.5
		V62z"/>
	<path class="st0" d="M253,62l5.9-41.4h8.3l6.3,41.4h-5.9l-1-7.4H260l-0.9,7.4H253z M260.6,49.5h5.4l-2.8-20.8h-0.1L260.6,49.5z"/>
	<path class="st0" d="M280.2,62V20.5h4.9l8.8,24.9l-0.4-11.3V20.5h5.7v41.4h-4.5l-9-25.7l0.4,10.9V62H280.2z"/>
	<path class="st0" d="M305.8,62l5.9-41.4h8.3l6.3,41.4h-5.9l-1-7.4h-6.7l-0.9,7.4H305.8z M313.4,49.5h5.4L316,28.7l0,0L313.4,49.5z"
		/>
	<path class="st0" d="M333,62V20.5h6.3v19.1l6.3-19.1h6.5l-6.9,20.4l7.4,21H346l-6.6-19.3V62H333z"/>
	<path class="st0" d="M356.6,62l5.9-41.4h8.3l6.3,41.4h-5.9l-1-7.4h-6.7l-0.9,7.4H356.6z M364.1,49.5h5.4l-2.8-20.8h-0.1L364.1,49.5
		z"/>
	<path class="st0" d="M383.7,62V20.5h7.8l5.9,30.3l5.5-30.3h7.9v41.4h-5.6V46.5l0.2-14.2l-5.6,29.4h-5L389,32.3l0.2,14.2v15.4h-5.5
		V62z"/>
	<path class="st0" d="M417.6,62l5.9-41.4h8.3l6.3,41.4h-5.9l-1-7.4h-6.7l-0.9,7.4H417.6z M425.2,49.5h5.4l-2.8-20.8h-0.1L425.2,49.5
		z"/>
	<path class="st0" d="M444.8,62V20.5h4.9l8.8,24.9L458,34.1V20.5h5.7v41.4h-4.5l-9-25.7l0.4,10.9V62H444.8z"/>
	<path class="st0" d="M470.4,62l5.9-41.4h8.3l6.3,41.4H485l-1-7.4h-6.7l-0.9,7.4H470.4z M478,49.5h5.4l-2.8-20.8h-0.1L478,49.5z"/>
	<path class="st0" d="M218.8,106.9V74h5.9c1.7,0,3,0.2,3.9,0.7s1.6,1.3,1.9,2.4c0.4,1.1,0.6,2.5,0.6,4.3v0.7c0,1.8-0.2,3.3-0.5,4.5
		s-1,2-2,2.5c0.8,0.3,1.4,0.9,1.8,1.6s0.7,1.7,0.9,2.8c0.2,1.1,0.3,2.2,0.3,3.5v0.7c0,2.1-0.2,3.9-0.6,5.2s-1.1,2.4-2,3
		s-2.2,1-3.8,1C225.2,106.9,218.8,106.9,218.8,106.9z M222.7,87.8h2.2c0.5,0,0.9-0.1,1.3-0.2c0.3-0.1,0.6-0.4,0.8-0.7
		c0.2-0.4,0.3-0.9,0.4-1.6c0.1-0.7,0.1-1.7,0.1-2.9v-0.9c0-1.2-0.1-2.2-0.3-2.8c-0.2-0.6-0.5-1-0.9-1.2s-0.9-0.3-1.6-0.3h-1.9v10.6
		H222.7z M222.7,103.8h2.4c0.7,0,1.3-0.2,1.7-0.5c0.4-0.4,0.7-1,0.8-1.9c0.2-0.9,0.2-2.2,0.2-3.8v-1.1c0-2-0.2-3.5-0.5-4.4
		s-1-1.3-2.1-1.3h-2.6v13H222.7z"/>
	<path class="st0" d="M242.4,106.9V74h3.9v32.9H242.4z"/>
	<path class="st0" d="M258.1,106.9V74h2.9l7.6,22.4l-0.4-9.5V74h3.4v32.9h-2.8l-7.4-22.6l0.2,8.3v14.3
		C261.6,106.9,258.1,106.9,258.1,106.9z"/>
	<path class="st0" d="M283.6,106.9V74h6.2c1.7,0,3.1,0.4,4,1.1c1,0.7,1.6,1.7,2,3.1s0.6,2.9,0.6,4.8v14.4c0,2.2-0.2,4-0.7,5.4
		c-0.4,1.4-1.2,2.4-2.1,3.1s-2.3,1-3.9,1H283.6z M287.4,103.8h2c0.7,0,1.3-0.2,1.7-0.5c0.5-0.3,0.8-0.9,1-1.7c0.2-0.8,0.3-2,0.3-3.6
		V82.9c0-2.1-0.2-3.5-0.7-4.4s-1.3-1.3-2.4-1.3h-2v26.6H287.4z"/>
	<path class="st0" d="M307.9,106.9V74h3.9v32.9H307.9z"/>
	<path class="st0" d="M323.6,106.9V74h2.9l7.6,22.4l-0.4-9.5V74h3.4v32.9h-2.8L327,84.3l0.2,8.3v14.3H323.6z"/>
	<path class="st0" d="M354.6,107.2c-1.9,0-3.4-0.8-4.4-2.4s-1.5-4.2-1.5-7.7V83.3c0-1.4,0.1-2.8,0.3-3.9c0.2-1.2,0.6-2.2,1.1-3.1
		s1.2-1.5,2-2c0.9-0.5,2-0.7,3.3-0.7c1.4,0,2.5,0.2,3.3,0.7s1.4,1.1,1.9,2c0.4,0.9,0.7,1.9,0.8,3.1c0.1,1.2,0.2,2.5,0.2,4v2.5h-3.7
		v-4.3c0-1.6-0.2-2.8-0.5-3.5s-1-1.1-2-1.1c-1.1,0-1.8,0.5-2.2,1.4c-0.4,0.9-0.6,2.5-0.6,4.8V97c0,2.5,0.2,4.3,0.5,5.4
		s1.1,1.6,2.2,1.6s1.8-0.5,2.2-1.6c0.4-1.1,0.6-2.9,0.6-5.5v-4.3h-2.7v-3h6.2v17.2h-2l-0.5-2.5c-0.3,0.9-0.9,1.6-1.7,2.1
		C356.6,107,355.7,107.2,354.6,107.2z"/>
	<path class="st0" d="M388.8,106.9V74h6.6c1.3,0,2.4,0.2,3.2,0.7c0.8,0.4,1.4,1.1,1.9,1.9s0.7,1.8,0.9,3c0.2,1.2,0.2,2.5,0.2,3.9V84
		c0,2.2-0.2,4.1-0.5,5.5c-0.3,1.5-1,2.6-1.8,3.4c-0.9,0.8-2.2,1.1-3.8,1.1h-2.7v12.9H388.8z M392.7,90.8h2.4c0.8,0,1.3-0.2,1.7-0.6
		c0.4-0.4,0.7-1.1,0.8-2.1c0.1-1,0.2-2.3,0.2-4.1v-0.6c0-2.1-0.2-3.7-0.5-4.7s-1-1.5-2.1-1.5h-2.4v13.6H392.7z"/>
	<path class="st0" d="M412,106.9V74h6.9c1.7,0,3,0.3,3.9,0.9c0.8,0.6,1.4,1.5,1.6,2.8c0.3,1.2,0.4,2.8,0.4,4.7c0,2-0.2,3.6-0.6,4.8
		c-0.4,1.2-1.2,2-2.4,2.3c0.6,0.1,1.1,0.4,1.5,0.8s0.7,1.1,0.9,1.9s0.4,2,0.5,3.5s0.1,3.3,0.1,5.5c0,0.2,0,0.5,0,0.9s0,0.8,0,1.3
		s0,0.9,0,1.4s0,0.9,0.1,1.2c0,0.4,0.1,0.6,0.1,0.8h-3.8c0-0.1-0.1-0.4-0.1-0.7s-0.1-0.9-0.1-1.5s0-1.4-0.1-2.3s0-1.9,0-2.9
		c0-1.1,0-2.3,0-3.6c0-1.2-0.1-2.2-0.2-2.8c-0.1-0.7-0.4-1.1-0.7-1.4c-0.4-0.3-1-0.4-1.9-0.5l-2.3-0.1v15.9L412,106.9L412,106.9z
		 M415.8,88.2h2.5c0.7,0,1.3-0.1,1.6-0.4c0.4-0.3,0.6-0.8,0.8-1.7c0.1-0.8,0.2-2.1,0.2-3.8v-0.2c0-1.4-0.1-2.4-0.2-3.2
		s-0.4-1.2-0.8-1.4s-0.9-0.4-1.7-0.4h-2.4V88.2z"/>
	<path class="st0" d="M436,106.9V74h9.8v3.2h-6v11.2h5.6v3.2h-5.6v12h6v3.2H436V106.9z"/>
	<path class="st0" d="M461.9,107.3c-1.3,0-2.4-0.2-3.2-0.7s-1.5-1.2-1.9-2c-0.4-0.9-0.8-1.9-0.9-3.1s-0.3-2.5-0.3-4v-3.2h3.8v3.3
		c0,2.3,0.2,3.9,0.5,4.9s1,1.5,2.1,1.5c0.8,0,1.3-0.2,1.7-0.5c0.4-0.4,0.6-0.9,0.7-1.7s0.1-1.8,0.1-3.1c0-1.5-0.3-2.7-0.8-3.8
		s-1.3-2.1-2.2-3l-2.1-2.1c-0.6-0.6-1.2-1.3-1.8-2.1s-1.1-1.6-1.5-2.6s-0.6-2.1-0.6-3.3c0-1.7,0.2-3.1,0.5-4.3
		c0.3-1.2,1-2.1,1.9-2.8c0.9-0.7,2.2-1,3.9-1c1.3,0,2.4,0.2,3.2,0.7s1.4,1.1,1.8,2s0.7,1.9,0.8,3s0.2,2.5,0.2,3.9v1.9h-3.7V83
		c0-1.3-0.1-2.4-0.2-3.3s-0.3-1.6-0.6-2c-0.3-0.4-0.8-0.7-1.5-0.7c-0.6,0-1.1,0.2-1.5,0.5s-0.7,0.8-0.8,1.4
		c-0.2,0.6-0.3,1.5-0.3,2.4s0.1,1.6,0.3,2.2c0.2,0.6,0.5,1.1,1,1.6c0.4,0.5,1,1.1,1.6,1.7l2.2,2.4c1.2,1.2,2.1,2.6,2.9,4.1
		s1.1,3.3,1.1,5.3c0,1.8-0.2,3.4-0.5,4.7s-1,2.3-1.9,3C464.9,106.9,463.6,107.3,461.9,107.3z"/>
	<path class="st0" d="M483.9,107.3c-1.3,0-2.4-0.2-3.2-0.7s-1.5-1.2-1.9-2c-0.4-0.9-0.8-1.9-0.9-3.1s-0.3-2.5-0.3-4v-3.2h3.8v3.3
		c0,2.3,0.2,3.9,0.5,4.9s1,1.5,2.1,1.5c0.8,0,1.3-0.2,1.7-0.5c0.4-0.4,0.6-0.9,0.7-1.7s0.1-1.8,0.1-3.1c0-1.5-0.3-2.7-0.8-3.8
		s-1.3-2.1-2.2-3l-2.1-2.1c-0.6-0.6-1.2-1.3-1.8-2.1s-1.1-1.6-1.5-2.6s-0.6-2.1-0.6-3.3c0-1.7,0.2-3.1,0.5-4.3
		c0.3-1.2,1-2.1,1.9-2.8c0.9-0.7,2.2-1,3.9-1c1.3,0,2.4,0.2,3.2,0.7s1.4,1.1,1.8,2s0.7,1.9,0.8,3s0.2,2.5,0.2,3.9v1.9H486V83
		c0-1.3-0.1-2.4-0.2-3.3s-0.3-1.6-0.6-2c-0.3-0.4-0.8-0.7-1.5-0.7c-0.6,0-1.1,0.2-1.5,0.5s-0.7,0.8-0.8,1.4
		c-0.2,0.6-0.3,1.5-0.3,2.4s0.1,1.6,0.3,2.2c0.2,0.6,0.5,1.1,1,1.6c0.4,0.5,1,1.1,1.6,1.7l2.2,2.4c1.2,1.2,2.1,2.6,2.9,4.1
		s1.1,3.3,1.1,5.3c0,1.8-0.2,3.4-0.5,4.7s-1,2.3-1.9,3C486.9,106.9,485.6,107.3,483.9,107.3z"/>
</g>
<g>
	<linearGradient id="SVGID_1_" gradientUnits="userSpaceOnUse" x1="132.1902" y1="64.1448" x2="132.1902" y2="9.133">
		<stop  offset="0" style="stop-color:#404041"/>
		<stop  offset="0.105" style="stop-color:#49494A"/>
		<stop  offset="0.2763" style="stop-color:#616162"/>
		<stop  offset="0.4925" style="stop-color:#89898A"/>
		<stop  offset="0.7453" style="stop-color:#C0C0C1"/>
		<stop  offset="1" style="stop-color:#FFFFFF"/>
	</linearGradient>
	<path class="st1" d="M139.8,9.1V37c0,0,0,0,0,0c-2.9,1.8-5.4,4-7.6,6.6c-3.3,4-5.7,8.7-6.9,14c0,0.1-0.1,0.2-0.1,0.4
		c-0.4,2-0.6,4.1-0.6,6.2v-55H139.8z"/>
	<path class="st0" d="M156.9,32.1c-6.3,0-12.1,1.8-17.1,4.9c0,0,0,0,0,0c-2.9,1.8-5.4,4-7.6,6.6c-3.3,4-5.7,8.7-6.9,14
		c0,0.1-0.1,0.2-0.1,0.4c-0.4,2.1-0.6,4.2-0.6,6.5l0,50.4h15.2l0-23c0.2,0.1,0.3,0.2,0.5,0.3c8.7,5.1,20.3,6.4,31.6,1.2
		c3-1.4,5.7-3.2,8-5.5c2.3-2.3,4.3-4.9,5.7-7.9c0.1-0.2,0.2-0.3,0.2-0.5c0.1-0.1,0.1-0.3,0.2-0.4c0.1-0.3,0.3-0.6,0.4-0.9
		c0.1-0.2,0.2-0.4,0.2-0.6h0C195.8,54.3,178.9,32.1,156.9,32.1z M168.4,77.4c-0.1,0.1-0.3,0.2-0.4,0.3c0,0,0,0,0,0
		c-0.1,0.1-0.3,0.2-0.4,0.3c-0.1,0.1-0.2,0.2-0.4,0.3c-0.1,0-0.1,0.1-0.2,0.1c-0.1,0.1-0.3,0.2-0.4,0.2c-8.4,4.9-17.1,2.8-22.4-2.5
		c-2.2-2.2-3.8-5.2-4.5-8.3c0,0,0,18.2,0,18.2l0-21.7c0-3.1,0.8-6.5,2.8-9.8c1.1-1.9,2.6-3.4,4.5-4.5c16.6-9.7,33.8,7.5,24.1,24.1
		C170.4,75.4,169.5,76.5,168.4,77.4L168.4,77.4z"/>
	<g>
		<g>
			<path class="st0" d="M40.4,102H25.2V19.9h15.2v9c3.5-1.6,7.3-2.6,11.4-2.6c14.7,0,26.6,11.9,26.6,26.6H63.2c0-9-10.6-15.7-20-8.2
				c-1.8,1.5-2.8,3.8-2.8,6.1L40.4,102z"/>
		</g>
		<g>
			<path class="st0" d="M116.5,102h-15.2l0-51.1c0-2.4-1-4.7-2.8-6.1c-9.4-7.5-20-0.9-20,8.2V102H63.2l0-51.2
				c0-8.4,4.4-16.2,11.7-20.4c20.5-11.7,41.6,3,41.6,22.5V102z"/>
		</g>
	</g>
	<g>
		<path class="st0" d="M120.7,114.8H13.4c-2.9,0-5.2-2.3-5.2-5.2V15.2c0-2.9,2.3-5.2,5.2-5.2h107.3v2.7H13.4c-1.4,0-2.5,1.1-2.5,2.5
			v94.4c0,1.4,1.1,2.5,2.5,2.5h107.3V114.8z"/>
	</g>
	<g>
		<path class="st0" d="M203.2,114.8h-58.4V112h58.4c1.4,0,2.5-1.1,2.5-2.5V15.2c0-1.4-1.1-2.5-2.5-2.5h-58.4V9.9h58.4
			c2.9,0,5.2,2.3,5.2,5.2v94.4C208.4,112.4,206.1,114.8,203.2,114.8z"/>
	</g>
	<linearGradient id="SVGID_2_" gradientUnits="userSpaceOnUse" x1="135.5035" y1="81.2368" x2="173.4371" y2="84.5663">
		<stop  offset="0" style="stop-color:#404041"/>
		<stop  offset="0.1624" style="stop-color:#454546;stop-opacity:0.8113"/>
		<stop  offset="0.3681" style="stop-color:#545556;stop-opacity:0.5721"/>
		<stop  offset="0.5972" style="stop-color:#6D6E70;stop-opacity:0.3057"/>
		<stop  offset="0.8418" style="stop-color:#8F9194;stop-opacity:2.143091e-02"/>
		<stop  offset="0.8603" style="stop-color:#929497;stop-opacity:0"/>
	</linearGradient>
	<path class="st2" d="M168.4,77.4c-0.6,0.5-1.2,0.9-1.8,1.3c-11.9,6.9-24.5-0.1-26.9-10.7l0,23.8c8.7,5.3,20.5,6.8,32,1.5
		c6-2.7,10.9-7.5,13.7-13.4c0.4-0.8,0.7-1.6,1-2.4H168.4z"/>
</g>
</svg>
