<?xml version="1.0" encoding="utf-8"?>
<!-- Generator: Adobe Illustrator 24.0.1, SVG Export Plug-In . SVG Version: 6.00 Build 0)  -->
<svg version="1.1" id="Layer_1" xmlns="http://www.w3.org/2000/svg" xmlns:xlink="http://www.w3.org/1999/xlink" x="0px" y="0px"
	 viewBox="0 0 496 123.9" style="enable-background:new 0 0 496 123.9;" xml:space="preserve">
<style type="text/css">
	.st0{fill:#064863;}
	.st1{fill:#00538B;}
	.st2{fill:url(#SVGID_1_);}
	.st3{fill:url(#SVGID_2_);}
</style>
<g>
	<path class="st0" d="M219.2,62.4V20.9h7.8l5.9,30.3l5.5-30.3h7.9v41.4h-5.6V46.9l0.2-14.2l-5.6,29.4h-5l-5.8-29.4l0.2,14.2v15.4
		h-5.5L219.2,62.4L219.2,62.4z"/>
	<path class="st0" d="M253,62.4l5.9-41.4h8.3l6.3,41.4h-5.9l-1-7.4H260l-0.9,7.4H253z M260.6,49.9h5.4l-2.8-20.8h-0.1L260.6,49.9z"
		/>
	<path class="st0" d="M280.2,62.4V20.9h4.9l8.8,24.9l-0.4-11.3V20.9h5.7v41.4h-4.5l-9-25.7l0.4,10.9v14.9H280.2z"/>
	<path class="st0" d="M305.8,62.4l5.9-41.4h8.3l6.3,41.4h-5.9l-1-7.4h-6.7l-0.9,7.4H305.8z M313.4,49.9h5.4L316,29.1l0,0L313.4,49.9
		z"/>
	<path class="st0" d="M333,62.4V20.9h6.3V40l6.3-19.1h6.5l-6.9,20.4l7.4,21H346L339.4,43v19.4H333z"/>
	<path class="st0" d="M356.6,62.4l5.9-41.4h8.3l6.3,41.4h-5.9l-1-7.4h-6.7l-0.9,7.4H356.6z M364.1,49.9h5.4l-2.8-20.8h-0.1
		L364.1,49.9z"/>
	<path class="st0" d="M383.7,62.4V20.9h7.8l5.9,30.3l5.5-30.3h7.9v41.4h-5.6V46.9l0.2-14.2l-5.6,29.4h-5L389,32.7l0.2,14.2v15.4
		L383.7,62.4L383.7,62.4z"/>
	<path class="st0" d="M417.6,62.4l5.9-41.4h8.3l6.3,41.4h-5.9l-1-7.4h-6.7l-0.9,7.4H417.6z M425.2,49.9h5.4l-2.8-20.8h-0.1
		L425.2,49.9z"/>
	<path class="st0" d="M444.8,62.4V20.9h4.9l8.8,24.9L458,34.5V20.9h5.7v41.4h-4.5l-9-25.7l0.4,10.9v14.9H444.8z"/>
	<path class="st0" d="M470.4,62.4l5.9-41.4h8.3l6.3,41.4H485l-1-7.4h-6.7l-0.9,7.4H470.4z M478,49.9h5.4l-2.8-20.8h-0.1L478,49.9z"
		/>
	<path class="st0" d="M218.8,107.3V74.4h5.9c1.7,0,3,0.2,3.9,0.7s1.6,1.3,1.9,2.4c0.4,1.1,0.6,2.5,0.6,4.3v0.7
		c0,1.8-0.2,3.3-0.5,4.5s-1,2-2,2.5c0.8,0.3,1.4,0.9,1.8,1.6s0.7,1.7,0.9,2.8c0.2,1.1,0.3,2.2,0.3,3.5v0.7c0,2.1-0.2,3.9-0.6,5.2
		s-1.1,2.4-2,3s-2.2,1-3.8,1C225.2,107.3,218.8,107.3,218.8,107.3z M222.7,88.2h2.2c0.5,0,0.9-0.1,1.3-0.2c0.3-0.1,0.6-0.4,0.8-0.7
		c0.2-0.4,0.3-0.9,0.4-1.6c0.1-0.7,0.1-1.7,0.1-2.9v-0.9c0-1.2-0.1-2.2-0.3-2.8c-0.2-0.6-0.5-1-0.9-1.2s-0.9-0.3-1.6-0.3h-1.9v10.6
		H222.7z M222.7,104.2h2.4c0.7,0,1.3-0.2,1.7-0.5c0.4-0.4,0.7-1,0.8-1.9c0.2-0.9,0.2-2.2,0.2-3.8v-1.1c0-2-0.2-3.5-0.5-4.4
		s-1-1.3-2.1-1.3h-2.6v13C222.6,104.2,222.7,104.2,222.7,104.2z"/>
	<path class="st0" d="M242.4,107.3V74.4h3.9v32.9H242.4z"/>
	<path class="st0" d="M258.1,107.3V74.4h2.9l7.6,22.4l-0.4-9.5V74.4h3.4v32.9h-2.8l-7.4-22.6l0.2,8.3v14.3
		C261.6,107.3,258.1,107.3,258.1,107.3z"/>
	<path class="st0" d="M283.6,107.3V74.4h6.2c1.7,0,3.1,0.4,4,1.1c1,0.7,1.6,1.7,2,3.1s0.6,2.9,0.6,4.8v14.4c0,2.2-0.2,4-0.7,5.4
		c-0.4,1.4-1.2,2.4-2.1,3.1s-2.3,1-3.9,1H283.6z M287.4,104.2h2c0.7,0,1.3-0.2,1.7-0.5c0.5-0.3,0.8-0.9,1-1.7c0.2-0.8,0.3-2,0.3-3.6
		V83.3c0-2.1-0.2-3.5-0.7-4.4s-1.3-1.3-2.4-1.3h-2v26.6H287.4z"/>
	<path class="st0" d="M307.9,107.3V74.4h3.9v32.9H307.9z"/>
	<path class="st0" d="M323.6,107.3V74.4h2.9l7.6,22.4l-0.4-9.5V74.4h3.4v32.9h-2.8L327,84.7l0.2,8.3v14.3H323.6z"/>
	<path class="st0" d="M354.6,107.6c-1.9,0-3.4-0.8-4.4-2.4s-1.5-4.2-1.5-7.7V83.7c0-1.4,0.1-2.8,0.3-3.9c0.2-1.2,0.6-2.2,1.1-3.1
		s1.2-1.5,2-2c0.9-0.5,2-0.7,3.3-0.7c1.4,0,2.5,0.2,3.3,0.7s1.4,1.1,1.9,2c0.4,0.9,0.7,1.9,0.8,3.1c0.1,1.2,0.2,2.5,0.2,4v2.5h-3.7
		V82c0-1.6-0.2-2.8-0.5-3.5s-1-1.1-2-1.1c-1.1,0-1.8,0.5-2.2,1.4c-0.4,0.9-0.6,2.5-0.6,4.8v13.8c0,2.5,0.2,4.3,0.5,5.4
		s1.1,1.6,2.2,1.6s1.8-0.5,2.2-1.6c0.4-1.1,0.6-2.9,0.6-5.5V93h-2.7v-3h6.2v17.2h-2l-0.5-2.5c-0.3,0.9-0.9,1.6-1.7,2.1
		C356.6,107.4,355.7,107.6,354.6,107.6z"/>
	<path class="st0" d="M388.8,107.3V74.4h6.6c1.3,0,2.4,0.2,3.2,0.7c0.8,0.4,1.4,1.1,1.9,1.9s0.7,1.8,0.9,3c0.2,1.2,0.2,2.5,0.2,3.9
		v0.5c0,2.2-0.2,4.1-0.5,5.5c-0.3,1.5-1,2.6-1.8,3.4c-0.9,0.8-2.2,1.1-3.8,1.1h-2.7v12.9H388.8z M392.7,91.2h2.4
		c0.8,0,1.3-0.2,1.7-0.6c0.4-0.4,0.7-1.1,0.8-2.1c0.1-1,0.2-2.3,0.2-4.1v-0.6c0-2.1-0.2-3.7-0.5-4.7s-1-1.5-2.1-1.5h-2.4v13.6
		C392.8,91.2,392.7,91.2,392.7,91.2z"/>
	<path class="st0" d="M412,107.3V74.4h6.9c1.7,0,3,0.3,3.9,0.9c0.8,0.6,1.4,1.5,1.6,2.8c0.3,1.2,0.4,2.8,0.4,4.7
		c0,2-0.2,3.6-0.6,4.8c-0.4,1.2-1.2,2-2.4,2.3c0.6,0.1,1.1,0.4,1.5,0.8s0.7,1.1,0.9,1.9s0.4,2,0.5,3.5s0.1,3.3,0.1,5.5
		c0,0.2,0,0.5,0,0.9s0,0.8,0,1.3s0,0.9,0,1.4s0,0.9,0.1,1.2c0,0.4,0.1,0.6,0.1,0.8h-3.8c0-0.1-0.1-0.4-0.1-0.7s-0.1-0.9-0.1-1.5
		s0-1.4-0.1-2.3s0-1.9,0-2.9c0-1.1,0-2.3,0-3.6c0-1.2-0.1-2.2-0.2-2.8c-0.1-0.7-0.4-1.1-0.7-1.4c-0.4-0.3-1-0.4-1.9-0.5l-2.3-0.1
		v15.9L412,107.3L412,107.3z M415.8,88.6h2.5c0.7,0,1.3-0.1,1.6-0.4c0.4-0.3,0.6-0.8,0.8-1.7c0.1-0.8,0.2-2.1,0.2-3.8v-0.2
		c0-1.4-0.1-2.4-0.2-3.2s-0.4-1.2-0.8-1.4s-0.9-0.4-1.7-0.4h-2.4V88.6z"/>
	<path class="st0" d="M436,107.3V74.4h9.8v3.2h-6v11.2h5.6V92h-5.6v12h6v3.2H436V107.3z"/>
	<path class="st0" d="M461.9,107.7c-1.3,0-2.4-0.2-3.2-0.7s-1.5-1.2-1.9-2c-0.4-0.9-0.8-1.9-0.9-3.1s-0.3-2.5-0.3-4v-3.2h3.8V98
		c0,2.3,0.2,3.9,0.5,4.9s1,1.5,2.1,1.5c0.8,0,1.3-0.2,1.7-0.5c0.4-0.4,0.6-0.9,0.7-1.7s0.1-1.8,0.1-3.1c0-1.5-0.3-2.7-0.8-3.8
		s-1.3-2.1-2.2-3l-2.1-2.1c-0.6-0.6-1.2-1.3-1.8-2.1s-1.1-1.6-1.5-2.6s-0.6-2.1-0.6-3.3c0-1.7,0.2-3.1,0.5-4.3
		c0.3-1.2,1-2.1,1.9-2.8c0.9-0.7,2.2-1,3.9-1c1.3,0,2.4,0.2,3.2,0.7s1.4,1.1,1.8,2s0.7,1.9,0.8,3s0.2,2.5,0.2,3.9v1.9h-3.7v-2.2
		c0-1.3-0.1-2.4-0.2-3.3s-0.3-1.6-0.6-2c-0.3-0.4-0.8-0.7-1.5-0.7c-0.6,0-1.1,0.2-1.5,0.5s-0.7,0.8-0.8,1.4
		c-0.2,0.6-0.3,1.5-0.3,2.4s0.1,1.6,0.3,2.2c0.2,0.6,0.5,1.1,1,1.6c0.4,0.5,1,1.1,1.6,1.7l2.2,2.4c1.2,1.2,2.1,2.6,2.9,4.1
		s1.1,3.3,1.1,5.3c0,1.8-0.2,3.4-0.5,4.7s-1,2.3-1.9,3C464.9,107.3,463.6,107.7,461.9,107.7z"/>
	<path class="st0" d="M483.9,107.7c-1.3,0-2.4-0.2-3.2-0.7s-1.5-1.2-1.9-2c-0.4-0.9-0.8-1.9-0.9-3.1s-0.3-2.5-0.3-4v-3.2h3.8V98
		c0,2.3,0.2,3.9,0.5,4.9s1,1.5,2.1,1.5c0.8,0,1.3-0.2,1.7-0.5c0.4-0.4,0.6-0.9,0.7-1.7s0.1-1.8,0.1-3.1c0-1.5-0.3-2.7-0.8-3.8
		s-1.3-2.1-2.2-3l-2.1-2.1c-0.6-0.6-1.2-1.3-1.8-2.1s-1.1-1.6-1.5-2.6s-0.6-2.1-0.6-3.3c0-1.7,0.2-3.1,0.5-4.3
		c0.3-1.2,1-2.1,1.9-2.8c0.9-0.7,2.2-1,3.9-1c1.3,0,2.4,0.2,3.2,0.7s1.4,1.1,1.8,2s0.7,1.9,0.8,3s0.2,2.5,0.2,3.9v1.9H486v-2.2
		c0-1.3-0.1-2.4-0.2-3.3s-0.3-1.6-0.6-2c-0.3-0.4-0.8-0.7-1.5-0.7c-0.6,0-1.1,0.2-1.5,0.5s-0.7,0.8-0.8,1.4
		c-0.2,0.6-0.3,1.5-0.3,2.4s0.1,1.6,0.3,2.2c0.2,0.6,0.5,1.1,1,1.6c0.4,0.5,1,1.1,1.6,1.7l2.2,2.4c1.2,1.2,2.1,2.6,2.9,4.1
		s1.1,3.3,1.1,5.3c0,1.8-0.2,3.4-0.5,4.7s-1,2.3-1.9,3C486.9,107.3,485.6,107.7,483.9,107.7z"/>
</g>
<g>
	<path class="st1" d="M139.3,7.8v28.8c0,0,0,0,0,0c-3,1.9-5.6,4.2-7.9,6.8c-3.5,4.1-5.9,9-7.1,14.4c0,0.1-0.1,0.2-0.1,0.4
		c-0.4,2-0.7,4.2-0.7,6.4V7.8H139.3z"/>
	<linearGradient id="SVGID_1_" gradientUnits="userSpaceOnUse" x1="131.4201" y1="64.6695" x2="131.4201" y2="7.7867">
		<stop  offset="0" style="stop-color:#002A3F"/>
		<stop  offset="0.2051" style="stop-color:#002C42"/>
		<stop  offset="0.3729" style="stop-color:#00344C"/>
		<stop  offset="0.5276" style="stop-color:#00415E"/>
		<stop  offset="0.6744" style="stop-color:#005376"/>
		<stop  offset="0.8156" style="stop-color:#006B95"/>
		<stop  offset="0.9509" style="stop-color:#0087BA"/>
		<stop  offset="1" style="stop-color:#0093CA"/>
	</linearGradient>
	<path class="st2" d="M139.3,7.8v28.8c0,0,0,0,0,0c-3,1.9-5.6,4.2-7.9,6.8c-3.5,4.1-5.9,9-7.1,14.4c0,0.1-0.1,0.2-0.1,0.4
		c-0.4,2-0.7,4.2-0.7,6.4V7.8H139.3z"/>
	<path class="st0" d="M156.9,31.6c-6.5,0-12.5,1.9-17.6,5.1c0,0,0,0,0,0c-3,1.9-5.6,4.2-7.9,6.8c-3.5,4.1-5.9,9-7.1,14.4
		c0,0.1-0.1,0.2-0.1,0.4c-0.4,2.2-0.7,4.4-0.7,6.7l0,52.1h15.7l0-23.7c0.2,0.1,0.3,0.2,0.5,0.3c9,5.2,21,6.6,32.6,1.2
		c3.1-1.4,5.9-3.4,8.3-5.7c2.4-2.4,4.4-5.1,5.9-8.2c0.1-0.2,0.2-0.3,0.2-0.5c0.1-0.1,0.1-0.3,0.2-0.4c0.1-0.3,0.3-0.6,0.4-1
		c0.1-0.2,0.2-0.4,0.2-0.6h0C197.2,54.5,179.7,31.6,156.9,31.6z M168.9,78.4c-0.1,0.1-0.3,0.2-0.4,0.4c0,0,0,0,0,0
		c-0.1,0.1-0.3,0.2-0.4,0.3c-0.1,0.1-0.3,0.2-0.4,0.3c-0.1,0-0.1,0.1-0.2,0.1c-0.1,0.1-0.3,0.2-0.4,0.2c-8.7,5-17.7,2.9-23.1-2.6
		c-2.3-2.3-3.9-5.1-4.6-8.3c0,0,0,0,0,0l0,18.6l0-22.5c0-3.2,0.9-6.7,2.9-10.1c1.1-1.9,2.7-3.6,4.7-4.7c17.1-10,34.9,7.8,24.9,24.9
		C171,76.3,170,77.5,168.9,78.4L168.9,78.4z"/>
	<g>
		<g>
			<path class="st0" d="M36.5,103.8H20.8V18.9h15.7v9.3c3.6-1.7,7.6-2.7,11.8-2.7c15.2,0,27.5,12.4,27.5,27.5H60.1
				c0-9.3-10.9-16.2-20.7-8.4c-1.9,1.5-2.9,3.9-2.9,6.3L36.5,103.8z"/>
		</g>
		<g>
			<path class="st0" d="M115.1,103.8H99.4l0-52.8c0-2.4-1-4.8-2.9-6.3c-9.7-7.7-20.7-0.9-20.7,8.4v50.7H60.1l0-52.9
				c0-8.7,4.5-16.8,12.1-21.1c21.2-12,43,3.1,43,23.2V103.8z"/>
		</g>
	</g>
	<g>
		<path class="st0" d="M119.5,117H8.6c-3,0-5.4-2.4-5.4-5.4V14c0-3,2.4-5.4,5.4-5.4h110.9v2.8H8.6C7.2,11.4,6,12.6,6,14v97.6
			c0,1.4,1.2,2.6,2.6,2.6h110.9V117z"/>
	</g>
	<g>
		<path class="st0" d="M204.8,117h-60.4v-2.8h60.4c1.4,0,2.6-1.2,2.6-2.6V14c0-1.4-1.2-2.6-2.6-2.6h-60.4V8.6h60.4
			c3,0,5.4,2.4,5.4,5.4v97.6C210.2,114.6,207.8,117,204.8,117z"/>
	</g>
	<linearGradient id="SVGID_2_" gradientUnits="userSpaceOnUse" x1="134.8868" y1="82.4074" x2="174.0758" y2="85.8471">
		<stop  offset="0" style="stop-color:#002A3F"/>
		<stop  offset="0.2655" style="stop-color:#004360;stop-opacity:0.7345"/>
		<stop  offset="0.8472" style="stop-color:#0082B3;stop-opacity:0.1528"/>
		<stop  offset="1" style="stop-color:#0093CA;stop-opacity:0"/>
	</linearGradient>
	<path class="st3" d="M168.9,78.4c-0.6,0.5-1.2,0.9-1.9,1.3c-12.3,7.1-25.3,0-27.7-10.9l0,24.5c9,5.5,21.2,7,33.1,1.5
		c6.2-2.8,11.2-7.8,14.2-13.9c0.4-0.8,0.7-1.6,1.1-2.5H168.9z"/>
</g>
</svg>
