<?xml version="1.0" encoding="utf-8"?>
<!-- Generator: Adobe Illustrator 24.0.1, SVG Export Plug-In . SVG Version: 6.00 Build 0)  -->
<svg version="1.1" id="Layer_1" xmlns="http://www.w3.org/2000/svg" xmlns:xlink="http://www.w3.org/1999/xlink" x="0px" y="0px"
	 viewBox="0 0 500 300" style="enable-background:new 0 0 500 300;" xml:space="preserve">
<style type="text/css">
	.st0{fill:#76CED9;}
	.st1{enable-background:new    ;}
	.st2{fill:#282B2E;}
	.st3{fill:#333539;}
	.st4{fill:#272829;}
	.st5{clip-path:url(#SVGID_2_);enable-background:new    ;}
	.st6{fill:#CDCFE1;}
	.st7{clip-path:url(#SVGID_4_);enable-background:new    ;}
	.st8{fill:#F1F1F8;}
	.st9{fill:#1B1C1E;}
	.st10{fill:#E4E4ED;}
	.st11{fill:#616C81;}
	.st12{fill:#FCB415;}
	.st13{fill:#1C1C1C;}
	.st14{fill:#A8ABC5;}
	.st15{fill:#05627E;}
	.st16{fill:#034254;}
	.st17{fill:#2A7990;}
	.st18{fill:#1E6E84;}
	.st19{fill:#B8BAD2;}
	.st20{fill:#FFFFFF;}
	.st21{fill:#E9ECF1;}
	.st22{fill:#4FC3C6;}
	.st23{fill:#B4B4B4;}
	.st24{opacity:0.5;}
	.st25{fill:#0B1E31;}
	.st26{clip-path:url(#SVGID_6_);enable-background:new    ;}
	.st27{fill:#212426;}
	.st28{fill:#2B2C2F;}
	.st29{clip-path:url(#SVGID_8_);enable-background:new    ;}
	.st30{fill:#1B1C1F;}
	.st31{clip-path:url(#SVGID_10_);enable-background:new    ;}
	.st32{fill:#A82E2D;}
	.st33{fill:#D03A38;}
	.st34{clip-path:url(#SVGID_12_);enable-background:new    ;}
	.st35{fill:#F04847;}
	.st36{clip-path:url(#SVGID_14_);enable-background:new    ;}
	.st37{fill:#FAA21B;}
	.st38{clip-path:url(#SVGID_16_);enable-background:new    ;}
	.st39{fill:#FFC709;}
	.st40{clip-path:url(#SVGID_18_);enable-background:new    ;}
	.st41{clip-path:url(#SVGID_20_);enable-background:new    ;}
	.st42{clip-path:url(#SVGID_22_);enable-background:new    ;}
	.st43{clip-path:url(#SVGID_24_);enable-background:new    ;}
	.st44{fill:#FFCB05;}
	.st45{fill:#2D3641;}
	.st46{fill:#FCAF17;}
	.st47{fill:#65371D;}
	.st48{fill:#3279A9;}
	.st49{fill:#171E24;}
	.st50{fill:#DF9026;}
	.st51{fill:#FDC60D;}
	.st52{fill:#4DA3DA;}
	.st53{fill:#794120;}
	.st54{fill:#826F5E;}
	.st55{fill:#181818;}
	.st56{fill:#E4CABD;}
	.st57{fill:#A5AFB9;}
	.st58{fill:#2C2C43;}
	.st59{fill:#8BA3AF;}
	.st60{fill:#2D2D43;}
	.st61{fill:#A7B0B2;}
	.st62{fill:#A6B0B1;}
	.st63{fill:#94A1AA;}
	.st64{fill:#A8B1B1;}
	.st65{fill:#DFCDC4;}
	.st66{fill:#A9ACB0;}
	.st67{fill:#F69B8D;}
	.st68{fill:#F5F8EE;}
	.st69{fill:#F6F9F0;}
	.st70{fill:#F5F7EE;}
	.st71{fill:#F7F7ED;}
	.st72{fill:#A9B1B2;}
	.st73{fill:#90A0A4;}
	.st74{fill:#FCFDF9;}
	.st75{fill:#6A6B6C;}
	.st76{fill:#332F38;}
	.st77{fill:#6B6B70;}
	.st78{fill:#FAFBF6;}
	.st79{fill:#FCEFDA;}
	.st80{fill:#474D55;}
	.st81{fill:#E8E8EA;}
	.st82{fill:#352A35;}
	.st83{fill:#41363A;}
	.st84{fill:#E9D5CC;}
	.st85{fill:#E8E9EE;}
	.st86{fill:#84848D;}
	.st87{fill:#D0BFBD;}
	.st88{fill:#E1CFC8;}
	.st89{fill:#8DA2B0;}
	.st90{fill:#909FA7;}
	.st91{fill:#D5C9C2;}
	.st92{fill:#F28478;}
	.st93{fill:#332E3F;}
	.st94{fill:#363042;}
	.st95{fill:#AEB5C1;}
	.st96{fill:#4E313D;}
	.st97{fill:#4F2A33;}
	.st98{fill:#F8E7AE;}
	.st99{fill:#D85A31;}
	.st100{fill:#CA6342;}
	.st101{fill:#FFF6F0;}
	.st102{fill:#D08E90;}
	.st103{fill:#E6A6A2;}
	.st104{fill:#E37551;}
	.st105{fill:#2C2E3F;}
	.st106{fill:#293045;}
	.st107{fill:#292E43;}
	.st108{fill:#1C2838;}
	.st109{fill:#414C5F;}
	.st110{fill:#8D9CAB;}
	.st111{fill:#1E253A;}
	.st112{fill:#364151;}
	.st113{fill:#2B2834;}
	.st114{fill:#23242E;}
	.st115{fill:#99A8B5;}
	.st116{fill:#282630;}
	.st117{fill:#71778E;}
	.st118{fill:#201F2D;}
	.st119{fill:#7C8299;}
	.st120{fill:#7E8599;}
	.st121{fill:#232633;}
	.st122{fill:#7B8096;}
	.st123{fill:#2B3146;}
	.st124{fill:#7F859A;}
	.st125{fill:#7C8196;}
	.st126{fill:#81879C;}
	.st127{fill:#848A9F;}
	.st128{fill:#85899F;}
	.st129{fill:#6E7187;}
	.st130{fill:#63697E;}
	.st131{fill:#6A7289;}
	.st132{fill:#6B7288;}
	.st133{fill:#292E3E;}
	.st134{fill:#DCCCC8;}
	.st135{fill:#94A1A7;}
	.st136{fill:#1C2536;}
	.st137{fill:#F6988B;}
	.st138{fill:#FAEEE7;}
	.st139{fill:#613237;}
	.st140{fill:#F3C3A1;}
	.st141{fill:#A68F69;}
	.st142{fill:#3E5B75;}
	.st143{fill:#42637B;}
	.st144{fill:#DF878D;}
	.st145{fill:#543434;}
	.st146{fill:#F8F5E7;}
	.st147{fill:#E8CEAF;}
	.st148{fill:#2E2B43;}
	.st149{fill:#352F40;}
	.st150{fill:#E7CD71;}
	.st151{fill:#F47E71;}
	.st152{fill:#E2AC31;}
	.st153{fill:#EBD4BC;}
	.st154{fill:#ED8985;}
	.st155{fill:#C6765E;}
	.st156{fill:#FEF1EE;}
	.st157{fill:#9AA1A4;}
	.st158{fill:#F58577;}
	.st159{fill:#485D6C;}
	.st160{fill:#86A1A8;}
	.st161{fill:#2D4250;}
	.st162{fill:#2C3E4D;}
	.st163{fill:#566677;}
	.st164{fill:#475867;}
	.st165{fill:#8195A3;}
	.st166{fill:#99A9B9;}
	.st167{fill:#4E5F70;}
	.st168{fill:#334554;}
	.st169{fill:#98ADBE;}
	.st170{fill:#99AFBF;}
	.st171{fill:#959F9C;}
	.st172{fill:#F47A4F;}
	.st173{fill:#F6968A;}
	.st174{fill:#BD5350;}
	.st175{fill:#9E8F5C;}
	.st176{fill:#F2E5C1;}
	.st177{fill:#9D8C5F;}
	.st178{fill:#9C8C5E;}
	.st179{fill:#B9A278;}
	.st180{fill:#C0AE7D;}
	.st181{fill:#493817;}
	.st182{fill:#F8E6AD;}
	.st183{fill:#EC7E55;}
	.st184{fill:#F47E52;}
	.st185{fill:#EB754E;}
	.st186{fill:#E6744F;}
	.st187{fill:#BE5636;}
	.st188{fill:#97A5B7;}
	.st189{fill:#95A6B5;}
	.st190{fill:#758393;}
	.st191{fill:#96A6B7;}
	.st192{fill:#96A4B3;}
	.st193{fill:#362716;}
	.st194{fill:#A5802D;}
	.st195{fill:#2A3046;}
	.st196{fill:#2A2E42;}
	.st197{fill:#20273C;}
	.st198{fill:#A0B1BE;}
	.st199{fill:#39A3C5;}
	.st200{fill:#CB5975;}
	.st201{fill:#382C34;}
	.st202{fill:#3B2E3A;}
	.st203{fill:#47333C;}
	.st204{fill:#653D3F;}
	.st205{fill:#F6BCAC;}
	.st206{fill:#E9BB81;}
	.st207{fill:#1C2639;}
	.st208{fill:#E6CABD;}
	.st209{fill:#503E23;}
	.st210{fill:#F8D499;}
	.st211{fill:#E9A822;}
	.st212{fill:#F47C4E;}
	.st213{fill:#F39D22;}
	.st214{fill:#EE8634;}
	.st215{fill:#94A6B4;}
	.st216{fill:#94A9B7;}
	.st217{fill:#98ABB9;}
	.st218{fill:#1D2D3B;}
	.st219{fill:#9BACBC;}
	.st220{fill:#97AAB8;}
	.st221{fill:#1E2939;}
	.st222{fill:#BE5631;}
	.st223{fill:#EE825D;}
	.st224{fill:#F38761;}
	.st225{fill:#B24A26;}
	.st226{fill:#B44D2E;}
	.st227{fill:#C75E3D;}
	.st228{fill:#DC9F49;}
</style>
<ellipse class="st0" cx="536.3" cy="520" rx="221" ry="39.2"/>
<g>
	<g>
		<g>
			<g class="st1">
				<g>
					<polygon class="st2" points="860.7,274.1 903.8,249 903.7,267.9 860.7,292.9 					"/>
				</g>
				<g>
					<polygon class="st3" points="749.5,209.9 792.6,184.8 903.8,249 860.7,274.1 					"/>
				</g>
				<g>
					<polygon class="st4" points="860.7,274.1 860.7,292.9 749.5,228.7 749.5,209.9 					"/>
				</g>
			</g>
		</g>
		<g>
			<g class="st1">
				<g class="st1">
					<defs>
						<path id="SVGID_1_" class="st1" d="M827,192.8l21.1-12.2c4.6-2.7,11.1-2.3,18.2,1.8l-21.1,12.2
							C838.1,190.5,831.6,190.1,827,192.8z"/>
					</defs>
					<use xlink:href="#SVGID_1_"  style="overflow:visible;fill:#CDCFE1;"/>
					<clipPath id="SVGID_2_">
						<use xlink:href="#SVGID_1_"  style="overflow:visible;"/>
					</clipPath>
					<g class="st5">
						<path class="st6" d="M827,192.8l21.1-12.2c3.7-2.1,8.5-2.3,13.8-0.3l-21.1,12.2C835.5,190.4,830.7,190.6,827,192.8L827,192.8z
							"/>
						<path class="st6" d="M840.8,192.5l21.1-12.2c1.4,0.5,2.9,1.2,4.3,2.1l-21.1,12.2C843.7,193.7,842.2,193,840.8,192.5
							L840.8,192.5z"/>
					</g>
				</g>
				<g class="st1">
					<defs>
						<path id="SVGID_3_" class="st1" d="M884.2,242.8L863.2,255c4.6-2.7,7.4-8.3,7.4-16.4c0-16.2-11.3-35.9-25.5-44.1l21.1-12.2
							c14.1,8.1,25.5,27.9,25.5,44.1C891.6,234.5,888.8,240.1,884.2,242.8z"/>
					</defs>
					<use xlink:href="#SVGID_3_"  style="overflow:visible;fill:#CDCFE1;"/>
					<clipPath id="SVGID_4_">
						<use xlink:href="#SVGID_3_"  style="overflow:visible;"/>
					</clipPath>
					<g class="st7">
						<path class="st6" d="M845.2,194.6l21.1-12.2c1.6,0.9,3.1,1.9,4.5,3.1l-21.1,12.2C848.2,196.5,846.7,195.4,845.2,194.6
							L845.2,194.6z"/>
						<path class="st8" d="M849.7,197.6l21.1-12.2c10.4,8.1,18.5,22.2,20.5,35.2l-21.1,12.2C868.2,219.8,860.1,205.8,849.7,197.6
							L849.7,197.6z"/>
						<path class="st6" d="M870.2,232.8l21.1-12.2c0.3,2,0.4,3.9,0.4,5.8c0,1.6-0.1,3.1-0.3,4.5l-21.1,12.2c0.2-1.4,0.3-2.9,0.3-4.5
							C870.6,236.7,870.5,234.8,870.2,232.8L870.2,232.8z"/>
						<path class="st6" d="M870.3,243.1l21.1-12.2c-0.9,5.7-3.4,9.8-7.1,11.9L863.2,255C866.8,252.9,869.4,248.8,870.3,243.1
							L870.3,243.1z"/>
					</g>
				</g>
				<g>
					<path class="st6" d="M845.2,194.6c14.1,8.1,25.5,27.9,25.5,44.1c0,16.2-11.5,22.7-25.6,14.6c-14.1-8.1-25.5-27.9-25.5-44.1
						C819.6,192.9,831.1,186.4,845.2,194.6z"/>
				</g>
			</g>
		</g>
		<g>
			<g class="st1">
				<g>
					<polygon class="st2" points="825.7,363.2 883.1,329.8 883.1,335.5 825.7,368.9 					"/>
				</g>
				<g>
					<polygon class="st3" points="704.7,293.4 762.1,260 883.1,329.8 825.7,363.2 					"/>
				</g>
				<g>
					<polygon class="st9" points="825.7,363.2 825.7,368.9 704.7,299.1 704.7,293.4 					"/>
				</g>
			</g>
		</g>
		<g>
			<g class="st1">
				<g>
					<polygon class="st10" points="828.1,264.7 871.2,239.7 870.9,330 827.8,355 					"/>
				</g>
				<g>
					<polygon class="st8" points="716.9,200.5 760,175.5 871.2,239.7 828.1,264.7 					"/>
				</g>
				<g>
					<polygon class="st6" points="828.1,264.7 827.8,355 716.7,290.8 716.9,200.5 					"/>
				</g>
			</g>
		</g>
		<g>
			<g>
				<g>
					<path class="st11" d="M822.9,343.4l-31.4-18.1l0.2-31l31.2,18V343.4z M792.4,324.7l29.6,17.1v-29l-29.3-16.9L792.4,324.7z"/>
				</g>
			</g>
		</g>
		<g>
			<g>
				<polygon class="st12" points="812.2,327.1 807.2,314.1 802.1,321.3 				"/>
			</g>
			<g>
				<path class="st13" d="M807.2,315.3l4.2,10.7l-8.3-4.8L807.2,315.3z M807.2,316.1l-3.6,5.1l7.1,4.1L807.2,316.1z"/>
			</g>
			<g>
				<path class="st13" d="M807.7,318.4l-0.1,3.3l-0.8-0.5l-0.1-3.4L807.7,318.4z M807.5,321.8c0.1,0,0.1,0.1,0.1,0.2v0.7
					c0,0.1-0.1,0.1-0.1,0.1l-0.6-0.4c-0.1,0-0.1-0.1-0.1-0.2v-0.7c0-0.1,0-0.1,0.1-0.1L807.5,321.8L807.5,321.8z"/>
			</g>
		</g>
		<g>
			<g>
				<g>
					<path class="st11" d="M752.1,303.4l-31.4-18.1l0.2-31l31.2,18V303.4z M721.6,284.7l29.6,17.1v-29l-29.3-16.9L721.6,284.7z"/>
				</g>
			</g>
		</g>
		<g>
			<g class="st1">
				<g>
					<polygon class="st10" points="857,176.1 871.3,167.7 871.1,239.7 856.8,248 					"/>
				</g>
				<g>
					<polygon class="st8" points="745.8,111.9 760.1,103.5 871.3,167.7 857,176.1 					"/>
				</g>
				<g>
					<polygon class="st6" points="857,176.1 856.8,248 745.6,183.8 745.8,111.9 					"/>
				</g>
				<g>
					<polygon class="st14" points="833.6,168.6 766,129.5 766,159.5 833.6,198.5 					"/>
				</g>
			</g>
		</g>
		<g>
			<polygon class="st10" points="757.6,161 757.6,190.3 782.9,175.7 			"/>
			<polygon class="st14" points="782.9,175.7 757.6,190.3 757.6,191.8 845.6,242.6 845.6,211.8 			"/>
		</g>
		<g>
			<g class="st1">
				<g>
					<polygon class="st10" points="842.2,209.9 844.9,208.3 844.7,218.6 842.1,220.1 					"/>
				</g>
				<g>
					<polygon class="st11" points="845.5,215.8 845.3,230.4 763.5,178.8 763.6,168.6 					"/>
				</g>
				<g>
					<polygon class="st2" points="842.2,209.9 842.1,220.1 760.2,172.9 760.4,162.6 					"/>
				</g>
			</g>
		</g>
		<g>
			<g>
				<g class="st1">
					<g>
						<polygon class="st15" points="706.7,233.6 706.6,240.8 696.3,246.8 696.3,239.6 						"/>
					</g>
					<g>
						<polygon class="st16" points="696.3,239.6 696.3,246.8 663.5,227.8 663.5,220.7 						"/>
					</g>
					<g>
						<polygon class="st16" points="777.4,274.5 777.4,281.6 706.6,240.8 706.7,233.6 						"/>
					</g>
					<g>
						<polygon class="st16" points="799.9,299.4 799.9,306.6 767.1,287.6 767.1,280.5 						"/>
					</g>
					<g>
						<polygon class="st15" points="872.7,257.1 872.6,264.3 799.9,306.6 799.9,299.4 						"/>
					</g>
					<g>
						<polygon class="st17" points="872.7,257.1 799.9,299.4 767.1,280.5 777.4,274.5 706.7,233.6 696.3,239.6 663.5,220.7 
							736.3,178.4 						"/>
					</g>
				</g>
			</g>
			<g>
				<g>
					<path class="st18" d="M863.8,256.4c0.9-0.5,2.4-0.5,3.3,0c0.9,0.5,0.9,1.4,0,1.9c-0.9,0.5-2.4,0.5-3.3,0
						C862.9,257.8,862.9,256.9,863.8,256.4z"/>
					<ellipse class="st18" cx="844.4" cy="245.2" rx="2.4" ry="1.4"/>
					<ellipse class="st18" cx="823.4" cy="233" rx="2.4" ry="1.4"/>
					<path class="st18" d="M800.7,219.9c0.9-0.5,2.4-0.5,3.3,0c0.9,0.5,0.9,1.4,0,1.9c-0.9,0.5-2.4,0.5-3.3,0
						C799.7,221.3,799.7,220.5,800.7,219.9z"/>
					<path class="st18" d="M779.6,207.8c0.9-0.5,2.4-0.5,3.3,0c0.9,0.5,0.9,1.4,0,1.9c-0.9,0.5-2.4,0.5-3.3,0
						C778.7,209.2,778.7,208.3,779.6,207.8z"/>
					<path class="st18" d="M758.5,195.6c0.9-0.5,2.4-0.5,3.3,0c0.9,0.5,0.9,1.4,0,1.9c-0.9,0.5-2.4,0.5-3.3,0
						C757.6,197,757.6,196.1,758.5,195.6z"/>
					<path class="st18" d="M737.5,183.4c0.9-0.5,2.4-0.5,3.3,0c0.9,0.5,0.9,1.4,0,1.9c-0.9,0.5-2.4,0.5-3.3,0
						C736.6,184.8,736.6,184,737.5,183.4z"/>
				</g>
				<g>
					<path class="st18" d="M845,257c0.9-0.5,2.4-0.5,3.3,0c0.9,0.5,0.9,1.4,0,1.9c-0.9,0.5-2.4,0.5-3.3,0
						C844.1,258.4,844.1,257.6,845,257z"/>
					<path class="st18" d="M824,244.9c0.9-0.5,2.4-0.5,3.3,0c0.9,0.5,0.9,1.4,0,1.9c-0.9,0.5-2.4,0.5-3.3,0
						C823.1,246.3,823.1,245.4,824,244.9z"/>
					<path class="st18" d="M802.9,232.7c0.9-0.5,2.4-0.5,3.3,0s0.9,1.4,0,1.9s-2.4,0.5-3.3,0C802,234.1,802,233.2,802.9,232.7z"/>
					<path class="st18" d="M781.8,220.5c0.9-0.5,2.4-0.5,3.3,0c0.9,0.5,0.9,1.4,0,1.9c-0.9,0.5-2.4,0.5-3.3,0
						C780.9,221.9,780.9,221.1,781.8,220.5z"/>
					<path class="st18" d="M760.8,208.4c0.9-0.5,2.4-0.5,3.3,0c0.9,0.5,0.9,1.4,0,1.9c-0.9,0.5-2.4,0.5-3.3,0
						C759.9,209.8,759.9,208.9,760.8,208.4z"/>
					<path class="st18" d="M739.7,196.2c0.9-0.5,2.4-0.5,3.3,0c0.9,0.5,0.9,1.4,0,1.9c-0.9,0.5-2.4,0.5-3.3,0
						C738.8,197.6,738.8,196.8,739.7,196.2z"/>
				</g>
				<g>
					<path class="st18" d="M842.2,268.9c0.9-0.5,2.4-0.5,3.3,0c0.9,0.5,0.9,1.4,0,1.9c-0.9,0.5-2.4,0.5-3.3,0
						S841.3,269.4,842.2,268.9z"/>
					<path class="st18" d="M821.2,256.7c0.9-0.5,2.4-0.5,3.3,0c0.9,0.5,0.9,1.4,0,1.9c-0.9,0.5-2.4,0.5-3.3,0
						C820.2,258.1,820.2,257.3,821.2,256.7z"/>
					<path class="st18" d="M800.1,244.6c0.9-0.5,2.4-0.5,3.3,0c0.9,0.5,0.9,1.4,0,1.9c-0.9,0.5-2.4,0.5-3.3,0
						C799.2,246,799.2,245.1,800.1,244.6z"/>
					<path class="st18" d="M779,232.4c0.9-0.5,2.4-0.5,3.3,0c0.9,0.5,0.9,1.4,0,1.9c-0.9,0.5-2.4,0.5-3.3,0
						C778.1,233.8,778.1,232.9,779,232.4z"/>
					<path class="st18" d="M758,220.2c0.9-0.5,2.4-0.5,3.3,0c0.9,0.5,0.9,1.4,0,1.9c-0.9,0.5-2.4,0.5-3.3,0
						C757.1,221.6,757.1,220.8,758,220.2z"/>
					<path class="st18" d="M736.9,208.1c0.9-0.5,2.4-0.5,3.3,0c0.9,0.5,0.9,1.4,0,1.9c-0.9,0.5-2.4,0.5-3.3,0
						C736,209.5,736,208.6,736.9,208.1z"/>
					<path class="st18" d="M715.9,195.9c0.9-0.5,2.4-0.5,3.3,0c0.9,0.5,0.9,1.4,0,1.9c-0.9,0.5-2.4,0.5-3.3,0
						S714.9,196.5,715.9,195.9z"/>
				</g>
				<g>
					<ellipse class="st18" cx="825.7" cy="270.1" rx="2.4" ry="1.4"/>
					<ellipse class="st18" cx="804.6" cy="258" rx="2.4" ry="1.4"/>
					<ellipse class="st18" cx="783.6" cy="245.8" rx="2.4" ry="1.4"/>
					<ellipse class="st18" cx="762.5" cy="233.6" rx="2.4" ry="1.4"/>
					<ellipse class="st18" cx="741.4" cy="221.5" rx="2.4" ry="1.4"/>
					<path class="st18" d="M718.7,208.4c0.9-0.5,2.4-0.5,3.3,0c0.9,0.5,0.9,1.4,0,1.9c-0.9,0.5-2.4,0.5-3.3,0
						C717.8,209.8,717.8,208.9,718.7,208.4z"/>
				</g>
				<g>
					<path class="st18" d="M821.2,281c0.9-0.5,2.4-0.5,3.3,0c0.9,0.5,0.9,1.4,0,1.9c-0.9,0.5-2.4,0.5-3.3,0
						C820.3,282.4,820.3,281.6,821.2,281z"/>
					<path class="st18" d="M800.1,268.9c0.9-0.5,2.4-0.5,3.3,0c0.9,0.5,0.9,1.4,0,1.9c-0.9,0.5-2.4,0.5-3.3,0
						C799.2,270.3,799.2,269.4,800.1,268.9z"/>
					<path class="st18" d="M779.1,256.7c0.9-0.5,2.4-0.5,3.3,0c0.9,0.5,0.9,1.4,0,1.9c-0.9,0.5-2.4,0.5-3.3,0
						C778.2,258.1,778.2,257.2,779.1,256.7z"/>
					<path class="st18" d="M758,244.5c0.9-0.5,2.4-0.5,3.3,0s0.9,1.4,0,1.9s-2.4,0.5-3.3,0C757.1,245.9,757.1,245.1,758,244.5z"/>
					<path class="st18" d="M737,232.4c0.9-0.5,2.4-0.5,3.3,0c0.9,0.5,0.9,1.4,0,1.9c-0.9,0.5-2.4,0.5-3.3,0
						C736,233.8,736,232.9,737,232.4z"/>
					<path class="st18" d="M715.9,220.2c0.9-0.5,2.4-0.5,3.3,0c0.9,0.5,0.9,1.4,0,1.9c-0.9,0.5-2.4,0.5-3.3,0
						C715,221.6,715,220.8,715.9,220.2z"/>
					<ellipse class="st18" cx="696.5" cy="209" rx="2.4" ry="1.4"/>
				</g>
				<g>
					<ellipse class="st18" cx="804.1" cy="282.6" rx="2.4" ry="1.4"/>
					<path class="st18" d="M781.3,269.5c0.9-0.5,2.4-0.5,3.3,0c0.9,0.5,0.9,1.4,0,1.9c-0.9,0.5-2.4,0.5-3.3,0
						C780.4,270.9,780.4,270,781.3,269.5z"/>
					<ellipse class="st18" cx="761.9" cy="258.3" rx="2.4" ry="1.4"/>
					<path class="st18" d="M739.2,245.2c0.9-0.5,2.4-0.5,3.3,0c0.9,0.5,0.9,1.4,0,1.9c-0.9,0.5-2.4,0.5-3.3,0
						C738.3,246.6,738.3,245.7,739.2,245.2z"/>
					<path class="st18" d="M718.2,233c0.9-0.5,2.4-0.5,3.3,0s0.9,1.4,0,1.9s-2.4,0.5-3.3,0C717.2,234.4,717.2,233.5,718.2,233z"/>
					<path class="st18" d="M697.1,220.8c0.9-0.5,2.4-0.5,3.3,0c0.9,0.5,0.9,1.4,0,1.9c-0.9,0.5-2.4,0.5-3.3,0
						C696.2,222.2,696.2,221.4,697.1,220.8z"/>
				</g>
				<g>
					<path class="st18" d="M799.6,293.5c0.9-0.5,2.4-0.5,3.3,0c0.9,0.5,0.9,1.4,0,1.9c-0.9,0.5-2.4,0.5-3.3,0
						C798.7,294.9,798.7,294,799.6,293.5z"/>
					<path class="st18" d="M778.5,281.3c0.9-0.5,2.4-0.5,3.3,0c0.9,0.5,0.9,1.4,0,1.9c-0.9,0.5-2.4,0.5-3.3,0
						C777.6,282.7,777.6,281.9,778.5,281.3z"/>
					<path class="st18" d="M694.3,232.7c0.9-0.5,2.4-0.5,3.3,0c0.9,0.5,0.9,1.4,0,1.9c-0.9,0.5-2.4,0.5-3.3,0
						C693.4,234.1,693.4,233.2,694.3,232.7z"/>
					<path class="st18" d="M673.2,220.5c0.9-0.5,2.4-0.5,3.3,0c0.9,0.5,0.9,1.4,0,1.9c-0.9,0.5-2.4,0.5-3.3,0
						C672.3,221.9,672.3,221.1,673.2,220.5z"/>
				</g>
			</g>
		</g>
		<g>
			<g>
				<g>
					<polygon class="st8" points="713.7,215.4 713.7,217 792.8,262.7 792.8,224.9 					"/>
					<polygon class="st19" points="792.8,224.9 792.8,262.7 844.8,232.7 844.8,231.1 					"/>
				</g>
				<polygon class="st20" points="844.8,231.1 792.8,261.1 713.7,215.4 765.6,185.4 				"/>
			</g>
		</g>
		<g>
			<g class="st1">
				<g>
					<polygon class="st8" points="848.1,194.3 843.1,191.4 850,187.4 855,190.3 					"/>
				</g>
				<g>
					<polygon class="st19" points="822.7,238.3 817.7,235.3 843.1,191.4 848.1,194.3 					"/>
				</g>
				<g>
					<polygon class="st14" points="822.8,242.8 817.7,239.9 817.7,235.3 822.7,238.3 					"/>
				</g>
				<g>
					<polygon class="st10" points="855,190.3 855,224.2 822.8,242.8 822.7,238.3 848.1,194.3 					"/>
				</g>
			</g>
		</g>
		<g>
			<polygon class="st21" points="797.9,175.4 768,157.8 768,133.6 797.9,151.2 			"/>
			<polygon class="st22" points="796.3,152.1 796.3,172.8 769.6,156.9 769.6,136.2 770.1,136.5 			"/>
			<polygon class="st23" points="796.3,172.3 796.3,172.8 769.6,156.9 769.6,136.2 770.1,136.5 770.1,156.6 			"/>
		</g>
		<g>
			<g class="st1">
				<g>
					<polygon class="st8" points="746.9,135.4 741.9,132.5 748.7,128.5 753.8,131.5 					"/>
				</g>
				<g>
					<polygon class="st19" points="721.5,179.4 716.5,176.5 741.9,132.5 746.9,135.4 					"/>
				</g>
				<g>
					<polygon class="st14" points="721.5,184 716.5,181.1 716.5,176.5 721.5,179.4 					"/>
				</g>
				<g>
					<polygon class="st4" points="753.8,131.5 753.8,165.3 721.5,184 721.5,179.4 746.9,135.4 					"/>
				</g>
			</g>
		</g>
		<g>
			<polygon class="st21" points="814.6,184.8 799.7,176.2 799.7,152.9 814.6,161.5 			"/>
			<g>
				<g class="st24">
					<polygon class="st25" points="809.6,165.8 812.4,167.5 812.4,164.2 809.6,162.6 					"/>
					<polygon class="st25" points="805.5,163.5 808.4,165.1 808.4,161.9 805.5,160.3 					"/>
					<polygon class="st25" points="801.5,161.2 804.3,162.8 804.3,159.6 801.5,157.9 					"/>
				</g>
				<g class="st24">
					<polygon class="st25" points="809.6,170 812.4,171.7 812.4,168.4 809.6,166.8 					"/>
					<polygon class="st25" points="805.5,167.7 808.4,169.3 808.4,166.1 805.5,164.5 					"/>
					<polygon class="st25" points="801.5,165.4 804.3,167 804.3,163.8 801.5,162.1 					"/>
				</g>
				<g class="st24">
					<polygon class="st25" points="809.6,174.4 812.4,176 812.4,172.8 809.6,171.1 					"/>
					<polygon class="st25" points="805.5,172 808.4,173.7 808.4,170.4 805.5,168.8 					"/>
					<polygon class="st25" points="801.5,169.7 804.3,171.3 804.3,168.1 801.5,166.5 					"/>
				</g>
				<g class="st24">
					<polygon class="st25" points="809.6,178.5 812.4,180.1 812.4,176.9 809.6,175.2 					"/>
					<polygon class="st25" points="805.5,176.1 808.4,177.8 808.4,174.5 805.5,172.9 					"/>
					<polygon class="st25" points="801.5,173.8 804.3,175.4 804.3,172.2 801.5,170.6 					"/>
				</g>
			</g>
		</g>
		<g>
			<g>
				<g class="st1">
					<g class="st1">
						<defs>
							<path id="SVGID_5_" class="st1" d="M825.8,170.7l3.2-1.9c0.2-0.1,0.5-0.1,0.8,0.1l-3.2,1.9
								C826.3,170.6,826,170.6,825.8,170.7z"/>
						</defs>
						<clipPath id="SVGID_6_">
							<use xlink:href="#SVGID_5_"  style="overflow:visible;"/>
						</clipPath>
						<g class="st26">
							<path class="st27" d="M825.8,170.7l3.2-1.9c0.1-0.1,0.3-0.1,0.5,0l-3.2,1.9C826.1,170.6,825.9,170.6,825.8,170.7L825.8,170.7
								z"/>
							<path class="st28" d="M826.3,170.7l3.2-1.9c0.1,0,0.2,0.1,0.3,0.1l-3.2,1.9C826.5,170.7,826.4,170.7,826.3,170.7L826.3,170.7
								z"/>
						</g>
					</g>
					<g class="st1">
						<defs>
							<path id="SVGID_7_" class="st1" d="M830.6,171.7l-3.2,1.9c0.2-0.1,0.3-0.4,0.3-0.8c0-0.7-0.5-1.7-1.2-2l3.2-1.9
								c0.6,0.4,1.2,1.3,1.2,2C831,171.3,830.8,171.6,830.6,171.7z"/>
						</defs>
						<clipPath id="SVGID_8_">
							<use xlink:href="#SVGID_7_"  style="overflow:visible;"/>
						</clipPath>
						<g class="st29">
							<path class="st28" d="M826.6,170.8l3.2-1.9c0,0,0.1,0,0.1,0.1L826.6,170.8C826.7,170.8,826.6,170.8,826.6,170.8L826.6,170.8z
								"/>
							<path class="st3" d="M826.7,170.9l3.2-1.9c0.5,0.3,0.9,1,1,1.6l-3.2,1.9C827.6,171.8,827.2,171.2,826.7,170.9L826.7,170.9z"
								/>
							<path class="st28" d="M827.7,172.4l3.2-1.9c0,0.1,0,0.3,0,0.4c0,0,0,0.1,0,0.1l-3.2,1.9c0,0,0-0.1,0-0.1
								C827.8,172.7,827.7,172.6,827.7,172.4L827.7,172.4z"/>
							<path class="st27" d="M827.8,172.9l3.2-1.9c0,0.3-0.1,0.5-0.3,0.7l-3.2,1.9C827.6,173.5,827.7,173.3,827.8,172.9L827.8,172.9
								z"/>
						</g>
					</g>
					<g>
						<path class="st30" d="M826.6,170.8c0.6,0.4,1.2,1.3,1.2,2c0,0.7-0.5,1-1.2,0.7c-0.6-0.4-1.2-1.3-1.2-2
							C825.4,170.7,825.9,170.4,826.6,170.8z"/>
					</g>
				</g>
			</g>
			<g>
				<g class="st1">
					<g class="st1">
						<defs>
							<path id="SVGID_9_" class="st1" d="M824.3,169.4l1.1-0.6c0.4-0.3,1-0.2,1.7,0.2l-1.1,0.6
								C825.3,169.2,824.7,169.2,824.3,169.4z"/>
						</defs>
						<clipPath id="SVGID_10_">
							<use xlink:href="#SVGID_9_"  style="overflow:visible;"/>
						</clipPath>
						<g class="st31">
							<path class="st32" d="M824.3,169.4l1.1-0.6c0.3-0.2,0.7-0.2,1.1-0.1l-1.1,0.6C825,169.2,824.6,169.3,824.3,169.4L824.3,169.4
								z"/>
							<path class="st33" d="M825.4,169.3l1.1-0.6c0.2,0.1,0.4,0.1,0.6,0.3l-1.1,0.6C825.8,169.5,825.6,169.4,825.4,169.3
								L825.4,169.3z"/>
						</g>
					</g>
					<g class="st1">
						<defs>
							<path id="SVGID_11_" class="st1" d="M828.8,174.6l-1.1,0.6c0.4-0.2,0.7-0.8,0.7-1.5c0-1.5-1.1-3.3-2.4-4.1l1.1-0.6
								c1.3,0.8,2.4,2.6,2.4,4.1C829.4,173.8,829.2,174.4,828.8,174.6z"/>
						</defs>
						<clipPath id="SVGID_12_">
							<use xlink:href="#SVGID_11_"  style="overflow:visible;"/>
						</clipPath>
						<g class="st34">
							<path class="st33" d="M826,169.6l1.1-0.6c0.1,0,0.1,0.1,0.2,0.1l-1.1,0.6C826.1,169.7,826.1,169.6,826,169.6L826,169.6z"/>
							<path class="st35" d="M826.2,169.7l1.1-0.6c1,0.7,1.8,2,2.1,3.2l-1.1,0.6C828,171.7,827.2,170.4,826.2,169.7L826.2,169.7z"/>
							<path class="st33" d="M828.3,172.9l1.1-0.6c0.1,0.3,0.1,0.5,0.1,0.8c0,0.1,0,0.1,0,0.2l-1.1,0.6c0-0.1,0-0.1,0-0.2
								C828.4,173.5,828.3,173.2,828.3,172.9L828.3,172.9z"/>
							<path class="st32" d="M828.4,173.9l1.1-0.6c0,0.6-0.3,1.1-0.7,1.3l-1.1,0.6C828.1,175,828.3,174.6,828.4,173.9L828.4,173.9z"
								/>
						</g>
					</g>
					<g>
						<path class="st35" d="M828.4,173.7c0,0.8-0.3,1.3-0.8,1.6c-0.4,0.2-1,0.1-1.6-0.2c-1.3-0.8-2.4-2.6-2.4-4.1
							c0-0.6,0.2-1,0.4-1.3c0.1-0.1,0.3-0.2,0.4-0.3c0,0,0,0,0,0c0.4-0.2,1-0.1,1.6,0.2C827.3,170.4,828.4,172.2,828.4,173.7z"/>
					</g>
				</g>
			</g>
			<path class="st35" d="M828.4,173.7c0,0.8-0.3,1.3-0.8,1.6c-0.4,0.2-0.9,0.3-1.4,0.3c-1.9,0-3.4-1.5-3.4-3.4c0-1,0.5-2,1.2-2.6
				c0.1-0.1,0.3-0.2,0.4-0.3c0,0,0,0,0,0c0.4-0.2,1-0.1,1.6,0.2C827.3,170.4,828.4,172.2,828.4,173.7z"/>
		</g>
		<g>
			<g class="st1">
				<g class="st1">
					<defs>
						<path id="SVGID_13_" class="st1" d="M823.2,186.9l0.6-0.4c0.2-0.1,0.6-0.1,0.9,0.1l-0.6,0.4
							C823.8,186.8,823.4,186.8,823.2,186.9z"/>
					</defs>
					<use xlink:href="#SVGID_13_"  style="overflow:visible;fill:#FAA21B;"/>
					<clipPath id="SVGID_14_">
						<use xlink:href="#SVGID_13_"  style="overflow:visible;"/>
					</clipPath>
					<g class="st36">
						<path class="st37" d="M823.2,186.9l0.6-0.4c0.2-0.1,0.4-0.1,0.6-0.1l-0.6,0.4C823.5,186.8,823.3,186.8,823.2,186.9
							L823.2,186.9z"/>
						<path class="st37" d="M823.8,186.9l0.6-0.4c0.1,0,0.2,0.1,0.3,0.1l-0.6,0.4C824,187,823.9,186.9,823.8,186.9L823.8,186.9z"/>
					</g>
				</g>
				<g class="st1">
					<defs>
						<path id="SVGID_15_" class="st1" d="M825.7,189.8l-0.6,0.4c0.2-0.1,0.4-0.4,0.4-0.9c0-0.8-0.6-1.9-1.3-2.3l0.6-0.4
							c0.7,0.4,1.3,1.5,1.3,2.3C826.1,189.4,826,189.7,825.7,189.8z"/>
					</defs>
					<use xlink:href="#SVGID_15_"  style="overflow:visible;fill:#FAA21B;"/>
					<clipPath id="SVGID_16_">
						<use xlink:href="#SVGID_15_"  style="overflow:visible;"/>
					</clipPath>
					<g class="st38">
						<path class="st37" d="M824.1,187l0.6-0.4c0,0,0.1,0,0.1,0.1l-0.6,0.4C824.2,187.1,824.2,187.1,824.1,187L824.1,187z"/>
						<path class="st37" d="M824.2,187.1l0.6-0.4c0.6,0.4,1,1.1,1.2,1.8l-0.6,0.4C825.3,188.2,824.8,187.5,824.2,187.1L824.2,187.1z
							"/>
						<path class="st37" d="M825.4,188.9l0.6-0.4c0,0.1,0,0.3,0,0.4c0,0,0,0.1,0,0.1l-0.6,0.4c0,0,0-0.1,0-0.1
							C825.5,189.2,825.4,189,825.4,188.9L825.4,188.9z"/>
						<path class="st37" d="M825.4,189.4l0.6-0.4c0,0.4-0.2,0.6-0.4,0.7l-0.6,0.4C825.3,190.1,825.4,189.8,825.4,189.4L825.4,189.4z
							"/>
					</g>
				</g>
				<g>
					<path class="st39" d="M824.1,187c0.7,0.4,1.3,1.5,1.3,2.3c0,0.8-0.6,1.2-1.3,0.8c-0.7-0.4-1.3-1.5-1.3-2.3
						C822.8,186.9,823.4,186.6,824.1,187z"/>
				</g>
			</g>
		</g>
		<g>
			<g class="st1">
				<g>
					<defs>
						<path id="SVGID_17_" d="M827.7,189.6l0.6-0.4c0.2-0.1,0.6-0.1,0.9,0.1l-0.6,0.4C828.3,189.5,828,189.5,827.7,189.6z"/>
					</defs>
					<use xlink:href="#SVGID_17_"  style="overflow:visible;fill:#282B2E;"/>
					<clipPath id="SVGID_18_">
						<use xlink:href="#SVGID_17_"  style="overflow:visible;"/>
					</clipPath>
					<g class="st40">
						<path class="st2" d="M827.7,189.6l0.6-0.4c0.2-0.1,0.4-0.1,0.6-0.1l-0.6,0.4C828.1,189.5,827.9,189.5,827.7,189.6L827.7,189.6
							z"/>
						<path class="st2" d="M828.3,189.5l0.6-0.4c0.1,0,0.2,0.1,0.3,0.1l-0.6,0.4C828.6,189.6,828.4,189.6,828.3,189.5L828.3,189.5z"
							/>
					</g>
				</g>
				<g>
					<defs>
						<path id="SVGID_19_" d="M830.3,192.5l-0.6,0.4c0.2-0.1,0.4-0.4,0.4-0.9c0-0.8-0.6-1.9-1.3-2.3l0.6-0.4
							c0.7,0.4,1.3,1.5,1.3,2.3C830.6,192,830.5,192.3,830.3,192.5z"/>
					</defs>
					<use xlink:href="#SVGID_19_"  style="overflow:visible;fill:#282B2E;"/>
					<clipPath id="SVGID_20_">
						<use xlink:href="#SVGID_19_"  style="overflow:visible;"/>
					</clipPath>
					<g class="st41">
						<path class="st2" d="M828.7,189.7l0.6-0.4c0,0,0.1,0,0.1,0.1l-0.6,0.4C828.7,189.7,828.7,189.7,828.7,189.7L828.7,189.7z"/>
						<path class="st2" d="M828.8,189.8l0.6-0.4c0.6,0.4,1,1.1,1.2,1.8l-0.6,0.4C829.8,190.9,829.3,190.1,828.8,189.8L828.8,189.8z"
							/>
						<path class="st2" d="M830,191.6l0.6-0.4c0,0.1,0,0.3,0,0.4c0,0,0,0.1,0,0.1l-0.6,0.4c0,0,0-0.1,0-0.1
							C830,191.8,830,191.7,830,191.6L830,191.6z"/>
						<path class="st2" d="M830,192.1l0.6-0.4c0,0.4-0.2,0.6-0.4,0.7l-0.6,0.4C829.8,192.7,830,192.5,830,192.1L830,192.1z"/>
					</g>
				</g>
				<g>
					<path class="st3" d="M828.7,189.7c0.7,0.4,1.3,1.5,1.3,2.3c0,0.8-0.6,1.2-1.3,0.8c-0.7-0.4-1.3-1.5-1.3-2.3
						C827.3,189.6,827.9,189.3,828.7,189.7z"/>
				</g>
			</g>
		</g>
		<g>
			<g class="st1">
				<g>
					<defs>
						<path id="SVGID_21_" d="M843.5,176.3l1.1-0.6c0.4-0.2,1-0.2,1.6,0.2l-1.1,0.6C844.5,176.1,843.9,176.1,843.5,176.3z"/>
					</defs>
					<use xlink:href="#SVGID_21_"  style="overflow:visible;fill:#282B2E;"/>
					<clipPath id="SVGID_22_">
						<use xlink:href="#SVGID_21_"  style="overflow:visible;"/>
					</clipPath>
					<g class="st42">
						<path class="st2" d="M843.5,176.3l1.1-0.6c0.3-0.2,0.6-0.2,1-0.1l-1.1,0.6C844.2,176.1,843.8,176.2,843.5,176.3L843.5,176.3z"
							/>
						<path class="st2" d="M844.5,176.2l1.1-0.6c0.2,0,0.4,0.1,0.6,0.2l-1.1,0.6C844.9,176.4,844.7,176.3,844.5,176.2L844.5,176.2z"
							/>
					</g>
				</g>
				<g>
					<defs>
						<path id="SVGID_23_" d="M847.8,181.1l-1.1,0.6c0.4-0.2,0.6-0.7,0.6-1.4c0-1.4-1-3.1-2.2-3.8l1.1-0.6c1.2,0.7,2.2,2.4,2.2,3.8
							C848.4,180.4,848.2,180.9,847.8,181.1z"/>
					</defs>
					<use xlink:href="#SVGID_23_"  style="overflow:visible;fill:#282B2E;"/>
					<clipPath id="SVGID_24_">
						<use xlink:href="#SVGID_23_"  style="overflow:visible;"/>
					</clipPath>
					<g class="st43">
						<path class="st2" d="M845.1,176.5l1.1-0.6c0.1,0,0.1,0.1,0.2,0.1l-1.1,0.6C845.2,176.6,845.2,176.5,845.1,176.5L845.1,176.5z"
							/>
						<path class="st2" d="M845.3,176.6l1.1-0.6c0.9,0.6,1.7,1.8,2,3l-1.1,0.6C847,178.4,846.2,177.2,845.3,176.6L845.3,176.6z"/>
						<path class="st2" d="M847.3,179.6l1.1-0.6c0.1,0.2,0.1,0.5,0.1,0.7c0,0.1,0,0.1,0,0.2l-1.1,0.6c0-0.1,0-0.1,0-0.2
							C847.3,180.1,847.3,179.8,847.3,179.6L847.3,179.6z"/>
						<path class="st2" d="M847.3,180.5l1.1-0.6c0,0.6-0.3,1-0.6,1.2l-1.1,0.6C847.1,181.5,847.3,181.1,847.3,180.5L847.3,180.5z"/>
					</g>
				</g>
				<g>
					<path class="st3" d="M845.1,176.5c1.2,0.7,2.2,2.4,2.2,3.8c0,1.4-1,2-2.2,1.3c-1.2-0.7-2.2-2.4-2.2-3.8
						C842.9,176.3,843.9,175.8,845.1,176.5z"/>
				</g>
			</g>
		</g>
		<g>
			<g>
				<polygon class="st44" points="870.1,191.5 858.1,198.4 858.1,181.5 870.1,174.6 				"/>
			</g>
			<g>
				<path class="st45" d="M862.9,187.2L862.9,187.2l-3.7,2.1c-0.1,0-0.1,0-0.1,0c0,0,0-0.1,0-0.2l1.8-4.7c0.1-0.1,0.2-0.2,0.3-0.2
					l1.8,2.6c0,0,0,0.1,0,0.1C863.1,187.1,863,187.2,862.9,187.2z M859.5,188.8l3.1-1.8l-1.5-2.2L859.5,188.8z"/>
			</g>
			<g>
				<g>
					<path class="st45" d="M862.9,194.7c-0.1,0.2-0.3,0.3-0.4,0.3l-3.1-0.5c-0.1,0-0.2-0.2-0.1-0.4l0,0c0.1-0.2,0.3-0.3,0.4-0.3
						l3.1,0.5C862.9,194.3,863,194.5,862.9,194.7L862.9,194.7z"/>
				</g>
				<g>
					<path class="st45" d="M859.3,196.8c0.1,0.1,0.3,0,0.4-0.1l3.1-4.1c0.1-0.2,0.2-0.4,0.1-0.5l0,0c-0.1-0.1-0.3,0-0.4,0.1
						l-3.1,4.1C859.2,196.5,859.2,196.7,859.3,196.8L859.3,196.8z"/>
				</g>
				<g>
					<path class="st45" d="M861.1,189.9c-0.7,0.4-1.4,1.5-1.4,2.3c0,0.4,0.2,0.8,0.4,0.9v0c0,0.6,0.4,0.8,0.9,0.5
						c0.5-0.3,0.9-0.9,0.9-1.5v0c0.3-0.4,0.4-0.9,0.4-1.4C862.4,189.8,861.8,189.5,861.1,189.9z M860.5,192.4
						c-0.2,0.1-0.4,0-0.4-0.2c0-0.2,0.2-0.5,0.4-0.7c0.2-0.1,0.4,0,0.4,0.2C860.9,192,860.8,192.3,860.5,192.4z M861.6,191.8
						c-0.2,0.1-0.4,0-0.4-0.2c0-0.2,0.2-0.5,0.4-0.7c0.2-0.1,0.4,0,0.4,0.2C862,191.4,861.8,191.7,861.6,191.8z"/>
				</g>
			</g>
			<g>
				<g>
					<polygon class="st45" points="869.4,180.4 863.7,183.7 863.7,182.9 869.4,179.6 					"/>
				</g>
				<g>
					<polygon class="st45" points="869.4,183.4 863.7,186.7 863.7,185.9 869.4,182.6 					"/>
				</g>
				<g>
					<polygon class="st45" points="869.4,181.9 863.7,185.2 863.7,184.4 869.4,181.1 					"/>
				</g>
			</g>
			<g>
				<g>
					<polygon class="st45" points="869.4,187.9 863.7,191.2 863.7,190.4 869.4,187.1 					"/>
				</g>
				<g>
					<polygon class="st45" points="869.4,186.4 863.7,189.7 863.7,188.9 869.4,185.6 					"/>
				</g>
				<g>
					<polygon class="st45" points="869.4,190.9 863.7,194.2 863.7,193.4 869.4,190.1 					"/>
				</g>
				<g>
					<polygon class="st45" points="869.4,189.4 863.7,192.7 863.7,191.9 869.4,188.6 					"/>
				</g>
			</g>
			<g>
				<g>
					<path class="st45" d="M859.2,182.1l0.3,1.2l0.2-1.5l0.5-0.3l-0.1,0.5l0.2,0.8l0.2-1.5l0.5-0.3l-0.4,2.2l-0.5,0.3l-0.2-0.6
						l-0.1,0.7l-0.5,0.3l-0.5-1.7L859.2,182.1z"/>
				</g>
				<g>
					<path class="st45" d="M861.3,180.9l0.5-0.3l0.5,1.7l-0.5,0.3l-0.1-0.3l-0.5,0.3l-0.1,0.4l-0.5,0.3L861.3,180.9z M861.7,181.8
						l-0.1-0.5l-0.1,0.6L861.7,181.8z"/>
				</g>
				<g>
					<path class="st45" d="M862.5,180.2l0.8-0.4c0.3-0.2,0.5-0.2,0.5,0.3c0,0.5-0.1,0.6-0.3,0.7l0.3,0.6l-0.5,0.3l-0.2-0.6l-0.1,0
						v0.7l-0.5,0.3V180.2z M863.2,180.7c0.1-0.1,0.1-0.1,0.1-0.3c0-0.1,0-0.2-0.1-0.1l-0.2,0.1v0.4L863.2,180.7z"/>
				</g>
				<g>
					<path class="st45" d="M863.9,179.4l0.5-0.3l0.5,0.7l0-1l0.5-0.3v2l-0.5,0.3l-0.5-0.7v1l-0.5,0.3V179.4z"/>
				</g>
				<g>
					<path class="st45" d="M865.5,178.5l0.5-0.3v2l-0.5,0.3V178.5z"/>
				</g>
				<g>
					<path class="st45" d="M866.1,178.1l0.5-0.3l0.5,0.7v-1l0.5-0.3v2l-0.5,0.3l-0.5-0.7v1l-0.5,0.3V178.1z"/>
				</g>
				<g>
					<path class="st45" d="M868.2,176.9c0.4-0.2,0.4-0.2,0.7-0.3v0.4c0,0-0.3,0.1-0.6,0.3c-0.2,0.1-0.3,0.3-0.3,0.7
						c0,0.4,0,0.5,0.2,0.4c0.1-0.1,0.2-0.2,0.2-0.2V178l-0.1,0.1v-0.3c0.1-0.1,0.3-0.2,0.4-0.3c0,0,0.1-0.1,0.2-0.1v1.2l-0.3,0.2
						l-0.1-0.1c-0.1,0.1-0.1,0.2-0.3,0.3c-0.5,0.3-0.6-0.1-0.6-0.7C867.6,177.6,867.7,177.2,868.2,176.9z"/>
				</g>
				<g>
					<path class="st45" d="M869.5,176.2l0,1.5l-0.3,0.2l0-1.4L869.5,176.2z M869.1,178C869.1,178,869.1,177.9,869.1,178l0.3-0.3
						c0,0,0.1,0,0.1,0v0.3c0,0,0,0.1-0.1,0.1l-0.3,0.2c0,0-0.1,0-0.1,0V178z"/>
				</g>
			</g>
		</g>
		<g>
			<g>
				<polygon class="st12" points="796.6,303.4 794.3,297.3 791.9,300.7 				"/>
			</g>
			<g>
				<path class="st13" d="M794.3,297.9l1.9,5l-3.9-2.2L794.3,297.9z M794.3,298.3l-1.7,2.4l3.3,1.9L794.3,298.3z"/>
			</g>
			<g>
				<path class="st13" d="M794.5,299.3l0,1.5l-0.4-0.2l-0.1-1.6L794.5,299.3z M794.5,301.4C794.5,301.4,794.5,301.4,794.5,301.4
					l-0.3-0.1c0,0-0.1-0.1-0.1-0.1v-0.3c0,0,0-0.1,0.1,0l0.3,0.2c0,0,0.1,0.1,0.1,0.1V301.4z"/>
			</g>
		</g>
		<g>
			<g>
				<polygon class="st12" points="670,230.1 667.7,224.1 665.3,227.4 				"/>
			</g>
			<g>
				<path class="st13" d="M667.7,224.6l1.9,5l-3.9-2.2L667.7,224.6z M667.7,225l-1.7,2.4l3.3,1.9L667.7,225z"/>
			</g>
			<g>
				<path class="st13" d="M667.9,226.1l0,1.5l-0.4-0.2l-0.1-1.6L667.9,226.1z M667.9,228.1C667.9,228.1,667.9,228.2,667.9,228.1
					l-0.3-0.1c0,0-0.1-0.1-0.1-0.1v-0.3c0,0,0-0.1,0.1,0l0.3,0.2c0,0,0.1,0.1,0.1,0.1V228.1z"/>
			</g>
		</g>
		<g>
			<g>
				<polygon class="st12" points="741.5,287.1 736.4,274.1 731.4,281.3 				"/>
			</g>
			<g>
				<path class="st13" d="M736.4,275.3l4.2,10.7l-8.3-4.8L736.4,275.3z M736.4,276.1l-3.6,5.1l7.1,4.1L736.4,276.1z"/>
			</g>
			<g>
				<path class="st13" d="M736.9,278.4l-0.1,3.3l-0.8-0.5l-0.1-3.4L736.9,278.4z M736.9,282.8c0,0.1-0.1,0.1-0.1,0.1l-0.6-0.4
					c-0.1,0-0.1-0.1-0.1-0.2v-0.7c0-0.1,0-0.1,0.1-0.1l0.6,0.4c0.1,0,0.1,0.1,0.1,0.2V282.8z"/>
			</g>
		</g>
		<g>
			<polygon class="st46" points="870.9,260.2 800.5,300.9 800.5,304.7 870.9,264 			"/>
			<g>
				<polygon class="st13" points="802.6,303.5 805.9,297.7 803.8,299 800.5,304.7 				"/>
				<polygon class="st13" points="806.9,301 810.2,295.2 808.1,296.5 804.8,302.2 				"/>
				<polygon class="st13" points="811.2,298.5 814.5,292.8 812.4,294 809.1,299.7 				"/>
				<polygon class="st13" points="815.5,296 818.8,290.3 816.7,291.5 813.4,297.2 				"/>
				<polygon class="st13" points="819.8,293.5 823.1,287.8 821,289 817.7,294.8 				"/>
				<polygon class="st13" points="824.1,291 827.5,285.3 825.3,286.5 822,292.3 				"/>
				<polygon class="st13" points="828.4,288.6 831.8,282.8 829.6,284 826.3,289.8 				"/>
				<polygon class="st13" points="832.7,286.1 836.1,280.3 833.9,281.6 830.6,287.3 				"/>
				<polygon class="st13" points="837,283.6 840.4,277.8 838.2,279.1 834.9,284.8 				"/>
				<polygon class="st13" points="841.4,281.1 844.7,275.4 842.5,276.6 839.2,282.3 				"/>
				<polygon class="st13" points="845.7,278.6 849,272.9 846.9,274.1 843.5,279.8 				"/>
				<polygon class="st13" points="850,276.1 853.3,270.4 851.2,271.6 847.8,277.4 				"/>
				<polygon class="st13" points="854.3,273.6 857.6,267.9 855.5,269.1 852.1,274.9 				"/>
				<polygon class="st13" points="858.6,271.2 861.9,265.4 859.8,266.6 856.5,272.4 				"/>
				<polygon class="st13" points="862.9,268.7 866.2,262.9 864.1,264.1 860.8,269.9 				"/>
				<polygon class="st13" points="867.2,266.2 870.5,260.4 868.4,261.7 865.1,267.4 				"/>
				<polygon class="st13" points="870.9,262.2 869.4,264.9 870.9,264 				"/>
			</g>
		</g>
		<g>
			<polygon class="st46" points="825.7,348.6 717.7,286.2 717.7,290.1 825.7,352.4 			"/>
			<g>
				<polygon class="st13" points="825.7,350.1 824.4,347.8 822.3,346.6 825.6,352.4 825.7,352.4 				"/>
				<polygon class="st13" points="821.3,349.9 818,344.1 820.1,345.4 823.4,351.1 				"/>
				<polygon class="st13" points="817,347.4 813.7,341.6 815.8,342.9 819.1,348.6 				"/>
				<polygon class="st13" points="812.7,344.9 809.4,339.2 811.5,340.4 814.8,346.1 				"/>
				<polygon class="st13" points="808.4,342.4 805.1,336.7 807.2,337.9 810.5,343.7 				"/>
				<polygon class="st13" points="804.1,339.9 800.8,334.2 802.9,335.4 806.2,341.2 				"/>
				<polygon class="st13" points="799.8,337.5 796.5,331.7 798.6,332.9 801.9,338.7 				"/>
				<polygon class="st13" points="795.5,335 792.2,329.2 794.3,330.4 797.6,336.2 				"/>
				<polygon class="st13" points="791.2,332.5 787.8,326.7 790,328 793.3,333.7 				"/>
				<polygon class="st13" points="786.9,330 783.5,324.2 785.7,325.5 789,331.2 				"/>
				<polygon class="st13" points="782.6,327.5 779.2,321.8 781.4,323 784.7,328.7 				"/>
				<polygon class="st13" points="778.2,325 774.9,319.3 777.1,320.5 780.4,326.3 				"/>
				<polygon class="st13" points="773.9,322.5 770.6,316.8 772.7,318 776.1,323.8 				"/>
				<polygon class="st13" points="769.6,320.1 766.3,314.3 768.4,315.5 771.8,321.3 				"/>
				<polygon class="st13" points="765.3,317.6 762,311.8 764.1,313 767.5,318.8 				"/>
				<polygon class="st13" points="761,315.1 757.7,309.3 759.8,310.6 763.2,316.3 				"/>
				<polygon class="st13" points="756.7,312.6 753.4,306.8 755.5,308.1 758.8,313.8 				"/>
				<polygon class="st13" points="752.4,310.1 749.1,304.4 751.2,305.6 754.5,311.3 				"/>
				<polygon class="st13" points="748.1,307.6 744.8,301.9 746.9,303.1 750.2,308.9 				"/>
				<polygon class="st13" points="743.8,305.1 740.5,299.4 742.6,300.6 745.9,306.4 				"/>
				<polygon class="st13" points="739.5,302.6 736.2,296.9 738.3,298.1 741.6,303.9 				"/>
				<polygon class="st13" points="735.2,300.2 731.9,294.4 734,295.6 737.3,301.4 				"/>
				<polygon class="st13" points="730.9,297.7 727.6,291.9 729.7,293.2 733,298.9 				"/>
				<polygon class="st13" points="726.6,295.2 723.3,289.4 725.4,290.7 728.7,296.4 				"/>
				<polygon class="st13" points="722.3,292.7 718.9,287 721.1,288.2 724.4,293.9 				"/>
				<polygon class="st13" points="717.7,287.3 720.1,291.4 718,290.2 717.7,289.8 				"/>
			</g>
		</g>
	</g>
	<g>
		<path class="st47" d="M791,243.8c-0.3-0.3-0.6-0.5-1-0.6c0.1-0.3,0-0.6-0.2-0.9c-0.2-0.2-0.5-0.3-0.8-0.4c-2.5-0.8-5-1.5-7.5-2
			c-0.1,0-0.3-0.1-0.4-0.1c0.6-0.3,2.4-0.7,3-0.8c1.4-0.4,0.9-1.7-0.2-1.5c-0.7,0.1-2.3,0.4-3,0.2c-1.5-0.3-3.5,1.2-4.3,1.7
			c-1.6,0-3.3,0.2-4.9-0.1c-0.8-0.1-1.7-0.4-2.5-0.6v6.6c0.7,0.3,1.4,0.7,2.1,0.9c0.9,0.3,1.8,0.4,2.7,0.5c1.3,0.2,2.6,0.3,3.8,0.4
			c8.9,0.7,10.9-1.1,11.8-1.6c0.2-0.1,0.3-0.3,0.5-0.3c0.3-0.1,0.6-0.1,0.8-0.3C791.3,244.6,791.3,244.1,791,243.8z"/>
		<path class="st47" d="M752.7,206c-0.2,0.3-0.6,0.5-0.9,0.8c0.2,0.3,0.1,0.6-0.1,0.9c-0.2,0.2-0.5,0.4-0.7,0.5
			c-2.3,1.2-4.7,2.3-7.1,3.2c-0.1,0.1-0.3,0.1-0.4,0.2c0.6,0.2,2.4,0.3,3.1,0.3c1.5,0.1,1.1,1.5,0,1.5c-0.7,0-2.3,0-3,0.2
			c-1.4,0.5-3.7-0.6-4.6-0.9c-1.6,0.2-3.3,0.4-4.8,0.9c-0.8,0.3-1.6,0.7-2.4,1l-1.1-6.5c0.6-0.5,1.3-0.9,2-1.3
			c0.8-0.4,1.7-0.7,2.6-1c1.2-0.4,2.5-0.7,3.7-1c8.7-2.1,11-0.7,11.9-0.3c0.2,0.1,0.4,0.2,0.6,0.2c0.3,0.1,0.6,0,0.9,0.2
			C752.9,205.2,752.9,205.7,752.7,206z"/>
		<path class="st48" d="M722.2,204.4c-1.7,0-8.7-3-12.1,2.8c-3.7,6.4,4.3,13,10.5,10.3L722.2,204.4z"/>
		<g>
			<path class="st49" d="M730.6,341.9c0,0-4.9,6-3.8,9.3c0.3,0.9,2.9,2.3,6.2,2.9c2.2,0.4,4.9,0.1,7,0.7c6.2,1.7,11,0,14.8-2.2
				c8.1-4.7-2.2-6.6-9.2-7C738.2,345.1,730.6,341.9,730.6,341.9z"/>
			<path class="st49" d="M714.2,339.3c0,0-2.6,5.9-0.9,8.3c0.5,0.7,2.8,1.2,5.6,0.9c1.8-0.2,3.9-1,5.7-1c5.3-0.1,8.8-2.5,11.3-5.1
				c5.4-5.6-3.2-4.8-9-3.5C721,340.1,714.2,339.3,714.2,339.3z"/>
			<path class="st37" d="M726.4,339.6l5.2-68.7c0.6-4.7-2.1-9.2-6.8-9.8c-4.7-0.6-14.9-4.4-15.7,0.3c-2.1,13.3,8.1,21.9,5,36.9
				c-2,9.9-1.2,35.6-0.7,39.9C714,342.5,724.4,343.1,726.4,339.6z"/>
			<path class="st50" d="M726.4,339.6l5.2-68.7c0.6-4.7-2.1-9.2-6.8-9.8c-1.8-0.2-4.4-0.9-7-1.4c-2.7,5.1-4.9,10.6-3,16.4
				c2.9,7.8,7.8,14.7,8.5,23.5c1.1,13.7-1.9,28.1,0.5,41.7C725,341,725.9,340.4,726.4,339.6z"/>
			<path class="st51" d="M741.1,344.7c1.2-7.8,1-20,1.4-31.1c0.3-9.2,1.7-36.9,1.7-36.9c0-1.4,0.5-7.8,0.4-10.5
				c-0.4-6.3-2-10.1-5.1-10.1c-4.3,0-23.8,0.2-23.8,10c0,6.2-1.5,8.1,4.8,17.4c4.2,6.2,5.8,17.7,5.3,25.7c-1,15.1,0.2,35.5,0.2,35.6
				C726.4,348.9,740.7,347.1,741.1,344.7z"/>
			<g>
				<g>
					<path class="st52" d="M742.8,241.4c-0.6,7.4,2.2,21,1.6,26.2c-0.6,5.1-33.8,5.8-35.2-1.4c-1.1-5.7,3.3-17.8,2.7-23.1
						c-1.2-11.3-2.8-26.4-2.7-31.5c0.1-4.3,4-8.6,12.7-7.5l9.9,1.4c2.4,1.4,13.2,2.9,14.2,9.1c0,0-1,2.5-1.4,5.7
						C744.1,225.2,742.9,240.4,742.8,241.4z"/>
				</g>
				<path class="st47" d="M736.1,195.1c0,0-0.1,0-0.2,0c-0.6-1.3-4.9-1.3-6.3-1.4c-2.6-0.1-5.1-0.1-7.7,0.2l-0.5,2.1
					c-0.1,0-0.1,0-0.1,0c-0.3,1.4-0.5,2.9-0.3,4.3c0,1.4-0.1,2.7-0.6,4c-0.6,1.5-0.7,2.9,1.1,3.8c4.8,2.4,10.5,1.9,11.7,0
					c0.8-1.3-0.8-3.2,0-6.4c0.7-2.8,2.9-5.6,2.7-6.5C736,195.3,736.1,195.2,736.1,195.1z"/>
				<g>
					<path class="st37" d="M716.6,206.8c0.2-1,0.7-2,1.3-2.9c-3.1,0.3-5.4,1.4-6.8,3c-1.2,1.3-2.5,12.3-0.6,22.5c1.5,0,3,0,4.5,0
						C710.9,222.2,714.7,214.1,716.6,206.8z"/>
					<path class="st37" d="M728.2,231.3c0,0.3,2.2,0.3,2.2,0c2.5-7.8,0.7-18.6,9.1-23.1c-1.3-0.5-2.6-1-3.7-1.4
						C729.7,211.6,725.3,222.4,728.2,231.3z"/>
				</g>
				<g>
					<path class="st51" d="M739.5,255.1c-2.8-9.1-8.7-17.2-8.4-26.6c-5.9-2.8-13.8-4.4-20.9-2.1c0.5,5.5,1.2,11.5,1.7,16.7
						c0.6,5.3-3.8,17.5-2.7,23.1c1.4,7.2,34.7,6.5,35.2,1.4c0.1-1.1,0.1-2.6,0-4.4C742.2,261,740.5,258.4,739.5,255.1z"/>
				</g>
				<path class="st53" d="M740,185.4c0.5,6.6,0.4,13.4-3.1,16.2c-1.1,0.9-2.7,1-4.4,0.8c-0.3,0-0.7-0.1-1-0.2
					c-1.8-0.5-3.6-1.3-4.7-2c-1.6-1-3.5-6.9-4-9c-1.5-6.4,3.3-7,7.4-10.1C734.4,177.9,739.5,178.8,740,185.4z"/>
				<path class="st54" d="M736.1,175.8c-1.8-1.3-4.2-2-6.3-2.5c-1-0.2-1.9-0.4-2.9-0.4c-6.8,1-8.3,5.2-8.3,5.2s-13,6.8,0.8,22.2
					c0.7,0.8,1,1.6,1.2,2.4c0.7,0.3,5.7,0.4,6.6-0.2c0.9-0.6,1.5-1.6,2-2.6c0.5-1,0.8-2,1.3-3c0.3-0.6,0.6-1.2,1.1-1.6
					c0.8-0.7,2-0.9,2.7-1.6c0.7-0.7,0.9-1.8,0.8-2.8c0-0.6-0.1-1.3-0.1-1.9c0-0.1,0-0.2,0-0.3c0.1-1.1,0.4-2.1,1.3-2.9
					c1.3-1.1,2.8-0.9,3.8-2.7C741.1,181.2,739.9,178.5,736.1,175.8z"/>
				<path class="st55" d="M736.1,175.8c-1.8-1.3-4.2-2-6.3-2.5c-1-0.2-1.9-0.4-2.9-0.4c-6.8,1-8.3,5.2-8.3,5.2s-7.6,4-5,12.8
					c4.5-6,13-6.2,19.7-3.9c0.7,0.2,1.3,0.5,1.9,0.9c0.2-0.8,0.5-1.6,1.2-2.2c1.3-1.1,2.8-0.9,3.8-2.7
					C741.1,181.2,739.9,178.5,736.1,175.8z"/>
				<path class="st55" d="M713.6,190.8c0.8,2.7,2.6,5.8,5.8,9.4c0.7,0.8,1,1.6,1.2,2.4c0.7,0.3,5.7,0.4,6.6-0.2
					c1.8-1.3,2.4-3.8,3.3-5.6c0.3-0.6,0.6-1.2,1.1-1.6c0.8-0.7,2-0.9,2.7-1.6c0.7-0.7,0.9-1.8,0.8-2.8c0-0.6-0.1-1.3-0.1-1.9
					c0-0.1,0-0.2,0-0.3c0-0.2,0.1-0.5,0.1-0.7c-0.6-0.4-1.2-0.7-1.9-0.9C726.6,184.6,718.1,184.8,713.6,190.8z"/>
				<path class="st53" d="M733.8,193.9c0.8,1.4,0.6,3.1-0.5,3.7c-1.1,0.6-2.6-0.1-3.3-1.6c-0.8-1.4-0.6-3.1,0.5-3.7
					C731.5,191.8,733,192.5,733.8,193.9z"/>
			</g>
		</g>
		<path class="st52" d="M775.1,237.9c-3-1-9.7-3.2-13.7-5.1c-0.8-0.3-3-1-4.7-1.5c-3.4-7.6-5-10.1-10.1-18.4
			c-3.9-6.3-13.6-2.5-13.8,4.3c-0.3,6.9,11.6,21.3,19.3,25.2c3.9,2.4,19.9,4.7,20,4.7C775.3,247.6,777.8,238.9,775.1,237.9z"/>
		<path class="st48" d="M774.1,246.3c-8.1-0.6-15.9-3.3-23.3-6.6c-4.9-2.4-8.7-6.4-11.9-11.3c-3.3-5.6-4.5-14.1,0.9-18.5
			c-3.5,0.6-6.8,3.5-7,7.4c-0.3,6.9,11.6,21.3,19.3,25.2c3.9,2.4,19.9,4.7,20,4.7C772.9,247.3,773.5,246.9,774.1,246.3z"/>
	</g>
</g>
<g>
	<path class="st56" d="M330.8,75.5c13.5,2.3,27.2-0.2,40.7,1.9c21.8,3.3,38.9,19.8,43.1,41.9c0.8,4.1,1.1,8.2,1.1,12.4
		c0,34.9,0,69.8,0.1,104.7c-1.2,1.5-2.9,1.5-4.5,1.5c-25.4,0-50.8,0.1-76.2,0c-0.8,0-1.7-0.1-2.4-0.4c-0.6-0.2-1.1-0.6-1.5-1.2
		c-1.1-1.8-0.8-3.8-0.8-5.8c0-19.9,0-39.7,0-59.6c0-2.5,0.2-5,0.9-7.4c0.1-0.6,0.4-1.1,0.8-1.5c10.8-3.5,22.1-4.5,33.1-6.8
		c5.8-1.2,11.7-2.2,17.6-3.1c2.1,0,2.8-1.2,2.6-3.1c-0.2-2.1-1.8-2-3.2-2c-1.6-0.1-3.2-0.1-4.8-0.7c-1-0.5-1.9-1.1-2.4-2.2
		c-1.6-7-0.5-14.1-0.8-21.1c0.1-0.8,0.1-1.6-0.1-2.4c-0.2-0.5-0.5-0.9-1-1.2c-13-1-25.9-0.3-38.9-0.3c-0.5,0.1-1,0.2-1.5,0.1
		c-1.7-1.1-3.2-2.3-4.4-4c-0.1-0.8,0.1-1.5,0.3-2.3c0.2-0.5,0.4-1.1,0.5-1.6c0.3-10,0-19.9,0.2-29.9
		C329.2,79.4,328.7,77.1,330.8,75.5z"/>
	<path class="st57" d="M418.6,237.5c6.1,1.1,11.6,3.5,16.6,7.1c5.5,4,5.5,7.1,0.4,11.8c-6.3,1.5-11.4,6-18,6.7
		c-5.4,0.6-10.6,1.9-16.1,1.9c-0.3,0-0.5-0.7-1,0.1c-2.2,4-6.9,4.2-10.3,4.9c-6,1.3-12.2,3-18.6,1.5c-3.4-0.8-6.6,0.4-9.7,1.6
		c-3.5,1.3-7,2.1-10.7,1.9c-4.2-0.2-8.2,0.4-12.3,1.3c-4.8,1-9.8,0.6-14.7,1c-5,0.4-10.2,1.3-15.3,0.3c-12.9,0.5-25.7,1.7-38.6,2.2
		c-3.5,0.1-6.8,0.5-10.2-1.2c-2.2-1.2-4.9-0.6-7.3,0.1c-2.1,0.4-4.1,0.4-6.2,0.1c-0.8-0.2-1.6-0.6-2.4-0.5c-14,1.6-28,0.3-41.9,0
		c-11.2-0.2-22.4-0.4-33.6-1.7c-7.5-0.9-15.2-0.4-22.7-1.4c-2.5-0.3-4.9-0.6-7.3-1.6c-0.9-0.4-1.7-1.3-2.7-1.2
		c-10.6,1.4-20.6-2-30.9-3.2c-0.5-0.1-1,0.1-1.5,0.3l0,0.3c-1,0.5-1.9,0.4-2.9,0.2c-0.9-2.8-3.6-2.8-5.7-3.3c-3.9-1-7-2.2-4.2-7.1
		c-2.5-0.4-3.5,1.1-4.6,2.3c-1.9,2-4.1,2.1-6.3,0.7c-2.5-1.6-4.7-3.7-7.3-5.2c-2-1.2-0.6-2,0.8-2.4c-0.6-0.1-1.2-0.2-1.8,0.1
		c-4.4,2.7-5.7,2.6-7.6-0.8c-2.3-4.3-1.3-8,2.8-9.9c2.9-1.3,5.9-2.2,9-2.8c2.2-0.4,4.5-0.1,5.7-3.1c0.7-1.6,3.3-1.2,5.1-1.3
		c15.5-0.2,31,0.3,46.5-0.3c2.8-0.1,4,1.3,4,3.9c0,1.7-0.2,3.4,1.7,4.2c3.9,1.6,8,2.3,12.2,2.2c2.4-0.1,4.8,0.4,7.3-0.3
		c-0.8-1.7-2.3-1.5-3.4-2.2c-1.8-1.1-1.8-2.2,0.2-3c3-0.9,6.2,0.4,9.1-0.9c-0.1-1.4-1.3-1.5-2-2.2c-0.4-0.3-0.7-0.8-0.9-1.3
		c0-0.6,0.3-1,0.8-1.3c0.8-0.5,1.6-0.7,2.5-0.7c10.7-0.1,21.4,0,32.1-0.1c0.9-0.1,1.9,0,2.8,0.2c1,0.2,1.8,0.5,2.5,1.3
		c0.4,0.5,0.6,1.1,0.8,1.7c0.3,10.5-0.1,11.6,12.6,11.6c26.5,0,53.1-0.1,79.6,0.1c1.5,0.4,3.1,0.1,4.6,0.4c4.7,1.4,9.5,0.5,14.3,0.8
		c4.3,0.2,8.6-0.6,12.8,0.7c0.3,0.1-0.9-0.5-0.5-1.1c1.4-3.5,1.6-7.1,1.5-10.8c-0.2-23,0.3-45.9,0.1-68.9c0-2.6-1.3-6.2,2.8-7.5
		c0.8,4.9,0.3,9.9,0.3,14.9c0.1,17.6,0,35.2,0.1,52.8c0,1.8-0.5,3.7,0.5,5.4l0,0.2c1.1,1.4,0.4,2.9,0.5,4.5
		c-0.4-3.8,2.2-3.7,4.7-3.7c12.6,0,25.3,0,37.9,0C389.4,237.5,404,237.6,418.6,237.5z"/>
	<path class="st56" d="M80.6,133.5c1.6-20.6,6.8-40,18.8-57.4c6.7-9.7,15.6-17,24.3-24.6c0.6-0.6,1.4-0.8,2.3-0.7
		c2.9,1.1,6.6-1,8.9,2.3c-1.7,3-6.7,1.1-7.6,5.3c-6.2,5-5.8,11-2.6,17.3c4.1,8.1,6,16.4,2.8,25.3c-2.1,5.9-1,11.6,1.4,17.1
		c-2.7,7.4-1.6,14.8,0.1,22.1c1.4,5.7,2.9,11.3,4.3,16.9c1.8,7.2-0.1,14.2,0,21.3c0.1,6,0,12-0.1,18c-0.3,12.1,0.5,24.1,2.3,36.1
		c0.6,1.6,2.7,1.6,3.4,3.1c-0.1,1-0.8,1.4-1.7,1.6c-1.5-0.1-3-0.4-4.4-0.5c-2.2-1-4.6-0.8-6.9-0.9c-11.8,0-23.6,0.1-35.4,0
		c-8.1-0.1-10.3-2.4-10.3-10.4c0-28.9,0-57.8,0-86.7C80.2,137.1,79.8,135.2,80.6,133.5z"/>
	<path class="st58" d="M330.6,163.6c-1.7,1.4-0.9,3.4-0.9,5.1c0,25.1,0,50.1,0.1,75.2c0,3.2-0.2,6-3.4,7.6c-8.9,1-17.9,0.8-26.8,0.1
		c-1.3,0-2.5-0.1-3.8-0.1c-0.9-1.4-0.4-2.9-0.1-4.4c0.5-1.4,0.4-3,0.4-4.5c0-30.6,0.1-61.2,0-91.8c0-0.3-0.1-0.6-0.1-0.9
		c-0.1-0.5-0.2-1.1-0.1-1.7c0.2-0.8,0.6-1.4,1.2-1.9c0.7-0.5,1.4-0.7,2.3-0.8c-1.8-0.2-3.2,0.8-4.6,1.5c-0.5,0.1-1,0.1-1.4,0
		c-1.2-0.5-2.3-1.1-1.9-2.7c0.6-0.8,1.4-1.3,2.4-1.7c2.3-1.1,5.2,0.6,7.3-1.6c-4-1.9-5.6-5-5.1-9.4c0.3-3.2-0.2-6.5,0.4-9.8
		c1.2-3.7-0.3-7.3-0.2-10.9c-0.1-10.8-0.1-21.6,0-32.3c0-2.7-0.4-5.3-1.8-7.6c-0.7-1.1-1.3-2.3-1.5-3.7c-0.1-0.5,0-1,0.2-1.5
		c0.4-0.9,1.2-1.5,1.8-2.3c0.5-0.9,0.9-1.8,1.2-2.8c-0.1-12.4,1.1-24.7-0.7-37.1c-0.2-1.4,0.2-2.6,1.2-3.6c10-2,20.1-0.7,30.2-0.8
		c0.3,0.1,0.6,0.1,0.9,0.2c1,0.3,1.7,1,2,2c0.1,0.3,0.1,0.6,0.2,0.9c0.5,13.1,0.1,26.1,0.2,39.2c0,0.5,0,1.1-0.1,1.6
		c0,2.1-1.6,3.6-2.3,5.4c1.6,2.1,3.3,4.1,3.1,7c-0.1,10.9-0.1,21.8-0.2,32.8c0,1.7,0.6,3.7-1,5.2c-1.1-7.9-0.2-15.8-0.4-23.7
		c-0.1-2.8,0-5.6,0-8.4c-0.1,6.8,0.1,13.7-0.1,20.5c-0.9,1.7-2.1,1.1-3.4,0.5c-1.9-0.9-2.5,0.3-2.6,1.8c-0.1,1.6-0.8,4,0.9,4.5
		c2.4,0.7,1.9-2,2.4-3.4c0.3-0.8,0.6-1.6,1.3-2c2.4,0.7,1.1,2.7,1.3,4.1c0.4,2-0.7,4.2,0.5,6.2c-0.4,0.6-0.8,1.3-1.2,1.9
		c0.3,1.3,1.1,2.5,1.5,3.8c0.4,0.9,0.6,1.9,0.7,2.9c0,0.5-0.1,1-0.2,1.5c-0.4,6.6-0.4,13.1,0,19.7c0.2,0.4,0.3,0.9,0.5,1.4
		c0.2,0.4,0.5,0.8,0.8,1.2c10.1,0.6,20.3,0.1,30.4,0.2c6.5,0.1,12.9-0.1,19.4,0.5c1.5,0.1,3.1,0,3.7,1.8c0.5,1.7,0.4,3.3-1.5,4.2
		c-15,2.4-30,5.4-44.9,8.5c-2.2,0.5-5.4-2.4-6.7,1.7c-0.2,0.2-0.4,0.5-0.6,0.7C331.2,163.9,331,164,330.6,163.6z"/>
	<path class="st59" d="M295.5,64.5c-0.6,0.4-1.2,0.9-1.8,1.3c-1.7,1.3-3.7,1.2-5.7,1.2c-13.1,0-26.2,0.1-39.3,0
		c-6.5,0-7.4-0.9-7.4-7.6c-0.1-5.6,0-11.3,0-16.9c0-1.8,0.3-3.7-0.8-5.3c-0.5-0.4-1-0.7-1.5-0.9c-14.3-0.6-28.6-0.1-42.9-0.3
		c-2,0-4,0.3-5.8-0.9c-1.2-3.1,1.5-2.7,2.9-3c2.6-0.6,5.3,0,7.8-1.3c2.2-1.5,1.6-3.7,1.8-5.9c0.2-2.3,0.6-4.9,3.8-4.9
		c12.2-0.1,24.5,0,36.1,0c-0.8-0.3-2.5,0-4,0c-11.3-0.3-22.6,0.6-33.8-0.5c0.7-0.3,1.5-0.8,2.2-0.8c15.5,0,31.1,0.1,46.6,0.2
		c3.9,1.3,7.9,0.3,11.8,0.6c1.6,0.1,3.9-0.2,3.6,2.2c-0.2,2.2-2.4,1.6-4,1.5c-4.4-0.3-8.8,0.5-13.2,1.2c-3.3,3-1.1,6.6-0.9,9.9
		c0.2,2.6,2.8,2.8,5.1,2.9c3.5,0.2,7,0.9,9.8-2.1c0.5-0.1,1-0.1,1.5,0c7.2,1.7,14.4,2.6,21.9,1.3c2.5-0.4,5.3-1,7.3,1.6
		C296.5,46.9,297.6,55.8,295.5,64.5z"/>
	<path class="st56" d="M201.8,32.6c-2.1,1.8-4.7,0.7-7,1c-1.7,0.3-3.6-0.7-5,1c2.9,5.3,1.5,10.9,1.1,16.5c-1.9,3.8-5.4,2.3-8.3,2.3
		c-2.8,0-5.5-0.5-8.3,0.1c-1.1,0.2-1.7,0.7-1.4,1.9c-2.2,2.9-5.4,3.6-8.7,3.6c-3.3,0.1-6.6-0.1-9.8,0.9c-0.5,0.1-0.9,0.2-1.4,0.2
		c-1.2-0.1-2.2-1-3.4-1c-2.2-0.3-4.4-0.2-6.3-1.7c-1.6-1.3-3-2.8-3.6-4.8c-0.3-1-0.3-2-0.2-3c0.1-0.6,0.3-1.6,0.8-1.7
		c3.8-1,4.7-4.2,5.7-7.4c0.4-1.3,1.2-2.4,2.3-3.1c0.5-0.2,0.9-0.1,1.3,0.2c6.2-0.3,11.5-3.6,17.4-4.9c9.5-2.2,19-4.4,28.7-5.2
		c1.8-0.1,3.6-0.5,5-1.9C204.3,27.4,202.6,30.1,201.8,32.6z"/>
	<path class="st60" d="M118.8,39.6c0.5-3.2,0.9-6.4,1.6-9.6c0.5-2.4,1.4-4.7,4.2-5.5c2.3-1.1,4.8,0.2,7.1-0.8c2.8,0,5.6-0.1,8.3-0.1
		c6.1,0.1,6.1,0.1,4.5,6c-0.2,2.9-2.2,4.4-4.5,5.6c-1.1,0.5-2.5,0.5-3.4,1.4c-0.8,1-0.3,2.1-0.1,3.2c0.4,2.3-1.1,4.2-1.5,6.3
		c-0.1,0.4-0.1,0.9-0.2,1.3c0.1,2.2,0.3,4.4-3,3.9c-1-0.2-1.9-0.3-2.9-0.4C121.3,50.7,118.7,47.7,118.8,39.6z"/>
	<path class="st61" d="M133.7,236.5c1.3,0,2.6,0.1,4,0.1c2.6,1.4,1.4,3.9,1.7,6c-0.2,1.3-0.4,2.7-1.3,3.7c-2.1-1.3-3.6-2.6-2.1-5.5
		c0.9-1.8,0-2.8-2.5-2.8c-15,0.3-29.9,0.3-44.9,0.4c-3.3,0-3.2,0.1-6.1,2.9c-0.9,0.8-2.5,0.8-3.8,1.1c-3.4,0.8-6.8,1.1-10.1,2.5
		c-4.1,1.8-5.3,6.8-2.3,10.3c1,1.1,2.1,1.3,2.9,0.2c2.4-3,5-1.3,8.5-0.3c-2.2,0.2-3.5,0.3-4.8,0.5c2.2,1,4,2.1,5.7,3.9
		c2.2,2.3,4.9,5.3,7.5-0.3c1.6-3.5,5.2-1.2,8-1.8c0,2.4-2,2.1-2.5,3.4c-0.7,1.7-1.4,3.5,1.4,3.5c2.7,0,4.7,1.8,7.6,1.7
		c3.5-0.1,0.6,2,0.2,3.2c-2.8,1.2-5.4-0.3-7.9-1c-7.9-2.3-15.9-4.1-23.6-7.1c-2.8-1.1-5.5-2.5-6.5-5.6c-3.2-5.4-2.6-8.2,2.6-11.6
		c4.5-2.9,9.5-4.7,14.6-6.4c1.4-1.6,3.1-2.4,5.3-2.3c14.3,0.6,28.6,0.1,42.9,0.3C129.8,235.6,131.9,235.3,133.7,236.5z"/>
	<path class="st62" d="M309.6,276.5c7-0.3,14.2-1.5,21-1.3c6.7,0.2,12.6-3.1,19.2-1.8c4.3,0.9,8.4-0.5,12.6-2.1
		c3.7-1.4,7.4-1.7,11.9-0.8c5.5,1.1,12.2,0.1,17.4-2.2c8.1-3.6,16.2-6.1,25.1-6.2c6.4-0.1,11-4.6,16.7-6.4c1-0.3,1.9-1,2.1,0.7
		c-9,6.6-19.7,8.5-30.1,11.1c-4.3,1.1-8.7,2-13,3c-0.8,1.1-2,1.2-3.1,1.4c-12.1,1.6-24.1,4-36.4,4.7c-2.3,0.1-4.6-0.2-6.9,0.5
		c-6.4,0.5-12.7,1.2-19,1.7c-2.3-0.1-4.6-0.5-6.8,0.2c-2.8-0.1-5.7,0.4-8.5-0.3c-0.7-0.1-1.4-0.2-2.1-0.2
		C309,277.8,309,277.2,309.6,276.5z"/>
	<path class="st63" d="M250.6,23.6c5.6-2.2,11.5-1.8,17.4-1.4c0-0.5,0-1,0-1.6c-4.6,0-9.2,0-13.8,0c-1.5,0-2.5-0.1-0.8-1.6
		c13.7-0.1,27.5-0.2,41.2-0.3c0.4,0.4,0.8,0.7,1.3,1c0.3,0.3,0.4,0.6,0.5,1c1.6,14,1.4,28,0.2,41.9c-1.2-10.8-0.1-21.6-0.6-31.6
		c-0.4,1.6,0.7,4.2-0.4,6.5c-7.3,0-14.6,1.7-22,0.5c-2.4-0.4-5.1-0.1-7-2.2c0.2-0.5,0.6-1,1.2-1.2c0.8-0.4,1.6-0.5,2.5-0.5
		c5.9-0.1,11.9-0.1,17.8,0c3,0,4.2-1.2,4.1-4.2c-0.1-2.8-0.7-4.9-4.1-4.9c-3.5,0-6.9,0-10.4,0c-0.9,0-1.7,0-2.6,0
		c-7-0.2-14.1,0.3-21.1,0.1C252.7,24.9,251.5,24.7,250.6,23.6z"/>
	<path class="st64" d="M309.6,276.5c0,0.6,0,1.3,0,1.9c-2.7,0.6-5.6-0.5-8.2,1c-10.6,1.5-21.2,1.1-31.9,1.1
		c-11.8,0.2-23.5-0.1-35.3,0c-1.7,0-3.3,0.1-4.8-0.9c-5.3,0-10.6-0.1-15.9-0.1c-5.3-1.2-10.8,0.4-16.2-0.8c-2.9-0.1-5.9-0.1-8.8-0.2
		c-3.3-0.3-6.6,0.4-9.9,0.1c-2,0-3.9,0.1-5.9-0.1c-3-0.8-6.1-0.3-9.1-0.6c-1.9-0.5-3.8-0.3-5.8-0.4c-1.9-0.5-3.8-0.4-5.7-0.9
		c-4.9,0.4-9.6-1.1-14.4-1.2c-1.3-0.6-3.5-0.9-2.9-2.6c0.6-1.6,2.4-1.2,3.8-0.2c12.5,2.4,25.3,1.7,37.8,3.2c7.9,0.9,16,1.7,23.7,1.3
		c10.2-0.5,20.3,1.6,30.6,0.2c4.9-0.7,10.7-1.1,15.9,0.4c2,0.8,4,0.8,6,0c2.2-1.9,5.4-1.8,7-0.7c5.4,3.5,11,1.3,16.3,1.2
		C287.2,277.9,298.4,276.4,309.6,276.5z"/>
	<path class="st65" d="M133.7,236.5c-13.7,0-27.4,0-41.2,0c-4.3,0-8.6-0.2-12.8,1c0-33.1,0-66.2,0-99.4c0-1.6-0.4-3.4,0.9-4.7
		c0,30.6,0,61.3,0,91.9c0,6.3,2.8,9.1,9.3,9.1c12.7,0,25.3,0,38,0C130.1,234.6,132.4,234,133.7,236.5z"/>
	<path class="st66" d="M418.6,237.5c-1.4,1.5-3.3,1.4-5.1,1.3c-25.4-0.1-50.9,0-76.3-0.5c-6.1-0.1-4.1,4.1-5.6,7c0-2.9,0-5.8,0-8.6
		c25.7-0.1,51.4-0.1,77.1-0.2c2.3,0,4.6-0.1,7-0.1C416.7,236.8,417.6,237.2,418.6,237.5z"/>
	<path class="st67" d="M139.6,34.6c1.6-1.7,3.3-3.3,4.9-5c0.3,0,0.6,0,0.9,0.1c0.4,2.9,2.2,5.3,3.1,8c-0.9,2.6-2.4,5.2-2.6,7.8
		c-0.3,4-4.7,1.5-5.5,4.1c-2.6-0.3-4.8-1.3-6.8-3.1c-0.7-2.6,3.2-4.1,1.7-6.9c0.7-1.1,0.5-2.6,1.6-3.5
		C137.8,35.5,139,35.5,139.6,34.6z"/>
	<path class="st68" d="M157.6,276.3c2,0.1,3.9,0.2,5.9,0.2c3,1.2,6.2-0.3,9.1,0.8c1.9,0.1,3.9,0.1,5.8,0.2c2.6,1.3,5.6-0.6,8.2,1.1
		c-7.5,1.8-15.2,1-22.7,0.6c-10.2-0.6-20.3-2.1-30.5-3.3c-3.1-0.4-6.3-0.7-9.3-1.5c-4.8-1.3-9.6-0.5-14.4,0.1
		c0.2-1.5,1.8-0.6,1.8-1.9c-1.8-0.1-3.8,0.3-5.3-0.4c-2.2-1-0.5-1.5,0.6-1.8c2-1.4,4.1-1.1,6.2-0.6c5.9,1.5,12,2,18,2.6
		c2.4,0.2,4.2,1.9,6.5,1.9c5,0.4,9.9,1.7,14.9,1.2C154.1,276.6,156,275.6,157.6,276.3z"/>
	<path class="st69" d="M269.8,279.6c10.5,0,21.1-0.1,31.6-0.2c2.3,0,4.6,0,6.9,0c-6.8,0.9-13.5,1.7-20.2,1.9
		c-6,0.3-12.1,0.6-18.2,0.4c-4-0.1-8.1-0.1-12.1-0.1c-12.6,0.1-25.2-1-37.8,0.6c-3,0.4-6.3-1.3-9.6,0.5c0-0.8,0-1.5,0-2.3
		c6.5,0,13,0,19.5,0c11.4-0.9,22.8-0.1,34.1-0.4C265.9,280,267.9,280.5,269.8,279.6z"/>
	<path class="st70" d="M326.5,277.8c6.6-0.4,13.3-0.9,19.9-1.3c1.9-1,4.2,0.2,6.1-0.8c13.3-1.7,26.6-3.5,39.9-5.2
		c0.4,0.2,1.2,0.3,1.3,0.6c0.6,1.7-0.8,1.4-1.7,1.5c-5,0.1-9.9,0.9-14.7,2.1c-14,3.5-28.6,1.8-42.7,4.1c-6.1,1-12.1,0.8-18.2,0.8
		c-1.6,0-3.4,0.5-4.8-0.8c2.9-0.1,5.8-0.2,8.7-0.2C322.4,277.5,324.6,278.5,326.5,277.8z"/>
	<path class="st71" d="M62.6,255.6c10.2,7.7,22.5,9.5,34.3,12.9c1.2,0.4,2.6,0.5,3.8,0.8c1,0.1,2,0.2,3,0.3
		c-3.2,2.4-6.4-0.4-9.6-0.2c-4.6,0.3-8.4-2.6-12.7-3.3c-0.5-0.1-1-0.6-1.3-0.5c-5.1,1.4-8.6-3-13.3-3.6
		C64.1,261.8,60.5,259.9,62.6,255.6z"/>
	<path class="st72" d="M137.6,274.4c-10.3-1.3-20.5-2.6-30.8-3.9c-1.1-0.4-2.1-0.8-3.2-1.1c3.2-1.5,6.6-1.1,9.7-0.5
		c7.4,1.4,14.7,3.4,22.4,1.8c1.4-0.3,2.7,0.2,2.9,1.9c-1,0.3-2.2-0.7-2.9,0.6C135.7,273.2,137,274,137.6,274.4z"/>
	<path class="st73" d="M201.8,32.6c-0.6-2.3,0.7-4.9-1-7c0-2.8,0.5-5.3,3.8-6c13.2,0,26.5,0,39.7,0c0,0.3,0,0.7,0,1
		c-7.1,0-14.2,0-21.3,0c-4.6,0-9.3,0.2-13.9-0.1c-4.4-0.2-5.4,2-5.1,5.8C204.1,28.6,204.7,31.3,201.8,32.6z"/>
	<path class="st74" d="M330.5,21.9c2.3-0.5,1.7,1.9,1.7,2.4c-1.1,12.4-0.3,24.7-0.6,37.1c0,0.9-0.3,1.6-1.2,2
		c-1-1.3-0.8-2.8-0.8-4.3c0-10.9,0-21.9,0-32.8C329.6,24.7,329.5,23.2,330.5,21.9z"/>
	<path class="st75" d="M330.5,21.9c0,13.8,0,27.6-0.1,41.4c0,0,0,0,0,0c-0.1,0.7-0.3,0.8-0.8,0.3c-0.2,0.1-0.3,0-0.4-0.2
		c-0.1-13.9-0.1-27.8,0-41.7c0.1-0.2,0.3-0.2,0.4-0.2C329.9,21.7,330.2,21.8,330.5,21.9z"/>
	<path class="st64" d="M269.8,279.6c-3.8,1.6-7.8,0.7-11.7,0.7c-9.4,0.2-18.8,0.1-28.3,0.1c-0.1-0.3-0.2-0.6-0.4-0.8
		C242.9,279.6,256.4,279.6,269.8,279.6z"/>
	<path class="st76" d="M118.8,39.6c1.3,1.4,0.4,3.2,0.9,4.7c1.1,3.5,3.5,5.5,7.2,5.5c1.8,0,3.6-0.6,5.2,0.7c1.1,1,0.2,1.4-0.6,1.4
		c-1.9,0.1-3.9,0.3-5.8-0.2c-0.7-0.1-1.3-0.2-2-0.3C117.6,47.6,116.9,45.8,118.8,39.6z"/>
	<path class="st77" d="M295.8,20.5c-0.9-0.2-1.1-0.9-1.1-1.8c1.3-0.1,2.6-0.2,4-0.3c9.4-0.7,18.9-0.2,28.3-0.2
		c0.2,0,0.4,0.5,0.6,0.8c0.1,0.2,0.1,0.4,0.1,0.5l-0.1,0.4C316.9,20.4,306.3,19.5,295.8,20.5z"/>
	<path class="st78" d="M327.6,19c-9.6-1-19.3,0-28.9-0.6c1-1,2.1-1.2,3.6-1.2c6.8,0.2,13.6,0.2,20.4,0.3
		C324.4,17.7,326.4,16.8,327.6,19z"/>
	<path class="st79" d="M148.6,37.7c-3.5-1.7-3-5-3.1-8c0.3,3.2,5.2,4.1,4.2,8C149.3,37.6,148.9,37.7,148.6,37.7z"/>
	<path class="st64" d="M197.4,278.6c5.4,0.3,10.9-1.1,16.2,0.8C208.2,279.3,202.7,280.2,197.4,278.6z"/>
	<path class="st64" d="M186.6,278.7c-2.7-0.6-5.6,0.5-8.2-1.1c3.4,0.3,6.9-1,10.2,0.8C187.9,278.5,187.3,278.6,186.6,278.7z"/>
	<path class="st74" d="M329.6,63.6c0.3-0.1,0.5-0.2,0.8-0.3c0.5,2.5-0.7,4.1-2.7,5.2C326.6,66.2,328.7,65.1,329.6,63.6z"/>
	<path class="st80" d="M131.7,23.7c-2.2,1.6-4.7,0.8-7.1,0.8C126.8,23.6,129.2,23.5,131.7,23.7z"/>
	<path class="st81" d="M329.6,122.6c0.2-0.2,0.3-0.5,0.2-0.8c1.3-1.7,3.1-1.7,5-1.7c12.1,0,24.2,0,36.2,0c1.7,0,3.3,0.1,4.6,1.4
		c0,7.7,0.1,15.4,0.1,23c-1.4,1.7-3.3,1.4-5.1,1.4c-11,0-22,0.1-33,0c-6.1-0.1-6.5-0.5-6.5-6.5c0-3,0-6,0-9c-0.1,1.6,0,3.2,0,4.8
		c0,3.2,0,6.3,0,9.5c-0.2,0.7-0.6,0.9-1.2,0.6c0-0.3-0.1-0.6-0.3-0.8C328.9,137.2,328.9,129.9,329.6,122.6z"/>
	<path class="st82" d="M331.9,162.7c-0.2-0.5-2.4,0.4-0.8-1.1c0.7-0.7-0.1-2.3,2.1-2.2c11.1,0.8,21.6-2.8,32.3-5.2
		c5.4-1.2,11.3-2.3,17.1-1.7c0.3-0.4,0.7-0.4,1.2-0.2c0.2,0.4,0.1,0.8-0.2,1.1c-15.6,2.9-31.1,5.8-46.7,8.7
		C335.2,162.5,333.6,162.5,331.9,162.7z"/>
	<path class="st83" d="M375.6,121.5c-15.3,0.1-30.6,0.2-45.9,0.3c-0.3-0.8-0.7-1.7-1-2.5c0.8-0.6,1.8-0.7,2.8-0.4
		c13.8-0.8,27.6-0.2,41.4-0.3c1,0,2,0.3,2.8,1C375.6,120.2,375.6,120.9,375.6,121.5z"/>
	<path class="st84" d="M330.6,163.6c0.2-0.2,0.5-0.3,0.7-0.2c2.5,2,0.1,4.2,0.1,6.3c0.3,16.9,0.2,33.9,0.2,50.9c0,5.3,0,10.6,0,16
		c-1.7-1.7-0.9-3.8-0.9-5.7C330.6,208.4,330.6,186,330.6,163.6z"/>
	<path class="st85" d="M330.6,145.3c0-6.5,0-12.9,0-19.4c0.3,0,0.7,0,1,0c0,4.6,0.4,9.2-0.1,13.8c-0.4,4.5,2,4.9,5.3,4.9
		c13,0,25.9,0,38.9,0c0.6,0.3,1.2,0.5,1.9,0.8c-1.1,1.4-2.7,1.2-4.1,1.2c-12.9,0-25.8,0-38.7,0C333.2,146.5,331.7,146.8,330.6,145.3
		z"/>
	<path class="st86" d="M330.6,145.3c15.6,0.6,31.3,0.4,46.9,0.1c1.8,0.1,3.6,0.2,5.5,0.2c1.9,0,3.9,0,3.6,2.8
		c-0.2,2.1,1.4,5.5-3.1,5.2c0.1-0.3,0.2-0.5,0.3-0.8c2.1-4.7,1.6-5.6-3.1-5.6c-15.4,0-30.8,0-46.2,0c-1.6,0-3.3,0.6-4.8-0.6
		c0-0.4,0-0.7,0.1-1.1C330.1,145.3,330.4,145.3,330.6,145.3z"/>
	<path class="st87" d="M375.6,119.6c-15-0.1-30-0.1-45-0.2c-0.1-0.7,0.2-1.2,1-0.8c0.3,0,0.7,0,1,0c10.4-1.1,20.8-0.3,31.2-0.4
		c3.9,0,7.9-0.6,11.8,0.4C375.6,118.9,375.6,119.2,375.6,119.6z"/>
	<path class="st88" d="M375.6,118.6c-14.3,0-28.7,0-43,0c0.8-1,2-1,3.2-1c12.2,0,24.4,0,36.6,0C373.6,117.6,374.8,117.5,375.6,118.6
		z"/>
	<path class="st88" d="M331.6,118.5c-0.3,0.3-0.7,0.6-1,0.8c-0.6,0-1.3,0-1.9-0.1c-0.6-1.2-2.4-2.4-0.4-3.9
		C329.7,116.2,332.2,115.7,331.6,118.5z"/>
	<path class="st56" d="M163.7,236.5c-0.7,0-1.3,0.1-2,0.1c-4.2,1.2-5.8-1.7-7.4-4.6c-2.5-12.1-1.4-24.1,0.1-36.2
		c0.9-6.8,2-13.5,3.2-20.2c3-16.2,3-32.3,0.8-48.6c-0.6-4.2-1.5-8.5-1.2-12.8c1-4.5,0.6-8.9-1-13.1c-0.9-2.2-1.4-4.4-0.5-6.8
		c0.9-1.7,2.5-1.8,3.8-1c3.7,2.2,6.2,0.7,8.3-2.3c1.9-1.6,1.9-4.5,4.2-5.8c0.6,0,1,0.3,1.3,0.8c0.8,1.5,0.7,3.2,0.8,4.8
		c-0.5,6-0.5,6.1,5.6,6.2c2.3,0,4.6,0,7,0c5.9-0.1,6.1-0.3,6.4-6.1c0.2-4.1-0.1-8.3,2.7-11.9c2-1,4-1,6,0.2c1.8,2.1,1.5,4.7,1.5,7.1
		c0.1,4.1,0.2,8.3,0,12.4c-0.2,4.3,1.3,6.7,5.9,6.3c18.4-0.5,36.9-0.2,55.3-0.2c1.7,0,3.3,0.2,4.8,1.2c0.6,0.5,0.7,1,0.5,1.7
		c-1.9,1.7-4.4,1.3-6.6,1.3c-14.4,0.1-28.8,0-43.2,0c-2.1,0-4.3-0.2-6.3,0.8c-0.5,0.2-1.1,0.3-1.7,0.3c-2.2-1.1-4.5-1.1-6.8-0.9
		c-9.2,1.2-18.5,0.3-27.7,1.2c3.4,4.5,7.6,7.3,13.3,7.8c3.7,0.3,7.6-1,11.2,1.2c0.3,0.5,0.4,1,0.4,1.5c-0.5,3.6-1.2,7.3-0.9,10.9
		c0.3,3.7-0.5,6.2-4.6,6.9c-1.1,0.2-2.6,0.5-2.6,1.9c0,1.2,1,2.5,2.1,2.6c6.7,1,5.3,6.6,5.5,10.6c0.7,20,0.6,39.9,0.3,59.9
		c-0.1,6.6,0.6,13.2-0.9,19.8c-0.3,1.2-0.6,2.2-1.4,3.1c-0.7,0-1.3,0-2,0C186.3,235.7,175,235.7,163.7,236.5z"/>
	<path class="st89" d="M296.7,248.7c-0.3,0.9-0.6,1.8-0.8,2.7c-29.1,0-58.2,0.1-87.3,0.1c-4.9,0-6.8-2-6.9-7c0-2.3,0-4.7,0-7
		c2.3,0.1,1.1,1.9,1.1,1.9c-1.2-28.2-0.3-57.5-0.5-86.8c0-1.7,0.1-3.3,1.4-4.6c2-1.2,4.2-0.9,6.3-0.9c26.2,0,52.3,0,78.5,0
		c2.8,0,5.7-0.1,8.3,1.4l0,0c0.6,1.1,0.4,2.3,0.4,3.4c0,31.1,0,62.3,0,93.4C297.1,246.4,297.3,247.6,296.7,248.7z"/>
	<path class="st90" d="M203.7,148.6c0,31.9,0,63.8,0,96.4c-2-2.7,0.1-5.6-2-7.5c0-0.3,0-0.7,0-1c-2-5-0.7-10.2-0.6-15.2
		c0.2-21,0.2-41.9,0-62.8c0-3.2-0.7-6.6,0.9-9.7C202.4,148.4,203,148.3,203.7,148.6z"/>
	<path class="st91" d="M202.3,148.7c-0.9,2.1-0.7,4.3-0.7,6.4c0,27.1,0,54.3,0,81.4c-0.7,0-1.3,0-2,0c1.4-20,0.9-40,1-60
		c0.1-9.7-0.1-19.4-0.7-29.1c-0.1-1.9-0.7-2.6-2.2-2.3c-1.9,0.4-2.7-0.9-3.8-1.9c-3.2-3.1-3-4.9,1.3-5.6c4.6-0.8,5-2.6,4.8-6.9
		c-0.1-3.2-1.4-7.3,1.7-10.3c2.8,5.5,1.1,11.3,1.1,17c-0.2,0.8-0.7,1.5-1.3,2.1c-0.8,0.7-1.9,1-3.1,1.2c1,0.7,2.2,0.5,3.1,1.2
		c0.4,0.3,0.7,0.7,0.9,1.1c0.5,1.1,0.6,2.3,0.5,3.5C202.8,147.4,202.6,148,202.3,148.7z"/>
	<path class="st92" d="M155.6,232.4c1.5,2.2,3.7,3.4,6.1,4.2c0,0.4,0,0.8,0,1.3c-0.3,2.7-2.4,2.9-4.4,3.2c-1.8,0.2-3.7-0.1-5.4,0
		c-0.6-0.1,0.2,0.2-0.4-0.1c-0.4-0.2-0.4-0.3,0,0c1.4,0.2,2.7-0.1,4.1,0.2c0.3,0.2,0.4,0.5,0.4,0.7c0,0.3-0.1,0.4-0.1,0.4
		c-0.4,0.2-1.2,0-1.1,0.8c0,0.2,0.7,0.3,1.1,0.5c-1,4.5-4.6,3.8-7.8,3.9c-1.5,0-3,0-4.3-0.9c-0.7-1.3,0.8-1.9,1-3
		c0.6-2.9-2.2-5.3-1.2-8.2c1.8-1.6,4.2-1.1,6.2-2.1C151.6,232.6,153.4,231.6,155.6,232.4z"/>
	<path class="st93" d="M147.7,246.6c3,0,5.9-0.4,8-3c2.2,0.7,5.8,0.9,5.3,3.7c-0.4,2.4-3.9,1.2-6.1,1.4c-1.1,0.1-2.2-0.3-3.4-0.4
		C150.5,247.3,148,249.3,147.7,246.6z"/>
	<path class="st91" d="M163.7,236.5c1.1-1.3,2.7-1,4.1-1c8.6,0,17.1,0,25.7,0c1.4,0,3-0.4,4.2,1C186.3,236.5,175,236.5,163.7,236.5z
		"/>
	<path class="st94" d="M155.7,242.4c-0.1-0.2-0.3-0.5-0.4-0.7c2.3-1.7,5.8-0.9,7.4-3.8c1.3-0.4,2.1,0.6,3.1,1.1
		c0.8,0.5,1.9,1,1.5,2.2c-0.3,1-1.3,1.5-2.3,1.4C161.9,242.6,158.8,242.5,155.7,242.4z"/>
	<path class="st95" d="M299.6,251.5c8.9,0,17.9-0.1,26.8-0.1c0.2,0,0.4,0,0.5,0.1c0.2,0.2,0.4,0.4,0.5,0.6c-0.8,0.1-1.5,0.3-2.3,0.3
		c-7.3,0-14.6,0-21.9,0C302,252.5,300.6,252.7,299.6,251.5z"/>
	<path class="st96" d="M147.7,246.6c1.3,0.6,2.6,1.1,3.9,1.7c-4.6-0.1-9.3,0-13.6-1.9c-0.2-1.4-0.9-2.9,0.7-4c2.3,0,4,1.2,5.1,3.1
		C144.8,246.7,146.3,246.3,147.7,246.6z"/>
	<path class="st97" d="M162.7,237.8c-1.1,3.8-4.4,3.5-7.4,3.8c-1.6,0-3.4,0.7-4.6-1.1l0,0c3.8-0.6,7.9,0.2,11-2.7
		C162,237.8,162.4,237.8,162.7,237.8z"/>
	<path class="st64" d="M252.6,277.5c-1.9,1-3.8,1.3-5.9,0.8c-0.1,0-0.2-0.2-0.3-0.4c0-0.1,0.1-0.3,0.1-0.5
		C248.6,277.5,250.6,277.5,252.6,277.5z"/>
	<path class="st98" d="M143.6,56.6c2.2,1.4,4.7,0.9,7.1,1.1c0.9,1.6,2.2,3.1,3,4.7c0.6,1.1,0.9,2.3,0.7,3.6
		c-0.7,2.2,0.1,4.7-1.4,6.8c-0.8,0.8-1.8,1-2.8,1.2c-4.4-0.2-8.6,0.7-12.6,2.6c-1.8,0.5-3.6,0.4-5.5,0.4c-0.2,0-0.9-0.2-0.7,0.3
		c0.2,0.4,0.7,0.6,1,1c0.8,3.1,0.6,6.3,1.6,9.4c2.2,6-0.1,12,0,18c0,2.9-0.2,5.9,0.2,8.8c0.4,3.4-1.1,4.5-4.3,4
		c-0.6-0.2-1-0.6-1.3-1.2c-5.3-2.3-3.9-7-3.8-11.1c0-2.1,0.5-4.3,1.3-6.3c3.3-8.5,0.9-16.2-3.1-23.7c-4.2-7.7-3.1-13,3.6-18.6
		C132.1,53.4,137.8,54.6,143.6,56.6z"/>
	<path class="st99" d="M128.6,117.3c0.4,0.1,0.8,0.3,1.1,0.4c2.4,1.2,4.2-0.3,6.2-1.3c2.3-0.4,4.6-0.6,6.9-1.1
		c3.3-0.4,6.5-1.2,9.8-2c1.7-0.4,3.6-1.1,5.3,0.2c0.4,1.4,0.4,2.7,0.1,4.1c-2,2.7-5,3-8,3.5c-4.3,0.7-8.6,0.9-12.8,2.3
		c-2.2,0.1-2.9,1.5-3.4,3.5c-1.7,6.8-0.5,13.4,0.6,20.1c0.3,1.6,0.6,3.2,0.7,4.9c0.9,3.5,0.8,7.2,1.8,10.7
		c0.8,14.9-1.7,29.7-0.8,44.6c-0.1,1.5,0,3.1-1.1,4.4c-3.2,0.2-2.5-2.4-2.8-4.1c-0.4-3.6,0.6-7.3-0.6-10.8
		c-0.2-9.8-0.3-19.6,0.7-29.4c0.9-8.8-2.4-17-4.8-25.3c-1.9-6.7-2.4-13.4-1.9-20.2C125.8,119.6,125.9,117.5,128.6,117.3z"/>
	<path class="st100" d="M131.6,196.5c2.1,2.5,0.8,5.4,1,8.1c0.2,2.5-0.1,5,2,6.9c2.6,2.6,0.5,5.9,1.3,8.9c0.5,2,0.1,4.2,0.9,6.2
		c0.4,2.1,0.3,4.2,0.3,6.3c0,1.7-0.8,2.4-2.5,1.6c-2.7-7.4-1.6-15.2-2.6-22.8C131.3,206.8,131.7,201.6,131.6,196.5z"/>
	<path class="st101" d="M143.6,56.6c-5.7,0.3-11.4-0.7-17,1c0.9-5,4.9-3.5,8.1-4c1-1.2,2.5-1.4,3.9-1.7c0.8,0,1.4,0.2,2,0.7
		C141.6,53.9,142.6,55.2,143.6,56.6z"/>
	<path class="st102" d="M138.7,52.6c-1.1,1.2-2.6,0.7-4,0.9c-2.7-2.1-6.3,0.3-9-1.7c2.1-0.8,4.7,1.1,6.4-1.2
		c4.4,0.7-0.2-2.6,1.4-3.2C136.5,47.9,138.9,49,138.7,52.6z"/>
	<path class="st103" d="M143.7,245.6c-2.2-0.3-3.6-1.7-5.1-3.1c-0.3-1.9-0.7-3.9-1-5.8c0.3-0.3,0.7-0.6,1-1c0.2-0.1,0.4-0.3,0.6-0.4
		c0.2,0,0.5,0,0.7,0.1c2.2,3.2,2.4,7.8,6.8,9.2C145.9,245.7,144.7,245.5,143.7,245.6z"/>
	<path class="st104" d="M139.7,235.4c-0.4,0.1-0.7,0.2-1.1,0.2c-1.3-0.5-2.9,0.1-4.1-1c2.9-2.3,0.2-5.5,1.1-8.1
		c-0.6-0.7-0.5-1.4-0.1-2.1c2.2-0.2,2.2,1.6,2.4,3c0.4,2.3,1,4.5,1.9,6.6C140,234.5,140,235,139.7,235.4z"/>
	<path class="st59" d="M200.6,139.4c0.4-0.3,0.7-0.6,1.1-0.8c2-3.7,0.5-7.7,1.1-11.5c0.3-1.9-0.7-4.5,2.5-5.1
		c3.8,0.8,7.5,1.3,11.3,0.1c3.2-1,6.1,0.9,9.3,0.9c15.3-0.1,30.6,0.1,45.9-0.1c4.6-0.1,9.1-1.3,13.8-0.1c2.4,0.6,5,0,6-3.1
		c0.5-1.5,1.3-2.8,3.2-2.4c1.9,0.3,2.7,1.7,2.8,3.5c0,4.8,0.2,9.6,0.1,14.3c-0.1,2.6,0.4,4.1,3.4,3.9c2.6-0.2,2.9,1.5,2.7,3.6
		c-0.3,0.4-0.7,0.5-1.2,0.3c-3-0.4-6-0.5-9,0.2c-0.6,0-1.1,0-1.7,0c-27.6,0-55.2,0-82.8,0c-2.3,0-4.7,0.3-6.9-0.7
		C200.6,141.8,199.7,141,200.6,139.4z"/>
	<path class="st89" d="M208.6,106.5c-7,0.2-7,0.2-7-6.9c0-6.7,0-13.3,0-20c1.6-1.9,3.9-1.5,6-1.5c11.1-0.1,22.1,0,33.2-0.1
		c0.9-0.3,1.3-0.9,1.6-1.7c3-7.2,3-7.2,10.5-7.2c13.6,0,27.2-0.2,40.9,0.1c0.3,0,0.6,0.1,0.9,0.1c2.9,1.5,2.9,4.1,2.9,6.8
		c0,12.1,0,24.1,0,36.2c-0.6,0.4-1.1,0.3-1.4-0.4c-0.1-11.9,0-23.8-0.1-35.8c0.2,10.9,0,21.8,0.1,32.7c0,2.9-1.1,4-4,3.4
		c-2.2-1.4-2.9-3.8-3.8-6c-0.9-6.3-0.2-12.6-0.5-18.9c-0.2-1.2-1.1-1.8-2.1-2.2c-18.8-0.6-37.6-0.1-56.5-0.2c-5.7,0-11.3-0.4-17,0.3
		c-1,0.4-1.9,1-2,2.3c-0.2,4.3,0,8.6-0.1,12.9C210.3,102.6,210.3,104.8,208.6,106.5z"/>
	<path class="st105" d="M296.8,112.9c0.3-0.1,0.6-0.3,0.8-0.5c-0.1,2.8,1.6,5.6-0.2,8.3c-1.1-1.2-1.9-3.2-3.8-2.6
		c-1.6,0.4-0.5,2.3-0.9,3.5c-0.9,2.8-7.8,4.6-11.3,2.3c-1.7-1.1-2.5-1.6-4,0.1c-1.1,1.2-2.8,0.6-4.3,0.6c-16.3,0-32.6,0.6-48.9-0.3
		c-4.8-0.3-9.4,0.4-14,0.4c-2.2,0-3.9-0.5-5.3-2.1c-1.1-0.8-1-1.7-0.5-2.8c0.4-0.4,0.9-0.7,1.4-0.7c0.6,0,1.1,0,1.7,0.1
		c26.1,0.1,52.1,0.2,78.2,0c2.7-0.2,4.5-1.8,5.8-3.9C293.2,114.3,294.9,113.5,296.8,112.9z"/>
	<path class="st106" d="M201.7,147.5c0-1.3,0.1-2.6,0.1-3.9c0.5-0.4,1.1-0.5,1.8-0.5c27,0,53.9,0,80.9,0c2.4,0,5.1-0.7,7.1,1.4
		c0.7,0.7,1.3,1.3,2,2c-1.9,1.6-4.1,1-6.2,1c-28,0.1-55.9-0.1-83.9,0.1C202.9,147.9,202.3,147.8,201.7,147.5z"/>
	<path class="st107" d="M309.6,155.7c0-0.3,0-0.5,0-0.8c1.5-3.1,3.3-4,5.7-0.7c1,1.9,1.4,4,1.8,6.1c0,3,0.1,6,0,9
		c-1.1,5.9-2,6.9-6.6,6.3C307.3,169.1,306.4,162.5,309.6,155.7z"/>
	<path class="st107" d="M324.6,176.6c4.4,2.7,1.5,6.7,1.9,10.1c-2-0.1-2.3-1.3-2-2.9c-4.8-4.6-4.5,1.2-6.4,3.9
		c0-4.8,0.4-8.8-2.5-12.1c0-1.7-0.2-3.4,1.9-4.1c1.9,1,1.9-0.6,2-1.6c0.1-1.8,0-3.6,0.6-5.5C323.4,167.8,323.5,172.4,324.6,176.6z"
		/>
	<path class="st108" d="M293.6,66.6c0.3,0.9,0.6,1.8,0.9,2.8l0.1,0.3c-15.2-0.3-30.5,0-45.7-0.2c-1.6,0-3.3,0.3-4.9-0.3
		c-1-0.8-2.3-1.6-0.9-3.1c16.1-0.3,32.2,0,48.2-0.1C292.1,66.1,292.9,66.1,293.6,66.6z"/>
	<path class="st109" d="M202.7,143.6c-0.3,0-0.6,0-0.9,0c0-0.3-0.1-0.7-0.1-1c0.3-0.2,0.6-0.3,0.9-0.5c29.5-0.1,59.1,0,88.6-0.1
		c0.8,0,1.7,0,2.4,0.4c0.4,0,0.7,0,1.1,0c2.6-0.7,5.3-0.5,7.9,0c0.3,0,0.7,0,1,0c-3.1,2.2-6.7,0.5-10,1.1c-1.4,0.8-2.9,0.4-4.4,0.4
		c-27.9,0.1-55.7-0.1-83.6,0.1C204.6,144.2,203.6,144.1,202.7,143.6z"/>
	<path class="st110" d="M296.7,248.7c0-33.4,0-66.8,0-100.2c1.5,1.4,0.8,3.1,0.8,4.7c0,30.3,0,60.5,0,90.8
		C297.5,245.6,298,247.3,296.7,248.7z"/>
	<path class="st111" d="M202.6,147.6c0.2-0.9,0.5-1.3,1.6-1.3c29.8,0.1,59.6,0.2,89.4,0.3c0.3,0,0.7,0,1,0c1-0.7,2-0.9,3,0
		c-0.4,0.4-0.8,0.7-1.2,1.1c-1.1,0.6-2.3,0.4-3.4,0.4c-29,0-58,0-87,0C204.9,148,203.7,148.3,202.6,147.6z"/>
	<path class="st110" d="M202.6,147.6c31.3,0,62.5,0,93.8,0.1c0.1,0.3,0.2,0.5,0.3,0.8c-31,0.1-62,0.1-93.1,0.2c-0.4,0-0.9,0-1.3,0.1
		c-0.2-0.4-0.4-0.8-0.6-1.2C202,147.7,202.3,147.7,202.6,147.6z"/>
	<path class="st111" d="M202.7,143.6c30.3,0,60.6,0,90.9,0c-0.4,0.8-1.2,0.9-2,1c-28.6,0.3-57.3-0.5-85.9,0.4
		C204.5,145,203.4,144.7,202.7,143.6z"/>
	<path class="st112" d="M293.6,66.6c-17,0-34,0-51,0c-0.7,0.3-1.3,0.1-1.7-0.5c-1-10.5-2-21,0.6-31.5c1.9,6.1,0.7,12.4,0.8,18.6
		c0.2,12.4,0.1,12.4,12.4,12.4c12.9,0,25.9,0.1,38.8,0.1C293.7,66.1,293.7,66.4,293.6,66.6z"/>
	<path class="st113" d="M329.8,146.4c17.4,0,34.7,0,52.1,0.1c1.3,0,3.4-0.8,3.6,1.4c0.2,1.6,1.5,4.1-1.7,4.8c-0.4,0-0.8-0.1-1.2-0.1
		c1-1.1,2.1-2,1.4-3.8c-0.8-2.1-2.5-1.1-3.8-1.1c-16.5-0.1-33.1-0.1-49.6-0.1c-0.3,0-0.7-0.1-0.8-0.3
		C329.6,147.1,329.8,146.7,329.8,146.4z"/>
	<path class="st114" d="M329.2,21.7c0.7,13.9,0.7,27.8,0,41.7c-1.3-11.3-0.3-22.5-0.5-33.8C328.6,27,328,24.3,329.2,21.7z"/>
	<path class="st115" d="M295.6,37.6c0-3.6,0-7.2,0-10.8c0.3,0,0.7,0,1,0c0,11.9,0,23.9,0,35.8c0,0.8-0.3,1.5-1.2,1.9
		C295.5,55.5,295.6,46.6,295.6,37.6z"/>
	<path class="st116" d="M329.6,113.5c-1.9-1.3-1.1-3.1-1-4.8c0.1-1.7,0.6-3.6-0.8-5.1c-0.3-0.2-0.4-0.4-0.4-0.6
		c0-0.2,0.1-0.4,0.2-0.4c2.1-3.7,0.7-7.8,1-11.7c0.2-4.4,0.1-8.8,1-13.2C329.6,89.7,329.6,101.6,329.6,113.5L329.6,113.5z"/>
	<path class="st117" d="M309.6,155.7c-1.3,6.6-1.7,13.1,1.2,19.4c0.5,0.5,0.5,0.9-0.1,1.3c-4.9-6.3-4.5-13.2-2.4-20.2
		C308.3,155.9,309.1,155.9,309.6,155.7z"/>
	<path class="st118" d="M295.8,20.5c3.1-1.8,6.4-0.8,9.6-0.8c7.4,0,14.8-0.5,22.1,0.3c-7.9,1.4-15.8,0.3-23.6,0.6
		c-2.5,0.1-5,0.1-7.4,0.1C296.2,20.7,296,20.6,295.8,20.5z"/>
	<path class="st119" d="M327.6,102.6c0,0.3,0.1,0.7,0.2,1c0,0.7-0.1,1.3-0.1,2c-0.1,2.4-0.2,5-3,5.6c-1.7,0.4-2.7-1.4-2.9-2.8
		c-0.4-2.7-1.2-5.8,1.6-7.8C325.8,98.7,326.3,101.6,327.6,102.6z"/>
	<path class="st120" d="M306.4,82.6c0.3-2.4,1-5,3.8-4.8c2.6,0.2,3.4,2.9,3.4,5.2c0.1,2.2,0.7,4.6-0.8,6.6c-0.4,0.3-0.8,0.4-1.2,0.2
		c-1.2-1.9-0.2-3.9-0.4-5.8c-0.4-3.2-1.8-2.5-3.6-1.1C307.2,83,306.8,82.9,306.4,82.6z"/>
	<path class="st121" d="M329.6,122.6c0,7.3,0,14.6,0,22C328,137.2,328,129.9,329.6,122.6z"/>
	<path class="st122" d="M310.6,176.5c0-0.4,0.1-0.9,0.1-1.3c5.3,1.6,4-3.6,5.8-5.6c0.3-0.5,0.6-0.5,0.9,0c0,0.6,0,1.3,0.1,1.9
		c-0.6,1.4-1.3,2.7-1.9,4.1C314.1,176.6,312.7,178.4,310.6,176.5z"/>
	<path class="st123" d="M324.6,162.9c-0.1,0.6-0.2,1.3-1,1.3c-0.7,0-0.9-0.7-0.9-1.3c-1.1-1.5-1.2-3,0-4.5c0.8-2.9,2-0.3,3-0.2
		C325.6,159.8,325.8,161.5,324.6,162.9z"/>
	<path class="st124" d="M324.6,183.8c0.7,1,1.3,2,2,2.9c0,1.4-0.2,2.7-1,3.9c-0.3,0.4-0.7,0.4-1.2,0.2c-1.1-1.1-1-2.9-2.5-3.6
		c-0.4-0.5-0.9-0.9-0.4-1.6C322.1,184.1,323.2,183.7,324.6,183.8z"/>
	<path class="st106" d="M297.6,146.6c-1,0-2,0-3,0c1.9-3.3,4.8-1.5,7.4-1.5C300.6,145.6,299.5,147.4,297.6,146.6z"/>
	<path class="st125" d="M324.4,190.5c0.4,0,0.8,0.1,1.2,0.1c-0.8,1.6-2,2.4-3.3,0.9c-1.6-1.7-2.4-3.8-0.7-6c0.3,0.4,0.5,0.7,0.8,1.1
		C324.2,187.3,323.2,189.4,324.4,190.5z"/>
	<path class="st126" d="M311.9,89.6c0.3,0,0.7,0,1,0.1c-0.4,1.8-1.2,3.2-3.3,2.9c-2.2-0.3-2.7-2.1-3.1-3.9c-0.5-0.9,0-1.2,0.8-1.4
		C308.9,87.9,309.9,89.8,311.9,89.6z"/>
	<path class="st127" d="M317.5,169.5l-0.5,0c0,0-0.5,0-0.5,0c0-3.3,0-6.6,0-9.9c-0.4-1-0.8-2,0.9-1.9
		C317.9,161.7,318,165.6,317.5,169.5z"/>
	<path class="st128" d="M314.7,154.5c-2-3.5-3.5-0.8-5.1,0.4c-1.2-2.3,0.9-2.8,2.1-3.3c1.7-0.7,3.1,0.3,3.9,1.9
		C316.1,154.6,315.6,154.7,314.7,154.5z"/>
	<path class="st129" d="M307.5,87.6c-0.3,0.4-0.6,0.7-1,1.1c-1.2-2-1.2-4.1-0.1-6.1c0.4,0,0.8,0,1.1,0
		C309.1,84.2,309.2,85.9,307.5,87.6z"/>
	<path class="st130" d="M314.7,154.5c0.3-0.3,0.6-0.6,1-0.9c1.3,1.1,1.4,2.7,1.8,4.2c-0.3,0.6-0.6,1.3-0.9,1.9
		C315.9,157.9,315.3,156.2,314.7,154.5z"/>
	<path class="st131" d="M324.6,162.9c0.3-1.6-0.4-3.4,1.1-4.7C327,160.1,327.4,161.9,324.6,162.9z"/>
	<path class="st132" d="M322.7,158.4c0,1.5,0,3,0,4.5C320,161.4,319.3,159.9,322.7,158.4z"/>
	<path class="st133" d="M241.6,66.6c0.4,0,0.7,0,1.1,0.1c0.3,0.6,0.6,1.2,1,1.8c0,0.6-0.1,1.2-0.2,1.9c-1.5,8.7-1.5,8.8-10.6,8.7
		c-12.3-0.1-24.6,0.2-37-0.1c-0.8-0.7-0.9-1.5-0.5-2.5c2.1-1.9,4.6-1.5,7.1-1.5c9.3-0.1,18.6,0,27.9-0.1c5.9-0.1,6.5-0.6,6.5-6.6
		c0.1-8,0-15.9,0-23.9c0-3.6-1.4-5.1-5-5.1c-10.6,0-21.2-0.1-31.9,0.1c-1.6,0-3.5-0.2-4.2,1.8c-0.9,2.4,0.7,3.7,2.5,4.7
		c1.4,4.5,0.3,6.1-5.4,7.8c-1.2,0-2.4-0.2-3.2-1.3c0-6,0-11.9-0.1-17.9c17-0.2,34-0.7,50.9,0.1c1.1,8.5,0.1,17.1,0.5,25.6
		C241.2,62.4,240.6,64.5,241.6,66.6z"/>
	<path class="st134" d="M253.7,23.6c7.3,0.1,14.6,0.2,21.8,0.2c0.4,1,0.6,2,0.2,3.1c-0.4,0.5-0.9,0.9-1.5,1.3
		c-1.1,1.2-2.2,2.3-3.6,0.4c-0.7-1-1.5-2-2.8-1c-1.1,0.8-0.7,2.1-0.8,3.2c-0.2,1.7,1.5,3,0.6,4.8c-0.3,0.1-0.7,0.2-1,0.3
		c-0.3,0-0.7,0-1,0c-3.6,2.2-7.4,1.3-11.2,0.9c-2.2-0.2-3.9-1.7-3.9-3.9C250.7,29.5,249.6,25.6,253.7,23.6z"/>
	<path class="st135" d="M253.7,23.6c-2.1,2.6-1.8,5.8-1.9,8.9c-0.1,2.6,1.7,3.2,4,3.2c3.3,0,6.6,0.1,9.9,0.2
		c-0.1,0.5-0.1,1.1-0.5,1.4c-2.6,2.4-12,2.4-14.3-0.1c-1.5-1.6-2.6-3.5-1.9-5.9c0.3-1.1,1.2-2.4,0.1-3.2c-4.6-3.5,0.2-3.3,1.7-4.4
		C251.7,23.6,252.7,23.6,253.7,23.6z"/>
	<path class="st136" d="M241.6,66.6c-1.6-1.7-0.9-3.7-1-5.7c-0.1-8.7,0-17.5,0-26.2c0.3,0,0.6,0,1,0
		C241.6,45.3,241.6,55.9,241.6,66.6z"/>
	<path class="st137" d="M192.7,52.5c3.3-0.6,5.7-2.1,5.8-5.9c1.1-1.8,2.8-2.1,4.6-2c2.1,0.8,4.4-0.6,6.4,0.6
		c0.3,0.4,0.6,0.8,0.6,1.3c-0.2,1.9-1.3,3.6-1.6,5.5c-1.4,2.9-3.4,5-6.6,5.8c-3.2,0-5.9,1.6-8.7,3c-1.6,0.7-3.1,1.5-4.9,1.6
		c-6.1,0.3-11.6,3.3-17.6,4c-4.9,1.5-9.9,2.6-15.1,1.7c-1.2-2.7-2.4-5.3-2-8.4c1.9-2.8,4.8-1.9,7.3-1.9c4.2,0,8.2-0.2,11.5-3.3
		c0-0.4,0.2-0.8,0.3-0.8C179.7,56.3,186.1,53,192.7,52.5z"/>
	<path class="st138" d="M192.7,52.5c-4.8,2.4-10.1,2.8-15.1,4.1c-2.6,0.7-3.2-1.8-5-2.2c-1.1-0.1-1.7-0.5-0.6-1.4
		c1.3-1.1,2.9-1.5,4.7-1.4c4.4,0.3,8.8,0.6,13.2,0.9C190.8,52.5,191.7,52.5,192.7,52.5z"/>
	<path class="st139" d="M138.7,52.6c-1.7-1.8-3.4-3.5-5.1-5.3c0-0.3,0-0.6,0.1-0.8c2.5,0.4,5.2,0.6,6.8,3.1c0.1,1,0.1,1.9,0.2,2.9
		C140,52.6,139.3,52.6,138.7,52.6z"/>
	<path class="st140" d="M153.7,59.6c1.5,2.5,1.9,5.2,2,8c1,1.1,1.2,2.4,0.8,3.8c-0.3,0.8-0.8,1.4-1.6,1.6c-0.5,0.1-1,0-1.5-0.3
		c-0.5-2.4,0.5-4.8,0.1-7.3c-0.3-0.9-0.7-1.9-1-2.8c0.1-1-1.1-2.2,0.1-3.1C153.1,59.5,153.4,59.6,153.7,59.6z"/>
	<path class="st141" d="M152.8,59.5c-0.5,1,1,2.1-0.1,3.1c-1.1-1.5-1.6-3.3-1.9-5.1C151.4,58.3,152.1,58.9,152.8,59.5z"/>
	<path class="st142" d="M136.7,27.5c1.8-0.8,3.9-1.7,5.3,0.3c1.2,1.6-0.6,3-1.6,3.5c-2.5,1.2-3.4-1.4-4.9-2.6
		C135.7,28.1,136.1,27.7,136.7,27.5z"/>
	<path class="st143" d="M136.7,27.5c-0.4,0.4-0.8,0.8-1.2,1.2c-3.7,0.8-7.2-0.4-10.9-0.5C128.6,26.7,132.6,26,136.7,27.5z"/>
	<path class="st144" d="M137.8,36.5c-1.1,0.8,0.1,3.5-2.5,3.2c-1.3-1.5-0.8-2.9,0.4-4.2C136.8,35,137.7,34.9,137.8,36.5z"/>
	<path class="st145" d="M137.8,36.5c-0.5-0.8-1.3-1-2.1-1.1c1.1-1.2,2.6-0.7,3.9-0.8C139.8,35.9,139.2,36.5,137.8,36.5z"/>
	<path class="st146" d="M352.6,275.7c-1.9,1.6-4.1,0.6-6.1,0.8C348.4,275.2,350.5,275.6,352.6,275.7z"/>
	<path class="st146" d="M326.5,277.8c-1.9,1.4-4,0.6-6.1,0.7C322.4,277.2,324.5,277.7,326.5,277.8z"/>
	<path class="st56" d="M275.6,26.8c-0.7-1-1.9-1.9,0-2.9c0.7,0,1.4,0,2.1,0c3.7,1.5,7.5,0.7,11.3,0.7c4.1,0,4.2,2.4,4.2,5.5
		c0,3.1-0.7,4.7-4.1,4.5c-4.3-0.2-8.6,0.3-12.9-0.3c-0.6-0.3-1-0.7-1.4-1.3C274.1,30.8,273.9,28.7,275.6,26.8z"/>
	<path class="st134" d="M275.6,33.5c4.3,0,8.6,0,12.9,0.1c3,0.1,4.2-0.9,4.1-4c0-2.9-0.8-4.3-4-4.1c-2.5,0.2-5,0.1-7.5,0
		c-1.4,0-3.1,0.3-3.6-1.7c2.8-0.1,5.7-0.2,8.5-0.2c7.1,0,9.5,3.2,7.5,10c-0.7,2.3-2.4,2-4,2c-6.7,0-13.3,0-20,0
		C270.6,32.1,272.9,32.3,275.6,33.5z"/>
	<path class="st147" d="M275.6,33.5c-2.2,0.3-4.3,0.6-6,2.1c-0.6,0-1.3,0-1.9,0c-1.7-2-2.3-4.2-2-6.8c0.1-1.3,0-2.9,1.7-3.1
		c1.5-0.2,3.4-0.8,4.2,1.3c1.4,3.7,1.4-1.6,2.4-0.4c1.4,1.8,0,4.5,1.8,6.3C275.7,33.1,275.6,33.3,275.6,33.5z"/>
	<path class="st64" d="M172.6,277.4c-3.1-0.1-6.2,0.6-9.1-0.8C166.5,276.9,169.7,275.7,172.6,277.4z"/>
	<path class="st64" d="M157.6,276.3c-1.7,0.1-3.5,0.4-5.1-0.8C154.2,275.7,156,275,157.6,276.3z"/>
	<path class="st148" d="M289.6,85.7c0,6.9,0,13.8,0,20.6c-6.6,2.9-13.4,2.2-20.1,0.4c-20.3-0.1-40.6-0.1-60.9-0.2
		c0-6.9,0-13.9,0.1-20.8c0.6-0.3,1.2-0.4,1.8-0.3c20.3-0.6,40.6-0.1,60.9-0.3c5.5,0,11-0.3,16.4,0.3C288.4,85.2,289,85.3,289.6,85.7
		z"/>
	<path class="st20" d="M195.7,76.6c0,0.6,0,1.3,0.1,1.9c0.3,0.2,0.4,0.4,0.3,0.6c-0.1,0.2-0.2,0.3-0.3,0.3
		c-0.4,5.4-1.6,10.8-1.1,16.3c0.2,2.6-1.4,3-3.4,3c-5,0-9.9-0.2-14.9,0c-4.1,0.2-5.6-1.2-4.1-5.2c0.3-0.9,0.3-1.9,0.5-2.9
		c1.5-4.3-0.3-8.7-0.3-13c-0.1-5.8,1.1-9.9,6.8-12c0.4-0.3,0.8-0.6,1.3-0.8c4.3-0.7,8.3-2.7,12.7-3.3c0.8,0.7,1.3,1.6,1.7,2.5
		C195.7,68.2,198.3,72.2,195.7,76.6z"/>
	<path class="st149" d="M157.4,117.7c0.1-1.3,0.2-2.6,0.3-3.9c0.3-0.5,0.6-0.5,1,0c0.7,12.5,3.3,24.7,3.3,37.3
		c0,14.6-3.6,28.7-5.6,43c-1.8,12.8-2.6,25.5-0.8,38.3c-1.9,0.6-3.8,1.3-5.8,1.9c-3.1-1.9-2.6-5.1-2.8-8c-1-16.5,1.5-32.8,4.3-49
		c3-17.4,4.3-34.9,4.7-52.5C156,122.3,155.7,119.8,157.4,117.7z"/>
	<path class="st150" d="M158.7,113.8l-0.5-0.1c0,0-0.5,0.1-0.5,0.1c-5.1,0.5-9.8,3.1-15,2.8c-2.4-1.9-2.4-4.6-2.5-7.2
		c-0.3-7,0.1-13.9,1-20.8c0.8-6.4,0.2-7-6.2-8.1c-0.8-0.1-1.6-0.2-2.4-0.6c-0.5-0.8-0.5-1.6-0.1-2.4c5.5-1.3,11.1-1.8,16.5-3.6
		c1.8-0.2,3.5-0.6,5.3-0.7c1.9,0.3,3.3,1.3,3.9,3.2c0.1,0.5,0.2,1,0.2,1.5c-0.4,1.8-0.1,3.8-2,5c-2.7,2.1-1.1,4.6-0.8,7
		c0.5,1.2,1.7,2.2,1,3.7c-0.8,4.2,1.5,7.7,2.4,11.6C159.7,108.1,160,110.9,158.7,113.8z"/>
	<path class="st151" d="M155.7,82.6c1.6-1.3,0.2-3.7,1.9-5c1.5,0,2.3,1.6,3.8,1.6c0.8-0.1,1.5-0.5,2.1-0.9c2-1.2,2.3-3.4,3.2-5.2
		c0.2-0.4,0.6-0.7,0.9-1c0.9-0.4,1.9-0.4,2.8,0.1c1.2,1.4,0.8,3.3,1.4,4.9c0.1,0.5,0.1,1,0.1,1.6c0.6,4.8-1.3,9-3.3,13.1
		c-3,7.2-7.7,3.8-12.1,1.8c-0.7-1-1.4-2-2-3C153.8,87.7,154,85,155.7,82.6z"/>
	<path class="st152" d="M211.6,109.2c0.3,0,0.7,0,1,0c1.4-0.7,2.9-0.6,4.4-0.6c16.1,0,32.1,0,48.2,0c1.3,0,2.7-0.1,3.9,0.5
		c0.6,0.4,0.8,0.9,0.6,1.6c-2.4,2.1-5.3,1.6-8.1,1.6c-24.3,0.1-48.6,0-72.9,0c-1.8,0-3.6-0.4-5.7,0.5c4.3,4.5,9.6,4.4,14.7,3.9
		c15.3-1.6,30.6-0.7,45.9-0.8c10.7-0.1,21.3-0.3,32,0.2c1.5,0,3,0,4.4,0.2c0.9,0.1,1.8,0.4,2.5,1c0.4,0.6,0.4,1.1,0,1.7
		c-0.5,0.4-1.1,0.6-1.7,0.6c-25.3,0.2-50.7-0.1-76,0.1l-0.2,0.2c-0.9,0.7-1.9,0.7-2.8-0.1c-2.1-0.1-4.4-0.5-6.4-0.1
		c-8.6,1.6-14.3-3.6-20.5-8c-1.1-0.7-1.2-1.5-0.1-2.3C187.1,109.3,199.3,108.3,211.6,109.2z"/>
	<path class="st153" d="M269.5,109.3c-18.9-0.1-37.9-0.1-56.8-0.2c1.1-2.6,3.4-1.5,5.2-1.5c17.2-0.1,34.5-0.1,51.7-0.1
		c0.8-0.7,1,0,1.2,0.6C270.7,108.8,270.3,109.3,269.5,109.3z"/>
	<path class="st154" d="M170.7,77.6c0-0.3,0-0.7,0-1c0.3-1.3,0.3-2.7,0-4c-1,0-2,0-3,0c-1-1.2-0.5-2.2,0.3-3.2
		c0.6-0.8,1.3-1.6,2.2-2c1.4-0.7,2.1-1.4,0.6-2.7c5,0,9.5-2.4,14.3-3.3c1.3-0.2,2.5-1.1,3.6,0.2c-1.6,3.6-5.6,2.3-8.1,4.1l0,0
		c-6.7,1.9-8.6,6.2-7.3,12.9c0.4,2.2,0.5,4.9-0.7,7.2c-0.3,0.1-0.6,0.1-0.9,0.1C170.3,83.1,172,80.1,170.7,77.6z"/>
	<path class="st112" d="M195.7,79.4c-0.1-0.3-0.1-0.6,0-0.8c13.3,0,26.5-0.2,39.8,0.1c4.7,0.1,6.8-1.1,6.1-6c-0.2-1.4-0.5-3,1.1-4
		c2.4,3.6,0.2,7.1-0.4,10.6c-13.6,0.1-27.2,0.2-40.8,0.4C199.6,79.6,197.7,79.5,195.7,79.4z"/>
	<path class="st155" d="M270.5,108.4c-0.3-0.3-0.6-0.5-0.9-0.8c0-0.3,0-0.6-0.1-0.9c6.7-0.1,13.4-0.3,20.1-0.4
		c0.8,1.7,2.3,3.1,2,5.2c1,1.3,1.1,2.7,0.1,4c-0.6,2.2-1,4.4-4.1,4.1c-1.5,0.7-3.2,0.4-4.7,0.3c-0.5-0.4-0.6-0.8-0.3-1.4l0.1-0.1
		c2.3-1.8,7.1-1.4,5.5-6.5c-1.3-4.5-5-2.6-7.9-2.9c-2.6-0.2-5.2-0.1-7.9,0.1c-0.5,0-1,0-1.4-0.2
		C270.8,108.8,270.7,108.6,270.5,108.4z"/>
	<path class="st153" d="M211.6,109.2c-12.3,0.1-24.6,0.1-36.9,0.2c1.4-1.2,3.1-0.8,4.7-0.8c9.3,0.2,18.7-0.3,28-0.8
		C209,107.6,210.9,106.9,211.6,109.2z"/>
	<path class="st156" d="M172.6,85.5c0-3.9,0.7-8-0.2-11.7c-1.1-4.5,0.5-6.4,4.5-7.3c1.3-0.3,2.5-0.7,3.7-1.1c-0.4,1.2-1.3,2-2.4,2.3
		c-4.6,1.4-4.5,5-4.4,8.8c0.2,4.7,0.6,9.5-1.1,14C172.6,88.9,172.6,87.2,172.6,85.5z"/>
	<path class="st157" d="M201.8,119.7c0.9,0,1.9,0,2.8,0.1c0.1,0.9,0.2,1.8,0.2,2.7c-1.7,3.5-1,7.3-1.2,11c-0.1,2,0.3,4.1-2,5.1
		c0-6,0-12,0-18C201.7,120.3,201.7,120,201.8,119.7z"/>
	<path class="st158" d="M170.7,77.6c2,2.5,0.5,5.4,1,8.1c-0.2,2.4-0.9,4.6-3,6C169.7,87,171.3,82.5,170.7,77.6z"/>
	<path class="st59" d="M209.7,153.2c0.2-0.6,0.4-1.1,0.6-1.7c1.2,0,2.4,0,3.6,0.4c23.6,0.3,47.3,0.4,70.9-0.1
		c1.1-0.3,2.3-0.3,3.4-0.2c2.4,0.8,3.4,2.3,2.6,4.8c-2.9,2.4,0.5,4.5,0.3,6.8c0,5.9,0,11.9,0,17.8c0,1.6,0.4,3.4-1.4,4.4l-0.1,0.1
		c-1.4,1.1-2.9,1-4.5,0.7c-12.4-0.7-24.9-0.2-37.3-0.3c-10-0.1-19.9,0-29.9,0c-2.3,0-4.7,0.1-6.6-1.5c-2.1-1.9-2-4.4-2.1-6.9
		c-0.2-6.9,0.5-13.9-0.4-20.8C208.6,155.5,208.8,154.3,209.7,153.2z"/>
	<path class="st159" d="M212.7,152.7c-0.8-0.4-1.6-0.8-2.5-1.1c1.4-1.2,3.1-0.9,4.8-0.9c23.5,0,46.9,0,70.4,0c1.5,0,3-0.4,4.2,0.9
		c-0.2,0.4-0.5,0.7-0.9,0.9c-1,0.1-2.1,0.2-3.1,0.3c-4.6,0.8-9.3,0.3-13.9,0.3c-17.8,0.1-35.6,0-53.5,0
		C216.3,153,214.5,153.4,212.7,152.7z"/>
	<path class="st160" d="M295.6,154.6c0,27.6,0,55.1,0,82.7c-0.3,0-0.7,0-1,0c0-27.6,0-55.1,0-82.7
		C295,154.1,295.3,154.1,295.6,154.6z"/>
	<path class="st161" d="M289.7,186.2c-0.9,2.2-2.8,1.3-4.3,1.3c-23.9,0.1-47.8,0-71.7,0c-2,0-4.1,0.4-5.2-1.9
		c-0.3-1.3,0.5-1.4,1.4-1.4c0.9,0.2,1.6,0.7,2.5,1c12.1,0.7,24.3,0.1,36.4,0.3C262.5,185.8,276.1,184.9,289.7,186.2z"/>
	<path class="st162" d="M210.7,191.7c25.1,0,50.3-0.1,75.4-0.1c1.8,0,3.8-0.2,4.6,2c-0.5,0.5-1.1,0.7-1.7,0.9
		c-23.6-0.2-47.3,0-70.9-0.1c-2.3,0-4.7-0.1-6.9-1C210.6,192.9,210.5,192.4,210.7,191.7z"/>
	<path class="st163" d="M289.7,227.6c-0.7,0.4-1.4,0.7-2.1,1.1c-1.8,0.7-3.6,0.4-5.4,0.4c-21.4,0-42.7,0-64.1,0
		c-1.8,0-3.6,0.4-5.4-0.4c-1.1-0.2-2.3,0-3.1-1.1c2-2.1,4.7-1.4,7.1-1.4c22.8-0.1,45.5,0.1,68.3-0.1c0.6-0.1,1.2-0.2,1.8-0.2
		C288,225.9,289.1,226.4,289.7,227.6z"/>
	<path class="st164" d="M286.6,226.7c-1.7,1.5-3.8,0.9-5.7,0.9c-23.8,0.1-47.5,0-71.3,0c-0.4-0.6-0.8-1.1-1.2-1.7
		c-0.4-1.1,0.2-1.5,1.1-1.6c1.1,0.2,2.2,0.8,3.3,0.8c22.2,0.1,44.5,0,66.7,0.1C282,225.1,284.7,224.4,286.6,226.7z"/>
	<path class="st165" d="M289.7,186.2c-13.1,0.1-26.2,0.3-39.3,0.3c-11.6,0.1-23.2,0-34.8,0c-1.8,0-3.7,0.5-5.3-0.8
		c0.5-0.5,1.1-0.8,1.8-0.8c23.9,0.4,47.7,0,71.6,0.2c0.7,0,1.3,0.1,1.9,0.5c1.3,0,2.7,0,4,0C289.7,185.8,289.7,186,289.7,186.2z"/>
	<path class="st166" d="M212.7,228.6c25,0,49.9,0,74.9,0c-1.2,1.3-2.8,0.9-4.2,0.9c-22.1,0-44.3,0-66.4,0
		C215.5,229.5,213.9,229.9,212.7,228.6z"/>
	<path class="st167" d="M209.5,224.6c-0.3,0.4-0.7,0.8-1,1.3c-0.3-1.1-0.6-2.2-0.9-3.4c-0.6-9.3-0.7-18.6,0-27.9
		c0.8-1.3,1.5-2.6,3.2-2.9c0,0.4,0,0.8,0,1.2c0.3,0.5,0.5,1.1,0.4,1.8c-0.1,8,0,16-0.1,24C211,220.7,211.6,223,209.5,224.6z"/>
	<path class="st167" d="M209.4,184.6c-0.3,0.3-0.6,0.7-0.8,1c-0.3-0.4-0.7-0.8-1-1.2c-0.6-9.3-0.6-18.6,0-27.9
		c0.1-1.5,0.1-3.1,2.2-3.4c0,1.1,0,2.3,0.1,3.4c0.9,8.8,0,17.6,0.5,26.4C210.2,183.7,209.9,184.2,209.4,184.6z"/>
	<path class="st168" d="M289.7,227.6c-0.7-0.3-1.3-0.6-2-0.9c0.2-1,0.6-1.9,0.9-2.8c0.9-6.7,0.4-13.4,0.2-20
		c0.1-1.8,0.5-3.6-0.6-5.3c0.3-1.7,0.4-3.6,1.5-5.1c0.3,0,0.6,0,1,0c1.9,3.4,0.7,7.1,0.8,10.6c0.3,6.1,0.1,12.2,0.1,18.3
		C291.6,224.4,291.8,226.4,289.7,227.6z"/>
	<path class="st168" d="M288.7,152.4c0.3-0.3,0.6-0.6,0.9-0.9c1.8,0.8,2,2.5,2,4.2c0,8.8,0,17.7,0,26.5c0,1.4,0.4,3.2-1.9,3.3
		c1.8-7.9,0.3-15.8,0.9-23.7c-1.2-1.5-1.7-3.2-1-5.2C291.2,154.8,290.2,153.6,288.7,152.4z"/>
	<path class="st169" d="M207.6,194.6c0,9.3,0,18.6,0,27.9c-2-7.1-0.6-14.4-0.8-21.6C206.7,198.9,204.7,196.3,207.6,194.6z"/>
	<path class="st170" d="M207.5,156.6c0,9.3,0,18.6,0,27.9C206.1,175.2,206.1,165.9,207.5,156.6z"/>
	<path class="st160" d="M295.2,240.4c0.6,1.5,0.7,2.8-0.1,4.2C294.5,243.2,294.4,241.9,295.2,240.4z"/>
	<path class="st110" d="M295.6,154.6c-0.3,0-0.7,0-1,0c0-1.3,0-2.5,0-3.8c0.3,0,0.5,0,0.8-0.1C295.5,152,295.6,153.3,295.6,154.6z"
		/>
	<path class="st171" d="M200.6,139.4c0.1,0.9,0.2,1.7,1.1,2.2c0.3,0.2,0.5,0.5,0.4,0.7c-0.1,0.3-0.2,0.4-0.3,0.4c0,0,0-0.1,0-0.1
		c-0.3,0-0.7,0.1-1,0c-2-0.6-5.5,1.4-5.6-1.7C195.1,138.4,198.7,140,200.6,139.4z"/>
	<path class="st172" d="M157.4,117.7c0.5,21.8-1.4,43.4-5.2,64.8c-2.7,14.9-4.7,29.8-3.5,45c0.2,2.3,0.7,4.6,1.1,6.8
		c-1.9,1.2-4,1.2-6.1,1.2c-1.3,1.3-2.7,0.8-4,0c0,0,0-0.2,0-0.2c0-0.3,0-0.6-0.1-0.9c-2.2-1.7-2.1-4.4-2.3-6.6
		c-0.2-2.5-1.2-4.7-1.6-7c-0.3-6,0-12,0-18c0.8-3.3,0.4-6.6,0.5-9.9c0.1-1.9-0.3-4.1,1.6-5.5c0.4,0,1.2,1,1-0.5
		c-0.8-7.1-1.3-14.2,0.2-21.2c0.1-0.3-0.7-0.1-1.2-0.1c-2.2-3.7-1.3-8-2.2-12c1.7-8.2-1-16.2-0.8-24.3c-0.5-1.9,0.1-3.8,0.8-5.6
		c0.3-0.5,0.6-0.9,1-1.2c2.6-3.7,6.8-1.9,10.1-2.7C150.3,119.2,153.9,118.5,157.4,117.7z"/>
	<path class="st173" d="M139.7,235.6c1.3,0,2.7,0,4,0c1,3,2,6,3,9C140.5,244.6,140.2,240,139.7,235.6z"/>
	<path class="st174" d="M150.7,240.6c-1.2-0.3-2.7-0.3-2.6-2.3C149.9,238.1,150.4,239.3,150.7,240.6
		C150.7,240.6,150.7,240.6,150.7,240.6z"/>
	<path class="st175" d="M132.9,105.6c-0.2-6,1.9-12,0-18c0.5-0.4,1.1-0.4,1.7-0.1c2.6,6,2.6,11.9,0,17.9
		C134,105.7,133.5,105.8,132.9,105.6z"/>
	<path class="st176" d="M137.6,75.6c3.6-2.9,7.9-3.3,12.3-3c0.1,0.6-0.1,1-0.6,1.3c-3.2,0.9-6.2,2.5-9.7,2.5
		C138.9,76.5,138.2,76.3,137.6,75.6z"/>
	<path class="st177" d="M132.9,105.6c0.3,0,0.5,0,0.8,0c2.3,3.7,1.9,7.9,2.1,11.9c-2,0.9-3.9,1.8-6,0.2c2-0.2,4.2,0.4,3.1-3.4
		C132.1,111.7,132.8,108.5,132.9,105.6z"/>
	<path class="st178" d="M133.7,87.6c-0.3,0-0.5,0-0.8,0c-1.6-3.2-0.8-6.7-1.5-10c0.1-0.1,0.3-0.2,0.4-0.4c0.4,0,0.7,0.1,0.9,0.4
		c0,0.6,0.1,1.2,0.1,1.8C135.3,82,135.8,84.6,133.7,87.6z"/>
	<path class="st179" d="M153.6,65.5c2.1,2.2,0.6,4.5,0.1,6.8c-0.3,0.6-0.7,0.7-1.2,0.1C153.1,70.1,151.8,67.6,153.6,65.5z"/>
	<path class="st180" d="M137.6,75.6c0.7,0.1,1.5,0.1,2.2,0.2c-2.1,2.9-5.5,0.1-7.9,1.7c-0.2,0-0.4,0.1-0.5,0.1
		c-1.1-0.9-1.8-1.8,0.4-2C133.7,75.5,135.7,75.6,137.6,75.6z"/>
	<path class="st181" d="M152.6,72.4c0.4,0,0.8-0.1,1.2-0.1c0.3,0.1,0.6,0.2,0.9,0.3c0.2,0.2,0.3,0.4,0.2,0.6
		c-0.1,0.2-0.2,0.3-0.3,0.3c-1.6,0.3-3.3,0.6-4.9,0.9c-0.3-0.2-0.3-0.4-0.3-0.5c0.1-0.2,0.2-0.3,0.3-0.3c0.1-0.3,0.2-0.6,0.3-0.9
		C150.8,72.6,151.7,72.5,152.6,72.4z"/>
	<path class="st182" d="M133.7,87.6c-0.3-2.7-0.6-5.4-0.8-8.1c7.1-2,10.7,1,9.9,7.8c-1.1,9.7-2.1,19.5-0.1,29.2
		c-2.2,1-4.5,1.1-6.9,1c-3.1-3.6-1.9-7.9-2.1-11.9C135.2,99.6,135.5,93.6,133.7,87.6z"/>
	<path class="st183" d="M134.7,207.5c-0.7-15.4,1.4-30.6,1-46c0.6-0.3,1.1-0.1,1.4,0.5c3.3,13.4-0.2,26.6-0.6,39.9
		c-0.5,1.7-0.1,3.5-0.4,5.2C135.7,207.8,135.3,207.9,134.7,207.5z"/>
	<path class="st184" d="M136.6,122.6c0,0.4,0,0.7,0,1.1c-1.7,2.2-1.4,4.8-1.2,7.3c-0.4,4.2-0.8,8.5,0.4,12.7
		c0.2,2.5,0.7,5.1-0.6,7.5c-0.4,0.5-0.9,0.6-1.5,0.3c-0.7-6.5-2.5-12.9-2.1-19.6c0.2-3.2,1-6.1,1.8-9.2
		C134.4,119.4,135.5,121.7,136.6,122.6z"/>
	<path class="st185" d="M134.7,207.5c0.3,0,0.6,0,0.9,0c1.3,4.5,0.2,9.1,0.6,13.6c0.3,1.2,0.5,2.4-0.5,3.5c0,0.7,0,1.3,0,2
		c-2.1-4.9-1.1-10-1-15C134.6,210.2,134.6,208.9,134.7,207.5z"/>
	<path class="st186" d="M133.7,151.5c0.3,0,0.7,0,1,0c2.4,3,2.5,6.5,1.8,10c-0.3,0-0.6,0-0.9,0C134,158.4,134.7,154.8,133.7,151.5z"
		/>
	<path class="st187" d="M135.7,224.6c0-1,0.1-2,0.1-3c0.3-0.5,0.6-0.5,0.9,0c1.8,4.2,0.8,8.9,3,13c-3.1-0.7-2-3.6-2.8-5.5
		C136.2,227.7,137.1,225.8,135.7,224.6z"/>
	<path class="st188" d="M201.7,142.7c0-0.4-0.1-0.8-0.1-1.1c28.7,0,57.4,0,86.2,0c1.9,0,4-0.7,5.7,0.8c-28.6,0-57.2,0.1-85.8,0.1
		C205.7,142.6,203.7,142.6,201.7,142.7z"/>
	<path class="st188" d="M302.6,142.4c-2.6,0-5.3,0-7.9,0C297.3,140.1,299.9,141.7,302.6,142.4z"/>
	<path class="st189" d="M242.4,79.3c0.1-3.5,0.3-7.1,0.4-10.6c0.3,0,0.6-0.1,0.8-0.2c14.9,0.1,29.8,0.1,44.8,0.2
		c2.1,0,4.3-0.4,6.2,1c-1.6,1.4-3.5,0.8-5.3,0.8c-12.1,0-24.3,0-36.4,0c-7.6,0-7.6,0-9,8c-0.1,0.4-0.5,0.8-0.8,1.2
		C243.2,79.8,242.7,79.4,242.4,79.3z"/>
	<path class="st190" d="M289.6,85.7c-0.3,0-0.7,0-1,0c-4.5,0.7-9,0.3-13.4,0.3c-20,0.1-40,0-59.9,0c-1.8,0-3.7,0.3-5.5-0.3
		c-0.3,0-0.7,0-1-0.1c0.4-0.9,1.2-1.1,2-1.1c1.1-0.7,2.3-0.4,3.4-0.4c23.4,0,46.8,0,70.1,0c1.1,0,2.3-0.2,3.4,0.4
		C288.4,84.6,289.2,84.8,289.6,85.7z"/>
	<path class="st191" d="M287.6,84.5c-25.6,0-51.3,0-76.9,0c1.2-1.3,2.8-1,4.2-1c22.8,0,45.7,0,68.5,0
		C284.8,83.6,286.4,83.2,287.6,84.5z"/>
	<path class="st192" d="M291.7,115.6c0-1.3,0-2.7-0.1-4c3,0.4,4.1-0.9,4-4c-0.2-9.9-0.3-19.9-0.4-29.8c0-1.1-0.1-2.2,1.5-3.5
		c0,13.2,0,25.9,0,38.6C296.1,115.7,293.9,115.6,291.7,115.6z"/>
	<path class="st193" d="M282.6,119.4c1.7,0.1,3.3,0.2,5,0.3c-2.5,1.9-5.5,1.1-8.2,1.2c-23.5,0.1-47-0.1-70.5-0.2
		c-1.2,0-2.3,0.1-3.3-0.8c0.7-1,1.8-0.7,2.8-0.7c24.1,0,48.2,0,72.3,0C281.3,119.1,282,119.2,282.6,119.4z"/>
	<path class="st194" d="M282.6,119.4c-22.5,0.1-45.1,0.1-67.6,0.2c-3.1,0-6.3,0.1-9.4,0.2c-0.3-0.1-0.6-0.1-0.9-0.1
		c1.6-1.9,3.7-1,5.6-1c24.1-0.1,48.1,0,72.2,0C282.6,118.8,282.6,119.1,282.6,119.4z"/>
	<path class="st58" d="M324.6,178c-0.1,0.9,0.1,2.2-1.4,2.1c-0.9-0.1-1.4-0.9-1.2-1.8c0.2-1,1.1-1.6,2.1-1.6
		C325.3,176.6,324.2,177.6,324.6,178z"/>
	<path class="st195" d="M322.7,106.2c0-1.9,0-4,1.6-4.1c2.1-0.2,2.2,2.1,2.2,3.7c0,1.4-0.2,3.4-1.9,3.5
		C322.6,109.2,323,107.1,322.7,106.2z"/>
	<path class="st196" d="M307.5,87.6c0-1.7,0-3.4,0-5.1c0.5-1.4,0.9-3.4,2.6-3.2c1.8,0.2,2.1,2.3,2.4,3.9c0.3,2.1,0.2,4.3-0.6,6.3
		C308.3,93.6,308.4,89.4,307.5,87.6z"/>
	<path class="st197" d="M324.4,190.5c-2.8-0.2-1.6-2.5-2-3.9C327,185.8,323.9,189.1,324.4,190.5z"/>
	<path class="st198" d="M195.7,76.6c0-4.4-1.6-8.6-2.1-12.9c1.3-3.9,4.9-5.1,8-7c3-0.6,4.5-2.9,6.1-5.2c0.7-1.6,3.6-2.4,2.1-4.9
		c-0.1-0.4-0.2-0.7-0.3-1.1c-2-1.4-4,1.1-6,0c-1.6,0.4-3.3,0.8-4.9,1.2c-1.5-1.2-5,3.5-5.2-2c-0.2-7.1-0.3-7.2,5.1-7.2
		c11.8,0,23.7,0.2,35.5-0.1c3.9-0.1,4.8,1.2,4.7,4.8c-0.2,9.7-0.3,19.3,0,29c0.1,4.3-1.5,5.3-5.5,5.3
		C220.7,76.3,208.2,76.5,195.7,76.6z"/>
	<path class="st199" d="M261.6,29.9c0.2-1-0.5-2.7,1.1-2.8c1.8-0.2,1.8,1.6,1.8,2.8c0,1.1,0.2,2.7-1.2,2.8
		C261.3,32.9,261.8,31.1,261.6,29.9z"/>
	<path class="st200" d="M258.5,29.9c-0.1,1.1,0.2,2.6-1.4,2.6c-1.6-0.1-1.3-1.6-1.3-2.7c0-1-0.4-2.7,1.3-2.6
		C258.5,27.2,258.4,28.7,258.5,29.9z"/>
	<path class="st201" d="M275.7,33c-4.1-1.1-1.9-4-1.8-6.3c0.6,0,1.1,0,1.7,0.1C276,28.8,276,30.9,275.7,33z"/>
	<path class="st158" d="M170.7,64.6c4.4,3.8-1,3.5-2.1,5c-4.1,2.2-8.2,4.1-12.9,1.9c0-1.3,0-2.6,0-3.9C160.6,66,166,67,170.7,64.6z"
		/>
	<path class="st202" d="M201.6,56.7c-1.8,3.3-5.3,4.7-8,7c-1-0.4-0.9-1.3-1-2.1c-0.4-0.7-0.5-1.4,0.3-2
		C195.8,58.8,198,55.8,201.6,56.7z"/>
	<path class="st156" d="M192.8,59.6c-0.1,0.7-0.2,1.3-0.3,2c-3.5,2.7-7.6,3.8-12,3.9c2.7-1.4,5.4-2.7,8.1-4.1
		C190,60.8,191.4,60.2,192.8,59.6z"/>
	<path class="st203" d="M209.8,46.6c0.6,0.7,3.6-2.3,2.1,1.3c-0.7,1.6-1.8,3.6-4.2,3.6C207.5,49.5,207.3,47.5,209.8,46.6z"/>
	<path class="st204" d="M203.5,45.5c2-0.9,4-1.8,6,0C207.5,44.8,205.5,48.3,203.5,45.5z"/>
	<path class="st205" d="M155.7,71.5c4.3-0.6,8.6-1.3,12.9-1.9c-0.3,1-0.6,2-0.9,2.9c-0.1,0.3-0.1,0.6-0.1,0.9
		c-0.3,0.6-0.7,1.2-1.4,1.5c-0.5,0-0.9-0.1-1.3-0.4c-3.3-2.6-5,0.6-7.2,2c-1-1-2-2-3.1-3.1c0.1-0.3,0.1-0.6,0-0.9
		C155,72.2,155.3,71.9,155.7,71.5z"/>
	<path class="st206" d="M267.6,32.6c-0.9-0.7-1-1.7-1-2.7c0-1.5-0.2-3.3,2-3.2c2.8,0.2,1.9,2.7,1.9,4.3
		C270.6,33,269.9,34.4,267.6,32.6c0.2-0.2,0.4-0.4,0.6-0.7C268.1,32.1,267.9,32.4,267.6,32.6z"/>
	<path class="st207" d="M209.7,85.7c26.3,0,52.5,0,78.8,0c-1.2,1.2-2.8,0.8-4.3,0.8c-23.4,0-46.9,0-70.3,0
		C212.5,86.6,211,86.9,209.7,85.7z"/>
	<path class="st208" d="M157.7,76.5c0.1-3,2.2-4.2,4.8-4.7c2.1-0.4,3,0.8,3.2,2.7c0,2.9-2.8,4-3.9,6.1c-2.9,1.1-2.7-2.1-4.1-3
		C157.6,77.3,157.6,76.9,157.7,76.5z"/>
	<path class="st209" d="M149.7,73.6c0,0.3,0,0.5,0,0.8c-5.2,3.2-11,3.7-16.9,3.3c-0.3-0.1-0.6-0.2-0.8-0.2c2.3-2,5.5,0.2,7.9-1.7
		C143.1,75.1,146.4,74.3,149.7,73.6z"/>
	<path class="st210" d="M155.7,82.6c-0.4,2.6-0.8,5.3-1.1,7.9c-1.5-3.1-1.6-6.1,0.4-9c0,0,0.3,0.1,0.4,0.2
		C155.6,82,155.6,82.3,155.7,82.6z"/>
	<path class="st205" d="M161.7,80.7c0.4-2.6,1.9-4.5,3.9-6.1c0,0,0.1,0.1,0.1,0.1c0.7,2.3-0.6,3.6-2.2,4.9
		C162.9,79.9,162.3,80.3,161.7,80.7z"/>
	<path class="st158" d="M163.6,79.5c0.7-1.6,1.5-3.3,2.2-4.9c0.6-0.4,1.2-0.8,1.8-1.2C166.9,75.9,166.8,78.7,163.6,79.5z"/>
	<path class="st158" d="M170.6,72.6c1.4,1.3,1.4,2.7,0,4C169.8,75.3,169.7,73.9,170.6,72.6z"/>
	<path class="st211" d="M276.6,117.6c-22.1,0-44.3,0.1-66.4,0c-6,0-11.8,1.3-17.9,1.1c-6.1-0.2-10-3.5-13.8-8.1
		c30.4,0,60.7,0,91.1,0c1.7,1,3.5,1.8,5.1,2.8C276.3,114.2,278,115.3,276.6,117.6z"/>
	<path class="st212" d="M271.6,108.6c5.1-2.1,10.5-1.2,15.6-0.7c4,0.4,2.1,4.6,2.7,7.1c0.4,1.8-1.1,3.4-3.3,3.5c-1.3,0-2.7,0-4,0
		c0-0.3,0-0.6,0-0.9c-2.6-2-5.8-3.1-8.2-5.3C273.2,111.2,271.3,110.8,271.6,108.6z"/>
	<path class="st213" d="M276.6,117.6c-0.1-2.5-2.1-3.2-3.9-3.8c-1.7-0.5-3-1.2-3.1-3.2c0-0.4-0.1-0.8-0.1-1.2c0.3-0.3,0.6-0.6,1-1
		c0,0,0.2,0.3,0.2,0.3c2.7,2.5,5.9,4.4,8.9,6.6c0.8,0.6,1.6,1.1,1.1,2.3C279.3,117.5,278,117.5,276.6,117.6z"/>
	<path class="st214" d="M280.6,117.5c-2.6-3.7-7.7-4.7-10-8.9c0.3-0.1,0.6-0.1,1-0.1c3,2.1,5.7,4.8,9.3,6.2c1.2,0.5,1.7,1.5,1.7,2.8
		C281.9,117.6,281.3,117.6,280.6,117.5z"/>
	<path class="st215" d="M209.4,184.6c0.1-0.4,0.2-0.7,0.3-1.1c0.6-0.6,1.3-0.6,1.9,0c2,1.2,4.2,1,6.3,1c20.7,0,41.3,0,62,0
		c1.9,0,4-0.7,5.7,1c-25.1,0.1-50.2,0.1-75.3,0.2C210,185.4,209.7,185,209.4,184.6z"/>
	<path class="st216" d="M212.7,152.7c24.3,0,48.6,0,72.8,0c-1.2,1.2-2.8,0.9-4.3,0.9c-21.4,0-42.9,0-64.3,0
		C215.5,153.5,213.9,153.9,212.7,152.7z"/>
	<path class="st217" d="M211.6,183.6c-0.6,0-1.3,0-1.9,0c0-9,0-17.9,0.1-26.9c1.9,6.5,0.4,13.1,0.9,19.6
		C210.8,178.7,210.2,181.3,211.6,183.6z"/>
	<path class="st218" d="M289.6,156.6c1.1,1.6,1.1,3.4,1,5.2C287.1,160.7,286.9,158.9,289.6,156.6z"/>
	<path class="st59" d="M289.8,193.5c1.2,2.1,0.6,3.7-1.3,5c1.5,1.1,0.7,2.7,1.1,4.1c1.5,7.6,1.5,15.3,0,22.9
		c-1.7,0.9-3.6,0.5-5.4,0.5c-24.2,0-48.4,0-72.5,0c-0.7-0.1-1.4-0.4-1.4-1.1c0-10.5-0.7-20.9,0.4-31.4c0.1-0.2,0.1-0.5,0-0.7
		c25.1-0.1,50.2-0.2,75.3-0.2C287.3,192.6,288.5,193.2,289.8,193.5z"/>
	<path class="st219" d="M210.6,225.6c26.3,0,52.6,0,79,0c-0.3,1-1.1,1-1.9,1.2c-0.4,0-0.7,0-1.1-0.1c-23.3,0-46.7-0.1-70-0.1
		c-2,0-4-0.2-6-0.3C210.7,226,210.7,225.8,210.6,225.6z"/>
	<path class="st220" d="M210.6,225.6c0,0.2,0,0.4,0,0.7c-0.4-0.6-0.8-1.1-1.2-1.7c0.1-8.6,0.1-17.3,0.2-25.9c0-1.7-0.8-3.7,1-5.1
		c0.6,0.1,1.2,0.2,1.8,0.4c-3.9,5.4-1.2,11.6-1.8,17.4C210.3,216,210.6,220.8,210.6,225.6z"/>
	<path class="st221" d="M289.6,202.6c-2.5-0.8-1.1-2.6-1.1-4.1C291.4,199.2,291,200.8,289.6,202.6z"/>
	<path class="st222" d="M136.5,161.6c-0.7-3.3-0.3-6.8-1.8-10c0-2.6-0.1-5.3-0.1-7.9c-0.2-1.9-1.7-4,1.1-5.2c0.9,5,1.9,9.9,1.1,15
		c1.6,3.9-0.1,8.3,1.8,12.1c0.8,7.3,0.9,14.6,0,21.9c-1.7,3-0.5,6.3-0.9,9.5c-0.2,1.9,0.5,3.9-0.9,5.6c-0.3,0.5-0.6,0.5-0.9,0
		c0.6-8.4,1.4-16.8,1.6-25.2C137.5,172.1,136.8,166.9,136.5,161.6z"/>
	<path class="st223" d="M136.8,153.5c-0.4-4.9-0.8-9.9-1.2-14.8c-1.4-1.8-0.8-3.9-0.9-5.9c0.3-1.4,0.1-2.9,1.1-4.1
		C136.4,136.9,139,145.1,136.8,153.5z"/>
	<path class="st224" d="M138.6,187.5c0-7.3,0-14.6,0-21.9c0-0.2,0-0.4,0.1-0.5c0.2-0.2,0.4-0.2,0.7-0.4c0.4,7.9,0.5,15.8-0.1,23.6
		c0,0-0.3,0-0.4,0C138.8,188.1,138.7,187.8,138.6,187.5z"/>
	<path class="st225" d="M135.8,202.6c0.3,0,0.6,0,0.9,0c0,6.3,0,12.6,0,19c0,0-0.5,0-0.5,0s-0.5,0-0.5,0c-0.1-4.7-0.1-9.3-0.2-14
		C135.6,205.9,135.7,204.2,135.8,202.6z"/>
	<path class="st226" d="M135.8,128.6c-0.1,1.3-0.2,2.6-0.2,3.9c-1.8,0.1-1.5-0.9-1-2c0.4-2.3-1-5.2,2-6.8
		C136.3,125.3,136.1,127,135.8,128.6z"/>
	<path class="st227" d="M134.6,130.5c0.3,0.7,0.6,1.3,1,2c0,2,0,4.1,0,6.1c-1.5,1.4-0.7,3.3-1,5C133.1,139.3,133,134.9,134.6,130.5z
		"/>
	<path class="st228" d="M267.6,32.6c0.1-1.5-0.4-3.1,1.1-4.3C269.4,29.9,270.9,31.7,267.6,32.6C267.6,32.6,267.6,32.6,267.6,32.6z"
		/>
</g>
</svg>
