<?xml version="1.0" encoding="utf-8"?>
<!-- Generator: Adobe Illustrator 24.0.1, SVG Export Plug-In . SVG Version: 6.00 Build 0)  -->
<svg version="1.1" id="Layer_1" xmlns="http://www.w3.org/2000/svg" xmlns:xlink="http://www.w3.org/1999/xlink" x="0px" y="0px"
	 viewBox="0 0 500 300" style="enable-background:new 0 0 500 300;" xml:space="preserve">
<style type="text/css">
	.st0{fill:#76CED9;}
	.st1{enable-background:new    ;}
	.st2{fill:#282B2E;}
	.st3{fill:#333539;}
	.st4{fill:#272829;}
	.st5{fill:#CDCFE1;}
	.st6{clip-path:url(#SVGID_4_);enable-background:new    ;}
	.st7{clip-path:url(#SVGID_6_);enable-background:new    ;}
	.st8{fill:#F1F1F8;}
	.st9{fill:#1B1C1E;}
	.st10{fill:#E4E4ED;}
	.st11{fill:#616C81;}
	.st12{fill:#FCB415;}
	.st13{fill:#1C1C1C;}
	.st14{fill:#A8ABC5;}
	.st15{fill:#05627E;}
	.st16{fill:#034254;}
	.st17{fill:#2A7990;}
	.st18{fill:#1E6E84;}
	.st19{fill:#B8BAD2;}
	.st20{fill:#FFFFFF;}
	.st21{fill:#E9ECF1;}
	.st22{fill:#4FC3C6;}
	.st23{fill:#B4B4B4;}
	.st24{opacity:0.5;}
	.st25{fill:#0B1E31;}
	.st26{clip-path:url(#SVGID_8_);enable-background:new    ;}
	.st27{fill:#212426;}
	.st28{fill:#2B2C2F;}
	.st29{clip-path:url(#SVGID_10_);enable-background:new    ;}
	.st30{fill:#1B1C1F;}
	.st31{clip-path:url(#SVGID_12_);enable-background:new    ;}
	.st32{fill:#A82E2D;}
	.st33{fill:#D03A38;}
	.st34{clip-path:url(#SVGID_16_);enable-background:new    ;}
	.st35{fill:#F04847;}
	.st36{fill:#FAA21B;}
	.st37{clip-path:url(#SVGID_20_);enable-background:new    ;}
	.st38{clip-path:url(#SVGID_24_);enable-background:new    ;}
	.st39{fill:#FFC709;}
	.st40{clip-path:url(#SVGID_26_);enable-background:new    ;}
	.st41{clip-path:url(#SVGID_28_);enable-background:new    ;}
	.st42{clip-path:url(#SVGID_30_);enable-background:new    ;}
	.st43{clip-path:url(#SVGID_32_);enable-background:new    ;}
	.st44{fill:#FFCB05;}
	.st45{fill:#2D3641;}
	.st46{fill:#FCAF17;}
	.st47{fill:#65371D;}
	.st48{fill:#3279A9;}
	.st49{fill:#171E24;}
	.st50{fill:#DF9026;}
	.st51{fill:#FDC60D;}
	.st52{fill:#4DA3DA;}
	.st53{fill:#794120;}
	.st54{fill:#826F5E;}
	.st55{fill:#181818;}
	.st56{fill:#A4B1B6;}
	.st57{fill:#E5CBBD;}
	.st58{fill:#2B2C43;}
	.st59{fill:#E8EAEC;}
	.st60{fill:#8DA2AF;}
	.st61{fill:#ECA600;}
	.st62{fill:#FA7B4E;}
	.st63{fill:#FB4D90;}
	.st64{fill:#00BBED;}
	.st65{fill:#A0B2BE;}
	.st66{fill:#FF7F72;}
	.st67{fill:#FF9A8C;}
	.st68{fill:#DD572D;}
	.st69{fill:#2D667E;}
	.st70{fill:#F9E8AF;}
	.st71{fill:#E8CD70;}
</style>
<ellipse class="st0" cx="536.3" cy="520" rx="221" ry="39.2"/>
<g>
	<g>
		<g>
			<g class="st1">
				<g>
					<polygon class="st2" points="860.7,274.1 903.8,249 903.7,267.9 860.7,292.9 					"/>
				</g>
				<g>
					<polygon class="st3" points="749.5,209.9 792.6,184.8 903.8,249 860.7,274.1 					"/>
				</g>
				<g>
					<polygon class="st4" points="860.7,274.1 860.7,292.9 749.5,228.7 749.5,209.9 					"/>
				</g>
			</g>
		</g>
		<g>
			<g class="st1">
				<g class="st1">
					<g>
						<path id="SVGID_1_" class="st5" d="M827,192.8l21.1-12.2c4.6-2.7,11.1-2.3,18.2,1.8l-21.1,12.2
							C838.1,190.5,831.6,190.1,827,192.8z"/>
					</g>
					<g>
						<defs>
							<path id="SVGID_2_" d="M827,192.8l21.1-12.2c4.6-2.7,11.1-2.3,18.2,1.8l-21.1,12.2C838.1,190.5,831.6,190.1,827,192.8z"/>
						</defs>
						<clipPath id="SVGID_4_">
							<use xlink:href="#SVGID_2_"  style="overflow:visible;"/>
						</clipPath>
						<g class="st6">
							<path class="st5" d="M827,192.8l21.1-12.2c3.7-2.1,8.5-2.3,13.8-0.3l-21.1,12.2C835.5,190.4,830.7,190.6,827,192.8L827,192.8
								z"/>
							<path class="st5" d="M840.8,192.5l21.1-12.2c1.4,0.5,2.9,1.2,4.3,2.1l-21.1,12.2C843.7,193.7,842.2,193,840.8,192.5
								L840.8,192.5z"/>
						</g>
					</g>
				</g>
				<g class="st1">
					<g>
						<path id="SVGID_3_" class="st5" d="M884.2,242.8l-21,12.2c4.6-2.7,7.4-8.3,7.4-16.4c0-16.2-11.3-35.9-25.5-44.1l21.1-12.2
							c14.1,8.1,25.5,27.9,25.5,44.1C891.6,234.5,888.8,240.1,884.2,242.8z"/>
					</g>
					<g>
						<defs>
							<path id="SVGID_5_" d="M884.2,242.8l-21,12.2c4.6-2.7,7.4-8.3,7.4-16.4c0-16.2-11.3-35.9-25.5-44.1l21.1-12.2
								c14.1,8.1,25.5,27.9,25.5,44.1C891.6,234.5,888.8,240.1,884.2,242.8z"/>
						</defs>
						<clipPath id="SVGID_6_">
							<use xlink:href="#SVGID_5_"  style="overflow:visible;"/>
						</clipPath>
						<g class="st7">
							<path class="st5" d="M845.2,194.6l21.1-12.2c1.6,0.9,3.1,1.9,4.5,3.1l-21.1,12.2C848.2,196.5,846.7,195.4,845.2,194.6
								L845.2,194.6z"/>
							<path class="st8" d="M849.7,197.6l21.1-12.2c10.4,8.1,18.5,22.2,20.5,35.2l-21.1,12.2C868.2,219.8,860.1,205.8,849.7,197.6
								L849.7,197.6z"/>
							<path class="st5" d="M870.2,232.8l21.1-12.2c0.3,2,0.4,3.9,0.4,5.8c0,1.6-0.1,3.1-0.3,4.5l-21.1,12.2
								c0.2-1.4,0.3-2.9,0.3-4.5C870.6,236.7,870.5,234.8,870.2,232.8L870.2,232.8z"/>
							<path class="st5" d="M870.3,243.1l21.1-12.2c-0.9,5.7-3.4,9.8-7.1,11.9L863.2,255C866.8,252.9,869.4,248.8,870.3,243.1
								L870.3,243.1z"/>
						</g>
					</g>
				</g>
				<g>
					<path class="st5" d="M845.2,194.6c14.1,8.1,25.5,27.9,25.5,44.1s-11.5,22.7-25.6,14.6s-25.5-27.9-25.5-44.1
						C819.6,192.9,831.1,186.4,845.2,194.6z"/>
				</g>
			</g>
		</g>
		<g>
			<g class="st1">
				<g>
					<polygon class="st2" points="825.7,363.2 883.1,329.8 883.1,335.5 825.7,368.9 					"/>
				</g>
				<g>
					<polygon class="st3" points="704.7,293.4 762.1,260 883.1,329.8 825.7,363.2 					"/>
				</g>
				<g>
					<polygon class="st9" points="825.7,363.2 825.7,368.9 704.7,299.1 704.7,293.4 					"/>
				</g>
			</g>
		</g>
		<g>
			<g class="st1">
				<g>
					<polygon class="st10" points="828.1,264.7 871.2,239.7 870.9,330 827.8,355 					"/>
				</g>
				<g>
					<polygon class="st8" points="716.9,200.5 760,175.5 871.2,239.7 828.1,264.7 					"/>
				</g>
				<g>
					<polygon class="st5" points="828.1,264.7 827.8,355 716.7,290.8 716.9,200.5 					"/>
				</g>
			</g>
		</g>
		<g>
			<g>
				<g>
					<path class="st11" d="M822.9,343.4l-31.4-18.1l0.2-31l31.2,18V343.4z M792.4,324.7l29.6,17.1v-29l-29.3-16.9L792.4,324.7z"/>
				</g>
			</g>
		</g>
		<g>
			<g>
				<polygon class="st12" points="812.2,327.1 807.2,314.1 802.1,321.3 				"/>
			</g>
			<g>
				<path class="st13" d="M807.2,315.3l4.2,10.7l-8.3-4.8L807.2,315.3z M807.2,316.1l-3.6,5.1l7.1,4.1L807.2,316.1z"/>
			</g>
			<g>
				<path class="st13" d="M807.7,318.4l-0.1,3.3l-0.8-0.5l-0.1-3.4L807.7,318.4z M807.5,321.8c0.1,0,0.1,0.1,0.1,0.2v0.7
					c0,0.1-0.1,0.1-0.1,0.1l-0.6-0.4c-0.1,0-0.1-0.1-0.1-0.2v-0.7c0-0.1,0-0.1,0.1-0.1L807.5,321.8L807.5,321.8z"/>
			</g>
		</g>
		<g>
			<g>
				<g>
					<path class="st11" d="M752.1,303.4l-31.4-18.1l0.2-31l31.2,18V303.4z M721.6,284.7l29.6,17.1v-29l-29.3-16.9L721.6,284.7z"/>
				</g>
			</g>
		</g>
		<g>
			<g class="st1">
				<g>
					<polygon class="st10" points="857,176.1 871.3,167.7 871.1,239.7 856.8,248 					"/>
				</g>
				<g>
					<polygon class="st8" points="745.8,111.9 760.1,103.5 871.3,167.7 857,176.1 					"/>
				</g>
				<g>
					<polygon class="st5" points="857,176.1 856.8,248 745.6,183.8 745.8,111.9 					"/>
				</g>
				<g>
					<polygon class="st14" points="833.6,168.6 766,129.5 766,159.5 833.6,198.5 					"/>
				</g>
			</g>
		</g>
		<g>
			<polygon class="st10" points="757.6,161 757.6,190.3 782.9,175.7 			"/>
			<polygon class="st14" points="782.9,175.7 757.6,190.3 757.6,191.8 845.6,242.6 845.6,211.8 			"/>
		</g>
		<g>
			<g class="st1">
				<g>
					<polygon class="st10" points="842.2,209.9 844.9,208.3 844.7,218.6 842.1,220.1 					"/>
				</g>
				<g>
					<polygon class="st11" points="845.5,215.8 845.3,230.4 763.5,178.8 763.6,168.6 					"/>
				</g>
				<g>
					<polygon class="st2" points="842.2,209.9 842.1,220.1 760.2,172.9 760.4,162.6 					"/>
				</g>
			</g>
		</g>
		<g>
			<g>
				<g class="st1">
					<g>
						<polygon class="st15" points="706.7,233.6 706.6,240.8 696.3,246.8 696.3,239.6 						"/>
					</g>
					<g>
						<polygon class="st16" points="696.3,239.6 696.3,246.8 663.5,227.8 663.5,220.7 						"/>
					</g>
					<g>
						<polygon class="st16" points="777.4,274.5 777.4,281.6 706.6,240.8 706.7,233.6 						"/>
					</g>
					<g>
						<polygon class="st16" points="799.9,299.4 799.9,306.6 767.1,287.6 767.1,280.5 						"/>
					</g>
					<g>
						<polygon class="st15" points="872.7,257.1 872.6,264.3 799.9,306.6 799.9,299.4 						"/>
					</g>
					<g>
						<polygon class="st17" points="872.7,257.1 799.9,299.4 767.1,280.5 777.4,274.5 706.7,233.6 696.3,239.6 663.5,220.7 
							736.3,178.4 						"/>
					</g>
				</g>
			</g>
			<g>
				<g>
					<path class="st18" d="M863.8,256.4c0.9-0.5,2.4-0.5,3.3,0c0.9,0.5,0.9,1.4,0,1.9s-2.4,0.5-3.3,0S862.9,256.9,863.8,256.4z"/>
					<ellipse class="st18" cx="844.4" cy="245.2" rx="2.4" ry="1.4"/>
					<ellipse class="st18" cx="823.4" cy="233" rx="2.4" ry="1.4"/>
					<path class="st18" d="M800.7,219.9c0.9-0.5,2.4-0.5,3.3,0c0.9,0.5,0.9,1.4,0,1.9s-2.4,0.5-3.3,0
						C799.7,221.3,799.7,220.5,800.7,219.9z"/>
					<path class="st18" d="M779.6,207.8c0.9-0.5,2.4-0.5,3.3,0c0.9,0.5,0.9,1.4,0,1.9s-2.4,0.5-3.3,0S778.7,208.3,779.6,207.8z"/>
					<path class="st18" d="M758.5,195.6c0.9-0.5,2.4-0.5,3.3,0c0.9,0.5,0.9,1.4,0,1.9s-2.4,0.5-3.3,0
						C757.6,197,757.6,196.1,758.5,195.6z"/>
					<path class="st18" d="M737.5,183.4c0.9-0.5,2.4-0.5,3.3,0c0.9,0.5,0.9,1.4,0,1.9s-2.4,0.5-3.3,0
						C736.6,184.8,736.6,184,737.5,183.4z"/>
				</g>
				<g>
					<path class="st18" d="M845,257c0.9-0.5,2.4-0.5,3.3,0c0.9,0.5,0.9,1.4,0,1.9s-2.4,0.5-3.3,0C844.1,258.4,844.1,257.6,845,257z"
						/>
					<path class="st18" d="M824,244.9c0.9-0.5,2.4-0.5,3.3,0c0.9,0.5,0.9,1.4,0,1.9s-2.4,0.5-3.3,0
						C823.1,246.3,823.1,245.4,824,244.9z"/>
					<path class="st18" d="M802.9,232.7c0.9-0.5,2.4-0.5,3.3,0s0.9,1.4,0,1.9s-2.4,0.5-3.3,0C802,234.1,802,233.2,802.9,232.7z"/>
					<path class="st18" d="M781.8,220.5c0.9-0.5,2.4-0.5,3.3,0c0.9,0.5,0.9,1.4,0,1.9s-2.4,0.5-3.3,0S780.9,221.1,781.8,220.5z"/>
					<path class="st18" d="M760.8,208.4c0.9-0.5,2.4-0.5,3.3,0c0.9,0.5,0.9,1.4,0,1.9s-2.4,0.5-3.3,0
						C759.9,209.8,759.9,208.9,760.8,208.4z"/>
					<path class="st18" d="M739.7,196.2c0.9-0.5,2.4-0.5,3.3,0c0.9,0.5,0.9,1.4,0,1.9s-2.4,0.5-3.3,0
						C738.8,197.6,738.8,196.8,739.7,196.2z"/>
				</g>
				<g>
					<path class="st18" d="M842.2,268.9c0.9-0.5,2.4-0.5,3.3,0c0.9,0.5,0.9,1.4,0,1.9s-2.4,0.5-3.3,0S841.3,269.4,842.2,268.9z"/>
					<path class="st18" d="M821.2,256.7c0.9-0.5,2.4-0.5,3.3,0c0.9,0.5,0.9,1.4,0,1.9s-2.4,0.5-3.3,0
						C820.2,258.1,820.2,257.3,821.2,256.7z"/>
					<path class="st18" d="M800.1,244.6c0.9-0.5,2.4-0.5,3.3,0c0.9,0.5,0.9,1.4,0,1.9s-2.4,0.5-3.3,0S799.2,245.1,800.1,244.6z"/>
					<path class="st18" d="M779,232.4c0.9-0.5,2.4-0.5,3.3,0c0.9,0.5,0.9,1.4,0,1.9s-2.4,0.5-3.3,0
						C778.1,233.8,778.1,232.9,779,232.4z"/>
					<path class="st18" d="M758,220.2c0.9-0.5,2.4-0.5,3.3,0c0.9,0.5,0.9,1.4,0,1.9s-2.4,0.5-3.3,0
						C757.1,221.6,757.1,220.8,758,220.2z"/>
					<path class="st18" d="M736.9,208.1c0.9-0.5,2.4-0.5,3.3,0c0.9,0.5,0.9,1.4,0,1.9s-2.4,0.5-3.3,0
						C736,209.5,736,208.6,736.9,208.1z"/>
					<path class="st18" d="M715.9,195.9c0.9-0.5,2.4-0.5,3.3,0c0.9,0.5,0.9,1.4,0,1.9s-2.4,0.5-3.3,0S714.9,196.5,715.9,195.9z"/>
				</g>
				<g>
					<ellipse class="st18" cx="825.7" cy="270.1" rx="2.4" ry="1.4"/>
					<ellipse class="st18" cx="804.6" cy="258" rx="2.4" ry="1.4"/>
					<ellipse class="st18" cx="783.6" cy="245.8" rx="2.4" ry="1.4"/>
					<ellipse class="st18" cx="762.5" cy="233.6" rx="2.4" ry="1.4"/>
					<ellipse class="st18" cx="741.4" cy="221.5" rx="2.4" ry="1.4"/>
					<path class="st18" d="M718.7,208.4c0.9-0.5,2.4-0.5,3.3,0c0.9,0.5,0.9,1.4,0,1.9s-2.4,0.5-3.3,0
						C717.8,209.8,717.8,208.9,718.7,208.4z"/>
				</g>
				<g>
					<path class="st18" d="M821.2,281c0.9-0.5,2.4-0.5,3.3,0c0.9,0.5,0.9,1.4,0,1.9s-2.4,0.5-3.3,0
						C820.3,282.4,820.3,281.6,821.2,281z"/>
					<path class="st18" d="M800.1,268.9c0.9-0.5,2.4-0.5,3.3,0c0.9,0.5,0.9,1.4,0,1.9s-2.4,0.5-3.3,0S799.2,269.4,800.1,268.9z"/>
					<path class="st18" d="M779.1,256.7c0.9-0.5,2.4-0.5,3.3,0c0.9,0.5,0.9,1.4,0,1.9s-2.4,0.5-3.3,0S778.2,257.2,779.1,256.7z"/>
					<path class="st18" d="M758,244.5c0.9-0.5,2.4-0.5,3.3,0s0.9,1.4,0,1.9s-2.4,0.5-3.3,0C757.1,245.9,757.1,245.1,758,244.5z"/>
					<path class="st18" d="M737,232.4c0.9-0.5,2.4-0.5,3.3,0c0.9,0.5,0.9,1.4,0,1.9s-2.4,0.5-3.3,0C736,233.8,736,232.9,737,232.4z"
						/>
					<path class="st18" d="M715.9,220.2c0.9-0.5,2.4-0.5,3.3,0c0.9,0.5,0.9,1.4,0,1.9s-2.4,0.5-3.3,0
						C715,221.6,715,220.8,715.9,220.2z"/>
					<ellipse class="st18" cx="696.5" cy="209" rx="2.4" ry="1.4"/>
				</g>
				<g>
					<ellipse class="st18" cx="804.1" cy="282.6" rx="2.4" ry="1.4"/>
					<path class="st18" d="M781.3,269.5c0.9-0.5,2.4-0.5,3.3,0c0.9,0.5,0.9,1.4,0,1.9s-2.4,0.5-3.3,0S780.4,270,781.3,269.5z"/>
					<ellipse class="st18" cx="761.9" cy="258.3" rx="2.4" ry="1.4"/>
					<path class="st18" d="M739.2,245.2c0.9-0.5,2.4-0.5,3.3,0c0.9,0.5,0.9,1.4,0,1.9s-2.4,0.5-3.3,0
						C738.3,246.6,738.3,245.7,739.2,245.2z"/>
					<path class="st18" d="M718.2,233c0.9-0.5,2.4-0.5,3.3,0s0.9,1.4,0,1.9s-2.4,0.5-3.3,0C717.2,234.4,717.2,233.5,718.2,233z"/>
					<path class="st18" d="M697.1,220.8c0.9-0.5,2.4-0.5,3.3,0c0.9,0.5,0.9,1.4,0,1.9s-2.4,0.5-3.3,0S696.2,221.4,697.1,220.8z"/>
				</g>
				<g>
					<path class="st18" d="M799.6,293.5c0.9-0.5,2.4-0.5,3.3,0c0.9,0.5,0.9,1.4,0,1.9s-2.4,0.5-3.3,0S798.7,294,799.6,293.5z"/>
					<path class="st18" d="M778.5,281.3c0.9-0.5,2.4-0.5,3.3,0c0.9,0.5,0.9,1.4,0,1.9s-2.4,0.5-3.3,0
						C777.6,282.7,777.6,281.9,778.5,281.3z"/>
					<path class="st18" d="M694.3,232.7c0.9-0.5,2.4-0.5,3.3,0c0.9,0.5,0.9,1.4,0,1.9s-2.4,0.5-3.3,0
						C693.4,234.1,693.4,233.2,694.3,232.7z"/>
					<path class="st18" d="M673.2,220.5c0.9-0.5,2.4-0.5,3.3,0c0.9,0.5,0.9,1.4,0,1.9s-2.4,0.5-3.3,0
						C672.3,221.9,672.3,221.1,673.2,220.5z"/>
				</g>
			</g>
		</g>
		<g>
			<g>
				<g>
					<polygon class="st8" points="713.7,215.4 713.7,217 792.8,262.7 792.8,224.9 					"/>
					<polygon class="st19" points="792.8,224.9 792.8,262.7 844.8,232.7 844.8,231.1 					"/>
				</g>
				<polygon class="st20" points="844.8,231.1 792.8,261.1 713.7,215.4 765.6,185.4 				"/>
			</g>
		</g>
		<g>
			<g class="st1">
				<g>
					<polygon class="st8" points="848.1,194.3 843.1,191.4 850,187.4 855,190.3 					"/>
				</g>
				<g>
					<polygon class="st19" points="822.7,238.3 817.7,235.3 843.1,191.4 848.1,194.3 					"/>
				</g>
				<g>
					<polygon class="st14" points="822.8,242.8 817.7,239.9 817.7,235.3 822.7,238.3 					"/>
				</g>
				<g>
					<polygon class="st10" points="855,190.3 855,224.2 822.8,242.8 822.7,238.3 848.1,194.3 					"/>
				</g>
			</g>
		</g>
		<g>
			<polygon class="st21" points="797.9,175.4 768,157.8 768,133.6 797.9,151.2 			"/>
			<polygon class="st22" points="796.3,152.1 796.3,172.8 769.6,156.9 769.6,136.2 770.1,136.5 			"/>
			<polygon class="st23" points="796.3,172.3 796.3,172.8 769.6,156.9 769.6,136.2 770.1,136.5 770.1,156.6 			"/>
		</g>
		<g>
			<g class="st1">
				<g>
					<polygon class="st8" points="746.9,135.4 741.9,132.5 748.7,128.5 753.8,131.5 					"/>
				</g>
				<g>
					<polygon class="st19" points="721.5,179.4 716.5,176.5 741.9,132.5 746.9,135.4 					"/>
				</g>
				<g>
					<polygon class="st14" points="721.5,184 716.5,181.1 716.5,176.5 721.5,179.4 					"/>
				</g>
				<g>
					<polygon class="st4" points="753.8,131.5 753.8,165.3 721.5,184 721.5,179.4 746.9,135.4 					"/>
				</g>
			</g>
		</g>
		<g>
			<polygon class="st21" points="814.6,184.8 799.7,176.2 799.7,152.9 814.6,161.5 			"/>
			<g>
				<g class="st24">
					<polygon class="st25" points="809.6,165.8 812.4,167.5 812.4,164.2 809.6,162.6 					"/>
					<polygon class="st25" points="805.5,163.5 808.4,165.1 808.4,161.9 805.5,160.3 					"/>
					<polygon class="st25" points="801.5,161.2 804.3,162.8 804.3,159.6 801.5,157.9 					"/>
				</g>
				<g class="st24">
					<polygon class="st25" points="809.6,170 812.4,171.7 812.4,168.4 809.6,166.8 					"/>
					<polygon class="st25" points="805.5,167.7 808.4,169.3 808.4,166.1 805.5,164.5 					"/>
					<polygon class="st25" points="801.5,165.4 804.3,167 804.3,163.8 801.5,162.1 					"/>
				</g>
				<g class="st24">
					<polygon class="st25" points="809.6,174.4 812.4,176 812.4,172.8 809.6,171.1 					"/>
					<polygon class="st25" points="805.5,172 808.4,173.7 808.4,170.4 805.5,168.8 					"/>
					<polygon class="st25" points="801.5,169.7 804.3,171.3 804.3,168.1 801.5,166.5 					"/>
				</g>
				<g class="st24">
					<polygon class="st25" points="809.6,178.5 812.4,180.1 812.4,176.9 809.6,175.2 					"/>
					<polygon class="st25" points="805.5,176.1 808.4,177.8 808.4,174.5 805.5,172.9 					"/>
					<polygon class="st25" points="801.5,173.8 804.3,175.4 804.3,172.2 801.5,170.6 					"/>
				</g>
			</g>
		</g>
		<g>
			<g>
				<g class="st1">
					<g class="st1">
						<g>
							<defs>
								<path id="SVGID_7_" d="M825.8,170.7l3.2-1.9c0.2-0.1,0.5-0.1,0.8,0.1l-3.2,1.9C826.3,170.6,826,170.6,825.8,170.7z"/>
							</defs>
							<clipPath id="SVGID_8_">
								<use xlink:href="#SVGID_7_"  style="overflow:visible;"/>
							</clipPath>
							<g class="st26">
								<path class="st27" d="M825.8,170.7l3.2-1.9c0.1-0.1,0.3-0.1,0.5,0l-3.2,1.9C826.1,170.6,825.9,170.6,825.8,170.7
									L825.8,170.7z"/>
								<path class="st28" d="M826.3,170.7l3.2-1.9c0.1,0,0.2,0.1,0.3,0.1l-3.2,1.9C826.5,170.7,826.4,170.7,826.3,170.7
									L826.3,170.7z"/>
							</g>
						</g>
					</g>
					<g class="st1">
						<g>
							<defs>
								<path id="SVGID_9_" d="M830.6,171.7l-3.2,1.9c0.2-0.1,0.3-0.4,0.3-0.8c0-0.7-0.5-1.7-1.2-2l3.2-1.9c0.6,0.4,1.2,1.3,1.2,2
									C831,171.3,830.8,171.6,830.6,171.7z"/>
							</defs>
							<clipPath id="SVGID_10_">
								<use xlink:href="#SVGID_9_"  style="overflow:visible;"/>
							</clipPath>
							<g class="st29">
								<path class="st28" d="M826.6,170.8l3.2-1.9c0,0,0.1,0,0.1,0.1L826.6,170.8C826.7,170.8,826.6,170.8,826.6,170.8L826.6,170.8
									z"/>
								<path class="st3" d="M826.7,170.9l3.2-1.9c0.5,0.3,0.9,1,1,1.6l-3.2,1.9C827.6,171.8,827.2,171.2,826.7,170.9L826.7,170.9z"
									/>
								<path class="st28" d="M827.7,172.4l3.2-1.9c0,0.1,0,0.3,0,0.4v0.1l-3.2,1.9v-0.1C827.8,172.7,827.7,172.6,827.7,172.4
									L827.7,172.4z"/>
								<path class="st27" d="M827.8,172.9l3.2-1.9c0,0.3-0.1,0.5-0.3,0.7l-3.2,1.9C827.6,173.5,827.7,173.3,827.8,172.9
									L827.8,172.9z"/>
							</g>
						</g>
					</g>
					<g>
						<path class="st30" d="M826.6,170.8c0.6,0.4,1.2,1.3,1.2,2s-0.5,1-1.2,0.7c-0.6-0.4-1.2-1.3-1.2-2
							C825.4,170.7,825.9,170.4,826.6,170.8z"/>
					</g>
				</g>
			</g>
			<g>
				<g class="st1">
					<g class="st1">
						<g>
							<defs>
								<path id="SVGID_11_" d="M824.3,169.4l1.1-0.6c0.4-0.3,1-0.2,1.7,0.2l-1.1,0.6C825.3,169.2,824.7,169.2,824.3,169.4z"/>
							</defs>
							<clipPath id="SVGID_12_">
								<use xlink:href="#SVGID_11_"  style="overflow:visible;"/>
							</clipPath>
							<g class="st31">
								<path class="st32" d="M824.3,169.4l1.1-0.6c0.3-0.2,0.7-0.2,1.1-0.1l-1.1,0.6C825,169.2,824.6,169.3,824.3,169.4
									L824.3,169.4z"/>
								<path class="st33" d="M825.4,169.3l1.1-0.6c0.2,0.1,0.4,0.1,0.6,0.3l-1.1,0.6C825.8,169.5,825.6,169.4,825.4,169.3
									L825.4,169.3z"/>
							</g>
						</g>
					</g>
					<g class="st1">
						<g>
							<defs>
								<path id="SVGID_14_" d="M828.8,174.6l-1.1,0.6c0.4-0.2,0.7-0.8,0.7-1.5c0-1.5-1.1-3.3-2.4-4.1l1.1-0.6
									c1.3,0.8,2.4,2.6,2.4,4.1C829.4,173.8,829.2,174.4,828.8,174.6z"/>
							</defs>
							<clipPath id="SVGID_16_">
								<use xlink:href="#SVGID_14_"  style="overflow:visible;"/>
							</clipPath>
							<g class="st34">
								<path class="st33" d="M826,169.6l1.1-0.6c0.1,0,0.1,0.1,0.2,0.1l-1.1,0.6C826.1,169.7,826.1,169.6,826,169.6L826,169.6z"/>
								<path class="st35" d="M826.2,169.7l1.1-0.6c1,0.7,1.8,2,2.1,3.2l-1.1,0.6C828,171.7,827.2,170.4,826.2,169.7L826.2,169.7z"
									/>
								<path class="st33" d="M828.3,172.9l1.1-0.6c0.1,0.3,0.1,0.5,0.1,0.8c0,0.1,0,0.1,0,0.2l-1.1,0.6c0-0.1,0-0.1,0-0.2
									C828.4,173.5,828.3,173.2,828.3,172.9L828.3,172.9z"/>
								<path class="st32" d="M828.4,173.9l1.1-0.6c0,0.6-0.3,1.1-0.7,1.3l-1.1,0.6C828.1,175,828.3,174.6,828.4,173.9L828.4,173.9z
									"/>
							</g>
						</g>
					</g>
					<g>
						<path class="st35" d="M828.4,173.7c0,0.8-0.3,1.3-0.8,1.6c-0.4,0.2-1,0.1-1.6-0.2c-1.3-0.8-2.4-2.6-2.4-4.1
							c0-0.6,0.2-1,0.4-1.3c0.1-0.1,0.3-0.2,0.4-0.3l0,0c0.4-0.2,1-0.1,1.6,0.2C827.3,170.4,828.4,172.2,828.4,173.7z"/>
					</g>
				</g>
			</g>
			<path class="st35" d="M828.4,173.7c0,0.8-0.3,1.3-0.8,1.6c-0.4,0.2-0.9,0.3-1.4,0.3c-1.9,0-3.4-1.5-3.4-3.4c0-1,0.5-2,1.2-2.6
				c0.1-0.1,0.3-0.2,0.4-0.3l0,0c0.4-0.2,1-0.1,1.6,0.2C827.3,170.4,828.4,172.2,828.4,173.7z"/>
		</g>
		<g>
			<g class="st1">
				<g class="st1">
					<g>
						<path id="SVGID_13_" class="st36" d="M823.2,186.9l0.6-0.4c0.2-0.1,0.6-0.1,0.9,0.1l-0.6,0.4
							C823.8,186.8,823.4,186.8,823.2,186.9z"/>
					</g>
					<g>
						<defs>
							<path id="SVGID_18_" d="M823.2,186.9l0.6-0.4c0.2-0.1,0.6-0.1,0.9,0.1l-0.6,0.4C823.8,186.8,823.4,186.8,823.2,186.9z"/>
						</defs>
						<clipPath id="SVGID_20_">
							<use xlink:href="#SVGID_18_"  style="overflow:visible;"/>
						</clipPath>
						<g class="st37">
							<path class="st36" d="M823.2,186.9l0.6-0.4c0.2-0.1,0.4-0.1,0.6-0.1l-0.6,0.4C823.5,186.8,823.3,186.8,823.2,186.9
								L823.2,186.9z"/>
							<path class="st36" d="M823.8,186.9l0.6-0.4c0.1,0,0.2,0.1,0.3,0.1l-0.6,0.4C824,187,823.9,186.9,823.8,186.9L823.8,186.9z"/>
						</g>
					</g>
				</g>
				<g class="st1">
					<g>
						<path id="SVGID_15_" class="st36" d="M825.7,189.8l-0.6,0.4c0.2-0.1,0.4-0.4,0.4-0.9c0-0.8-0.6-1.9-1.3-2.3l0.6-0.4
							c0.7,0.4,1.3,1.5,1.3,2.3C826.1,189.4,826,189.7,825.7,189.8z"/>
					</g>
					<g>
						<defs>
							<path id="SVGID_22_" d="M825.7,189.8l-0.6,0.4c0.2-0.1,0.4-0.4,0.4-0.9c0-0.8-0.6-1.9-1.3-2.3l0.6-0.4
								c0.7,0.4,1.3,1.5,1.3,2.3C826.1,189.4,826,189.7,825.7,189.8z"/>
						</defs>
						<clipPath id="SVGID_24_">
							<use xlink:href="#SVGID_22_"  style="overflow:visible;"/>
						</clipPath>
						<g class="st38">
							<path class="st36" d="M824.1,187l0.6-0.4c0,0,0.1,0,0.1,0.1l-0.6,0.4C824.2,187.1,824.2,187.1,824.1,187L824.1,187z"/>
							<path class="st36" d="M824.2,187.1l0.6-0.4c0.6,0.4,1,1.1,1.2,1.8l-0.6,0.4C825.3,188.2,824.8,187.5,824.2,187.1L824.2,187.1
								z"/>
							<path class="st36" d="M825.4,188.9l0.6-0.4c0,0.1,0,0.3,0,0.4v0.1l-0.6,0.4v-0.1C825.5,189.2,825.4,189,825.4,188.9
								L825.4,188.9z"/>
							<path class="st36" d="M825.4,189.4l0.6-0.4c0,0.4-0.2,0.6-0.4,0.7l-0.6,0.4C825.3,190.1,825.4,189.8,825.4,189.4L825.4,189.4
								z"/>
						</g>
					</g>
				</g>
				<g>
					<path class="st39" d="M824.1,187c0.7,0.4,1.3,1.5,1.3,2.3s-0.6,1.2-1.3,0.8s-1.3-1.5-1.3-2.3
						C822.8,186.9,823.4,186.6,824.1,187z"/>
				</g>
			</g>
		</g>
		<g>
			<g class="st1">
				<g>
					<g>
						<path id="SVGID_17_" class="st2" d="M827.7,189.6l0.6-0.4c0.2-0.1,0.6-0.1,0.9,0.1l-0.6,0.4
							C828.3,189.5,828,189.5,827.7,189.6z"/>
					</g>
					<g>
						<defs>
							<path id="SVGID_25_" d="M827.7,189.6l0.6-0.4c0.2-0.1,0.6-0.1,0.9,0.1l-0.6,0.4C828.3,189.5,828,189.5,827.7,189.6z"/>
						</defs>
						<clipPath id="SVGID_26_">
							<use xlink:href="#SVGID_25_"  style="overflow:visible;"/>
						</clipPath>
						<g class="st40">
							<path class="st2" d="M827.7,189.6l0.6-0.4c0.2-0.1,0.4-0.1,0.6-0.1l-0.6,0.4C828.1,189.5,827.9,189.5,827.7,189.6
								L827.7,189.6z"/>
							<path class="st2" d="M828.3,189.5l0.6-0.4c0.1,0,0.2,0.1,0.3,0.1l-0.6,0.4C828.6,189.6,828.4,189.6,828.3,189.5L828.3,189.5z
								"/>
						</g>
					</g>
				</g>
				<g>
					<g>
						<path id="SVGID_19_" class="st2" d="M830.3,192.5l-0.6,0.4c0.2-0.1,0.4-0.4,0.4-0.9c0-0.8-0.6-1.9-1.3-2.3l0.6-0.4
							c0.7,0.4,1.3,1.5,1.3,2.3C830.6,192,830.5,192.3,830.3,192.5z"/>
					</g>
					<g>
						<defs>
							<path id="SVGID_27_" d="M830.3,192.5l-0.6,0.4c0.2-0.1,0.4-0.4,0.4-0.9c0-0.8-0.6-1.9-1.3-2.3l0.6-0.4
								c0.7,0.4,1.3,1.5,1.3,2.3C830.6,192,830.5,192.3,830.3,192.5z"/>
						</defs>
						<clipPath id="SVGID_28_">
							<use xlink:href="#SVGID_27_"  style="overflow:visible;"/>
						</clipPath>
						<g class="st41">
							<path class="st2" d="M828.7,189.7l0.6-0.4c0,0,0.1,0,0.1,0.1l-0.6,0.4C828.7,189.7,828.7,189.7,828.7,189.7L828.7,189.7z"/>
							<path class="st2" d="M828.8,189.8l0.6-0.4c0.6,0.4,1,1.1,1.2,1.8l-0.6,0.4C829.8,190.9,829.3,190.1,828.8,189.8L828.8,189.8z
								"/>
							<path class="st2" d="M830,191.6l0.6-0.4c0,0.1,0,0.3,0,0.4v0.1l-0.6,0.4V192C830,191.8,830,191.7,830,191.6L830,191.6z"/>
							<path class="st2" d="M830,192.1l0.6-0.4c0,0.4-0.2,0.6-0.4,0.7l-0.6,0.4C829.8,192.7,830,192.5,830,192.1L830,192.1z"/>
						</g>
					</g>
				</g>
				<g>
					<path class="st3" d="M828.7,189.7c0.7,0.4,1.3,1.5,1.3,2.3s-0.6,1.2-1.3,0.8s-1.3-1.5-1.3-2.3
						C827.3,189.6,827.9,189.3,828.7,189.7z"/>
				</g>
			</g>
		</g>
		<g>
			<g class="st1">
				<g>
					<g>
						<path id="SVGID_21_" class="st2" d="M843.5,176.3l1.1-0.6c0.4-0.2,1-0.2,1.6,0.2l-1.1,0.6
							C844.5,176.1,843.9,176.1,843.5,176.3z"/>
					</g>
					<g>
						<defs>
							<path id="SVGID_29_" d="M843.5,176.3l1.1-0.6c0.4-0.2,1-0.2,1.6,0.2l-1.1,0.6C844.5,176.1,843.9,176.1,843.5,176.3z"/>
						</defs>
						<clipPath id="SVGID_30_">
							<use xlink:href="#SVGID_29_"  style="overflow:visible;"/>
						</clipPath>
						<g class="st42">
							<path class="st2" d="M843.5,176.3l1.1-0.6c0.3-0.2,0.6-0.2,1-0.1l-1.1,0.6C844.2,176.1,843.8,176.2,843.5,176.3L843.5,176.3z
								"/>
							<path class="st2" d="M844.5,176.2l1.1-0.6c0.2,0,0.4,0.1,0.6,0.2l-1.1,0.6C844.9,176.4,844.7,176.3,844.5,176.2L844.5,176.2z
								"/>
						</g>
					</g>
				</g>
				<g>
					<g>
						<path id="SVGID_23_" class="st2" d="M847.8,181.1l-1.1,0.6c0.4-0.2,0.6-0.7,0.6-1.4c0-1.4-1-3.1-2.2-3.8l1.1-0.6
							c1.2,0.7,2.2,2.4,2.2,3.8C848.4,180.4,848.2,180.9,847.8,181.1z"/>
					</g>
					<g>
						<defs>
							<path id="SVGID_31_" d="M847.8,181.1l-1.1,0.6c0.4-0.2,0.6-0.7,0.6-1.4c0-1.4-1-3.1-2.2-3.8l1.1-0.6c1.2,0.7,2.2,2.4,2.2,3.8
								C848.4,180.4,848.2,180.9,847.8,181.1z"/>
						</defs>
						<clipPath id="SVGID_32_">
							<use xlink:href="#SVGID_31_"  style="overflow:visible;"/>
						</clipPath>
						<g class="st43">
							<path class="st2" d="M845.1,176.5l1.1-0.6c0.1,0,0.1,0.1,0.2,0.1l-1.1,0.6C845.2,176.6,845.2,176.5,845.1,176.5L845.1,176.5z
								"/>
							<path class="st2" d="M845.3,176.6l1.1-0.6c0.9,0.6,1.7,1.8,2,3l-1.1,0.6C847,178.4,846.2,177.2,845.3,176.6L845.3,176.6z"/>
							<path class="st2" d="M847.3,179.6l1.1-0.6c0.1,0.2,0.1,0.5,0.1,0.7c0,0.1,0,0.1,0,0.2l-1.1,0.6c0-0.1,0-0.1,0-0.2
								C847.3,180.1,847.3,179.8,847.3,179.6L847.3,179.6z"/>
							<path class="st2" d="M847.3,180.5l1.1-0.6c0,0.6-0.3,1-0.6,1.2l-1.1,0.6C847.1,181.5,847.3,181.1,847.3,180.5L847.3,180.5z"
								/>
						</g>
					</g>
				</g>
				<g>
					<path class="st3" d="M845.1,176.5c1.2,0.7,2.2,2.4,2.2,3.8c0,1.4-1,2-2.2,1.3s-2.2-2.4-2.2-3.8
						C842.9,176.3,843.9,175.8,845.1,176.5z"/>
				</g>
			</g>
		</g>
		<g>
			<g>
				<polygon class="st44" points="870.1,191.5 858.1,198.4 858.1,181.5 870.1,174.6 				"/>
			</g>
			<g>
				<path class="st45" d="M862.9,187.2L862.9,187.2l-3.7,2.1c-0.1,0-0.1,0-0.1,0s0-0.1,0-0.2l1.8-4.7c0.1-0.1,0.2-0.2,0.3-0.2
					l1.8,2.6v0.1C863.1,187.1,863,187.2,862.9,187.2z M859.5,188.8l3.1-1.8l-1.5-2.2L859.5,188.8z"/>
			</g>
			<g>
				<g>
					<path class="st45" d="M862.9,194.7c-0.1,0.2-0.3,0.3-0.4,0.3l-3.1-0.5c-0.1,0-0.2-0.2-0.1-0.4l0,0c0.1-0.2,0.3-0.3,0.4-0.3
						l3.1,0.5C862.9,194.3,863,194.5,862.9,194.7L862.9,194.7z"/>
				</g>
				<g>
					<path class="st45" d="M859.3,196.8c0.1,0.1,0.3,0,0.4-0.1l3.1-4.1c0.1-0.2,0.2-0.4,0.1-0.5l0,0c-0.1-0.1-0.3,0-0.4,0.1
						l-3.1,4.1C859.2,196.5,859.2,196.7,859.3,196.8L859.3,196.8z"/>
				</g>
				<g>
					<path class="st45" d="M861.1,189.9c-0.7,0.4-1.4,1.5-1.4,2.3c0,0.4,0.2,0.8,0.4,0.9l0,0c0,0.6,0.4,0.8,0.9,0.5s0.9-0.9,0.9-1.5
						l0,0c0.3-0.4,0.4-0.9,0.4-1.4C862.4,189.8,861.8,189.5,861.1,189.9z M860.5,192.4c-0.2,0.1-0.4,0-0.4-0.2s0.2-0.5,0.4-0.7
						c0.2-0.1,0.4,0,0.4,0.2C860.9,192,860.8,192.3,860.5,192.4z M861.6,191.8c-0.2,0.1-0.4,0-0.4-0.2s0.2-0.5,0.4-0.7
						c0.2-0.1,0.4,0,0.4,0.2C862,191.4,861.8,191.7,861.6,191.8z"/>
				</g>
			</g>
			<g>
				<g>
					<polygon class="st45" points="869.4,180.4 863.7,183.7 863.7,182.9 869.4,179.6 					"/>
				</g>
				<g>
					<polygon class="st45" points="869.4,183.4 863.7,186.7 863.7,185.9 869.4,182.6 					"/>
				</g>
				<g>
					<polygon class="st45" points="869.4,181.9 863.7,185.2 863.7,184.4 869.4,181.1 					"/>
				</g>
			</g>
			<g>
				<g>
					<polygon class="st45" points="869.4,187.9 863.7,191.2 863.7,190.4 869.4,187.1 					"/>
				</g>
				<g>
					<polygon class="st45" points="869.4,186.4 863.7,189.7 863.7,188.9 869.4,185.6 					"/>
				</g>
				<g>
					<polygon class="st45" points="869.4,190.9 863.7,194.2 863.7,193.4 869.4,190.1 					"/>
				</g>
				<g>
					<polygon class="st45" points="869.4,189.4 863.7,192.7 863.7,191.9 869.4,188.6 					"/>
				</g>
			</g>
			<g>
				<g>
					<path class="st45" d="M859.2,182.1l0.3,1.2l0.2-1.5l0.5-0.3l-0.1,0.5l0.2,0.8l0.2-1.5l0.5-0.3l-0.4,2.2l-0.5,0.3l-0.2-0.6
						l-0.1,0.7l-0.5,0.3l-0.5-1.7L859.2,182.1z"/>
				</g>
				<g>
					<path class="st45" d="M861.3,180.9l0.5-0.3l0.5,1.7l-0.5,0.3l-0.1-0.3l-0.5,0.3l-0.1,0.4l-0.5,0.3L861.3,180.9z M861.7,181.8
						l-0.1-0.5l-0.1,0.6L861.7,181.8z"/>
				</g>
				<g>
					<path class="st45" d="M862.5,180.2l0.8-0.4c0.3-0.2,0.5-0.2,0.5,0.3s-0.1,0.6-0.3,0.7l0.3,0.6l-0.5,0.3l-0.2-0.6H863v0.7
						l-0.5,0.3V180.2z M863.2,180.7c0.1-0.1,0.1-0.1,0.1-0.3c0-0.1,0-0.2-0.1-0.1l-0.2,0.1v0.4L863.2,180.7z"/>
				</g>
				<g>
					<path class="st45" d="M863.9,179.4l0.5-0.3l0.5,0.7v-1l0.5-0.3v2l-0.5,0.3l-0.5-0.7v1l-0.5,0.3V179.4z"/>
				</g>
				<g>
					<path class="st45" d="M865.5,178.5l0.5-0.3v2l-0.5,0.3V178.5z"/>
				</g>
				<g>
					<path class="st45" d="M866.1,178.1l0.5-0.3l0.5,0.7v-1l0.5-0.3v2l-0.5,0.3l-0.5-0.7v1l-0.5,0.3V178.1z"/>
				</g>
				<g>
					<path class="st45" d="M868.2,176.9c0.4-0.2,0.4-0.2,0.7-0.3v0.4c0,0-0.3,0.1-0.6,0.3c-0.2,0.1-0.3,0.3-0.3,0.7s0,0.5,0.2,0.4
						c0.1-0.1,0.2-0.2,0.2-0.2V178l-0.1,0.1v-0.3c0.1-0.1,0.3-0.2,0.4-0.3c0,0,0.1-0.1,0.2-0.1v1.2l-0.3,0.2l-0.1-0.1
						c-0.1,0.1-0.1,0.2-0.3,0.3c-0.5,0.3-0.6-0.1-0.6-0.7C867.6,177.6,867.7,177.2,868.2,176.9z"/>
				</g>
				<g>
					<path class="st45" d="M869.5,176.2v1.5l-0.3,0.2v-1.4L869.5,176.2z M869.1,178C869.1,178,869.1,177.9,869.1,178l0.3-0.3h0.1
						v0.3c0,0,0,0.1-0.1,0.1l-0.3,0.2H869L869.1,178L869.1,178z"/>
				</g>
			</g>
		</g>
		<g>
			<g>
				<polygon class="st12" points="796.6,303.4 794.3,297.3 791.9,300.7 				"/>
			</g>
			<g>
				<path class="st13" d="M794.3,297.9l1.9,5l-3.9-2.2L794.3,297.9z M794.3,298.3l-1.7,2.4l3.3,1.9L794.3,298.3z"/>
			</g>
			<g>
				<path class="st13" d="M794.5,299.3v1.5l-0.4-0.2L794,299L794.5,299.3z M794.5,301.4L794.5,301.4l-0.3-0.1l-0.1-0.1v-0.3
					c0,0,0-0.1,0.1,0l0.3,0.2l0.1,0.1L794.5,301.4L794.5,301.4z"/>
			</g>
		</g>
		<g>
			<g>
				<polygon class="st12" points="670,230.1 667.7,224.1 665.3,227.4 				"/>
			</g>
			<g>
				<path class="st13" d="M667.7,224.6l1.9,5l-3.9-2.2L667.7,224.6z M667.7,225l-1.7,2.4l3.3,1.9L667.7,225z"/>
			</g>
			<g>
				<path class="st13" d="M667.9,226.1v1.5l-0.4-0.2l-0.1-1.6L667.9,226.1z M667.9,228.1C667.9,228.1,667.9,228.2,667.9,228.1
					l-0.3-0.1l-0.1-0.1v-0.3c0,0,0-0.1,0.1,0l0.3,0.2l0.1,0.1L667.9,228.1L667.9,228.1z"/>
			</g>
		</g>
		<g>
			<g>
				<polygon class="st12" points="741.5,287.1 736.4,274.1 731.4,281.3 				"/>
			</g>
			<g>
				<path class="st13" d="M736.4,275.3l4.2,10.7l-8.3-4.8L736.4,275.3z M736.4,276.1l-3.6,5.1l7.1,4.1L736.4,276.1z"/>
			</g>
			<g>
				<path class="st13" d="M736.9,278.4l-0.1,3.3l-0.8-0.5l-0.1-3.4L736.9,278.4z M736.9,282.8c0,0.1-0.1,0.1-0.1,0.1l-0.6-0.4
					c-0.1,0-0.1-0.1-0.1-0.2v-0.7c0-0.1,0-0.1,0.1-0.1l0.6,0.4c0.1,0,0.1,0.1,0.1,0.2V282.8z"/>
			</g>
		</g>
		<g>
			<polygon class="st46" points="870.9,260.2 800.5,300.9 800.5,304.7 870.9,264 			"/>
			<g>
				<polygon class="st13" points="802.6,303.5 805.9,297.7 803.8,299 800.5,304.7 				"/>
				<polygon class="st13" points="806.9,301 810.2,295.2 808.1,296.5 804.8,302.2 				"/>
				<polygon class="st13" points="811.2,298.5 814.5,292.8 812.4,294 809.1,299.7 				"/>
				<polygon class="st13" points="815.5,296 818.8,290.3 816.7,291.5 813.4,297.2 				"/>
				<polygon class="st13" points="819.8,293.5 823.1,287.8 821,289 817.7,294.8 				"/>
				<polygon class="st13" points="824.1,291 827.5,285.3 825.3,286.5 822,292.3 				"/>
				<polygon class="st13" points="828.4,288.6 831.8,282.8 829.6,284 826.3,289.8 				"/>
				<polygon class="st13" points="832.7,286.1 836.1,280.3 833.9,281.6 830.6,287.3 				"/>
				<polygon class="st13" points="837,283.6 840.4,277.8 838.2,279.1 834.9,284.8 				"/>
				<polygon class="st13" points="841.4,281.1 844.7,275.4 842.5,276.6 839.2,282.3 				"/>
				<polygon class="st13" points="845.7,278.6 849,272.9 846.9,274.1 843.5,279.8 				"/>
				<polygon class="st13" points="850,276.1 853.3,270.4 851.2,271.6 847.8,277.4 				"/>
				<polygon class="st13" points="854.3,273.6 857.6,267.9 855.5,269.1 852.1,274.9 				"/>
				<polygon class="st13" points="858.6,271.2 861.9,265.4 859.8,266.6 856.5,272.4 				"/>
				<polygon class="st13" points="862.9,268.7 866.2,262.9 864.1,264.1 860.8,269.9 				"/>
				<polygon class="st13" points="867.2,266.2 870.5,260.4 868.4,261.7 865.1,267.4 				"/>
				<polygon class="st13" points="870.9,262.2 869.4,264.9 870.9,264 				"/>
			</g>
		</g>
		<g>
			<polygon class="st46" points="825.7,348.6 717.7,286.2 717.7,290.1 825.7,352.4 			"/>
			<g>
				<polygon class="st13" points="825.7,350.1 824.4,347.8 822.3,346.6 825.6,352.4 825.7,352.4 				"/>
				<polygon class="st13" points="821.3,349.9 818,344.1 820.1,345.4 823.4,351.1 				"/>
				<polygon class="st13" points="817,347.4 813.7,341.6 815.8,342.9 819.1,348.6 				"/>
				<polygon class="st13" points="812.7,344.9 809.4,339.2 811.5,340.4 814.8,346.1 				"/>
				<polygon class="st13" points="808.4,342.4 805.1,336.7 807.2,337.9 810.5,343.7 				"/>
				<polygon class="st13" points="804.1,339.9 800.8,334.2 802.9,335.4 806.2,341.2 				"/>
				<polygon class="st13" points="799.8,337.5 796.5,331.7 798.6,332.9 801.9,338.7 				"/>
				<polygon class="st13" points="795.5,335 792.2,329.2 794.3,330.4 797.6,336.2 				"/>
				<polygon class="st13" points="791.2,332.5 787.8,326.7 790,328 793.3,333.7 				"/>
				<polygon class="st13" points="786.9,330 783.5,324.2 785.7,325.5 789,331.2 				"/>
				<polygon class="st13" points="782.6,327.5 779.2,321.8 781.4,323 784.7,328.7 				"/>
				<polygon class="st13" points="778.2,325 774.9,319.3 777.1,320.5 780.4,326.3 				"/>
				<polygon class="st13" points="773.9,322.5 770.6,316.8 772.7,318 776.1,323.8 				"/>
				<polygon class="st13" points="769.6,320.1 766.3,314.3 768.4,315.5 771.8,321.3 				"/>
				<polygon class="st13" points="765.3,317.6 762,311.8 764.1,313 767.5,318.8 				"/>
				<polygon class="st13" points="761,315.1 757.7,309.3 759.8,310.6 763.2,316.3 				"/>
				<polygon class="st13" points="756.7,312.6 753.4,306.8 755.5,308.1 758.8,313.8 				"/>
				<polygon class="st13" points="752.4,310.1 749.1,304.4 751.2,305.6 754.5,311.3 				"/>
				<polygon class="st13" points="748.1,307.6 744.8,301.9 746.9,303.1 750.2,308.9 				"/>
				<polygon class="st13" points="743.8,305.1 740.5,299.4 742.6,300.6 745.9,306.4 				"/>
				<polygon class="st13" points="739.5,302.6 736.2,296.9 738.3,298.1 741.6,303.9 				"/>
				<polygon class="st13" points="735.2,300.2 731.9,294.4 734,295.6 737.3,301.4 				"/>
				<polygon class="st13" points="730.9,297.7 727.6,291.9 729.7,293.2 733,298.9 				"/>
				<polygon class="st13" points="726.6,295.2 723.3,289.4 725.4,290.7 728.7,296.4 				"/>
				<polygon class="st13" points="722.3,292.7 718.9,287 721.1,288.2 724.4,293.9 				"/>
				<polygon class="st13" points="717.7,287.3 720.1,291.4 718,290.2 717.7,289.8 				"/>
			</g>
		</g>
	</g>
	<g>
		<path class="st47" d="M791,243.8c-0.3-0.3-0.6-0.5-1-0.6c0.1-0.3,0-0.6-0.2-0.9c-0.2-0.2-0.5-0.3-0.8-0.4c-2.5-0.8-5-1.5-7.5-2
			c-0.1,0-0.3-0.1-0.4-0.1c0.6-0.3,2.4-0.7,3-0.8c1.4-0.4,0.9-1.7-0.2-1.5c-0.7,0.1-2.3,0.4-3,0.2c-1.5-0.3-3.5,1.2-4.3,1.7
			c-1.6,0-3.3,0.2-4.9-0.1c-0.8-0.1-1.7-0.4-2.5-0.6v6.6c0.7,0.3,1.4,0.7,2.1,0.9c0.9,0.3,1.8,0.4,2.7,0.5c1.3,0.2,2.6,0.3,3.8,0.4
			c8.9,0.7,10.9-1.1,11.8-1.6c0.2-0.1,0.3-0.3,0.5-0.3c0.3-0.1,0.6-0.1,0.8-0.3C791.3,244.6,791.3,244.1,791,243.8z"/>
		<path class="st47" d="M752.7,206c-0.2,0.3-0.6,0.5-0.9,0.8c0.2,0.3,0.1,0.6-0.1,0.9c-0.2,0.2-0.5,0.4-0.7,0.5
			c-2.3,1.2-4.7,2.3-7.1,3.2c-0.1,0.1-0.3,0.1-0.4,0.2c0.6,0.2,2.4,0.3,3.1,0.3c1.5,0.1,1.1,1.5,0,1.5c-0.7,0-2.3,0-3,0.2
			c-1.4,0.5-3.7-0.6-4.6-0.9c-1.6,0.2-3.3,0.4-4.8,0.9c-0.8,0.3-1.6,0.7-2.4,1l-1.1-6.5c0.6-0.5,1.3-0.9,2-1.3
			c0.8-0.4,1.7-0.7,2.6-1c1.2-0.4,2.5-0.7,3.7-1c8.7-2.1,11-0.7,11.9-0.3c0.2,0.1,0.4,0.2,0.6,0.2c0.3,0.1,0.6,0,0.9,0.2
			C752.9,205.2,752.9,205.7,752.7,206z"/>
		<path class="st48" d="M722.2,204.4c-1.7,0-8.7-3-12.1,2.8c-3.7,6.4,4.3,13,10.5,10.3L722.2,204.4z"/>
		<g>
			<path class="st49" d="M730.6,341.9c0,0-4.9,6-3.8,9.3c0.3,0.9,2.9,2.3,6.2,2.9c2.2,0.4,4.9,0.1,7,0.7c6.2,1.7,11,0,14.8-2.2
				c8.1-4.7-2.2-6.6-9.2-7C738.2,345.1,730.6,341.9,730.6,341.9z"/>
			<path class="st49" d="M714.2,339.3c0,0-2.6,5.9-0.9,8.3c0.5,0.7,2.8,1.2,5.6,0.9c1.8-0.2,3.9-1,5.7-1c5.3-0.1,8.8-2.5,11.3-5.1
				c5.4-5.6-3.2-4.8-9-3.5C721,340.1,714.2,339.3,714.2,339.3z"/>
			<path class="st36" d="M726.4,339.6l5.2-68.7c0.6-4.7-2.1-9.2-6.8-9.8c-4.7-0.6-14.9-4.4-15.7,0.3c-2.1,13.3,8.1,21.9,5,36.9
				c-2,9.9-1.2,35.6-0.7,39.9C714,342.5,724.4,343.1,726.4,339.6z"/>
			<path class="st50" d="M726.4,339.6l5.2-68.7c0.6-4.7-2.1-9.2-6.8-9.8c-1.8-0.2-4.4-0.9-7-1.4c-2.7,5.1-4.9,10.6-3,16.4
				c2.9,7.8,7.8,14.7,8.5,23.5c1.1,13.7-1.9,28.1,0.5,41.7C725,341,725.9,340.4,726.4,339.6z"/>
			<path class="st51" d="M741.1,344.7c1.2-7.8,1-20,1.4-31.1c0.3-9.2,1.7-36.9,1.7-36.9c0-1.4,0.5-7.8,0.4-10.5
				c-0.4-6.3-2-10.1-5.1-10.1c-4.3,0-23.8,0.2-23.8,10c0,6.2-1.5,8.1,4.8,17.4c4.2,6.2,5.8,17.7,5.3,25.7c-1,15.1,0.2,35.5,0.2,35.6
				C726.4,348.9,740.7,347.1,741.1,344.7z"/>
			<g>
				<g>
					<path class="st52" d="M742.8,241.4c-0.6,7.4,2.2,21,1.6,26.2c-0.6,5.1-33.8,5.8-35.2-1.4c-1.1-5.7,3.3-17.8,2.7-23.1
						c-1.2-11.3-2.8-26.4-2.7-31.5c0.1-4.3,4-8.6,12.7-7.5l9.9,1.4c2.4,1.4,13.2,2.9,14.2,9.1c0,0-1,2.5-1.4,5.7
						C744.1,225.2,742.9,240.4,742.8,241.4z"/>
				</g>
				<path class="st47" d="M736.1,195.1c0,0-0.1,0-0.2,0c-0.6-1.3-4.9-1.3-6.3-1.4c-2.6-0.1-5.1-0.1-7.7,0.2l-0.5,2.1
					c-0.1,0-0.1,0-0.1,0c-0.3,1.4-0.5,2.9-0.3,4.3c0,1.4-0.1,2.7-0.6,4c-0.6,1.5-0.7,2.9,1.1,3.8c4.8,2.4,10.5,1.9,11.7,0
					c0.8-1.3-0.8-3.2,0-6.4c0.7-2.8,2.9-5.6,2.7-6.5C736,195.3,736.1,195.2,736.1,195.1z"/>
				<g>
					<path class="st36" d="M716.6,206.8c0.2-1,0.7-2,1.3-2.9c-3.1,0.3-5.4,1.4-6.8,3c-1.2,1.3-2.5,12.3-0.6,22.5c1.5,0,3,0,4.5,0
						C710.9,222.2,714.7,214.1,716.6,206.8z"/>
					<path class="st36" d="M728.2,231.3c0,0.3,2.2,0.3,2.2,0c2.5-7.8,0.7-18.6,9.1-23.1c-1.3-0.5-2.6-1-3.7-1.4
						C729.7,211.6,725.3,222.4,728.2,231.3z"/>
				</g>
				<g>
					<path class="st51" d="M739.5,255.1c-2.8-9.1-8.7-17.2-8.4-26.6c-5.9-2.8-13.8-4.4-20.9-2.1c0.5,5.5,1.2,11.5,1.7,16.7
						c0.6,5.3-3.8,17.5-2.7,23.1c1.4,7.2,34.7,6.5,35.2,1.4c0.1-1.1,0.1-2.6,0-4.4C742.2,261,740.5,258.4,739.5,255.1z"/>
				</g>
				<path class="st53" d="M740,185.4c0.5,6.6,0.4,13.4-3.1,16.2c-1.1,0.9-2.7,1-4.4,0.8c-0.3,0-0.7-0.1-1-0.2
					c-1.8-0.5-3.6-1.3-4.7-2c-1.6-1-3.5-6.9-4-9c-1.5-6.4,3.3-7,7.4-10.1C734.4,177.9,739.5,178.8,740,185.4z"/>
				<path class="st54" d="M736.1,175.8c-1.8-1.3-4.2-2-6.3-2.5c-1-0.2-1.9-0.4-2.9-0.4c-6.8,1-8.3,5.2-8.3,5.2s-13,6.8,0.8,22.2
					c0.7,0.8,1,1.6,1.2,2.4c0.7,0.3,5.7,0.4,6.6-0.2c0.9-0.6,1.5-1.6,2-2.6s0.8-2,1.3-3c0.3-0.6,0.6-1.2,1.1-1.6
					c0.8-0.7,2-0.9,2.7-1.6c0.7-0.7,0.9-1.8,0.8-2.8c0-0.6-0.1-1.3-0.1-1.9c0-0.1,0-0.2,0-0.3c0.1-1.1,0.4-2.1,1.3-2.9
					c1.3-1.1,2.8-0.9,3.8-2.7C741.1,181.2,739.9,178.5,736.1,175.8z"/>
				<path class="st55" d="M736.1,175.8c-1.8-1.3-4.2-2-6.3-2.5c-1-0.2-1.9-0.4-2.9-0.4c-6.8,1-8.3,5.2-8.3,5.2s-7.6,4-5,12.8
					c4.5-6,13-6.2,19.7-3.9c0.7,0.2,1.3,0.5,1.9,0.9c0.2-0.8,0.5-1.6,1.2-2.2c1.3-1.1,2.8-0.9,3.8-2.7
					C741.1,181.2,739.9,178.5,736.1,175.8z"/>
				<path class="st55" d="M713.6,190.8c0.8,2.7,2.6,5.8,5.8,9.4c0.7,0.8,1,1.6,1.2,2.4c0.7,0.3,5.7,0.4,6.6-0.2
					c1.8-1.3,2.4-3.8,3.3-5.6c0.3-0.6,0.6-1.2,1.1-1.6c0.8-0.7,2-0.9,2.7-1.6c0.7-0.7,0.9-1.8,0.8-2.8c0-0.6-0.1-1.3-0.1-1.9
					c0-0.1,0-0.2,0-0.3c0-0.2,0.1-0.5,0.1-0.7c-0.6-0.4-1.2-0.7-1.9-0.9C726.6,184.6,718.1,184.8,713.6,190.8z"/>
				<path class="st53" d="M733.8,193.9c0.8,1.4,0.6,3.1-0.5,3.7c-1.1,0.6-2.6-0.1-3.3-1.6c-0.8-1.4-0.6-3.1,0.5-3.7
					C731.5,191.8,733,192.5,733.8,193.9z"/>
			</g>
		</g>
		<path class="st52" d="M775.1,237.9c-3-1-9.7-3.2-13.7-5.1c-0.8-0.3-3-1-4.7-1.5c-3.4-7.6-5-10.1-10.1-18.4
			c-3.9-6.3-13.6-2.5-13.8,4.3c-0.3,6.9,11.6,21.3,19.3,25.2c3.9,2.4,19.9,4.7,20,4.7C775.3,247.6,777.8,238.9,775.1,237.9z"/>
		<path class="st48" d="M774.1,246.3c-8.1-0.6-15.9-3.3-23.3-6.6c-4.9-2.4-8.7-6.4-11.9-11.3c-3.3-5.6-4.5-14.1,0.9-18.5
			c-3.5,0.6-6.8,3.5-7,7.4c-0.3,6.9,11.6,21.3,19.3,25.2c3.9,2.4,19.9,4.7,20,4.7C772.9,247.3,773.5,246.9,774.1,246.3z"/>
	</g>
</g>
<g>
	<g>
		<g>
			<ellipse class="st56" cx="250" cy="262.9" rx="206.3" ry="32.1"/>
		</g>
		<g>
			<path class="st57" d="M406.1,83.6c-4.6-3.2-9.6-5.7-15-7.4c-19.5-6-41-0.4-60.8-5.4C304.9,64.5,287,42.1,263.9,30
				c-26.2-13.8-57.7-13.5-86.8-8.1c-35.2,6.6-71,21.8-91.3,51.3c-13.3,19.3-18.6,42.6-21,66.3v108.2h365.6v-116
				C430.4,112.7,421.6,94.5,406.1,83.6z"/>
		</g>
	</g>
	<g>
		<g>
			<g>
				<g>
					<rect x="331.3" y="120.3" class="st58" width="55.8" height="28.5"/>
				</g>
				<g>
					<rect x="330.6" y="122.3" class="st59" width="56.6" height="28.5"/>
				</g>
			</g>
			<g>
				<g>
					<rect x="205.4" y="54.2" class="st58" width="129" height="79.9"/>
				</g>
				<g>
					<g>
						<path class="st58" d="M332.6,61.7h-94.2c-2.8,0-5-2.2-5-5V15.9c0-2.9,2.4-5.3,5.3-5.3h93.7c2.9,0,5.3,2.4,5.3,5.3v40.8
							C337.6,59.5,335.3,61.7,332.6,61.7z"/>
					</g>
					<g>
						<path class="st60" d="M296.5,61.7h-94.2c-2.8,0-5-2.2-5-5V15.9c0-2.9,2.4-5.3,5.3-5.3h93.7c2.9,0,5.3,2.4,5.3,5.3v40.8
							C301.5,59.5,299.3,61.7,296.5,61.7z"/>
					</g>
				</g>
				<g>
					<g>
						<path class="st58" d="M332.8,116h-94.2c-2.8,0-5-2.2-5-5V70.2c0-2.9,2.4-5.3,5.3-5.3h93.7c2.9,0,5.3,2.4,5.3,5.3V111
							C337.8,113.8,335.6,116,332.8,116z"/>
					</g>
					<g>
						<path class="st60" d="M296.8,116h-94.2c-2.8,0-5-2.2-5-5V70.2c0-2.9,2.4-5.3,5.3-5.3h93.7c2.9,0,5.3,2.4,5.3,5.3V111
							C301.8,113.8,299.5,116,296.8,116z"/>
					</g>
					<g>
						<rect x="205.1" y="83" class="st58" width="88.1" height="30.7"/>
					</g>
				</g>
				<g>
					<g>
						<path class="st58" d="M332.1,263.5h-94.2c-2.8,0-5-2.2-5-5V123.1c0-2.9,2.4-5.3,5.3-5.3h93.7c2.9,0,5.3,2.4,5.3,5.3v135.5
							C337.1,261.3,334.8,263.5,332.1,263.5z"/>
					</g>
					<g>
						<polygon class="st58" points="398.4,156.4 326.6,169.8 326.6,149.1 398.4,149.1 						"/>
					</g>
					<g>
						<path class="st60" d="M296.8,263.8h-94.2c-2.8,0-5-2.2-5-5V123.3c0-2.9,2.4-5.3,5.3-5.3h93.7c2.9,0,5.3,2.4,5.3,5.3v135.5
							C301.8,261.5,299.5,263.8,296.8,263.8z"/>
					</g>
					<g>
						<path class="st58" d="M292.8,125.6h-87.8c-2.2,0-4-1.8-4-4v-3h95.8v3C296.8,123.8,295,125.6,292.8,125.6z"/>
					</g>
					<g>
						<rect x="213.6" y="123.4" class="st60" width="3.3" height="4.2"/>
					</g>
					<g>
						<rect x="280.6" y="123.4" class="st60" width="3.3" height="4.2"/>
					</g>
					<g>
						<rect x="197.6" y="143.4" class="st58" width="104.2" height="7.7"/>
					</g>
				</g>
				<g>
					<g>
						<polygon class="st61" points="272.2,106.2 165.7,106.2 165.7,109.4 181.1,119.8 287.6,119.8 272.2,109.4 						"/>
					</g>
					<g>
						<rect x="165.7" y="106.2" class="st57" width="106.5" height="3.1"/>
					</g>
					<g>
						<polygon class="st62" points="279.2,106.2 272.2,106.2 272.2,109.4 287.6,119.8 294.6,119.8 294.6,106.3 						"/>
					</g>
				</g>
				<g>
					<path class="st57" d="M295.5,29.1h-40.8c-1.2,0-2.3-1-2.3-2.3v-8.5c0-1.2,1-2.3,2.3-2.3h40.8c1.2,0,2.3,1,2.3,2.3v8.5
						C297.8,28.1,296.8,29.1,295.5,29.1z"/>
				</g>
				<g>
					<g>
						<rect x="256.4" y="19.4" class="st63" width="2.8" height="6.5"/>
					</g>
					<g>
						<rect x="262.8" y="19.4" class="st64" width="2.8" height="6.5"/>
					</g>
					<g>
						<rect x="269.2" y="19.4" class="st61" width="2.8" height="6.5"/>
					</g>
					<g>
						<rect x="275.6" y="19.4" class="st58" width="2.8" height="6.5"/>
					</g>
				</g>
				<g>
					<rect x="189.4" y="141.4" class="st60" width="119.2" height="4"/>
				</g>
				<g>
					<g>
						<g>
							<path class="st58" d="M291.6,194.2h-83.3c-2,0-3.7-1.6-3.7-3.7v-32.2c0-2,1.6-3.7,3.7-3.7h83.3c2,0,3.7,1.6,3.7,3.7v32.2
								C295.3,192.5,293.6,194.2,291.6,194.2z M208.3,155.6c-1.5,0-2.7,1.2-2.7,2.7v32.2c0,1.5,1.2,2.7,2.7,2.7h83.3
								c1.5,0,2.7-1.2,2.7-2.7v-32.2c0-1.5-1.2-2.7-2.7-2.7H208.3z"/>
						</g>
						<g>
							<path class="st58" d="M291.6,238.2h-83.3c-2,0-3.7-1.6-3.7-3.7v-32.2c0-2,1.6-3.7,3.7-3.7h83.3c2,0,3.7,1.6,3.7,3.7v32.2
								C295.3,236.6,293.6,238.2,291.6,238.2z M208.3,199.7c-1.5,0-2.7,1.2-2.7,2.7v32.2c0,1.5,1.2,2.7,2.7,2.7h83.3
								c1.5,0,2.7-1.2,2.7-2.7v-32.2c0-1.5-1.2-2.7-2.7-2.7H208.3z"/>
						</g>
					</g>
					<g>
						<rect x="291.8" y="160.6" class="st58" width="3" height="5.2"/>
					</g>
					<g>
						<rect x="291.8" y="205.4" class="st58" width="3" height="5.2"/>
					</g>
				</g>
				<g>
					<g>
						<path class="st60" d="M315.4,91c-2.3,0-4.1-3.6-4.1-8.1c0-4.6,1.8-8.1,4.1-8.1c2.3,0,4.1,3.6,4.1,8.1
							C319.6,87.4,317.7,91,315.4,91z M315.4,75.7c-1.5,0-3.1,2.9-3.1,7.1c0,4.3,1.6,7.1,3.1,7.1c1.5,0,3.1-2.9,3.1-7.1
							C318.5,78.6,316.9,75.7,315.4,75.7z"/>
					</g>
					<g>
						<path class="st60" d="M331.3,111c-1.8,0-3.3-2.6-3.3-6c0-3.4,1.4-6,3.3-6c1.8,0,3.3,2.6,3.3,6
							C334.6,108.4,333.1,111,331.3,111z M331.3,100c-1.1,0-2.3,2.1-2.3,5c0,3,1.2,5,2.3,5c1.1,0,2.3-2.1,2.3-5
							C333.6,102.1,332.4,100,331.3,100z"/>
					</g>
					<g>
						<path class="st60" d="M318.3,182.9c-3.2,0-5.8-6.2-5.8-14c0-7.9,2.5-14,5.8-14s5.8,6.2,5.8,14
							C324.1,176.7,321.5,182.9,318.3,182.9z M318.3,155.9c-2.3,0-4.8,5.2-4.8,13c0,7.8,2.5,13,4.8,13c2.3,0,4.8-5.2,4.8-13
							C323.1,161.1,320.6,155.9,318.3,155.9z"/>
					</g>
					<g>
						<path class="st60" d="M330.3,169.1c-1.6,0-2.8-1.9-2.8-4.3c0-2.4,1.2-4.3,2.8-4.3c1.6,0,2.8,1.9,2.8,4.3
							C333.2,167.2,331.9,169.1,330.3,169.1z M330.3,161.4c-1,0-1.8,1.5-1.8,3.3c0,1.8,0.8,3.3,1.8,3.3c1,0,1.8-1.5,1.8-3.3
							C332.2,163,331.3,161.4,330.3,161.4z"/>
					</g>
					<g>
						<path class="st60" d="M330.3,199c-1.6,0-2.8-1.9-2.8-4.3c0-2.4,1.2-4.3,2.8-4.3c1.6,0,2.8,1.9,2.8,4.3
							C333.2,197.1,331.9,199,330.3,199z M330.3,191.3c-1,0-1.8,1.5-1.8,3.3c0,1.8,0.8,3.3,1.8,3.3c1,0,1.8-1.5,1.8-3.3
							C332.2,192.9,331.3,191.3,330.3,191.3z"/>
					</g>
				</g>
			</g>
			<g>
				<g>
					<rect x="184.4" y="27.2" class="st58" width="57.3" height="49.1"/>
				</g>
				<g>
					<rect x="188.5" y="30.7" class="st65" width="49.1" height="42.1"/>
				</g>
				<g>
					<path class="st58" d="M186.8,44c0.7-1.1,2-1.7,3.2-2.2c5.2-2.2,10.9-3.3,16.6-3.2c1,0,2.2,0.2,2.6,1.1c0.5,0.9-0.1,2.1-0.8,2.9
						c-6.2,8-15.8,12.6-22.8,20c0.1-4.8,0.2-9.7,0.3-14.5C186,46.6,186.1,45.2,186.8,44z"/>
				</g>
			</g>
		</g>
		<g>
			<g>
				<g>
					<g>
						<g>
							<g>
								<g>
									<path class="st58" d="M159.5,250.9c-0.5-0.4-1.1-0.7-1.7-1c-1-0.5-2.4-1.2-3.3-1.7c-0.1,0.3-0.4,0.8-0.6,1
										c-5.6,2-11.4,3.5-16.4-2.6c-0.1,0.3-0.4,1-0.5,1.3c-0.3,1.3-0.4,3.2,0.6,4c0.4,0.3,2.7,1.2,3.2,1.2c3,0.4,4.3,0.1,7.3,0.5
										c3.1,0.4,4,0.8,7.1,0.9c1.3,0,4.9-0.3,5.2-1.6C160.4,252.1,160,251.3,159.5,250.9z"/>
								</g>
							</g>
						</g>
					</g>
					<g>
						<path class="st66" d="M145.5,240.1l-7.3,0c-0.1,2.5-0.4,4.9-0.9,7.1c5,6.2,12.2,4.8,17,2.1c0.2-0.2,0.3-0.5,0.4-0.7
							c-2.7-1.4-4.9-2.6-7-4.3C146,242.8,145.6,241.1,145.5,240.1z"/>
					</g>
				</g>
				<g>
					<path class="st58" d="M149.9,102.4c-10-0.4-13.8-0.6-23.4-3.3c-5.8,8.8-5.3,20.2-4.5,30.8c0.9,13.1,7.9,28.4,6.7,41.4
						c-2.5,27.5-0.3,48.5,1.5,73.9c5.8,0.9,11.8,0.2,17.2-2.1c-4.4-25.4,3-51.2,6.2-76.8C156.2,145.5,150,123.2,149.9,102.4z"/>
				</g>
				<g>
					<g>
						<g>
							<g>
								<g>
									<g>
										<path class="st58" d="M152.9,257.5c-0.6-0.4-1.2-0.7-1.9-1c-1.1-0.5-2.6-1.2-3.6-1.7c-0.1,0.3-0.5,0.8-0.7,1
											c-6.1,2-12.5,3.5-18-2.6c-0.1,0.3-0.5,1-0.6,1.3c-0.4,1.3-0.4,3.2,0.7,4c0.4,0.3,2.9,1.2,3.5,1.2c3.3,0.4,4.7,0.1,8,0.5
											c3.4,0.4,4.4,0.8,7.8,0.9c1.4,0,5.4-0.3,5.7-1.6C153.9,258.7,153.5,258,152.9,257.5z"/>
									</g>
								</g>
							</g>
						</g>
					</g>
					<g>
						<g>
							<g>
								<path class="st67" d="M137.7,245.7c0-1.2,0-2.4-0.1-3.6c0.1-0.6,0.1-1.1,0.2-1.7h-8.4c0.2,1.7,0.3,3.5,0.4,5.5
									c-0.1,2.7-0.5,5.5-1,7.8c5.5,6.2,13.3,4.8,18.7,2.2c0.2-0.2,0.3-0.5,0.4-0.7c-2.9-1.4-5.4-2.6-7.7-4.3
									C137,248.6,137.7,245.7,137.7,245.7z"/>
							</g>
						</g>
					</g>
					<g>
						<g>
							<g>
								<path class="st66" d="M137.7,245.7c0-1.2,0-2.4-0.1-3.6c0.1-0.6,0.1-1.1,0.2-1.7h-2.4c0.2,6.1,1.2,12,3.8,17.7
									c3-0.1,5.8-1,8.2-2.2c0.2-0.2,0.3-0.5,0.4-0.7c-2.9-1.4-5.4-2.6-7.7-4.3C137,248.6,137.7,245.7,137.7,245.7z"/>
							</g>
						</g>
					</g>
				</g>
				<g>
					<path class="st62" d="M149.4,104c-10-0.4-20.6,4-30.3,1.3c-4,15-5.3,16.7-4.5,27.2c0.9,13.1,8.6,26,7.4,39.1
						c-2.5,27.5-0.3,48.5,1.5,73.9c5.8,0.9,11.7,2,17.1-0.2c-4.4-25.4,3.1-53,6.3-78.6C149.6,145.9,149.5,124.9,149.4,104z"/>
				</g>
				<g>
					<path class="st58" d="M129,246.1c-4.4-14.5-3.2-30-2.1-45c0.7-9.1,1.4-18.5,0.8-27.7c-0.3-4.9-0.9-9.9-1.6-14.8
						c-0.6-4.3-1.1-8.7-1.5-13.1c-0.9-11.7,0.2-20.5,3.5-27.8l0.5,0.2c-3.2,7.2-4.3,15.9-3.5,27.5c0.3,4.4,0.9,8.8,1.5,13
						c0.6,4.8,1.3,9.8,1.6,14.8c0.5,9.2-0.2,18.6-0.8,27.7c-1.1,14.9-2.2,30.4,2.1,44.8L129,246.1z"/>
				</g>
				<g>
					<path class="st68" d="M123.9,121.4c10.3-1.5,17,0.7,25.5-4.1c0-4.4,0-8.9,0-13.3c-10-0.4-20.6,4-30.3,1.3
						c-4,15-5.3,16.7-4.5,27.2c0.9,13.1,8.6,26,7.4,39.1c-2.5,27.5-0.3,48.5,1.5,73.9c1.1,0.2,2.1,0.3,3.2,0.5
						c-4.6-22.9-1.5-49.3-1.3-74.7C125.7,154.6,116.3,138.3,123.9,121.4z"/>
				</g>
			</g>
			<g>
				<g>
					<path class="st66" d="M144.1,88.6c-5.2-3.2-10.5-6.4-14.6-10.9c-4.1-4.5-6.8-10.7-5.9-16.7c0.3-2.1,1.1-4.2,2.7-5.7
						s3.8-2.3,5.8-1.7c2.1,0.6,3.5,2.5,4.8,4.2c5.4,7.3,10.8,14.6,16.2,21.9c5.7-7.1,10.1-14.9,12.6-23.5c1.8,0,5.2,2.2,5.3,4
						c0.2,1.8-0.9,2.5-1.4,4.2c-2.5,9-2.3,13.9-5.6,22.3c-0.7,1.8-5.5,8.1-7.3,8.5c-1.3,0.2-2.6-0.5-3.7-1.2
						C150,92.2,147.1,90.4,144.1,88.6z"/>
				</g>
				<g>
					<path class="st20" d="M191.3,75.8c0.1-5-1.3-9.9-2.3-14.8c-1-4.7-1.5-9.6-0.2-14.1h-22.8c-1.1,0.7-1.5,2.1-1.7,3.4
						c-1,6.1,0.6,12.2,1.4,18.3c1.4,9.7,0.9,19.6-1.3,29.1c8.8,0,17.7-0.1,26.5-0.1c-1.4-3.4-1.3-7.2-0.9-10.8
						C190.4,83.1,191.2,79.4,191.3,75.8z"/>
				</g>
				<g>
					<path class="st66" d="M162.5,55.1c-0.5-0.9-1.1-1.9-0.6-2.8c0.3-0.5,0.8-0.8,1.3-1c1.4-0.7,2.6-1.8,3.5-3.1
						c0.5,0,0.9,0.4,0.9,0.9c0,0.5-0.2,1-0.5,1.4c-0.3,0.4-0.6,0.8-0.8,1.3c-0.4,1.2,0.3,2.5,0.8,3.6c0.6,1.3,0.9,2.8,0.4,4.2
						c-0.5,1.3-2,2.4-3.4,1.9C164.2,59.3,163.6,57.1,162.5,55.1z"/>
				</g>
			</g>
			<g>
				<g>
					<g>
						<g>
							<g>
								<g>
									<g>
										<g>
											<g>
												<path class="st67" d="M120.5,38c-0.6,6.3-1.8,13.3-4.4,19.2c6-0.3,12.2,0.8,17.8,3.2c-2.1-6.8-3.9-13.9-3.3-21
													C127.8,38.3,122.6,37.8,120.5,38z"/>
											</g>
										</g>
									</g>
								</g>
							</g>
							<g>
								<g>
									<g>
										<g>
											<g>
												<path class="st66" d="M130.5,39.3c-2.3-0.9-6.6-1.4-9-1.4c1.4,7.3,5.7,14,8.4,21c1.3,0.4,2.7,0.9,3.9,1.4
													C131.8,53.6,130,46.5,130.5,39.3z"/>
											</g>
										</g>
									</g>
								</g>
							</g>
							<g>
								<g>
									<g>
										<g>
											<g>
												<path class="st58" d="M130.5,39.3c-2.1-0.8-5.6-1.3-8.1-1.4c1.5,4.5,4.5,7.6,8.4,9.6C130.5,44.8,130.3,42.1,130.5,39.3z
													"/>
											</g>
										</g>
									</g>
								</g>
							</g>
						</g>
						<g>
							<g>
								<g>
									<path class="st67" d="M140,31.5c-1-1.1-2.7-2.2-3.4-3.5c-0.5-1.2-0.1-3.2-0.3-4.5c-0.4-2.7-3-4.7-5.7-5.1
										c-4.1-0.7-9.2,0.1-11.2,4.2c-2.5,5.1-1.7,12.8,2.9,16.5c3.2,2.5,8.7,3.6,12.8,3.9c1.4,0.1,2.1-4.5,2.4-5.4
										c0.2-1.1,0.6-2.4,0.8-3.7c0.7-0.2,1.3-0.4,1.9-0.8c0.2-0.1,0.4-0.8,0.4-1.1C140.4,31.7,140.2,31.7,140,31.5z"/>
								</g>
							</g>
						</g>
						<g>
							<g>
								<g>
									<path class="st66" d="M130.5,18.4c-4.1-0.7-9.2,0.1-11.2,4.2c-2.4,4.8-1.8,11.9,2.2,15.8c0.7-0.8,1.4-1.7,2.2-2.5
										c-1.3-2.3-1.5-5-0.1-7.7c2-1,4.1,0.6,6.1,1.8c2.3-2.3,4.6-4.8,6.3-7.7C135.1,20.2,132.8,18.8,130.5,18.4z"/>
								</g>
							</g>
							<g>
								<g>
									<path class="st67" d="M140,31.5c-1-1.1-2.7-2.2-3.4-3.5c-0.5-1.2-0.1-3.2-0.3-4.5c-0.1-0.4-0.2-0.8-0.3-1.2
										c-3.7,6.4-10,10.7-14.5,16.1c0.2,0.2,0.5,0.5,0.7,0.7c3.2,2.5,8.7,3.6,12.8,3.9c1.4,0.1,2.1-4.5,2.4-5.4
										c0.2-1.1,0.6-2.4,0.8-3.7c0.7-0.2,1.3-0.4,1.9-0.8c0.2-0.1,0.4-0.8,0.4-1.1C140.4,31.7,140.2,31.7,140,31.5z"/>
								</g>
							</g>
						</g>
						<g>
							<g>
								<path class="st66" d="M127.8,30.2c0.1,0.2,0.2,0.4,0.1,0.7c-0.1,0.2-0.4,0.4-0.5,0.6c-0.1,0.4,0.6,0.6,0.7,1
									c0,0.2-0.1,0.4-0.3,0.6c-0.2,0.1-0.4,0.2-0.6,0.3c-0.4,0.2-0.8,0.6-0.9,1.1c-0.3-0.3-0.6-0.7-0.8-1.1s-0.1-0.9,0.2-1.3
									c0.3-0.3,0.7-0.4,0.8-0.7c-0.4,0.2-0.9,0-1.2-0.4c-0.2-0.4-0.1-0.9,0.2-1.2s0.8-0.4,1.2-0.3
									C127.2,29.6,127.6,29.9,127.8,30.2z"/>
							</g>
						</g>
					</g>
				</g>
				<g>
					<g>
						<path class="st58" d="M136.1,16.1c-4.1-0.4-9.8-0.6-13.9-0.5c-1.8,0-3.6,0.2-5.2,0.7l-0.5,0c-2-0.5-4.2,0.6-5.5,2.2
							c-1.3,1.7-1.9,3.8-2.2,5.9c-0.3,2.1-0.4,4.2-0.9,6.3c-0.6,2.6-1.8,5.1-1.5,7.7c0.3,3.4,3.1,6.1,6.3,7.2
							c3.1,1.1,6.6,0.9,9.9,0.4c-0.7-1-1.1-2.3-1.2-3.6c0.2,0.6,0.5,1.2,1,1.7c0.9,1,2.4,1.6,3.6,1.1c-1.7-0.5-2.9-2.4-2.9-4.3
							c0-1.8,0.9-3.6,2.3-4.8c0.3-0.2,0.6-0.5,0.6-0.9c0-0.4-0.2-0.7-0.4-1c-0.2-0.3-0.3-0.6-0.5-1c0-0.1-0.1-0.2-0.1-0.3
							c-0.2-0.6-0.3-1.2-0.4-1.8c0-0.3,0-0.7,0-1c0.2-0.9,0.9-1.8,1.9-1.9c0.7,0,2,1,2.8,1.7c0.3-0.7,0.6-1.4,0.9-2.2
							c0.7-1.9,2.6-3,3.8-4.6C135.3,21.3,137,18.3,136.1,16.1z"/>
					</g>
					<g>
						<path class="st69" d="M119.9,20.7c-0.5,0.3-0.9,0.5-1.4,0.8c-1.9-0.3-3.9-0.3-5.9,0c0.3-0.6,0.5-1.2,0.8-1.9
							c0.3,0.3,0.9,0.2,1.3,0c0.4-0.2,0.9-0.5,1.3-0.4c0.2,0.1,0.4,0.2,0.6,0.3c0.8,0.3,1.6-0.2,2.3-0.6c0,0.3,0.5,0.5,0.8,0.3
							c0.3-0.1,0.6-0.4,1-0.3c0.4,0.1,0.7,0.6,1.1,0.7c0.4,0.1,0.8-0.2,1.2-0.4c0.4-0.2,0.9-0.4,1.2,0c0.1,0.1,0.1,0.3,0.2,0.5
							c0.3,0.4,0.9,0.2,1.3,0c0.4-0.3,0.8-0.6,1.2-0.6c0,0.5,0.7,0.8,1.2,0.6c0.5-0.2,0.8-0.6,1.1-1.1c-0.1,0.5,0.6,0.9,1.2,0.8
							c0.5-0.1,0.9-0.6,1.2-1c0,0.7,0,1.4,0.1,2.1c1.1-0.5,2.1-1.3,3-2.2c-0.9,3.1-3,5.9-5.8,7.5c0.4-1.3,0.9-2.5,1.3-3.8
							c-0.7,0.7-1.6,1.3-2.6,1.6c0-0.7,0-1.4-0.1-2.1c-0.6,0.3-1.1,0.5-1.7,0.8c0.2-0.4-0.3-0.8-0.7-0.8c-0.4,0-0.8,0.3-1.1,0.5
							c-0.4,0.2-0.8,0.4-1.2,0.2c-0.1-0.3-0.2-0.7-0.2-1c-0.5,0.2-0.9,0.5-1.5,0.5C120.5,21.6,119.9,21.3,119.9,20.7z"/>
					</g>
				</g>
			</g>
			<g>
				<g>
					<g>
						<g>
							<g>
								<g>
									<g>
										<path class="st70" d="M151.5,113.2c-2.1-6.9-6.2-22-5-29c0.8-4.5,2.8-9,2-13.5c-0.5-3-2.3-5.8-3.8-8.6
											c-2.6-4.6-7.5-7.5-12.8-7.5h-12.5c-0.7,0.1-1.5,0.2-2.2,0.2c-1.8,0.2-3.8,0.4-5.3,1.4c-3.3,2-3.3,6.4-2.3,9.9
											c1.8,6.7,5.7,12.8,7.7,19.5c1.7,5.8-7.6,24.7-1.1,31.7C125.8,120.4,141.3,114.9,151.5,113.2z"/>
									</g>
								</g>
							</g>
						</g>
					</g>
					<g>
						<g>
							<g>
								<g>
									<g>
										<path class="st71" d="M151.5,113.2c1.9-8.1-5.6-19.7-6-27.9c-0.2-4.6,3.8-10,3-14.5c-0.5-3-2.3-5.8-3.8-8.6
											c-2.6-4.6-7.5-7.5-12.8-7.5h-12.5c-0.7,0.1-1.5,0.2-2.2,0.2c-0.6,0.1-1.3,0.2-1.9,0.3c0.3,4.3,1.4,15.4,4.5,18.4
											c4.8,4.8,15.7,1,14.5,7c-1.7,9.8-3.5,29.4-0.2,36.5C138,117,147.6,113.9,151.5,113.2z"/>
									</g>
								</g>
							</g>
						</g>
					</g>
					<g>
						<path class="st58" d="M125.5,118.4c-2.2-1.4-3-4.5-3.1-6.8c0-2.9,0.4-5.8,0.8-8.7c0.5-3.1,0.9-6.3,0.8-9.4
							c-0.2-3.6-0.7-6.4-1.2-9.1c-0.6-3.4-1.3-6.6-1.1-11.3l0.5,0c-0.2,4.6,0.4,7.8,1.1,11.2c0.5,2.7,1,5.5,1.2,9.1
							c0.1,3.2-0.3,6.4-0.8,9.5c-0.4,2.8-0.8,5.7-0.8,8.6c0,2.2,0.8,5.1,2.8,6.4L125.5,118.4z"/>
					</g>
					<g>
						<path class="st58" d="M118.8,72c2.6,2.1,6.1,2.8,9.4,2.6c3.3-0.2,6.5-1.1,9.7-2.2c3.1-1.1,6.2-2.3,9.5-2.9
							c-0.1-0.8-0.2-1.6-0.3-2.3c-4.8,0.8-9.3,2.4-14,3.6C128.4,72.1,123.5,72.9,118.8,72z"/>
					</g>
				</g>
				<g>
					<g>
						<g>
							<path class="st20" d="M120.6,48.5c2.2-0.2,4.4-0.4,6.6-0.5c1.4-0.1,2.8-0.2,4,0.3c2.4,1,3.5,3.8,4.3,6.3
								c-5.1-0.2-12.5,1.1-21.1,0.9c0.4-1.6,1.7-5.3,3.1-6.2C118.4,48.7,119.5,48.6,120.6,48.5z"/>
						</g>
					</g>
				</g>
			</g>
			<g>
				<g>
					<g>
						<g>
							<g>
								<path class="st70" d="M144.2,53c-2.6-0.1-5.2-0.4-7.7-0.7c-4.4-0.5-8.9-1.3-13.3-1c-4.2,0.3-9.1,1.6-11.6,5.2
									c-0.5,0.8-0.9,1.6-1,2.5c-0.5,4,5.7,12.5,8.9,13.4c9.5,2.8,17.5-2.4,27.4-4.1C147.5,63.2,146.9,57.9,144.2,53z"/>
							</g>
							<g>
								<path class="st58" d="M145.3,69.4l-0.5-0.1c0.8-5.5,0-11.3-2.4-16.4l0.5-0.2C145.2,57.9,146.1,63.8,145.3,69.4z"/>
							</g>
							<g>
								<path class="st67" d="M197.7,41.9c0.1-0.6,0.8-1.1,1.3-1.5c0.5-0.4,0.4-0.3,0.8-0.8c0.4-0.5,0.8-1.4,0.4-1.9
									c-2.3,0.5-2.4,1.9-4.8,2.7c-0.7,0.2-1.2,0.8-1.3,1.5c-0.3,1.8-1.2,3.1-2.4,4.2c-14.5,5.6-32.1,7.7-47.6,6.8
									c2.7,5,3.3,10.2,2.5,15.4c2.6-0.4,5.2-0.9,7.7-1.4c12.2-2.2,19.4-6.1,30.9-10.8c1.5-0.6,4.8-2.2,7.9-4
									c0.7-0.3,1.4-0.6,2.3-0.9c0.7-0.2,2.9-0.3,3.8-0.4c0.9-0.1,1.6-0.5,2.3-1.1c0.9-0.9,1.7-1.5,1-2.4c0.5-0.5,1.1-0.8,1.3-1.4
									c0.2-0.5,0-0.8-0.4-1.2c0.4-0.2,0.6-0.7,0.6-1.2c-0.1-0.5-0.8-1.1-1.2-1.3c1.3-0.8,2.9-1.1,4.1-1.6c1.2-0.6,2.3-0.7,2.6-2
									C205.6,39.3,201.5,40.4,197.7,41.9z"/>
							</g>
							<g>
								<path class="st66" d="M146.7,68.3c2.6-0.4,5.2-0.9,7.7-1.4c12.2-2.2,19.4-6.1,30.9-10.8c0.9-0.4,2.5-1.1,4.4-2.1
									c-14.5,3.9-28.5,8.8-42.7,9.4C147,65.1,147,66.7,146.7,68.3z"/>
							</g>
						</g>
					</g>
				</g>
			</g>
		</g>
	</g>
</g>
</svg>
