<?xml version="1.0" encoding="utf-8"?>
<!-- Generator: Adobe Illustrator 24.0.1, SVG Export Plug-In . SVG Version: 6.00 Build 0)  -->
<svg version="1.1" id="Layer_1" xmlns="http://www.w3.org/2000/svg" xmlns:xlink="http://www.w3.org/1999/xlink" x="0px" y="0px"
	 viewBox="0 0 1000 1000" style="enable-background:new 0 0 1000 1000;" xml:space="preserve">
<style type="text/css">
	.st0{enable-background:new    ;}
	.st1{fill:#608C67;}
	.st2{fill:#537B5A;}
	.st3{fill:#89C08D;}
	.st4{fill:#F15E5F;}
	.st5{fill:#E03A39;}
	.st6{fill:#262735;}
	.st7{fill:#4E4E4E;}
	.st8{fill:#414141;}
	.st9{fill:#8B4C33;}
	.st10{fill:#CDCFE1;}
	.st11{fill:#EAEAF1;}
	.st12{fill:#5F566B;}
	.st13{fill:#AEBFCF;}
	.st14{fill:#9B9A99;}
	.st15{fill:#F1F1F8;}
	.st16{fill:#C9D6E3;}
	.st17{fill:#965750;}
	.st18{fill:#774640;}
	.st19{fill:#AE655D;}
	.st20{fill:#D67C72;}
	.st21{fill:#818181;}
	.st22{fill:#A89031;}
	.st23{fill:#D0B034;}
	.st24{fill:#7E6C2A;}
	.st25{fill:#BABAB7;}
	.st26{fill:#7AB0DB;}
	.st27{fill:#628CAE;}
	.st28{fill:#B19730;}
	.st29{fill:#558E86;}
	.st30{fill:#79CBBF;}
	.st31{fill:#548F87;}
	.st32{fill:#78362E;}
	.st33{fill:#83712C;}
	.st34{fill:#DBBA3A;}
	.st35{fill:#AE4D43;}
	.st36{fill:#D75F51;}
	.st37{fill:#813A32;}
	.st38{fill:#7D5823;}
	.st39{fill:#D1922C;}
	.st40{fill:#A9762A;}
	.st41{fill:#E4E4ED;}
	.st42{fill:#4BA0C2;}
	.st43{fill:#3C809B;}
	.st44{fill:#B27D2B;}
	.st45{fill:#845D25;}
	.st46{fill:#DC9A2F;}
	.st47{fill:#D74230;}
	.st48{fill:#81291D;}
	.st49{fill:#AE3527;}
	.st50{fill:#A76D29;}
	.st51{fill:#CE8429;}
	.st52{fill:#7C5120;}
	.st53{fill:#1C7B52;}
	.st54{fill:#23AE73;}
	.st55{fill:#1C7542;}
	.st56{fill:#6F2217;}
	.st57{fill:#C73B29;}
	.st58{fill:#A12F22;}
	.st59{fill:#D98D28;}
	.st60{fill:#AF732A;}
	.st61{fill:#815622;}
	.st62{fill:#AE2424;}
	.st63{fill:#821818;}
	.st64{fill:#D82726;}
	.st65{fill:#CE7328;}
	.st66{fill:#A65E26;}
	.st67{fill:#7C461D;}
	.st68{fill:#A31E21;}
	.st69{fill:#8B8A8B;}
	.st70{fill:#1C76AA;}
	.st71{fill:#135378;}
	.st72{fill:#2B95D2;}
	.st73{fill:#1E7642;}
	.st74{fill:#26A75C;}
	.st75{fill:#A84724;}
	.st76{fill:#1971A2;}
	.st77{fill:#228DCC;}
	.st78{fill:#1D8147;}
	.st79{fill:#1F8248;}
	.st80{fill:#701511;}
	.st81{fill:#B06428;}
	.st82{fill:#791715;}
	.st83{fill:#824A1F;}
	.st84{fill:#D87A27;}
	.st85{fill:#C92327;}
	.st86{fill:#B92025;}
	.st87{fill:#6E0E10;}
	.st88{fill:#961B1E;}
	.st89{fill:#7D3519;}
	.st90{fill:#CE5927;}
	.st91{fill:#8A181A;}
	.st92{fill:#A91E22;}
	.st93{fill:#E6E6E5;}
	.st94{fill:#17658C;}
	.st95{fill:#1F7EB0;}
	.st96{fill:#114763;}
	.st97{fill:#5CAD4F;}
	.st98{fill:#20864A;}
	.st99{fill:#0F425D;}
	.st100{fill:#165E84;}
	.st101{fill:#1A77A7;}
	.st102{fill:#1B6939;}
	.st103{fill:#1B6A3A;}
	.st104{fill:#239652;}
	.st105{fill:#650B11;}
	.st106{fill:#82381B;}
	.st107{fill:#B04B25;}
	.st108{fill:#D95B26;}
	.st109{fill:#11482B;}
	.st110{fill:#11364E;}
	.st111{fill:#194D70;}
	.st112{fill:#164767;}
	.st113{fill:#1E5983;}
	.st114{fill:#103148;}
	.st115{fill:#21618D;}
	.st116{fill:#18663C;}
	.st117{fill:#13482A;}
	.st118{fill:#145231;}
	.st119{fill:#1C7545;}
	.st120{fill:#145331;}
	.st121{fill:#51485D;}
	.st122{fill:#F3F3F3;}
	.st123{fill:#FFFFFF;}
	.st124{fill:#FEDE00;}
	.st125{fill:#1B1C1E;}
	.st126{fill:#0F385B;}
	.st127{fill:#489F97;}
	.st128{fill:#282B2E;}
	.st129{fill:#FDD5BF;}
	.st130{fill:#C3C3C5;}
	.st131{fill:#DCDCDF;}
	.st132{fill:#D0CFD2;}
	.st133{fill:#F5887B;}
	.st134{fill:#3279A9;}
	.st135{fill:#4DA3DA;}
	.st136{fill:#B62E2C;}
	.st137{fill:#951B1E;}
	.st138{fill:#F5C2A6;}
	.st139{fill:#0C94BE;}
	.st140{fill:#BE2626;}
	.st141{fill:#14B4E7;}
	.st142{clip-path:url(#SVGID_2_);enable-background:new    ;}
	.st143{fill:#F2F2F2;}
	.st144{fill:#50231D;}
	.st145{fill:#484848;}
</style>
<g>
	<g>
		<g class="st0">
			<g>
				<polygon class="st1" points="976.5,569.5 976.5,619.5 427.5,930.3 427.5,880.3 				"/>
			</g>
			<g>
				<polygon class="st2" points="427.5,880.3 427.5,930.3 32.6,736.5 32.6,686.5 				"/>
			</g>
			<g>
				<polygon class="st3" points="580.6,403 976.5,569.5 427.5,880.3 32.6,686.5 				"/>
			</g>
		</g>
	</g>
</g>
<g>
	<ellipse class="st4" cx="437" cy="663.2" rx="110.4" ry="103.4"/>
	<path class="st5" d="M467.4,563.8c9.8,8.2,18.6,17.7,26.1,28.3c0.4-4.7,0.1-9.4-0.8-13.9c0.9,4.5,1.1,9.2,0.8,13.9
		c9.3,13,16.6,27.5,21.3,42.4c14.4,48.6-22.1,96.1-69.6,107.1c-37.5,7.5-74.9-4.5-104.3-27.4c19,31.3,54.9,52.4,96,52.4
		c61,0,110.4-46.3,110.4-103.4C547.3,616,513.6,576.1,467.4,563.8z"/>
	<path class="st5" d="M380.1,643.3c33.1,12.1,69.6,4.4,97.2-17.7c9.7-8.1,15.2-20.8,16.2-33.6c-7.5-10.5-16.3-20.1-26.1-28.3
		c-9.7-2.6-19.9-4-30.4-4c-38.6,0-72.6,18.6-92.3,46.7c0,0.5,0.1,1,0.1,1.5C348.1,625.6,364.6,637.7,380.1,643.3z"/>
	<g>
		<path class="st6" d="M651,662.9c2-3,3.7-6.2,4.8-9.6c1.2-4,0.5-7.5-1.3-10.1c-4-0.4-9.7,0.4-15.6,1.9c-4.7,1.1-9.5,2.6-13.8,4.2
			c-19.2,6.8-41.9,6.8-41.9,6.8s-3.1,10.5-2.5,19.1c0.3,3.3,1.1,6.4,3,8.4c1.8,2,9.7,2.6,18.9,0.7c6-1.3,12.4-4.9,18.4-5.7
			C634.7,676.6,644.1,670.2,651,662.9z"/>
		<path class="st7" d="M499.4,526c-25.1-10.6-52.5,6-79.7,17.9v50.7l100.2-29.9c0.4-0.2,0.7-0.4,1-0.7
			C519.1,546.4,513.1,531.7,499.4,526z"/>
		<path class="st8" d="M513.2,514.7c-14-5.5-35.8-3.3-48.8,4.3l-44.7,16.1v8.7c27.2-11.8,54.6-28.5,79.7-17.9
			c13.7,5.7,19.8,20.5,21.6,37.9C532.8,555.1,531.3,521.9,513.2,514.7z"/>
		<path class="st7" d="M565.8,553.1c-4.3-7.2-8.1-14.8-15.7-18.3c-8.4-3.9-13.3-3.2-13.3-3.2c-5.2,0.2-22.1,5-26,6.6
			c-2.5,0.9-10.6,3.9-14.4,6.1L450,565.9l-54.2,25.3c-7.3,17.1-2.9,30.2,7.2,38c12.9,10,35,11.2,53,0.6c0.1-0.1,0.3-0.2,0.4-0.2
			c11.4-6.8,33.2-21.4,52.2-34.3c4.6-3.1,9-6.1,13.1-8.9l58.9,79.6c8.2,2.7,33.1-5.2,36.6-12.6C617,653.5,583.1,581.8,565.8,553.1z"
			/>
		<path class="st8" d="M617,653.5c0,0-33.9-71.7-51.2-100.4c-4.3-7.2-8.1-14.8-15.7-18.3c-8.4-3.9-13.3-3.2-13.3-3.2
			c-5.2,0.2-22.1,5-26,6.6c-2.5,0.9-10.6,3.9-14.4,6.1L450,565.9l-54.2,25.3c-5.5,12.7-4.4,23.3,0.7,31c25.3-14.6,50-27.6,75.5-45
			c29.9-20.3,69.3-34.6,92-1.2c18,27,27.6,56.5,42.9,85C611.7,658.8,615.7,656.2,617,653.5z"/>
	</g>
	<g>
		<g>
			<polygon class="st9" points="349.6,415.9 512.5,321.3 496.7,312.1 333.8,406.8 			"/>
		</g>
		<g>
			<g class="st0">
				<polygon class="st10" points="512.5,334.1 349.6,428.8 349.5,523.7 349.6,523.7 349.5,579.6 512.4,484.9 512.5,389.9 512.4,390 
									"/>
				<polygon class="st11" points="349.6,428.8 333.8,419.6 333.8,514.6 333.8,514.6 333.8,570.4 349.5,579.6 349.6,484.6 
					349.5,484.6 				"/>
			</g>
		</g>
	</g>
	<g>
		<g class="st0">
			<g>
				<polygon class="st9" points="623.4,582.5 786.2,487.8 770.5,478.7 607.6,573.3 				"/>
			</g>
			<g>
				<polygon class="st11" points="607.6,573.3 607.6,729.5 623.3,738.7 623.4,582.5 				"/>
			</g>
		</g>
	</g>
	<g>
		<g class="st0">
			<polygon class="st10" points="786.2,477.6 623.4,572.3 623.3,587 623.3,587 623.3,737.1 786.2,642.4 786.2,486.2 786.2,486.2 			
				"/>
			<g>
				<g>
					<polygon class="st12" points="786.2,479.3 623.4,573.9 333.8,406.8 496.7,312.1 586.9,364.2 673.4,414.1 702.3,430.8 
						706.2,433.1 					"/>
				</g>
			</g>
			<g>
				<polygon class="st11" points="333.8,406.8 333.8,421.5 623.3,588.6 623.4,573.9 				"/>
			</g>
		</g>
	</g>
	<g>
		<g class="st0">
			<g>
				<g class="st0">
					<path class="st13" d="M537.9,355.2l0,1.1c-0.2-0.3-0.5-0.5-0.8-0.8l0-1.1C537.4,354.7,537.7,354.9,537.9,355.2L537.9,355.2z"/>
				</g>
			</g>
			<g>
				<g class="st0">
					<path class="st13" d="M538.4,356l0,1.1c-0.1-0.3-0.3-0.6-0.5-0.8l0-1.1C538.1,355.5,538.3,355.7,538.4,356L538.4,356z"/>
				</g>
			</g>
			<g>
				<g class="st0">
					<path class="st13" d="M538.4,356l0,1.1c-0.1-0.3-0.3-0.6-0.5-0.8l0-1.1C538.1,355.5,538.3,355.7,538.4,356L538.4,356z"/>
				</g>
			</g>
			<g class="st0">
				<g class="st0">
					<path class="st14" d="M538.4,356l0,1.1c-0.1-0.3-0.3-0.5-0.5-0.8l0-1.1C538.1,355.5,538.3,355.7,538.4,356L538.4,356z"/>
				</g>
			</g>
			<g>
				<polygon class="st10" points="538.4,356 538.4,357.1 538.4,357.1 538.4,356 				"/>
			</g>
			<g>
				<path class="st15" d="M537.9,355.2c0.2,0.3,0.4,0.5,0.5,0.8l0,0C538.3,355.7,538.1,355.5,537.9,355.2z"/>
			</g>
			<g>
				<polygon class="st16" points="540.9,357.5 540.9,358.6 538.4,357.1 538.4,356 				"/>
			</g>
			<g class="st0">
				<g class="st0">
					<path class="st17" d="M538.6,356.5l0,1.1c0-0.2-0.1-0.4-0.2-0.5l0-1.1C538.5,356.2,538.5,356.3,538.6,356.5L538.6,356.5z"/>
				</g>
			</g>
			<g>
				<polygon class="st18" points="539.4,358.3 539.4,359.5 538.6,357.6 538.6,356.5 				"/>
			</g>
			<g class="st0">
				<g class="st0">
					<path class="st14" d="M538.6,357l0,1.1c0-0.2,0-0.3,0-0.5l0-1.1C538.6,356.7,538.6,356.8,538.6,357L538.6,357z"/>
				</g>
			</g>
			<g>
				<polygon class="st13" points="526.2,355 526.2,356.1 522.1,358.5 522.1,357.4 				"/>
			</g>
			<g>
				<polygon class="st13" points="536.5,354 536.5,355.1 530.5,358.6 530.5,357.5 				"/>
			</g>
			<g>
				<polygon class="st10" points="530.5,357.5 530.5,358.6 526.2,356.1 526.2,355 				"/>
			</g>
			<g>
				<polygon class="st19" points="540.9,357.5 540.9,358.6 539.4,359.5 539.4,358.3 				"/>
			</g>
			<g>
				<path class="st20" d="M538.4,356L538.4,356l2.5,1.5l-1.5,0.9l-0.8-1.8C538.5,356.3,538.5,356.2,538.4,356z"/>
			</g>
			<g>
				<polygon class="st21" points="539.7,359 539.7,360.1 539.4,359.5 539.4,358.3 				"/>
			</g>
			<g>
				<polygon class="st13" points="541.6,357.8 541.6,359 539.7,360.1 539.7,359 				"/>
			</g>
			<g>
				<polygon class="st22" points="530.5,357.5 530.5,358.6 526.4,361 526.4,359.9 				"/>
			</g>
			<g>
				<polygon class="st23" points="526.2,355 530.5,357.5 526.4,359.9 522.1,357.4 				"/>
			</g>
			<g>
				<polygon class="st24" points="526.4,359.9 526.4,361 522.1,358.5 522.1,357.4 				"/>
			</g>
			<g class="st0">
				<g class="st0">
					<path class="st14" d="M538.6,357l0,1.1c0,0.4-0.1,0.8-0.3,1.2c-0.1,0.2-0.2,0.3-0.3,0.5c0,0-0.1,0.1-0.1,0.1l0-1.1
						c0,0,0.1-0.1,0.1-0.1c0.1-0.2,0.2-0.3,0.3-0.5C538.5,357.8,538.6,357.4,538.6,357L538.6,357z"/>
					<path class="st25" d="M537.9,358.8l0,1.1c-0.3,0.4-0.8,0.8-1.4,1.1l0-1.1C537.1,359.6,537.6,359.2,537.9,358.8L537.9,358.8z"/>
				</g>
			</g>
			<g>
				<polygon class="st10" points="536.5,359.9 536.5,361 536.4,361.1 536.4,360 				"/>
			</g>
			<g>
				<polygon class="st10" points="534.9,360 534.9,361.1 530.5,358.6 530.5,357.5 				"/>
			</g>
			<g>
				<polygon class="st10" points="539.2,360.2 539.2,361.3 538.3,359.3 538.3,358.2 				"/>
			</g>
			<g>
				<polygon class="st13" points="521.5,357.8 521.5,358.9 517.4,361.3 517.4,360.2 				"/>
			</g>
			<g>
				<polygon class="st16" points="545.7,360.2 545.7,361.3 541.6,359 541.6,357.8 				"/>
			</g>
			<g>
				<polygon class="st13" points="526.4,359.9 526.4,361 525.8,361.4 525.8,360.2 				"/>
			</g>
			<g>
				<polygon class="st10" points="525.8,360.2 525.8,361.4 521.5,358.9 521.5,357.8 				"/>
			</g>
			<g>
				<polygon class="st10" points="538,358.7 538,359.8 537.2,361.6 537.2,360.5 				"/>
			</g>
			<g>
				<path class="st26" d="M538.3,358.2l0.9,2l-2.1,0.3l0.8-1.8C538.1,358.5,538.2,358.3,538.3,358.2z"/>
			</g>
			<g>
				<polygon class="st27" points="539.2,360.2 539.2,361.3 537.2,361.6 537.2,360.5 				"/>
			</g>
			<g>
				<polygon class="st10" points="537.2,360.5 537.2,361.6 536.9,362.2 536.9,361.1 				"/>
			</g>
			<g>
				<polygon class="st10" points="539.5,360.7 539.5,361.8 536.9,362.2 536.9,361.1 				"/>
			</g>
			<g>
				<polygon class="st28" points="534.9,360 534.9,361.1 530.8,363.5 530.8,362.4 				"/>
			</g>
			<g>
				<polygon class="st10" points="536.4,360 536.4,361.1 533.4,362.8 533.4,361.7 				"/>
			</g>
			<g>
				<polygon class="st29" points="536.4,360 536.4,361.1 535.4,363.1 535.4,362 				"/>
			</g>
			<g>
				<polygon class="st30" points="536.4,360 535.4,362 533.4,361.7 				"/>
			</g>
			<g>
				<polygon class="st31" points="535.4,362 535.4,363.1 533.4,362.8 533.4,361.7 				"/>
			</g>
			<g>
				<polygon class="st10" points="533.4,361.7 533.4,362.8 532.7,363.3 532.7,362.1 				"/>
			</g>
			<g>
				<polygon class="st32" points="541.3,362.4 541.3,363.5 539.7,360.1 539.7,359 				"/>
			</g>
			<g>
				<polygon class="st33" points="530.8,362.4 530.8,363.5 526.4,361 526.4,359.9 				"/>
			</g>
			<g>
				<polygon class="st34" points="530.5,357.5 534.9,360 530.8,362.4 526.4,359.9 				"/>
			</g>
			<g>
				<polygon class="st10" points="535.2,362.5 535.2,363.6 532.7,363.3 532.7,362.1 				"/>
			</g>
			<g>
				<polygon class="st35" points="545.7,360.2 545.7,361.3 541.6,363.7 541.6,362.6 				"/>
			</g>
			<g>
				<polygon class="st36" points="541.6,357.8 545.7,360.2 541.6,362.6 541.3,362.4 539.7,359 				"/>
			</g>
			<g>
				<polygon class="st37" points="541.6,362.6 541.6,363.7 541.3,363.5 541.3,362.4 				"/>
			</g>
			<g>
				<polygon class="st38" points="521.6,362.6 521.6,363.7 517.4,361.3 517.4,360.2 				"/>
			</g>
			<g>
				<polygon class="st39" points="521.5,357.8 525.8,360.2 521.6,362.6 517.4,360.2 				"/>
			</g>
			<g>
				<polygon class="st40" points="525.8,360.2 525.8,361.4 521.6,363.7 521.6,362.6 				"/>
			</g>
			<g>
				<polygon class="st35" points="541.6,362.6 541.6,363.7 541.5,363.8 541.5,362.7 				"/>
			</g>
			<g>
				<polygon class="st16" points="542.3,363 542.3,364.1 541.6,363.7 541.6,362.6 				"/>
			</g>
			<g>
				<polygon class="st41" points="541.6,362.6 542.3,363 541.7,363.4 541.5,362.7 				"/>
			</g>
			<g>
				<polygon class="st32" points="541.5,362.7 541.5,363.8 541.3,363.5 541.3,362.4 				"/>
			</g>
			<g>
				<polygon class="st36" points="541.3,362.4 541.6,362.6 541.5,362.7 				"/>
			</g>
			<g>
				<polygon class="st10" points="530.2,362.8 530.2,363.9 525.8,361.4 525.8,360.2 				"/>
			</g>
			<g>
				<polygon class="st16" points="550.5,363 550.5,364.1 546.4,361.7 546.4,360.6 				"/>
			</g>
			<g>
				<polygon class="st13" points="546.4,360.6 546.4,361.7 542.3,364.1 542.3,363 				"/>
			</g>
			<g>
				<polygon class="st13" points="516.7,360.5 516.7,361.6 512.6,364 512.6,362.9 				"/>
			</g>
			<g>
				<polygon class="st13" points="521.6,362.6 521.6,363.7 521,364.1 521,363 				"/>
			</g>
			<g>
				<polygon class="st10" points="521,363 521,364.1 516.7,361.6 516.7,360.5 				"/>
			</g>
			<g>
				<polygon class="st10" points="541.7,363.4 541.7,364.5 541.5,363.8 541.5,362.7 				"/>
			</g>
			<g>
				<polygon class="st13" points="542.3,363 542.3,364.1 541.7,364.5 541.7,363.4 				"/>
			</g>
			<g>
				<polygon class="st10" points="541,364 541,365.1 539.5,361.8 539.5,360.7 				"/>
			</g>
			<g>
				<polygon class="st10" points="536.9,361.1 536.9,362.2 535.2,366 535.2,364.9 				"/>
			</g>
			<g>
				<polygon class="st42" points="539.5,360.7 541,364 535.2,364.9 536.9,361.1 				"/>
			</g>
			<g>
				<polygon class="st43" points="541,364 541,365.1 535.2,366 535.2,364.9 				"/>
			</g>
			<g>
				<polygon class="st44" points="530.2,362.8 530.2,363.9 526.1,366.3 526.1,365.2 				"/>
			</g>
			<g>
				<polygon class="st10" points="532.7,362.1 532.7,363.3 527.9,366 527.9,364.9 				"/>
			</g>
			<g>
				<polygon class="st10" points="535.2,364.9 535.2,366 535.1,366 535.1,364.9 				"/>
			</g>
			<g>
				<polygon class="st45" points="526.1,365.2 526.1,366.3 521.6,363.7 521.6,362.6 				"/>
			</g>
			<g>
				<polygon class="st46" points="525.8,360.2 530.2,362.8 526.1,365.2 521.6,362.6 				"/>
			</g>
			<g>
				<polygon class="st10" points="527.9,364.9 527.9,366 527.2,366.5 527.2,365.4 				"/>
			</g>
			<g>
				<polygon class="st47" points="546.4,360.6 550.5,363 546.4,365.4 542.3,363 				"/>
			</g>
			<g>
				<polygon class="st48" points="546.4,365.4 546.4,366.5 542.3,364.1 542.3,363 				"/>
			</g>
			<g>
				<polygon class="st49" points="550.5,363 550.5,364.1 546.4,366.5 546.4,365.4 				"/>
			</g>
			<g>
				<polygon class="st10" points="535.3,365.4 535.3,366.5 535.1,366 535.1,364.9 				"/>
			</g>
			<g>
				<polygon class="st10" points="541.3,364.5 541.3,365.6 535.3,366.5 535.3,365.4 				"/>
			</g>
			<g>
				<polygon class="st41" points="527.9,364.9 527.7,365.4 527.2,365.4 				"/>
			</g>
			<g>
				<polygon class="st10" points="527.9,364.9 527.9,366 527.7,366.5 527.7,365.4 				"/>
			</g>
			<g>
				<polygon class="st10" points="527.7,365.4 527.7,366.5 527.2,366.5 527.2,365.4 				"/>
			</g>
			<g>
				<polygon class="st50" points="521,363 521,364.1 516.8,366.5 516.9,365.4 				"/>
			</g>
			<g>
				<polygon class="st51" points="516.7,360.5 521,363 516.9,365.4 512.6,362.9 				"/>
			</g>
			<g>
				<polygon class="st52" points="516.9,365.4 516.8,366.5 512.6,364 512.6,362.9 				"/>
			</g>
			<g>
				<polygon class="st10" points="535.1,364.9 535.1,366 534.9,366.6 534.9,365.5 				"/>
			</g>
			<g>
				<polygon class="st41" points="534.9,365.5 535.1,364.9 535.3,365.4 				"/>
			</g>
			<g>
				<polygon class="st13" points="535.3,365.4 535.3,366.5 534.9,366.6 534.9,365.5 				"/>
			</g>
			<g>
				<polygon class="st10" points="525.4,365.6 525.4,366.7 521,364.1 521,363 				"/>
			</g>
			<g>
				<polygon class="st16" points="555.3,365.8 555.3,366.9 551.2,364.5 551.2,363.4 				"/>
			</g>
			<g>
				<polygon class="st13" points="551.2,363.4 551.2,364.5 547.1,366.9 547.1,365.8 				"/>
			</g>
			<g>
				<polygon class="st16" points="547.1,365.8 547.1,366.9 546.4,366.5 546.4,365.4 				"/>
			</g>
			<g>
				<polygon class="st13" points="511.9,363.3 511.9,364.4 507.8,366.8 507.8,365.7 				"/>
			</g>
			<g>
				<polygon class="st53" points="535.2,362.5 535.2,363.6 533.7,366.9 533.7,365.8 				"/>
			</g>
			<g>
				<polygon class="st54" points="535.2,362.5 533.7,365.8 527.9,364.9 532.7,362.1 				"/>
			</g>
			<g>
				<polygon class="st53" points="533.7,365.8 533.7,366.9 527.9,366 527.9,364.9 				"/>
			</g>
			<g>
				<polygon class="st10" points="516.2,365.8 516.2,366.9 511.9,364.4 511.9,363.3 				"/>
			</g>
			<g>
				<polygon class="st13" points="516.9,365.4 516.8,366.5 516.2,366.9 516.2,365.8 				"/>
			</g>
			<g>
				<polygon class="st10" points="533.5,366.3 533.5,367.4 527.7,366.5 527.7,365.4 				"/>
			</g>
			<g>
				<polygon class="st10" points="527.7,365.4 527.7,366.5 526.9,368.1 526.9,367 				"/>
			</g>
			<g>
				<polygon class="st55" points="527.7,365.4 527.7,366.5 526.9,368.1 526.9,367 				"/>
			</g>
			<g>
				<polygon class="st56" points="543.5,367.1 543.5,368.2 541.7,364.5 541.7,363.4 				"/>
			</g>
			<g>
				<polygon class="st57" points="542.3,363 546.4,365.4 543.5,367.1 541.7,363.4 				"/>
			</g>
			<g>
				<polygon class="st58" points="546.4,365.4 546.4,366.5 543.5,368.2 543.5,367.1 				"/>
			</g>
			<g>
				<polygon class="st41" points="546.4,365.4 547.1,365.8 543.8,367.8 543.5,367.1 				"/>
			</g>
			<g>
				<polygon class="st10" points="543.8,367.8 543.8,368.9 543.5,368.2 543.5,367.1 				"/>
			</g>
			<g>
				<polygon class="st13" points="547.1,365.8 547.1,366.9 543.8,368.9 543.8,367.8 				"/>
			</g>
			<g>
				<polygon class="st10" points="542.8,367.8 542.8,368.9 541.3,365.6 541.3,364.5 				"/>
			</g>
			<g>
				<polygon class="st59" points="521,363 525.4,365.6 521.3,368 516.9,365.4 				"/>
			</g>
			<g>
				<polygon class="st60" points="525.4,365.6 525.4,366.7 521.3,369.1 521.3,368 				"/>
			</g>
			<g>
				<polygon class="st61" points="521.3,368 521.3,369.1 516.8,366.5 516.9,365.4 				"/>
			</g>
			<g>
				<polygon class="st62" points="555.3,365.8 555.3,366.9 551.2,369.3 551.2,368.2 				"/>
			</g>
			<g>
				<polygon class="st63" points="551.2,368.2 551.2,369.3 547.1,366.9 547.1,365.8 				"/>
			</g>
			<g>
				<polygon class="st64" points="551.2,363.4 555.3,365.8 551.2,368.2 547.1,365.8 				"/>
			</g>
			<g>
				<polygon class="st10" points="527.2,365.4 527.2,366.5 522.4,369.2 522.4,368.1 				"/>
			</g>
			<g>
				<polygon class="st65" points="511.9,363.3 516.2,365.8 512.1,368.2 507.8,365.7 				"/>
			</g>
			<g>
				<polygon class="st66" points="516.2,365.8 516.2,366.9 512.1,369.3 512.1,368.2 				"/>
			</g>
			<g>
				<polygon class="st67" points="512.1,368.2 512.1,369.3 507.8,366.8 507.8,365.7 				"/>
			</g>
			<g>
				<polygon class="st10" points="520.6,368.4 520.6,369.5 516.2,366.9 516.2,365.8 				"/>
			</g>
			<g>
				<polygon class="st16" points="560.1,368.6 560.1,369.7 556,367.3 556,366.2 				"/>
			</g>
			<g>
				<polygon class="st68" points="551.2,368.2 551.2,369.3 546.7,372 546.7,370.9 				"/>
			</g>
			<g>
				<polygon class="st69" points="551.9,368.6 551.9,369.7 551.2,369.3 551.2,368.2 				"/>
			</g>
			<g>
				<polygon class="st13" points="556,366.2 556,367.3 551.9,369.7 551.9,368.6 				"/>
			</g>
			<g>
				<polygon class="st13" points="507.1,366.1 507.1,367.2 503,369.6 503,368.5 				"/>
			</g>
			<g>
				<polygon class="st10" points="522.4,368.1 522.4,369.2 521.7,369.7 521.7,368.6 				"/>
			</g>
			<g>
				<polygon class="st10" points="511.4,368.6 511.4,369.7 507.1,367.2 507.1,366.1 				"/>
			</g>
			<g>
				<polygon class="st13" points="512.1,368.2 512.1,369.3 511.4,369.7 511.4,368.6 				"/>
			</g>
			<g>
				<polygon class="st70" points="542.8,367.8 542.8,368.9 536.9,369.8 536.9,368.7 				"/>
			</g>
			<g>
				<polygon class="st71" points="536.9,368.7 536.9,369.8 535.3,366.5 535.3,365.4 				"/>
			</g>
			<g>
				<polygon class="st72" points="541.3,364.5 542.8,367.8 536.9,368.7 535.3,365.4 				"/>
			</g>
			<g>
				<polygon class="st55" points="526.9,367 526.9,368.1 526.2,369.8 526.2,368.7 				"/>
			</g>
			<g>
				<polygon class="st73" points="526.2,368.7 526.2,369.8 522.4,369.2 522.4,368.1 				"/>
			</g>
			<g>
				<polygon class="st74" points="527.7,365.4 526.9,367 526.2,368.7 522.4,368.1 527.2,365.4 				"/>
			</g>
			<g>
				<polygon class="st75" points="511.4,368.6 511.4,369.7 510.7,370.1 510.7,369 				"/>
			</g>
			<g>
				<polygon class="st13" points="511.4,368.6 511.4,369.7 510.7,370.1 510.7,369 				"/>
			</g>
			<g>
				<polygon class="st10" points="543,368.3 543,369.4 537.1,370.3 537.1,369.2 				"/>
			</g>
			<g>
				<polygon class="st10" points="534.9,365.5 534.9,366.6 533.2,370.4 533.2,369.3 				"/>
			</g>
			<g>
				<polygon class="st76" points="536.9,368.7 536.9,369.8 533.2,370.4 533.2,369.3 				"/>
			</g>
			<g>
				<polygon class="st10" points="537.1,369.2 537.1,370.3 536.9,369.8 536.9,368.7 				"/>
			</g>
			<g>
				<polygon class="st41" points="525.9,369.2 521.7,368.6 522.4,368.1 526.2,368.7 				"/>
			</g>
			<g>
				<polygon class="st10" points="525.9,369.2 525.9,370.3 521.7,369.7 521.7,368.6 				"/>
			</g>
			<g>
				<polygon class="st10" points="526.2,368.7 526.2,369.8 525.9,370.3 525.9,369.2 				"/>
			</g>
			<g>
				<polygon class="st77" points="535.3,365.4 536.9,368.7 533.2,369.3 534.9,365.5 				"/>
			</g>
			<g>
				<polygon class="st78" points="533.5,366.3 533.5,367.4 532,370.7 532,369.6 				"/>
			</g>
			<g>
				<polygon class="st54" points="533.5,366.3 532,369.6 526.2,368.7 526.9,367 527.7,365.4 				"/>
			</g>
			<g>
				<polygon class="st79" points="532,369.6 532,370.7 526.2,369.8 526.2,368.7 				"/>
			</g>
			<g>
				<polygon class="st80" points="544.7,369.7 544.7,370.8 543.8,368.9 543.8,367.8 				"/>
			</g>
			<g>
				<polygon class="st10" points="533.2,369.3 533.2,370.4 532.9,371 532.9,369.9 				"/>
			</g>
			<g>
				<polygon class="st41" points="536.9,368.7 537.1,369.2 532.9,369.9 533.2,369.3 				"/>
			</g>
			<g>
				<polygon class="st13" points="537.1,369.2 537.1,370.3 532.9,371 532.9,369.9 				"/>
			</g>
			<g>
				<polygon class="st81" points="520.6,368.4 520.6,369.5 516.5,371.9 516.5,370.8 				"/>
			</g>
			<g>
				<polygon class="st10" points="521.7,368.6 521.7,369.7 519.1,371.2 519.1,370.1 				"/>
			</g>
			<g>
				<polygon class="st10" points="531.7,370.2 531.7,371.3 525.9,370.3 525.9,369.2 				"/>
			</g>
			<g>
				<polygon class="st82" points="546.7,370.9 546.7,372 544.7,370.8 544.7,369.7 				"/>
			</g>
			<g>
				<polygon class="st10" points="545.2,370.8 545.2,371.9 544.7,370.8 544.7,369.7 				"/>
			</g>
			<g>
				<polygon class="st83" points="516.5,370.8 516.5,371.9 512.1,369.3 512.1,368.2 				"/>
			</g>
			<g>
				<polygon class="st84" points="516.2,365.8 520.6,368.4 516.5,370.8 512.1,368.2 				"/>
			</g>
			<g>
				<polygon class="st85" points="547.1,365.8 551.2,368.2 546.7,370.9 544.7,369.7 543.8,367.8 				"/>
			</g>
			<g>
				<polygon class="st86" points="556,366.2 560.1,368.6 556,371 551.9,368.6 				"/>
			</g>
			<g>
				<polygon class="st87" points="556,371 556,372.1 551.9,369.7 551.9,368.6 				"/>
			</g>
			<g>
				<polygon class="st88" points="560.1,368.6 560.1,369.7 556,372.1 556,371 				"/>
			</g>
			<g>
				<polygon class="st10" points="519.1,370.1 519.1,371.2 517.7,372 517.7,370.9 				"/>
			</g>
			<g>
				<polygon class="st75" points="510.7,369 510.7,370.1 507.3,372.1 507.3,371 				"/>
			</g>
			<g>
				<polygon class="st89" points="507.3,371 507.3,372.1 503,369.6 503,368.5 				"/>
			</g>
			<g>
				<polygon class="st90" points="507.1,366.1 511.4,368.6 510.7,369 507.3,371 503,368.5 				"/>
			</g>
			<g>
				<polygon class="st10" points="510.7,369 510.7,370.1 507.3,372.1 507.3,371 				"/>
			</g>
			<g>
				<polygon class="st10" points="515.8,371.2 515.8,372.3 511.4,369.7 511.4,368.6 				"/>
			</g>
			<g>
				<polygon class="st13" points="551.9,368.6 551.9,369.7 547.4,372.4 547.4,371.3 				"/>
			</g>
			<g>
				<polygon class="st13" points="561.6,368.6 561.6,369.7 556.8,372.5 556.8,371.4 				"/>
			</g>
			<g>
				<polygon class="st91" points="556,371 556,372.1 551.5,374.8 551.5,373.7 				"/>
			</g>
			<g>
				<polygon class="st16" points="556.8,371.4 556.8,372.5 556,372.1 556,371 				"/>
			</g>
			<g>
				<polygon class="st92" points="551.9,368.6 556,371 551.5,373.7 547.4,371.3 				"/>
			</g>
			<g>
				<path class="st93" d="M537.1,354.4l24.5,14.2l-4.8,2.8L556,371l4.1-2.4l-4.1-2.4l-4.1,2.4l-0.7-0.4l4.1-2.4l-4.1-2.4l-4.1,2.4
					l-0.7-0.4l4.1-2.4l-4.1-2.4l-4.1,2.4l-0.7-0.4l4.1-2.4l-4.1-2.4l-1.9,1.1l-0.3-0.6l1.5-0.9l-2.5-1.4c-0.1-0.3-0.3-0.6-0.5-0.8
					C537.7,354.9,537.4,354.7,537.1,354.4z"/>
			</g>
			<g>
				<path class="st41" d="M536.5,354l-5.9,3.4l-4.3-2.5l-4.1,2.4l4.3,2.5l-0.7,0.4l-4.3-2.5l-4.1,2.4l4.3,2.5L521,363l-4.3-2.5
					l-4.1,2.4l4.3,2.5l-0.7,0.4l-4.3-2.5l-4.1,2.4l4.2,2.5l-0.7,0.4l-0.7,0.4l0.7-0.4l-4.2-2.5l-4.1,2.4l4.2,2.5l-0.8,0.4l-4.9-2.9
					l24.9-14.5C529.2,352.4,533.7,352.4,536.5,354z"/>
			</g>
			<g>
				<polygon class="st10" points="506.5,371.4 506.5,372.5 501.6,369.7 501.6,368.5 				"/>
			</g>
			<g>
				<polygon class="st13" points="507.3,371 507.3,372.1 506.5,372.5 506.5,371.4 				"/>
			</g>
			<g>
				<polygon class="st10" points="544.6,371.6 544.5,372.7 543,369.4 543,368.3 				"/>
			</g>
			<g>
				<polygon class="st10" points="519.1,370.1 519.1,371.2 518.4,372.7 518.4,371.6 				"/>
			</g>
			<g>
				<polygon class="st10" points="532.9,369.9 532.9,371 532,372.9 532,371.8 				"/>
			</g>
			<g>
				<polygon class="st94" points="544.6,371.6 544.5,372.7 538.6,373.6 538.6,372.5 				"/>
			</g>
			<g>
				<polygon class="st95" points="543,368.3 544.6,371.6 538.6,372.5 537.1,369.2 				"/>
			</g>
			<g>
				<polygon class="st96" points="538.6,372.5 538.6,373.6 537.1,370.3 537.1,369.2 				"/>
			</g>
			<g>
				<polygon class="st97" points="525.9,369.2 525.9,370.3 524.4,373.6 524.4,372.5 				"/>
			</g>
			<g>
				<polygon class="st98" points="525.9,369.2 524.4,372.5 518.4,371.6 519.1,370.1 521.7,368.6 				"/>
			</g>
			<g>
				<polygon class="st97" points="524.4,372.5 524.4,373.6 518.4,372.7 518.4,371.6 				"/>
			</g>
			<g>
				<polygon class="st10" points="532,371.8 532,372.9 531.5,374 531.5,372.9 				"/>
			</g>
			<g>
				<polygon class="st10" points="538.9,373 538.9,374.1 538.6,373.6 538.6,372.5 				"/>
			</g>
			<g>
				<polygon class="st10" points="544.8,372.1 544.8,373.2 538.9,374.1 538.9,373 				"/>
			</g>
			<g>
				<polygon class="st10" points="524.2,373 524.2,374.2 518.2,373.2 518.2,372.1 				"/>
			</g>
			<g>
				<polygon class="st10" points="524.4,372.5 524.4,373.6 524.2,374.2 524.2,373 				"/>
			</g>
			<g>
				<polygon class="st99" points="532.7,373.4 532.7,374.5 532,372.9 532,371.8 				"/>
			</g>
			<g>
				<polygon class="st100" points="538.6,372.5 538.6,373.6 532.7,374.5 532.7,373.4 				"/>
			</g>
			<g>
				<polygon class="st101" points="537.1,369.2 538.6,372.5 532.7,373.4 532,371.8 532.9,369.9 				"/>
			</g>
			<g>
				<polygon class="st102" points="531.7,370.2 531.7,371.3 530.2,374.5 530.2,373.4 				"/>
			</g>
			<g>
				<polygon class="st103" points="530.2,373.4 530.2,374.5 524.4,373.6 524.4,372.5 				"/>
			</g>
			<g>
				<polygon class="st104" points="531.7,370.2 530.2,373.4 524.4,372.5 525.9,369.2 				"/>
			</g>
			<g>
				<polygon class="st105" points="551.5,373.7 551.5,374.8 547.4,372.4 547.4,371.3 				"/>
			</g>
			<g>
				<polygon class="st106" points="511.7,373.6 511.7,374.7 507.3,372.1 507.3,371 				"/>
			</g>
			<g>
				<polygon class="st107" points="515.8,371.2 515.8,372.3 511.7,374.7 511.7,373.6 				"/>
			</g>
			<g>
				<polygon class="st108" points="511.4,368.6 515.8,371.2 511.7,373.6 507.3,371 510.7,369 				"/>
			</g>
			<g>
				<polygon class="st13" points="538.9,373 538.9,374.1 533,375.1 533,374 				"/>
			</g>
			<g>
				<polygon class="st10" points="530,374 530,375.1 524.2,374.2 524.2,373 				"/>
			</g>
			<g>
				<polygon class="st41" points="556,371 556.8,371.4 551.6,374.5 545.2,370.8 544.7,369.7 546.7,370.9 551.2,368.2 551.9,368.6 
					547.4,371.3 551.5,373.7 				"/>
			</g>
			<g>
				<polygon class="st13" points="556.8,371.4 556.8,372.5 551.6,375.6 551.6,374.5 				"/>
			</g>
			<g>
				<polygon class="st10" points="551.6,374.5 551.6,375.6 545.2,371.9 545.2,370.8 				"/>
			</g>
			<g>
				<polygon class="st10" points="517.7,370.9 517.7,372 511.7,375.5 511.7,374.4 				"/>
			</g>
			<g>
				<polygon class="st10" points="511.7,374.4 511.7,375.5 506.5,372.5 506.5,371.4 				"/>
			</g>
			<g>
				<path class="st15" d="M536.5,354c0.2,0.1,0.4,0.3,0.6,0.4c0.3,0.2,0.6,0.5,0.8,0.8c0.2,0.3,0.4,0.5,0.5,0.8
					c0.1,0.2,0.1,0.4,0.2,0.5c0.1,0.5,0,1.1-0.3,1.6c-0.1,0.2-0.2,0.3-0.3,0.5c-0.3,0.4-0.8,0.9-1.4,1.2l-0.2,0.1l-2.9,1.7l-0.8,0.4
					l-4.7,2.8l-0.8,0.5l-4.7,2.8l-0.8,0.4l-2.6,1.5l-1.4,0.8l-6,3.5l-5.2-3l0.8-0.4l3.4-2l-3.4,2l4.5,2.6l4.1-2.4l-4.4-2.6l0.7-0.4
					l4.4,2.6l4.1-2.4l-4.4-2.6l0.7-0.4l4.4,2.6l4.1-2.4L521,363l0.7-0.4l4.4,2.6l4.1-2.4l-4.4-2.6l0.7-0.4l4.4,2.6l4.1-2.4l-4.4-2.5
					L536.5,354z"/>
			</g>
			<g>
				<polygon class="st10" points="546.3,375.4 546.3,376.5 544.8,373.2 544.8,372.1 				"/>
			</g>
			<g>
				<polygon class="st10" points="518.2,372.1 518.2,373.2 516.7,376.5 516.7,375.4 				"/>
			</g>
			<g>
				<polygon class="st109" points="524.2,373 524.2,374.2 522.9,376.9 522.9,375.7 				"/>
			</g>
			<g>
				<polygon class="st110" points="540.3,376.2 540.3,377.3 538.9,374.1 538.9,373 				"/>
			</g>
			<g>
				<polygon class="st110" points="540.4,376.3 540.4,377.4 540.3,377.3 540.3,376.2 				"/>
			</g>
			<g>
				<polygon class="st111" points="546.3,375.4 546.3,376.5 540.4,377.4 540.4,376.3 				"/>
			</g>
			<g>
				<polygon class="st10" points="540.6,376.9 540.6,378 540.4,377.4 540.4,376.3 				"/>
			</g>
			<g>
				<polygon class="st112" points="540.4,376.3 540.4,377.4 534.5,378.3 534.5,377.2 				"/>
			</g>
			<g>
				<polygon class="st113" points="538.9,373 540.3,376.2 540.4,376.3 534.5,377.2 533,374 				"/>
			</g>
			<g>
				<polygon class="st114" points="534.5,377.2 534.5,378.3 533,375.1 533,374 				"/>
			</g>
			<g>
				<polygon class="st41" points="540.4,376.3 540.6,376.9 533.8,378 531.5,372.9 532,371.8 532.7,373.4 538.6,372.5 538.9,373 
					533,374 534.5,377.2 				"/>
			</g>
			<g>
				<polygon class="st115" points="544.8,372.1 546.3,375.4 540.4,376.3 540.3,376.2 538.9,373 				"/>
			</g>
			<g>
				<polygon class="st10" points="522.9,375.7 522.9,376.9 522.7,377.4 522.7,376.3 				"/>
			</g>
			<g>
				<polygon class="st116" points="524.2,373 522.9,375.7 522.7,376.3 516.7,375.4 518.2,372.1 				"/>
			</g>
			<g>
				<polygon class="st117" points="522.7,376.3 522.7,377.4 516.7,376.5 516.7,375.4 				"/>
			</g>
			<g>
				<polygon class="st109" points="522.9,375.7 522.9,376.9 522.7,377.4 522.7,376.3 				"/>
			</g>
			<g>
				<path class="st15" d="M545.2,370.8l2.3,5l-6.9,1.1l-0.3-0.6l6-0.9l-1.5-3.3l-5.9,0.9l-0.2-0.5l5.9-0.9l-1.5-3.3l-5.9,0.9
					l-0.2-0.5l5.9-0.9l-1.5-3.3l-5.9,0.9l-0.2-0.5l0-0.1l5.9-0.9l-1.5-3.3l-2.6,0.4l0.3-0.6l2.1-0.3l-0.9-2c0.3-0.5,0.4-1.1,0.3-1.6
					l0.8,1.8l0.3,0.6l1.6,3.5l0.1,0.3l0.3,0.6l1.8,3.8l0.3,0.6l0.9,2L545.2,370.8z"/>
			</g>
			<g>
				<polygon class="st10" points="547.6,375.8 547.5,376.9 540.6,378 540.6,376.9 				"/>
			</g>
			<g>
				<polygon class="st41" points="522.7,376.3 522.4,376.9 515.4,375.8 517.7,370.9 519.1,370.1 518.4,371.6 524.4,372.5 524.2,373 
					518.2,372.1 516.7,375.4 				"/>
			</g>
			<g>
				<polygon class="st10" points="522.7,376.3 522.7,377.4 522.4,378 522.4,376.9 				"/>
			</g>
			<g>
				<polygon class="st10" points="522.4,376.9 522.4,378 515.4,376.9 515.4,375.8 				"/>
			</g>
			<g>
				<polygon class="st118" points="530,374 530,375.1 528.5,378.3 528.5,377.2 				"/>
			</g>
			<g>
				<polygon class="st119" points="530,374 528.5,377.2 522.7,376.3 522.9,375.7 524.2,373 				"/>
			</g>
			<g>
				<polygon class="st120" points="528.5,377.2 528.5,378.3 522.7,377.4 522.7,376.3 				"/>
			</g>
			<g>
				<polygon class="st10" points="533.8,378 533.8,379.1 531.5,374 531.5,372.9 				"/>
			</g>
			<g>
				<polygon class="st10" points="540.6,376.9 540.6,378 533.8,379.1 533.8,378 				"/>
			</g>
			<g>
				<polygon class="st10" points="531.5,372.9 531.5,374 529.2,379.1 529.2,378 				"/>
			</g>
			<g>
				<path class="st15" d="M538,358.7l-0.8,1.8l-0.3,0.6l-1.7,3.8l0,0.1l-0.3,0.6l-1.7,3.8l-0.3,0.6l-0.9,2l-0.5,1.1l-2.3,5l-6.8-1.1
					l0.3-0.6l0.3-0.6l-0.3,0.6l5.9,0.9l1.5-3.3l-5.8-0.9l0.2-0.5l5.8,0.9l1.5-3.3l-5.8-0.9l0.2-0.5l5.8,0.9l1.5-3.3l-5.8-0.9
					l-0.7,1.6l0.7-1.6l0.2-0.5l5.8,0.9l1.5-3.3l-2.5-0.4l0.8-0.4l2,0.3l0.9-2l0.2-0.1C537.2,359.5,537.6,359.1,538,358.7z"/>
			</g>
			<g>
				<polygon class="st10" points="529.2,378 529.2,379.1 522.4,378 522.4,376.9 				"/>
			</g>
		</g>
	</g>
	<path class="st121" d="M751.5,465.3c10.1,5.8,10.1,15.3,0,21.2c-10.1,5.9-26.6,5.9-36.7,0c-10.1-5.9-10.1-15.3,0-21.2
		C725,459.5,741.4,459.5,751.5,465.3z"/>
	<path class="st121" d="M514.4,344.6l-14.3-9c-1.2-0.8-3.2-0.8-4.5-0.2l-30.9,16.5c-1.3,0.7-1.3,1.9-0.1,2.6l14.3,9
		c1.2,0.8,3.2,0.8,4.5,0.2l30.9-16.5C515.6,346.5,515.7,345.3,514.4,344.6z"/>
	<path class="st121" d="M693.7,429.2l-28.9-16.7l-54.9-31.7c-1.1,0.8-2.2,1.6-3.3,2.4c-10.7,7.9-21.2,15.9-31.7,24.1
		c-1.7,1.3-3.3,2.7-5,4l35.1,20.3l92.5-0.2L693.7,429.2z"/>
	<g>
		<g>
			<g>
				<g>
					<path class="st41" d="M615.8,422.2l6.7-5.6c3.8-3.2,6-7.8,6-12.8v-44.4h-2.1v44.4c0,4.3-1.9,8.4-5.2,11.1l-7.5,6.3L615.8,422.2
						z"/>
				</g>
				<polygon class="st122" points="605,429.2 605.1,429.2 605.1,430.7 615.8,422.2 615.9,422.1 614.8,421.5 614.6,421.7 				"/>
				<polygon class="st41" points="605,429.2 605.1,429.2 605.1,430.7 615.8,422.2 615.9,422.1 615.9,420.6 615.1,421.2 614.8,421.5 
					614.6,421.7 				"/>
				<path class="st15" d="M551.6,398.6l53.4,30.6l9.5-7.5l0.2-0.2l0.4-0.3h0.1l0.6-0.5l6-5l0.2-0.2c3.3-2.7,5.2-6.7,5.2-11v-43.1
					l-1-0.5l-33.2-18.4l-11.8-10.8h-2.1v44.4c0,0.3,0,0.5,0,0.8c-0.2,4-2.1,7.8-5.2,10.4c-0.2,0.2-0.4,0.3-0.7,0.5
					C570.2,389.8,561.1,394.2,551.6,398.6z"/>
				<path class="st41" d="M579.1,377l48.2,27.5v-39.9c-3.4-3.3-5.9-5.6-6.2-5.2c-0.8,0.9-31.5-7.6-41.9-9v25.8
					C579.1,376.4,579.1,376.7,579.1,377z"/>
			</g>
			<polygon class="st10" points="605,429.2 551.6,398.6 551.6,400.1 605.1,430.7 			"/>
			<path class="st122" d="M573.2,387.8l48.7,27.8l0.2-0.2c3.3-2.7,5.2-6.7,5.2-11L579.1,377c-0.2,4-2.1,7.8-5.2,10.4
				C573.7,387.5,573.5,387.6,573.2,387.8z"/>
		</g>
		<g>
			<path class="st10" d="M520.1,202.4l1.2,0.2h0l2.4,0.5c0,0.3-0.1,0.5-0.1,0.8c-0.1,0.7-0.1,1.4-0.1,2.2l0.2,25.3l0.6,86.4
				c0,6.7,4.2,14.6,9.3,17.5l155.4,89.4c0.1,0,0.2,0.1,0.3,0.1l-1.2,4.3l5.3-3.1c1.7-1,2.9-3.2,3.1-6.3c0-0.4,0-0.8,0-1.2L695.5,307
				v-0.2c0-4.7-2-9.8-4.9-13.5c-1.3-1.7-2.8-3-4.4-4L530.9,200c-2.2-1.3-4.2-1.4-5.8-0.5v0l-4.4,2.6L520.1,202.4z"/>
			<path class="st41" d="M520.7,202l0.5,0.6h0l2.3,1.3l161.8,91.9l5.3-2.5c-1.3-1.7-2.8-3-4.4-4L530.9,200c-2.2-1.3-4.2-1.4-5.8-0.5
				v0L520.7,202z"/>
			<path class="st10" d="M678.5,299.2l5.8,14.2l11.2-6.4v-0.2c0-4.7-2-9.8-4.9-13.5L678.5,299.2z"/>
			<path class="st15" d="M517.4,209.9l0.1,11.1v0l0.1,14.2l0.6,86.4c0,6.7,4.2,14.6,9.3,17.5l56.9,32.3l61.1,34.6l1.4,0.9l35.9,21.6
				c4.2,2.4,7.6,0.7,8.8-3.7c0.2-0.6,0.3-1.3,0.3-2.1c0-0.4,0-0.8,0-1.2l-0.1-12.7l-0.2-32.8l-0.5-66.3c-0.1-6.8-4.2-14.6-9.3-17.5
				L617.8,256l-0.1-0.1l-21.9-13l-27.8-16.5h0l-32.1-18.2l-9.3-5.3c-3.4-1.9-6.3-1.2-7.9,1.6C517.8,205.8,517.4,207.7,517.4,209.9z"
				/>
			<g>
				<polygon class="st7" points="685.4,306.7 685.4,420.5 632.7,389.7 581.7,359.9 581.4,359.7 558.9,346.6 558.9,346.6 523,325.6 
					523,211.8 566.8,237.3 579.1,244.6 609.2,262.1 637.5,278.6 				"/>
				<polygon class="st123" points="651.1,388.4 553.9,332.3 553.9,252.8 651.1,308.9 				"/>
				<polygon class="st4" points="590.3,293.5 557.1,274.4 557.1,262.2 590.3,281.3 				"/>
				<polygon class="st124" points="627.7,369.5 594.5,350.4 594.5,322.7 627.7,341.9 				"/>
				<polygon class="st41" points="590.3,348.8 557.1,329.7 557.1,278.4 590.3,297.5 				"/>
				<polygon class="st41" points="647.4,350.6 614.3,331.4 614.3,294.9 647.4,314 				"/>
				<polygon class="st41" points="610.2,291.6 595,282.7 595,319.3 610.2,328.1 				"/>
				<polygon class="st41" points="646.5,352.8 631.3,344 631.4,371.5 646.6,380.4 				"/>
				<polygon class="st125" points="549.7,334.4 529.1,322.5 529.1,293.5 549.7,305.4 				"/>
				<polygon class="st125" points="549.7,287.9 529.1,276 529.1,224.3 549.7,236.2 				"/>
				<polygon class="st125" points="549.7,302.3 529.1,290.5 529.1,278.8 549.7,290.7 				"/>
				<polygon class="st125" points="681.6,412.1 655.3,397 655.3,343.9 681.6,359.1 				"/>
				<polygon class="st125" points="681.6,355.5 655.3,340.3 655.3,295.4 681.6,310.6 				"/>
				<polygon class="st41" points="525.3,213.1 525.3,324.3 685.4,417.9 685.4,420.5 523,325.6 523,211.8 				"/>
				<polygon class="st122" points="685.4,420.5 523,325.6 525.3,324.3 685.4,417.9 				"/>
			</g>
		</g>
	</g>
	<g>
		<path class="st122" d="M457,346c0,0.5,0.3,0.9,0.9,1.3l6.1,3.9l0.1-1.4c0-0.2,0.2-0.5,0.5-0.7l-2.1-1.4c-0.2-0.1-0.4-0.3-0.3-0.5
			l0.1-3c0-0.2,0.1-0.4,0.4-0.5l24.9-13.3c0.5-0.3,1.3-0.2,1.7,0.1l5.7,3.6c0-0.4,0-0.8,0.1-1.2c0-0.1,0.1-0.2,0.2-0.3
			c0.3-0.1,0.7-0.1,1,0l4,2.5c0.1,0.1,0.2,0.2,0.2,0.3l-0.1,2l2.9,1.9c0.2,0.1,0.3,0.3,0.3,0.5l-0.1,1.8l2.6-1.4
			c0.6-0.3,0.9-0.8,0.9-1.2c0,1-0.1,2-0.1,3c0,0.5-0.3,0.9-0.9,1.2l-29.9,16c-1.2,0.7-3.2,0.6-4.4-0.2c0,0-14.8-9.6-14.8-10.1
			C456.9,348,457,347,457,346z"/>
		<g>
			<path class="st126" d="M462.5,343.8l24.9-13.3c0.5-0.3,1.3-0.2,1.7,0.1l14,8.8c0.5,0.3,0.5,0.8,0,1l-24.9,13.3
				c-0.5,0.3-1.3,0.2-1.7-0.1l-14-8.8C462,344.5,462.1,344,462.5,343.8z"/>
			<path class="st127" d="M462.5,344.6l24.9-13.3c0.5-0.3,1.3-0.2,1.7,0.1l14,8.8c0.5,0.3,0.5,0.8,0,1l-24.9,13.3
				c-0.5,0.3-1.3,0.2-1.7-0.1l-14-8.8C462,345.3,462.1,344.8,462.5,344.6z"/>
			<path class="st128" d="M467.1,349.1c-0.7-0.4-1.8-0.5-2.5-0.1c-0.7,0.4-0.7,1,0,1.5l2.5,1.6c0.7,0.4,1.8,0.5,2.5,0.1
				c0.7-0.4,0.7-1,0-1.5L467.1,349.1z"/>
			<path class="st122" d="M506.1,337.7c1.2,0.7,1.1,1.9-0.1,2.5l-29.9,16c-1.2,0.7-3.2,0.6-4.4-0.2l-13.9-8.8
				c-1.2-0.7-1.1-1.9,0.1-2.5l29.9-16c1.2-0.7,3.2-0.6,4.4,0.2L506.1,337.7z M462.5,343.8c-0.5,0.3-0.5,0.7,0,1l14,8.8
				c0.5,0.3,1.3,0.3,1.7,0.1l24.9-13.3c0.5-0.3,0.5-0.7,0-1l-14-8.8c-0.5-0.3-1.3-0.3-1.7-0.1L462.5,343.8L462.5,343.8z
				 M464.6,350.5l2.5,1.6c0.7,0.4,1.8,0.5,2.5,0.1c0.7-0.4,0.7-1,0-1.5l-2.5-1.6c-0.7-0.4-1.8-0.5-2.5-0.1
				C463.9,349.4,463.9,350.1,464.6,350.5L464.6,350.5z M500.1,335.2l-4-2.5c-0.3-0.2-0.7-0.2-1,0c-0.3,0.1-0.3,0.4,0,0.6l4,2.5
				c0.3,0.2,0.7,0.2,1,0C500.3,335.6,500.3,335.3,500.1,335.2L500.1,335.2z"/>
			<path class="st128" d="M496,332.6c-0.3-0.2-0.7-0.2-1,0c-0.3,0.1-0.3,0.4,0,0.6l4,2.5c0.3,0.2,0.7,0.2,1,0c0.3-0.1,0.3-0.4,0-0.6
				L496,332.6z"/>
		</g>
	</g>
	<g>
		<path class="st121" d="M450.6,407.4l36.4-21.1c2.4-1.4,6.3-1.4,8.7,0l106.1,61.2c2.4,1.4,2.4,3.7,0,5.1l-36.4,21.1
			c-2.4,1.4-6.3,1.4-8.7,0l-106.1-61.2C448.2,411.1,448.2,408.8,450.6,407.4z"/>
		<g>
			<path class="st41" d="M443.6,399.7c0,0.9,0.6,1.8,1.8,2.5l3.2,1.8l0-4l6.4-3.7l6.3,3.6l-3.6,2.1l-2.7-1.6l-2.8,1.6l2.7,1.5
				l6.4-3.7v0.2l3-1.8c0.3-0.9,0.6-1.8,1.1-2.6l-2-1.2l0-4.1l6.4-3.7l1.4,0.8V386l6.4-3.7l1.4,0.8v-1.6l6.4-3.7l6.3,3.6l0,1l0.9-0.5
				l6.3,3.6l0,1l0.9-0.5l6.3,3.6v1l0.9-0.5l6.2,3.6v1l0.9-0.5l6.3,3.6v1l0.9-0.5l6.3,3.6l0,1l0.9-0.5l6.3,3.6l0,1l0.9-0.5l6.3,3.6v1
				l0.9-0.5l6.3,3.6l0,1l0.9-0.5l6.3,3.6v1l0.9-0.5l6.3,3.6v1l0.9-0.5l6.3,3.6l0,1l0.9-0.5l6.2,3.6h0l0,0l0,1l0.9-0.5l6.3,3.6l0,3.7
				l3.2-1.9l6.3,3.6l0,3.8l3-1.7c1.2-0.7,1.8-1.6,1.8-2.5l0,4.1c0,0.9-0.6,1.8-1.8,2.5l-36.4,21.1c-2.4,1.4-6.3,1.4-8.7,0
				l-106.1-61.2c-1.2-0.7-1.8-1.6-1.8-2.5C443.5,402.5,443.5,401.1,443.6,399.7z"/>
			<g>
				<path class="st123" d="M445.3,397.3l36.4-21.1c2.4-1.4,6.3-1.4,8.7,0l106.1,61.2c2.4,1.4,2.4,3.7,0,5.1l-36.4,21.1
					c-2.4,1.4-6.3,1.4-8.7,0l-106.1-61.2C443,401,442.9,398.7,445.3,397.3z"/>
				<path class="st122" d="M555.8,461.9c-1.2,0-2.3-0.2-3-0.7L446.7,400c-0.1-0.1-0.2-0.1-0.2-0.2c0.1,0,0.1-0.1,0.2-0.1l36.4-21.1
					c0.7-0.4,1.8-0.7,3-0.7c1.2,0,2.2,0.2,3,0.7l106.1,61.2c0.1,0.1,0.2,0.1,0.2,0.2c-0.1,0-0.1,0.1-0.2,0.1l-36.4,21.1
					C558,461.7,556.9,461.9,555.8,461.9z"/>
				<g>
					<polygon class="st7" points="487.3,380.3 481.3,383.8 487.2,387.2 493.2,383.7 					"/>
					<polygon class="st7" points="494,384.2 488,387.7 493.9,391.1 499.9,387.6 					"/>
					<polygon class="st7" points="500.7,388 494.7,391.5 500.6,394.9 506.6,391.4 					"/>
					<polygon class="st7" points="486.6,388.4 480.6,391.9 486.5,395.3 492.5,391.8 					"/>
					<polygon class="st7" points="472.5,388.8 466.5,392.3 472.4,395.7 478.4,392.2 					"/>
					<polygon class="st7" points="507.4,391.9 501.4,395.4 507.3,398.8 513.3,395.3 					"/>
					<polygon class="st7" points="479.3,392.7 473.3,396.2 479.2,399.6 485.2,396.1 					"/>
					<polygon class="st7" points="514.2,395.8 508.1,399.3 514.1,402.7 520.1,399.2 					"/>
					<polygon class="st7" points="486,396.6 480,400.1 485.9,403.5 491.9,400 					"/>
					<polygon class="st7" points="520.9,399.7 514.9,403.2 520.8,406.6 526.8,403.1 					"/>
					<polygon class="st7" points="502.9,397.9 496.9,401.3 513.4,410.9 519.4,407.4 					"/>
					<polygon class="st7" points="534.3,407.4 528.3,410.9 534.2,414.3 540.2,410.8 					"/>
					<polygon class="st7" points="520.2,407.8 514.2,411.3 520.1,414.7 526.1,411.3 					"/>
					<polygon class="st7" points="495,402.4 488.1,406.5 484.1,408.8 482.1,410 492,415.7 498,412.2 495,410.5 502,406.4 					"/>
					<polygon class="st7" points="541.1,411.3 535,414.8 540.9,418.2 547,414.7 					"/>
					<polygon class="st7" points="527,411.7 521,415.2 526.9,418.6 532.9,415.1 					"/>
					<polygon class="st7" points="517.4,414.7 511.4,418.2 517.3,421.6 523.3,418.1 					"/>
					<polygon class="st7" points="547.8,415.2 541.8,418.7 547.7,422.1 553.7,418.6 					"/>
					<polygon class="st7" points="533.7,415.6 527.7,419.1 533.6,422.5 539.6,419 					"/>
					<polygon class="st7" points="524,418.6 518,422.1 524,425.5 530,422 					"/>
					<polygon class="st7" points="554.5,419.1 548.5,422.6 554.4,426 560.4,422.5 					"/>
					<polygon class="st7" points="540.4,419.5 534.4,423 540.3,426.4 546.3,422.9 					"/>
					<polygon class="st7" points="494.8,418.8 488.8,422.3 500.6,429.1 506.6,425.6 					"/>
					<polygon class="st7" points="530.7,422.4 524.7,425.9 530.6,429.3 536.6,425.8 					"/>
					<polygon class="st7" points="561.2,423 555.2,426.5 561.1,429.9 567.1,426.4 					"/>
					<polygon class="st7" points="547.1,423.4 541.1,426.9 547,430.3 553,426.8 					"/>
					<polygon class="st7" points="537.3,426.2 531.3,429.7 537.2,433.1 543.3,429.7 					"/>
					<polygon class="st7" points="567.9,426.8 561.9,430.3 567.8,433.8 573.8,430.3 					"/>
					<polygon class="st7" points="553.9,427.2 547.8,430.7 553.8,434.2 559.8,430.7 					"/>
					<polygon class="st7" points="544,430.1 538,433.6 543.9,437 549.9,433.5 					"/>
					<polygon class="st7" points="574.7,430.7 568.6,434.2 574.6,437.6 580.6,434.1 					"/>
					<polygon class="st7" points="560.6,431.1 554.6,434.6 560.5,438 566.5,434.5 					"/>
					<polygon class="st7" points="550.6,433.9 544.6,437.4 550.5,440.8 556.5,437.3 					"/>
					<polygon class="st7" points="583.6,435.9 577.6,439.4 583.5,442.8 589.5,439.3 					"/>
					<polygon class="st7" points="557.3,437.8 551.3,441.2 557.2,444.7 563.2,441.2 					"/>
					<polygon class="st7" points="507.3,426 501.3,429.5 530.2,446.2 536.2,442.7 					"/>
					<polygon class="st7" points="567.6,435.2 561.6,438.7 576.1,447.1 582.1,443.6 					"/>
					<polygon class="st7" points="563.9,441.6 557.9,445.1 568.8,451.4 574.8,447.9 					"/>
					<polygon class="st7" points="537.1,443.2 531.1,446.7 541.1,452.4 547.1,449 					"/>
					<polygon class="st7" points="548.3,449.7 542.3,453.1 554,459.9 560,456.4 					"/>
					<polygon class="st7" points="479.9,384.6 473.9,388.1 479.8,391.5 485.8,388 					"/>
					<polygon class="st7" points="493.4,392.3 487.3,395.8 493.2,399.2 499.3,395.7 					"/>
					<polygon class="st7" points="458.6,397.8 452.6,401.3 458.5,404.7 464.5,401.2 					"/>
					<polygon class="st7" points="465.3,401.7 464.5,402.1 459.3,405.2 465.2,408.6 471.2,405.1 470.6,404.7 					"/>
					<polygon class="st7" points="471.8,397.8 471,398.3 465.8,401.3 471.7,404.7 477.7,401.2 477.1,400.9 					"/>
					<polygon class="st7" points="527.6,403.6 521.6,407.1 527.5,410.5 533.5,407 					"/>
					<polygon class="st7" points="471.8,405.4 465.8,408.9 471.7,412.3 477.7,408.8 					"/>
					<polygon class="st7" points="504.1,407.1 498.1,410.6 504,414 510,410.5 					"/>
					<polygon class="st7" points="510.8,410.9 504.8,414.4 510.7,417.8 516.7,414.3 					"/>
					<polygon class="st7" points="481.4,411.1 475.4,414.5 487.6,421.6 493.6,418.1 					"/>
					<polygon class="st7" points="546.2,439.9 540.1,443.4 546,446.8 552.1,443.3 546.2,439.9 					"/>
					<polygon class="st7" points="545.5,439.5 539.6,436.1 533.6,439.6 539.5,443 545.5,439.5 					"/>
					<polygon class="st7" points="538.8,435.6 532.9,432.2 526.9,435.7 532.8,439.1 538.8,435.6 					"/>
					<polygon class="st7" points="532.3,431.8 526.4,428.4 520.3,431.9 526.3,435.3 532.3,431.8 					"/>
					<polygon class="st7" points="525.4,427.9 519.5,424.5 513.5,428 519.4,431.4 525.4,427.9 					"/>
					<polygon class="st7" points="518.8,424.1 512.9,420.7 506.9,424.2 512.8,427.6 518.8,424.1 					"/>
					<polygon class="st7" points="512.2,420.2 506.3,416.8 500.3,420.3 506.2,423.7 512.2,420.2 					"/>
					<polygon class="st7" points="505.6,416.5 499.7,413 493.7,416.5 499.6,420 505.6,416.5 					"/>
					<polygon class="st7" points="567.4,452.1 552.9,443.7 546.9,447.2 561.4,455.6 567.4,452.1 					"/>
				</g>
			</g>
		</g>
	</g>
	<path class="st129" d="M505,394.5c4.1-0.4,3.6-2.9,2.2-4c-0.7-0.5-1.6-0.8-2.4-1c-22-5.7-21.5-5.1-39.6,4.2
		c-0.7,0.1-1.2,0.1-1.5,0.1l-39.7-0.9v26.9c17.4-3.7,39.6-8.4,39.6-8.4c2.7,1.1,4.2,1.7,7.5,2.2c11.3,1.7,26.9-1.7,26.9-4.1
		c0-1.9-1.7-3.3-3.5-3.7c-4.1-0.9-5.7,1.7-12.7-1.1c2.6-4.2,7.6-6.4,12.6-5.5c4,0.8,9.3,3.4,13.4,2.9
		C515.8,401.2,507.4,396.7,505,394.5z"/>
	<g>
		<g>
			<g class="st0">
				<g>
					<g class="st0">
						<path class="st41" d="M705.4,467.7l0,4.7c0,3.2,2,6.5,5.9,9.1l0-4.7C707.4,474.2,705.4,470.9,705.4,467.7L705.4,467.7z"/>
						<path class="st41" d="M711.3,476.8l0,4.7c0.3,0.2,0.7,0.4,1,0.6c3.6,2.1,8.2,3.4,12.9,3.9l0-4.7c-4.7-0.5-9.2-1.7-12.9-3.9
							C712,477.2,711.6,477,711.3,476.8L711.3,476.8z"/>
						<path class="st41" d="M725.2,481.2l0,4.7c7.3,0.7,15-0.6,20.6-3.9c4.7-2.7,7-6.3,7-9.8l0-4.7c0,3.6-2.3,7.1-7,9.8
							C740.2,480.7,732.5,481.9,725.2,481.2L725.2,481.2z"/>
					</g>
				</g>
				<g>
					<path class="st123" d="M712.4,457.9c-9.3,5.4-9.3,14.1-0.1,19.5c9.2,5.4,24.2,5.4,33.5,0c9.3-5.4,9.3-14.1,0.1-19.5
						C736.7,452.5,721.7,452.5,712.4,457.9z"/>
				</g>
			</g>
		</g>
		<g>
			<g class="st0">
				<g>
					<g class="st0">
						<path class="st5" d="M716.8,465.3l0,3.3c0,1.7,1,3.4,3.1,4.7l0-3.3C717.8,468.6,716.8,467,716.8,465.3L716.8,465.3z"/>
						<path class="st5" d="M719.9,470l0,3.3c0.2,0.1,0.3,0.2,0.5,0.3c1.9,1.1,4.2,1.8,6.7,2l0-3.3c-2.4-0.2-4.8-0.9-6.7-2
							C720.2,470.2,720,470.1,719.9,470L719.9,470z"/>
						<path class="st5" d="M727.1,472.3l0,3.3c3.8,0.4,7.8-0.3,10.7-2c2.4-1.4,3.6-3.3,3.6-5.1l0-3.3c0,1.8-1.2,3.7-3.6,5.1
							C734.9,472,730.9,472.7,727.1,472.3L727.1,472.3z"/>
					</g>
				</g>
				<g>
					<path class="st4" d="M720.4,460.2c-4.8,2.8-4.8,7.3-0.1,10.1c4.8,2.8,12.6,2.8,17.4,0c4.8-2.8,4.8-7.3,0.1-10.1
						C733.1,457.4,725.3,457.4,720.4,460.2z"/>
				</g>
			</g>
		</g>
		<g>
			<g class="st0">
				<g>
					<g class="st0">
						<path class="st125" d="M758.2,398.8l-33.7,64.8c0,0.6,0.4,1.3,1.2,1.8l33.7-64.8C758.6,400.1,758.2,399.5,758.2,398.8
							L758.2,398.8z"/>
						<path class="st125" d="M759.4,400.6l-33.7,64.8c0.1,0,0.1,0.1,0.2,0.1c0.7,0.4,1.6,0.7,2.5,0.8l33.7-64.8
							c-0.9-0.1-1.8-0.3-2.5-0.8C759.5,400.7,759.4,400.7,759.4,400.6L759.4,400.6z"/>
						<path class="st125" d="M762.1,401.5l-33.7,64.8c1.4,0.1,3.1,0.1,4.1-0.8c0.5-0.4,1.7-2.5,1.7-2.5l33.4-64.3
							c0,0.7-0.5,1.4-1.4,1.9C765.1,401.4,763.6,401.6,762.1,401.5L762.1,401.5z"/>
					</g>
				</g>
				<g>
					<path class="st130" d="M759.6,396.9c-1.8,1.1-1.8,2.8,0,3.8c1.8,1.1,4.8,1.1,6.6,0c1.8-1.1,1.8-2.8,0-3.8
						C764.4,395.9,761.4,395.9,759.6,396.9z"/>
				</g>
			</g>
		</g>
		<g>
			<g class="st0">
				<g>
					<g class="st0">
						<path class="st125" d="M692.8,351.5l64.8,46.7c0,0.7,0.4,1.4,1.2,1.9L694,353.4C693.2,352.9,692.8,352.2,692.8,351.5
							L692.8,351.5z"/>
						<path class="st125" d="M696.9,354.3l64.8,46.7c1.5,0.1,3.2-0.1,4.4-0.8c1-0.6,1.5-1.3,1.5-2.1l-64.8-46.7
							c0,0.7-0.5,1.5-1.5,2.1C700.1,354.2,698.5,354.5,696.9,354.3L696.9,354.3z"/>
					</g>
				</g>
				<g>
					<path class="st131" d="M694.2,349.4c-2,1.1-2,3,0,4.1c1.9,1.1,5.1,1.1,7.1,0c2-1.1,2-3,0-4.1
						C699.4,348.3,696.2,348.3,694.2,349.4z"/>
				</g>
			</g>
		</g>
		<path class="st125" d="M694,353.4l64.8,46.7c0.1,0,0.1,0.1,0.2,0.1c0.8,0.4,1.7,0.7,2.7,0.8l-64.8-46.7c-1-0.1-2-0.4-2.7-0.8
			C694.1,353.5,694.1,353.4,694,353.4L694,353.4z"/>
		<g>
			<g class="st0">
				<g>
					<g class="st0">
						<path class="st5" d="M763.8,394.4l-3.4-2c1.2-0.7,2.4-1,3.4-0.8l3.4,2C766.2,393.4,765,393.7,763.8,394.4L763.8,394.4z"/>
						<path class="st5" d="M767.2,393.6l-3.4-2c0.4,0.1,0.8,0.2,1.1,0.4l3.4,2C767.9,393.8,767.6,393.6,767.2,393.6L767.2,393.6z"/>
					</g>
				</g>
				<g>
					<g class="st0">
						<path class="st5" d="M759.4,409.3l-3.4-2c-1.1-0.7-1.8-2-1.8-4c0-1.5,0.4-3.1,1.1-4.7l3.4,2c-0.7,1.5-1.1,3.2-1.1,4.7
							C757.6,407.2,758.3,408.6,759.4,409.3L759.4,409.3z"/>
						<path class="st5" d="M758.6,400.6l-3.4-2c1.1-2.6,3-4.9,5.2-6.2l3.4,2C761.6,395.7,759.7,398,758.6,400.6L758.6,400.6z"/>
					</g>
				</g>
				<g>
					<path class="st4" d="M763.8,394.4c3.5-2,6.3-0.4,6.3,3.6c0,4-2.8,8.8-6.2,10.8c-3.5,2-6.3,0.4-6.3-3.6
						C757.5,401.3,760.3,396.4,763.8,394.4z"/>
				</g>
			</g>
		</g>
		<g>
			<g>
				<g>
					<path class="st4" d="M667.8,366.5c-12.6,2.9-15.7,12.9-7,22.4c8.7,9.4,25.9,14.7,38.5,11.8c12.6-2.9,15.7-12.9,7-22.4
						C697.6,368.9,680.4,363.6,667.8,366.5z"/>
				</g>
				<path class="st4" d="M656.3,375.3c5.1-15.1,20.9-23.6,35.7-19.1c14.8,4.5,23,20.5,18.8,35.8L656.3,375.3z"/>
			</g>
			<g>
				<g class="st0">
					<g>
						<g class="st0">
							<path class="st5" d="M685.9,336.3l-5.9,19.4c-0.5,1.5,0,3.3,1.5,5.1l5.9-19.4C685.8,339.6,685.4,337.8,685.9,336.3
								L685.9,336.3z"/>
							<path class="st5" d="M687.3,341.4l-5.9,19.4c0.1,0.1,0.2,0.3,0.4,0.4c1.4,1.5,3.3,2.8,5.5,3.7l5.9-19.4
								c-2.2-0.9-4.1-2.2-5.5-3.7C687.6,341.7,687.4,341.5,687.3,341.4L687.3,341.4z"/>
							<path class="st5" d="M693.2,345.5l-5.9,19.4c3.3,1.4,7.2,1.9,10.3,1.2c2.6-0.6,4.2-1.9,4.7-3.6l5.9-19.4
								c-0.5,1.7-2.1,3-4.7,3.6C700.3,347.4,696.5,346.9,693.2,345.5L693.2,345.5z"/>
						</g>
					</g>
					<g>
						<path class="st4" d="M690.6,332.7c-5.2,1.2-6.4,5.3-2.9,9.2c3.6,3.9,10.6,6,15.8,4.9c5.2-1.2,6.4-5.3,2.9-9.2
							C702.8,333.6,695.7,331.5,690.6,332.7z"/>
					</g>
				</g>
			</g>
			<g>
				<g class="st0">
					<g class="st0">
						<g class="st0">
							<path class="st122" d="M691.8,334.2l-0.9,3.2c-0.3,0.9,0,1.9,0.8,2.9l0.9-3.2C691.8,336.1,691.6,335.1,691.8,334.2
								L691.8,334.2z"/>
							<path class="st132" d="M692.6,337.1l-0.9,3.2c0.1,0.1,0.1,0.2,0.2,0.2c0.8,0.9,1.9,1.6,3.1,2.1l0.9-3.2
								c-1.2-0.5-2.3-1.2-3.1-2.1C692.8,337.3,692.7,337.2,692.6,337.1L692.6,337.1z"/>
							<path class="st122" d="M696,339.5l-0.9,3.2c1.9,0.8,4,1.1,5.8,0.7c1.5-0.3,2.4-1.1,2.7-2l0.9-3.2c-0.3,0.9-1.2,1.7-2.7,2
								C700,340.5,697.8,340.2,696,339.5L696,339.5z"/>
						</g>
					</g>
					<g>
						<path class="st122" d="M694.5,332.2c-2.9,0.7-3.6,3-1.6,5.2c2,2.2,6,3.4,8.9,2.7c2.9-0.7,3.6-3,1.6-5.2
							C701.4,332.8,697.4,331.5,694.5,332.2z"/>
					</g>
				</g>
			</g>
		</g>
		<path class="st133" d="M666.4,364.5c-3.2,3.3-3.9,7.7-1.7,9.8c2.2,2.1,6.6,1.1,9.7-2.2c3.2-3.3,3.9-7.7,1.7-9.8
			C673.9,360.2,669.5,361.2,666.4,364.5z"/>
	</g>
	<path class="st7" d="M455.8,629.9c-19.4,12.6-55.8,9.9-78.4-2.6c-1.1-0.6-2.2-1.2-3.2-1.9c-0.4-0.2-0.8-0.5-1.2-0.8
		c-9-6-14.1-13.8-16-31.6c-0.8-8.1,0.2-17.4,1.8-27.1h93.8l2.8,55.1L455.8,629.9z"/>
	<g>
		<g>
			<path class="st134" d="M415.6,412.4c-0.4-0.6-12.3-17.3-18.7-25c-4.7-5.6-11.2-10-18.4-12.3c-15-4.7-29.6,10.1-29.2,23.3
				c0.2,7.2,3.8,13.7,8.7,18.8c6.7,7,16.2,21.3,30.3,31.7C399.5,439.9,410.9,426,415.6,412.4z"/>
			<path class="st129" d="M432.4,363.3l0,2.2l-0.3,19.1c0,0-1.6,2.6-4.6,5.2c0,0-0.1,0-0.1,0c-0.5,0-1-0.1-1.5-0.2
				c-13.9-1.5-30.6,0.6-30.7,0.5l-0.1-30.1l1.7,0.1l25,2.2L432.4,363.3z"/>
			<g>
				<path class="st135" d="M471.9,512.1c-0.2,18.5,2.6,69.7,3.5,85.8c0.2,3.2-1.4,6.2-4.1,7.8c-7.6,4.7-14.4,7.1-22.6,8.5
					c-3.6,0.6-7.4,1.1-11.7,1.4c-16.1,1.3-33.3,0.8-49.1-2c-11.8-2.1-22.8-6.3-31.8-13.5c-2.1-1.7-3.3-4.2-3.4-6.9v0
					c-0.4-17.5,8.8-65.8,8.9-84.6c0.1-32.2-18.1-65.8-17.3-83.8c0.7-15.1-1.6-44.9,43.1-49.9c6.4-0.7,24.7,2.9,43.5,9.6
					c20.1,7.2,39.7,20.5,41.8,42.9c0,0,9.2-1.1,7.5,10.4c-2.5,17.1-5.9,42-7.5,59.8C472.2,503.4,471.9,508.4,471.9,512.1z"/>
			</g>
			<g>
				<path class="st134" d="M475.3,597.9c-0.9-16.2-3.7-67.4-3.5-85.8c0.1-3.7,0.4-8.7,0.9-14.3c1.6-17.8,5-42.7,7.5-59.8
					c1.7-11.5-7.5-10.4-7.5-10.4c-1.4-14.7-10.2-25.5-21.8-33.2c-5.3-0.8-10.1,1.8-14.8,3.7c-20.5,14.3-4.6,46.2-1.4,50.3
					c36.2,47.5,27.5,106.2,26.4,161c0,0.5,0,0.9,0,1.3c3.4-1.3,6.7-3,10.2-5.1C474,604.1,475.5,601.1,475.3,597.9z"/>
			</g>
		</g>
	</g>
	<g>
		<path class="st129" d="M450.9,308.9c4.4,22.3,6,46-4.9,57c-3.5,3.5-8.9,4.6-14.6,4.4c-1.1,0-2.3-0.1-3.4-0.3
			c-6.4-0.8-12.8-2.9-16.7-4.8c-5.8-2.7-14.7-22.2-17.1-28.9c-7.8-21.3,8.5-25.3,21-37.6C427.8,286.5,446.5,286.7,450.9,308.9z"/>
		<path class="st136" d="M436.1,272.5c-6.3-3.7-14.5-5.6-21.7-6.8c-8.3-1.4-16.9-1.1-24.7,2.5c-13.3,6.2-22.1,19.1-26.4,32.7
			c-2.2,7-3.2,14.3-2.7,21.7c0.4,5.2,2.6,9.7,4.2,14.4c6.1,9.4,22,26.8,22.1,26.9c2.6,2.5,8.2,3.7,11.6,4.4
			c5.8,1.1,9.5-3.3,12.2-8.2c2.4-4.4,3.1-9.4,3.7-14.3c0.4-3.2,0.4-7.8,3-10.1c3.9-3.4,9.2,0.8,13.4-1.6c6.5-3.8,4.9-12.6,5.1-18.8
			c0.1-3.6,1-7.3,3.6-9.9c4.2-4.1,9.1-3.9,12.2-10.1C454.5,289.4,449.8,280.7,436.1,272.5z"/>
		<path class="st137" d="M360.9,324.3c0.7,4.5,2.6,8.6,4,12.8c6.1,9.4,22,26.8,22.1,26.9c2.6,2.5,8.2,3.7,11.6,4.4
			c5.8,1.1,9.5-3.3,12.2-8.2c2.4-4.4,3.1-9.4,3.7-14.3c0.4-3.2,0.4-7.8,3-10.1c3.9-3.4,9.2,0.8,13.4-1.6c6.5-3.8,4.9-12.6,5.1-18.8
			c0-1.8,0.3-3.7,0.9-5.4C411.2,307.4,379.8,308.7,360.9,324.3z"/>
		<path class="st129" d="M425.4,336.9c2.9,4.9,2.3,10.7-1.3,12.8c-3.6,2.2-9-0.1-11.9-5c-2.9-4.9-2.3-10.7,1.3-12.8
			C417.2,329.8,422.5,332,425.4,336.9z"/>
		<path class="st138" d="M422.2,338.9c1.5,2.5,1.2,5.4-0.7,6.5c-1.8,1.1-4.5,0-6-2.5c-1.5-2.5-1.2-5.4,0.7-6.5
			C418,335.2,420.7,336.4,422.2,338.9z"/>
	</g>
	<g>
		<polygon class="st4" points="646.5,479.3 602.7,504.6 558.9,479.3 602.7,453.9 		"/>
		<path class="st5" d="M587.9,489.1c1.1,1.3,2.7,2.1,4.4,2.5c2.8,0.6,5.6-0.3,8.3-1.2c5.4-1.8,10.9-3.6,16-6.2
			c2.3-1.2,4.7-2.7,5.8-5.1c0.7-1.5,0.7-3.5-0.6-4.4c-0.8-0.5-1.8-0.5-2.7-0.5c-6.6,0.3-13,2.3-19.2,4.6c-1.5,0.6-3,1.1-4.4,1.9
			c-2.4,1.3-4.4,3.3-5.9,5.6L587.9,489.1z"/>
		<g>
			<polygon class="st122" points="601.7,474.7 598.4,476.7 598.4,491.2 618.9,479.5 618.6,474.7 			"/>
			<g>
				<path class="st122" d="M617.3,480.1c-8,2.2-12.1,4.1-15.9,8.7c-2.6,3.1-6.3,4.3-10.2,2c-2.8-1.6-4.4-3.8-4.4-6.1
					c0-1,0.3-1.9,0.8-3c3.1-6.8,9.8-12.2,17.4-14.1c5.2-1.5,12-0.7,14.9,4c0.1,0.2,0.3,0.4,0.4,0.7c0.1,0.2,0.2,0.4,0.3,0.6
					C621.8,475.4,622.3,478.7,617.3,480.1z"/>
			</g>
			<g>
				<path class="st123" d="M593.4,477c-1.3,1.5-2.3,3.3-2.7,5.3c-0.5,2.4,0.9,5.5,3.6,5.1c2.3-0.3,4.5-1.8,6.5-3
					c3-1.9,5.8-4,8.2-6.6c1.3-1.4,4.1-4,3.4-5.8C609.9,464.5,596,473.9,593.4,477z"/>
			</g>
			<path class="st122" d="M620.6,472.8c-5.2-1.7-10.1-0.8-15,1.6c-0.1,0-0.1-0.1,0-0.1c4-3.3,9.4-4,14.4-2.7
				c0.1,0.2,0.3,0.4,0.4,0.7C620.4,472.5,620.5,472.6,620.6,472.8z"/>
		</g>
	</g>
	<g>
		<path class="st121" d="M688.4,474.9c5.6,3.2,5.6,8.5,0,11.7c-5.6,3.2-14.7,3.2-20.3,0c-5.6-3.2-5.6-8.5,0-11.7
			C673.7,471.6,682.7,471.6,688.4,474.9z"/>
		<g>
			<g>
				<g>
					<g class="st0">
						<g>
							<path class="st139" d="M683.4,478.4l-1.5-0.9c0.3-0.5,0.5-1,0.8-1.5c0.4-0.7,0.7-1.4,1-2.1l1.5,0.9c-0.3,0.7-0.6,1.4-1,2.1
								C684,477.3,683.7,477.8,683.4,478.4z"/>
						</g>
						<g>
							<path class="st140" d="M691.5,458.9l1.5,0.9c0,0,0,0,0,0c0.3,0.2,0.4,1.4-0.2,3.6c-1.2,5.3-3.7,9-7.5,11.2
								c-0.1,0-0.1,0.1-0.2,0.1l-1.5-0.9c0.1,0,0.1-0.1,0.2-0.1c3.8-2.2,6.3-5.8,7.5-11.2C691.9,460.3,691.8,459.2,691.5,458.9
								C691.5,459,691.5,458.9,691.5,458.9z"/>
						</g>
						<g>
							<path class="st4" d="M693.2,456l1.5,0.9c-0.9-0.5-2.4,0-3.8,0.8l-1.5-0.9C690.8,456,692.2,455.4,693.2,456z"/>
						</g>
						<g>
							<path class="st141" d="M687.2,462.4l-1.5-0.9c0.2-1.1,0.2-2.1,0.4-3.1l1.5,0.9C687.4,460.4,687.3,461.4,687.2,462.4z"/>
						</g>
						<g>
							<path class="st4" d="M687.6,459.3l-1.5-0.9c0.4-0.3,2.9-1.4,3.3-1.7l1.5,0.9C690.4,457.9,687.9,459.1,687.6,459.3z"/>
						</g>
						<g>
							<path class="st5" d="M690.9,457.7c2.8-1.6,6-2.2,4.3,5.3c-1.8,7.8-5.8,12.1-9.8,14.4c-0.7,0.4-1.3,0.7-2,1
								c0.3-0.5,0.5-1,0.8-1.5c0.4-0.7,0.7-1.4,1-2.1c0.1,0,0.1-0.1,0.2-0.1c3.8-2.2,6.3-5.8,7.5-11.2c0.5-2.3,0.4-3.4,0.2-3.6
								c-0.3-0.2-1.1,0-2.1,0.6c-0.6,0.4-3.3,1.7-3.7,2c0.2-1.1,0.2-2.1,0.4-3.1C687.9,459.1,690.4,457.9,690.9,457.7z"/>
						</g>
					</g>
				</g>
				<g>
					<g class="st0">
						<g>
							<defs>
								<path id="SVGID_1_" d="M688.2,455.8l-0.1,23.4c0,1.8-1.2,3.7-3.6,5.1c-4.9,2.8-12.8,2.8-17.6,0c-2.5-1.4-3.7-3.3-3.7-5.1
									l0.1-23.4c0,1.9,1.2,3.7,3.7,5.1c4.9,2.8,12.8,2.8,17.6,0C687,459.5,688.2,457.6,688.2,455.8z"/>
							</defs>
							<use xlink:href="#SVGID_1_"  style="overflow:visible;fill:#E03A39;"/>
							<clipPath id="SVGID_2_">
								<use xlink:href="#SVGID_1_"  style="overflow:visible;"/>
							</clipPath>
							<g class="st142">
								<path class="st5" d="M688.2,455.8l-0.1,23.4c0,1.8-1.2,3.7-3.6,5.1c-2,1.2-4.5,1.8-7.1,2l0.1-23.4c2.6-0.2,5.1-0.9,7.1-2
									C687,459.5,688.2,457.6,688.2,455.8L688.2,455.8z"/>
								<path class="st5" d="M677.5,462.9l-0.1,23.4c-3.7,0.3-7.7-0.4-10.6-2c-2.5-1.4-3.7-3.3-3.7-5.1l0.1-23.4
									c0,1.9,1.2,3.7,3.7,5.1C669.8,462.6,673.7,463.2,677.5,462.9L677.5,462.9z"/>
							</g>
						</g>
						<g>
							<path class="st4" d="M684.5,450.7c4.9,2.8,4.9,7.4,0.1,10.2c-4.9,2.8-12.8,2.8-17.6,0c-4.9-2.8-4.9-7.4-0.1-10.2
								C671.7,447.8,679.6,447.8,684.5,450.7z"/>
						</g>
						<g>
							<path class="st143" d="M683.1,451.5c4.1,2.4,4.1,6.2,0,8.6c-4.1,2.4-10.7,2.4-14.8,0c-4.1-2.4-4.1-6.2,0-8.6
								C672.4,449.1,679,449.1,683.1,451.5z"/>
						</g>
						<path class="st144" d="M668.4,460.1c4.1,2.4,10.7,2.4,14.8,0c1.6-0.9,2.5-2,2.9-3.2c-0.4-1.2-1.3-2.3-2.9-3.2
							c-4.1-2.4-10.7-2.4-14.8,0c-1.5,0.9-2.5,2-2.9,3.2C665.8,458,666.8,459.1,668.4,460.1z"/>
					</g>
				</g>
			</g>
			<path class="st145" d="M667.1,450.7c0-2,0.9-3.9,1.5-5.9c0.6-1.9,1-4.1,0.2-5.9c1.2,3.6,3.9,6.8,4.1,10.7c0,1.1-0.1,2.2-0.3,3.3
				c-0.3,1.7-0.9,5-3.1,3.1C667.9,454.7,667.1,452.7,667.1,450.7z"/>
			<path class="st145" d="M670.5,437.2c0.3,1.7,1.4,3.2,2.5,4.5c1.1,1.3,2.3,2.6,3,4.2c1,2.3,0.8,5.1-0.6,7.2
				c-0.4,0.6-0.9,1.2-1.1,1.9c-0.3,1-0.1,2,0.1,3c-0.1-0.7,0.4-1.3,0.9-1.8c0.5-0.5,1.1-0.8,1.6-1.2c1.2-1,1.8-2.6,2.3-4.1
				c0.5-1.4,1-2.9,0.6-4.4c-0.2-0.7-0.7-1.4-1.2-2c-1.6-1.8-3.6-3.1-5-4.9c-0.6-0.7-1.1-1.5-1.4-2.4c-0.3-0.8-0.1-1.8-0.4-2.6
				C671,432.6,670.3,436.3,670.5,437.2z"/>
			<path class="st145" d="M679.2,443.4c0.7,1.1,1.7,2,2.2,3.1c0.5,1,0.7,2.2,0.8,3.4c0.1,1.4,0.2,3-0.5,4.2
				c-0.7,1.3-2.2,2.1-2.7,3.5c0.7-0.2,1.4-0.4,2.1-0.7c0.5-0.2,1.1-0.3,1.5-0.7c1-0.8,1.3-2.1,1.5-3.4c0.3-2.2,0.4-4.5-0.8-6.3
				c-0.8-1.2-2-1.9-3-2.9c-0.8-0.7-1.3-1.5-1.6-2.5C678.5,442,678.8,442.8,679.2,443.4z"/>
		</g>
	</g>
	<path class="st138" d="M568.5,473.1c5.5-1.9,25.1-7.2,30.6-9.1c-0.1,0.1,4.7-0.5,7.2-0.4c0.7,0,1.4,0.1,2,0.3
		c0.6,0.3,1.1,0.8,1.2,1.5c0.1,0.6-0.2,1.2-0.6,1.6c-0.4,0.4-1,0.7-1.5,0.9c-2.3,1-4.8,1.5-7.3,2c-5.8,1.1-11.6,2.2-17.4,3.4
		L568.5,473.1z"/>
	<path class="st129" d="M611.6,482.4c-0.5-0.3-1-0.4-1.5-0.5c-2.9-0.6-1.8-0.4-4.7-0.9c-0.5-0.1-6.7-0.2-7-0.7c-0.2-0.4,0-1,0.4-1.3
		c0.4-0.3,6.5-0.5,7-0.5c2.5-0.3,5.2,0.1,7.6-0.9c0.8-0.3,1.6-0.8,1.7-1.7c0.1-0.7-0.4-1.5-1-1.9c-0.6-0.4-1.4-0.5-2.2-0.6
		c-3-0.4-11.7,0.4-14.7,0.9c-0.3-0.8,6.3-2.2,7.1-2.5c1.5-0.5,7.7-1.1,9.2-1.4c1.4-0.2,2.9-0.3,3.8-1.4c0.4-0.4,0.6-1,0.3-1.5
		c-0.1-0.2-0.3-0.4-0.5-0.5c-2.5-1.7-26.8,0.1-29.5,0.9c-11.6,3.4-15.5,5.3-23.6,4.8c-2.1-0.1-45.1-9.6-55.9-14.7
		c-8.7-4.1-27.6-40.1-34-47.8c-4.7-5.6-9.5-12.6-16.8-14.9c-15-4.7-26.5,11.9-26.1,25.1c0.2,7.2,2.6,13.7,7.5,18.8
		c11.2,11.7,31.8,47.7,60.9,53.2c24.5,4.6,56,2.9,75.1-0.5c0,0,9.8,2,20.2-1.5c3.3-1.1,5.8-4.5,9.3-4.8c3.7-0.4,3.6,0.7,7-0.9
		l0.1-0.1c0.4-0.2,0.7-0.4,0.8-0.8C612.4,483.3,612.1,482.7,611.6,482.4z"/>
	<path class="st135" d="M496.4,434.5c-0.4-0.6-15.8-16.6-22.3-24.2c-4.7-5.6-9.5-12.6-16.8-14.9c-15-4.7-28.6,11.1-28.2,24.3
		c0.7,24,22.5,44.9,36.7,55.3C477,465.9,491.7,448,496.4,434.5z"/>
</g>
</svg>
