<?xml version="1.0" encoding="utf-8"?>
<!-- Generator: Adobe Illustrator 24.0.1, SVG Export Plug-In . SVG Version: 6.00 Build 0)  -->
<svg version="1.1" id="Layer_1" xmlns="http://www.w3.org/2000/svg" xmlns:xlink="http://www.w3.org/1999/xlink" x="0px" y="0px"
	 viewBox="0 0 226.8 226.8" style="enable-background:new 0 0 226.8 226.8;" xml:space="preserve">
<style type="text/css">
	.st0{fill:#F5A81C;}
	.st1{fill:#020202;}
	.st2{fill:#5B7F92;}
	.st3{fill:#FFFFFF;}
	.st4{fill:#789FAF;}
	.st5{fill:#315B6C;}
	.st6{fill:#939799;}
	.st7{fill:#F9C463;}
	.st8{fill:#C6882B;}
	.st9{fill:#F9C362;}
	.st10{fill:#F7C361;}
	.st11{fill:#FDFEFF;}
	.st12{fill:#C2C3C4;}
	.st13{fill:#CD8C2A;}
	.st14{fill:#CB8C2A;}
	.st15{fill:#F7C363;}
	.st16{fill:#73777A;}
	.st17{fill:#C0C0C2;}
	.st18{fill:#C88A2B;}
	.st19{fill:#75797C;}
	.st20{fill:#787B7E;}
	.st21{fill:#BCBDBF;}
	.st22{fill:#050606;}
	.st23{fill:#060506;}
	.st24{fill:#090808;}
	.st25{fill:#F4A81D;}
	.st26{fill:#0C7DBC;}
	.st27{fill:#097DBC;}
	.st28{fill:#373839;}
	.st29{fill:#414042;}
	.st30{fill:#F9F9F9;}
	.st31{fill:#212223;}
</style>
<path class="st0" d="M79,553c-1.3,3.2-2.5,6.6-4,9.7c-1.7,3.5-3.8,6.7-6.7,9.3c-4.1,3.6-9.2,4.2-14,1.7c-0.4-0.2-0.7-0.4-1-0.5
	c-3.6,4.7-7.1,9.4-10.6,14c1.7-0.9,3.4-1.9,5.1-2.8c2.9-1.6,5.8-3.2,8.9-4.6c1.4-0.6,3.2-0.5,4.8-0.7c4.2-0.4,5-0.7,9.1-4.1
	c-2,4.1-4.3,7.6-7.1,10.8c-2.6,3-5.4,5.6-8.8,7.6c-5.1,3-10.7,2.6-15.3-1.2c-0.3-0.3-0.6-0.5-0.8-0.7c-5.5,4.3-10.9,8.6-16.2,12.7
	c0.8-0.2,2-0.5,3.1-0.9c1.2-0.3,2.4-0.7,3.6-1c2.7-0.7,5.4-1.4,8.1-2.1c2.5-0.7,4.9-0.3,7.3,0.2c3.4,0.7,6.4,0.1,9.3-1.8
	c0.2-0.1,0.4-0.2,0.6-0.2c-5.8,6.5-12.5,11.8-20.8,14.8c-6.3,2.3-13.4,1.2-17.7-5.7c-9.5,5.1-19.7,8.3-30.2,11
	c3.4,1.5,6.8,2.8,10,4.3c3.3,1.5,6.4,3.4,8.7,6.4c-1.2,0.7-2.3,1.4-3.5,2.1c-5.6-5-12.1-7.9-19.1-10.3c-2.1-0.7-4-0.7-6,0
	c-6.9,2.4-13.5,5.3-19.1,10.3c-1.1-0.7-2.3-1.3-3.6-2.1c5.1-5.7,12.1-7.9,19-10.6c-10.7-2.7-20.9-5.9-30.4-11.1
	c-0.2,0.2-0.3,0.3-0.4,0.5c-3.5,5.3-9.2,7.5-15.3,5.8c-8.3-2.3-14.9-7.2-20.9-13.3c-0.7-0.7-1.3-1.4-1.9-2.2
	c0.2,0.1,0.4,0.2,0.6,0.3c2.8,1.8,5.9,2.6,9.1,1.7c4.2-1.1,8.3-0.1,12.3,1c3.4,0.9,6.8,1.9,10,2.8c-5.2-4.1-10.7-8.4-16.2-12.7
	c-0.7,0.5-1.7,1.4-2.7,2c-4.5,2.5-9,2.4-13.3-0.2c-6-3.6-10.3-8.8-13.9-14.7c-0.7-1.1-1.3-2.3-1.9-3.4c0,0,0-0.1,0.1-0.2
	c1.7,1.7,3.5,3.2,5.9,3.6c1.4,0.2,2.8,0.2,4.1,0.5c1.9,0.4,3.9,0.7,5.6,1.5c3.8,1.8,7.4,4,11.1,6c0.3,0.2,0.6,0.3,0.9,0.5
	c-3.5-4.6-7.1-9.3-10.6-13.9c-1.5,0.5-3,1.3-4.7,1.6c-4.7,1-8.5-0.7-11.7-4.2c-4.1-4.5-6.7-9.8-8.5-15.6c-0.3-0.9-0.5-1.8-0.8-2.7
	c0.1,0,0.2,0,0.2,0c1.9,3.2,4.8,4.5,8.2,5.3c1.7,0.4,3.5,1.3,4.9,2.4c3.1,2.4,6,5.1,9,7.7c0.2,0.2,0.5,0.4,0.6,0.5
	c-2.3-5.3-4.7-10.6-7-15.9c-1.7,0.2-3.5,0.5-5.4,0.5c-3.6-0.1-6.4-1.8-8.5-4.8c-2.8-4.1-4.1-8.8-4.9-13.6c-0.3-1.9-0.4-3.8-0.4-5.7
	c0.2,0.3,0.3,0.7,0.5,1c0.9,2,2.2,3.6,4.3,4.4c3.6,1.3,6.1,4,8.2,7c1.5,2.2,3.1,4.4,4.7,6.6c-1.1-5.5-2.1-10.9-3.2-16.2
	c-1.9-0.2-3.8-0.2-5.6-0.8c-4.4-1.3-6.3-4.8-7.3-9c-1.1-4.8-0.9-9.7-0.2-14.5c0-0.2,0.1-0.3,0.3-0.8c0.3,3.2,2,5.3,4.4,6.8
	c2.2,1.3,3.3,3.4,4.3,5.6c1.2,2.7,2.4,5.4,4,8c0-5.1,0-10.1,0-15.3c-0.7-0.1-1.7-0.3-2.6-0.5c-4.1-1-6.7-3.9-7.2-8.1
	c-0.6-5.1,0.5-10.3,2.7-15.3c0,0.3,0.1,0.6,0.1,1c0,1.7,0.4,3.2,1.7,4.3c3.1,2.6,3.9,6.2,4.7,9.8c0.4,1.8,0.8,3.7,1.2,5.7
	c-2-0.8-3.1-2.3-4.1-3.8s-1.8-3.1-2.9-4.9c1.1,4.8,3.2,8.6,6.6,11.5c1.3-6,2.6-11.9,3.8-18c-0.3-0.1-0.9-0.3-1.4-0.4
	c-4.2-1.5-6.5-5-5.9-9.4c0.6-4.9,2.5-9.2,5.3-13.3c-0.7,2.7,0.4,4.8,1.8,7c0.6,0.9,1,2.1,1,3.1c0.1,3.2,0,6.5,0,9.8
	c-2.7-2.2-3.3-5.5-4.4-8.6c0,4.2,1.2,8,3.8,11.3c2.4-5.4,4.8-10.8,7.2-16.3c-0.3-0.2-0.8-0.4-1.3-0.7c-3.3-1.9-4.6-5-3.6-8.7
	c1.3-4.5,4-8.2,7.3-11.6c-1.2,2.4-0.1,4.4,0.5,6.6c0.4,1.3,0.2,2.7,0.1,4.1c-0.3,2.5-0.9,4.9-1.4,7.7c-2.3-2.6-2.2-5.6-2.6-8.7
	c-0.8,4-0.3,7.5,1.4,11.1c0.6-0.9,1.1-1.7,1.6-2.4c0.1,0.1,0.1,0.3,0.2,0.4c3.9-0.1,7.4-1.5,10.8-3.3c-2.9,0.6-5.7,1.7-8.8,0.9
	c1.8-1.2,3.5-2.4,5.3-3.4c2.3-1.3,4.7-2,7.4-1.5c1.4,0.2,3-0.3,4.4-0.4c-2.6,3-5.2,6.3-8.8,8.4c-3.2,1.9-6.4,1.8-10.5-0.4
	c-3.1,5-5.5,10.3-7.4,15.9c2.7-0.3,8.1-3,10.4-5.2c-1.7,0.7-3.1,1.4-4.5,1.8c-1.4,0.5-2.9,0.8-4.5,1c3.4-3.7,6.4-7.7,12.2-7.7
	c1.7,0,3.3-0.8,4.8-1.2c-1.9,3.3-3.9,7-6.9,9.9c-2.9,2.9-6.5,3.3-10.3,2.3c-0.5-0.2-1-0.3-1.5-0.5c-2,5.8-3.3,11.6-4.2,17.8
	c3.9-1.9,7-4.3,9.7-7.4c-2.8,1.6-5.4,3.8-8.9,4.5c2-3.6,4.2-6.7,7.3-9c0.8-0.5,1.8-0.8,2.7-1c3.6-0.9,3.6-0.8,6.3-3
	c-1.5,4.4-2.8,8.7-5.4,12.4c-2.5,3.4-6,4.4-10,4.1c-0.5,0-1-0.1-1.6-0.2c-0.8,6.2-1,12.3-0.4,18.7c3.7-2.8,6.5-6,8.7-9.9
	c-2.6,2.4-4.9,5.2-8.7,6.7c0.3-0.8,0.4-1.4,0.7-2c1.1-2.2,2.2-4.5,3.3-6.7c1.1-2.1,2.9-3.3,5.1-4c2.1-0.7,3.9-1.7,5.3-3.7
	c-0.2,1.4-0.3,2.8-0.6,4.2c-0.5,2.4-0.8,4.9-1.6,7.3c-1.7,5.4-5.5,8.3-11.2,8.6c-0.3,0-0.5,0-1,0.1c0.3,5.5,1.4,10.7,3,16
	c0.2-0.9,0.2-1.8,0.5-2.7c0.8-2.9,1.5-5.8,2.7-8.5c0.6-1.4,2.2-2.5,3.6-3.4c2-1.3,3.8-2.7,4.7-5.1c0.1,1.2,0.3,2.5,0.3,3.7
	c0,3.2,0.2,6.5-0.1,9.7c-0.4,5.4-3.8,8.5-8.7,10.2c-0.6,0.2-1.1,0.3-2.1,0.6c2.2,5.4,4.4,10.6,6.6,15.9c0.2-0.1,0.3-0.1,0.5-0.2
	c-0.1-1.4-0.3-2.8-0.3-4.1c0-1.4,0.1-2.9,0.2-4.3c0.2-3.4,1.3-6.3,4.1-8.5c1.9-1.4,2.9-3.4,3.2-5.8c1.5,4.7,3.1,9.4,3.5,14.4
	c0.4,5.5-2.1,9.4-6.8,12.1c-0.2,0.1-0.5,0.3-0.7,0.4c-0.2,0.1-0.5,0.3-1.1,0.6c3.3,4.7,6.6,9.3,9.9,13.9c0.1-0.1,0.3-0.2,0.4-0.3
	c-0.4-1.3-1-2.6-1.3-3.9c-0.5-2.5-0.9-5-1.2-7.5c-0.3-2.4,0.7-4.4,2.1-6.3c2.2-3.1,2.5-4.3,2.2-7.8c1.3,2.4,2.6,4.4,3.6,6.6
	c1.4,3,2.8,5.9,3.8,9.1c1.7,5.3-0.3,9.7-4.3,13.3c-0.3,0.3-0.6,0.5-1.1,0.9c4.6,4.9,9.8,9.1,15.5,12.7c-0.5-0.7-0.9-1.3-1.4-2
	c-2-2.7-3.5-5.7-4.5-8.9c-0.8-2.3-0.7-4.5,0.2-6.8c0.8-2.1,1.6-4.3,1-6.6c-0.2-0.6-0.3-1.1-0.4-1.8c2,2.1,4,4.1,5.9,6.3
	c2.2,2.6,4.4,5.3,6.2,8.1c3,4.8,2.3,9.6-0.6,14.3c-0.2,0.3-0.4,0.7-0.9,1.4c4.2,1.8,8.1,4,12.3,5.3c9,2.8,18,5.1,27.1,7.6
	c0.3,0.1,0.7,0.1,1,0c10-2.5,20.1-4.7,29.7-8.6c3.2-1.3,6.4-2.9,9.6-4.4c-0.2-0.4-0.2-0.6-0.3-0.8c-4.4-6.1-3.6-12.2,0.6-17.4
	c3.3-4.1,6.9-8,10.3-12c-0.1,1.9-0.3,3.6-0.2,5.3c0.1,1.2,0.7,2.4,1.1,3.6c0.7,2,0.8,4,0.1,6.1c-1,3.3-2.6,6.3-4.6,9.1
	c-0.5,0.6-0.9,1.3-1.2,2c5.6-3.6,10.6-7.8,15.3-12.6c-0.3-0.3-0.6-0.5-0.8-0.8c-4.6-3.8-6.3-8.9-4.3-14.5c1.3-3.7,3.3-7.2,5-10.8
	c0.6-1.2,1.3-2.3,2-3.5c-0.4,2.6,0.2,4.9,1.9,6.7c2.8,3.3,2.9,7,2.1,10.9c-0.5,2.5-1.3,5-1.9,7.4c1.8-1.3,8.5-10.6,9.8-13.6
	c-1.1-0.7-2.2-1.2-3.2-2c-3.9-2.9-5.8-6.9-5-11.8c0.8-4.6,2-9.2,3.3-13.8c0.2,3.6,2.8,5.4,4.9,7.6c1.9,1.8,2.2,4.3,2.4,6.6
	c0.2,2.9,0,5.8,0,8.6c1.2-1.3,5.6-11.6,6.6-15.7c-1.1-0.4-2.3-0.7-3.4-1.2c-4.1-1.9-6.6-4.9-7.2-9.5c-0.4-3.3-0.3-11.1,0.4-14
	c0.7,3.3,3,4.6,5.4,6c1.5,0.9,2.7,2.1,3.2,3.9c0.9,3.1,1.6,6.1,2.4,9.2c0.1,0.3,0.1,0.7,0.2,1c0.2,0,0.3,0,0.5,0
	c0.9-5.3,1.8-10.6,2.7-15.8c-1.8-0.3-3.2-0.4-4.6-0.8c-3.6-1-6.3-3.1-7.4-6.7c-1.2-4.1-2-8.4-2.7-12.8c1.7,2.8,4.9,3.1,7.3,4.6
	c1.4,0.9,2.5,2.4,3.6,3.8c1.7,2.3,2.6,5,3.6,8c-3.8-1.5-6.1-4.3-8.7-6.8c2.1,3.9,5,7,8.7,9.9c0.7-6.3,0.4-12.4-0.3-18.3
	c-2.2-0.2-4.4-0.3-6.4-0.7c-2.1-0.4-3.8-1.6-5.1-3.4c-2.8-3.8-4.1-8.2-5.5-12.7c1.5,1.8,3.5,2.4,5.6,2.8c2,0.3,3.7,1.1,5,2.7
	c1.9,2.3,3.7,4.7,5.4,7.2c-3.5-0.4-6.1-2.5-8.8-4.3c0.6,1.8,6.6,6.4,9.9,7.5c-1.4-6.1-2.7-11.9-4-17.5c-2.2,0.2-4.1,0.6-6,0.6
	c-2.6,0-4.9-1.1-6.5-3.2c-2.4-3.1-4.7-6.4-6.8-9.9c2,1.6,4.3,1.6,6.6,1.7c2.3,0,4.1,1.3,5.8,2.7s3.3,3,4.9,4.7
	c-3.2,0.1-5.9-1.4-8.7-2.4c2.9,2.4,6.3,4,10.2,5.2c-1.9-5.8-4.4-11-7.5-16.1c-2.6,1.5-5.3,2.3-8.1,1.4c-1.8-0.6-3.6-1.7-5.1-3
	c-2.3-2-4.3-4.2-6.3-6.6c2.3,1.3,4.7,0.4,7,0.6c1.6,0.1,3.2,0.8,4.7,1.5c2,1,3.8,2.3,5.6,3.6c-3.1,0.6-5.9-0.5-9.1-1.3
	c3.6,2.3,10.1,4,11.3,3.1c0.5,0.7,0.9,1.5,1.4,2.2c1.8-2,2.5-7,1.5-10.7c-0.4,2.9-0.3,5.9-2.6,8.6c-0.6-4-2.1-7.7-1.4-11.6
	c0.1-0.5,0.3-1,0.5-1.4c0.8-1.8,0.9-3.6,0.1-5.4c3.6,3.9,6.9,8,7.6,13.4c0.4,2.8-1,4.9-3.2,6.5c-0.7,0.5-1.4,0.8-2,1.1
	c2.4,5.5,4.8,10.9,7.2,16.2c2.6-3.2,3.7-7.1,3.8-11.3c-1.1,3-1.7,6.3-4.6,8.5c0.4-4.8-1.2-9.9,2.1-14.3c1.2-1.6,1.3-3.5,0.9-5.4
	c2.7,4.1,4.7,8.5,5.2,13.4c0.5,4.4-1.8,7.8-5.9,9.2c-0.5,0.2-1,0.3-1.4,0.4c1.3,6,2.6,11.9,3.9,18c3.4-2.9,5.5-6.7,6.5-11.2
	c-1.8,3.1-3.3,6.5-6.7,8.4c-0.1-0.1-0.3-0.1-0.4-0.2c1-3.9,2-7.8,3.2-11.6c0.3-0.9,1.1-1.7,1.8-2.4c1.8-1.8,3.1-3.8,2.7-6.5
	c0.1,0,0.2,0,0.4,0c0.5,1.9,1.1,3.7,1.6,5.6c0.8,3.2,1.1,6.5,0.8,9.8c-0.4,4.8-3.8,8.3-8.5,8.8c-0.5,0-0.9,0.1-1.3,0.2
	c0,5.1,0,10.2,0,15.3c0.1,0,0.2,0.1,0.3,0.1c0.2-0.4,0.4-0.8,0.6-1.3c1.3-2.8,2.6-5.5,3.8-8.3c0.8-1.8,2.1-3.2,3.7-4.2
	c2.4-1.5,4-3.5,4.3-6.5c0.1,0,0.2,0,0.4,0c0.2,2.6,0.5,5.1,0.5,7.7c0,3.3-0.4,6.7-1.5,9.8c-1.8,4.9-5.9,7.5-11.2,7.1
	c-0.4,0-0.7-0.1-1-0.1c-1.1,5.5-2.1,10.9-3.2,16.4c0.6-0.8,1.2-1.6,1.8-2.4c1.7-2.3,3.3-4.7,5.2-6.9c1.2-1.3,2.7-2.6,4.3-3.4
	c2.9-1.4,5.3-3,6.5-6.2c-0.1,0.9-0.2,1.8-0.2,2.7c-0.1,1-0.2,1.9-0.3,2.9c-0.7,4.1-1.7,8.1-3.8,11.8c-3.2,5.8-7.9,7.8-14.4,6.1
	c-0.2,0-0.4-0.1-0.5-0.1c-2.4,5.4-4.7,10.8-7.1,16.2c1.1-1,2.2-2,3.4-3.1c2-1.7,3.9-3.4,5.9-5.1c1.6-1.4,3.5-2.2,5.5-2.7
	c4.1-0.9,4.4-1.2,7.8-4.9C78.7,552.9,78.8,553,79,553z M-59.5,607.2c-1.1-0.7-2-1.1-2.8-1.7c-0.6-0.5-1.1-0.4-1.7-0.1
	c-1.2,0.5-2.4,1-3.7,1.2c-4,0.8-8,0.6-12,0.2C-73.1,609-66.5,609.4-59.5,607.2z M37.1,606.8c-1.3,0.1-2.6,0.3-3.9,0.3
	c-4.2,0.2-8.3,0.2-12.2-1.8c-0.2-0.1-0.6-0.1-0.9,0c-1,0.6-2,1.2-3.3,2C23.9,609.4,30.5,609,37.1,606.8z M-66.6,586.7
	c0,0.3,0.1,0.5,0.1,0.8c0.4,3.6,1.3,7.2,1.1,10.7c-0.1,2.6,0.7,3.9,2.8,4.8c0.1,0,0.2,0.1,0.5,0.1
	C-62.6,597.2-64.1,591.8-66.6,586.7z M19.5,603.2c1.1-0.7,2-1.2,2.8-1.8c0.3-0.2,0.6-0.8,0.6-1.2c0-2.2-0.2-4.4,0-6.6
	c0.2-2.3,0.7-4.6,1.1-6.9C21.5,591.8,20,597.2,19.5,603.2z M-98.9,586.6c5.4,3,11,4.6,17.2,3.9c-0.4-0.6-0.8-0.9-1.2-1.4
	c-0.7-0.9-1.4-1.4-2.7-0.9c-1.1,0.4-2.4,0.3-3.6,0.2C-92.4,587.9-95.6,587.2-98.9,586.6z M39,590.3c0.1,0.1,0.2,0.3,0.3,0.4
	c6.1,0.4,11.7-1.1,17.1-4.2c-0.2-0.1-0.3-0.2-0.4-0.2c-0.7,0.2-1.4,0.4-2.1,0.6c-3.9,1-7.8,2.1-11.8,1c-0.2-0.1-0.6,0.1-0.8,0.2
	C40.5,588.9,39.7,589.6,39,590.3z M-82.3,570.8c0,0.1-0.1,0.2-0.1,0.3c-0.2,4.2-0.7,8.4-2.6,12.2c-0.1,0.2-0.1,0.7,0.1,0.8
	c0.6,0.8,1.4,1.5,2.2,2.3C-81.5,581.2-81.4,576-82.3,570.8z M39.6,570.9c-0.8,5.2-0.7,10.4,0.6,15.7c0.7-0.8,1.2-1.4,1.8-1.9
	c0.7-0.6,0.7-1.1,0.2-1.9c-0.5-1-1-2.1-1.2-3.2C40.5,576.7,40.1,573.8,39.6,570.9z M68.4,565.4c-0.2-0.1-0.2-0.2-0.2-0.2
	c-0.4,0.2-0.8,0.4-1.2,0.6c-3.5,1.8-7,3.8-11.2,3.4c-0.2,0-0.5,0.2-0.7,0.3c-0.5,0.8-1,1.6-1.6,2.7
	C59.3,571.6,64.1,569.1,68.4,565.4z M-110.8,565.3c4.1,3.8,8.8,6.3,14.7,7c-0.6-1-1-1.8-1.5-2.5c-0.2-0.2-0.6-0.5-0.8-0.5
	c-2.5,0.3-4.8-0.5-7.1-1.5C-107.3,567.1-109,566.1-110.8,565.3z M-92.3,554c-1.5,4.1-2.7,8.2-5.8,11.5c0.6,1,1.1,1.9,1.8,3
	C-94,563.7-92.6,559-92.3,554z M49.7,554c0.3,5,1.7,9.8,4.1,14.5c0.6-1.2,1.2-2.1,1.5-2.8c-1.2-2-2.4-3.8-3.3-5.7
	C51.1,558.1,50.5,556,49.7,554z M75.4,542c-0.2,0.2-0.5,0.4-0.7,0.6c-3,2.6-6,5.2-10.2,5.7c-0.2,0-0.5,0.3-0.5,0.5
	c-0.3,0.8-0.5,1.7-0.8,2.6C67.6,550.3,72.8,546.3,75.4,542z M-105.7,551.6c-0.2-0.6-0.3-1-0.4-1.4c-0.2-1.2-0.7-2-2.2-2.1
	c-1,0-2.1-0.6-3.1-1.2c-2.3-1.5-4.6-3.2-6.8-4.7C-115,546.5-111,549.8-105.7,551.6z M-105.3,548.1c3.1-3.7,5.4-7.7,6.8-12.2
	c-2.3,3.3-4.2,6.8-7.7,9C-105.9,546-105.6,546.9-105.3,548.1z M55.8,535.9c1.4,4.5,3.7,8.5,6.8,12.2c0.3-1.2,0.6-2.2,0.9-3.2
	C60,542.7,58.1,539.1,55.8,535.9z M-119.7,519.8c2.2,4.7,5.2,8.3,9.6,10.9c0-0.6,0-1,0-1.4c0-1-0.2-1.7-1.4-2.1
	c-1.3-0.4-2.5-1.3-3.4-2.3C-116.6,523.4-118,521.7-119.7,519.8z M76.7,520c-0.3,0.4-0.6,0.9-1,1.3c-1.8,2.3-3.7,4.5-6.5,5.8
	c-1.8,0.8-2.1,1.3-1.6,3.5C72,528.1,74.9,524.6,76.7,520z"/>
<path class="st0" d="M-26.9,431.9c0.3-1.8,0.5-3.3,0.8-4.8c0.2-1,0.1-1.8-0.8-2.6c-1.2-1-2.1-2.2-3.3-3.4c1.5-0.2,3-0.4,4.5-0.6
	c1-0.1,1.8-0.4,2.2-1.5c0.6-1.4,1.3-2.8,2.2-4.4c0.8,1.6,1.6,3,2.2,4.4c0.4,1.1,1.2,1.4,2.2,1.5c1.5,0.2,3,0.4,4.5,0.6
	c-1.2,1.2-2.2,2.5-3.4,3.5c-0.8,0.7-0.9,1.5-0.7,2.5c0.3,1.5,0.5,3,0.9,4.8c-1.7-0.9-3.2-1.8-4.7-2.4c-0.5-0.2-1.3-0.2-1.9,0
	C-23.7,430.1-25.2,431-26.9,431.9z"/>
<path class="st0" d="M5.6,431c2.6,1,5,2,7.5,2.9c6.5,2.4,11.6,6.6,15.9,12c-3.7-2.1-7.3-4.2-11-6.3c0,0.1-0.1,0.1-0.1,0.2
	c3.4,2.4,6.9,4.7,10.3,7.1c-0.1,0.1-0.1,0.2-0.2,0.4c-4.5-1.6-9.1-2.9-13.1-5.6C10.8,439,8.3,434.9,5.6,431z"/>
<path class="st0" d="M-48.5,431.1c-4.5,9-12.4,13.8-22.6,16.1c3.8-2.6,7.2-5,10.7-7.4c0-0.1-0.1-0.2-0.1-0.2
	c-3.7,2.1-7.4,4.2-11.2,6.4c0.3-0.5,0.6-0.8,0.8-1.1c4.3-4.9,9.3-8.9,15.6-11.1C-53,433-50.6,432-48.5,431.1z"/>
<path class="st0" d="M-87.8,460.9c-1.3-2-1.4-3.5-0.9-7.8c-1.5,1.9-1.9,7.3-0.6,10.1c-3.7-1.6-5.1-5.3-3.5-8.9
	c1.5-3.2,5.5-7.8,9.1-10.1c-1.7,2.1-1.5,4.1-0.9,6.1c0.1,0.5,0.2,1.2,0,1.6C-85.5,454.8-86.6,457.7-87.8,460.9z"/>
<path class="st0" d="M41.7,444.4c2.6,2,5,4.4,7,7.3c3.5,4.9,2.5,9-2.1,11.6c1.3-3.6,1-7-0.3-10.2c0,1.2,0.1,2.5,0,3.8
	s-0.4,2.5-0.9,3.8c-1.5-4-4.5-7.5-3.2-12.3C42.6,447.1,41.9,445.7,41.7,444.4z"/>
<path class="st0" d="M42.6,460c-1.3,0-2.6,0.1-3.9,0c-1.3-0.1-2.6-0.3-3.9-0.2c1,0.3,2.1,0.6,3.1,0.8c1.1,0.2,2.3,0.4,3.4,0.6
	c1.1,0.1,2.3,0.2,3.7,0.3c-2.1,1.8-4.3,2.6-6.8,2.3c-1.4-0.2-2.9-0.7-4.1-1.4c-2.9-1.8-5.6-3.9-8.3-6.1c2,0.7,3.9,0.2,5.8-0.1
	c1.1-0.2,2.4-0.2,3.5,0.1c2.6,0.8,5.1,1.9,7.6,2.9C42.6,459.5,42.6,459.7,42.6,460z"/>
<path class="st0" d="M-85.2,459.4c2.8-1.6,5.7-2.9,8.9-3.5c0.9-0.2,1.9,0.2,2.9,0.3c1.6,0.1,3.2,0.2,4.8,0.3
	c-3.2,2.5-6.3,5.6-10.6,7c-3,1-5.7,0.1-8.1-1.8c3.4-0.6,6.8-1.1,10.2-1.7c0-0.1,0-0.2-0.1-0.3c-2.6,0.1-5.2,0.3-7.9,0.4
	C-85.2,459.8-85.2,459.6-85.2,459.4z"/>
<path class="st0" d="M-72,436.6c-0.3,1.6-0.5,3-0.8,4.4c-0.2,1.1-0.3,2.2-0.8,3.2c-1.1,2.2-2.5,4.3-3.9,6.7c-1-2.7-0.1-4.9,0.4-7.1
	c-1.7,2.7-2.4,5.5-2,8.7c-2.6-1.3-3.8-4.7-2.2-7.1c1.2-2,2.9-3.7,4.6-5.3C-75.3,438.7-73.6,437.7-72,436.6z"/>
<path class="st0" d="M29.3,436.6c3.5,2.1,6.9,4.5,9.1,8.1c1.8,2.8,1.1,6.1-1.7,7.8c-0.1-1.5-0.1-3-0.5-4.5c-0.3-1.5-1-2.8-1.7-4.2
	c0.4,2.2,1.2,4.4,0.3,7c-1.9-3.6-5-6.4-4.7-10.7C30.2,439,29.6,437.9,29.3,436.6z"/>
<path class="st0" d="M-46.4,426.8c3.1-0.1,5.5-1,5.9-4.6c0.1,0.1,0.3,0.1,0.4,0.2c0.4,0.8,0.9,1.6,1.3,2.5c0.4,1,1,1.4,2.1,1.5
	c0.9,0.1,1.7,0.2,2.9,0.4c-0.8,0.8-1.5,1.5-2.2,2.1c-0.8,0.7-1,1.4-0.8,2.4c0.2,0.9,0.3,1.8,0.4,2.9c-2.5-2.3-5-2.2-7.7,0.3
	c0.1-0.9,0.1-1.4,0.2-1.8c0.8-2.1,0.1-3.7-1.7-5C-45.8,427.6-46,427.2-46.4,426.8z"/>
<path class="st0" d="M1.5,434.2c-2.7-1.8-5.2-2.4-7.6,0.2c-0.1-2.2-1.3-6.1-2.5-7.8c3.3,0.4,5.4-1.1,6.2-4.4c1,3.1,2.7,5,6.3,4.3
	c0,0.2,0,0.3,0,0.5c-0.7,0.6-1.3,1.3-2,1.8c-0.9,0.7-1.1,1.5-0.8,2.5C1.2,432.2,1.3,433.1,1.5,434.2z"/>
<path class="st0" d="M16.7,449c1.8-0.4,3.5-0.9,5.3-1.2c1.3-0.2,2.7-0.2,4,0.1c2.1,0.5,4.2,1.2,6.3,1.8c0,0.2,0,0.4,0,0.6
	c-2.4,0.2-4.8,0.3-7.2,0.5c3.1,0.8,6.2,0.8,9.7,0.5c-1.5,1.8-3.2,2.6-5.2,2.9c-2.4,0.3-4.6-0.6-6.6-1.7
	C20.8,451.4,18.8,450.1,16.7,449z"/>
<path class="st0" d="M-59.4,448.6c-3.2,2.2-6.4,4.4-10.2,5.4c-2.2,0.6-6-0.1-7.5-2.5c1.5,0,3.1,0.1,4.7,0s3.1-0.4,4.6-0.8
	c-2.4-0.2-4.7-0.3-7.1-0.5c3.2-2.2,8.3-3.2,10.7-2.4c0.8,0.3,1.6,0.6,2.4,0.7C-61,448.7-60.2,448.6-59.4,448.6z"/>
<g>
	<path class="st1" d="M-63.1,520.4c-1.6,0-2.9-0.3-3.9-1s-1.7-1.7-2.2-3s-0.7-3-0.7-4.9v-14c0-1.8,0.2-3.3,0.7-4.5
		c0.5-1.3,1.2-2.2,2.2-2.9s2.3-1,4-1c1.2,0,2.3,0.2,3.1,0.6s1.5,0.9,2.1,1.7c0.5,0.7,0.9,1.6,1.1,2.6s0.4,2.2,0.4,3.5v14
		c0,1.9-0.2,3.6-0.7,4.9s-1.2,2.3-2.2,3C-60.2,520-61.5,520.4-63.1,520.4z M-63.1,516.3c0.6,0,1-0.2,1.3-0.5s0.5-0.9,0.6-1.6
		c0.1-0.7,0.1-1.6,0.1-2.7v-14.3c0-1.3-0.1-2.4-0.4-3.1c-0.2-0.7-0.8-1.1-1.6-1.1s-1.4,0.4-1.7,1.1s-0.5,1.7-0.5,3.1v14.3
		c0,1.1,0,2,0.1,2.7s0.3,1.2,0.6,1.6C-64.3,516.2-63.7,516.3-63.1,516.3z M-59.4,525.1l-4.6-5l3-1.6l3.9,4.6L-59.4,525.1z"/>
	<path class="st1" d="M-45.6,520.4c-1.6,0-2.9-0.3-3.9-0.9c-1-0.6-1.7-1.5-2.2-2.7s-0.7-2.7-0.7-4.6v-22.8h4.7v22.7
		c0,0.9,0,1.6,0.1,2.3s0.3,1.2,0.5,1.5c0.3,0.4,0.8,0.5,1.4,0.5c0.7,0,1.1-0.2,1.4-0.5c0.3-0.4,0.5-0.9,0.5-1.5
		c0.1-0.6,0.1-1.4,0.1-2.3v-22.7h4.7v22.8c0,1.9-0.2,3.4-0.7,4.6s-1.2,2.1-2.2,2.7C-42.7,520.1-44,520.4-45.6,520.4z"/>
	<path class="st1" d="M-36.3,520l4.4-30.6h6.2l4.6,30.6h-4.4l-0.7-5.5h-4.9l-0.7,5.5H-36.3z M-30.7,510.8h4l-2.1-15.4h-0.1
		L-30.7,510.8z"/>
	<path class="st1" d="M-18.4,520v-30.6h4.7v26.7h5.9v4L-18.4,520L-18.4,520z"/>
	<path class="st1" d="M-5.2,520v-30.6h4.7V520H-5.2z"/>
	<path class="st1" d="M5.7,520v-26.6H2.1v-4h11.7v4h-3.4V520H5.7z"/>
	<path class="st1" d="M19.6,520v-12.2l-5.2-18.4h4.5l3,11.4H22l2.7-11.4h4.4l-4.9,18.4V520H19.6z"/>
	<path class="st1" d="M-63.9,547.7c-0.9,0-1.6-0.4-2.1-1.2s-0.7-2.1-0.7-3.9v-6.7c0-0.7,0-1.4,0.1-2s0.2-1.1,0.5-1.5
		c0.2-0.4,0.5-0.8,1-1c0.4-0.2,0.9-0.4,1.6-0.4s1.2,0.1,1.6,0.4c0.4,0.2,0.7,0.6,0.9,1s0.3,1,0.4,1.6c0.1,0.6,0.1,1.3,0.1,2v1.3
		h-1.7V535c0-0.8-0.1-1.4-0.2-1.9c-0.2-0.4-0.5-0.6-1-0.6c-0.6,0-0.9,0.2-1.1,0.7s-0.3,1.4-0.3,2.6v6.8c0,1.3,0.1,2.3,0.3,2.9
		c0.2,0.6,0.6,0.9,1.1,0.9c0.6,0,0.9-0.3,1.1-0.9c0.2-0.6,0.3-1.5,0.3-2.9v-2.1h-1.6v-1.3h3v8.4h-1l-0.2-1.1c-0.2,0.4-0.5,0.7-0.8,1
		C-63,547.6-63.4,547.7-63.9,547.7z"/>
	<path class="st1" d="M-52.4,547.8c-0.8,0-1.4-0.2-1.9-0.5c-0.4-0.3-0.8-0.8-1-1.5s-0.3-1.5-0.3-2.5v-12.1h1.7v12.1
		c0,0.6,0,1.2,0.1,1.6c0.1,0.4,0.2,0.8,0.4,1s0.5,0.4,1,0.4s0.8-0.1,1-0.4c0.2-0.2,0.3-0.6,0.3-1c0-0.5,0.1-1,0.1-1.6v-12.1h1.7
		v12.1c0,1-0.1,1.8-0.3,2.5c-0.2,0.6-0.5,1.1-0.9,1.5C-51,547.6-51.6,547.8-52.4,547.8z"/>
	<path class="st1" d="M-45,547.6l2.5-16.3h1.9l2.8,16.3h-1.6l-0.5-3.2H-43l-0.5,3.2H-45z M-42.7,543h2.7l-1.4-8.9l0,0L-42.7,543z"/>
	<path class="st1" d="M-33.3,547.6v-16.3h3.1c0.9,0,1.5,0.1,1.9,0.4c0.4,0.3,0.7,0.7,0.8,1.4c0.1,0.6,0.2,1.4,0.2,2.3
		c0,1-0.1,1.8-0.3,2.5c-0.2,0.6-0.6,1-1.2,1.2c0.3,0,0.6,0.2,0.8,0.4c0.2,0.2,0.3,0.6,0.5,1c0.1,0.5,0.2,1.1,0.2,1.9s0.1,1.8,0.1,3
		c0,0.1,0,0.3,0,0.4c0,0.1,0,0.3,0,0.5s0,0.3,0,0.5s0,0.3,0.1,0.5c0,0.1,0,0.3,0.1,0.3h-1.7c0-0.1-0.1-0.2-0.1-0.3
		c0-0.2,0-0.4-0.1-0.6c0-0.3,0-0.6,0-1s0-0.9,0-1.4s0-1.2,0-2c0-0.7,0-1.2-0.1-1.5c0-0.4-0.2-0.6-0.4-0.7c-0.2-0.1-0.5-0.2-1-0.3
		l-1.3-0.1v8L-33.3,547.6L-33.3,547.6z M-31.6,538.4h1.3c0.4,0,0.7-0.1,0.9-0.2c0.2-0.1,0.3-0.4,0.4-0.9s0.1-1.1,0.1-2v-0.1
		c0-0.7,0-1.3-0.1-1.7s-0.2-0.6-0.4-0.8c-0.2-0.1-0.5-0.2-0.9-0.2h-1.3V538.4z"/>
	<path class="st1" d="M-23.1,547.6l2.5-16.3h1.9l2.8,16.3h-1.6l-0.5-3.2h-3.1l-0.5,3.2H-23.1z M-20.8,543h2.7l-1.4-8.9l0,0
		L-20.8,543z"/>
	<path class="st1" d="M-11.3,547.6v-16.3h1.2l3.9,11.8l-0.2-5.1v-6.7h1.5v16.3h-1.3l-3.7-11.7l0.1,4.3v7.4H-11.3z"/>
	<path class="st1" d="M1.1,547.6v-15h-1.7v-1.4h5v1.4H2.8v15H1.1z"/>
	<path class="st1" d="M8.7,547.6v-16.3h4.6v1.4h-3v5.9h2.8v1.4h-2.7v6.3h3v1.4L8.7,547.6L8.7,547.6z"/>
	<path class="st1" d="M18.2,547.6v-16.3H21c0.9,0,1.5,0.2,2,0.6s0.8,0.9,1,1.6c0.2,0.7,0.3,1.5,0.3,2.4v7.1c0,1.1-0.1,2-0.3,2.7
		s-0.6,1.2-1,1.5s-1.1,0.5-1.9,0.5L18.2,547.6L18.2,547.6z M19.9,546.2H21c0.4,0,0.7-0.1,0.9-0.3s0.4-0.5,0.5-0.9
		c0.1-0.5,0.2-1.1,0.2-2v-7.3c0-1.1-0.1-1.9-0.4-2.4s-0.7-0.7-1.2-0.7h-1.1V546.2z"/>
</g>
<g>
	<path class="st1" d="M386.9,184.6c4.9,0,8.9,0,13,0c2.6,0,3.8,1.2,3.7,3.8c-0.1,5,0.1,10-0.1,15c-0.1,2,0.6,2.5,2.5,2.4
		c2.6-0.2,5.2,0,7.8,0c2.4,0,3.7,1,3.7,3.5c0,10.1,0,20.2,0,30.3c0,2.6-1.3,3.5-3.7,3.5c-6.7,0-13.3,0-20,0c-24.6,0-49.3,0-73.9,0
		c-4.8,0-5.2-0.4-5.2-5.1c0-9.3,0-18.5,0-27.8c0-3.7,0.7-4.4,4.3-4.4c2.3,0,4.6-0.2,6.9,0s2.8-0.7,2.7-2.8c-0.1-4.5-0.1-8.9,0-13.4
		c0-4.5,0.5-4.9,5.1-4.9c1.1,0,2.3,0,3.6,0c-1.4-5.7-2.2-11.6,0.8-16.4c10.8-17.1,8.8-35.6,6.8-54.2c-0.8-7.3-2.1-14.6-3.1-21.9
		c-0.2-1.8-1-2.5-2.8-2.9c-8.4-1.7-14-8.1-14.7-16.7c-0.2-3.1-0.3-6.2,0-9.3c0.7-10.1,8.2-17.2,18.5-17.4c7.5-0.2,15-0.1,22.5,0
		c6.6,0.1,11.9,2.9,15.4,8.5c0.9,1.4,1.9,1.9,3.5,2c12.1,1.4,24.1,2.9,36.2,4.5c1.2,0.2,2.1,0.2,2.8-1.2c0.5-1.2,1.8-1.3,2.9-1.6
		c11.1-3.1,22.2-6.2,33.3-9.3c3.7-1,4.5-0.6,5.6,3.1c1.2,4.1,2.3,8.2,3.4,12.3c1.4,4.9,0.6,9.3-3,12.9c-1,1-0.9,1.8-0.6,3
		c1.6,5.7,3.1,11.4,4.8,17.1c1.9,6.6,0.3,12.1-5.3,16.2c-1.2,0.8-1.3,1.6-1,2.9c1,3.2,1.8,6.4,2.7,9.6c0.5,2,1.1,4.1-1.5,4.9
		c-2.6,0.8-3.4-1.3-3.9-3.3c-0.9-3.2-1.8-6.4-2.6-9.6c-0.4-1.4-1-1.9-2.5-2.1c-6.6-0.7-10.8-4.3-12.6-10.7c-1.7-5.9-3.3-11.8-5-17.7
		c-1.4,0-1.9,1.2-2.7,1.9c-7.6,6.8-16,11.9-26.4,13.1c-11.3,1.3-21-2.5-30-9.1c-1.4-1-2.7-2.3-4.1-3.3c-0.8-0.6-1.4-2.1-2.5-1.5
		s-0.1,1.9,0.1,2.8c3.3,11.5,6.6,22.9,10,34.4c0.1,0.4,0.2,0.8,0.3,1.2c1,5.3,3.2,8.8,8.8,11.5c14.3,6.9,16.7,26,5.4,37.2
		C393.8,178.6,390.6,181.3,386.9,184.6z"/>
	<path class="st2" d="M411.7,218.3c0,4.6,0,9.1,0,13.7c-1.2,1.1-2.7,1-4.1,1c-16.2,0-32.4,0-48.5,0c-1.2,0-2.5,0-3.6-0.6
		c-0.7-0.4-0.8-1.1-0.8-1.9c-0.3-3-3.6-4.6-6.2-3c-0.8,0.5-1,1.2-0.9,2.1c0.1,0.8,0.5,1.6,0,2.4c-1.7,0.8-3.4,1.6-4.5-0.8
		c1.7-3.3,0.8-4.9-2.8-4.9c-5.8,0-11.6-0.1-17.4,0c-1.9,0-2.9-0.4-2.7-2.5c0.5-4.1-0.9-8.3,0.6-12.4c0.5,0.6,0.7,1.2,0.9,2
		c0.8,3.9,0.8,3.9,4.7,3.9c26.7,0,53.4,0,80,0C408.1,217.3,410.1,217,411.7,218.3z"/>
	<path class="st0" d="M396.5,151.6c0.7,0.9,1.1,1.9,1,3.1c0.2,6.6-3.5,11.1-8.1,15c-4.9,4.2-9.1,9-14.1,13c-0.9,0.7-1.8,1.4-2.8,1.9
		c-9.3,0-18.6,0.1-27.9,0.1c-0.5,0-1,0-1.3-0.6c-1.3-7.4,1.3-13.1,6.8-17.9c6.2-5.5,12.5-10.9,18.6-16.5
		C377,142.2,389.3,142.7,396.5,151.6z"/>
	<path class="st0" d="M331.7,78c-0.3-0.4-0.5-0.9-0.8-1.3c-0.2-2.8-0.4-5.6-0.7-8.3c-0.7-7,5.2-13.9,13-14.3
		c8.3-0.4,16.6-0.4,24.9,0c3.8,0.2,6.9,2.1,8.6,5.7c0.4,2.6,0.4,5.1,0.4,7.7c-0.1,8.6-5.2,14.4-13.7,14.9c-7.4,0.5-14.9,0.3-22.4,0
		C337.3,82.4,334.2,80.8,331.7,78z"/>
	<path class="st3" d="M404.8,79.1c7.2,0.4,14.3,0.8,21.5,1c2.8,0.1,3.7,2.4,5.5,3.7c0.8,0.5-0.4,1.2-0.8,1.6
		c-14.4,13.1-30.7,15.9-47.3,4.5c-6.5-4.5-6.5-4.6-1.8-10.9c0.8-1.1,1.8-0.9,2.8-0.8C391.3,78.5,398,78.9,404.8,79.1
		C404.7,79.2,404.7,79.2,404.8,79.1z"/>
	<path class="st4" d="M411.7,218.3c-28.7,0-57.4,0-86.1,0c-5.7,0-4.9,0.7-5-5c0-0.6,0-1.2,0-1.9c2.1-0.1,4.1-0.2,6.2-0.2
		c26.9,0,53.7,0,80.6,0c4.9,0,4.4-0.7,4.4,4.5C411.8,216.7,411.7,217.5,411.7,218.3z"/>
	<path class="st5" d="M343,231.3c1.4,1.2,2.9,0.9,4.5,0.3c2.4-1.6,4.9-0.9,7.4-0.3c1,1.2,2.3,0.7,3.5,0.7c17.8,0,35.6,0,53.4,0
		c0.4,5.6,0.4,5.6-5.2,5.6c-27.6,0-55.2,0-82.9,0c-3.4,0-4.7-1.9-3.5-5c0.5-1.4,1.7-1,2.6-1C329.5,231.4,336.2,231.4,343,231.3z"/>
	<path class="st6" d="M362.5,89.8c3.8-0.9,3.9,1.9,4.3,4.4c-1.1,0.9-2.2,1.6-1.6,3.5c3.1,10.9,6.1,21.8,9.2,32.7
		c0.6,2.1,1.4,3.9,3.3,5c-3.8,0.8-7.5,1.7-10.6,4c-1.7,1.3-1.8-0.1-2.1-1.2c-2.5-8.1-5-16.2-7.4-24.3c-1.9-6.3-3.8-12.7-5.6-19
		c-0.1-1.4,1-1.3,1.8-1.5c1.2-0.2,2.5-0.3,3.7-0.1C360.1,93.7,362,92.9,362.5,89.8z"/>
	<path class="st7" d="M396.5,151.6c-1.7-0.6-2.9-2-4.3-3c-6.4-4.8-15.6-4.5-21.6,0.7c-6.9,6-13.7,12-20.5,18
		c-4.5,3.9-6.9,8.7-6.4,14.8c0.1,0.7,0.1,1.5-0.4,2.1c-3-6.5-1.9-14.5,3.4-19.6c7.4-7,14.9-13.9,22.9-20.2
		C378.6,137.3,391.8,141,396.5,151.6z"/>
	<path class="st6" d="M463,106.7c-2,3.1-4.9,4.1-8.3,3.5c-3.3-0.6-5.6-2.7-6.5-6c-1.2-4.2-2.3-8.4-3.4-12.6c-0.8-2,0-3.1,1.9-3.7
		c1.5-0.4,3-0.9,4.5-1.3c5.2-1.3,4.1-0.1,4.8-5.1c1.3-0.6,2.9-1.7,3.1,0.8c0.1,1.6,3.3,4.2-1.1,4.9c-1.8,0.3-3.6,0.8-5.4,1.4
		c-1.5,0.5-2.5,1.6-2,3.3c0.5,1.6,1.7,2.3,3.4,1.9c1.9-0.5,3.8-1,5.7-1.5C460.6,97.2,462.7,101.8,463,106.7z"/>
	<path class="st0" d="M432.3,75.5c-1.6-2.5-1-3.7,2-4.3c3.1-0.6,6.1-1.7,9.2-2.5c2.4-0.6,3.5-1.9,2.7-4.5c0.4-1.2,1.3-1.2,2.3-0.9
		c1.4,2,3.2,2.8,5.6,1.5c1.8-1,0.5-3,1.5-4.1c1.7-0.8,3.4-2,5.4-1c0.8,1.3,1,2.9,1.3,4.3c0.8,6-0.1,7.7-5.9,9.5
		c-4.8,1.5-9.7,2.9-14.6,4.1C438.4,78.6,434.8,79.1,432.3,75.5z"/>
	<path class="st8" d="M397.9,193.3c0,3.5,0,7.1,0.1,10.6c0,1.5-0.6,1.9-2,1.9c-20,0-39.9,0-59.9,0c-1.1,0-2.1,0-2.1-1.5
		c0.1-4.6-0.6-9.3,0.3-13.9c1,0.9,1,2.1,1,3.2c0.2,1.6,0.2,3.1,0.1,4.7c-0.1,2.6,1.1,3.6,3.5,3.4c0.5,0,1,0,1.6,0
		c16.9,0,33.9,0,50.8,0c4.9,0,4.9,0,5.1-4.9c0-1,0-2.1,0.5-3C397.2,193.4,397.5,193.2,397.9,193.3z"/>
	<path class="st9" d="M397.9,193.3c-0.2,0-0.4,0-0.5,0.1c-1.2,1-2.7,0.9-4.1,0.9c-18.2,0-36.4,0-54.6,0c-1.4,0-2.9,0.2-4.1-1
		c-0.1-1-0.2-2-0.2-3c0.9-0.1,1.8-0.3,2.7-0.3c19.3,0,38.6,0,57.9-0.1C397.6,190,398.6,190.8,397.9,193.3z"/>
	<path class="st10" d="M376.2,59.8c-2.1-3.1-5.1-4.8-8.8-4.9c-7.7-0.1-15.4,0-23.1-0.1c-7.6,0-13.9,6.4-13.1,13.5
		c0.3,2.7,0.4,5.6-0.3,8.4c-2.2-5.7-2.2-11.6-0.3-17.3c1.7-5.2,6-7.9,11.5-8.1c7.8-0.2,15.5-0.2,23.3,0c5.4,0.2,9.4,2.8,11.5,8
		C376.9,59.9,376.7,60.1,376.2,59.8z"/>
	<path class="st11" d="M350.1,153.9c2.9-15,1.5-29.2-0.1-43.6c0.9,1.1,1.1,2.1,1.4,3.1c2.9,9.4,5.7,18.8,8.7,28.2
		c0.7,2.3,0.3,3.6-1.5,5C355.9,148.6,353.3,151.1,350.1,153.9z"/>
	<path class="st12" d="M377.6,135.5c-2,0-3-0.7-3.5-2.8c-3.2-11.9-6.7-23.8-10.1-35.7c-0.8-2.8,0.9-2.9,2.8-2.7
		c0.4,0.9,1,1.8,1.3,2.7c3.5,11.8,6.9,23.6,10.2,35.4C378.6,133.4,379.8,134.9,377.6,135.5z"/>
	<path class="st6" d="M424.3,68.5c0.6,0.5,0.4,1.3,0.6,1.9c0.8,2.1-0.5,2.5-2.2,2.5c-6.2-0.1-12.4-0.6-18.6-1
		c-5.6-0.4-11.1-0.7-16.7-1.1c-1.3-0.1-2.7,0-3.8-1c-0.1-0.2-0.1-0.3,0-0.5c-0.4-1.7-0.3-3.4-0.1-5.1c0.7-0.8,1.7-0.7,2.6-0.6
		C398.9,65.2,411.6,66.6,424.3,68.5z"/>
	<path class="st13" d="M376.2,59.8c0.2-0.2,0.5-0.3,0.7-0.5c1.9,5.7,1.9,11.5-0.1,17c-1.8,5-6,7.7-11.3,7.8
		c-7.8,0.2-15.5,0.2-23.3,0c-4.5-0.1-8.2-2-10.5-6.1c4.2,2.8,8.7,3.9,13.8,3.7c5.5-0.2,11,0,16.5-0.1c7.7,0,14.8-5.2,14.2-14.1
		C376,65,376.2,62.4,376.2,59.8z"/>
	<path class="st14" d="M372.4,184.6c5.1-4.8,10-9.8,15.3-14.4c4.9-4.2,8.4-9.1,9.7-15.5c2,6.9-0.1,12.7-5.1,17.5
		c-4.1,4-8.5,7.6-12.8,11.4C377.4,185.5,374.8,184.5,372.4,184.6z"/>
	<path class="st15" d="M448.4,63.6c-0.8,0-1.5,0.2-2.2,0.6c-1.3-1.2-2.7-1.3-4.3-0.8c-3.5,1.1-7,1.9-10.5,3
		c-1.6,0.5-1.9-0.2-2.3-1.5c-0.4-1.4-0.3-2.1,1.3-2.5c9.2-2.5,18.4-5,27.5-7.7c1.5-0.4,2.1,0,2.4,1.3c0.2,1.2,0.5,2.4,0.8,3.6
		c-1.8,0.5-3.6,0.9-5.4,1.4C453,61.3,450.5,61.7,448.4,63.6z"/>
	<path class="st16" d="M383.6,69.9c10,0.1,20,0.9,29.9,1.8c3.3,0.3,6.6-0.4,9.9,0.5c1.5,0.4,1.3-0.9,1.5-1.8c0.2,0.7,0.4,1.4,0.7,2
		c0.8,1.9,0,2.3-1.8,2.2c-12.3-0.6-24.6-1.2-37-1.8C384.9,72.8,382.8,72.8,383.6,69.9z"/>
	<path class="st17" d="M424.3,68.5c-2.6,1.7-5.2,0.1-7.7-0.1c-8.2-0.7-16.4-1.9-24.6-2.9c-2.8-0.3-5.5-0.9-8.2-1.3
		c-0.4-2.3-0.3-2.3,3.1-1.9c11.7,1.4,23.5,2.9,35.2,4.3C423.3,66.7,424.4,66.9,424.3,68.5z"/>
	<path class="st18" d="M432.3,75.5c3.5,2.6,7.3,2.2,11.2,1c3.9-1.3,8-2.2,11.9-3.4c4.7-1.4,7.3-2.2,6.8-8.9
		c2.2,6.1,0.5,9.6-5.5,11.3c-5.4,1.5-10.8,3.1-16.2,4.5C436.6,80.9,433.7,79.3,432.3,75.5z"/>
	<path class="st19" d="M456,81.7c1.6,4.4,1.3,4.8-3,5.6c-2.1,0.4-4.2,1.1-6.3,1.5c-1.7,0.3-2.1,1.4-2,2.9c-0.1-0.1-0.2-0.2-0.2-0.2
		c-2.1-6.4-2.1-6.4,4.3-8.2C451.2,82.7,453.5,81.6,456,81.7z"/>
	<path class="st20" d="M362.5,89.8c0.1,0.6,0.1,1.2,0.3,1.8c0.7,2-0.1,2.5-2,2.6c-3,0.2-6.1-0.9-9,0.7c-2-5.2-2-5.2,3.3-5.2
		C357.5,89.7,360,89.8,362.5,89.8z"/>
	<path class="st21" d="M463,106.7c-1.9-4.1-2.6-8.6-3.8-12.9c-0.1-0.4,0.3-0.9,0.5-1.4c1.4-0.7,2.5-0.9,2.8,1.2
		c0.6,3.2,2.3,6.2,1.9,9.6C464.4,104.4,464.1,105.8,463,106.7z"/>
	<path class="st16" d="M386.9,62.3c-1,0.6-3.4-1.1-3.1,1.9c-0.1,1.7-0.1,3.5-0.2,5.2c-0.7-1.5-0.3-3-0.4-4.5
		C383.1,61.3,383.3,61.2,386.9,62.3z"/>
	<path class="st22" d="M354.8,231.3c-2.4,0.8-4.9,0.1-7.4,0.3c-1.3-1.5-1.9-3.4,0-4.5c2.2-1.4,4.9-1.2,7.1-0.1
		C356.3,227.9,355.9,229.7,354.8,231.3z"/>
	<path class="st23" d="M390.6,159c0.1,5.5-4.2,9.9-9.7,10c-5.4,0.1-10-4.3-10.2-9.7c-0.2-5.5,4.4-10.2,9.9-10.2
		C386.1,149.1,390.6,153.5,390.6,159z"/>
	<path class="st23" d="M353.7,77.4c-5.7,0.1-10.1-4.3-10.1-10c0-5.5,4.3-9.9,9.8-10s10.1,4.4,10.2,10
		C363.6,72.8,359.1,77.4,353.7,77.4z"/>
	<path class="st24" d="M448.4,63.6c1.7-3,3.9-3.8,7.3-2.4c1.1,2.4,0.5,4-2.1,4.8C451.1,66.8,449,66.7,448.4,63.6z"/>
	<path class="st25" d="M334.5,193.4c21,0,41.9,0,62.9,0c0,2.1-0.2,4.2,0,6.2c0.3,2.6-0.9,3.1-3.2,3.1c-18.9-0.1-37.8-0.1-56.7,0
		c-2.5,0-3.4-0.7-3.1-3.1C334.6,197.6,334.5,195.5,334.5,193.4z"/>
	<path class="st26" d="M380.7,154.6c2.4-0.1,4.3,1.8,4.4,4.2c0.1,2.7-1.8,4.6-4.3,4.6c-2.4,0-4.4-1.8-4.5-4.2
		C376.1,156.9,378.2,154.7,380.7,154.6z"/>
	<path class="st27" d="M353.5,71.8c-2.6,0-4.4-1.9-4.3-4.6c0.1-2.5,1.9-4.2,4.4-4.2s4.5,2.2,4.4,4.6
		C357.9,69.9,355.8,71.8,353.5,71.8z"/>
</g>
<g>
	<path class="st28" d="M181.1,84.1c-1.5-3.9-2-9.4-0.3-13c3.3-7.1,1.8-11.4-3.8-16.4c-3.1-2.8-6-7.6-6.1-11.6
		c-0.2-7.9-3.7-11-10.6-13.3c-4-1.3-8.8-4.3-10.5-7.8c-3.6-7.5-8.5-8.5-15.9-7.5c-4.1,0.4-9.7-0.3-12.8-2.8c-6.3-4.9-10.8-4-17,0
		c-3.7,2.3-9.2,3.9-13.4,3.1c-7.3-1.3-11,0.9-14.7,7.1c-2.3,3.8-6.5,7.6-10.6,8.7c-7.3,1.9-9.5,5.8-10.3,12.7
		c-0.4,4.4-2.5,9.7-5.7,12.5c-5.5,5-6.4,9.3-3.7,15.9c1.7,3.9,2.2,9.5,0.5,13c-3.6,7.4-1.8,11.8,3.9,17c3,2.8,5.6,7.6,5.7,11.7
		c0.5,7.4,3.5,10.6,10.3,12.8c4.2,1.4,9,4.4,11,8.2c3.6,6.4,7.8,8.8,14.7,7c6-1.6,10.6-0.1,15.6,3.5c2.4,1.8,7.6,3.2,9.8,1.9
		c7.6-4.8,14.6-9.5,25.2-4c2.5-2.8,5.5-5.1,7.5-8.3c2.9-4.7,5.6-9.2,11.8-9.7c6.7-0.6,9.6-4.4,9.6-11.2c0-5.1,0.3-10.4,5.5-13.5
		C183.8,96.2,183.9,90.9,181.1,84.1z M113.8,134.5c-31.6,0.1-57-25.2-57-56.8c0-31.3,25.2-56.7,56.4-56.7
		c31.3,0,56.6,25.2,56.7,56.4C170.1,109,145,134.3,113.8,134.5z"/>
	<path class="st14" d="M64.5,129c3.6,3.8,7.2,6.3,9.3,9.6c5.2,8.8,5.7,9.6,16,7.6c7.2-1.4,12.8,0.4,17.7,6.6
		c-10.9,18.9-22,38-33.7,58.4c-3.5-8-6.7-14.6-9.3-21.3c-1.5-4-3.8-5.2-7.8-4.9c-7.8,0.8-15.8,1.1-25.4,1.5
		C42.4,167.3,53,149,64.5,129z"/>
	<path class="st14" d="M119.6,153.4c6.4-6.4,12.7-10.4,21.5-7.2c5.6,1.9,9.2-0.9,11.9-5.6c2.2-3.9,5-7.4,8.5-12.5
		c11.7,20.3,22.4,38.7,33.9,58.6c-9.3-0.4-17-0.8-24.7-1.5c-4.7-0.4-7.2,0.8-8.8,5.4c-2.3,6.5-5.5,12.8-9.1,20.8
		C141.6,191.4,130.6,172.7,119.6,153.4z"/>
	<path class="st0" d="M113.4,28.4c-27.3,0-49.3,22-49.4,49.5c-0.1,27.3,22.2,49.5,49.4,49.5c27.2,0,49.5-22.2,49.4-49.5
		C162.7,50.5,140.7,28.4,113.4,28.4z M104.9,101.5C97.4,93.9,89.8,86.2,81.6,78c1.9-2.1,4.3-4.6,7.2-7.6
		c5.4,5.2,10.6,10.2,16.2,15.6c10.5-11.2,20.9-22.1,31.7-33.7c3.6,3.9,6.1,6.5,8.4,8.8C131.5,74.7,118.2,88.1,104.9,101.5z"/>
	<path class="st26" d="M145.1,61.1c-13.6,13.6-26.9,27.1-40.2,40.4C97.4,93.9,89.8,86.2,81.6,78c1.9-2.1,4.3-4.6,7.2-7.6
		c5.4,5.2,10.6,10.2,16.2,15.6c10.5-11.2,20.9-22.1,31.7-33.7C140.3,56.1,142.8,58.8,145.1,61.1z"/>
</g>
<g>
	<g>
		<path class="st29" d="M27.1,268.9c-0.9-0.1-1.6-0.3-2.2-0.8c-0.8-0.6-1.4-1.3-1.7-2.2c-0.3-1-0.5-2.2-0.5-3.5V253
			c0-1.2,0.2-2.2,0.5-3.2c0.4-1,1-1.7,1.7-2.2c0.9-0.5,1.9-0.8,2.9-0.8s1.7,0.1,2.3,0.5c0.7,0.3,1.1,0.7,1.6,1.2
			c0.5,0.6,0.7,1.3,0.9,2c0.2,0.8,0.2,1.6,0.2,2.5v9.4c0,1.2-0.2,2.4-0.5,3.5c-0.3,1-0.9,1.8-1.6,2.2l1.7,2.1l-2.2,2.1L27.1,268.9z
			 M27.8,250.6c-0.5,0-0.7,0.2-0.7,0.4c-0.2,0.4-0.3,1.1-0.3,1.9v9.6c0,0.7,0,1.3,0.1,1.7s0.2,0.7,0.3,0.9c0.1,0.1,0.3,0.2,0.6,0.2
			c0.3,0,0.4-0.1,0.5-0.2c0.2-0.2,0.2-0.5,0.3-0.9c0.1-0.5,0.1-1,0.1-1.7v-9.6c0-0.8-0.1-1.5-0.3-1.9
			C28.3,250.6,28.2,250.6,27.8,250.6z"/>
		<path class="st30" d="M27.9,247.5c0.8,0,1.5,0.1,2.1,0.4c0.6,0.3,1,0.6,1.4,1.1s0.6,1.1,0.8,1.8s0.2,1.5,0.2,2.4v9.4
			c0,1.3-0.2,2.4-0.5,3.3c-0.3,0.9-0.8,1.6-1.5,2c-0.1,0.1-0.3,0.2-0.4,0.2l-0.8-0.9l-2,1.1l0.2,0.2c-0.9,0-1.6-0.3-2.2-0.7
			c-0.7-0.5-1.2-1.1-1.5-2s-0.5-2-0.5-3.3v-9.4c0-1.2,0.2-2.2,0.5-3s0.8-1.5,1.5-1.9C25.9,247.8,26.8,247.5,27.9,247.5 M27.8,265.8
			c0.4,0,0.7-0.1,0.9-0.4c0.2-0.3,0.3-0.6,0.4-1.1s0.1-1.1,0.1-1.8v-9.6c0-0.9-0.1-1.6-0.3-2.1c-0.2-0.5-0.5-0.7-1.1-0.7
			s-1,0.2-1.2,0.7s-0.3,1.2-0.3,2.1v9.6c0,0.8,0,1.4,0.1,1.8s0.2,0.8,0.4,1.1C27,265.7,27.4,265.8,27.8,265.8 M30,268.1l1.8,2.2
			l-1.5,1.4l-2.9-3.2c0.1,0,0.3,0,0.4,0C28.7,268.5,29.4,268.3,30,268.1 M27.9,246.5c-1.2,0-2.2,0.3-3.2,0.8
			c-0.9,0.5-1.5,1.3-1.9,2.4c-0.4,1-0.6,2.1-0.6,3.4v9.4c0,1.3,0.2,2.5,0.6,3.6c0.3,1,0.9,1.8,1.9,2.5c0.7,0.5,1.4,0.7,2.3,0.8
			l2.7,2.9l0.7,0.7l0.7-0.7l1.5-1.4l0.7-0.6l-0.6-0.7l-1.1-1.3c0.6-0.5,1.1-1.2,1.4-2.1c0.4-1.1,0.6-2.3,0.6-3.6v-9.4
			c0-0.9,0-1.8-0.2-2.7c-0.2-0.7-0.5-1.5-1-2.1s-1-1-1.7-1.4C29.8,246.6,28.9,246.5,27.9,246.5L27.9,246.5z M27.6,251.1
			c0,0,0.1,0,0.2,0s0.1,0,0.1,0s0,0,0,0.1c0.1,0.3,0.2,0.8,0.2,1.7v9.6c0,0.6,0,1.2-0.1,1.6s-0.1,0.6-0.2,0.7h-0.1
			c-0.1,0-0.2,0-0.2,0c-0.1-0.2-0.2-0.5-0.2-0.7c-0.1-0.3-0.1-0.9-0.1-1.6v-9.6C27.3,251.9,27.4,251.4,27.6,251.1
			C27.5,251.1,27.5,251.1,27.6,251.1L27.6,251.1L27.6,251.1z"/>
	</g>
	<g>
		<path class="st29" d="M39.6,269c-1.1,0-2.1-0.2-2.8-0.7c-0.8-0.5-1.4-1.1-1.7-2.1c-0.4-1-0.5-2-0.5-3.3v-15.8h4.1v15.8
			c0,0.6,0,1,0.1,1.4c0.1,0.3,0.2,0.7,0.3,0.8s0.3,0.3,0.6,0.3c0.5,0,0.5-0.1,0.6-0.2c0.2-0.2,0.2-0.5,0.3-0.8
			c0.1-0.3,0.1-0.8,0.1-1.4v-15.8h4.1V263c0,1.3-0.2,2.3-0.5,3.3c-0.3,0.9-0.9,1.6-1.7,2.1C41.7,268.7,40.7,269,39.6,269z"/>
		<path class="st30" d="M44.2,247.7V263c0,1.3-0.2,2.3-0.5,3.1c-0.3,0.8-0.8,1.4-1.5,1.8s-1.6,0.6-2.6,0.6c-1.1,0-1.9-0.2-2.6-0.6
			c-0.7-0.4-1.2-1-1.5-1.8c-0.3-0.8-0.5-1.8-0.5-3.1v-15.3h3.1V263c0,0.6,0,1.1,0.1,1.5s0.2,0.8,0.4,1c0.2,0.2,0.5,0.4,1,0.4
			s0.8-0.1,1-0.4c0.2-0.3,0.3-0.6,0.4-1c0.1-0.4,0.1-0.9,0.1-1.5v-15.3H44.2 M45.2,246.7h-1h-3.1h-1v1V263c0,0.5,0,1-0.1,1.3
			c-0.1,0.3-0.1,0.5-0.2,0.6c0,0-0.1,0-0.2,0c-0.1,0-0.2,0-0.3-0.1s-0.1-0.4-0.2-0.6c-0.1-0.3-0.1-0.7-0.1-1.3v-15.3v-1h-1h-3.1h-1
			v1v15.3c0,1.3,0.2,2.4,0.6,3.5c0.4,1,1,1.8,1.9,2.3s1.9,0.7,3.1,0.7c1.2,0,2.3-0.3,3.1-0.7c0.9-0.5,1.6-1.3,1.9-2.3
			c0.4-1,0.6-2.1,0.6-3.5v-15.3L45.2,246.7L45.2,246.7z"/>
	</g>
	<g>
		<path class="st29" d="M52.7,268.8l-0.5-3.7h-2.4l-0.4,3.7h-4.1l3-21.6h5.1l3.3,21.6H52.7z M51.7,261.6l-0.8-6l-0.8,6H51.7z"/>
		<path class="st30" d="M52.9,247.7l3.1,20.6h-2.9l-0.5-3.7h-3.3l-0.4,3.7h-3.1l2.9-20.6H52.9 M49.6,262.1h2.7l-1.4-10.4L49.6,262.1
			 M53.8,246.7h-0.9h-4.2h-0.9l-0.1,0.9l-2.9,20.6l-0.2,1.1h1.2h3.1h0.9l0.1-0.9l0.3-2.8h1.5l0.4,2.8l0.1,0.9h0.9H56h1.2l-0.2-1.1
			l-3.1-20.7L53.8,246.7L53.8,246.7z M50.7,261.1l0.2-1.6l0.2,1.6H50.7L50.7,261.1z"/>
	</g>
	<g>
		<polygon class="st29" points="57.4,268.9 57.4,247.2 61.5,247.2 61.5,265.2 65.5,265.2 65.5,268.9 		"/>
		<path class="st30" d="M61,247.7v18h4v2.7h-7.1v-0.1v-20.6H61 M62,246.7h-1h-3.1h-1v1v20.6v0.1v1h1H65h1v-1v-2.7v-1h-1h-3v-17
			V246.7L62,246.7z"/>
	</g>
	<g>
		<rect x="66.3" y="247.2" class="st29" width="4.1" height="21.6"/>
		<path class="st30" d="M69.9,247.7v20.6h-3.1v-20.6H69.9 M70.9,246.7h-1h-3.1h-1v1v20.6v1h1h3.1h1v-1v-20.6V246.7L70.9,246.7z"/>
	</g>
	<g>
		<polygon class="st29" points="73.6,268.8 73.6,250.9 71.2,250.9 71.2,247.2 80.1,247.2 80.1,250.9 77.8,250.9 77.8,268.8 		"/>
		<path class="st30" d="M79.6,247.7v2.7h-2.3v17.9h-3.2v-17.9h-2.4v-2.7L79.6,247.7 M80.6,246.7h-1h-7.9h-1v1v2.7v1h1h1.4v16.9v1h1
			h3.2h1v-1v-16.9h1.3h1v-1v-2.7V246.7L80.6,246.7z"/>
	</g>
	<g>
		<polygon class="st29" points="83,268.8 83,260.1 79.3,247.2 83.4,247.2 85,253.3 86.4,247.2 90.5,247.2 87,260.1 87,268.8 		"/>
		<path class="st30" d="M89.8,247.7l-3.3,12.4v8.2h-3v-8.2L80,247.7h3l2,7.7l1.8-7.7H89.8 M91.1,246.7h-1.3h-3H86l-0.2,0.8l-0.9,3.8
			l-1-3.8l-0.2-0.7h-0.8h-3h-1.3l0.4,1.3l3.5,12.3v8.1v1h1h3h1v-1v-8.1l3.3-12.3L91.1,246.7L91.1,246.7z"/>
	</g>
	<g>
		<path class="st29" d="M99.8,269c-1.4,0-2.5-0.6-3.4-1.7c-0.8-1-1.2-2.6-1.2-5.1v-9c0-0.9,0.1-1.8,0.3-2.6c0.2-0.8,0.4-1.4,0.9-2
			s1-1,1.6-1.3c0.3-0.1,1.2-0.4,2.3-0.4c1,0,1.8,0.1,2.4,0.5c0.6,0.3,1.1,0.8,1.5,1.4c0.3,0.6,0.6,1.2,0.7,2.1
			c0.1,0.8,0.2,1.6,0.2,2.6v2h-3.9v-2.7c0-1.2-0.2-1.6-0.2-1.8c-0.1-0.2-0.3-0.3-0.7-0.3c-0.5,0-0.7,0.2-0.7,0.4
			c-0.2,0.4-0.3,1.2-0.3,2.2v8.9c0,1.2,0.1,2.1,0.3,2.6c0.1,0.3,0.2,0.5,0.7,0.5c0.3,0,0.6-0.1,0.9-0.6c0.2-0.5,0.3-1.3,0.3-2.7
			v-2.3h-1.6v-3.4h5.3v12.3h-2.3l-0.3-1c-0.2,0.2-0.4,0.5-0.7,0.6C101.4,268.6,100.7,269,99.8,269z"/>
		<path class="st30" d="M100.3,247.4c0.9,0,1.6,0.1,2.2,0.4c0.6,0.3,1,0.7,1.3,1.2s0.5,1.1,0.6,1.9c0.1,0.8,0.2,1.6,0.2,2.5v1.5
			h-2.9v-2.2c0-0.9-0.1-1.6-0.3-2s-0.6-0.6-1.1-0.6c-0.6,0-1,0.2-1.2,0.7s-0.3,1.3-0.3,2.4v8.9c0,1.3,0.1,2.2,0.3,2.8
			c0.2,0.6,0.6,0.8,1.2,0.8s1-0.3,1.3-0.9c0.3-0.6,0.4-1.5,0.4-2.9v-2.8h-1.6v-2.3h4.3v11.3h-1.4l-0.5-2c-0.2,0.7-0.5,1.3-1.1,1.7
			s-1.2,0.7-1.9,0.7c-1.2,0-2.2-0.5-3-1.5s-1.1-2.6-1.1-4.8v-9c0-0.9,0.1-1.7,0.3-2.5s0.4-1.3,0.8-1.8s0.9-0.9,1.4-1.1
			S99.5,247.4,100.3,247.4 M100.3,246.4c-0.8,0-1.7,0.2-2.5,0.5c-0.7,0.3-1.3,0.8-1.8,1.4c-0.5,0.7-0.8,1.3-1,2.2s-0.3,1.8-0.3,2.7
			v9c0,2.6,0.4,4.3,1.3,5.4c1,1.2,2.3,1.9,3.8,1.9c1,0,1.8-0.5,2.5-0.9l0.1-0.1l0.1,0.6h0.8h1.4h1v-1v-11.3v-1h-0.1v-0.9v-1.5
			c0-1-0.1-1.8-0.2-2.6c-0.1-0.9-0.3-1.6-0.7-2.3c-0.4-0.7-1-1.2-1.7-1.6C102.2,246.5,101.4,246.4,100.3,246.4L100.3,246.4z
			 M100.1,251.1c0,0,0.1,0,0.2,0s0.2,0,0.2,0c0,0.1,0.2,0.5,0.2,1.6v2.2v0.9h-0.3h-0.6v-2.6C99.8,251.9,99.9,251.3,100.1,251.1
			C100,251.1,100,251.1,100.1,251.1L100.1,251.1L100.1,251.1z M99.8,260.1h0.6h0.6v1.8c0,1.3-0.1,2-0.3,2.5
			c-0.2,0.3-0.3,0.3-0.4,0.3s-0.2,0-0.2,0s0,0,0-0.1c-0.2-0.5-0.2-1.3-0.2-2.5L99.8,260.1L99.8,260.1z"/>
	</g>
	<g>
		<path class="st29" d="M112.1,269c-1.1,0-2.1-0.2-2.8-0.7c-0.8-0.5-1.4-1.1-1.7-2.1c-0.4-1-0.5-2-0.5-3.3v-15.8h4.1v15.8
			c0,0.6,0,1,0.1,1.4c0.1,0.3,0.2,0.7,0.3,0.8c0.1,0.1,0.3,0.3,0.6,0.3c0.5,0,0.5-0.1,0.6-0.2c0.2-0.2,0.3-0.6,0.3-0.8
			c0.1-0.3,0.1-0.8,0.1-1.4v-15.8h4.1V263c0,1.2-0.2,2.3-0.5,3.3c-0.3,0.9-0.9,1.6-1.7,2.1C114.2,268.7,113.2,269,112.1,269z"/>
		<path class="st30" d="M116.7,247.7V263c0,1.3-0.2,2.3-0.5,3.1c-0.3,0.8-0.8,1.4-1.5,1.8s-1.6,0.6-2.6,0.6c-1.1,0-1.9-0.2-2.6-0.6
			c-0.7-0.4-1.2-1-1.5-1.8c-0.3-0.8-0.5-1.8-0.5-3.1v-15.3h3.1V263c0,0.6,0,1.1,0.1,1.5s0.2,0.8,0.4,1c0.2,0.2,0.5,0.4,1,0.4
			s0.8-0.1,1-0.4c0.2-0.2,0.3-0.6,0.4-1s0.1-0.9,0.1-1.5v-15.3H116.7 M117.7,246.7h-1h-3.1h-1v1V263c0,0.5,0,1-0.1,1.3
			c0,0.2-0.1,0.5-0.2,0.6l0,0l0,0c0,0-0.1,0-0.2,0s-0.2,0-0.3-0.1c-0.1-0.1-0.1-0.4-0.2-0.6c-0.1-0.3-0.1-0.7-0.1-1.3v-15.3v-1h-1
			h-3.1h-1v1v15.3c0,1.3,0.2,2.4,0.6,3.5c0.4,1,1,1.8,1.9,2.3s1.9,0.7,3.1,0.7s2.3-0.3,3.1-0.7c0.9-0.5,1.6-1.3,1.9-2.3
			c0.4-1,0.6-2.1,0.6-3.5v-15.3L117.7,246.7L117.7,246.7z"/>
	</g>
	<g>
		<path class="st29" d="M125.1,268.8l-0.5-3.7h-2.4l-0.4,3.7h-4l3-21.6h5l3.3,21.6H125.1z M124.2,261.6l-0.8-6l-0.8,6H124.2z"/>
		<path class="st30" d="M125.3,247.7l3.1,20.6h-2.9l-0.5-3.7h-3.3l-0.4,3.7h-3l2.9-20.6H125.3 M122.1,262.1h2.7l-1.4-10.4
			L122.1,262.1 M126.2,246.7h-0.9h-4.1h-0.9l-0.1,0.9l-2.9,20.6l-0.2,1.1h1.2h3h0.9l0.1-0.9l0.3-2.8h1.5l0.4,2.8l0.1,0.9h0.9h2.9
			h1.2l-0.2-1.1l-3.1-20.6L126.2,246.7L126.2,246.7z M123.2,261.1l0.2-1.6l0.2,1.6H123.2L123.2,261.1z"/>
	</g>
	<g>
		<path class="st29" d="M135.8,268.9v-0.5c0,0,0-0.2-0.1-0.5c-0.1-0.3-0.1-0.6,0-1c0-0.2,0-0.3,0-0.5V261c0-0.5,0-1-0.1-1.2
			c-0.1-0.2-0.2-0.3-0.4-0.5c-0.1-0.1-0.4-0.1-0.6-0.1h-0.5v9.6h-4.2v-21.6h5.7c1.2,0,2.1,0.2,2.7,0.7c0.7,0.5,1.1,1.3,1.2,2.2
			c0,0.3,0.1,0.5,0.1,0.8c0.1,0.7,0.2,1.4,0.2,2.3c0,1.4-0.1,2.4-0.4,3.1c-0.2,0.4-0.4,0.8-0.8,1.2l0.1,0.1c0.3,0.3,0.5,0.7,0.7,1.1
			c0.3,0.6,0.4,1.4,0.4,1.9c0,0.3,0,0.6,0,1c0,0.5,0.1,0.9,0.1,1.5v4.7c0,0.1,0,0.2,0,0.3l0.8,0.8L135.8,268.9L135.8,268.9z
			 M134.8,255.6c0.3,0,0.4-0.1,0.5-0.2c0.1-0.1,0.2-0.3,0.3-0.7c0.1-0.3,0.1-1.1,0.1-1.9c0-0.8,0-1.3-0.1-1.7
			c-0.1-0.3-0.1-0.5-0.2-0.5c-0.1,0-0.4-0.1-0.7-0.1h-0.6v5L134.8,255.6L134.8,255.6z"/>
		<path class="st30" d="M135.6,247.7c1.1,0,1.9,0.2,2.4,0.6c0.5,0.4,0.9,1,1,1.9s0.3,1.8,0.3,3s-0.1,2.2-0.4,2.9
			c-0.3,0.7-0.7,1.2-1.5,1.4c0.4,0.1,0.7,0.2,0.9,0.4c0.2,0.2,0.4,0.6,0.6,1s0.3,1,0.3,1.7c0,0.7,0.1,1.5,0.1,2.5c0,0.1,0,0.3,0,0.7
			s0,0.8,0,1.3s0,1,0,1.5s0,0.9,0,1.2c0,0.3,0,0.5,0.1,0.6h-3.1c0,0,0-0.2-0.1-0.6c-0.1-0.4,0-0.8,0-1.4c0-0.6,0-1.2,0-1.8
			s0-1.3,0-1.9c0-0.6,0-1.2,0-1.7c0-0.6,0-1.1-0.1-1.4s-0.3-0.5-0.5-0.7c-0.2-0.2-0.6-0.2-1-0.2l-1-0.1v9.7h-3.2v-20.6L135.6,247.7
			 M133.6,256.1L133.6,256.1L133.6,256.1h1.2c0.4,0,0.7-0.1,0.9-0.3s0.3-0.5,0.4-0.9c0.1-0.4,0.1-1.1,0.1-2v-0.1
			c0-0.7,0-1.3-0.1-1.7s-0.2-0.7-0.4-0.8s-0.6-0.2-1-0.2h-1.1L133.6,256.1 M130.4,268.3L130.4,268.3 M135.6,246.7h-5.2h-1v1v20.6v1
			h1h3.2h1v-1v-8.6c0.1,0,0.3,0,0.4,0c0.1,0.1,0.1,0.2,0.2,0.2c0,0.2,0,0.7,0,1.1v1.7v1.9v1.8c0,0.2,0,0.4,0,0.5
			c0,0.4,0,0.7,0.1,1.1c0.1,0.3,0.1,0.4,0.1,0.4v1h1h3.1h2.4l-1.5-1.5v-0.1v-1.2v-1.5v-1.3v-0.7c0-0.6,0-1.1-0.1-1.5
			c0-0.3,0-0.7,0-1c0-0.9-0.1-1.6-0.4-2.1c-0.2-0.4-0.3-0.7-0.6-1c0.3-0.3,0.4-0.7,0.6-1c0.3-0.8,0.5-1.8,0.5-3.3
			c0-0.9-0.1-1.7-0.2-2.3c0-0.3-0.1-0.5-0.1-0.8c-0.1-1.1-0.6-1.9-1.4-2.6C137.9,246.9,136.9,246.7,135.6,246.7L135.6,246.7z
			 M134.6,251.1h0.1c0.1,0,0.3,0,0.4,0c0,0,0,0.1,0.1,0.2c0.1,0.3,0.1,0.9,0.1,1.5v0.1c0,0.8,0,1.5-0.1,1.8s-0.1,0.4-0.1,0.4l0,0
			c0,0-0.1,0-0.2,0h-0.2v-4H134.6z"/>
	</g>
	<g>
		<path class="st29" d="M147.6,268.8l-0.5-3.7h-2.4l-0.4,3.7h-4l3-21.6h5l3.3,21.6H147.6z M146.7,261.6l-0.8-6l-0.8,6H146.7z"/>
		<path class="st30" d="M147.8,247.7l3.1,20.6H148l-0.5-3.7h-3.3l-0.4,3.7h-3l2.9-20.6H147.8 M144.6,262.1h2.7l-1.4-10.4
			L144.6,262.1 M148.7,246.7h-0.9h-4.1h-0.9l-0.1,0.9l-2.9,20.6l-0.2,1.1h1.2h3h0.9l0.1-0.9l0.3-2.8h1.5l0.4,2.8l0.1,0.9h0.9h2.9
			h1.2l-0.2-1.1l-3.1-20.6L148.7,246.7L148.7,246.7z M145.7,261.1l0.2-1.6l0.2,1.6H145.7L145.7,261.1z"/>
	</g>
	<g>
		<polygon class="st29" points="159.8,268.8 156.3,258.7 156.4,260.8 156.4,268.8 152.4,268.8 152.4,247.2 155.8,247.2 159.2,256.8 
			159.1,254.5 159.1,247.2 162.9,247.2 162.9,268.8 		"/>
		<path class="st30" d="M162.4,247.7v20.6h-2.2l-4.5-12.8l0.2,5.4v7.4h-3v-20.6h2.5l4.4,12.4l-0.2-5.6v-6.8L162.4,247.7
			 M152.9,268.3L152.9,268.3 M163.4,246.7h-1h-2.8h-1v1v6l-2.3-6.4l-0.2-0.7h-0.7h-2.5h-1v1v20.7v1h1h3h1v-1v-6.4l2.4,6.7l0.2,0.7
			h0.7h2.2h1v-1v-20.6L163.4,246.7L163.4,246.7z"/>
	</g>
	<g>
		<polygon class="st29" points="166,268.8 166,250.9 163.6,250.9 163.6,247.2 172.5,247.2 172.5,250.9 170.2,250.9 170.2,268.8 		
			"/>
		<path class="st30" d="M172,247.7v2.7h-2.3v17.9h-3.2v-17.9h-2.4v-2.7L172,247.7 M173,246.7h-1h-7.9h-1v1v2.7v1h1h1.4v16.9v1h1h3.2
			h1v-1v-16.9h1.3h1v-1v-2.7V246.7L173,246.7z"/>
	</g>
	<g>
		<polygon class="st29" points="173.2,268.8 173.2,247.2 181.1,247.2 181.1,250.9 177.3,250.9 177.3,255.9 180.9,255.9 180.9,259.5 
			177.3,259.5 177.3,265.1 181.2,265.1 181.2,268.8 		"/>
		<path class="st30" d="M180.6,247.7v2.7h-3.8v6h3.6v2.6h-3.6v6.6h3.9v2.7h-7v-20.6H180.6 M181.6,246.7h-1h-6.9h-1v1v20.6v1h1h7h1
			v-1v-2.7v-1h-1h-2.9V260h2.6h1v-1v-2.6v-1h-1h-2.6v-4h2.8h1v-1v-2.7L181.6,246.7L181.6,246.7z"/>
	</g>
	<g>
		<polygon class="st29" points="182.6,268.8 182.6,247.2 190.5,247.2 190.5,250.9 186.7,250.9 186.7,255.9 190.3,255.9 190.3,259.5 
			186.7,259.5 186.7,265.1 190.6,265.1 190.6,268.8 		"/>
		<path class="st30" d="M190,247.7v2.7h-3.8v6h3.6v2.6h-3.6v6.6h3.9v2.7h-7v-20.6H190 M191,246.7h-1h-6.9h-1v1v20.6v1h1h7h1v-1v-2.7
			v-1h-1h-2.9V260h2.6h1v-1v-2.6v-1h-1h-2.6v-4h2.8h1v-1v-2.7L191,246.7L191,246.7z"/>
	</g>
	<g>
		<path class="st29" d="M191.9,268.9v-21.7h5.1c1.1,0,2.1,0.2,2.8,0.7s1.3,1.2,1.6,2s0.4,1.7,0.4,3.1v9.3c0,1.6-0.1,2.7-0.4,3.6
			c-0.3,1-0.9,1.8-1.6,2.3c-0.8,0.5-1.8,0.8-2.9,0.8h-5V268.9z M196.6,265.4c0.3,0,0.5-0.1,0.7-0.1c0,0,0.1-0.1,0.4-0.6
			c0.1-0.3,0.1-0.7,0.1-1.4v-10.2c0-1.1-0.1-1.7-0.3-2s-0.4-0.5-1-0.5h-0.4v14.8H196.6z"/>
		<path class="st30" d="M197,247.7c1,0,1.9,0.2,2.5,0.6s1.1,1,1.4,1.8s0.4,1.7,0.4,2.9v9.3c0,1.4-0.1,2.5-0.4,3.4
			c-0.3,0.9-0.8,1.6-1.4,2c-0.6,0.4-1.5,0.7-2.6,0.7h-4.5v-0.1v-20.6H197 M195.6,265.9L195.6,265.9h1c0.4,0,0.7-0.1,0.9-0.2
			c0.2-0.1,0.4-0.4,0.6-0.8c0.2-0.4,0.2-0.9,0.2-1.6v-10.2c0-1.1-0.1-1.8-0.4-2.3s-0.7-0.7-1.4-0.7h-0.9L195.6,265.9 M197,246.7
			h-4.6h-1v1v20.6v0.1v1h1h4.5c1.2,0,2.3-0.3,3.2-0.9c0.8-0.5,1.4-1.4,1.8-2.5c0.3-0.9,0.5-2.1,0.5-3.7V253c0-1.4-0.1-2.4-0.5-3.3
			c-0.4-1-1-1.7-1.8-2.3C199.1,246.8,197.9,246.7,197,246.7L197,246.7z M196.6,264.9v-13.8c0.3,0,0.4,0.1,0.4,0.2
			c0.2,0.3,0.3,0.8,0.3,1.8v10.2c0,0.5,0,1-0.1,1.2c-0.1,0.2-0.2,0.3-0.2,0.4C196.9,264.8,196.8,264.9,196.6,264.9L196.6,264.9
			L196.6,264.9z"/>
	</g>
</g>
<g>
	<path class="st31" d="M35.6,344.7c-1,0-1.8-0.2-2.4-0.6c-0.6-0.4-1.1-1-1.4-1.9s-0.4-1.8-0.4-3v-8.7c0-1.1,0.1-2,0.4-2.8
		s0.7-1.4,1.4-1.8c0.6-0.4,1.4-0.6,2.5-0.6c0.8,0,1.4,0.1,1.9,0.4c0.5,0.2,1,0.6,1.3,1s0.6,1,0.7,1.6s0.2,1.4,0.2,2.2v8.7
		c0,1.2-0.1,2.2-0.4,3c-0.3,0.8-0.7,1.4-1.3,1.9C37.4,344.5,36.6,344.7,35.6,344.7z M35.6,342.2c0.4,0,0.6-0.1,0.8-0.3
		c0.2-0.2,0.3-0.5,0.4-1s0.1-1,0.1-1.7v-8.9c0-0.8-0.1-1.5-0.2-1.9c-0.2-0.5-0.5-0.7-1-0.7c-0.5,0-0.9,0.2-1.1,0.7
		c-0.2,0.4-0.3,1.1-0.3,1.9v8.9c0,0.7,0,1.3,0.1,1.7c0.1,0.4,0.2,0.8,0.4,1S35.2,342.2,35.6,342.2z M37.9,347.6l-2.9-3.1l1.8-1
		l2.4,2.9L37.9,347.6z"/>
	<path class="st31" d="M46.4,344.7c-1,0-1.8-0.2-2.4-0.6s-1.1-0.9-1.4-1.7c-0.3-0.8-0.4-1.7-0.4-2.9v-14.1h2.9v14.1
		c0,0.5,0,1,0.1,1.4c0,0.4,0.2,0.7,0.3,0.9s0.5,0.3,0.9,0.3s0.7-0.1,0.9-0.3s0.3-0.5,0.3-0.9c0-0.4,0.1-0.9,0.1-1.4v-14.1h2.9v14.1
		c0,1.2-0.1,2.1-0.4,2.9c-0.3,0.8-0.7,1.3-1.4,1.7C48.2,344.5,47.4,344.7,46.4,344.7z"/>
	<path class="st31" d="M52.2,344.5l2.7-19h3.8l2.9,19h-2.7l-0.5-3.4h-3.1l-0.4,3.4H52.2z M55.7,338.7h2.5l-1.3-9.6h0L55.7,338.7z"/>
	<path class="st31" d="M63.3,344.5v-19h2.9V342h3.7v2.5H63.3z"/>
	<path class="st31" d="M71.5,344.5v-19h2.9v19H71.5z"/>
	<path class="st31" d="M78.3,344.5v-16.5h-2.2v-2.5h7.3v2.5h-2.1v16.5H78.3z"/>
	<path class="st31" d="M86.9,344.5v-7.6l-3.2-11.4h2.8l1.9,7.1h0l1.7-7.1h2.8l-3,11.4v7.6H86.9z"/>
	<path class="st31" d="M102,344.7c-1.1,0-2.1-0.5-2.8-1.4s-1-2.4-1-4.4v-8.3c0-0.9,0.1-1.6,0.2-2.3c0.2-0.7,0.4-1.2,0.8-1.7
		c0.3-0.5,0.8-0.8,1.3-1.1c0.5-0.2,1.2-0.4,2-0.4c0.8,0,1.5,0.1,2,0.4c0.5,0.2,0.9,0.6,1.2,1.1s0.5,1.1,0.6,1.7
		c0.1,0.7,0.2,1.5,0.2,2.3v1.4h-2.7v-2c0-0.9-0.1-1.5-0.3-1.8c-0.2-0.4-0.5-0.5-1-0.5c-0.5,0-0.9,0.2-1.1,0.6
		c-0.2,0.4-0.3,1.2-0.3,2.2v8.2c0,1.2,0.1,2.1,0.3,2.6c0.2,0.5,0.5,0.8,1.1,0.8c0.5,0,0.9-0.3,1.2-0.8c0.2-0.5,0.3-1.4,0.3-2.7v-2.6
		h-1.5v-2.1h4v10.4h-1.3l-0.4-1.9c-0.2,0.7-0.5,1.2-1,1.5C103.3,344.5,102.7,344.7,102,344.7z"/>
	<path class="st31" d="M113.3,344.7c-1,0-1.8-0.2-2.4-0.6s-1.1-0.9-1.4-1.7c-0.3-0.8-0.4-1.7-0.4-2.9v-14.1h2.9v14.1
		c0,0.5,0,1,0.1,1.4c0,0.4,0.2,0.7,0.3,0.9c0.2,0.2,0.5,0.3,0.9,0.3s0.7-0.1,0.9-0.3s0.3-0.5,0.3-0.9c0-0.4,0.1-0.9,0.1-1.4v-14.1
		h2.9v14.1c0,1.2-0.1,2.1-0.4,2.9c-0.3,0.8-0.7,1.3-1.4,1.7S114.3,344.7,113.3,344.7z"/>
	<path class="st31" d="M119.1,344.5l2.7-19h3.8l2.9,19h-2.7l-0.5-3.4h-3.1l-0.4,3.4H119.1z M122.6,338.7h2.5l-1.3-9.6h0L122.6,338.7
		z"/>
	<path class="st31" d="M130.2,344.5v-19h4.8c1,0,1.7,0.2,2.2,0.6c0.5,0.4,0.8,1,1,1.7s0.2,1.7,0.2,2.7c0,1.1-0.1,2-0.3,2.6
		c-0.2,0.6-0.7,1.1-1.4,1.3c0.3,0.1,0.6,0.2,0.8,0.4c0.2,0.2,0.4,0.5,0.5,0.9c0.1,0.4,0.2,0.9,0.3,1.6s0.1,1.4,0.1,2.3
		c0,0.1,0,0.3,0,0.6c0,0.3,0,0.7,0,1.2c0,0.5,0,0.9,0,1.3c0,0.4,0,0.8,0,1.1c0,0.3,0,0.5,0.1,0.6h-2.9c0,0,0-0.2,0-0.6
		c0-0.3,0-0.8,0-1.3c0-0.5,0-1.1,0-1.7s0-1.2,0-1.8c0-0.6,0-1.1,0-1.5c0-0.6,0-1-0.1-1.3c-0.1-0.3-0.2-0.5-0.5-0.6
		c-0.2-0.1-0.5-0.2-0.9-0.2l-0.9-0.1v9H130.2z M133.1,333.2h1.2c0.4,0,0.6-0.1,0.8-0.2c0.2-0.2,0.3-0.5,0.4-0.9s0.1-1,0.1-1.8v-0.1
		c0-0.7,0-1.2-0.1-1.5c-0.1-0.4-0.2-0.6-0.4-0.7c-0.2-0.1-0.5-0.2-1-0.2h-1V333.2z"/>
	<path class="st31" d="M139.8,344.5l2.7-19h3.8l2.9,19h-2.7l-0.5-3.4H143l-0.4,3.4H139.8z M143.3,338.7h2.5l-1.3-9.6h0L143.3,338.7z
		"/>
	<path class="st31" d="M151,344.5v-19h2.3l4,11.4l-0.2-5.2v-6.2h2.6v19h-2.1l-4.1-11.8l0.2,5v6.8H151z"/>
	<path class="st31" d="M163.5,344.5v-16.5h-2.2v-2.5h7.3v2.5h-2.1v16.5H163.5z"/>
	<path class="st31" d="M170.2,344.5v-19h6.4v2.5h-3.5v5.5h3.3v2.4h-3.3v6.1h3.6v2.5H170.2z"/>
	<path class="st31" d="M178.8,344.5v-19h6.4v2.5h-3.5v5.5h3.3v2.4h-3.3v6.1h3.6v2.5H178.8z"/>
	<path class="st31" d="M187.5,344.5v-19h4.3c1,0,1.7,0.2,2.3,0.6c0.6,0.4,1,0.9,1.3,1.7c0.3,0.7,0.4,1.6,0.4,2.6l0,8.6
		c0,1.2-0.1,2.3-0.4,3.1c-0.3,0.8-0.7,1.4-1.3,1.8c-0.6,0.4-1.4,0.6-2.4,0.6H187.5z M190.4,342.2h1c0.3,0,0.6-0.1,0.8-0.2
		c0.2-0.1,0.4-0.4,0.5-0.7s0.2-0.8,0.2-1.5l0-9.4c0-1-0.1-1.7-0.4-2.1s-0.7-0.6-1.3-0.6h-0.9V342.2z"/>
</g>
</svg>
