<?xml version="1.0" encoding="utf-8"?>
<!-- Generator: Adobe Illustrator 24.0.1, SVG Export Plug-In . SVG Version: 6.00 Build 0)  -->
<svg version="1.1" id="Layer_1" xmlns="http://www.w3.org/2000/svg" xmlns:xlink="http://www.w3.org/1999/xlink" x="0px" y="0px"
	 viewBox="0 0 226.8 226.8" style="enable-background:new 0 0 226.8 226.8;" xml:space="preserve">
<style type="text/css">
	.st0{fill:#010101;}
	.st1{fill:#020202;}
	.st2{fill:#010202;}
	.st3{fill:#C1C2C5;}
	.st4{fill:#030303;}
	.st5{fill:#BABBBD;}
	.st6{fill:#040404;}
	.st7{fill:#050505;}
	.st8{fill:#070707;}
	.st9{fill:#090909;}
	.st10{fill:#0A0A0A;}
	.st11{fill:#FEFEFE;}
	.st12{fill:#F6A800;}
	.st13{fill:#F9C362;}
	.st14{fill:#93979A;}
	.st15{fill:#2D294D;}
	.st16{fill:#2D294E;}
	.st17{fill:#015882;}
	.st18{fill:#CB8905;}
	.st19{fill:#5A7E91;}
	.st20{fill:#BEC2C5;}
	.st21{fill:#025782;}
	.st22{fill:#939699;}
	.st23{fill:#4C497F;}
	.st24{fill:#0F86B5;}
	.st25{fill:#6E95A5;}
	.st26{fill:#F8C160;}
	.st27{fill:#0E81AF;}
	.st28{fill:#CA8906;}
	.st29{fill:#017BB9;}
	.st30{fill:#D7C9BE;}
	.st31{fill:#015067;}
	.st32{fill:#15A8E4;}
	.st33{fill:#E6342D;}
	.st34{fill:#15A8E3;}
	.st35{fill:#FCFCFC;}
	.st36{fill:#FDFDFD;}
	.st37{fill:#C1C1C3;}
	.st38{fill:#C2C3C5;}
	.st39{fill:#B51616;}
	.st40{fill:#C2C3C4;}
	.st41{fill:#C1C2C4;}
	.st42{fill:#DD332C;}
	.st43{fill:#E1342D;}
	.st44{fill:#6A6E71;}
	.st45{fill:#BFC3C6;}
	.st46{fill:#94989B;}
	.st47{fill:#F36161;}
	.st48{fill:#AC0708;}
	.st49{fill:#BDC0C3;}
	.st50{fill:#015167;}
	.st51{fill:#FAC462;}
	.st52{fill:#73777A;}
	.st53{fill:#929699;}
	.st54{fill:#929598;}
	.st55{fill:#C98805;}
	.st56{fill:#919497;}
	.st57{fill:#F6A801;}
	.st58{fill:#F5C060;}
	.st59{fill:#DEDEDE;}
	.st60{fill:#6A6E70;}
	.st61{fill:#919598;}
	.st62{fill:#8D9093;}
	.st63{fill:#94979A;}
	.st64{fill:#F5A803;}
	.st65{fill:#F6C061;}
	.st66{fill:#EDA203;}
	.st67{fill:#B8BABB;}
	.st68{fill:#025882;}
	.st69{fill:#0F85B5;}
	.st70{fill:#909497;}
	.st71{fill:#5A7F92;}
	.st72{fill:#027DBC;}
	.st73{fill:#F5A703;}
	.st74{fill:#E4342D;}
	.st75{fill:#DCDCDC;}
	.st76{fill:#BEC1C4;}
	.st77{fill:#21B9EA;}
	.st78{fill:#FACC7F;}
	.st79{fill:#F67E7F;}
	.st80{fill:#89B9C8;}
	.st81{fill:#DBDBDB;}
	.st82{fill:#696D70;}
	.st83{fill:#F8F8F8;}
	.st84{fill:#F5F5F5;}
	.st85{fill:#F6F6F6;}
	.st86{fill:#EDEDED;}
	.st87{fill:#EAEAEA;}
	.st88{fill:#EEEEEE;}
	.st89{fill:#ECECEC;}
	.st90{fill:#1087B4;}
	.st91{fill:#020303;}
	.st92{fill:#030305;}
	.st93{fill:#020204;}
	.st94{fill:#010103;}
	.st95{fill:#010305;}
	.st96{fill:#010102;}
	.st97{fill:#060403;}
	.st98{fill:#060402;}
	.st99{fill:#070503;}
	.st100{fill:#050202;}
	.st101{fill:#060303;}
	.st102{fill:#050203;}
	.st103{fill:#020102;}
	.st104{fill:#060504;}
	.st105{fill:#020203;}
	.st106{fill:#D6C8BD;}
	.st107{fill:#010203;}
	.st108{fill:#020103;}
	.st109{fill:#D5C7BC;}
	.st110{fill:#040407;}
	.st111{fill:#060606;}
	.st112{fill:#040203;}
	.st113{fill:#040303;}
	.st114{fill:#040505;}
	.st115{fill:#050404;}
	.st116{fill:#035782;}
	.st117{fill:#D7C9BF;}
	.st118{fill:#779EAF;}
	.st119{fill:#2F5A6B;}
	.st120{fill:#F9C462;}
	.st121{fill:#F6A802;}
	.st122{fill:#C88705;}
	.st123{fill:#FAC361;}
	.st124{fill:#F8C361;}
	.st125{fill:#CE8B05;}
	.st126{fill:#CC8A05;}
	.st127{fill:#F8C362;}
	.st128{fill:#727679;}
	.st129{fill:#BFC0C2;}
	.st130{fill:#74787B;}
	.st131{fill:#777A7D;}
	.st132{fill:#BCBDBF;}
	.st133{fill:#030404;}
	.st134{fill:#030304;}
	.st135{fill:#070504;}
	.st136{fill:#F5A802;}
	.st137{fill:#047CBB;}
	.st138{fill:#037DBC;}
	.st139{fill:#047BB9;}
	.st140{fill:#047DBB;}
	.st141{fill:#E39A03;}
	.st142{fill:#F5C676;}
	.st143{fill:#696C6E;}
	.st144{fill:#DFDFDF;}
	.st145{fill:#050506;}
	.st146{fill:#E5342D;}
</style>
<path class="st0" d="M1172.9,482.9c8.6-8.7,18.3-7.4,27.8-7.4c12,0,12,0,14.8-11.6c8.2-34,16.4-68,24.7-101.9
	c7-28.7,30.3-47.2,59.7-47.4c27.8-0.2,55.7-0.1,83.5,0c12.1,0,19.2,7.1,19.2,19.4c0,37,0,74,0,111c0,3.3,0.5,5.2,4.3,6.4
	c12.9,4.3,20.6,15.5,20.8,29.3c0.2,13.8,0,27.7,0.1,41.5c0,7,0.2,13.9,1.3,20.9c3.4,22-11.5,42.6-32.9,46.4
	c-22.1,3.9-42.9-9.8-47.7-31.8c-0.7-3.3-1.9-4.2-5.2-4.2c-23.3,0.1-46.7,0.1-70,0c-3.3,0-4.8,0.6-5.6,4.2
	c-4.3,19.4-20.9,32.5-40.2,32.5c-19.2-0.1-35.8-13.5-40-32.8c-0.7-3.2-1.9-4.1-4.9-3.9c-2.6,0.2-5.3,0.1-8,0
	c-6.6-0.1-11.6-3-14.3-9.1c-1-2.3-2.2-3.2-4.8-3.1c-6,0.2-12,0.2-18,0c-2.4-0.1-3.2,0.7-3.1,3.1c0.1,5.5,0,11,0.1,16.5
	c0.1,4.1-1.6,6.3-5.8,6.3c-19.2,0-38.3,0-57.5,0c-3,0-5.5-1.1-5.6-4.3c-0.1-3.6,2.4-4.7,5.7-4.7c16.3,0,32.7-0.2,49,0.1
	c4.6,0.1,5.3-1.4,5.3-5.6c-0.1-86.5-0.1-173-0.1-259.5c0-3.5-1.1-8.3,4.3-8.5c5.9-0.2,4.7,4.9,4.7,8.6c0,69.2,0,138.3,0,207.5
	c0,2.3-1,4.9,3.3,5c4.3,0.2,4.3-1.8,4.3-5c-0.1-74,0-148,0-222c0-9.5,0.1-9.6,9.4-9.6c4.2,0,8.3,0,12.5,0c8.3,0,8.9,0.5,8.9,8.7
	c0,44.8,0,89.7,0,134.5c0,21.3,0,42.7,0,64C1172.9,478,1172.9,479.7,1172.9,482.9z"/>
<path class="st0" d="M2185.4-154c0.5-12.2,1-23.9,1.5-35.5c1-24.8,2-49.6,3-74.4c0.3-6.3,1.1-7,7.5-7c9.5,0,19,0,28.5,0
	c6.7,0,7.6,0.8,7.8,7.4c1.2,31,2.5,61.9,3.5,92.9c0.1,3.7,1.1,5.9,4.7,7.6c13.4,6.3,26.5,13.2,39.9,19.5c4.1,1.9,5.2,4.2,5.2,8.4
	c-0.1,48.8,0,97.6-0.2,146.4c0,5.3,1.5,6.3,6.4,6.1c7.4-0.4,7.9,0.4,7.9,7.9c0,5-0.1,10,0,15c0.1,4-1.6,5.9-5.6,5.9
	c-0.8,0-1.7,0-2.5,0c-107.5,0-214.9,0-322.4,0c-8.3,0-8.7-0.4-8.7-8.8c0-4.5,0.2-9,0-13.5c-0.2-4.7,1.7-6.6,6.4-6.6
	c7.8,0,7.8-0.1,7.8-7.8c0-60.5,0-121,0-181.4c0-8.2,2.3-9.7,9.6-6.1c20.3,10,40.6,20,60.9,30.1c4.7,2.3,4.7,2.3,4.7-3.1
	c0-7.5-0.1-15,0-22.5c0.1-6,2.9-7.7,8.4-5c15.2,7.5,30.5,14.9,45.6,22.6c4,2,4.4,1.1,4.6-2.9c1.2-35.1,2.7-70.2,4.1-105.4
	c0.2-5.5,1.4-6.6,7-6.6c9.8,0,19.7,0,29.5,0c6.1,0,7.1,1,7.4,7.3c1.2,31.1,2.5,62.2,3.6,93.4c0.1,3.7,1.5,5.6,4.8,7
	C2172.7-160.5,2178.7-157.3,2185.4-154z"/>
<path class="st1" d="M1406.6-202.2c0,23.9-14,41.8-35.4,47.5c-14.3,3.8-28.6,7.9-43,11.2c-12.2,2.8-22.3,8.4-29.9,18.5
	c-1.4,1.9-2.9,3.7-4.6,5.2c-2.9,2.5-3.6,4.6-0.1,7.3c2.7,2,2.5,4.6,0.5,7.4c-3.9,5.3-3.8,10.5,0,14.5c4,4.1,9,4.3,14.8,0.2
	c2.9-2,5.1-1.7,7.5,0.6c25.1,25.1,50.4,50,75.2,75.4c11.4,11.6,11.1,30.1,0.3,42.3c-3.1,3.5-6.4,6.8-9.9,9.9
	c-12.2,11.1-30.9,11.3-42.7-0.2c-25.2-24.7-50-49.9-75-74.8c-2.8-2.7-2.8-5.2-0.4-8.3c3.7-4.8,3.3-10.3-0.4-14
	c-3.8-3.8-9.3-4.2-14.1-0.7c-2.2,1.6-4.1,2.7-6.8,1.2c-2.7-1.5-3.4,1.4-4.5,2.7c-17.8,20.1-35.4,40.3-53.1,60.4
	c-8,9.1-16,18.3-24.1,27.4c-16.4,18.4-43.4,19.5-60.4,2.6c-17-17-15.9-43.8,2.5-60.4c34.6-31,69.2-62.1,103.9-92.9
	c3.2-2.9,3.1-4.1,0.1-7.1c-26.3-26-52.5-52.1-78.5-78.5c-6.5-6.6-14.6-10.4-22.3-14.8c-4.5-2.6-7.9-5.6-10.2-10.4
	c-3.2-6.7-7-13.2-10.7-19.7c-2-3.5-1.6-6.1,1.3-8.8c3.2-2.9,6.2-6,9.2-9.2c2.1-2.2,4.4-2.7,7.2-1.2c8.5,4.6,16.9,9.3,25.4,13.9
	c2,1.1,3.1,3,4,4.9c6.8,14.2,16.8,25.7,28.1,36.6c23.2,22.5,45.8,45.6,68.6,68.5c2.3,2.4,3.7,2.8,6.3,0.3c8.4-7.9,17-15.5,25.6-23
	c8.2-7.1,12.3-15.9,12.1-26.8c-0.2-19.5,5.8-37.3,15.3-54.2c2-3.6,4.6-4.4,8.3-2.3c2.7,1.6,5.6,4.1,8.3,4c2.9-0.1,4.3-4.2,6.5-6.4
	c14.6-14.5,32.4-18.1,52-15.8c4.9,0.6,6.2,3.9,3.4,8.3c-6.7,10.7-13.4,21.4-20.4,32c-2,3-1.7,4.2,1.5,5.8c6,2.9,11.8,6.1,17.6,9.5
	c2.4,1.4,3.6,1,5.1-1.3c6.4-10.1,13-20.1,19.6-30.2c1.5-2.4,3-5.2,6.5-4.2c3.2,0.9,3.3,3.7,3.7,6.4
	C1402.6-228.6,1405.4-214.4,1406.6-202.2z"/>
<path class="st0" d="M2553.1-75.3c-1.8-5.2-0.5-7.3,4.7-7.5c3.7-0.1,7.4-0.3,11,0c3.7,0.3,4.8-0.8,4.8-4.6
	c-0.2-21.3-0.1-42.7-0.1-64c0-7.6,0.7-8.2,8.3-8.2c25.3,0,50.7,0,76,0c6.3,0,7.3,1,7.3,7.2c0,21.7,0.1,43.3-0.1,65
	c0,3.9,1.1,4.9,4.7,4.6c11.9-0.8,23,1.1,31.5,10.5c9.3,10.4,11.7,22.4,6.4,35.3c-5.4,13-15.7,19.9-29.9,20.6c-6.7,0.3-6.7,0.2-6.7,7
	c0,7.3,0.1,14.7-0.1,22c-0.1,3,0.6,4.1,3.8,4c5.7-0.3,11.3,0,17-0.1c3.9-0.1,6,1.5,5.9,5.5c0,6.2,0,12.3,0,18.5
	c0,3.7-1.7,5.6-5.5,5.5c-1.8,0-3.7,0-5.5,0c-71.1,0-142.3,0-213.4,0c-8.2,0-8.7-0.5-8.7-8.8c0-5,0-10,0-15c0-3.9,1.8-5.8,5.8-5.7
	c5.5,0.1,11-0.2,16.5,0.1c3.4,0.2,4.6-0.7,4.5-4.3c-0.3-7.8-0.3-15.7,0-23.5c0.2-4.1-0.9-5.3-5.2-5.2c-14.8,0.1-25.6-6.8-31.5-20.4
	c-8.9-20.4,5.1-44,27.2-45.6c12.6-0.9,25.3-0.4,38-0.3c4.4,0,5.5,2.4,4.1,7.3c-1.5,3.4-4.7,3.4-7.7,3.4c-9.6,0.1-19.3,0-28.9,0.1
	c-18.3,0-28,12.6-23.5,30.4c2.1,6.1,6.5,10,12,13c3.1,1.3,6.4,1.8,9.7,1.8c63.1,0,126.2,0,189.2,0c12.2,0,20.7-6,23.8-16.6
	c1.8-6.8,0.8-13.2-3.2-19c-4.6-6.6-11.1-9.2-18.9-9.3c-15.6-0.1-31.3,0-46.9,0c-22.3,0-44.6,0-66.9,0
	C2559.3-71.9,2555.5-71.5,2553.1-75.3z"/>
<path class="st0" d="M1697.1,269.3c22.2,0,44.3,0,66.5,0c8.8,0,11.7,2.9,11.7,11.7c0,6.3,0.1,12.7,0,19c-0.1,6.2-3.4,9.5-9.6,9.7
	c-0.7,0-1.3,0-2,0c-4.4,0.3-11.5-1.9-12.8,0.8c-2.2,4.7-0.8,11-0.9,16.7c0,1.8,1.4,1.9,2.6,2.4c8,3.3,11.8,9.3,11.8,17.9
	c0,13.7,0,27.3,0,41c0,8.6-3.8,14.7-11.7,17.9c-2.1,0.8-2.8,1.9-2.7,4c0.1,4,0.1,8,0,12c-0.1,4.4-1.9,7.8-6.3,9.2
	c-2.2,0.7-3.1,2.4-4.2,4c-10.6,16.7-21.2,33.5-31.8,50.2c-1.4,2.2-2.6,4.7-4.9,6.2c-1.8,1.1-1.3,2.9-1.3,4.5c0,6.5-0.1,13,0,19.5
	c0,3.3-1,5.8-4.7,5.6c-3.3-0.1-4.3-2.5-4.3-5.6c0-7.5,2-15.8-0.7-22.2c-2.6-6.3-8-12-11.9-18.1c-8.6-13.3-17-26.7-25.5-40
	c-1-1.5-1.6-3.3-3.7-3.9c-5.1-1.5-6.9-5.3-6.7-10.4c0.1-1.7-0.1-3.3,0-5c0.3-5.2,0.5-9.5-6.2-12c-5.9-2.2-8.3-8.5-8.4-14.8
	c-0.1-14.3-0.2-28.6,0-43c0.1-8.1,4.1-14,11.7-16.9c2.1-0.8,2.9-1.7,2.8-3.9c-0.2-5.1,1.6-11.6-0.9-15c-2.4-3.3-9.3-0.9-14.2-1.1
	c-7-0.3-10.3-3.4-10.4-10.6c-0.1-6.5-0.1-13,0-19.5c0.1-7.1,3.4-10.4,10.5-10.4C1651.8,269.2,1674.4,269.3,1697.1,269.3z"/>
<path class="st0" d="M2570.2-249.5c-2.4-5.4-0.9-7.8,4.9-7.9c0.5,0,1,0,1.5,0c3.5-0.1,8,1.1,10.2-0.7c2.2-1.7-0.7-6-0.9-9.3
	c-0.3-3.9,1.5-5.7,5.2-5.7c18.8-0.1,37.6-0.1,56.5,0c4.3,0,5.8,2.2,5,6.5c-1.5,9.1-1.5,9.1,7.7,9.1c14.3,0,28.7,0,43,0
	c5.9,0,7,1.1,7,7c0,4.7,0,9.3,0,14c0,6.3-0.9,7.1-7.3,7.1c-19.5,0-39,0-58.5,0c-2.8,0-4.4,0.5-5.6,3.4c-2.2,5.3-6.4,8.9-11.8,10.9
	c-1.8,0.7-3.3,1.1-3.2,3.6c0,2.4,0.9,3.5,3.1,4.4c11,4.7,22,9.6,33,14.1c3.8,1.5,5.7,3.7,5.3,7.9c-0.2,2.6,0,5.3-0.1,8
	c-0.1,2.9-1.6,4.8-4.7,4.7c-2.7-0.1-4.7-1.9-4.2-4.5c1.5-7.2-3-9.3-8.4-11.4c-8.5-3.4-16.9-7.1-25.2-10.9c-2.3-1.1-4.3-1-6.6,0
	c-9.7,4.3-19.5,8.7-29.3,12.6c-3.4,1.4-4.7,3.2-4.2,6.7c0.2,1.1,0.1,2.3,0,3.5c-0.3,2.5-1.7,4-4.2,4.1c-2.6,0.1-4.3-1.4-4.5-3.8
	c-0.3-4-0.3-8-0.1-12c0.2-2.7,2.5-3.6,4.7-4.6c10.9-4.6,21.7-9.3,32.5-14c1.9-0.8,4-1.1,4-4.2c0-3-1.7-3.5-3.8-4.3
	c-5.8-2.2-9.5-6.5-12.4-12.2c-1.7,2.1-3.2,4.1-4.8,5.9c-15.9,18.5-38,22-58.8,9.1c-4.4-2.7-8.6-5.8-12-9.7c-2.4-2.7-3.5-2-5.4,0.4
	c-9.1,11.2-20.9,17.5-35.5,17.2c-15.6-0.2-27.4-7.3-35.3-20.7c-1.5-2.5-2.5-4.7-6.2-4.4c-3.2,0.3-4.5-2.2-4.5-5.3
	c0-5.7,0.1-11.3,0-17c-0.1-4.1,1.9-5.7,5.8-5.7c6.3,0.1,12.7,0,19,0c23.2,0,46.3,0,69.5,0c6.1,0,7.7,2.8,4.8,8.1
	c-1.9,3-4.9,2.3-7.7,2.3c-25.1,0-50.1,0-75.2,0.1c-2,0-4.5-1-5.5,2c-0.3,3.4,1.3,5,4.6,4.9c0.7,0,1.3,0,2,0c43.3,0,86.7,0,130,0
	c2.9,0,6.6,0.7,5.4-4.4c-0.2-2.2-1.6-2.5-3.5-2.5c-3.3,0-6.6,0.1-9.8-0.1C2573.5-247.1,2571.3-247,2570.2-249.5z"/>
<path class="st2" d="M1696.8,588.4c-36.5,0-72.9,0-109.4,0c-6.8,0-7.8-1.1-7.9-7.7c0-5,0-10,0-15c0-5.8,1.3-7.1,7-7.1
	c21.8,0,43.6-0.1,65.4,0.1c4.1,0,5-1.2,4.8-5c-0.3-6.1,0.1-12.3-0.1-18.5c-0.1-4.8,2-6.5,6.6-6.5c22.3,0.1,44.6,0,66.9,0.1
	c5.6,0,6.8,1.2,6.8,6.7c0,6,0.3,12-0.1,18c-0.2,4,0.7,5.3,5,5.2c21.5-0.3,43-0.1,64.4-0.1c6.8,0,7.7,0.9,7.7,7.8c0,5,0,10,0,15
	c0,5.8-1.2,7-7,7C1770.4,588.4,1733.6,588.4,1696.8,588.4z"/>
<path class="st3" d="M2553.1-75.3c2.1,1.6,4.6,1.5,7.2,1.5c38.2,0,76.3,0,114.5,0c9.5,0,17.3,3,22.5,11.3c-1.3,2.8-3.2,0.9-4.3,0.1
	c-5.5-4-11.6-4.5-18.1-4.5c-62.1,0.1-124.2,0.1-186.3,0c-11.6,0-21.5,8.7-22.8,20.2c-0.3,2.3,0.7,5.2-2.6,6.3
	c-6.5-16.1,4.4-32.8,22-33.3c10.8-0.3,21.6-0.1,32.4,0c2.4,0,4.6-0.3,6.6-1.7c3,2.9,6.5,2.3,10,1.2c2-1.5,4-1.2,6-0.2
	C2544.5-74.8,2549-72.4,2553.1-75.3z"/>
<path class="st4" d="M2504.7-121.3c10.1,0,20.3,0,30.4,0c3.3,0,6.8,0,7,4.4c0.1,4.4-3.3,4.6-6.7,4.6c-20.9,0-41.9,0-62.8,0
	c-3.2,0-6.4-0.3-6.5-4.3c-0.1-4.4,3.3-4.7,6.7-4.7C2483.5-121.3,2494.1-121.3,2504.7-121.3z"/>
<path class="st4" d="M2532.2-92c-7.5,0-15,0-22.5,0c-3.1,0-5.9-0.7-6-4.4c-0.1-3.7,2.6-4.7,5.8-4.7c15.3,0,30.6,0,46,0
	c3,0,5.5,1.1,5.5,4.4c0.1,3.7-2.6,4.6-5.8,4.6C2547.5-92,2539.8-92,2532.2-92z"/>
<path class="st5" d="M2570.2-249.5c5.3,2.1,10.9,0.6,16.3,1c2.1,0.1,4.2,0,3.6,3.1c-1.9,1.9-4.3,1.6-6.6,1.6c-43.9,0-87.8,0-131.7,0
	c-2.3,0-4.7,0.2-6.6-1.7c-0.9-3.3,1.3-3,3.4-3c11.8,0,23.6,0,35.4,0c15.1,0,30.2,0,45.4,0c2,0,4,0.1,5.8-0.8
	c4.7,1.4,9.3,1.6,13.9-0.2c3.3-0.5,6.5-0.8,9.8-0.2C2562.7-247.6,2566.5-247.8,2570.2-249.5z"/>
<path class="st4" d="M1746.3,498.3c3,0.2,4.6,1.7,4.7,4.4c0,2.2,0.7,2.8,2.9,2.8c2.6,0.1,4.4,1.6,4.4,4.4c0,2.7-1.7,4.4-4.4,4.4
	c-2.1,0-2.8,0.7-2.8,2.8c-0.1,2.6-1.6,4.4-4.4,4.3c-2.8,0-4.4-1.6-4.4-4.3c0-2.2-0.8-2.8-2.9-2.8c-2.7,0-4.4-1.7-4.4-4.4
	c0-2.7,1.6-4.5,4.3-4.4c2.6,0,2.9-1.2,3-3.3C1742.4,499.7,1744.1,498.5,1746.3,498.3z"/>
<path class="st6" d="M1649.5,512.1c-2.7-0.3-4.5-1.5-4.7-4c-0.2-2.4-0.8-3.5-3.5-3.5c-2.5,0-3.8-1.9-3.9-4.3c0-2.2,1.3-4,3.5-4.2
	c2.5-0.3,3.7-0.9,3.9-3.7c0.1-2.4,2.1-3.8,4.5-3.7c2.2,0.1,3.9,1.4,4,3.7c0.1,2.4,0.7,3.5,3.4,3.6c2.4,0.1,4,1.9,4,4.3
	c0,2.6-1.5,4.5-4.3,4.4c-2.6-0.1-2.9,1.3-3,3.4C1653.4,510.7,1651.5,511.7,1649.5,512.1z"/>
<path class="st6" d="M1668.7,503.2c7.1-0.2,17.4,8.7,18.5,15.9c0.3,2.2-0.4,4-2.4,5c-2.1,1-4.3,0.6-5.3-1.3
	c-2.9-5.7-6.5-10.2-13.4-11.5c-2.2-0.4-2.6-2.9-2-5C1664.8,504.1,1666.5,503.2,1668.7,503.2z"/>
<path class="st7" d="M1730,507.8c-0.3,2.2-1.4,3.8-3.7,4.2c-5.3,0.8-8.5,4.2-10.7,8.8c-1.4,2.9-3.3,4.9-6.6,3.3
	c-3.5-1.8-2.9-4.7-1.4-7.7c3.5-6.8,8.5-11.9,16.5-13C1727.7,502.8,1730.2,504.9,1730,507.8z"/>
<path class="st8" d="M2487.2-92c-1.2,0-2.3,0.1-3.5,0c-2.7-0.2-4.4-1.5-4.6-4.3c-0.1-2.8,1.6-4.3,4.2-4.6c2.1-0.2,4.3-0.2,6.5-0.1
	c2.8,0.1,5,1.3,5.1,4.4c0.1,3.3-2.2,4.6-5.3,4.6C2488.8-92,2488-92,2487.2-92C2487.2-92,2487.2-92,2487.2-92z"/>
<path class="st9" d="M2559-249.6c-3.2,1.7-6.5,1.7-9.8,0.2c-1.7-2.4-2.2-5,0.4-6.9c2.6-1.8,5.7-1.7,8.4-0.1
	C2560.9-254.8,2560.5-252.2,2559-249.6z"/>
<path class="st10" d="M2540.2-74.5c-2,1-4,0.4-6,0.2c-2.4-3-2.9-6,0.9-8.1c2.1-1.1,4.6-0.8,6.3,1.4
	C2543.2-78.5,2541.9-76.4,2540.2-74.5z"/>
<path class="st11" d="M1245.3,475.4c7-11.5,13.4-22.1,19.8-32.7c1-1.7,1.9-1.2,3.2-0.4c2.6,1.5,4.9,1.1,6.4-1.5
	c1.5-2.7,0.2-4.8-2.1-6.4c-4-2.8-7.9-5.6-11.9-8.3c-2.4-1.6-4.7-1.7-6.6,0.8c-1.9,2.5-1.1,5,1.3,6.4c3.3,1.9,2.7,3.6,1,6.3
	c-6.6,10.6-13,21.3-19.5,32c-1.9,3.2-10.9,5.7-14,3.8c-1.8-1.1-0.4-2.7-0.1-3.9c4.9-20.4,9.8-40.8,14.7-61.2
	c3.8-15.5,7.5-31.1,11.3-46.6c5.9-23.9,25.8-39.8,50.3-40c23.5-0.2,47,0,70.5-0.1c3.3,0,4.2,0.9,4.2,4.2c-0.2,16-0.2,32,0,48
	c0,3.2-0.7,4.5-4.1,4.2c-14.8-1.3-21,2.8-20.2,20.2c0.6,11.5,0,23,0.2,34.5c0,3-0.8,4-3.9,3.9c-8.7-0.2-17.4,0.4-26-0.2
	c-18.2-1.2-28.9,13.4-29.7,28.3c-0.5,8.9-0.5,8.9-9.3,8.9C1269.6,475.4,1258.1,475.4,1245.3,475.4z"/>
<path class="st12" d="M1184.2,502.5c12.1-0.1,24.3-0.2,36.4-0.2c33.1,0,66.2,0,99.3,0c2.4,0,4.8,0.1,6.1-2.4
	c1.3-2.6-0.1-4.4-1.8-6.1c3.4-3,7.2-1.7,10.9-1.3c2.4,0.9,1.2,2.7,1,4.2c-0.4,2.7,0.9,4.1,3.5,4.4c2.5,0.2,5,0.2,7.5,0.1
	c5.5-0.2,6.3-1.3,5-6.6c-0.1-0.5,0-1,0.2-1.4c1.2-1.3,2.8-1.6,4.4-2.2c9.1-3.3,15.2-9.5,17-19.1c0.8-4.4,2.9-5.8,7-5.7
	c5.3,0.1,10.6,0.3,15.9,0c9.3-0.5,15.2,4.4,20.2,11.4c0.5,0.7,0.3,2.2,1.9,1.3c0,13.7,0,27.4,0,41.1c-1.4,0.6-1.8-0.6-2.5-1.2
	c-20.7-17.8-49.7-13-63.5,10.7c-0.4,0.7-0.9,1.4-1.3,2.1c-1.4,2.3-3.7,2.6-6.1,2.6c-24.7,0.1-49.4,0.1-74.1,0c-2,0-4-0.4-5.6-1.6
	c-7-13.4-17.4-22.4-32.8-24c-17.8-1.9-31.4,5.3-40.7,20.5c-0.5,0.8-1.1,1.7-1.6,2.5c-3.6,3.7-7.7,2.7-11.9,1.5
	c-1.5-1.4-1.7-3.3-1.3-5c1.5-7.3,3.1-14.5,4.6-21.8C1182.1,504.7,1183.1,503.6,1184.2,502.5z"/>
<path class="st13" d="M1418.6,478.7c-0.1,0.8-0.2,1.6-0.5,3.1c-1.4-2.1-2.3-4.1-3.6-5.6c-4.7-5.4-10.1-9.5-18-8.9
	c-5.8,0.4-11.7,0.1-17.5,0.1c-1.6,0-3.4-0.2-3.7,2.2c-1.8,13.6-10,21.1-23.1,23.9c-5.3,2.3-10.6,2.1-15.9,0.1c-4.1,0-8.2,0-12.2,0.1
	c-28.8-0.1-57.6-0.1-86.4-0.2c-20.1,0-40.3,0-60.5,0c1.4-5.1,5.4-8.5,11.1-9.1c2.1-0.2,4.3-0.2,6.5-0.2c48.6,0,97.3,0,145.9,0
	c15.4,0,23.1-7.3,23.8-22.5c0.1-2.4,0.5-3.6,3.3-3.6c10,0.2,20-0.2,30,0.2C1409.2,458.8,1417.3,467.1,1418.6,478.7z"/>
<path class="st14" d="M1155.3,278.4c8.8-0.9,8.8-0.9,8.8,7.6c0,70.4,0,140.9,0,211.3c0,8.9,0,8.9-8.8,8.2c-2.3-2.9-1.7-6.4-1.7-9.6
	c0-69.3,0-138.6,0-207.9c0-1.5,0-3,0-4.5C1153.8,281.7,1154.1,279.9,1155.3,278.4z"/>
<path class="st15" d="M1416.2,532.7c7.4,10.3,6.2,32.6-9.2,42.8c-19,12.6-41.7,3.1-48.6-15.1c-0.3-6.3-0.5-12.4,2.1-18.5
	c8.3-19.5,32.1-26.7,49.5-14.6C1412.2,528.9,1413.3,531.8,1416.2,532.7z"/>
<path class="st16" d="M1256.4,534.4c9,14.9,1.3,36.7-15.7,44c-17.1,7.4-36.2-0.6-43.3-18.1c0-5.1-0.8-10.1,1-15.3
	c4.7-13.1,13.6-21,27.2-23.3c11.1-1.9,20.3,1.8,27.8,10C1254.4,532.7,1255,534,1256.4,534.4z"/>
<path class="st17" d="M1356,452.4c0,3.5,0.2,7,0,10.4c-0.4,7.8-5.2,12.6-13,12.6c-12.9,0-25.9-0.1-38.8-0.1
	c-4.2-9.5,2.2-22.5,12.8-23.8c12.2-1.5,24.6-0.7,36.9-0.3C1354.7,451.3,1355.5,451.8,1356,452.4z"/>
<path class="st18" d="M1265.4,532.4c26.9,0,53.7,0,80.6,0c1.8,0,3.6,0,5.3-1c-0.6,1.7-1.3,3.4-1.8,5.2c-2.5,8-2.4,8-11.1,8
	c-21.7,0-43.3-0.1-65,0.1c-3.5,0-5.5-0.7-5.9-4.6C1267.3,537.5,1266.2,535,1265.4,532.4z"/>
<path class="st19" d="M1391.3,449.4c-8.4,0.4-8.4,0.4-8.4-7.8c0-36.4,0-72.8,0.1-109.2c0-2.9-1.4-5.9,0.3-8.7
	c7.7,2.7,9.6,8.5,9.5,16.1c-0.2,34.1-0.1,68.3-0.1,102.4C1392.8,444.7,1393.2,447.3,1391.3,449.4z"/>
<path class="st20" d="M1155.3,278.4c0,75.7,0,151.4,0,227.1c-5.1,1.5-4.4-1.9-4.4-5c0-64.5,0-128.9,0-193.4c0-8.2,0.2-16.3-0.1-24.5
	C1150.7,279.1,1152,277.9,1155.3,278.4z"/>
<path class="st21" d="M1360.3,389.5c3.9-2.2,8.1-0.7,12.1-0.9c2.1-0.1,1.9,1.8,1.9,3.3c0,14.3-0.1,28.6-0.1,42.8
	c0,2.7-0.7,4-3.6,3.8c-2.5-0.2-5-0.2-7.5-0.2c-1.3-1.3-1.4-3-1.4-4.7c-0.1-12.1-0.1-24.3,0-36.4c0-3.7,1.4-6.2,5.6-6.1
	C1365,390.7,1362.3,391.5,1360.3,389.5z"/>
<path class="st22" d="M1149.1,514.9c4.5,0,11.3-1.7,12.8,0.4c2.4,3.3-0.9,8.9-1.5,13.6c-0.3,2.2-0.7,3.7-3.5,3.6
	c-6.5-0.2-12.9-0.1-19.4,0c-2.3,0-3.5-0.7-3.2-3.1c0-0.2,0-0.3,0-0.5c0.3-4.6-2-10.6,0.9-13.4
	C1138.3,512.4,1144.4,514.9,1149.1,514.9z"/>
<path class="st23" d="M1256.4,534.4c-2.3,1.1-2.7-1.3-3.7-2.3c-9.5-9.8-24.7-12.9-37.3-5.7c-10.6,6.1-16.8,15.1-17.2,27.7
	c-0.1,2.1,0.8,4.3-0.8,6.2c-6-14.9,1.2-33.2,15.6-40.1C1229.6,512.2,1247.3,518,1256.4,534.4z"/>
<path class="st24" d="M1356,452.4c-10.9,0-21.9,0.4-32.8,0.1c-12.6-0.4-17.8,6.1-18.9,17.9c-0.2,1.6-0.1,3.3-0.1,5
	c-4,1-5.1-0.7-5-4.7c0.1-5.4,0.7-10.6,3.6-15.3c2.9-4.6,6.9-8,12.4-8c18.9-0.2,37.9-0.1,56.8,0c0.6,0,1.2,0.3,1.9,1
	c-3.3,1.7-7,0.9-10.5,1C1360.5,449.5,1357.6,449.3,1356,452.4z"/>
<path class="st23" d="M1416.2,532.7c-1.7,0.4-1.7,0.4-2.9-0.8c-13.8-13.5-33.9-11.6-45.8,1c-5.3,5.6-8,12.4-8.3,20.3
	c-0.1,2.4,1,5-0.9,7.2c-5.7-16,1.1-33.3,16-40.4C1389.7,512.5,1407.1,517.8,1416.2,532.7z"/>
<path class="st25" d="M1391.3,449.4c0-36.7,0-73.4,0-110.1c0-5.8,0.1-11.5-7.3-13.3c-0.4-0.1-0.5-1.5-0.7-2.2
	c6.8-0.5,10.6,2.9,10.6,9.9c0.1,11,0,22,0,33c0,26.1,0,52.3-0.1,78.4C1393.9,446.7,1395.4,449.9,1391.3,449.4z"/>
<path class="st26" d="M1184.2,502.5c-2,9.9-4.9,19.7-6,29.8c0.1,4.2-0.4,8.4-2.9,12c-5.8-0.4-8-2.7-7.1-8.1
	c1.7-10.3,3.7-20.6,5.5-30.9c0.4-2.1,1.1-3.3,3.5-3.1C1179.5,502.5,1181.9,502.5,1184.2,502.5z"/>
<path class="st27" d="M1360.3,389.5c3.5,0,7,0,10.4,0c1,0,2.2,0,2.3,1.3c0.2,1.7-1.3,1.6-2.4,1.7c-1,0.1-2,0.1-3,0
	c-3.6-0.5-4.4,1.2-4.4,4.6c0.1,13.7,0,27.5,0,41.2c-2.7,0.6-4.5,0.2-4.5-3.2c0.1-14.4,0.2-28.7,0.3-43.1
	C1359,390.9,1359.4,390.1,1360.3,389.5z"/>
<path class="st28" d="M1175.3,544.3c0.5-4.1,0.8-8.3,2.9-12c4.1-0.2,8.3,0.9,12.2-0.9c-0.5,1.4-0.9,2.8-1.4,4.2
	C1185.7,545.3,1185.7,545.3,1175.3,544.3z"/>
<path class="st29" d="M2121.2-138.4c2.1,0.9,4.2,1.8,6.3,2.8c5.7,2.8,8.2,1.3,8.3-5.3c0.1-4.8,0.1-9.6,0.2-14.4
	c1.6-1.5,3.1-0.5,4.7,0c18.8,6,38,10.7,56.4,17.8c0.6,0.2,1.3,0.4,1.9,0.3c0.5,0.1,1,0.2,1.4,0.4c9.2,4.2,10.6,3.3,10.7-6.7
	c0-4,0.1-8,0.2-12c2.7-1,5.3,0.1,7.8,0.9c15.2,4.9,30.5,9.4,45.8,14.1c3.1,1,5.7,3.3,9.2,3.1c3.3,0.4,4.1,2.5,4.1,5.6
	c-0.1,48.1-0.1,96.3,0,144.4c0,3.8-1.1,4.8-4.8,4.7c-7.7-0.3-15.3-0.2-23-0.1c-5.3,0.1-6.4,2-4.4,7.4c0.8,0.8,0.5,1.8-0.4,1.8
	c-8,0.1-16,1.6-23.8-0.7c-0.1-0.3-0.2-0.6-0.2-1c0.2-2.9,0.4-6-3.8-6c-4.6,0-4.1,3.3-4,6.4c-2.8,2.8-5.4,2.4-7.6-0.8
	c2.1-5.2,0.7-7.2-5.2-7.2c-25.2,0-50.3-0.1-75.5,0.1c-4.7,0-6.2-1.1-6.2-6c0.3-24.7,0.1-49.3,0.1-74c0-6.8-0.8-7.6-7.4-7.6
	c-32.7,0-65.3,0-98,0c-6.3,0-7.6,1.3-7.6,7.7c0,24.5-0.1,49,0.1,73.5c0,4.8-0.8,7.2-6.2,6.4c-5-0.7-10.1,1.2-15.1-0.9
	c2.2-2,5-1.5,7.6-1.5c3.1,0,4.6-1.4,4.6-4.5c0-1.8,0-3.7,0-5.5c0-48.8,0-97.6,0-146.4c0-10.7,1.1-11.6,11.2-8.3
	c12.5,4.1,25.5,6.7,37.4,12.4c0.6,0.3,1.3,0.2,1.9-0.1c12.2,4.8,12.2,4.8,12.2-8.8c0-6.5-0.1-13-0.1-19.4c0-1.2-0.7-3.4,2.1-2.1
	c0.1,0.8,0.3,1.6,0.3,2.5c0.2,9.2,0.3,9,8.9,11.6c15.5,4.6,31.1,9.2,46.4,14.6C2119-138.4,2120.1-137.9,2121.2-138.4z"/>
<path class="st30" d="M2063.3,17.3c-14.5,0-29-0.1-43.5,0.1c-3.5,0-4.5-0.9-4.5-4.5c0.2-17.3,0.2-34.7,0-52c0-3.3,0.9-4.3,4.2-4.2
	c7.8,0.2,15.7,0,23.5,0.1c3.1,0,6-0.6,6.1-4.3c0.1-3.7-2.8-4.4-5.9-4.4c-8,0-16-0.2-24,0.1c-4.4,0.2-3.7-2.5-3.8-5.1
	c-0.1-2.7-0.2-4.6,3.7-4.6c29.3,0.2,58.7,0.1,88,0c3.3,0,3.8,1.2,3.8,4.1c-0.1,23.5-0.1,47,0,70.5c0,3.7-1.3,4.4-4.6,4.3
	C2092,17.2,2077.7,17.3,2063.3,17.3C2063.3,17.3,2063.3,17.3,2063.3,17.3z"/>
<path class="st31" d="M2222.3,24.6c0.1,0.3,0.2,0.9,0.3,0.9c7.8,0.1,15.6,0.6,23.4-0.2c0,0,0.1-0.3,0.1-0.5c2,0.9,4.2,0.9,6.4,0.9
	c11.8,0,23.7,0.1,35.5-0.1c3,0,4.5,0.5,4.5,4.1c0,7.8,0.2,7.8-7.7,7.8c-102.3,0-204.6,0-306.9,0c-6.1,0-8.9-4.4-6.6-10.3
	c0.5-1.1,1.2-1.5,2.3-1.5c1.5,0,3,0,4.5,0c73.6,0,147.3,0,220.9,0c2.5,0,5,0.4,7.3-1.1c2.3,1.4,4.6,2.1,6.9,0.1
	C2216.2,23.8,2219.2,23.8,2222.3,24.6z"/>
<path class="st32" d="M2048.2-137.3c-1.8,1.8-3.5,0.1-5.1-0.4c-12.5-3.8-25-7.7-37.6-11.5c-6.3-1.9-6.3-1.8-6.3,4.7
	c0,51.1,0,102.3,0,153.4c0,8.6,1.1,7.5-7.8,7.6c-2,0-4,0-6,0c-0.1-1.5-0.2-3-0.2-4.5c0-58.5,0-116.9,0-175.4c0-1.5,0.1-2.9,0.2-5.2
	C2006.7-157.9,2027.4-147.6,2048.2-137.3z"/>
<path class="st33" d="M2218.2-203.5c-6.1,0.1-12.3,0-18.4,0.3c-3,0.1-3.6-1.2-3.5-3.8c0.4-6.1,0.6-12.3,0.8-18.4
	c0.1-2.2,0.8-3.3,3.2-3.2c5.6,0.2,11.3,0.2,16.9,0.2C2220.3-220.2,2221.1-211.9,2218.2-203.5z"/>
<path class="st33" d="M2141.2-203.5c-5.6,0.1-11.3,0-16.9,0.2c-2.7,0.1-3.8-0.5-3.6-3.6c0.5-6.1,0.6-12.3,0.6-18.4
	c0-2.5,0.9-3.6,3.5-3.5c5.5,0.2,10.9,0.2,16.4,0.2c2,7.5,3,15,1.7,22.7C2142.8-204.7,2142.2-204,2141.2-203.5z"/>
<path class="st34" d="M2274.1-137.3c-4,1.3-7.2-1.2-10.7-2.2c-17.4-5.2-34.7-10.6-52.1-16c-0.1-3.2,0-6.3-0.2-9.5
	c-0.2-3.2,1-3.3,3.4-2c19.5,10,39.5,18.9,58.7,29.4C2273.5-137.4,2273.8-137.3,2274.1-137.3z"/>
<path class="st34" d="M2199.1-137.2c-5.7,0.9-10.4-2.2-15.5-3.7c-15.9-4.5-31.7-9.6-47.5-14.4c0,0,0,0,0,0c-0.8-3.5-0.2-7-0.3-10.6
	c0-1.1,0.3-1.9,1.7-1.7C2158-157.5,2178.6-147.3,2199.1-137.2z"/>
<path class="st32" d="M2121.2-138.4c-1.6,1.9-3.3,0.7-5,0.1c-17.5-5.4-35.1-10.8-52.6-16.1c-1.2-0.4-2.5-0.6-2.3-2
	c0.3-3.7-1.3-7.6,1-11.1C2082-157.8,2101.6-148.1,2121.2-138.4z"/>
<path class="st35" d="M2217.2-175.4c-2.1-1-4.2-2-6.3-3c-5.9-2.8-8.8-1.3-8.4,5.1c0.2,4.5-2,4.3-5,4.2c-2-0.1-2.5-0.8-2.4-2.7
	c0.4-6.6,0.7-13.3,0.8-19.9c0.1-2.1,0.6-2.9,2.9-2.9c6.5,0.2,12.9,0.2,19.4,0.3c2.5,5.2,2.1,10.9,2.2,16.4
	C2220.4-176.4,2219.7-174.4,2217.2-175.4z"/>
<path class="st35" d="M2140.1-176.4c-0.9-0.4-1.9-0.7-2.7-1.1c-8.3-4-9.5-3.4-10.2,5.8c-0.3,3.8-2.8,2.3-4.6,2.6
	c-2.1,0.3-3.5-0.1-3.3-2.8c0.4-6.6,0.7-13.3,0.8-19.9c0-2.4,1.2-2.7,3.1-2.6c6,0.1,12,0.1,17.9,0.2c2.7,2.9,3.7,14.5,1.5,17.5
	C2142-176,2141.1-175.8,2140.1-176.4z"/>
<path class="st35" d="M2198-240.6c0.2-6.9-0.4-13.9,1.1-20.8c4.9-1,9.9-0.2,14.8-0.5c2.4-0.1,3.4,1.2,3.5,3.3
	c0.2,5.3,1.3,10.5,1.2,15.9c-0.1,3.3-1.3,5.2-5.1,4.9c-4.3-0.3-8.6-0.1-12.9-0.1C2198.9-237.9,2197.2-238,2198-240.6z"/>
<path class="st36" d="M2122.2-238.4c0-7.7,0-15.3,1.1-22.9c5.1-1.1,10.2-0.3,15.3-0.5c2.2-0.1,2.8,1.6,2.9,3.3
	c0.2,5.1,1.2,10.2,1.2,15.3c0,3.9-1.5,5.7-5.7,5.3C2132.1-238.4,2127.2-237.3,2122.2-238.4z"/>
<path class="st37" d="M2122.2-238.4c4.8,0,9.6-0.1,14.4,0.1c3.4,0.2,4.9-0.8,4.5-4.4c-0.5-5.2-0.7-10.5-0.9-15.8
	c-0.1-2.2-1.1-2.8-3.1-2.8c-4.6,0-9.3,0-13.9-0.1c3.5-1.9,7.4-0.6,11-0.8c3.8-0.2,7.6,0.2,11.5,0.1c2.4-0.1,3.6,0.5,3.6,3.3
	c0,5.8,0.3,11.6,0.7,17.4c0.2,2.9-0.5,4.2-3.7,4.1c-6.8-0.2-13.6,0.1-20.4,0C2124.8-237.3,2123-236.4,2122.2-238.4z"/>
<path class="st38" d="M2198-240.6c0.4,1.7,1.4,2.4,3.2,2.3c4.1-0.1,8.3-0.1,12.4,0c2.5,0.1,3.7-0.8,3.5-3.5
	c-0.4-5.6-0.7-11.2-0.9-16.8c-0.1-2.3-1.3-2.7-3.2-2.7c-4.6,0-9.3-0.1-13.9-0.2c8-1.8,16-0.4,24-0.5c1.5,0,1.8,1,1.9,2.3
	c0.2,6.5,0.5,12.9,0.8,19.4c0.1,2.2-0.8,2.9-2.9,2.9c-7.6,0-15.3,0-22.9,0.1C2197.4-237.2,2197-238.4,2198-240.6z"/>
<path class="st39" d="M2141.2-203.5c2.4-8.3-0.7-16.7,0-25c9.5-0.1,9.5-2.5,9.8,9.2c0.1,3.8-0.1,7.6,0.3,11.4
	c0.4,3.8-1.1,5.1-4.7,4.6C2144.9-203.5,2143.1-203.4,2141.2-203.5z"/>
<path class="st40" d="M2140.1-176.4c0.8-0.2,1.9-0.3,1.9-1.2c-0.1-5.6,1.1-11.3-0.9-16.8c10.7-0.6,10.6-0.6,11.1,10
	c0.2,3.8,0.3,7.6,0.6,11.4c0.2,2.4-0.5,3.1-2.7,1.9C2146.9-173,2143.5-174.6,2140.1-176.4z"/>
<path class="st39" d="M2218.2-203.5c0.2-8.3-0.2-16.7-1-25c9-0.4,8.9-0.4,9.2,8.5c0.1,3.8,0.2,7.6,0.7,11.4c0.5,4-0.7,6-5,5.3
	C2220.9-203.5,2219.5-203.4,2218.2-203.5z"/>
<path class="st41" d="M2217.2-175.4c3.4-1,2-3.9,1.7-5.7c-0.8-4.4-0.5-8.8-0.8-13.1c9.4-0.7,9.5-0.7,9.8,8.4c0.2,5.1,0,10.2,0,15.9
	C2224.2-171.9,2220.7-173.7,2217.2-175.4z"/>
<path class="st42" d="M2127.1-146c-8.7-2.9-8.5-2.9-8.4-10.2c0-3.6,1.3-4.3,4.7-4.4c3.9-0.1,3.8,2.1,3.7,4.7
	C2127.1-152.7,2127.1-149.5,2127.1-146z"/>
<path class="st43" d="M2202.4-152.9c0,0.3,0.1,0.7,0,1c-0.7,1.8,1.5,5.6-1.6,5.3c-2.7-0.3-7.3-1.1-6.5-6.3c0.2-1.3,0.2-2.7,0.1-4
	c-0.3-3.4,1.7-3.6,4.3-3.6c2.6,0,4.1,0.6,3.8,3.6C2202.3-155.6,2202.4-154.2,2202.4-152.9z"/>
<path class="st29" d="M2137.4-167.6c-2.5,3.9-0.3,8.3-1.3,12.3c-1.3-3.8-0.4-7.7-0.6-11.5C2135.5-168.1,2136.3-168.5,2137.4-167.6z"
	/>
<path class="st14" d="M1304.4-236.5c19.2,10.3,38.3,20.6,57.5,30.9c9.9,5.3,9.9,5.3,16.1-4.2c3-4.6,6.1-9.1,9.1-13.7
	c2.1-0.4,2.7,1.3,3,2.6c1.7,9,3.8,17.9,0.7,27.1c-4.5,13.1-12.8,22.3-26.4,26.4c-16.3,4.9-32.8,8.9-49.2,13.1
	c-10.5,2.7-19.1,8-26.1,15.8c-12.9,14.4-25.4,29.1-38.2,43.5c-12.8,14.5-25.4,29-38.1,43.5c-16.2,18.5-32.5,37-48.8,55.4
	c-5.5,6.2-10.5,13-16.5,18.7c-10.7,10.3-22.7,14.8-37.1,7.9c-4.2-2.7-7.3-6.2-9.2-10.8c0.2-5.1-0.4-10.2,1-15.4
	c2.7-9.8,9.8-16,16.9-22.4c11.5-10.3,23.1-20.6,34.6-31c15.6-14.1,31.1-28.1,46.8-42.1c10.8-9.6,21.5-19.4,32.3-29
	c15.3-13.6,30.3-27.5,45.7-41c7.9-6.9,11.4-15.7,11.7-26.1c0.5-15.3,3.5-30.1,10.2-43.9C1301.3-233.1,1302.2-235.3,1304.4-236.5z"/>
<path class="st44" d="M1110.4,30.5c5.9,0.5,11.5,3.1,17.7,1.7c9.4-2.1,16.5-7.5,22.6-14.6c10.7-12.4,21.5-24.8,32.3-37.2
	c15.4-17.6,30.7-35.3,46.1-52.9c10.6-12.1,21.4-24.1,32-36.2c8.3-9.5,16.5-19,24.8-28.6c9.2-10.7,20.9-16.9,34.7-20.1
	c15-3.4,29.9-7.7,44.7-11.7c13.8-3.7,29-22.9,25.2-40.4c-1-4.7,0-10-3.4-14.1c1.7-2.8,3.4-5.5,5.2-8.3c2.4,16.2,9.6,32.1,1.8,48.3
	c-5.1,10.5-13.4,17.2-24.7,20.2c-15.7,4.2-31.5,8.5-47.3,12.5c-11,2.8-20.2,8.3-27.7,16.8c-32.3,36.9-64.7,73.8-97.1,110.7
	c-14.7,16.8-29.3,33.6-44.1,50.3C1142.2,39.2,1123,40.7,1110.4,30.5z"/>
<path class="st45" d="M1304.4-236.5c-6,10.7-9.4,22.2-11.7,34.1c-1.5,7.9-0.5,15.9-2.4,23.7c-1.9,8-6,14.5-12.5,19.8
	c-7.4,5.9-14.2,12.5-21.2,18.8c-22.6,20.3-45.3,40.5-67.8,60.9c-12.7,11.5-25.2,23.1-37.9,34.6c-12.7,11.5-25.5,22.8-38.2,34.3
	c-7.2,6.5-10.5,14.7-10.4,24.4c0,1.9,0.7,4-1.1,5.6c-7.1-13.3-4.2-28.5,7.7-39.3c17.7-16,35.4-31.8,53.2-47.7
	c35.1-31.4,70.1-62.9,105.3-94.3c9.8-8.8,14.8-19.5,14.7-32.6c-0.1-15.5,3.9-29.9,10.6-43.7c1.6-3.2,3-4.5,6.2-2
	C1300.5-238.6,1302.5-237.6,1304.4-236.5z"/>
<path class="st33" d="M1389.3,14.6c-3,8.7-10.1,13.7-16.8,19.2c-6.7,1.1-12.9-2.1-16.1-8.5c0.1-3.6-1.6-6.2-4.1-8.7
	c-18.8-18.7-37.6-37.4-56.2-56.2c-3-3.1-6-5.1-10.4-4.3c-3.4-1.4-4.6-4.1-4.6-7.5c0.2-13.4-6.1-21.9-19-25.5
	c-1.6-0.5-3.9-0.8-2.9-3.5c4.9-5.8,9.7-11.7,15.2-17c1.8,1.1,2,2.9,2.3,4.7c2.5,12.7,12,20.6,25.1,21c3.1,0.1,6.8-1.1,9,2.5
	c-1.8,5.5,0.9,9.1,4.7,12.9c17.9,17.6,35.5,35.4,53.3,53.1c0.6,0.6,1.2,1.2,1.8,1.8c5.3,5.2,6.5,5.1,10-1.1
	C1384,2.8,1388.2,7.9,1389.3,14.6z"/>
<path class="st46" d="M1222.4-133.3c-6.2,6.2-4.9,5-9.8,0.2c-26.5-26.4-53-52.8-79.3-79.4c-6.3-6.3-14.2-9.8-21.6-14.1
	c-3.7-2.2-6.6-4.7-8.5-8.7c-2-4.4-4.3-8.7-7-12.7c-2.8-4.1-2.1-6.9,2.1-9.3c12.4,4.8,24,10.6,29.6,23.9c2.9,6.8,7.7,12.3,13,17.5
	c25.9,25.7,51.6,51.5,77.3,77.2C1219.8-137.1,1221.9-135.8,1222.4-133.3z"/>
<path class="st47" d="M1310.3-68.4c-2.1-3.7-5.6-1.9-8.5-2c-10.3-0.4-18.3-4.8-24-13.4c-2.7-4.1-2.1-9.2-3.5-13.8
	c3.1-3.8,6.3-7.6,9.5-11.5c1.7,1.9,0.1,2.9-0.2,3.9c-2.7,7.8-1.4,14.9,4.4,20.7c5.8,5.9,13,7.4,20.6,4.3c3.1-1.2,4.7-0.6,6.8,1.6
	c22.6,22.8,45.4,45.4,68.1,68.1c7.1,7.1,9.8,15.2,5.9,24.8c-2.3-6-7.4-10.5-8.8-16.9c-2.3-0.4-3.6-2.3-5.1-3.8
	c-18.3-18.2-36.5-36.5-54.8-54.8C1317.6-64,1314.6-67.1,1310.3-68.4z"/>
<path class="st48" d="M1259.1-80.5c0.2,2.1,1.9,1.8,3.3,2.3c13.9,4.2,19.8,11.9,19.8,26.5c0,3.4,1.2,5.7,4,7.3
	c0.2,4.2,2.5,7.3,5.4,10.2c18.3,18.1,36.5,36.2,54.5,54.6c3.2,3.3,6.4,5.5,11.1,4.3c3.1,6.4,8.8,8.2,15.2,9.1
	c-10,5.5-19.9,4.5-27.8-3.4c-23.4-23.2-46.6-46.5-69.9-69.8c-1.3-1.3-2.2-2.3-1.4-4.6c5.4-15.4-3.1-27.4-19.3-27.5
	c-0.6,0-1.2-0.1-2.8-0.2C1254.2-74.9,1256.6-77.7,1259.1-80.5z"/>
<path class="st20" d="M1222.4-133.3c-1.4-1.2-2.8-2.3-4.1-3.6c-25-24.9-49.8-50.1-75-74.8c-8.1-7.9-14.8-16.6-19.7-26.6
	c-2.9-5.9-7.5-9.1-12.8-11.9c-4.3-2.2-8.6-4.3-12.5-7.2c1.3-2.5,2.9-2.6,5.3-1.3c5.9,3.4,11.9,6.7,18,9.8c2.1,1.1,3.3,2.8,4.2,4.7
	c6.6,13.9,16.6,25.1,27.5,35.7c23.4,22.8,46.2,46.1,69.4,69.1C1225.1-136.8,1226.1-135.1,1222.4-133.3z"/>
<path class="st14" d="M1353.3-256.4c-5.2,8.2-10.4,16.5-15.5,24.7c-1.2,1.9-2.3,1.9-4,0.9c-5.1-2.9-10.4-5.8-15.5-8.7
	c7.6-9.8,17.6-15.6,29.9-17.6C1349.9-257.3,1351.8-258,1353.3-256.4z"/>
<path class="st49" d="M1353.3-256.4c-11.6,1.3-22.2,4.6-30.3,13.7c-1.3,1.4-2.5,3.2-4.7,3.3c-5.4-2.6-5.3-2.5-1.4-6.8
	c10.5-11.2,23.6-15.4,38.6-15C1355.9-258.9,1354.4-257.8,1353.3-256.4z"/>
<path class="st14" d="M2463.2-40.5c1.3-1,1.1-2.4,0.9-3.7c-1.6-12.1,12.3-24.5,25.4-24.4c62.2,0.4,124.5,0.2,186.7,0.2
	c6.8,0,13.3,0.4,18.5,5.6c0.6,0.6,1.6,1.4,2.6,0.3c3.9,5.6,4.9,11.6,3.1,18.1c-5.4,12.6-15.2,17.5-28.5,17.5
	c-61.9-0.2-123.9-0.1-185.8-0.1c-4,0-8-0.2-11.8-1.5C2468.9-30.9,2465.2-34.9,2463.2-40.5z"/>
<path class="st50" d="M2581,25.4c34.2,0,68.3,0.1,102.5-0.1c4.2,0,6.1,0.7,5.7,5.4c-0.3,3.9,0.2,6.8-5.6,6.8
	c-68.3-0.2-136.6-0.2-204.9,0c-5.9,0-5.2-3.1-5.5-6.9c-0.2-4.2,1.1-5.3,5.3-5.3C2512.7,25.5,2546.8,25.4,2581,25.4z"/>
<path class="st51" d="M2583.5-83.1c-2-0.8-1.1-2.6-1.1-3.9c-0.1-19.8,0-39.6-0.1-59.4c0-3.6,1.1-4.6,4.5-4.4c4.6,0.3,9.3,0.2,14,0
	c2.6-0.1,3.5,0.7,3.5,3.4c-0.2,5.2,0.1,10.3-0.1,15.5c-0.1,4.3,1.6,6.5,6.1,6.4c6.2-0.1,12.3-0.1,18.5,0c3.9,0,5.8-1.7,5.7-5.8
	c-0.1-4.7,0.4-9.4-0.1-14c-0.5-4.9,1.6-6.2,5.9-5.5c1,0.1,2,0.2,3,0.3c1.3,1.2,0.8,2.7,0.7,4.2c-2.3,20.2-11.7,36.4-27.1,49.4
	c-5.8,4.9-12.3,8.5-19.1,11.6C2593.1-83.2,2588.4-82.5,2583.5-83.1z"/>
<path class="st12" d="M2583.5-83.1c13.8-1,24.7-8.1,34.7-16.8c15.3-13.3,23-30.5,24.9-50.5c13.1-1.1,13.1-1.1,13.1,11.8
	c0,17.1-0.1,34.3,0,51.4c0,3-0.4,4.5-4,4.5c-22.5-0.1-44.9,0-67.4,0C2584.4-82.8,2584-83,2583.5-83.1z"/>
<path class="st36" d="M2504.7,16.5c7.7-10.8,14.9-20.6,21.8-30.6c1.3-1.9,2.8-2.4,5-2.3c11,0.1,22,0.1,32.9,0c2.7,0,3.8,0.6,3.8,3.5
	c-0.2,8.6-0.1,17.3,0,25.9c0,2,0.1,3.5-2.7,3.5C2545.5,16.5,2525.6,16.5,2504.7,16.5z"/>
<path class="st36" d="M2657.6,16.5c-20.8,0-40.4,0-60,0.1c-2.6,0-3.4-0.8-3.4-3.4c0.1-8.8,0.1-17.6,0-26.4c0-2.4,0.8-3.1,3.2-3.1
	c11.1,0.1,22.3,0,33.4,0c1.3,0,2.6,0,3.5,1.3C2641.9-4.8,2649.4,5.4,2657.6,16.5z"/>
<path class="st52" d="M2474.2-28.4c66,0,131.9-0.1,197.9,0c11.6,0,20.7-3.9,26.4-14.4c0.4-0.7,1.2-1,1.9-1.5
	c-1.4,9.8-10.4,17.9-20.9,18.9c-1.8,0.2-3.7,0.1-5.5,0.1c-61.8,0-123.6,0-185.4,0C2483.5-25.3,2478.5-25.3,2474.2-28.4z"/>
<path class="st53" d="M2585.3,0.1c0,4.5-0.1,9,0,13.4c0.2,3.5-2.1,3-4.3,3.1c-2.2,0-4.3,0.3-4.2-3.1c0.2-9,0.2-17.9,0-26.9
	c-0.1-3.5,2.1-3,4.3-3.1c2.3,0,4.3-0.2,4.2,3.2C2585.2-8.9,2585.3-4.4,2585.3,0.1z"/>
<path class="st54" d="M2644.3-16.5c5.8,0,10.1,0.1,14.4,0c2.5-0.1,3.5,0.7,3.5,3.4c-0.2,6.3-0.1,12.6-1,19.4
	C2655.8-1,2650.4-8.3,2644.3-16.5z"/>
<path class="st55" d="M2613-142.8c0-7.9,2.6-9.8,10.7-8c1.8,0.4,2,1.4,2,2.8c0,1.8,0,3.6,0,5.5c0,8.2,0,8-8.1,8.2
	c-4.1,0.1-5.3-1.4-4.8-5.1C2613.1-140.5,2613-141.6,2613-142.8z"/>
<path class="st56" d="M2500.3,5.6c0-6.6,0-13.1,0-19.7c0-2.1,1.2-2.4,2.9-2.4c4.3,0,8.6,0,14.2,0c-5.7,8-10.9,15.2-16.1,22.5
	C2501,5.9,2500.6,5.8,2500.3,5.6z"/>
<path class="st45" d="M1675,390.5c1.1-3.2,4.8-6.8-0.1-9.4c-4.8-2.4-5.9,2.5-7.9,5.3c-0.9,1.3-1.8,2.8-2.7,4.1
	c-2.8,1.5-5.5,2.3-8.3-0.1c1.1-3.2,4.9-6.8-0.1-9.4c-4.8-2.4-5.9,2.5-7.9,5.3c-0.9,1.3-1.8,2.7-2.8,4.1c-1.7-1.7-1.6-4-1.6-6.1
	c-0.1-11-0.1-22,0-33c0.1-7.3,2.1-9.4,9.2-9.4c32.3-0.2,64.6,0,97-0.1c1.5,0,3,0.4,4.4,0.6c2,2.9,1,6.1,1.1,9.2c0.1,3.1-2.5,2-4.1,2
	c-13.5,0.1-26.9,0-40.4,0c-1.3,0-2.7,0-4,0c-3.1,0-5.4,1.2-5.4,4.5c0,3.3,2.4,4.3,5.5,4.3c14.3,0,28.6,0.2,42.9-0.1
	c4.6-0.1,5.9,1.2,5.7,5.7c-0.4,7.5-0.2,14.9-0.3,22.4c-1.7,1.3-3.4,3.5-5,0c0.2-0.6,0.2-1.4,0.5-1.8c2.2-2.7,2.8-5.5-0.4-7.5
	c-3.1-2-5.1,0.2-6.7,2.8c-1.3,2.2-2.8,4.4-4.2,6.6c-5.2,2.3-6.6,1.9-7.2-2.1c1.4-2.9,2.3-5.9-1.3-7.6c-3.3-1.6-5.1,0.9-6.6,3.4
	c-1.2,2.1-2.6,4.2-3.9,6.2c-5,2-6.4,1.6-7.2-2.1c1.4-2.9,2.3-5.8-1.4-7.5c-3.4-1.6-5,0.9-6.6,3.4c-1.3,2.1-2.6,4.1-3.9,6.2
	c-2.8,1.1-5.6,3.5-8.2-0.2c1.1-3.2,4.8-6.8-0.2-9.3c-4.8-2.4-5.9,2.5-7.8,5.4c-1.2,1.8-2.1,3.7-3.8,5
	C1678.9,393.1,1676.8,392.7,1675,390.5z"/>
<path class="st57" d="M1766.1,284.7c0.2,5.1,2.2,11.6-0.7,15c-2.7,3.3-9.4,1-14.3,1c-39.6,0.1-79.2,0.1-118.8,0
	c-2,0-4.9,1.2-4.9-2.9c0-2.8,0.5-4.2,3.8-4.2c10.8,0.2,21.6,0.1,32.4,0c6.1,0,7.6-2.8,4.4-8.2c2.3-2,4.8-1.6,7.4-0.9
	c0.8,0.4,1.2,1.1,1.3,1.9c0.7,5,5,7.3,9.7,5.2c1.6-0.7,2.1-2,1.8-3.6c-0.2-1.5-0.7-3,1.3-3.7c1.9-0.6,3.9-0.6,5.9-0.6
	c21.7,0,43.5,0,65.2,0C1762.6,283.9,1764.4,283.7,1766.1,284.7z"/>
<path class="st45" d="M1664.1,433.5c-0.5-1.6,0.9-1,1.4-1c21.4,0,42.9,0,65.6,0c-10.2,15.9-19.9,31-29.7,46.1
	c-6-8.1-10.9-17-16.5-25.3c-3-4.4-5.8-8.9-8.4-13.5c-2-3.5-4.4-5.7-8.6-5.2C1666.4,434.9,1665.1,434.4,1664.1,433.5z"/>
<path class="st58" d="M1676.5,285.6c-2.8,0-5.6,0-8.4,0c-12-0.1-23.9-0.2-35.9-0.3c-2.6,0-4.8,0.4-4.9-3.6c-0.1-4,2.1-3.7,4.7-3.7
	c43.2,0.1,86.5,0.2,129.7,0c6.1,0,4.5,3.5,4.4,6.7c-2.1,0.9-4.2,0.7-6.4,0.7c-23.8,0-47.6,0-71.5,0.1
	C1684.3,287.8,1680.4,287.7,1676.5,285.6z"/>
<path class="st59" d="M1754.3,342.4c-1.6,1.8-3.8,1-5.7,1c-32,0-64,0-96,0c-6.8,0-7.4,0.6-7.4,7.5c0,13.2,0,26.3,0,39.5
	c-0.8,2.2-1.9,4.2-3.6,5.8c-2.6-2-3.2-4.6-3.2-7.6c0-13.8-0.1-27.7,0-41.5c0-6.4,3.5-9.8,10-9.8c32.3-0.1,64.6,0,97,0
	C1749.4,337.4,1752.6,338.5,1754.3,342.4z"/>
<path class="st14" d="M1740.2,328.4c-28,0.1-56.1,0.1-84.1,0.2c-2.4,0-3.3-0.9-3.1-3.2c0.2-2.6,0.2-5.3,0.2-7.9
	c2.3-1.9,5-1.6,7.6-1.6c23.8,0,47.6,0,71.4,0c8.5,0,8.6,0.1,8.5,8.6C1740.7,325.8,1741.1,327.2,1740.2,328.4z"/>
<path class="st20" d="M1653.3,422.5c-0.6-3-0.4-6-0.1-9c1.9-1.7,4.3-1.6,6.6-1.6c24.6,0,49.2-0.1,73.8,0c6.9,0,8.4,2.2,7.1,9
	c-0.3,1.4-0.9,2-2.2,2c-1.2,0-2.3,0-3.5,0c-25.6,0-51.2,0-76.8,0C1656.6,422.9,1654.9,423.4,1653.3,422.5z"/>
<path class="st60" d="M1740.2,328.4c0.1-10.9,0.1-10.9-10.5-10.9c-25.5,0-51,0-76.5,0c-0.1-0.7-0.1-1.3-0.2-2
	c-0.8-4.6,0.7-6.2,5.8-6.2c25.8,0.3,51.6,0.2,77.4,0c3.9,0,5.4,1.1,5,5C1740.6,319,1742.4,323.8,1740.2,328.4z"/>
<path class="st53" d="M1653.3,422.5c27.3,0,54.5,0,81.8,0.1c3.1,0,5.2,0,5.3-4.3c0-4.3-1.8-4.8-5.3-4.8c-27.3,0.1-54.5,0-81.8,0
	c-1.4-4.8,0.2-6.3,5.3-6.2c25.6,0.2,51.3,0.2,76.9,0c4.1,0,5.8,0.6,5.8,5.3c-0.1,10.9,0.2,10.9-10.9,10.9c-24.1,0-48.3-0.1-72.4-0.2
	C1656.4,423.4,1654.5,424.2,1653.3,422.5z"/>
<path class="st59" d="M1664.1,433.5c7-1.3,11.4,1.3,15,7.8c5.8,10.5,12.9,20.4,19.4,30.6c1.3,2.1,2.6,4.3,3,6.8
	c-4.2,7.7-4.2,7.8-8.8,0.4C1683.1,463.9,1672.9,449.1,1664.1,433.5z"/>
<path class="st53" d="M1713.2,388.5c1.5,3.9,4.8,1.3,7.2,2.1c-4.5,8.9-4.5,8.9-13.1,7.5C1709.4,394.8,1711.3,391.6,1713.2,388.5z"/>
<path class="st53" d="M1732.3,388.5c1.2,4.7,4.9,1,7.2,2.1c-4.4,8.6-4.4,8.6-12.7,7.7C1728.1,394.7,1730,391.5,1732.3,388.5z"/>
<path class="st22" d="M1656,390.5c2.8,0,5.5,0,8.3,0.1c-2.4,5.4-4.8,10.5-12.6,7.6C1652.4,395.3,1654.2,392.9,1656,390.5z"/>
<path class="st61" d="M1693.2,390.4c2.7,1.2,5.5-0.4,8.2,0.2c-4.3,8.6-4.3,8.6-12.7,7.8C1689.5,395.3,1691.3,392.8,1693.2,390.4z"/>
<path class="st53" d="M1675,390.5c2.1,0.3,4.2,0.7,6.3,1c-2.4,7.4-2.7,7.6-10.6,6.9C1671.4,395.3,1673.2,392.9,1675,390.5z"/>
<path class="st62" d="M1750.2,390.5c1.7,2,3.4,0,5,0c-1.3,5.9-3.4,7.7-9.5,7.9C1746.7,395.3,1748.4,392.9,1750.2,390.5z"/>
<path class="st63" d="M2445.3-245.4c48.3,0,96.6,0,144.9,0c0.6,2.2,1.3,4.4,1.9,6.6c-2,1.1-3.9,0.6-5.7,0.6c-44.8,0-89.5,0-134.3,0
	C2444.8-238.2,2444.8-238.2,2445.3-245.4z"/>
<path class="st35" d="M2512.2-228.9c-8.3,10.4-18.1,16-30.8,15.6c-11.3-0.4-19.9-5.6-26.4-15.6
	C2474.1-228.9,2492.6-228.9,2512.2-228.9z"/>
<path class="st35" d="M2529.5-229c19.7,0,38.9,0,58.2,0C2575.8-209.1,2545.9-209.1,2529.5-229z"/>
<path class="st64" d="M2641.2-257.3c-1.3,11.7-1.3,11.7-12.6,11.7c-8.3,0-16.6-0.2-24.8,0.1c-3.7,0.1-5.1-1.2-5.4-4.6
	c-0.3-2.5-0.8-4.9-1.2-7.3c1.5-1.7,3.6-1.6,5.6-1.6c11-0.1,21.9-0.1,32.9,0C2637.6-259,2639.7-259,2641.2-257.3z"/>
<path class="st14" d="M2701.1-245.4c0.5,7.2,0.5,7.2-6.8,7.2c-13.8,0-27.6,0-41.4,0c-7.1,0-7.1,0-4.7-7.2c1.7-1.7,3.9-1.5,6.1-1.5
	c13.6,0,27.1,0,40.7,0C2697.1-246.9,2699.3-247.1,2701.1-245.4z"/>
<path class="st65" d="M2641.2-257.3c-14.7,0-29.3,0-44,0c-2.1-6.9-2.1-6.9,4.7-6.8c11.6,0,23.2,0,34.8,0
	C2643.5-264.2,2643.5-264.2,2641.2-257.3z"/>
<path class="st66" d="M2619.4-236.7c3.3,0,6.6,0.1,9.9,0c2.3-0.1,2.7,1.1,2.6,3.1c-0.4,6.1-6.5,11.3-13.1,11.1
	c-6.3-0.2-12.1-5.7-12.4-11.5c-0.1-2.4,1-2.8,3-2.8C2612.8-236.7,2616.1-236.7,2619.4-236.7C2619.4-236.7,2619.4-236.7,2619.4-236.7
	z"/>
<path class="st67" d="M2701.1-245.4c-17.6,0-35.2,0-52.9,0c-0.4-2.5,0.9-3.1,3.2-3.1c15.6,0.1,31.3,0.1,46.9,0
	C2700.5-248.5,2701.9-248,2701.1-245.4z"/>
<path class="st68" d="M1696.7,579.4c-34.3,0-68.7-0.1-103,0.1c-5.3,0-5.4-2.2-5.4-6.2c0-4,0.3-6.1,5.5-6.1
	c68.6,0.2,137.3,0.1,205.9,0.2c1.8,0,4.6-1.1,5.3,1.3c0.8,3.1,1.1,6.7-0.2,9.8c-0.7,1.6-3,0.8-4.6,0.8
	C1765.7,579.4,1731.2,579.4,1696.7,579.4z"/>
<path class="st17" d="M1728.1,544.4c0.8,14.2,0.8,14.2-13,14.2c-15,0-30-0.1-45,0.1c-3.8,0.1-5-1.1-4.8-4.8c0.3-4.3,0.1-8.7-0.1-13
	c-0.1-2.6,0.9-3.5,3.5-3.5c19,0.1,38,0,56.9,0c1,0,2-0.1,2.5,1.1c-2.2,2-5,1.5-7.6,1.5c-15.1,0.1-30.3,0-45.4,0
	c-2,0-4.2-0.4-6.3,1.4c2.1,1.8,4.3,1.4,6.3,1.4c15.3,0,30.6,0,45.9,0.1C1723.4,542.9,1726,542.5,1728.1,544.4z"/>
<path class="st69" d="M1728.1,544.4c-19.2,0-38.3,0-57.5,0.1c-2.1,0-4.4,0.4-4.4-3c0-3.5,2.3-3,4.4-3c19.2,0,38.3,0.1,57.5,0.1
	C1728.1,540.5,1728.1,542.4,1728.1,544.4z"/>
<g>
	<path class="st0" d="M119.9,201c-30.4,0-60.8,0-91.2,0c-4.1,0-4.4-0.4-4.5-4.3c0-1.9,0.1-3.8,0-5.8c-0.1-2.5,1-3.4,3.4-3.4
		c8.4,0,16.8,0,25.3,0.1c2,0,2.8-0.4,2.6-2.6c-0.2-2.4,0-4.8-0.1-7.1c-0.1-2.4,0.9-3.7,3.4-3.5c2.1,0.2,2.5-0.6,2.5-2.6
		c-0.1-37.2-0.1-74.5,0-111.7c0-2.3-0.5-3.1-2.9-2.8c-2.7,0.3-6.2-1.1-7.9,0.6c-1.5,1.6-0.4,5-0.4,7.7c-0.1,2.6-0.1,5.1,0,7.7
		c0.1,2.3-1,3.3-3.3,3.3c-6.9-0.1-13.7-0.1-20.6,0c-2.7,0-3.5-1.2-3.5-3.7c0.1-4.3-0.1-8.6,0.1-12.9c0.1-2.3-0.7-2.8-2.8-2.6
		c-2,0.2-4,0-6,0c-1.9,0-2.9-1-2.9-2.9c0-2.8,0.1-5.7,0-8.5c-0.1-2.6,1.1-3.6,3.6-3.6c11.6,0.1,23.2,0,34.9,0c0.5,0,1.1,0,1.6,0
		c1,0.1,1.5-0.3,1.5-1.4c0-0.9-0.3-1.4-1.3-1.3c-3.3,0.3-3.8-1.6-3.7-4.3c0.1-2,0.1-4,0-6c-0.2-2.6,1-3.6,3.6-3.6
		c7.8,0.1,15.6,0,23.3,0c8.2,0,16.5,0,24.7,0c3.6,0,4,0.4,4.1,4.2c0,2.1-0.1,4.2,0,6.3c0.1,2.3-0.8,3.5-3.2,3.4c-1,0-1.8,0-1.8,1.4
		c0,1.7,1.1,1.3,2.1,1.3c16.9,0,33.9,0,50.8,0c4.6,0,4.7,0.2,4.7,4.8c0,5.9,0,11.9,0,17.8c0,1.6,0.4,2.7,1.4,3.9
		c3.9,4.2,7.8,8.5,11.5,12.9c1,1.2,2.1,1.9,3.7,1.7c2.6-0.3,3.6,1,3.6,3.6c-0.1,9.2,0,18.5,0,27.7c0,2.5-1.1,3.4-3.5,3.4
		c-12.8,0-25.6,0-38.4,0c-2.5,0-3.4-1.1-3.4-3.5c0.1-9.2,0.1-18.5,0-27.7c0-2.6,1-3.8,3.6-3.5c1.5,0.2,2.5-0.4,3.5-1.6
		c3.9-4.5,7.8-8.9,11.9-13.3c1.2-1.3,1.2-2.6,1.1-4c-0.1-2.4,0.7-5.4-0.4-6.9c-1.3-1.5-4.5-0.5-6.8-0.5c-17.1,0-34.2,0-51.3-0.1
		c-2.2,0-2.7,0.6-2.7,2.7c0.1,37.2,0.1,74.5,0,111.7c0,2.1,0.5,2.9,2.7,2.7c2.3-0.2,3.3,1,3.2,3.4c-0.1,2.6,0.1,5.1-0.1,7.7
		c-0.1,1.8,0.6,2.2,2.2,2.1c3.5-0.1,7-0.1,10.4,0c1.7,0.1,2.2-0.5,2.1-2.1c-0.1-8,0-15.9,0-23.9c0-3.2,0.6-3.8,3.9-3.8
		c4.8,0,9.5-0.1,14.3,0c1.9,0.1,2.5-0.4,2.5-2.4c-0.1-7.9-0.1-15.7,0-23.6c0-3.3,0.5-3.8,3.8-3.8c12.5,0,25.1,0,37.6,0
		c3.3,0,3.9,0.6,3.9,3.8c0,7.9,0.1,15.7,0,23.6c0,2,0.6,2.4,2.5,2.4c4.5-0.1,9,0,13.5,0c3.8,0,4.3,0.5,4.3,4.2
		c0,7.8,0.1,15.6,0,23.3c0,1.8,0.4,2.3,2.3,2.3c4.4-0.1,8.8,0,13.2-0.1c2.4,0,3.6,0.9,3.5,3.4c-0.1,2.2-0.1,4.4,0,6.6
		c0.1,2.6-1.2,3.5-3.7,3.5c-9.6-0.1-19.2,0-28.8,0C162,201,141,201,119.9,201z"/>
	<path class="st70" d="M119.7,196.1c-29.3,0-58.5,0-87.8,0c-1.6,0-3.2,0.3-2.9-2.3c0.1-1,0.4-1.6,1.5-1.5c0.5,0,1.1,0,1.6,0
		c58.5,0,117.1,0,175.6,0c1,0,2.7-0.9,3,1.3c0.3,2.3-0.8,2.5-2.7,2.5C178.6,196.1,149.1,196.1,119.7,196.1z"/>
	<path class="st71" d="M150.7,162.7c0.6,0.3,0.5,0.9,0.5,1.4c-0.1,7-0.2,14.1-0.2,21.1c0,1.8-0.6,2.3-2.4,2.3
		c-10.6,0-21.2,0.2-31.8,0.2c-0.4,0-0.9,0-1.2-0.5c1.4-1.2,1.2-2.8,1.2-4.3c0-4.9,0-9.9,0-14.8c0-3.6,0.7-4.2,4.2-4.2
		c8.3-0.1,16.6,0,25,0C147.7,163.9,149.4,164.2,150.7,162.7z"/>
	<path class="st72" d="M191.4,162.7c0.6,0.2,0.5,0.7,0.5,1.1c0,7.3-0.1,14.6,0,21.9c0,1.4-0.5,1.9-1.9,1.9
		c-10.9-0.3-21.8-0.1-32.6,0c-0.3,0-0.6-0.3-0.9-0.4c1.4-1.1,1.8-2.6,1.7-4.4c0-4.9-0.1-9.9,0-14.8c0.1-3.5,0.7-4.1,4.2-4.2
		c8.1-0.1,16.3,0,24.4,0C188.4,163.9,190.1,164.1,191.4,162.7z"/>
	<path class="st73" d="M171.5,90.8c0,6.9,0.1,13.9,0.1,20.8c0,1.2-0.3,1.8-1.7,1.8c-10.6-0.1-21.2-0.1-31.8-0.2
		c-0.9-0.9-1-2.1-1-3.3c0-5.2-0.1-10.4,0-15.6c0.1-3.5,0.9-4.4,4.4-4.5c8.9-0.1,17.9-0.1,26.8,0C169.5,89.8,170.7,89.9,171.5,90.8z"
		/>
	<path class="st74" d="M171.5,135.2c0,6.9,0,13.9,0.2,20.8c0,1.5-0.6,1.8-2,1.8c-10.5-0.1-21-0.1-31.5-0.1c-0.9-0.9-1-2.1-1-3.3
		c0-5.2-0.1-10.4,0-15.6c0.1-3.5,0.9-4.4,4.4-4.5c8.9-0.1,17.9-0.1,26.8,0C169.5,134.3,170.6,134.3,171.5,135.2z"/>
	<path class="st45" d="M95.4,34.8c-1.4,0.9-1.6,2.3-1.6,3.8c0.1,3.9,0,7.9,0.1,11.8c0,1.5-0.4,2.1-2,2c-2.2-0.1-4.4-0.2-6.6,0
		c-1.9,0.1-2.3-0.7-2.2-2.4c0.1-1.7,0-3.5,0-5.2c0-1.9-1-2.9-2.9-2.9c-3,0-6-0.1-9.1,0c-1.9,0-2.8,1.1-2.8,3c0,0.1,0,0.2,0,0.3
		c-0.2,2.3,1,6.1-0.5,6.7c-2.6,1.1-6.1,0.4-9.2,0.5c-1.1,0-1.1-0.7-1.1-1.5c0-3.2,0.1-6.4,0-9.6c0-1.4,0.5-1.7,1.8-1.7
		c2.9,0.1,5.9,0,8.8,0c1.5,0,2.8-0.2,3.4-1.8c0.6-1.5-0.5-2.4-1.6-3.1c1.2-1.1,2.5-0.9,3.9-0.6c1.2,0.5,0.7,1.3,0.4,2
		c-0.3,1-0.2,1.8,0.7,2.4c0.8,0.5,1.8,0.5,2.6,0c0.9-0.5,1-1.3,0.8-2.1c-0.2-1-0.7-2,0.8-2.4c4.7-0.5,9.3-0.2,14-0.2
		C94,33.9,94.9,34,95.4,34.8z"/>
	<path class="st75" d="M74.5,34.7c-1.5,0-3.1,0-4.6,0c-5,0-10.1-0.1-15.1,0c-1.7,0-2.2-0.4-2.2-2.1c0-1.7,0.6-2.1,2.2-2.1
		c13.7,0.1,27.4,0,41.2,0c1.4,0,2.8-0.5,2.9,2c0.1,2.6-1.5,2.2-2.9,2.2c-0.2,0-0.4,0-0.5,0c-5.8,0-11.6,0-17.4,0
		C76.9,35.6,75.7,35.6,74.5,34.7z"/>
	<path class="st14" d="M45.3,61.6c0,2.7,0,5.4,0.1,8.2c0.1,1.5-0.5,1.9-1.9,1.8c-5.1-0.1-10.2-0.1-15.2-0.1
		c-0.5-2.9-0.1-5.8-0.2-8.7c-0.1-1.1,0.5-1.8,1.6-1.9c4.9-0.3,9.9-0.5,14.8,0.1C44.7,61.1,45,61.4,45.3,61.6z"/>
	<path class="st36" d="M84.9,78.9c-2.8,2.6-5.5,5-8.1,7.5c-0.7,0.7-1.2,0.9-2,0.1c-2.4-2.3-4.8-4.5-7.2-6.7c-0.8-0.7-0.9-1.1,0-1.9
		c2.5-2.2,4.9-4.4,7.2-6.7c0.8-0.8,1.3-0.6,2,0.1C79.4,73.8,82.1,76.3,84.9,78.9z"/>
	<path class="st35" d="M84.9,149.7c-2.8,2.6-5.5,5-8.1,7.5c-0.9,0.9-1.4,0.7-2.2,0c-2.2-2.2-4.5-4.3-6.8-6.3c-1-0.8-1.1-1.4-0.1-2.3
		c2.3-2,4.6-4.2,6.8-6.3c0.7-0.7,1.3-1.1,2.2-0.2C79.4,144.7,82.1,147.1,84.9,149.7z"/>
	<path class="st36" d="M84.7,126c-0.3,0.3-0.6,0.6-0.9,0.9c-2.3,2.1-4.6,4.2-6.8,6.4c-0.9,0.9-1.5,1-2.5,0c-2.2-2.2-4.5-4.3-6.8-6.3
		c-0.9-0.8-1-1.3,0-2.1c2.4-2.1,4.7-4.3,7.1-6.5c0.6-0.5,1-1,1.8-0.2c2.5,2.4,5.1,4.7,7.6,7.1C84.4,125.4,84.5,125.7,84.7,126z"/>
	<path class="st76" d="M90.9,183c0.4,4.7,0.4,4.7-4.3,4.7c-7.3,0-14.6,0-21.9,0c-4.5,0-4.5,0-4.1-4.7c1.1-0.9,2.4-0.9,3.6-0.9
		c7.7,0,15.4,0,23,0C88.5,182.1,89.8,182,90.9,183z"/>
	<path class="st35" d="M84.4,102.3c0,0.7-0.5,0.9-0.9,1.3c-2.2,2.1-4.4,4-6.6,6.1c-0.9,0.8-1.4,0.8-2.2,0c-2.2-2.2-4.5-4.2-6.8-6.3
		c-0.8-0.7-0.8-1.2,0-1.9c2.4-2.1,4.7-4.3,7-6.5c0.7-0.6,1.2-0.6,1.8,0c2.4,2.3,4.8,4.5,7.2,6.7C84.1,101.8,84.2,102.1,84.4,102.3z"
		/>
	<path class="st77" d="M191.4,162.7c0.3,2.1-0.9,2.1-2.5,2.1c-9,0-18.1,0.1-27.1-0.1c-2.3,0-2.9,0.7-2.9,3c0.1,5.7,0,11.3,0.1,17
		c0.1,2.1-0.6,2.9-2.6,2.6c-0.1-7.7-0.1-15.3-0.2-23c0-1.9,1.1-1.7,2.3-1.7c8.7,0,17.4,0,26.1,0
		C186.8,162.6,189.1,162.7,191.4,162.7z"/>
	<path class="st78" d="M171.5,90.8c-10.1,0-20.1,0.1-30.2-0.1c-2.6,0-3.2,0.9-3.2,3.3c0.1,6.4,0.1,12.8,0.1,19.2
		c-1.7,0.5-2.3-0.1-2.2-1.9c0.1-6.9,0.1-13.9,0-20.8c0-1.6,0.3-2.2,2.1-2.2c10.5,0.1,21,0.1,31.5,0
		C171.5,88.3,171.9,89.1,171.5,90.8z"/>
	<path class="st79" d="M171.5,135.2c-10.1,0-20.1,0.1-30.2,0c-2.4,0-3.2,0.6-3.2,3.1c0.2,6.5,0.1,13,0.1,19.5
		c-1.7,0.5-2.3-0.2-2.2-1.9c0.1-7,0.1-13.9,0-20.9c0-1.8,0.6-2.1,2.2-2.1c10.4,0.1,20.9,0.1,31.3,0
		C171.3,132.8,172,133.4,171.5,135.2z"/>
	<path class="st80" d="M150.7,162.7c0.3,2.1-0.9,2.1-2.5,2.1c-9.1,0-18.3,0.1-27.4-0.1c-2.5,0-3.1,0.7-3,3.1
		c0.2,5.8,0,11.5,0.1,17.3c0,1.7-0.5,2.4-2.2,2.2c-0.1-7.8-0.1-15.5-0.2-23.3c0-1.1,0.4-1.4,1.5-1.4
		C128.2,162.7,139.4,162.7,150.7,162.7z"/>
	<path class="st35" d="M143.7,83.4c3.6-4,6.8-7.6,10.2-11.4c3.4,3.8,6.6,7.4,10.2,11.4C157.1,83.4,150.7,83.4,143.7,83.4z"/>
	<path class="st81" d="M90.9,183c-10.1,0-20.2,0-30.3,0c-0.4-3.8-0.4-3.8,3.2-3.8c7.9,0,15.9,0,23.8,0
		C91.2,179.2,91.2,179.2,90.9,183z"/>
	<path class="st35" d="M66,174.1c3.3-3.1,6.2-5.8,9.1-8.5c0.7-0.6,1.1-0.2,1.6,0.3c2.8,2.6,5.6,5.2,8.8,8.2
		C78.9,174.1,72.8,174.1,66,174.1z"/>
	<path class="st82" d="M45.3,61.6c-4.9,0-9.8,0-14.7-0.1c-1.8,0-2.4,0.5-2.3,2.3c0.1,2.5,0,5.1,0,7.6c-1.4-2.3-0.5-4.7-0.5-7.1
		c-0.1-7.2,0-7.2,7.2-7.2c2.5,0,4.9,0.2,7.4,0c2.5-0.2,3.6,0.6,3.1,3.1C45.3,60.7,45.3,61.2,45.3,61.6z"/>
	<path class="st83" d="M124,47.6c-2.9,5.4-7.8,5.2-12.9,4.6C114.1,47.5,117,46.5,124,47.6z"/>
	<path class="st83" d="M40.6,47.5c-3,5.6-7.9,5.2-13,4.7C30.6,46.7,35.5,46.8,40.6,47.5z"/>
	<path class="st84" d="M69.1,57.4c4.7,0,8.7,0,13.3,0c-2.2,2.1-4,3.7-5.8,5.5c-0.6,0.5-1,0.6-1.6,0.1C73.2,61.2,71.3,59.5,69.1,57.4
		z"/>
	<path class="st83" d="M127.3,52.1c2.8-4.6,6.9-5.6,11.7-4.6C135.8,52.2,133.9,52.9,127.3,52.1z"/>
	<path class="st85" d="M44,52.3c2.2-2.2,3.4-5.5,7.3-5.1c2,0.2,1.6,1.3,1.5,2.4c-0.1,1.1,0.8,2.8-1.5,2.7
		C48.9,52.3,46.4,52.3,44,52.3z"/>
	<path class="st85" d="M107.9,48c-2.5,1.4-3.6,4.8-7.3,4.5c-1.9-0.2-2-1-1.9-2.4c0.1-1.2-0.7-2.9,1.7-2.8c2.4,0.1,4.8,0,7.3,0
		C107.8,47.5,107.8,47.7,107.9,48z"/>
	<path class="st83" d="M142.5,52.3c2.2-2.2,3.4-5.4,7.2-5.1c2.5,0.2,1.4,1.8,1.6,2.9c0.2,1.2,0.2,2.3-1.7,2.2
		C147.3,52.2,144.9,52.3,142.5,52.3z"/>
	<path class="st86" d="M85,61.8c0,3.6,0,6.7,0,10.3c-1.8-1.7-3.3-3.1-4.8-4.4c-0.7-0.6-0.5-1,0.1-1.6C81.7,64.8,83.2,63.5,85,61.8z"
		/>
	<path class="st87" d="M85,108.9c0,3.7,0,6.7,0,10.1c-2.1-1.2-3.4-2.9-5-4.3c-0.7-0.6-0.1-1.1,0.3-1.5
		C81.8,111.8,83.2,110.6,85,108.9z"/>
	<path class="st86" d="M85,132.7c0,3.6,0,6.7,0,10.4c-1.8-1.7-3.3-3.1-4.8-4.5c-0.6-0.6-0.5-1,0.1-1.6
		C81.7,135.7,83.2,134.3,85,132.7z"/>
	<path class="st86" d="M85,85.6c0,3.6,0,6.7,0,10.4c-1.8-1.7-3.3-3-4.8-4.4c-0.6-0.5-0.7-1,0-1.6C81.7,88.6,83.2,87.2,85,85.6z"/>
	<path class="st88" d="M66.6,61.9c1.8,1.6,3.3,3,4.8,4.4c0.9,0.8,0.3,1.2-0.3,1.7c-1.4,1.3-2.8,2.6-4.5,4.2
		C66.6,68.6,66.6,65.5,66.6,61.9z"/>
	<path class="st88" d="M66.5,143.1c0-3.6,0-6.7,0-10.5c1.8,1.7,3.3,3.1,4.8,4.5c0.6,0.6,0.6,1,0,1.6C69.8,140,68.3,141.4,66.5,143.1
		z"/>
	<path class="st88" d="M66.6,85.6c1.7,1.6,3.2,3,4.7,4.4c0.9,0.8,0.3,1.2-0.2,1.7c-1.4,1.3-2.8,2.6-4.5,4.2
		C66.6,92.4,66.6,89.2,66.6,85.6z"/>
	<path class="st88" d="M66.6,156.4c1.8,1.7,3.2,3.1,4.7,4.4c0.8,0.8,0.3,1.2-0.2,1.7c-1.4,1.3-2.8,2.6-4.5,4.2
		C66.6,163.2,66.6,160.1,66.6,156.4z"/>
	<path class="st86" d="M84.9,166.4c-0.2-0.1-0.3-0.1-0.4-0.1c-5.7-4.6-5.7-4.7,0.4-9.5C84.9,160,84.9,163.1,84.9,166.4z"/>
	<path class="st89" d="M66.5,119.3c0-3.7,0-6.7,0-10.4c1.9,1.7,3.4,3.1,5,4.6c0.8,0.7,0.1,1.1-0.3,1.5
		C69.7,116.3,68.3,117.6,66.5,119.3z"/>
	<path class="st85" d="M24.5,47.9c-2.3,1.3-3.2,4.3-6.4,4.5c-1.7,0.1-2.1-0.7-1.8-2.1c0.2-1.2-1-3.2,1.7-3c2.1,0.1,4.2,0,6.2,0
		C24.3,47.5,24.4,47.7,24.5,47.9z"/>
	<path class="st90" d="M73.3,49.8c-0.3-2-0.1-3.2,2.4-3.2c2.2,0,2.8,0.7,2.7,2.8c-0.1,1.8-0.1,3.1-2.6,3
		C73.7,52.4,72.6,52,73.3,49.8z"/>
	<path class="st91" d="M147.5,175.1c0,2.2,0,4.4,0,6.6c0,1.7-0.6,3-2.4,3c-1.7,0-2.4-1.2-2.4-2.7c-0.1-4.5-0.1-8.9,0-13.4
		c0-1.7,0.9-2.9,2.6-2.9c1.6,0.1,2.2,1.3,2.2,2.9C147.5,170.7,147.5,172.9,147.5,175.1z"/>
	<path class="st92" d="M139.6,175c0,2.3,0,4.6,0,6.8c0,1.5-0.6,2.7-2.4,2.8c-1.7,0-2.4-1.2-2.4-2.7c-0.1-4.6,0-9.1,0-13.7
		c0-1.6,0.9-2.7,2.5-2.7c1.6,0.1,2.3,1.2,2.3,2.8C139.6,170.6,139.6,172.8,139.6,175z"/>
	<path class="st93" d="M118.9,174.7c0-2.1,0-4.2,0-6.3c0-1.8,1-2.9,2.6-2.8c1.6,0.1,2.2,1.3,2.2,2.9c0,4.4,0,8.7,0,13.1
		c0,1.6-0.5,3-2.4,3c-1.9,0-2.3-1.5-2.4-3C118.9,179.3,118.9,177,118.9,174.7C118.9,174.7,118.9,174.7,118.9,174.7z"/>
	<path class="st94" d="M127,175.1c0-2.2,0-4.4,0-6.6c0-1.6,0.6-2.8,2.2-2.9c1.6-0.1,2.4,1,2.4,2.7c0,4.5,0,9,0,13.4
		c0,1.7-0.6,3-2.5,2.9c-1.8-0.1-2.1-1.4-2.1-2.9C127,179.4,127,177.3,127,175.1z"/>
	<path class="st95" d="M164.5,175.1c0,2.3,0,4.6,0,6.8c0,1.6-0.7,2.7-2.4,2.6c-1.6,0-2.3-1.1-2.3-2.5c-0.1-4.7,0-9.3,0-14
		c0-1.5,0.9-2.5,2.3-2.5c1.6,0,2.4,1.1,2.4,2.7C164.5,170.5,164.5,172.8,164.5,175.1z"/>
	<path class="st95" d="M180.3,175.1c0,2.3,0,4.6,0,6.8c0,1.6-0.7,2.6-2.4,2.6c-1.6,0-2.3-1.1-2.3-2.5c-0.1-4.7,0-9.3,0-14
		c0-1.5,0.9-2.5,2.3-2.5c1.6,0,2.5,1,2.5,2.7C180.3,170.6,180.3,172.8,180.3,175.1z"/>
	<path class="st95" d="M167.7,174.9c0-2.2,0-4.4,0-6.6c0-1.6,0.8-2.8,2.3-2.8c1.5,0,2.5,1,2.5,2.7c0,4.5,0.1,8.9,0,13.4
		c0,1.5-0.6,3-2.5,2.9c-1.9-0.1-2.3-1.5-2.3-3.1C167.7,179.3,167.7,177.1,167.7,174.9z"/>
	<path class="st96" d="M188.2,175c0,2.3,0,4.6,0,6.9c0,1.5-0.6,2.8-2.4,2.7c-1.7,0-2.3-1.3-2.3-2.8c0-4.5,0-9,0-13.4
		c0-1.7,0.8-2.8,2.4-2.7c1.6,0,2.3,1.2,2.3,2.8C188.2,170.6,188.2,172.8,188.2,175C188.2,175,188.2,175,188.2,175z"/>
	<path class="st97" d="M147.4,100.6c0-2.2,0-4.4,0-6.6c0-1.6,0.8-2.7,2.5-2.7c1.5,0,2.3,1.1,2.3,2.5c0,4.7,0.1,9.3,0,14
		c0,1.4-0.8,2.5-2.4,2.5c-1.7,0-2.4-1.1-2.4-2.7C147.4,105.4,147.4,103,147.4,100.6z"/>
	<path class="st98" d="M160.2,101.1c0,2.1,0,4.2,0,6.3c0,1.7-0.5,3-2.4,3c-1.9,0-2.4-1.4-2.4-3c0-4.4,0-8.8,0-13.2
		c0-1.6,0.7-3,2.6-2.9c1.6,0.1,2.3,1.3,2.3,2.9C160.1,96.5,160.2,98.8,160.2,101.1z"/>
	<path class="st99" d="M163.3,100.7c0-2.2,0-4.4,0-6.6c0-1.6,0.7-2.7,2.3-2.8c1.7,0,2.4,1.2,2.4,2.7c0,4.6,0,9.1,0,13.7
		c0,1.6-0.8,2.7-2.5,2.6c-1.7-0.1-2.3-1.3-2.2-2.9C163.4,105.3,163.3,103,163.3,100.7z"/>
	<path class="st1" d="M139.6,100.7c0-2.2,0-4.4,0-6.6c0-1.6,0.7-2.7,2.3-2.8c1.7,0,2.4,1.1,2.4,2.7c0,4.5,0,8.9,0,13.4
		c0,1.6-0.6,3-2.5,2.9c-1.7-0.1-2.3-1.3-2.3-2.8C139.6,105.3,139.6,103,139.6,100.7C139.6,100.7,139.6,100.7,139.6,100.7z"/>
	<path class="st100" d="M147.4,145.1c0-2.2,0-4.4,0-6.6c0-1.6,0.7-2.8,2.4-2.7c1.6,0,2.4,1.1,2.5,2.7c0,4.6,0,9.1,0,13.7
		c0,1.6-0.9,2.7-2.5,2.6c-1.5-0.1-2.3-1.1-2.3-2.6C147.4,149.9,147.4,147.5,147.4,145.1z"/>
	<path class="st101" d="M168.1,145.3c0,2.3,0,4.6,0,6.8c0,1.5-0.8,2.8-2.4,2.7c-1.6-0.1-2.3-1.2-2.3-2.8c0-4.5,0-8.9,0-13.4
		c0-1.6,0.5-2.8,2.3-2.8c1.9,0,2.5,1.3,2.5,2.9C168.1,140.9,168.1,143.1,168.1,145.3C168.1,145.3,168.1,145.3,168.1,145.3z"/>
	<path class="st102" d="M160.1,145.4c0,2.3,0,4.6,0,6.8c0,1.5-0.7,2.5-2.2,2.6c-1.5,0.1-2.5-1-2.5-2.4c-0.1-4.7-0.1-9.5,0-14.2
		c0-1.4,0.9-2.5,2.4-2.5c1.7,0.1,2.3,1.2,2.3,2.8C160.2,140.9,160.1,143.1,160.1,145.4z"/>
	<path class="st103" d="M144.3,145.4c0,2.3,0,4.6,0,6.8c0,1.5-0.8,2.5-2.2,2.6c-1.6,0-2.4-1.1-2.4-2.7c0-4.6,0-9.1,0-13.7
		c0-1.6,0.7-2.7,2.4-2.7c1.7,0,2.3,1.3,2.3,2.8C144.3,140.9,144.3,143.2,144.3,145.4C144.3,145.4,144.3,145.4,144.3,145.4z"/>
	<path class="st8" d="M74.5,34.7c1.2,0,2.4,0,3.6,0.1c1.4,1.2,2.1,2.7,0.5,4.1c-1.4,1.2-3.4,1.2-4.8-0.1
		C72.2,37.4,73.1,35.9,74.5,34.7z"/>
</g>
<path class="st104" d="M1336.4,493.7c5.3,0,10.6-0.1,15.9-0.1c1.7,1.7,3.4,3.3,2.2,6c-1.2,2.5-3.4,2.9-5.8,2.9
	c-2.8-0.1-5.7-0.1-8.5,0c-2.3,0-4.4-0.3-5.5-2.6C1333.4,497.3,1334.6,495.4,1336.4,493.7z"/>
<path class="st105" d="M1406.3,548.9c0.4,11.6-8.7,17.9-18.1,18.3c-9.3,0.4-17.8-8.7-17.9-18.4c-0.1-9.1,8.9-18.6,17.7-18.1
	C1398.3,531.4,1407,538.3,1406.3,548.9z"/>
<path class="st105" d="M1245.4,549.3c1.2,8.6-6.7,17.5-17.5,18c-9.6,0.5-18.6-8.7-18.6-18.3c0-9.7,8.6-18.3,18.7-18.3
	C1236.7,530.8,1246.8,539,1245.4,549.3z"/>
<path class="st106" d="M2199.7-22.7c-14.2,0-28.3-0.1-42.5,0.1c-3.8,0.1-5.1-1.1-4.7-4.8c0.6-5.1-2.2-11.7,1.2-14.9
	c3.1-2.9,9.5-0.8,14.5-0.8c24.8-0.1,49.7,0.1,74.5-0.1c4.2,0,5.7,1.2,5.2,5.3c-0.6,4.9,2.1,11.3-1.2,14.4c-3,2.8-9.2,0.7-14,0.8
	C2221.7-22.6,2210.7-22.7,2199.7-22.7z"/>
<path class="st107" d="M2044.7-82.3c-10.3,0-20.6,0-30.9,0c-5.7,0-6.6-1-6.6-6.8c0-6.8,0.1-13.6,0-20.5c-0.1-4.3,1.8-6,6-6
	c21.5,0,42.9,0,64.4,0c4,0,5.7,1.9,5.7,5.8c-0.1,7.1-0.1,14.3,0,21.4c0.1,4.2-1.8,6-6,6C2066.3-82.4,2055.5-82.3,2044.7-82.3
	C2044.7-82.3,2044.7-82.3,2044.7-82.3z"/>
<path class="st108" d="M2219.6-115.5c10.3,0,20.6,0.1,30.9-0.1c4.6-0.1,6.7,1.7,6.6,6.4c-0.2,6.8-0.2,13.6,0,20.4
	c0.1,4.4-1.5,6.4-6.1,6.4c-21.3-0.1-42.6-0.1-63.8,0c-4.2,0-6.2-1.6-6.1-5.9c0.1-7.1,0.1-14.3,0-21.4c0-4.2,1.9-6,6.1-5.9
	C2198-115.4,2208.8-115.5,2219.6-115.5C2219.6-115.5,2219.6-115.5,2219.6-115.5z"/>
<path class="st108" d="M2156.7-106.8c-1.9-1.4-3.8-2.9-2.7-5.7c1.1-2.6,3.3-3,5.8-2.9c1.8,0.1,3.7-0.1,5.5,0
	c3.1,0.2,4.9,1.8,4.9,5.1c0,7.6,0,15.3-0.1,22.9c0,3.3-1.7,5.2-5.3,5.2c-21.8,0-43.6,0-65.4,0c-3.5,0-5.2-1.6-5.2-5.2
	c0-7.6,0-15.3,0-22.9c0-3.6,2-5.1,5.3-5.1c6.5,0,13,0,19.5,0c2.5,0,4.7,0.5,5.6,3.1c1.1,2.9-1,4.2-3,5.5c-0.9,1.8-2.7,1.7-4.3,1.9
	c-2.2,0.2-4.3,0.1-6.5,0.1c-6.4,0.1-9.5,5.1-6.6,10.9c1.3,2.5,3.7,2,5.7,2c14.6,0.1,29.3,0.1,43.9,0c0.7,0,1.3-0.1,2-0.1
	c2.4-0.1,3.6-1.3,3.7-3.8C2159.8-99.8,2160.1-103.8,2156.7-106.8z"/>
<path class="st109" d="M2156.7-106.8c3.5-0.4,4.8,0.7,4.8,4.6c-0.2,11.4,0,11.4-11.4,11.4c-14.3,0-28.6-0.1-42.9,0.1
	c-3.5,0-5-0.5-4.9-4.5c0.1-11.4,0-11.4,11.4-11.4c2.7,0,5.3-0.1,8-0.2c6,0,12,0,18,0c1.7-1,3.4-1.1,5.1,0
	C2148.7-106.9,2152.7-106.9,2156.7-106.8z"/>
<path class="st109" d="M2199.7-52.1c-14.3,0-28.6-0.1-42.9,0.1c-3.8,0.1-4.3-1.6-4.3-4.7c0-3.3,0.7-4.7,4.4-4.6
	c28.9,0.1,57.9,0.2,86.8,0c3.9,0,4.2,1.6,4.3,4.7c0.1,3.3-0.7,4.7-4.4,4.6C2228.9-52.2,2214.3-52.1,2199.7-52.1z"/>
<path class="st110" d="M2222.3,24.6c-3,1.6-6.1,1.5-9.1,0c-1.6-2.4-1.7-4.8,0.8-6.4c2.3-1.6,5.1-1.5,7.4,0
	C2223.8,19.8,2224,22.2,2222.3,24.6z"/>
<path class="st110" d="M2144.7-106.9c-1.7,0-3.4,0-5.1,0c-2.7-2.1-4-4.7-1.3-7.4c2.2-2.2,5.3-2.2,7.6,0
	C2148.7-111.6,2147.5-109,2144.7-106.9z"/>
<path class="st111" d="M2062-43.1c-1.5,0-3,0.1-4.5,0c-2.7-0.1-4.4-1.4-4.5-4.3c-0.1-3.1,1.8-4.5,4.6-4.7c2.6-0.1,5.3-0.1,7.9,0
	c2.8,0.1,4.9,1.3,5,4.3c0.1,3.3-2.1,4.6-5.2,4.7C2064.3-43,2063.1-43.1,2062-43.1C2062-43.1,2062-43.1,2062-43.1z"/>
<path class="st1" d="M1288.3-152.6c0.1,1.9-1.1,3-2.3,4.2c-24.7,24.9-49.4,49.8-74.2,74.7c-2.2,2.2-4.6,3.8-7.3,1.2
	c-2.8-2.6-1.2-5.1,1-7.3c24.7-24.9,49.5-49.8,74.2-74.7c1.6-1.7,3.4-3.3,6.1-2.1C1287.5-155.8,1288.4-154.4,1288.3-152.6z"/>
<path class="st1" d="M1129.3,21.3c-10.2-0.1-18.2-8.4-18.1-18.6c0.1-10.1,8.3-18.2,18.6-18.1c10,0.1,18.5,8.6,18.2,18.5
	C1147.8,13.2,1139.4,21.4,1129.3,21.3z"/>
<path class="st105" d="M1351-186.3c-0.1,3.7-3.8,5.3-7.5,3.3c-9.9-5.4-19.8-10.9-29.7-16.4c-3.2-1.8-6.4-3.6-9.6-5.4
	c-2.3-1.3-3.5-3.3-2.2-5.8c1.4-2.7,3.6-3.2,6.3-1.7c13.2,7.3,26.5,14.7,39.7,22C1349.8-189.5,1350.9-188.1,1351-186.3z"/>
<path class="st4" d="M1181.2-44.7c-0.3,1.9-1.1,3.1-2.2,4.2c-6.8,6.8-13.6,13.7-20.4,20.5c-2,2.1-4.4,3.5-6.9,1.2
	c-2.7-2.5-1.6-5,0.7-7.3c6.8-6.8,13.6-13.6,20.4-20.5c1.7-1.7,3.5-2.6,5.8-1.7C1180.3-47.7,1180.9-46.1,1181.2-44.7z"/>
<path class="st7" d="M1189.8-62c2.6,0.4,4.3,1.7,4.3,4.5c0,2.6-5.2,7.7-7.7,7.5c-2.7-0.1-4.3-1.7-4.3-4.5
	C1182.2-57,1187.3-62,1189.8-62z"/>
<path class="st112" d="M1369.2,10.7c0.2,3.2-3.2,5.6-6.2,4.2c-1.3-0.6-2.4-1.8-3.5-2.8c-19.9-19.9-39.8-39.8-59.7-59.7
	c-0.9-0.9-1.9-1.9-2.6-3c-1.1-1.8-0.8-3.5,0.6-5c1.4-1.5,3.1-2.1,4.9-1c1.4,0.8,2.7,2,3.8,3.1c19.7,19.7,39.4,39.3,59,59
	C1367.2,7,1368.9,8.4,1369.2,10.7z"/>
<path class="st113" d="M1310.3-68.4c2.2-0.3,4.2-0.3,6,1.5c21.4,21.5,42.8,43.1,64.2,64.6c0,2.3,0.3,4.8-2.7,5.8
	c-2.6,0.8-4.4-0.5-6.1-2.3c-20.2-20.2-40.4-40.4-60.6-60.6C1308.2-62.3,1307.1-65.1,1310.3-68.4z"/>
<path class="st102" d="M1357.3,24.6c-3.2,3.1-6,2.4-8.9-0.6c-19.9-20.1-40-40.1-60-60c-2.4-2.4-4.1-4.9-2.1-8.3
	c3.1-2.1,5.5-1,7.9,1.4c20.3,20.4,40.6,40.7,61,61C1357.1,19.9,1357.9,22,1357.3,24.6z"/>
<path class="st105" d="M2596.1-49.4c-0.1,8.5-7.2,15.6-15.6,15.6c-8.7,0-16-7.4-15.8-16c0.2-8.8,7.4-15.7,16.2-15.5
	C2589.4-65.1,2596.2-58,2596.1-49.4z"/>
<path class="st1" d="M2677-33.8c-8.9-0.1-15.9-7.2-15.8-15.9c0.1-8.8,7.4-15.8,16.1-15.6c8.5,0.2,15.3,7.3,15.3,15.9
	C2692.6-40.9,2685.4-33.7,2677-33.8z"/>
<path class="st1" d="M2485.6-65.3c8.8,0.1,15.8,7.3,15.6,16.1c-0.2,8.5-7.3,15.5-15.8,15.4c-8.8-0.1-15.7-7.2-15.5-16.1
	C2470-58.6,2477-65.4,2485.6-65.3z"/>
<path class="st114" d="M1683.2,362.6c-0.7,0-1.3,0-2,0c-3.3,0.1-6.3-0.5-6.2-4.5c0.1-4,3.1-4.6,6.4-4.5c1.8,0,3.6,0,5.5,0
	c3.1,0,5.3,1.3,5.3,4.6c0,3.3-2.4,4.5-5.4,4.4C1685.5,362.6,1684.4,362.6,1683.2,362.6C1683.2,362.6,1683.2,362.6,1683.2,362.6z"/>
<path class="st115" d="M1676.5,285.6c3.9-0.7,7.8-0.5,11.8-0.1c1.4,1.7,2.6,3.4,1.5,5.8c-1.2,2.6-3.5,2.7-5.9,2.7c-1,0-2,0-3,0
	C1674.9,293.7,1673.6,291.1,1676.5,285.6z"/>
<path class="st116" d="M1397.5,549.1c-0.1,5.2-4.1,9.3-9,9.2c-5.4-0.1-9.4-4.3-9.2-9.7c0.2-5,4.4-9,9.5-9
	C1393.6,539.6,1397.5,543.9,1397.5,549.1z"/>
<path class="st116" d="M1237,549.2c-0.2,4.8-4.8,9.3-9.5,9.2c-5.1-0.1-9.5-4.9-9.2-9.9c0.3-4.9,4.8-9,9.7-8.8
	C1232.9,539.8,1237.2,544.3,1237,549.2z"/>
<path class="st117" d="M2044.7-91c-8.2,0-16.3-0.2-24.5,0.1c-3.6,0.1-4.4-1.1-4.4-4.5c0.1-11.3,0-11.3,11.4-11.3
	c14.2,0,28.3,0.1,42.5-0.1c3.2,0,4.7,0.5,4.6,4.2c-0.1,11.6,0.1,11.6-11.7,11.6C2056.7-91,2050.7-91,2044.7-91z"/>
<path class="st117" d="M2219.2-106.7c8.5,0,17,0.1,25.4,0c2.6,0,3.7,0.5,3.8,3.5c0.3,12.3,0.4,12.3-11.9,12.3
	c-14.1,0-28.3-0.1-42.4,0.1c-3.1,0-4.3-0.6-4.3-4c0-11.8-0.2-11.8,11.5-11.8C2207.3-106.7,2213.2-106.7,2219.2-106.7z"/>
<g>
	<path class="st0" d="M510.2,168.5c4.9,0,8.9,0,13,0c2.6,0,3.8,1.2,3.7,3.8c-0.1,5,0.1,10-0.1,15c-0.1,2,0.6,2.5,2.5,2.4
		c2.6-0.2,5.2,0,7.8,0c2.4,0,3.7,1,3.7,3.5c0,10.1,0,20.2,0,30.3c0,2.6-1.3,3.5-3.7,3.5c-6.7,0-13.3,0-20,0c-24.6,0-49.3,0-73.9,0
		c-4.8,0-5.2-0.4-5.2-5.1c0-9.3,0-18.5,0-27.8c0-3.7,0.7-4.4,4.3-4.4c2.3,0,4.6-0.2,6.9,0c2.3,0.2,2.8-0.7,2.7-2.8
		c-0.1-4.5-0.1-8.9,0-13.4c0-4.5,0.5-4.9,5.1-4.9c1.1,0,2.3,0,3.6,0c-1.4-5.7-2.2-11.6,0.8-16.4C472,135,470,116.5,468.1,98
		c-0.8-7.3-2.1-14.6-3.1-21.9c-0.2-1.8-1-2.5-2.8-2.9c-8.4-1.7-14-8.1-14.7-16.7c-0.2-3.1-0.3-6.2,0-9.3
		c0.7-10.1,8.2-17.2,18.5-17.4c7.5-0.2,15-0.1,22.5,0c6.6,0.1,11.9,2.9,15.4,8.5c0.9,1.4,1.9,1.9,3.5,2c12.1,1.4,24.1,2.9,36.2,4.5
		c1.2,0.2,2.1,0.2,2.8-1.2c0.5-1.2,1.8-1.3,2.9-1.6c11.1-3.1,22.2-6.2,33.3-9.3c3.7-1,4.5-0.6,5.6,3.1c1.2,4.1,2.3,8.2,3.4,12.3
		c1.4,4.9,0.6,9.3-3,12.9c-1,1-0.9,1.8-0.6,3c1.6,5.7,3.1,11.4,4.8,17.1c1.9,6.6,0.3,12.1-5.3,16.2c-1.2,0.8-1.3,1.6-1,2.9
		c1,3.2,1.8,6.4,2.7,9.6c0.5,2,1.1,4.1-1.5,4.9c-2.6,0.8-3.4-1.3-3.9-3.3c-0.9-3.2-1.8-6.4-2.6-9.6c-0.4-1.4-1-1.9-2.5-2.1
		c-6.6-0.7-10.8-4.3-12.6-10.7c-1.7-5.9-3.3-11.8-5-17.7c-1.4,0-1.9,1.2-2.7,1.9c-7.6,6.8-16,11.9-26.4,13.1
		c-11.3,1.3-21-2.5-30-9.1c-1.4-1-2.7-2.3-4.1-3.3c-0.8-0.6-1.4-2.1-2.5-1.5c-1.1,0.6-0.1,1.9,0.1,2.8c3.3,11.5,6.6,22.9,10,34.4
		c0.1,0.4,0.2,0.8,0.3,1.2c1,5.3,3.2,8.8,8.8,11.5c14.3,6.9,16.7,26,5.4,37.2C517.1,162.5,513.9,165.2,510.2,168.5z"/>
	<path class="st71" d="M535,202.2c0,4.6,0,9.1,0,13.7c-1.2,1.1-2.7,1-4.1,1c-16.2,0-32.4,0-48.5,0c-1.2,0-2.5,0-3.6-0.6
		c-0.7-0.4-0.8-1.1-0.8-1.9c-0.3-3-3.6-4.6-6.2-3c-0.8,0.5-1,1.2-0.9,2.1c0.1,0.8,0.5,1.6,0,2.4c-1.7,0.8-3.4,1.6-4.5-0.8
		c1.7-3.3,0.8-4.9-2.8-4.9c-5.8,0-11.6-0.1-17.4,0c-1.9,0-2.9-0.4-2.7-2.5c0.5-4.1-0.9-8.3,0.6-12.4c0.5,0.6,0.7,1.2,0.9,2
		c0.8,3.9,0.8,3.9,4.7,3.9c26.7,0,53.4,0,80,0C531.4,201.2,533.4,200.8,535,202.2z"/>
	<path class="st12" d="M519.8,135.5c0.7,0.9,1.1,1.9,1,3.1c0.2,6.6-3.5,11.1-8.1,15c-4.9,4.2-9.1,9-14.1,13
		c-0.9,0.7-1.8,1.4-2.8,1.9c-9.3,0-18.6,0.1-27.9,0.1c-0.5,0-1,0-1.3-0.6c-1.3-7.4,1.3-13.1,6.8-17.9c6.2-5.5,12.5-10.9,18.6-16.5
		C500.3,126.1,512.6,126.6,519.8,135.5z"/>
	<path class="st12" d="M455,61.9c-0.3-0.4-0.5-0.9-0.8-1.3c-0.2-2.8-0.4-5.6-0.7-8.3c-0.7-7,5.2-13.9,13-14.3
		c8.3-0.4,16.6-0.4,24.9,0c3.8,0.2,6.9,2.1,8.6,5.7c0.4,2.6,0.4,5.1,0.4,7.7c-0.1,8.6-5.2,14.4-13.7,14.9c-7.4,0.5-14.9,0.3-22.4,0
		C460.6,66.3,457.5,64.7,455,61.9z"/>
	<path class="st11" d="M528.1,63c7.2,0.4,14.3,0.8,21.5,1c2.8,0.1,3.7,2.4,5.5,3.7c0.8,0.5-0.4,1.2-0.8,1.6
		c-14.4,13.1-30.7,15.9-47.3,4.5c-6.5-4.5-6.5-4.6-1.8-10.9c0.8-1.1,1.8-0.9,2.8-0.8C514.6,62.4,521.3,62.7,528.1,63
		C528.1,63.1,528.1,63,528.1,63z"/>
	<path class="st118" d="M535,202.2c-28.7,0-57.4,0-86.1,0c-5.7,0-4.9,0.7-5-5c0-0.6,0-1.2,0-1.9c2.1-0.1,4.1-0.2,6.2-0.2
		c26.9,0,53.7,0,80.6,0c4.9,0,4.4-0.7,4.4,4.5C535.1,200.5,535,201.4,535,202.2z"/>
	<path class="st119" d="M466.3,215.2c1.4,1.2,2.9,0.9,4.5,0.3c2.4-1.6,4.9-0.9,7.4-0.3c1,1.2,2.3,0.7,3.5,0.7c17.8,0,35.6,0,53.4,0
		c0.4,5.6,0.4,5.6-5.2,5.6c-27.6,0-55.2,0-82.9,0c-3.4,0-4.7-1.9-3.5-5c0.5-1.4,1.7-1,2.6-1C452.8,215.3,459.5,215.3,466.3,215.2z"
		/>
	<path class="st14" d="M485.8,73.7c3.8-0.9,3.9,1.9,4.3,4.4c-1.1,0.9-2.2,1.6-1.6,3.5c3.1,10.9,6.1,21.8,9.2,32.7
		c0.6,2.1,1.4,3.9,3.3,5c-3.8,0.8-7.5,1.7-10.6,4c-1.7,1.3-1.8-0.1-2.1-1.2c-2.5-8.1-5-16.2-7.4-24.3c-1.9-6.3-3.8-12.7-5.6-19
		c-0.1-1.4,1-1.3,1.8-1.5c1.2-0.2,2.5-0.3,3.7-0.1C483.4,77.6,485.3,76.8,485.8,73.7z"/>
	<path class="st120" d="M519.8,135.5c-1.7-0.6-2.9-2-4.3-3c-6.4-4.8-15.6-4.5-21.6,0.7c-6.9,6-13.7,12-20.5,18
		c-4.5,3.9-6.9,8.7-6.4,14.8c0.1,0.7,0.1,1.5-0.4,2.1c-3-6.5-1.9-14.5,3.4-19.6c7.4-7,14.9-13.9,22.9-20.2
		C501.9,121.2,515.1,124.9,519.8,135.5z"/>
	<path class="st14" d="M586.3,90.6c-2,3.1-4.9,4.1-8.3,3.5c-3.3-0.6-5.6-2.7-6.5-6c-1.2-4.2-2.3-8.4-3.4-12.6c-0.8-2,0-3.1,1.9-3.7
		c1.5-0.4,3-0.9,4.5-1.3c5.2-1.3,4.1-0.1,4.8-5.1c1.3-0.6,2.9-1.7,3.1,0.8c0.1,1.6,3.3,4.2-1.1,4.9c-1.8,0.3-3.6,0.8-5.4,1.4
		c-1.5,0.5-2.5,1.6-2,3.3c0.5,1.6,1.7,2.3,3.4,1.9c1.9-0.5,3.8-1,5.7-1.5C583.9,81.1,586,85.7,586.3,90.6z"/>
	<path class="st121" d="M555.6,59.3c-1.6-2.5-1-3.7,2-4.3c3.1-0.6,6.1-1.7,9.2-2.5c2.4-0.6,3.5-1.9,2.7-4.5c0.4-1.2,1.3-1.2,2.3-0.9
		c1.4,2,3.2,2.8,5.6,1.5c1.8-1,0.5-3,1.5-4.1c1.7-0.8,3.4-2,5.4-1c0.8,1.3,1,2.9,1.3,4.3c0.8,6-0.1,7.7-5.9,9.5
		c-4.8,1.5-9.7,2.9-14.6,4.1C561.7,62.5,558.1,63,555.6,59.3z"/>
	<path class="st122" d="M521.2,177.2c0,3.5,0,7.1,0.1,10.6c0,1.5-0.6,1.9-2,1.9c-20,0-39.9,0-59.9,0c-1.1,0-2.1,0-2.1-1.5
		c0.1-4.6-0.6-9.3,0.3-13.9c1,0.9,1,2.1,1,3.2c0.2,1.6,0.2,3.1,0.1,4.7c-0.1,2.6,1.1,3.6,3.5,3.4c0.5,0,1,0,1.6,0
		c16.9,0,33.9,0,50.8,0c4.9,0,4.9,0,5.1-4.9c0-1,0-2.1,0.5-3C520.5,177.2,520.8,177.1,521.2,177.2z"/>
	<path class="st123" d="M521.2,177.2c-0.2,0-0.4,0-0.5,0.1c-1.2,1-2.7,0.9-4.1,0.9c-18.2,0-36.4,0-54.6,0c-1.4,0-2.9,0.2-4.1-1
		c-0.1-1-0.2-2-0.2-3c0.9-0.1,1.8-0.3,2.7-0.3c19.3,0,38.6,0,57.9-0.1C520.9,173.9,521.9,174.6,521.2,177.2z"/>
	<path class="st124" d="M499.5,43.7c-2.1-3.1-5.1-4.8-8.8-4.9c-7.7-0.1-15.4,0-23.1-0.1c-7.6,0-13.9,6.4-13.1,13.5
		c0.3,2.7,0.4,5.6-0.3,8.4c-2.2-5.7-2.2-11.6-0.3-17.3c1.7-5.2,6-7.9,11.5-8.1c7.8-0.2,15.5-0.2,23.3,0c5.4,0.2,9.4,2.8,11.5,8
		C500.2,43.7,500,44,499.5,43.7z"/>
	<path class="st35" d="M473.4,137.7c2.9-15,1.5-29.2-0.1-43.6c0.9,1.1,1.1,2.1,1.4,3.1c2.9,9.4,5.7,18.8,8.7,28.2
		c0.7,2.3,0.3,3.6-1.5,5C479.2,132.5,476.6,134.9,473.4,137.7z"/>
	<path class="st41" d="M500.9,119.3c-2,0-3-0.7-3.5-2.8c-3.2-11.9-6.7-23.8-10.1-35.7c-0.8-2.8,0.9-2.9,2.8-2.7
		c0.4,0.9,1,1.8,1.3,2.7c3.5,11.8,6.9,23.6,10.2,35.4C501.9,117.3,503.1,118.8,500.9,119.3z"/>
	<path class="st14" d="M547.6,52.3c0.6,0.5,0.4,1.3,0.6,1.9c0.8,2.1-0.5,2.5-2.2,2.5c-6.2-0.1-12.4-0.6-18.6-1
		c-5.6-0.4-11.1-0.7-16.7-1.1c-1.3-0.1-2.7,0-3.8-1c-0.1-0.2-0.1-0.3,0-0.5c-0.4-1.7-0.3-3.4-0.1-5.1c0.7-0.8,1.7-0.7,2.6-0.6
		C522.2,49.1,534.9,50.5,547.6,52.3z"/>
	<path class="st125" d="M499.5,43.7c0.2-0.2,0.5-0.3,0.7-0.5c1.9,5.7,1.9,11.5-0.1,17c-1.8,5-6,7.7-11.3,7.8
		c-7.8,0.2-15.5,0.2-23.3,0c-4.5-0.1-8.2-2-10.5-6.1c4.2,2.8,8.7,3.9,13.8,3.7c5.5-0.2,11,0,16.5-0.1c7.7,0,14.8-5.2,14.2-14.1
		C499.3,48.9,499.5,46.3,499.5,43.7z"/>
	<path class="st126" d="M495.7,168.5c5.1-4.8,10-9.8,15.3-14.4c4.9-4.2,8.4-9.1,9.7-15.5c2,6.9-0.1,12.7-5.1,17.5
		c-4.1,4-8.5,7.6-12.8,11.4C500.7,169.4,498.1,168.4,495.7,168.5z"/>
	<path class="st127" d="M571.7,47.4c-0.8,0-1.5,0.2-2.2,0.6c-1.3-1.2-2.7-1.3-4.3-0.8c-3.5,1.1-7,1.9-10.5,3
		c-1.6,0.5-1.9-0.2-2.3-1.5c-0.4-1.4-0.3-2.1,1.3-2.5c9.2-2.5,18.4-5,27.5-7.7c1.5-0.4,2.1,0,2.4,1.3c0.2,1.2,0.5,2.4,0.8,3.6
		c-1.8,0.5-3.6,0.9-5.4,1.4C576.3,45.2,573.8,45.6,571.7,47.4z"/>
	<path class="st128" d="M506.9,53.7c10,0.1,20,0.9,29.9,1.8c3.3,0.3,6.6-0.4,9.9,0.5c1.5,0.4,1.3-0.9,1.5-1.8c0.2,0.7,0.4,1.4,0.7,2
		c0.8,1.9,0,2.3-1.8,2.2c-12.3-0.6-24.6-1.2-37-1.8C508.2,56.7,506.1,56.7,506.9,53.7z"/>
	<path class="st129" d="M547.6,52.3c-2.6,1.7-5.2,0.1-7.7-0.1c-8.2-0.7-16.4-1.9-24.6-2.9c-2.8-0.3-5.5-0.9-8.2-1.3
		c-0.4-2.3-0.3-2.3,3.1-1.9c11.7,1.4,23.5,2.9,35.2,4.3C546.6,50.6,547.7,50.7,547.6,52.3z"/>
	<path class="st28" d="M555.6,59.3c3.5,2.6,7.3,2.2,11.2,1c3.9-1.3,8-2.2,11.9-3.4c4.7-1.4,7.3-2.2,6.8-8.9
		c2.2,6.1,0.5,9.6-5.5,11.3c-5.4,1.5-10.8,3.1-16.2,4.5C559.9,64.8,557,63.2,555.6,59.3z"/>
	<path class="st130" d="M579.3,65.6c1.6,4.4,1.3,4.8-3,5.6c-2.1,0.4-4.2,1.1-6.3,1.5c-1.7,0.3-2.1,1.4-2,2.9
		c-0.1-0.1-0.2-0.2-0.2-0.2c-2.1-6.4-2.1-6.4,4.3-8.2C574.5,66.6,576.8,65.5,579.3,65.6z"/>
	<path class="st131" d="M485.8,73.7c0.1,0.6,0.1,1.2,0.3,1.8c0.7,2-0.1,2.5-2,2.6c-3,0.2-6.1-0.9-9,0.7c-2-5.2-2-5.2,3.3-5.2
		C480.8,73.6,483.3,73.7,485.8,73.7z"/>
	<path class="st132" d="M586.3,90.6c-1.9-4.1-2.6-8.6-3.8-12.9c-0.1-0.4,0.3-0.9,0.5-1.4c1.4-0.7,2.5-0.9,2.8,1.2
		c0.6,3.2,2.3,6.2,1.9,9.6C587.7,88.3,587.4,89.7,586.3,90.6z"/>
	<path class="st128" d="M510.2,46.2c-1,0.6-3.4-1.1-3.1,1.9c-0.1,1.7-0.1,3.5-0.2,5.2c-0.7-1.5-0.3-3-0.4-4.5
		C506.4,45.2,506.6,45.1,510.2,46.2z"/>
	<path class="st133" d="M478.1,215.2c-2.4,0.8-4.9,0.1-7.4,0.3c-1.3-1.5-1.9-3.4,0-4.5c2.2-1.4,4.9-1.2,7.1-0.1
		C479.6,211.8,479.2,213.6,478.1,215.2z"/>
	<path class="st134" d="M513.9,142.9c0.1,5.5-4.2,9.9-9.7,10c-5.4,0.1-10-4.3-10.2-9.7c-0.2-5.5,4.4-10.2,9.9-10.2
		C509.4,133,513.9,137.4,513.9,142.9z"/>
	<path class="st134" d="M477,61.3c-5.7,0.1-10.1-4.3-10.1-10c0-5.5,4.3-9.9,9.8-10c5.5-0.1,10.1,4.4,10.2,10
		C486.9,56.7,482.4,61.3,477,61.3z"/>
	<path class="st135" d="M571.7,47.4c1.7-3,3.9-3.8,7.3-2.4c1.1,2.4,0.5,4-2.1,4.8C574.4,50.7,572.3,50.6,571.7,47.4z"/>
	<path class="st136" d="M457.8,177.3c21,0,41.9,0,62.9,0c0,2.1-0.2,4.2,0,6.2c0.3,2.6-0.9,3.1-3.2,3.1c-18.9-0.1-37.8-0.1-56.7,0
		c-2.5,0-3.4-0.7-3.1-3.1C457.9,181.5,457.8,179.4,457.8,177.3z"/>
	<path class="st137" d="M504,138.5c2.4-0.1,4.3,1.8,4.4,4.2c0.1,2.7-1.8,4.6-4.3,4.6c-2.4,0-4.4-1.8-4.5-4.2
		C499.4,140.8,501.5,138.6,504,138.5z"/>
	<path class="st138" d="M476.8,55.7c-2.6,0-4.4-1.9-4.3-4.6c0.1-2.5,1.9-4.2,4.4-4.2c2.5,0,4.5,2.2,4.4,4.6
		C481.2,53.8,479.2,55.7,476.8,55.7z"/>
</g>
<path class="st35" d="M1129.7,12.4c-5.2,0.1-9.5-4.1-9.6-9.4c-0.1-5.3,4-9.5,9.3-9.6c5.2-0.1,9.7,4.2,9.7,9.3
	C1139.2,7.8,1134.8,12.3,1129.7,12.4z"/>
<path class="st139" d="M2573.5-49.3c-0.1-3.7,3.1-7,6.9-7c3.7,0,6.6,2.8,6.7,6.6c0.1,3.6-2.8,6.9-6.3,7.1
	C2577.2-42.4,2573.7-45.6,2573.5-49.3z"/>
<path class="st139" d="M2683.8-49.3c-0.1,3.7-3.7,6.9-7.3,6.6c-3.5-0.3-6.4-3.6-6.3-7.1c0.1-3.8,3-6.6,6.7-6.5
	C2680.8-56.3,2683.9-53.1,2683.8-49.3z"/>
<path class="st140" d="M2485.3-56.4c3.7-0.1,6.7,2.7,6.9,6.4c0.2,3.7-2.9,7.2-6.6,7.3c-3.4,0.1-6.8-3-7-6.5
	C2478.3-52.9,2481.5-56.2,2485.3-56.4z"/>
<g>
	<path class="st0" d="M464.9-229.1c-8.8,0-17.7,0-26.5,0c-6.8,0-11.5-4.3-11.5-10.4c0-6.1,4.7-10.5,11.4-10.6c2.5,0,5.7,0.8,7.2-0.5
		c1.7-1.5,0.4-4.9,0.6-7.4c0.2-2.6-0.1-4.8-2.7-6.5c-3.1-2-3.5-5.6-3.1-9c0.2-2.3-0.6-3.3-2.8-4.1c-34.8-12.6-56-46.5-53.6-82.1
		c2.5-36.6,30-68.5,68.5-74.7c46.2-7.4,89.5,26.5,93.5,73c3.2,37-18.3,70.8-53.3,83.7c-2.2,0.8-3.1,1.7-2.9,4.1
		c0.4,4.4-0.8,8.1-4.9,10.5c-0.9,0.5-1.1,1.2-1.1,2.1c0,3,0.1,6,0,9c0,1.5,0.7,1.8,2,1.8c2.3-0.1,4.5-0.1,6.8,0
		c6,0.2,10.5,4.8,10.5,10.5c0,5.7-4.5,10.4-10.5,10.5C483.2-229,474.1-229.1,464.9-229.1z"/>
	<path class="st14" d="M434.4-285.2c-5.8-2.5-11.4-5.3-16.1-9.7c-2.4-3-5.3-5.6-7.7-8.6c-9-11.5-14.3-24.5-15.7-39
		c-2.3-22.9,4.5-42.8,20-59.8c12.3-13.4,27.5-21.2,45.3-23.8c12.1-1.8,24-0.7,35.5,3.9c0.9,0.4,1.7,0.9,2.8,0.7
		c12.9,6.3,23,15.5,30.4,27.8c4.4,8.4,6.6,17.4,7.5,26.8c1.3,12.7-0.7,24.9-5.4,36.6c-6.8,17-18.4,30-34.3,39
		c-9,5.2-18.8,8.2-29.3,9.6C456.1-280.3,445.2-281.5,434.4-285.2z"/>
	<path class="st45" d="M498.5-421.5c-1.3,1.3-2.5,0-3.5-0.3c-8.3-3.1-16.9-4.4-25.6-4.1c-18.5,0.6-34.9,6.8-48.9,19.3
		c-13.6,12.2-21.9,27.5-24.5,45.4c-2.6,17.3,0.8,33.6,9.6,48.9c3.4,5.8,7.6,10.9,12.1,15.8c0.4,0.4,1.6,0.7,0.6,1.7
		c-16.3-12.9-26-29.7-28.3-50.3c-5.2-47.9,32.9-87.3,81-84C480.7-428.5,489.9-426,498.5-421.5z"/>
	<path class="st130" d="M434.4-285.2c3.9,0.1,7.5,1.4,11.3,2.1c8,1.4,15.9,1.2,23.9,0.1c12.2-1.7,23.1-6.2,33.1-13.2
		c8.1-5.7,15.1-12.7,20.4-21.1c6-9.5,10.2-19.7,11.8-30.9c1.1-7.4,1.3-14.9,0-22.4c-1.2-7.2-2.9-14.3-6-20.9
		c-0.3-0.6-0.2-1.5-0.3-2.2c6.2,8.8,9.7,18.8,10.8,29.3c3.5,31.8-8.1,57.1-35,74.4c-21.6,13.9-45,15.1-68.9,5.7
		C435.3-284.5,434.9-284.9,434.4-285.2z"/>
	<path class="st57" d="M497-239.2c-0.2,3-2.1,4.4-4.9,4.4c-18.1,0-36.2,0-54.4,0c-2.8,0-4.6-1.4-5-4.3c0.8-2.7,2.7-3.7,5.4-3.7
		c17.7-0.1,35.4-0.1,53.1,0C493.9-242.9,496.2-242.1,497-239.2z"/>
	<path class="st141" d="M464.8-267.4c-4.7,0-9.5,0-14.2,0c-1.6,0-3-0.4-4-1.7c-1.1-1.5-1-3.5-0.4-5c0.7-1.7,2.3-0.3,3.4-0.1
		c10.3,1.8,20.5,1.8,30.8,0c1-0.2,2.7-1.6,3.3,0.3c0.6,2,0.7,4.3-1.5,5.8c-1.1,0.7-2.4,0.7-3.7,0.7
		C473.9-267.4,469.4-267.4,464.8-267.4C464.8-267.4,464.8-267.4,464.8-267.4z"/>
	<path class="st46" d="M477.8-256.8c0,2.1-0.1,4.3-0.1,6.4c-3.6,0.8-7.2,0.3-10.8,0.3c-5,0-10,0.5-15-0.3l0,0
		c-0.1-0.1-0.1-0.2-0.1-0.3c-0.9-6.9-0.6-7.2,6.2-7.2c5.2,0,10.3,0,15.5,0C475.1-257.8,476.6-257.9,477.8-256.8z"/>
	<path class="st142" d="M497-239.2c-1.7-2.1-3.8-2.8-6.5-2.8c-17.1,0.1-34.2,0.1-51.3,0c-2.7,0-4.8,0.6-6.4,2.8
		c0.2-3.7,1.8-5.2,5.8-5.2c12.5,0,25,0,37.4,0c5.2,0,10.3-0.1,15.5,0C495.3-244.3,496.7-242.9,497-239.2z"/>
	<path class="st143" d="M477.8-256.8c-7.3,0-14.5,0.1-21.7-0.1c-3.1-0.1-4.6,0.6-4.1,4c0.1,0.8,0,1.7,0,2.6c-1.3-3.5-0.1-7-0.1-10.5
		c0-1.2,1.1-1.1,1.9-1.1c7.3,0,14.6,0,21.9,0c1.7,0,2.3,0.7,2.2,2.3C477.8-258.7,477.9-257.8,477.8-256.8z"/>
	<path class="st143" d="M452-250.4c8.6,0,17.2,0,25.7,0c-0.3,0.2-0.7,0.6-1,0.6c-7.9,0-15.8,0-23.7,0
		C452.7-249.8,452.4-250.2,452-250.4z"/>
	<path class="st85" d="M422.8-309.7c-2.2-1.7-3.9-3.8-5.7-5.9c-1.4-0.4-1.9-1.7-2.6-2.7c-16.2-23.3-14.9-53.5,2.9-75
		c10.5-12.7,24.1-20.2,40.7-22.1c16.8-1.9,31.7,2.7,45.1,12.8c1.4,1,2.8,2,3.2,3.9c-0.5,3.2,0.4,6.5-1.4,9.5
		c-1.5,0.6-2.4-0.5-3.3-1.4c-9.6-9.2-21.1-14.6-34.4-15.1c-12.3-0.5-23.6,3-33.5,10.6c-23.6,18.1-27.3,51.7-8.2,74.6
		c3.4,4.1,5.1,4.2,8.8,0.3c1.4-1.4,2.5-3,3.7-4.4c0.7-0.8,1.4-1.9,0.4-2.9c-1.1-1.1-2.2-0.4-3.1,0.4c-1.2,1-2.1,2.1-3.3,3.1
		c-1.5,1.3-2.9,1.3-4.2-0.3c-5.8-7.1-9.1-15.3-10.2-24.4c-0.3-2.1,0.8-3.2,3-3.3c1.5-0.1,3,0.1,4.5-0.1c1.3-0.1,2.4-0.6,2.3-2.1
		c-0.1-1.3-1.1-1.7-2.3-1.8c-1.5-0.2-3-0.1-4.5-0.1c-2.1-0.1-3.3-1.1-3-3.2c1.2-9.2,4.4-17.5,10.5-24.6c1.2-1.5,2.6-1.3,3.9-0.1
		c1.1,1,2.1,2.1,3.3,3.1c1,0.8,2.1,1.5,3.2,0.5c1.2-1.1,0.2-2.2-0.6-3.1c-1-1.1-2.2-2.1-3.1-3.3c-1.1-1.4-1.2-2.8,0.3-4
		c7.1-5.7,15.1-9.5,24.3-10.2c2.6-0.2,3.7,1.1,3.7,3.7c0,1.3-0.1,2.6,0.1,3.9c0.1,1,0.5,2,1.7,2c1.1,0.1,1.7-0.8,2-1.8
		c0.5-1.4,0.1-2.8-0.1-4.2c-0.3-3.1,0.5-4,3.5-3.7c8.8,0.8,16.6,4.3,23.6,9.6c2.2,1.7,2.2,3,0.4,5.2c-1,1.2-2.2,2.1-3.1,3.3
		c-0.6,0.7-0.8,1.5-0.2,2.4c0.6,0.8,1.5,0.7,2.4,0.5c1.2-0.4,2-1.2,2.9-2c4-3.7,5.2-3.4,7.3,1.9c0.3,2.4-0.4,4.7-1.2,6.9
		c-4.2,13.3-10.7,25.2-20.2,35.5c-15.3,16.6-34.3,25.7-56.5,28.7C424.8-309,423.8-309.2,422.8-309.7z"/>
	<path class="st144" d="M504.1-389.1c1.3-0.8,0.9-2.1,0.8-3.2c-0.1-2.3,0.3-4.5,0.7-6.7c1.4-0.2,2.2,0.8,3,1.6
		c11.3,11.3,17.2,25,17.9,41c0.7,15.1-3.6,28.5-12.9,40.3c-10.3,13.2-23.9,21-40.6,23.4c-10.8,1.6-21-0.2-31-3.9
		c-1.2-0.4-2.5-0.8-2.9-2.2c-3-1.1-6-2.3-8.4-4.5c-2.4-0.4-4-1.9-5.1-3.9c-0.9-0.9-2.1-1.3-2.7-2.5c11.4-1.2,22.3-4.1,32.8-9.2
		c8.7-4.2,16.5-9.6,23.2-16.3c8.9-8.9,16-19.1,20.4-31.1c1.7-4.6,3.7-9.1,4-14.1c1.8,0.3,2.3,1.8,3.1,3c3.1,5.3,4.8,11,5.8,17
		c0.5,3.2-0.3,4.1-3.5,4.3c-1.4,0.1-2.8-0.1-4.2,0.2c-1.2,0.2-2.1,0.8-2,2.1c0.1,1.2,1,1.6,2,1.8c1.6,0.2,3.2,0.1,4.8,0.2
		c2.1,0.1,3.3,1.1,3,3.2c-1.1,9.1-4.4,17.3-10.2,24.4c-1.4,1.7-2.9,1.6-4.4,0.2c-1.2-1.1-2.2-2.3-3.6-3.3c-0.8-0.6-1.8-0.9-2.6-0.1
		c-0.9,0.9-0.5,1.8,0.2,2.6c2.1,2.3,4.3,4.6,6.6,6.6c2,1.8,3.6,0.6,5-1c4.3-4.7,7.8-10.1,9.9-16.1c6.4-18,4.1-34.9-7.4-50.4
		C504.9-386.7,503.9-387.7,504.1-389.1z"/>
	<path class="st0" d="M439.1-298.8c26.9,12.6,58.8,4,75.9-20.4c16.9-24.2,13.9-57.2-7.1-78c-0.7-0.7-1.5-1.2-2.2-1.8
		c-12.4-11.6-27.2-16.8-43.9-15.8c-30,1.8-53.1,23.3-57.2,53.1c-2.1,15.5,1.6,29.9,10.6,42.8c0.7,1.1,1.3,2.2,2,3.3
		c-0.1,1.5-0.8,2.7-2.3,3.1c-1.8,0.4-2.7-0.8-3.7-2c-15.8-20.3-17.2-51.2-3.3-73.9c14.7-24.1,41.8-36.2,69.8-31.1
		c26.3,4.7,47.6,26.1,52.9,52.9c7.5,38-19.5,74.7-58,79c-11.9,1.3-23.4-0.5-34.4-5.2c-1.7-0.7-3.2-1.5-2.9-3.7
		C435.5-298.8,437.3-298.9,439.1-298.8z"/>
	<path class="st145" d="M425.5-307.2c1.9,1.1,3.6,2.4,5.1,3.9c0.5,2.2,0.1,3.9-2.4,4.3c-1.7,0.3-6.4-3.3-6.4-5
		C421.7-306.5,423.2-307.4,425.5-307.2z"/>
	<path class="st0" d="M504.1-389.1c9.4,11.2,14.2,24,13.2,38.7c-0.8,12.5-5.6,23.3-14.1,32.5c-2.4,2.6-3.7,2.6-6.2,0.2
		c-2.1-2-4.1-4.1-6.2-6.2c-1.4-1.4-1.8-3-0.2-4.5c1.4-1.3,3-1,4.3,0.3c0.8,0.8,1.5,1.5,2.3,2.3c2.9,2.9,2.9,2.9,5.2-0.3
		c4.9-6.6,7.8-14.1,8.9-22.2c0.3-2.1-0.1-3-2.4-2.7c-1.6,0.2-3.2,0.1-4.8,0c-1.8,0-2.9-0.9-3-2.7c-0.1-2,1.1-2.9,3-3
		c1.7-0.1,3.5-0.1,5.2,0c1.6,0.1,2.3-0.3,2.1-2.1c-1.1-7.8-3.4-15.1-8.2-21.4c-2.9-4.7-2.9-4.7-6.7-0.9c-1.6,1.6-3.3,4.2-5.9,1.8
		c-2.6-2.5,0.1-4.2,1.7-5.8c3.7-3.8,3.8-3.8-0.7-6.9c-6.4-4.4-13.4-7.1-21.2-8.1c-1.9-0.2-2.8,0.1-2.6,2.2c0.2,1.7,0.1,3.4,0,5.2
		c-0.1,1.8-1.2,2.8-2.9,2.8c-1.7,0-2.7-1.1-2.8-2.9c0-1.1,0-2.2,0-3.2c0-4.6,0-4.6-4.6-3.8c-8,1.4-15.2,4.6-21.6,9.6
		c-1.4,1.1-1.8,1.9-0.2,3.2c1.3,1.1,2.5,2.4,3.7,3.6c1.2,1.3,1.4,2.7,0.2,4c-1.3,1.4-2.9,1.2-4.3,0c-0.5-0.4-0.9-0.9-1.4-1.4
		c-4.1-4-4.1-4-7.3,0.6c-4.3,6.3-6.9,13.3-8,20.9c-0.3,1.9,0,2.8,2.2,2.6c1.6-0.2,3.2-0.1,4.8,0c1.9,0,3.2,0.9,3.2,2.9
		c0,2-1.2,2.9-3.1,2.9c-0.4,0-0.9,0-1.3,0c-6.4,0.1-6.5,0.1-5.2,6.3c1.5,7.3,4.6,13.8,9.1,19.7c1.2,1.5,2,2,3.4,0.3
		c1.1-1.3,2.4-2.5,3.6-3.7c1.3-1.2,2.8-1.2,4,0c1.3,1.3,1.2,2.8,0,4c-2.4,2.6-4.9,5.1-7.5,7.5c-1.9,1.7-3.5,0.6-5-1
		c-8.4-9.1-13.4-19.7-14.2-32.1c-1.5-22.7,10.7-43,30.9-52.1c20.2-9.1,43.5-4.5,59.4,11.8C503.3-389.8,503.7-389.5,504.1-389.1z"/>
	<path class="st1" d="M451.3-354.2c0.1-7.4,5.9-13.4,13.7-13.4c1.9,0,2.6-0.7,3.2-2.3c2.3-5.9,4.7-11.8,7-17.7
		c0.7-1.9,1.8-3.5,4-2.6c2.4,0.9,2.2,2.8,1.4,4.8c-2.3,5.7-4.5,11.4-6.8,17.1c-0.9,2-0.8,3.2,1,4.9c4.5,4.3,5.1,11.1,2,16.3
		c-3.2,5.4-9.6,7.9-15.6,6.2C455.2-342.5,451.2-348,451.3-354.2z"/>
	<path class="st4" d="M465-311c-2.4,0-4.7,0-7.1,0c-1.8,0-2.9-1-3-2.7c-0.1-1.9,1.1-3,3-3c4.6,0,9.2,0,13.8,0c1.9,0,3.2,1.1,3.2,2.9
		c0,1.8-1.2,2.9-3.2,2.9C469.5-311,467.2-311,465-311C465-311,465-311,465-311z"/>
	<path class="st146" d="M457-354.2c0.1-4.4,3.9-7.9,8.2-7.7c4.4,0.2,7.7,3.9,7.5,8.4c-0.2,4.2-3.8,7.6-8,7.5
		C460.4-346.1,456.9-349.8,457-354.2z"/>
</g>
</svg>
