<?xml version="1.0" encoding="utf-8"?>
<!-- Generator: Adobe Illustrator 24.0.1, SVG Export Plug-In . SVG Version: 6.00 Build 0)  -->
<svg version="1.1" id="Layer_1" xmlns="http://www.w3.org/2000/svg" xmlns:xlink="http://www.w3.org/1999/xlink" x="0px" y="0px"
	 viewBox="0 0 226.8 226.8" style="enable-background:new 0 0 226.8 226.8;" xml:space="preserve">
<style type="text/css">
	.st0{fill:#29677A;stroke:#005968;stroke-width:2;stroke-miterlimit:10;}
	.st1{fill:#F6A800;}
	.st2{fill:#010101;}
	.st3{fill:#5A7F92;}
	.st4{fill:#FEFEFE;}
	.st5{fill:#779EAF;}
	.st6{fill:#2F5A6B;}
	.st7{fill:#93979A;}
	.st8{fill:#F9C462;}
	.st9{fill:#F6A802;}
	.st10{fill:#C88705;}
	.st11{fill:#FAC361;}
	.st12{fill:#F8C361;}
	.st13{fill:#FCFCFC;}
	.st14{fill:#C1C2C4;}
	.st15{fill:#CE8B05;}
	.st16{fill:#CC8A05;}
	.st17{fill:#F8C362;}
	.st18{fill:#727679;}
	.st19{fill:#BFC0C2;}
	.st20{fill:#CA8906;}
	.st21{fill:#74787B;}
	.st22{fill:#777A7D;}
	.st23{fill:#BCBDBF;}
	.st24{fill:#030404;}
	.st25{fill:#030304;}
	.st26{fill:#070504;}
	.st27{fill:#F5A802;}
	.st28{fill:#047CBB;}
	.st29{fill:#037DBC;}
</style>
<image style="overflow:visible;enable-background:new    ;" width="200" height="200" xlink:href="C:\Users\thhnp\Downloads\10243-200.png"  transform="matrix(3.9133 0 0 3.9133 -1296.9476 -281.2112)">
</image>
<g>
	<path class="st0" d="M3.4,179.8h175c0.3-2.8,0.6-5.3,0.9-8.1c6.1,1.5,8.8-0.9,10.6-6.2c3.3-9.5,7.5-18.7,11.4-28
		c7.3-18.1,14.5-36.4,21.6-54.5c0.7-1.6,0.8-4.3-0.2-5.4c-1-1.2-4.4-2.3-5.3-1.6c-3,2.4-6.6,5.2-7.9,8.7
		c-4.6,12.5-8.3,25.2-12.5,37.8c-1.4,4.1-2.6,8.1-4.8,11.7c-1.1,1.8-4.5,3.5-6.4,3c-1.8-0.5-3.7-3.4-4.3-5.6c-0.8-2.8-0.1-6-0.2-9
		c-0.1-4.3,1.1-10.6-4.8-10.5c-5.2,0.1-4.4,6.2-4.4,10.4c0,2.4,0,4.7,0,7.4c-2.6-0.1-4.4-0.2-5.6-0.3c-0.5-0.7-0.7-0.8-0.7-1
		c-0.1-15-0.1-29.9-0.2-44.8c-0.2-18.8-14.4-34.2-33.2-36.5c-18-2.1-36.5,10.2-39.2,28.7c-2.1,14.9-1.1,30.2-1.5,45.2
		c-0.1,2.7,0,5.5,0,8.8H3.4V179.8z"/>
</g>
<g>
	<path class="st1" d="M128,132.5c-10.6,0-19.1-8.6-19.1-19.1s8.6-19.1,19.1-19.1s19.1,8.6,19.1,19.1S138.6,132.5,128,132.5z
		 M128,95.8c-9.7,0-17.6,7.9-17.6,17.6S118.3,131,128,131s17.6-7.9,17.6-17.6S137.7,95.8,128,95.8z"/>
</g>
<g>
	<circle class="st1" cx="128" cy="80.9" r="7.8"/>
</g>
<g>
	<path class="st1" d="M152.3,133.1l-16.9-16.9c0.7-2.4,0.1-5.1-1.7-6.9c-2.7-2.7-7.1-2.7-9.8,0c-2.7,2.7-2.7,7.1,0,9.8
		c1.9,1.9,4.5,2.5,6.9,1.7l16.9,16.9c0.7,0.7,1.5,0.9,2.3,0.9s1.7-0.3,2.3-0.9C153.6,136.4,153.6,134.3,152.3,133.1z M148.3,136
		c-0.7-0.7-0.7-1.8,0-2.5s1.8-0.7,2.5,0s0.7,1.8,0,2.5S149,136.8,148.3,136z"/>
</g>
<g>
	<path class="st1" d="M146.4,160h-19c-0.5,0-0.9-0.5-0.9-0.9v-3.3c0-0.7-0.7-1-1.2-0.8l-16,7c-0.7,0.3-0.7,1.2-0.1,1.6l16,8.8
		c0.6,0.3,1.4-0.1,1.4-0.8v-2.8c0-0.5,0.5-0.9,0.9-0.9h19c0.5,0,0.9-0.5,0.9-0.9v-6.1C147.3,160.4,146.9,160,146.4,160z"/>
</g>
<g>
	<rect x="17" y="141.3" class="st1" width="109.6" height="1.9"/>
</g>
<g>
	<path class="st1" d="M27.3,173.3L27.3,173.3c-1.5,0-2.9-0.2-4.2-0.8l0.7-1.5c1.1,0.5,2.4,0.7,3.6,0.7L27.3,173.3z M31.5,172.4
		l-0.7-1.5c1.1-0.5,2.1-1.1,3-2l1.1,1.1C34,171,32.8,171.8,31.5,172.4z M19.4,170c-1-1-1.8-2.3-2.4-3.6l1.5-0.7c0.5,1.1,1.1,2.1,2,3
		L19.4,170z M37.4,166.4l-1.5-0.7c0.5-1.1,0.7-2.4,0.7-3.6h1.6l0,0C38.2,163.7,38,165.1,37.4,166.4z M16.1,162.2L16.1,162.2
		c0-1.5,0.2-2.9,0.8-4.2l1.5,0.6c-0.5,1.1-0.7,2.4-0.7,3.6L16.1,162.2L16.1,162.2z M36,158.5c-0.5-1.1-1.1-2.1-2-3l1.1-1.1
		c1,1,1.8,2.3,2.4,3.6L36,158.5z M20.5,155.6l-1.1-1.1c1-1,2.3-1.8,3.6-2.4l0.7,1.5C22.5,154,21.4,154.7,20.5,155.6z M30.8,153.5
		c-1.1-0.5-2.4-0.7-3.6-0.7v-1.6l0,0c1.5,0,2.8,0.2,4.2,0.8L30.8,153.5z"/>
</g>
<g>
	<path class="st1" d="M53.2,173.3L53.2,173.3c-1.5,0-2.9-0.2-4.2-0.8l0.7-1.5c1.1,0.5,2.4,0.7,3.6,0.7L53.2,173.3z M57.5,172.4
		l-0.7-1.5c1.1-0.5,2.1-1.1,3-2l1.1,1.1C59.9,171,58.8,171.8,57.5,172.4z M45.4,170c-1-1-1.8-2.3-2.4-3.6l1.5-0.7
		c0.5,1.1,1.1,2.1,2,3L45.4,170z M63.4,166.4l-1.5-0.7c0.5-1.1,0.7-2.4,0.7-3.6h1.6l0,0C64.2,163.7,64,165.1,63.4,166.4z
		 M42.1,162.2L42.1,162.2c0-1.5,0.2-2.9,0.8-4.2l1.5,0.6c-0.5,1.1-0.7,2.4-0.7,3.6L42.1,162.2L42.1,162.2z M61.8,158.5
		c-0.5-1.1-1.1-2.1-2-3l1.1-1.1c1,1,1.8,2.3,2.4,3.6L61.8,158.5z M46.5,155.6l-1.1-1.1c1-1,2.3-1.8,3.6-2.4l0.7,1.5
		C48.5,154,47.4,154.7,46.5,155.6z M56.8,153.5c-1.1-0.5-2.4-0.7-3.6-0.7v-1.6l0,0c1.5,0,2.8,0.2,4.2,0.8L56.8,153.5z"/>
</g>
<g>
	<path class="st2" d="M413.4,216.3c4.9,0,8.9,0,13,0c2.6,0,3.8,1.2,3.7,3.8c-0.1,5,0.1,10-0.1,15c-0.1,2,0.6,2.5,2.5,2.4
		c2.6-0.2,5.2,0,7.8,0c2.4,0,3.7,1,3.7,3.5c0,10.1,0,20.2,0,30.3c0,2.6-1.3,3.5-3.7,3.5c-6.7,0-13.3,0-20,0c-24.6,0-49.3,0-73.9,0
		c-4.8,0-5.2-0.4-5.2-5.1c0-9.3,0-18.5,0-27.8c0-3.7,0.7-4.4,4.3-4.4c2.3,0,4.6-0.2,6.9,0c2.3,0.2,2.8-0.7,2.7-2.8
		c-0.1-4.5-0.1-8.9,0-13.4c0-4.5,0.5-4.9,5.1-4.9c1.1,0,2.3,0,3.6,0c-1.4-5.7-2.2-11.6,0.8-16.4c10.8-17.1,8.8-35.6,6.8-54.2
		c-0.8-7.3-2.1-14.6-3.1-21.9c-0.2-1.8-1-2.5-2.8-2.9c-8.4-1.7-14-8.1-14.7-16.7c-0.2-3.1-0.3-6.2,0-9.3
		c0.7-10.1,8.2-17.2,18.5-17.4c7.5-0.2,15-0.1,22.5,0c6.6,0.1,11.9,2.9,15.4,8.5c0.9,1.4,1.9,1.9,3.5,2c12.1,1.4,24.1,2.9,36.2,4.5
		c1.2,0.2,2.1,0.2,2.8-1.2c0.5-1.2,1.8-1.3,2.9-1.6c11.1-3.1,22.2-6.2,33.3-9.3c3.7-1,4.5-0.6,5.6,3.1c1.2,4.1,2.3,8.2,3.4,12.3
		c1.4,4.9,0.6,9.3-3,12.9c-1,1-0.9,1.8-0.6,3c1.6,5.7,3.1,11.4,4.8,17.1c1.9,6.6,0.3,12.1-5.3,16.2c-1.2,0.8-1.3,1.6-1,2.9
		c1,3.2,1.8,6.4,2.7,9.6c0.5,2,1.1,4.1-1.5,4.9c-2.6,0.8-3.4-1.3-3.9-3.3c-0.9-3.2-1.8-6.4-2.6-9.6c-0.4-1.4-1-1.9-2.5-2.1
		c-6.6-0.7-10.8-4.3-12.6-10.7c-1.7-5.9-3.3-11.8-5-17.7c-1.4,0-1.9,1.2-2.7,1.9c-7.6,6.8-16,11.9-26.4,13.1
		c-11.3,1.3-21-2.5-30-9.1c-1.4-1-2.7-2.3-4.1-3.3c-0.8-0.6-1.4-2.1-2.5-1.5c-1.1,0.6-0.1,1.9,0.1,2.8c3.3,11.5,6.6,22.9,10,34.4
		c0.1,0.4,0.2,0.8,0.3,1.2c1,5.3,3.2,8.8,8.8,11.5c14.3,6.9,16.7,26,5.4,37.2C420.3,210.3,417.1,213,413.4,216.3z"/>
	<path class="st3" d="M438.3,250c0,4.6,0,9.1,0,13.7c-1.2,1.1-2.7,1-4.1,1c-16.2,0-32.4,0-48.5,0c-1.2,0-2.5,0-3.6-0.6
		c-0.7-0.4-0.8-1.1-0.8-1.9c-0.3-3-3.6-4.6-6.2-3c-0.8,0.5-1,1.2-0.9,2.1c0.1,0.8,0.5,1.6,0,2.4c-1.7,0.8-3.4,1.6-4.5-0.8
		c1.7-3.3,0.8-4.9-2.8-4.9c-5.8,0-11.6-0.1-17.4,0c-1.9,0-2.9-0.4-2.7-2.5c0.5-4.1-0.9-8.3,0.6-12.4c0.5,0.6,0.7,1.2,0.9,2
		c0.8,3.9,0.8,3.9,4.7,3.9c26.7,0,53.4,0,80,0C434.7,249,436.7,248.6,438.3,250z"/>
	<path class="st1" d="M423,183.3c0.7,0.9,1.1,1.9,1,3.1c0.2,6.6-3.5,11.1-8.1,15c-4.9,4.2-9.1,9-14.1,13c-0.9,0.7-1.8,1.4-2.8,1.9
		c-9.3,0-18.6,0.1-27.9,0.1c-0.5,0-1,0-1.3-0.6c-1.3-7.4,1.3-13.1,6.8-17.9c6.2-5.5,12.5-10.9,18.6-16.5
		C403.5,173.8,415.9,174.4,423,183.3z"/>
	<path class="st1" d="M358.3,109.7c-0.3-0.4-0.5-0.9-0.8-1.3c-0.2-2.8-0.4-5.6-0.7-8.3c-0.7-7,5.2-13.9,13-14.3
		c8.3-0.4,16.6-0.4,24.9,0c3.8,0.2,6.9,2.1,8.6,5.7c0.4,2.6,0.4,5.1,0.4,7.7c-0.1,8.6-5.2,14.4-13.7,14.9c-7.4,0.5-14.9,0.3-22.4,0
		C363.9,114.1,360.8,112.5,358.3,109.7z"/>
	<path class="st4" d="M431.3,110.8c7.2,0.4,14.3,0.8,21.5,1c2.8,0.1,3.7,2.4,5.5,3.7c0.8,0.5-0.4,1.2-0.8,1.6
		c-14.4,13.1-30.7,15.9-47.3,4.5c-6.5-4.5-6.5-4.6-1.8-10.9c0.8-1.1,1.8-0.9,2.8-0.8C417.8,110.2,424.6,110.5,431.3,110.8
		C431.3,110.9,431.3,110.8,431.3,110.8z"/>
	<path class="st5" d="M438.3,250c-28.7,0-57.4,0-86.1,0c-5.7,0-4.9,0.7-5-5c0-0.6,0-1.2,0-1.9c2.1-0.1,4.1-0.2,6.2-0.2
		c26.9,0,53.7,0,80.6,0c4.9,0,4.4-0.7,4.4,4.5C438.4,248.3,438.3,249.2,438.3,250z"/>
	<path class="st6" d="M369.5,263c1.4,1.2,2.9,0.9,4.5,0.3c2.4-1.6,4.9-0.9,7.4-0.3c1,1.2,2.3,0.7,3.5,0.7c17.8,0,35.6,0,53.4,0
		c0.4,5.6,0.4,5.6-5.2,5.6c-27.6,0-55.2,0-82.9,0c-3.4,0-4.7-1.9-3.5-5c0.5-1.4,1.7-1,2.6-1C356.1,263.1,362.8,263.1,369.5,263z"/>
	<path class="st7" d="M389,121.5c3.8-0.9,3.9,1.9,4.3,4.4c-1.1,0.9-2.2,1.6-1.6,3.5c3.1,10.9,6.1,21.8,9.2,32.7
		c0.6,2.1,1.4,3.9,3.3,5c-3.8,0.8-7.5,1.7-10.6,4c-1.7,1.3-1.8-0.1-2.1-1.2c-2.5-8.1-5-16.2-7.4-24.3c-1.9-6.3-3.8-12.7-5.6-19
		c-0.1-1.4,1-1.3,1.8-1.5c1.2-0.2,2.5-0.3,3.7-0.1C386.7,125.4,388.6,124.6,389,121.5z"/>
	<path class="st8" d="M423,183.3c-1.7-0.6-2.9-2-4.3-3c-6.4-4.8-15.6-4.5-21.6,0.7c-6.9,6-13.7,12-20.5,18
		c-4.5,3.9-6.9,8.7-6.4,14.8c0.1,0.7,0.1,1.5-0.4,2.1c-3-6.5-1.9-14.5,3.4-19.6c7.4-7,14.9-13.9,22.9-20.2
		C405.2,168.9,418.3,172.7,423,183.3z"/>
	<path class="st7" d="M489.6,138.4c-2,3.1-4.9,4.1-8.3,3.5c-3.3-0.6-5.6-2.7-6.5-6c-1.2-4.2-2.3-8.4-3.4-12.6c-0.8-2,0-3.1,1.9-3.7
		c1.5-0.4,3-0.9,4.5-1.3c5.2-1.3,4.1-0.1,4.8-5.1c1.3-0.6,2.9-1.7,3.1,0.8c0.1,1.6,3.3,4.2-1.1,4.9c-1.8,0.3-3.6,0.8-5.4,1.4
		c-1.5,0.5-2.5,1.6-2,3.3c0.5,1.6,1.7,2.3,3.4,1.9c1.9-0.5,3.8-1,5.7-1.5C487.2,128.9,489.3,133.5,489.6,138.4z"/>
	<path class="st9" d="M458.9,107.1c-1.6-2.5-1-3.7,2-4.3c3.1-0.6,6.1-1.7,9.2-2.5c2.4-0.6,3.5-1.9,2.7-4.5c0.4-1.2,1.3-1.2,2.3-0.9
		c1.4,2,3.2,2.8,5.6,1.5c1.8-1,0.5-3,1.5-4.1c1.7-0.8,3.4-2,5.4-1c0.8,1.3,1,2.9,1.3,4.3c0.8,6-0.1,7.7-5.9,9.5
		c-4.8,1.5-9.7,2.9-14.6,4.1C465,110.3,461.4,110.8,458.9,107.1z"/>
	<path class="st10" d="M424.5,225c0,3.5,0,7.1,0.1,10.6c0,1.5-0.6,1.9-2,1.9c-20,0-39.9,0-59.9,0c-1.1,0-2.1,0-2.1-1.5
		c0.1-4.6-0.6-9.3,0.3-13.9c1,0.9,1,2.1,1,3.2c0.2,1.6,0.2,3.1,0.1,4.7c-0.1,2.6,1.1,3.6,3.5,3.4c0.5,0,1,0,1.6,0
		c16.9,0,33.9,0,50.8,0c4.9,0,4.9,0,5.1-4.9c0-1,0-2.1,0.5-3C423.7,225,424.1,224.9,424.5,225z"/>
	<path class="st11" d="M424.5,225c-0.2,0-0.4,0-0.5,0.1c-1.2,1-2.7,0.9-4.1,0.9c-18.2,0-36.4,0-54.6,0c-1.4,0-2.9,0.2-4.1-1
		c-0.1-1-0.2-2-0.2-3c0.9-0.1,1.8-0.3,2.7-0.3c19.3,0,38.6,0,57.9-0.1C424.2,221.7,425.1,222.4,424.5,225z"/>
	<path class="st12" d="M402.8,91.5c-2.1-3.1-5.1-4.8-8.8-4.9c-7.7-0.1-15.4,0-23.1-0.1c-7.6,0-13.9,6.4-13.1,13.5
		c0.3,2.7,0.4,5.6-0.3,8.4c-2.2-5.7-2.2-11.6-0.3-17.3c1.7-5.2,6-7.9,11.5-8.1c7.8-0.2,15.5-0.2,23.3,0c5.4,0.2,9.4,2.8,11.5,8
		C403.5,91.5,403.3,91.8,402.8,91.5z"/>
	<path class="st13" d="M376.7,185.5c2.9-15,1.5-29.2-0.1-43.6c0.9,1.1,1.1,2.1,1.4,3.1c2.9,9.4,5.7,18.8,8.7,28.2
		c0.7,2.3,0.3,3.6-1.5,5C382.4,180.3,379.9,182.7,376.7,185.5z"/>
	<path class="st14" d="M404.1,167.1c-2,0-3-0.7-3.5-2.8c-3.2-11.9-6.7-23.8-10.1-35.7c-0.8-2.8,0.9-2.9,2.8-2.7
		c0.4,0.9,1,1.8,1.3,2.7c3.5,11.8,6.9,23.6,10.2,35.4C405.1,165.1,406.4,166.6,404.1,167.1z"/>
	<path class="st7" d="M450.9,100.1c0.6,0.5,0.4,1.3,0.6,1.9c0.8,2.1-0.5,2.5-2.2,2.5c-6.2-0.1-12.4-0.6-18.6-1
		c-5.6-0.4-11.1-0.7-16.7-1.1c-1.3-0.1-2.7,0-3.8-1c-0.1-0.2-0.1-0.3,0-0.5c-0.4-1.7-0.3-3.4-0.1-5.1c0.7-0.8,1.7-0.7,2.6-0.6
		C425.4,96.9,438.2,98.3,450.9,100.1z"/>
	<path class="st15" d="M402.8,91.5c0.2-0.2,0.5-0.3,0.7-0.5c1.9,5.7,1.9,11.5-0.1,17c-1.8,5-6,7.7-11.3,7.8
		c-7.8,0.2-15.5,0.2-23.3,0c-4.5-0.1-8.2-2-10.5-6.1c4.2,2.8,8.7,3.9,13.8,3.7c5.5-0.2,11,0,16.5-0.1c7.7,0,14.8-5.2,14.2-14.1
		C402.6,96.7,402.8,94.1,402.8,91.5z"/>
	<path class="st16" d="M399,216.3c5.1-4.8,10-9.8,15.3-14.4c4.9-4.2,8.4-9.1,9.7-15.5c2,6.9-0.1,12.7-5.1,17.5
		c-4.1,4-8.5,7.6-12.8,11.4C404,217.2,401.4,216.2,399,216.3z"/>
	<path class="st17" d="M475,95.2c-0.8,0-1.5,0.2-2.2,0.6c-1.3-1.2-2.7-1.3-4.3-0.8c-3.5,1.1-7,1.9-10.5,3c-1.6,0.5-1.9-0.2-2.3-1.5
		c-0.4-1.4-0.3-2.1,1.3-2.5c9.2-2.5,18.4-5,27.5-7.7c1.5-0.4,2.1,0,2.4,1.3c0.2,1.2,0.5,2.4,0.8,3.6c-1.8,0.5-3.6,0.9-5.4,1.4
		C479.6,93,477.1,93.4,475,95.2z"/>
	<path class="st18" d="M410.2,101.5c10,0.1,20,0.9,29.9,1.8c3.3,0.3,6.6-0.4,9.9,0.5c1.5,0.4,1.3-0.9,1.5-1.8c0.2,0.7,0.4,1.4,0.7,2
		c0.8,1.9,0,2.3-1.8,2.2c-12.3-0.6-24.6-1.2-37-1.8C411.5,104.5,409.4,104.5,410.2,101.5z"/>
	<path class="st19" d="M450.9,100.1c-2.6,1.7-5.2,0.1-7.7-0.1c-8.2-0.7-16.4-1.9-24.6-2.9c-2.8-0.3-5.5-0.9-8.2-1.3
		c-0.4-2.3-0.3-2.3,3.1-1.9c11.7,1.4,23.5,2.9,35.2,4.3C449.9,98.4,451,98.5,450.9,100.1z"/>
	<path class="st20" d="M458.9,107.1c3.5,2.6,7.3,2.2,11.2,1c3.9-1.3,8-2.2,11.9-3.4c4.7-1.4,7.3-2.2,6.8-8.9
		c2.2,6.1,0.5,9.6-5.5,11.3c-5.4,1.5-10.8,3.1-16.2,4.5C463.2,112.6,460.3,110.9,458.9,107.1z"/>
	<path class="st21" d="M482.6,113.4c1.6,4.4,1.3,4.8-3,5.6c-2.1,0.4-4.2,1.1-6.3,1.5c-1.7,0.3-2.1,1.4-2,2.9
		c-0.1-0.1-0.2-0.2-0.2-0.2c-2.1-6.4-2.1-6.4,4.3-8.2C477.8,114.4,480.1,113.3,482.6,113.4z"/>
	<path class="st22" d="M389,121.5c0.1,0.6,0.1,1.2,0.3,1.8c0.7,2-0.1,2.5-2,2.6c-3,0.2-6.1-0.9-9,0.7c-2-5.2-2-5.2,3.3-5.2
		C384.1,121.4,386.6,121.5,389,121.5z"/>
	<path class="st23" d="M489.6,138.4c-1.9-4.1-2.6-8.6-3.8-12.9c-0.1-0.4,0.3-0.9,0.5-1.4c1.4-0.7,2.5-0.9,2.8,1.2
		c0.6,3.2,2.3,6.2,1.9,9.6C491,136.1,490.7,137.5,489.6,138.4z"/>
	<path class="st18" d="M413.4,93.9c-1,0.6-3.4-1.1-3.1,1.9c-0.1,1.7-0.1,3.5-0.2,5.2c-0.7-1.5-0.3-3-0.4-4.5
		C409.7,93,409.8,92.9,413.4,93.9z"/>
	<path class="st24" d="M381.4,263c-2.4,0.8-4.9,0.1-7.4,0.3c-1.3-1.5-1.9-3.4,0-4.5c2.2-1.4,4.9-1.2,7.1-0.1
		C382.9,259.6,382.5,261.4,381.4,263z"/>
	<path class="st25" d="M417.2,190.7c0.1,5.5-4.2,9.9-9.7,10c-5.4,0.1-10-4.3-10.2-9.7c-0.2-5.5,4.4-10.2,9.9-10.2
		C412.7,180.8,417.1,185.2,417.2,190.7z"/>
	<path class="st25" d="M380.3,109.1c-5.7,0.1-10.1-4.3-10.1-10c0-5.5,4.3-9.9,9.8-10c5.5-0.1,10.1,4.4,10.2,10
		C390.2,104.5,385.7,109.1,380.3,109.1z"/>
	<path class="st26" d="M475,95.2c1.7-3,3.9-3.8,7.3-2.4c1.1,2.4,0.5,4-2.1,4.8C477.7,98.4,475.6,98.4,475,95.2z"/>
	<path class="st27" d="M361.1,225.1c21,0,41.9,0,62.9,0c0,2.1-0.2,4.2,0,6.2c0.3,2.6-0.9,3.1-3.2,3.1c-18.9-0.1-37.8-0.1-56.7,0
		c-2.5,0-3.4-0.7-3.1-3.1C361.2,229.3,361.1,227.2,361.1,225.1z"/>
	<path class="st28" d="M407.3,186.3c2.4-0.1,4.3,1.8,4.4,4.2c0.1,2.7-1.8,4.6-4.3,4.6c-2.4,0-4.4-1.8-4.5-4.2
		C402.7,188.6,404.8,186.4,407.3,186.3z"/>
	<path class="st29" d="M380.1,103.5c-2.6,0-4.4-1.9-4.3-4.6c0.1-2.5,1.9-4.2,4.4-4.2c2.5,0,4.5,2.2,4.4,4.6
		C384.5,101.6,382.4,103.5,380.1,103.5z"/>
</g>
</svg>
