<?xml version="1.0" encoding="utf-8"?>
<!-- Generator: Adobe Illustrator 24.0.1, SVG Export Plug-In . SVG Version: 6.00 Build 0)  -->
<svg version="1.1" id="Layer_1" xmlns="http://www.w3.org/2000/svg" xmlns:xlink="http://www.w3.org/1999/xlink" x="0px" y="0px"
	 viewBox="0 0 226.8 226.8" style="enable-background:new 0 0 226.8 226.8;" xml:space="preserve">
<style type="text/css">
	.st0{fill:#F5A81C;}
	.st1{fill:#009444;}
	.st2{fill:#020202;}
	.st3{fill:#5B7F92;}
	.st4{fill:#FFFFFF;}
	.st5{fill:#789FAF;}
	.st6{fill:#315B6C;}
	.st7{fill:#939799;}
	.st8{fill:#F9C463;}
	.st9{fill:#C6882B;}
	.st10{fill:#F9C362;}
	.st11{fill:#F7C361;}
	.st12{fill:#FDFEFF;}
	.st13{fill:#C2C3C4;}
	.st14{fill:#CD8C2A;}
	.st15{fill:#CB8C2A;}
	.st16{fill:#F7C363;}
	.st17{fill:#73777A;}
	.st18{fill:#C0C0C2;}
	.st19{fill:#C88A2B;}
	.st20{fill:#75797C;}
	.st21{fill:#787B7E;}
	.st22{fill:#BCBDBF;}
	.st23{fill:#050606;}
	.st24{fill:#060506;}
	.st25{fill:#090808;}
	.st26{fill:#F4A81D;}
	.st27{fill:#0C7DBC;}
	.st28{fill:#097DBC;}
</style>
<path class="st0" d="M213.6,143.3c-1.3,3.2-2.5,6.6-4,9.7c-1.7,3.5-3.8,6.7-6.7,9.3c-4.1,3.6-9.2,4.2-14,1.7c-0.4-0.2-0.7-0.4-1-0.5
	c-3.6,4.7-7.1,9.4-10.6,14c1.7-0.9,3.4-1.9,5.1-2.8c2.9-1.6,5.8-3.2,8.9-4.6c1.4-0.6,3.2-0.5,4.8-0.7c4.2-0.4,5-0.7,9.1-4.1
	c-2,4.1-4.3,7.6-7.1,10.8c-2.6,3-5.4,5.6-8.8,7.6c-5.1,3-10.7,2.6-15.3-1.2c-0.3-0.3-0.6-0.5-0.8-0.7c-5.5,4.3-10.9,8.6-16.2,12.7
	c0.8-0.2,2-0.5,3.1-0.9c1.2-0.3,2.4-0.7,3.6-1c2.7-0.7,5.4-1.4,8.1-2.1c2.5-0.7,4.9-0.3,7.3,0.2c3.4,0.7,6.4,0.1,9.3-1.8
	c0.2-0.1,0.4-0.2,0.6-0.2c-5.8,6.5-12.5,11.8-20.8,14.8c-6.3,2.3-13.4,1.2-17.7-5.7c-9.5,5.1-19.7,8.3-30.2,11
	c3.4,1.5,6.8,2.8,10,4.3c3.3,1.5,6.4,3.4,8.7,6.4c-1.2,0.7-2.3,1.4-3.5,2.1c-5.6-5-12.1-7.9-19.1-10.3c-2.1-0.7-4-0.7-6,0
	c-6.9,2.4-13.5,5.3-19.1,10.3c-1.1-0.7-2.3-1.3-3.6-2.1c5.1-5.7,12.1-7.9,19-10.6c-10.7-2.7-20.9-5.9-30.4-11.1
	c-0.2,0.2-0.3,0.3-0.4,0.5c-3.5,5.3-9.2,7.5-15.3,5.8c-8.3-2.3-14.9-7.2-20.9-13.3c-0.7-0.7-1.3-1.4-1.9-2.2
	c0.2,0.1,0.4,0.2,0.6,0.3c2.8,1.8,5.9,2.6,9.1,1.7c4.2-1.1,8.3-0.1,12.3,1c3.4,0.9,6.8,1.9,10,2.8c-5.2-4.1-10.7-8.4-16.2-12.7
	c-0.7,0.5-1.7,1.4-2.7,2c-4.5,2.5-9,2.4-13.3-0.2c-6-3.6-10.3-8.8-13.9-14.7c-0.7-1.1-1.3-2.3-1.9-3.4c0,0,0-0.1,0.1-0.2
	c1.7,1.7,3.5,3.2,5.9,3.6c1.4,0.2,2.8,0.2,4.1,0.5c1.9,0.4,3.9,0.7,5.6,1.5c3.8,1.8,7.4,4,11.1,6c0.3,0.2,0.6,0.3,0.9,0.5
	c-3.5-4.6-7.1-9.3-10.6-13.9c-1.5,0.5-3,1.3-4.7,1.6c-4.7,1-8.5-0.7-11.7-4.2c-4.1-4.5-6.7-9.8-8.5-15.6c-0.3-0.9-0.5-1.8-0.8-2.7
	c0.1,0,0.2,0,0.2,0c1.9,3.2,4.8,4.5,8.2,5.3c1.7,0.4,3.5,1.3,4.9,2.4c3.1,2.4,6,5.1,9,7.7c0.2,0.2,0.5,0.4,0.6,0.5
	c-2.3-5.3-4.7-10.6-7-15.9c-1.7,0.2-3.5,0.5-5.4,0.5c-3.6-0.1-6.4-1.8-8.5-4.8c-2.8-4.1-4.1-8.8-4.9-13.6c-0.3-1.9-0.4-3.8-0.4-5.7
	c0.2,0.3,0.3,0.7,0.5,1c0.9,2,2.2,3.6,4.3,4.4c3.6,1.3,6.1,4,8.2,7c1.5,2.2,3.1,4.4,4.7,6.6c-1.1-5.5-2.1-10.9-3.2-16.2
	c-1.9-0.2-3.8-0.2-5.6-0.8c-4.4-1.3-6.3-4.8-7.3-9c-1.1-4.8-0.9-9.7-0.2-14.5c0-0.2,0.1-0.3,0.3-0.8c0.3,3.2,2,5.3,4.4,6.8
	c2.2,1.3,3.3,3.4,4.3,5.6c1.2,2.7,2.4,5.4,4,8c0-5.1,0-10.1,0-15.3c-0.7-0.1-1.7-0.3-2.6-0.5c-4.1-1-6.7-3.9-7.2-8.1
	C13.9,88,15,82.8,17.2,77.8c0,0.3,0.1,0.6,0.1,1c0,1.7,0.4,3.2,1.7,4.3c3.1,2.6,3.9,6.2,4.7,9.8c0.4,1.8,0.8,3.7,1.2,5.7
	c-2-0.8-3.1-2.3-4.1-3.8c-1-1.5-1.8-3.1-2.9-4.9c1.1,4.8,3.2,8.6,6.6,11.5c1.3-6,2.6-11.9,3.8-18c-0.3-0.1-0.9-0.3-1.4-0.4
	c-4.2-1.5-6.5-5-5.9-9.4c0.6-4.9,2.5-9.2,5.3-13.3c-0.7,2.7,0.4,4.8,1.8,7c0.6,0.9,1,2.1,1,3.1c0.1,3.2,0,6.5,0,9.8
	c-2.7-2.2-3.3-5.5-4.4-8.6c0,4.2,1.2,8,3.8,11.3c2.4-5.4,4.8-10.8,7.2-16.3c-0.3-0.2-0.8-0.4-1.3-0.7c-3.3-1.9-4.6-5-3.6-8.7
	c1.3-4.5,4-8.2,7.3-11.6c-1.2,2.4-0.1,4.4,0.5,6.6c0.4,1.3,0.2,2.7,0.1,4.1c-0.3,2.5-0.9,4.9-1.4,7.7c-2.3-2.6-2.2-5.6-2.6-8.7
	c-0.8,4-0.3,7.5,1.4,11.1c0.6-0.9,1.1-1.7,1.6-2.4c0.1,0.1,0.1,0.3,0.2,0.4c3.9-0.1,7.4-1.5,10.8-3.3c-2.9,0.6-5.7,1.7-8.8,0.9
	c1.8-1.2,3.5-2.4,5.3-3.4c2.3-1.3,4.7-2,7.4-1.5c1.4,0.2,3-0.3,4.4-0.4c-2.6,3-5.2,6.3-8.8,8.4c-3.2,1.9-6.4,1.8-10.5-0.4
	c-3.1,5-5.5,10.3-7.4,15.9c2.7-0.3,8.1-3,10.4-5.2c-1.7,0.7-3.1,1.4-4.5,1.8c-1.4,0.5-2.9,0.8-4.5,1c3.4-3.7,6.4-7.7,12.2-7.7
	c1.7,0,3.3-0.8,4.8-1.2c-1.9,3.3-3.9,7-6.9,9.9c-2.9,2.9-6.5,3.3-10.3,2.3C31,81.3,30.5,81.2,30,81c-2,5.8-3.3,11.6-4.2,17.8
	c3.9-1.9,7-4.3,9.7-7.4c-2.8,1.6-5.4,3.8-8.9,4.5c2-3.6,4.2-6.7,7.3-9c0.8-0.5,1.8-0.8,2.7-1c3.6-0.9,3.6-0.8,6.3-3
	c-1.5,4.4-2.8,8.7-5.4,12.4c-2.5,3.4-6,4.4-10,4.1c-0.5,0-1-0.1-1.6-0.2c-0.8,6.2-1,12.3-0.4,18.7c3.7-2.8,6.5-6,8.7-9.9
	c-2.6,2.4-4.9,5.2-8.7,6.7c0.3-0.8,0.4-1.4,0.7-2c1.1-2.2,2.2-4.5,3.3-6.7c1.1-2.1,2.9-3.3,5.1-4c2.1-0.7,3.9-1.7,5.3-3.7
	c-0.2,1.4-0.3,2.8-0.6,4.2c-0.5,2.4-0.8,4.9-1.6,7.3c-1.7,5.4-5.5,8.3-11.2,8.6c-0.3,0-0.5,0-1,0.1c0.3,5.5,1.4,10.7,3,16
	c0.2-0.9,0.2-1.8,0.5-2.7c0.8-2.9,1.5-5.8,2.7-8.5c0.6-1.4,2.2-2.5,3.6-3.4c2-1.3,3.8-2.7,4.7-5.1c0.1,1.2,0.3,2.5,0.3,3.7
	c0,3.2,0.2,6.5-0.1,9.7c-0.4,5.4-3.8,8.5-8.7,10.2c-0.6,0.2-1.1,0.3-2.1,0.6c2.2,5.4,4.4,10.6,6.6,15.9c0.2-0.1,0.3-0.1,0.5-0.2
	c-0.1-1.4-0.3-2.8-0.3-4.1c0-1.4,0.1-2.9,0.2-4.3c0.2-3.4,1.3-6.3,4.1-8.5c1.9-1.4,2.9-3.4,3.2-5.8c1.5,4.7,3.1,9.4,3.5,14.4
	c0.4,5.5-2.1,9.4-6.8,12.1c-0.2,0.1-0.5,0.3-0.7,0.4c-0.2,0.1-0.5,0.3-1.1,0.6c3.3,4.7,6.6,9.3,9.9,13.9c0.1-0.1,0.3-0.2,0.4-0.3
	c-0.4-1.3-1-2.6-1.3-3.9c-0.5-2.5-0.9-5-1.2-7.5c-0.3-2.4,0.7-4.4,2.1-6.3c2.2-3.1,2.5-4.3,2.2-7.8c1.3,2.4,2.6,4.4,3.6,6.6
	c1.4,3,2.8,5.9,3.8,9.1c1.7,5.3-0.3,9.7-4.3,13.3c-0.3,0.3-0.6,0.5-1.1,0.9c4.6,4.9,9.8,9.1,15.5,12.7c-0.5-0.7-0.9-1.3-1.4-2
	c-2-2.7-3.5-5.7-4.5-8.9c-0.8-2.3-0.7-4.5,0.2-6.8c0.8-2.1,1.6-4.3,1-6.6c-0.2-0.6-0.3-1.1-0.4-1.8c2,2.1,4,4.1,5.9,6.3
	c2.2,2.6,4.4,5.3,6.2,8.1c3,4.8,2.3,9.6-0.6,14.3c-0.2,0.3-0.4,0.7-0.9,1.4c4.2,1.8,8.1,4,12.3,5.3c9,2.8,18,5.1,27.1,7.6
	c0.3,0.1,0.7,0.1,1,0c10-2.5,20.1-4.7,29.7-8.6c3.2-1.3,6.4-2.9,9.6-4.4c-0.2-0.4-0.2-0.6-0.3-0.8c-4.4-6.1-3.6-12.2,0.6-17.4
	c3.3-4.1,6.9-8,10.3-12c-0.1,1.9-0.3,3.6-0.2,5.3c0.1,1.2,0.7,2.4,1.1,3.6c0.7,2,0.8,4,0.1,6.1c-1,3.3-2.6,6.3-4.6,9.1
	c-0.5,0.6-0.9,1.3-1.2,2c5.6-3.6,10.6-7.8,15.3-12.6c-0.3-0.3-0.6-0.5-0.8-0.8c-4.6-3.8-6.3-8.9-4.3-14.5c1.3-3.7,3.3-7.2,5-10.8
	c0.6-1.2,1.3-2.3,2-3.5c-0.4,2.6,0.2,4.9,1.9,6.7c2.8,3.3,2.9,7,2.1,10.9c-0.5,2.5-1.3,5-1.9,7.4c1.8-1.3,8.5-10.6,9.8-13.6
	c-1.1-0.7-2.2-1.2-3.2-2c-3.9-2.9-5.8-6.9-5-11.8c0.8-4.6,2-9.2,3.3-13.8c0.2,3.6,2.8,5.4,4.9,7.6c1.9,1.8,2.2,4.3,2.4,6.6
	c0.2,2.9,0,5.8,0,8.6c1.2-1.3,5.6-11.6,6.6-15.7c-1.1-0.4-2.3-0.7-3.4-1.2c-4.1-1.9-6.6-4.9-7.2-9.5c-0.4-3.3-0.3-11.1,0.4-14
	c0.7,3.3,3,4.6,5.4,6c1.5,0.9,2.7,2.1,3.2,3.9c0.9,3.1,1.6,6.1,2.4,9.2c0.1,0.3,0.1,0.7,0.2,1c0.2,0,0.3,0,0.5,0
	c0.9-5.3,1.8-10.6,2.7-15.8c-1.8-0.3-3.2-0.4-4.6-0.8c-3.6-1-6.3-3.1-7.4-6.7c-1.2-4.1-2-8.4-2.7-12.8c1.7,2.8,4.9,3.1,7.3,4.6
	c1.4,0.9,2.5,2.4,3.6,3.8c1.7,2.3,2.6,5,3.6,8c-3.8-1.5-6.1-4.3-8.7-6.8c2.1,3.9,5,7,8.7,9.9c0.7-6.3,0.4-12.4-0.3-18.3
	c-2.2-0.2-4.4-0.3-6.4-0.7c-2.1-0.4-3.8-1.6-5.1-3.4c-2.8-3.8-4.1-8.2-5.5-12.7c1.5,1.8,3.5,2.4,5.6,2.8c2,0.3,3.7,1.1,5,2.7
	c1.9,2.3,3.7,4.7,5.4,7.2c-3.5-0.4-6.1-2.5-8.8-4.3c0.6,1.8,6.6,6.4,9.9,7.5c-1.4-6.1-2.7-11.9-4-17.5c-2.2,0.2-4.1,0.6-6,0.6
	c-2.6,0-4.9-1.1-6.5-3.2c-2.4-3.1-4.7-6.4-6.8-9.9c2,1.6,4.3,1.6,6.6,1.7c2.3,0,4.1,1.3,5.8,2.7c1.7,1.4,3.3,3,4.9,4.7
	c-3.2,0.1-5.9-1.4-8.7-2.4c2.9,2.4,6.3,4,10.2,5.2c-1.9-5.8-4.4-11-7.5-16.1c-2.6,1.5-5.3,2.3-8.1,1.4c-1.8-0.6-3.6-1.7-5.1-3
	c-2.3-2-4.3-4.2-6.3-6.6c2.3,1.3,4.7,0.4,7,0.6c1.6,0.1,3.2,0.8,4.7,1.5c2,1,3.8,2.3,5.6,3.6c-3.1,0.6-5.9-0.5-9.1-1.3
	c3.6,2.3,10.1,4,11.3,3.1c0.5,0.7,0.9,1.5,1.4,2.2c1.8-2,2.5-7,1.5-10.7c-0.4,2.9-0.3,5.9-2.6,8.6c-0.6-4-2.1-7.7-1.4-11.6
	c0.1-0.5,0.3-1,0.5-1.4c0.8-1.8,0.9-3.6,0.1-5.4c3.6,3.9,6.9,8,7.6,13.4c0.4,2.8-1,4.9-3.2,6.5c-0.7,0.5-1.4,0.8-2,1.1
	c2.4,5.5,4.8,10.9,7.2,16.2c2.6-3.2,3.7-7.1,3.8-11.3c-1.1,3-1.7,6.3-4.6,8.5c0.4-4.8-1.2-9.9,2.1-14.3c1.2-1.6,1.3-3.5,0.9-5.4
	c2.7,4.1,4.7,8.5,5.2,13.4c0.5,4.4-1.8,7.8-5.9,9.2c-0.5,0.2-1,0.3-1.4,0.4c1.3,6,2.6,11.9,3.9,18c3.4-2.9,5.5-6.7,6.5-11.2
	c-1.8,3.1-3.3,6.5-6.7,8.4c-0.1-0.1-0.3-0.1-0.4-0.2c1-3.9,2-7.8,3.2-11.6c0.3-0.9,1.1-1.7,1.8-2.4c1.8-1.8,3.1-3.8,2.7-6.5
	c0.1,0,0.2,0,0.4,0c0.5,1.9,1.1,3.7,1.6,5.6c0.8,3.2,1.1,6.5,0.8,9.8c-0.4,4.8-3.8,8.3-8.5,8.8c-0.5,0-0.9,0.1-1.3,0.2
	c0,5.1,0,10.2,0,15.3c0.1,0,0.2,0.1,0.3,0.1c0.2-0.4,0.4-0.8,0.6-1.3c1.3-2.8,2.6-5.5,3.8-8.3c0.8-1.8,2.1-3.2,3.7-4.2
	c2.4-1.5,4-3.5,4.3-6.5c0.1,0,0.2,0,0.4,0c0.2,2.6,0.5,5.1,0.5,7.7c0,3.3-0.4,6.7-1.5,9.8c-1.8,4.9-5.9,7.5-11.2,7.1
	c-0.4,0-0.7-0.1-1-0.1c-1.1,5.5-2.1,10.9-3.2,16.4c0.6-0.8,1.2-1.6,1.8-2.4c1.7-2.3,3.3-4.7,5.2-6.9c1.2-1.3,2.7-2.6,4.3-3.4
	c2.9-1.4,5.3-3,6.5-6.2c-0.1,0.9-0.2,1.8-0.2,2.7c-0.1,1-0.2,1.9-0.3,2.9c-0.7,4.1-1.7,8.1-3.8,11.8c-3.2,5.8-7.9,7.8-14.4,6.1
	c-0.2,0-0.4-0.1-0.5-0.1c-2.4,5.4-4.7,10.8-7.1,16.2c1.1-1,2.2-2,3.4-3.1c2-1.7,3.9-3.4,5.9-5.1c1.6-1.4,3.5-2.2,5.5-2.7
	c4.1-0.9,4.4-1.2,7.8-4.9C213.3,143.2,213.4,143.3,213.6,143.3z M75.1,197.5c-1.1-0.7-2-1.1-2.8-1.7c-0.6-0.5-1.1-0.4-1.7-0.1
	c-1.2,0.5-2.4,1-3.7,1.2c-4,0.8-8,0.6-12,0.2C61.5,199.3,68.1,199.7,75.1,197.5z M171.7,197.1c-1.3,0.1-2.6,0.3-3.9,0.3
	c-4.2,0.2-8.3,0.2-12.2-1.8c-0.2-0.1-0.6-0.1-0.9,0c-1,0.6-2,1.2-3.3,2C158.5,199.7,165.1,199.3,171.7,197.1z M68,177
	c0,0.3,0.1,0.5,0.1,0.8c0.4,3.6,1.3,7.2,1.1,10.7c-0.1,2.6,0.7,3.9,2.8,4.8c0.1,0,0.2,0.1,0.5,0.1C72,187.5,70.5,182.1,68,177z
	 M154.1,193.5c1.1-0.7,2-1.2,2.8-1.8c0.3-0.2,0.6-0.8,0.6-1.2c0-2.2-0.2-4.4,0-6.6c0.2-2.3,0.7-4.6,1.1-6.9
	C156.1,182.1,154.6,187.5,154.1,193.5z M35.7,176.9c5.4,3,11,4.6,17.2,3.9c-0.4-0.6-0.8-0.9-1.2-1.4c-0.7-0.9-1.4-1.4-2.7-0.9
	c-1.1,0.4-2.4,0.3-3.6,0.2C42.2,178.2,39,177.5,35.7,176.9z M173.6,180.6c0.1,0.1,0.2,0.3,0.3,0.4c6.1,0.4,11.7-1.1,17.1-4.2
	c-0.2-0.1-0.3-0.2-0.4-0.2c-0.7,0.2-1.4,0.4-2.1,0.6c-3.9,1-7.8,2.1-11.8,1c-0.2-0.1-0.6,0.1-0.8,0.2
	C175.1,179.2,174.3,179.9,173.6,180.6z M52.3,161.1c0,0.1-0.1,0.2-0.1,0.3c-0.2,4.2-0.7,8.4-2.6,12.2c-0.1,0.2-0.1,0.7,0.1,0.8
	c0.6,0.8,1.4,1.5,2.2,2.3C53.1,171.5,53.2,166.3,52.3,161.1z M174.2,161.2c-0.8,5.2-0.7,10.4,0.6,15.7c0.7-0.8,1.2-1.4,1.8-1.9
	c0.7-0.6,0.7-1.1,0.2-1.9c-0.5-1-1-2.1-1.2-3.2C175.1,167,174.7,164.1,174.2,161.2z M203,155.7c-0.2-0.1-0.2-0.2-0.2-0.2
	c-0.4,0.2-0.8,0.4-1.2,0.6c-3.5,1.8-7,3.8-11.2,3.4c-0.2,0-0.5,0.2-0.7,0.3c-0.5,0.8-1,1.6-1.6,2.7
	C193.9,161.9,198.7,159.4,203,155.7z M23.8,155.6c4.1,3.8,8.8,6.3,14.7,7c-0.6-1-1-1.8-1.5-2.5c-0.2-0.2-0.6-0.5-0.8-0.5
	c-2.5,0.3-4.8-0.5-7.1-1.5C27.3,157.4,25.6,156.4,23.8,155.6z M42.3,144.3c-1.5,4.1-2.7,8.2-5.8,11.5c0.6,1,1.1,1.9,1.8,3
	C40.6,154,42,149.3,42.3,144.3z M184.3,144.3c0.3,5,1.7,9.8,4.1,14.5c0.6-1.2,1.2-2.1,1.5-2.8c-1.2-2-2.4-3.8-3.3-5.7
	C185.7,148.4,185.1,146.3,184.3,144.3z M210,132.3c-0.2,0.2-0.5,0.4-0.7,0.6c-3,2.6-6,5.2-10.2,5.7c-0.2,0-0.5,0.3-0.5,0.5
	c-0.3,0.8-0.5,1.7-0.8,2.6C202.2,140.6,207.4,136.6,210,132.3z M28.9,141.9c-0.2-0.6-0.3-1-0.4-1.4c-0.2-1.2-0.7-2-2.2-2.1
	c-1,0-2.1-0.6-3.1-1.2c-2.3-1.5-4.6-3.2-6.8-4.7C19.6,136.8,23.6,140.1,28.9,141.9z M29.3,138.4c3.1-3.7,5.4-7.7,6.8-12.2
	c-2.3,3.3-4.2,6.8-7.7,9C28.7,136.3,29,137.2,29.3,138.4z M190.4,126.2c1.4,4.5,3.7,8.5,6.8,12.2c0.3-1.2,0.6-2.2,0.9-3.2
	C194.6,133,192.7,129.4,190.4,126.2z M14.9,110.1c2.2,4.7,5.2,8.3,9.6,10.9c0-0.6,0-1,0-1.4c0-1-0.2-1.7-1.4-2.1
	c-1.3-0.4-2.5-1.3-3.4-2.3C18,113.7,16.6,112,14.9,110.1z M211.3,110.3c-0.3,0.4-0.6,0.9-1,1.3c-1.8,2.3-3.7,4.5-6.5,5.8
	c-1.8,0.8-2.1,1.3-1.6,3.5C206.6,118.4,209.5,114.9,211.3,110.3z"/>
<path class="st0" d="M107.7,22.2c0.3-1.8,0.5-3.3,0.8-4.8c0.2-1,0.1-1.8-0.8-2.6c-1.2-1-2.1-2.2-3.3-3.4c1.5-0.2,3-0.4,4.5-0.6
	c1-0.1,1.8-0.4,2.2-1.5c0.6-1.4,1.3-2.8,2.2-4.4c0.8,1.6,1.6,3,2.2,4.4c0.4,1.1,1.2,1.4,2.2,1.5c1.5,0.2,3,0.4,4.5,0.6
	c-1.2,1.2-2.2,2.5-3.4,3.5c-0.8,0.7-0.9,1.5-0.7,2.5c0.3,1.5,0.5,3,0.9,4.8c-1.7-0.9-3.2-1.8-4.7-2.4c-0.5-0.2-1.3-0.2-1.9,0
	C110.9,20.4,109.4,21.3,107.7,22.2z"/>
<path class="st0" d="M140.2,21.3c2.6,1,5,2,7.5,2.9c6.5,2.4,11.6,6.6,15.9,12c-3.7-2.1-7.3-4.2-11-6.3c0,0.1-0.1,0.1-0.1,0.2
	c3.4,2.4,6.9,4.7,10.3,7.1c-0.1,0.1-0.1,0.2-0.2,0.4c-4.5-1.6-9.1-2.9-13.1-5.6C145.4,29.3,142.9,25.2,140.2,21.3z"/>
<path class="st0" d="M86.1,21.4c-4.5,9-12.4,13.8-22.6,16.1c3.8-2.6,7.2-5,10.7-7.4c0-0.1-0.1-0.2-0.1-0.2
	c-3.7,2.1-7.4,4.2-11.2,6.4c0.3-0.5,0.6-0.8,0.8-1.1c4.3-4.9,9.3-8.9,15.6-11.1C81.6,23.3,84,22.3,86.1,21.4z"/>
<path class="st0" d="M46.8,51.2c-1.3-2-1.4-3.5-0.9-7.8c-1.5,1.9-1.9,7.3-0.6,10.1c-3.7-1.6-5.1-5.3-3.5-8.9
	c1.5-3.2,5.5-7.8,9.1-10.1c-1.7,2.1-1.5,4.1-0.9,6.1c0.1,0.5,0.2,1.2,0,1.6C49.1,45.1,48,48,46.8,51.2z"/>
<path class="st0" d="M176.3,34.7c2.6,2,5,4.4,7,7.3c3.5,4.9,2.5,9-2.1,11.6c1.3-3.6,1-7-0.3-10.2c0,1.2,0.1,2.5,0,3.8
	c-0.1,1.3-0.4,2.5-0.9,3.8c-1.5-4-4.5-7.5-3.2-12.3C177.2,37.4,176.5,36,176.3,34.7z"/>
<path class="st0" d="M177.2,50.3c-1.3,0-2.6,0.1-3.9,0c-1.3-0.1-2.6-0.3-3.9-0.2c1,0.3,2.1,0.6,3.1,0.8c1.1,0.2,2.3,0.4,3.4,0.6
	c1.1,0.1,2.3,0.2,3.7,0.3c-2.1,1.8-4.3,2.6-6.8,2.3c-1.4-0.2-2.9-0.7-4.1-1.4c-2.9-1.8-5.6-3.9-8.3-6.1c2,0.7,3.9,0.2,5.8-0.1
	c1.1-0.2,2.4-0.2,3.5,0.1c2.6,0.8,5.1,1.9,7.6,2.9C177.2,49.8,177.2,50,177.2,50.3z"/>
<path class="st0" d="M49.4,49.7c2.8-1.6,5.7-2.9,8.9-3.5c0.9-0.2,1.9,0.2,2.9,0.3c1.6,0.1,3.2,0.2,4.8,0.3c-3.2,2.5-6.3,5.6-10.6,7
	c-3,1-5.7,0.1-8.1-1.8c3.4-0.6,6.8-1.1,10.2-1.7c0-0.1,0-0.2-0.1-0.3c-2.6,0.1-5.2,0.3-7.9,0.4C49.4,50.1,49.4,49.9,49.4,49.7z"/>
<path class="st0" d="M62.6,26.9c-0.3,1.6-0.5,3-0.8,4.4c-0.2,1.1-0.3,2.2-0.8,3.2c-1.1,2.2-2.5,4.3-3.9,6.7c-1-2.7-0.1-4.9,0.4-7.1
	c-1.7,2.7-2.4,5.5-2,8.7c-2.6-1.3-3.8-4.7-2.2-7.1c1.2-2,2.9-3.7,4.6-5.3C59.3,29,61,28,62.6,26.9z"/>
<path class="st0" d="M163.9,26.9c3.5,2.1,6.9,4.5,9.1,8.1c1.8,2.8,1.1,6.1-1.7,7.8c-0.1-1.5-0.1-3-0.5-4.5c-0.3-1.5-1-2.8-1.7-4.2
	c0.4,2.2,1.2,4.4,0.3,7c-1.9-3.6-5-6.4-4.7-10.7C164.8,29.3,164.2,28.2,163.9,26.9z"/>
<path class="st0" d="M88.2,17.1c3.1-0.1,5.5-1,5.9-4.6c0.1,0.1,0.3,0.1,0.4,0.2c0.4,0.8,0.9,1.6,1.3,2.5c0.4,1,1,1.4,2.1,1.5
	c0.9,0.1,1.7,0.2,2.9,0.4c-0.8,0.8-1.5,1.5-2.2,2.1c-0.8,0.7-1,1.4-0.8,2.4c0.2,0.9,0.3,1.8,0.4,2.9c-2.5-2.3-5-2.2-7.7,0.3
	c0.1-0.9,0.1-1.4,0.2-1.8c0.8-2.1,0.1-3.7-1.7-5C88.8,17.9,88.6,17.5,88.2,17.1z"/>
<path class="st0" d="M136.1,24.5c-2.7-1.8-5.2-2.4-7.6,0.2c-0.1-2.2-1.3-6.1-2.5-7.8c3.3,0.4,5.4-1.1,6.2-4.4c1,3.1,2.7,5,6.3,4.3
	c0,0.2,0,0.3,0,0.5c-0.7,0.6-1.3,1.3-2,1.8c-0.9,0.7-1.1,1.5-0.8,2.5C135.8,22.5,135.9,23.4,136.1,24.5z"/>
<path class="st0" d="M151.3,39.3c1.8-0.4,3.5-0.9,5.3-1.2c1.3-0.2,2.7-0.2,4,0.1c2.1,0.5,4.2,1.2,6.3,1.8c0,0.2,0,0.4,0,0.6
	c-2.4,0.2-4.8,0.3-7.2,0.5c3.1,0.8,6.2,0.8,9.7,0.5c-1.5,1.8-3.2,2.6-5.2,2.9c-2.4,0.3-4.6-0.6-6.6-1.7
	C155.4,41.7,153.4,40.4,151.3,39.3z"/>
<path class="st0" d="M75.2,38.9c-3.2,2.2-6.4,4.4-10.2,5.4c-2.2,0.6-6-0.1-7.5-2.5c1.5,0,3.1,0.1,4.7,0c1.6-0.1,3.1-0.4,4.6-0.8
	c-2.4-0.2-4.7-0.3-7.1-0.5c3.2-2.2,8.3-3.2,10.7-2.4c0.8,0.3,1.6,0.6,2.4,0.7C73.6,39,74.4,38.9,75.2,38.9z"/>
<g>
	<path class="st1" d="M71.5,110.7c-1.6,0-2.9-0.3-3.9-1s-1.7-1.7-2.2-3c-0.5-1.3-0.7-3-0.7-4.9v-14c0-1.8,0.2-3.3,0.7-4.5
		c0.5-1.3,1.2-2.2,2.2-2.9s2.3-1,4-1c1.2,0,2.3,0.2,3.1,0.6c0.8,0.4,1.5,0.9,2.1,1.7c0.5,0.7,0.9,1.6,1.1,2.6c0.2,1,0.4,2.2,0.4,3.5
		v14c0,1.9-0.2,3.6-0.7,4.9c-0.5,1.3-1.2,2.3-2.2,3C74.4,110.3,73.1,110.7,71.5,110.7z M71.5,106.6c0.6,0,1-0.2,1.3-0.5
		c0.3-0.3,0.5-0.9,0.6-1.6c0.1-0.7,0.1-1.6,0.1-2.7V87.5c0-1.3-0.1-2.4-0.4-3.1c-0.2-0.7-0.8-1.1-1.6-1.1c-0.8,0-1.4,0.4-1.7,1.1
		c-0.3,0.7-0.5,1.7-0.5,3.1v14.3c0,1.1,0,2,0.1,2.7c0.1,0.7,0.3,1.2,0.6,1.6S70.9,106.6,71.5,106.6z M75.2,115.4l-4.6-5l3-1.6
		l3.9,4.6L75.2,115.4z"/>
	<path class="st1" d="M89,110.7c-1.6,0-2.9-0.3-3.9-0.9c-1-0.6-1.7-1.5-2.2-2.7s-0.7-2.7-0.7-4.6V79.7h4.7v22.7c0,0.9,0,1.6,0.1,2.3
		s0.3,1.2,0.5,1.5c0.3,0.4,0.8,0.5,1.4,0.5c0.7,0,1.1-0.2,1.4-0.5c0.3-0.4,0.5-0.9,0.5-1.5c0.1-0.6,0.1-1.4,0.1-2.3V79.7h4.7v22.8
		c0,1.9-0.2,3.4-0.7,4.6s-1.2,2.1-2.2,2.7C91.9,110.4,90.6,110.7,89,110.7z"/>
	<path class="st1" d="M98.3,110.3l4.4-30.6h6.2l4.6,30.6h-4.4l-0.7-5.5h-4.9l-0.7,5.5H98.3z M103.9,101.1h4l-2.1-15.4h-0.1
		L103.9,101.1z"/>
	<path class="st1" d="M116.2,110.3V79.7h4.7v26.7h5.9v4H116.2z"/>
	<path class="st1" d="M129.4,110.3V79.7h4.7v30.6H129.4z"/>
	<path class="st1" d="M140.3,110.3V83.7h-3.6v-4h11.7v4H145v26.6H140.3z"/>
	<path class="st1" d="M154.2,110.3V98.1L149,79.7h4.5l3,11.4h0.1l2.7-11.4h4.4l-4.9,18.4v12.2H154.2z"/>
	<path class="st1" d="M70.7,138c-0.9,0-1.6-0.4-2.1-1.2c-0.5-0.8-0.7-2.1-0.7-3.9v-6.7c0-0.7,0-1.4,0.1-2c0.1-0.6,0.2-1.1,0.5-1.5
		c0.2-0.4,0.5-0.8,1-1c0.4-0.2,0.9-0.4,1.6-0.4c0.7,0,1.2,0.1,1.6,0.4c0.4,0.2,0.7,0.6,0.9,1c0.2,0.4,0.3,1,0.4,1.6s0.1,1.3,0.1,2
		v1.3h-1.7v-2.3c0-0.8-0.1-1.4-0.2-1.9c-0.2-0.4-0.5-0.6-1-0.6c-0.6,0-0.9,0.2-1.1,0.7c-0.2,0.5-0.3,1.4-0.3,2.6v6.8
		c0,1.3,0.1,2.3,0.3,2.9c0.2,0.6,0.6,0.9,1.1,0.9c0.6,0,0.9-0.3,1.1-0.9c0.2-0.6,0.3-1.5,0.3-2.9v-2.1H71v-1.3H74v8.4h-1l-0.2-1.1
		c-0.2,0.4-0.5,0.7-0.8,1C71.6,137.9,71.2,138,70.7,138z"/>
	<path class="st1" d="M82.2,138.1c-0.8,0-1.4-0.2-1.9-0.5c-0.4-0.3-0.8-0.8-1-1.5s-0.3-1.5-0.3-2.5v-12.1h1.7v12.1
		c0,0.6,0,1.2,0.1,1.6s0.2,0.8,0.4,1c0.2,0.2,0.5,0.4,1,0.4c0.5,0,0.8-0.1,1-0.4c0.2-0.2,0.3-0.6,0.3-1c0-0.5,0.1-1,0.1-1.6v-12.1
		h1.7v12.1c0,1-0.1,1.8-0.3,2.5c-0.2,0.6-0.5,1.1-0.9,1.5C83.6,137.9,83,138.1,82.2,138.1z"/>
	<path class="st1" d="M89.6,137.9l2.5-16.3h1.9l2.8,16.3h-1.6l-0.5-3.2h-3.1l-0.5,3.2H89.6z M91.9,133.3h2.7l-1.4-8.9h0L91.9,133.3z
		"/>
	<path class="st1" d="M101.3,137.9v-16.3h3.1c0.9,0,1.5,0.1,1.9,0.4c0.4,0.3,0.7,0.7,0.8,1.4c0.1,0.6,0.2,1.4,0.2,2.3
		c0,1-0.1,1.8-0.3,2.5c-0.2,0.6-0.6,1-1.2,1.2c0.3,0,0.6,0.2,0.8,0.4c0.2,0.2,0.3,0.6,0.5,1c0.1,0.5,0.2,1.1,0.2,1.9
		c0,0.8,0.1,1.8,0.1,3c0,0.1,0,0.3,0,0.4s0,0.3,0,0.5c0,0.2,0,0.3,0,0.5c0,0.2,0,0.3,0.1,0.5c0,0.1,0,0.3,0.1,0.3h-1.7
		c0-0.1-0.1-0.2-0.1-0.3c0-0.2,0-0.4-0.1-0.6c0-0.3,0-0.6,0-1c0-0.4,0-0.9,0-1.4s0-1.2,0-2c0-0.7,0-1.2-0.1-1.5
		c0-0.4-0.2-0.6-0.4-0.7c-0.2-0.1-0.5-0.2-1-0.3l-1.3-0.1v8H101.3z M103,128.7h1.3c0.4,0,0.7-0.1,0.9-0.2c0.2-0.1,0.3-0.4,0.4-0.9
		s0.1-1.1,0.1-2v-0.1c0-0.7,0-1.3-0.1-1.7c-0.1-0.4-0.2-0.6-0.4-0.8c-0.2-0.1-0.5-0.2-0.9-0.2H103V128.7z"/>
	<path class="st1" d="M111.5,137.9l2.5-16.3h1.9l2.8,16.3h-1.6l-0.5-3.2h-3.1l-0.5,3.2H111.5z M113.8,133.3h2.7l-1.4-8.9h0
		L113.8,133.3z"/>
	<path class="st1" d="M123.3,137.9v-16.3h1.2l3.9,11.8l-0.2-5.1v-6.7h1.5v16.3h-1.3l-3.7-11.7l0.1,4.3v7.4H123.3z"/>
	<path class="st1" d="M135.7,137.9v-15H134v-1.4h5v1.4h-1.6v15H135.7z"/>
	<path class="st1" d="M143.3,137.9v-16.3h4.6v1.4h-3v5.9h2.8v1.4H145v6.3h3v1.4H143.3z"/>
	<path class="st1" d="M152.8,137.9v-16.3h2.8c0.9,0,1.5,0.2,2,0.6c0.5,0.4,0.8,0.9,1,1.6c0.2,0.7,0.3,1.5,0.3,2.4l0,7.1
		c0,1.1-0.1,2-0.3,2.7s-0.6,1.2-1,1.5s-1.1,0.5-1.9,0.5H152.8z M154.5,136.5h1.1c0.4,0,0.7-0.1,0.9-0.3c0.2-0.2,0.4-0.5,0.5-0.9
		c0.1-0.5,0.2-1.1,0.2-2V126c0-1.1-0.1-1.9-0.4-2.4c-0.3-0.5-0.7-0.7-1.2-0.7h-1.1V136.5z"/>
</g>
<g>
	<path class="st2" d="M386.9,184.6c4.9,0,8.9,0,13,0c2.6,0,3.8,1.2,3.7,3.8c-0.1,5,0.1,10-0.1,15c-0.1,2,0.6,2.5,2.5,2.4
		c2.6-0.2,5.2,0,7.8,0c2.4,0,3.7,1,3.7,3.5c0,10.1,0,20.2,0,30.3c0,2.6-1.3,3.5-3.7,3.5c-6.7,0-13.3,0-20,0c-24.6,0-49.3,0-73.9,0
		c-4.8,0-5.2-0.4-5.2-5.1c0-9.3,0-18.5,0-27.8c0-3.7,0.7-4.4,4.3-4.4c2.3,0,4.6-0.2,6.9,0c2.3,0.2,2.8-0.7,2.7-2.8
		c-0.1-4.5-0.1-8.9,0-13.4c0-4.5,0.5-4.9,5.1-4.9c1.1,0,2.3,0,3.6,0c-1.4-5.7-2.2-11.6,0.8-16.4c10.8-17.1,8.8-35.6,6.8-54.2
		c-0.8-7.3-2.1-14.6-3.1-21.9c-0.2-1.8-1-2.5-2.8-2.9c-8.4-1.7-14-8.1-14.7-16.7c-0.2-3.1-0.3-6.2,0-9.3
		c0.7-10.1,8.2-17.2,18.5-17.4c7.5-0.2,15-0.1,22.5,0c6.6,0.1,11.9,2.9,15.4,8.5c0.9,1.4,1.9,1.9,3.5,2c12.1,1.4,24.1,2.9,36.2,4.5
		c1.2,0.2,2.1,0.2,2.8-1.2c0.5-1.2,1.8-1.3,2.9-1.6c11.1-3.1,22.2-6.2,33.3-9.3c3.7-1,4.5-0.6,5.6,3.1c1.2,4.1,2.3,8.2,3.4,12.3
		c1.4,4.9,0.6,9.3-3,12.9c-1,1-0.9,1.8-0.6,3c1.6,5.7,3.1,11.4,4.8,17.1c1.9,6.6,0.3,12.1-5.3,16.2c-1.2,0.8-1.3,1.6-1,2.9
		c1,3.2,1.8,6.4,2.7,9.6c0.5,2,1.1,4.1-1.5,4.9c-2.6,0.8-3.4-1.3-3.9-3.3c-0.9-3.2-1.8-6.4-2.6-9.6c-0.4-1.4-1-1.9-2.5-2.1
		c-6.6-0.7-10.8-4.3-12.6-10.7c-1.7-5.9-3.3-11.8-5-17.7c-1.4,0-1.9,1.2-2.7,1.9c-7.6,6.8-16,11.9-26.4,13.1
		c-11.3,1.3-21-2.5-30-9.1c-1.4-1-2.7-2.3-4.1-3.3c-0.8-0.6-1.4-2.1-2.5-1.5c-1.1,0.6-0.1,1.9,0.1,2.8c3.3,11.5,6.6,22.9,10,34.4
		c0.1,0.4,0.2,0.8,0.3,1.2c1,5.3,3.2,8.8,8.8,11.5c14.3,6.9,16.7,26,5.4,37.2C393.8,178.6,390.6,181.3,386.9,184.6z"/>
	<path class="st3" d="M411.7,218.3c0,4.6,0,9.1,0,13.7c-1.2,1.1-2.7,1-4.1,1c-16.2,0-32.4,0-48.5,0c-1.2,0-2.5,0-3.6-0.6
		c-0.7-0.4-0.8-1.1-0.8-1.9c-0.3-3-3.6-4.6-6.2-3c-0.8,0.5-1,1.2-0.9,2.1c0.1,0.8,0.5,1.6,0,2.4c-1.7,0.8-3.4,1.6-4.5-0.8
		c1.7-3.3,0.8-4.9-2.8-4.9c-5.8,0-11.6-0.1-17.4,0c-1.9,0-2.9-0.4-2.7-2.5c0.5-4.1-0.9-8.3,0.6-12.4c0.5,0.6,0.7,1.2,0.9,2
		c0.8,3.9,0.8,3.9,4.7,3.9c26.7,0,53.4,0,80,0C408.1,217.3,410.1,217,411.7,218.3z"/>
	<path class="st0" d="M396.5,151.6c0.7,0.9,1.1,1.9,1,3.1c0.2,6.6-3.5,11.1-8.1,15c-4.9,4.2-9.1,9-14.1,13c-0.9,0.7-1.8,1.4-2.8,1.9
		c-9.3,0-18.6,0.1-27.9,0.1c-0.5,0-1,0-1.3-0.6c-1.3-7.4,1.3-13.1,6.8-17.9c6.2-5.5,12.5-10.9,18.6-16.5
		C377,142.2,389.3,142.7,396.5,151.6z"/>
	<path class="st0" d="M331.7,78c-0.3-0.4-0.5-0.9-0.8-1.3c-0.2-2.8-0.4-5.6-0.7-8.3c-0.7-7,5.2-13.9,13-14.3
		c8.3-0.4,16.6-0.4,24.9,0c3.8,0.2,6.9,2.1,8.6,5.7c0.4,2.6,0.4,5.1,0.4,7.7c-0.1,8.6-5.2,14.4-13.7,14.9c-7.4,0.5-14.9,0.3-22.4,0
		C337.3,82.4,334.2,80.8,331.7,78z"/>
	<path class="st4" d="M404.8,79.1c7.2,0.4,14.3,0.8,21.5,1c2.8,0.1,3.7,2.4,5.5,3.7c0.8,0.5-0.4,1.2-0.8,1.6
		c-14.4,13.1-30.7,15.9-47.3,4.5c-6.5-4.5-6.5-4.6-1.8-10.9c0.8-1.1,1.8-0.9,2.8-0.8C391.3,78.5,398,78.9,404.8,79.1
		C404.7,79.2,404.7,79.2,404.8,79.1z"/>
	<path class="st5" d="M411.7,218.3c-28.7,0-57.4,0-86.1,0c-5.7,0-4.9,0.7-5-5c0-0.6,0-1.2,0-1.9c2.1-0.1,4.1-0.2,6.2-0.2
		c26.9,0,53.7,0,80.6,0c4.9,0,4.4-0.7,4.4,4.5C411.8,216.7,411.7,217.5,411.7,218.3z"/>
	<path class="st6" d="M343,231.3c1.4,1.2,2.9,0.9,4.5,0.3c2.4-1.6,4.9-0.9,7.4-0.3c1,1.2,2.3,0.7,3.5,0.7c17.8,0,35.6,0,53.4,0
		c0.4,5.6,0.4,5.6-5.2,5.6c-27.6,0-55.2,0-82.9,0c-3.4,0-4.7-1.9-3.5-5c0.5-1.4,1.7-1,2.6-1C329.5,231.4,336.2,231.4,343,231.3z"/>
	<path class="st7" d="M362.5,89.8c3.8-0.9,3.9,1.9,4.3,4.4c-1.1,0.9-2.2,1.6-1.6,3.5c3.1,10.9,6.1,21.8,9.2,32.7
		c0.6,2.1,1.4,3.9,3.3,5c-3.8,0.8-7.5,1.7-10.6,4c-1.7,1.3-1.8-0.1-2.1-1.2c-2.5-8.1-5-16.2-7.4-24.3c-1.9-6.3-3.8-12.7-5.6-19
		c-0.1-1.4,1-1.3,1.8-1.5c1.2-0.2,2.5-0.3,3.7-0.1C360.1,93.7,362,92.9,362.5,89.8z"/>
	<path class="st8" d="M396.5,151.6c-1.7-0.6-2.9-2-4.3-3c-6.4-4.8-15.6-4.5-21.6,0.7c-6.9,6-13.7,12-20.5,18
		c-4.5,3.9-6.9,8.7-6.4,14.8c0.1,0.7,0.1,1.5-0.4,2.1c-3-6.5-1.9-14.5,3.4-19.6c7.4-7,14.9-13.9,22.9-20.2
		C378.6,137.3,391.8,141,396.5,151.6z"/>
	<path class="st7" d="M463,106.7c-2,3.1-4.9,4.1-8.3,3.5c-3.3-0.6-5.6-2.7-6.5-6c-1.2-4.2-2.3-8.4-3.4-12.6c-0.8-2,0-3.1,1.9-3.7
		c1.5-0.4,3-0.9,4.5-1.3c5.2-1.3,4.1-0.1,4.8-5.1c1.3-0.6,2.9-1.7,3.1,0.8c0.1,1.6,3.3,4.2-1.1,4.9c-1.8,0.3-3.6,0.8-5.4,1.4
		c-1.5,0.5-2.5,1.6-2,3.3c0.5,1.6,1.7,2.3,3.4,1.9c1.9-0.5,3.8-1,5.7-1.5C460.6,97.2,462.7,101.8,463,106.7z"/>
	<path class="st0" d="M432.3,75.5c-1.6-2.5-1-3.7,2-4.3c3.1-0.6,6.1-1.7,9.2-2.5c2.4-0.6,3.5-1.9,2.7-4.5c0.4-1.2,1.3-1.2,2.3-0.9
		c1.4,2,3.2,2.8,5.6,1.5c1.8-1,0.5-3,1.5-4.1c1.7-0.8,3.4-2,5.4-1c0.8,1.3,1,2.9,1.3,4.3c0.8,6-0.1,7.7-5.9,9.5
		c-4.8,1.5-9.7,2.9-14.6,4.1C438.4,78.6,434.8,79.1,432.3,75.5z"/>
	<path class="st9" d="M397.9,193.3c0,3.5,0,7.1,0.1,10.6c0,1.5-0.6,1.9-2,1.9c-20,0-39.9,0-59.9,0c-1.1,0-2.1,0-2.1-1.5
		c0.1-4.6-0.6-9.3,0.3-13.9c1,0.9,1,2.1,1,3.2c0.2,1.6,0.2,3.1,0.1,4.7c-0.1,2.6,1.1,3.6,3.5,3.4c0.5,0,1,0,1.6,0
		c16.9,0,33.9,0,50.8,0c4.9,0,4.9,0,5.1-4.9c0-1,0-2.1,0.5-3C397.2,193.4,397.5,193.2,397.9,193.3z"/>
	<path class="st10" d="M397.9,193.3c-0.2,0-0.4,0-0.5,0.1c-1.2,1-2.7,0.9-4.1,0.9c-18.2,0-36.4,0-54.6,0c-1.4,0-2.9,0.2-4.1-1
		c-0.1-1-0.2-2-0.2-3c0.9-0.1,1.8-0.3,2.7-0.3c19.3,0,38.6,0,57.9-0.1C397.6,190,398.6,190.8,397.9,193.3z"/>
	<path class="st11" d="M376.2,59.8c-2.1-3.1-5.1-4.8-8.8-4.9c-7.7-0.1-15.4,0-23.1-0.1c-7.6,0-13.9,6.4-13.1,13.5
		c0.3,2.7,0.4,5.6-0.3,8.4c-2.2-5.7-2.2-11.6-0.3-17.3c1.7-5.2,6-7.9,11.5-8.1c7.8-0.2,15.5-0.2,23.3,0c5.4,0.2,9.4,2.8,11.5,8
		C376.9,59.9,376.7,60.1,376.2,59.8z"/>
	<path class="st12" d="M350.1,153.9c2.9-15,1.5-29.2-0.1-43.6c0.9,1.1,1.1,2.1,1.4,3.1c2.9,9.4,5.7,18.8,8.7,28.2
		c0.7,2.3,0.3,3.6-1.5,5C355.9,148.6,353.3,151.1,350.1,153.9z"/>
	<path class="st13" d="M377.6,135.5c-2,0-3-0.7-3.5-2.8c-3.2-11.9-6.7-23.8-10.1-35.7c-0.8-2.8,0.9-2.9,2.8-2.7
		c0.4,0.9,1,1.8,1.3,2.7c3.5,11.8,6.9,23.6,10.2,35.4C378.6,133.4,379.8,134.9,377.6,135.5z"/>
	<path class="st7" d="M424.3,68.5c0.6,0.5,0.4,1.3,0.6,1.9c0.8,2.1-0.5,2.5-2.2,2.5c-6.2-0.1-12.4-0.6-18.6-1
		c-5.6-0.4-11.1-0.7-16.7-1.1c-1.3-0.1-2.7,0-3.8-1c-0.1-0.2-0.1-0.3,0-0.5c-0.4-1.7-0.3-3.4-0.1-5.1c0.7-0.8,1.7-0.7,2.6-0.6
		C398.9,65.2,411.6,66.6,424.3,68.5z"/>
	<path class="st14" d="M376.2,59.8c0.2-0.2,0.5-0.3,0.7-0.5c1.9,5.7,1.9,11.5-0.1,17c-1.8,5-6,7.7-11.3,7.8
		c-7.8,0.2-15.5,0.2-23.3,0c-4.5-0.1-8.2-2-10.5-6.1c4.2,2.8,8.7,3.9,13.8,3.7c5.5-0.2,11,0,16.5-0.1c7.7,0,14.8-5.2,14.2-14.1
		C376,65,376.2,62.4,376.2,59.8z"/>
	<path class="st15" d="M372.4,184.6c5.1-4.8,10-9.8,15.3-14.4c4.9-4.2,8.4-9.1,9.7-15.5c2,6.9-0.1,12.7-5.1,17.5
		c-4.1,4-8.5,7.6-12.8,11.4C377.4,185.5,374.8,184.5,372.4,184.6z"/>
	<path class="st16" d="M448.4,63.6c-0.8,0-1.5,0.2-2.2,0.6c-1.3-1.2-2.7-1.3-4.3-0.8c-3.5,1.1-7,1.9-10.5,3
		c-1.6,0.5-1.9-0.2-2.3-1.5c-0.4-1.4-0.3-2.1,1.3-2.5c9.2-2.5,18.4-5,27.5-7.7c1.5-0.4,2.1,0,2.4,1.3c0.2,1.2,0.5,2.4,0.8,3.6
		c-1.8,0.5-3.6,0.9-5.4,1.4C453,61.3,450.5,61.7,448.4,63.6z"/>
	<path class="st17" d="M383.6,69.9c10,0.1,20,0.9,29.9,1.8c3.3,0.3,6.6-0.4,9.9,0.5c1.5,0.4,1.3-0.9,1.5-1.8c0.2,0.7,0.4,1.4,0.7,2
		c0.8,1.9,0,2.3-1.8,2.2c-12.3-0.6-24.6-1.2-37-1.8C384.9,72.8,382.8,72.8,383.6,69.9z"/>
	<path class="st18" d="M424.3,68.5c-2.6,1.7-5.2,0.1-7.7-0.1c-8.2-0.7-16.4-1.9-24.6-2.9c-2.8-0.3-5.5-0.9-8.2-1.3
		c-0.4-2.3-0.3-2.3,3.1-1.9c11.7,1.4,23.5,2.9,35.2,4.3C423.3,66.7,424.4,66.9,424.3,68.5z"/>
	<path class="st19" d="M432.3,75.5c3.5,2.6,7.3,2.2,11.2,1c3.9-1.3,8-2.2,11.9-3.4c4.7-1.4,7.3-2.2,6.8-8.9
		c2.2,6.1,0.5,9.6-5.5,11.3c-5.4,1.5-10.8,3.1-16.2,4.5C436.6,80.9,433.7,79.3,432.3,75.5z"/>
	<path class="st20" d="M456,81.7c1.6,4.4,1.3,4.8-3,5.6c-2.1,0.4-4.2,1.1-6.3,1.5c-1.7,0.3-2.1,1.4-2,2.9c-0.1-0.1-0.2-0.2-0.2-0.2
		c-2.1-6.4-2.1-6.4,4.3-8.2C451.2,82.7,453.5,81.6,456,81.7z"/>
	<path class="st21" d="M362.5,89.8c0.1,0.6,0.1,1.2,0.3,1.8c0.7,2-0.1,2.5-2,2.6c-3,0.2-6.1-0.9-9,0.7c-2-5.2-2-5.2,3.3-5.2
		C357.5,89.7,360,89.8,362.5,89.8z"/>
	<path class="st22" d="M463,106.7c-1.9-4.1-2.6-8.6-3.8-12.9c-0.1-0.4,0.3-0.9,0.5-1.4c1.4-0.7,2.5-0.9,2.8,1.2
		c0.6,3.2,2.3,6.2,1.9,9.6C464.4,104.4,464.1,105.8,463,106.7z"/>
	<path class="st17" d="M386.9,62.3c-1,0.6-3.4-1.1-3.1,1.9c-0.1,1.7-0.1,3.5-0.2,5.2c-0.7-1.5-0.3-3-0.4-4.5
		C383.1,61.3,383.3,61.2,386.9,62.3z"/>
	<path class="st23" d="M354.8,231.3c-2.4,0.8-4.9,0.1-7.4,0.3c-1.3-1.5-1.9-3.4,0-4.5c2.2-1.4,4.9-1.2,7.1-0.1
		C356.3,227.9,355.9,229.7,354.8,231.3z"/>
	<path class="st24" d="M390.6,159c0.1,5.5-4.2,9.9-9.7,10c-5.4,0.1-10-4.3-10.2-9.7c-0.2-5.5,4.4-10.2,9.9-10.2
		C386.1,149.1,390.6,153.5,390.6,159z"/>
	<path class="st24" d="M353.7,77.4c-5.7,0.1-10.1-4.3-10.1-10c0-5.5,4.3-9.9,9.8-10c5.5-0.1,10.1,4.4,10.2,10
		C363.6,72.8,359.1,77.4,353.7,77.4z"/>
	<path class="st25" d="M448.4,63.6c1.7-3,3.9-3.8,7.3-2.4c1.1,2.4,0.5,4-2.1,4.8C451.1,66.8,449,66.7,448.4,63.6z"/>
	<path class="st26" d="M334.5,193.4c21,0,41.9,0,62.9,0c0,2.1-0.2,4.2,0,6.2c0.3,2.6-0.9,3.1-3.2,3.1c-18.9-0.1-37.8-0.1-56.7,0
		c-2.5,0-3.4-0.7-3.1-3.1C334.6,197.6,334.5,195.5,334.5,193.4z"/>
	<path class="st27" d="M380.7,154.6c2.4-0.1,4.3,1.8,4.4,4.2c0.1,2.7-1.8,4.6-4.3,4.6c-2.4,0-4.4-1.8-4.5-4.2
		C376.1,156.9,378.2,154.7,380.7,154.6z"/>
	<path class="st28" d="M353.5,71.8c-2.6,0-4.4-1.9-4.3-4.6c0.1-2.5,1.9-4.2,4.4-4.2c2.5,0,4.5,2.2,4.4,4.6
		C357.9,69.9,355.8,71.8,353.5,71.8z"/>
</g>
</svg>
