<?xml version="1.0" encoding="utf-8"?>
<!-- Generator: Adobe Illustrator 24.0.1, SVG Export Plug-In . SVG Version: 6.00 Build 0)  -->
<svg version="1.1" id="Layer_1" xmlns="http://www.w3.org/2000/svg" xmlns:xlink="http://www.w3.org/1999/xlink" x="0px" y="0px"
	 viewBox="0 0 226.8 226.8" style="enable-background:new 0 0 226.8 226.8;" xml:space="preserve">
<style type="text/css">
	.st0{fill:#F6A800;}
	.st1{fill:#CE8B05;}
	.st2{fill:#010101;}
	.st3{fill:#FFFFFF;}
	.st4{fill:#5A7F92;}
	.st5{fill:#FEFEFE;}
	.st6{fill:#779EAF;}
	.st7{fill:#2F5A6B;}
	.st8{fill:#93979A;}
	.st9{fill:#F9C462;}
	.st10{fill:#F6A802;}
	.st11{fill:#C88705;}
	.st12{fill:#FAC361;}
	.st13{fill:#F8C361;}
	.st14{fill:#FCFCFC;}
	.st15{fill:#C1C2C4;}
	.st16{fill:#CC8A05;}
	.st17{fill:#F8C362;}
	.st18{fill:#727679;}
	.st19{fill:#BFC0C2;}
	.st20{fill:#CA8906;}
	.st21{fill:#74787B;}
	.st22{fill:#777A7D;}
	.st23{fill:#BCBDBF;}
	.st24{fill:#030404;}
	.st25{fill:#030304;}
	.st26{fill:#070504;}
	.st27{fill:#F5A802;}
	.st28{fill:#047CBB;}
	.st29{fill:#037DBC;}
	.st30{fill:#F4A71C;}
	.st31{fill:#404041;}
	.st32{fill:#C6882B;}
	.st33{fill:#929497;}
	.st34{fill:#6D6E70;}
	.st35{fill:#58595B;}
	.st36{fill:#FFFFFF;stroke:#404041;stroke-width:5;stroke-miterlimit:10;}
	.st37{fill:#FFFFFF;stroke:#58595B;stroke-width:2;stroke-miterlimit:10;}
</style>
<image style="overflow:visible;enable-background:new    ;" width="200" height="200" xlink:href="C:\Users\thhnp\Downloads\10243-200.png"  transform="matrix(3.9133 0 0 3.9133 -1296.9476 -281.2112)">
</image>
<g>
	<g>
		<path class="st0" d="M33.3-135.4v-42.2c0-0.7,0.6-1.3,1.3-1.3h81.7v-4.1c0-1.8,0-3.5,0-5.2c0.1-4.4,0.1-8.9,0.1-13.3
			c0-9.6,0-19.6,1.3-29.1c2.2-15,16-26.3,32.1-26.3c1.2,0,2.5,0.1,3.7,0.2c17.4,2.1,30.2,16.1,30.3,33.3c0,7,0.1,14.1,0.1,21.2v1
			c0,6.2,0,12.4,0.1,18.5v3.3l3.3,0.2l4.6,0.2v-8c0-0.4,0-0.9,0-1.4c0-2.4-0.1-5.3,1.1-6.6c0.3-0.3,0.8-0.7,2.1-0.8h0.1
			c1.5,0,2.1,0.6,2.3,0.8c1.2,1.2,1.1,3.7,1.1,6.1c0,0.8,0,1.4,0,2c0,0.9,0,1.9-0.1,2.9c-0.1,1.9-0.2,3.9,0.3,5.8
			c0.5,1.9,2.3,5,4.4,5.9l0.6,0.2h0.7c2.2,0,5-1.6,6.1-3.4c1.9-3.1,3-6.4,4.1-9.7l0.5-1.5c1.4-4.2,2.8-8.5,4.1-12.6
			c2.4-7.5,4.9-15.3,7.7-22.9c1.1-2.9,4.3-5.5,6.9-7.5l0.2-0.2l0,0c0,0,0.1,0,0.2,0c1,0,2.8,0.7,3.4,1.3c0.6,0.7,0.6,2.7,0,4
			l-0.1,0.1c-6.4,16.3-13.2,33.6-20.3,51.1c-0.9,2-1.7,4.1-2.6,6.1l-0.2,0.4c-2.8,6.4-5.6,13.1-8,19.8c-1.4,4-3,5.6-6,5.6
			c-0.2,0-0.4,0-0.6,0l-3.3-0.2c0,0-0.7,6.5-0.8,7.5H34.6C33.9-134.1,33.3-134.7,33.3-135.4z"/>
		<path class="st1" d="M149.8-253.4c1.1,0,2.2,0.1,3.2,0.2c15.6,1.9,27.1,14.5,27.3,29.9c0,7.1,0.1,14.2,0.1,21.2v1
			c0,6.2,0,12.4,0.1,18.6v5.3c0,0.7,0.5,1.3,1.2,1.3l5.3,0.3c0.3,0,0.6,0,1,0.1l7.4,0.4v-2l0,0c0.6,2.2,2.8,6.8,6.6,8.2l1.3,0.5h1.3
			c3.4,0,7.4-2.3,9.1-5.1c0.2-0.3,0.4-0.6,0.5-0.9c-0.9,2-1.7,4-2.6,6.1l-0.2,0.4c-2.8,6.5-5.7,13.2-8.1,20.1
			c-1.1,3.2-1.8,3.2-2.7,3.2c-0.1,0-0.2,0-0.4,0l-5.1-0.3c-0.9-0.1-1.7,0.6-1.8,1.5l-0.6,5.1l-0.1,0.7v0.3H38.1
			c-0.7,0-1.3-0.6-1.3-1.3v-35.2c0-0.7,0.6-1.3,1.3-1.3h74.7h5.8c0.7,0,1.2-0.6,1.2-1.2l-0.1-5.8v-0.5c0-1.8,0-3.4,0-5l0,0l0,0
			c0.1-4.4,0.1-8.9,0.1-13.3c0-9.5,0-19.3,1.3-28.6C123.1-243.3,135.4-253.4,149.8-253.4 M234.4-225.6L234.4-225.6
			c-5.1,12.9-10.4,26.5-15.9,40.4l0.1-0.3c1.4-4.2,2.8-8.5,4.1-12.7c2.4-7.5,4.8-15.2,7.6-22.7C230.9-222.5,232.6-224.1,234.4-225.6
			 M149.8-260.4c-17.8,0-33.1,12.6-35.6,29.4c-1.4,9.8-1.4,19.9-1.3,29.6c0,4.3,0,8.8-0.1,13.1c-0.1,1.9,0,3.8,0,5.9l0,0H31.1
			c-0.7,0-1.3,0.6-1.3,1.3v49.2c0,0.7,0.6,1.3,1.3,1.3h168l0.2-2.2c0.1-1.3,0.3-2.5,0.4-3.7c0-0.4,0.1-0.8,0.1-1.3
			c0.3,0,0.6,0,0.8,0c5.9,0,8.1-4.5,9.3-7.9c2.3-6.6,5.1-13.2,7.9-19.6c0.9-2.2,1.9-4.4,2.8-6.6c7-17.4,13.9-34.9,20.3-51.2
			c0.9-2,1.2-5.7-0.6-7.7c-1.3-1.5-4.2-2.6-6-2.6c-0.9,0-1.7,0.2-2.4,0.8l-0.3,0.2c-2.9,2.3-6.5,5.2-8,9.1c-2.8,7.6-5.3,15.4-7.7,23
			c-1.3,4.1-2.7,8.4-4.1,12.6l-0.5,1.5c-1.1,3.2-2.1,6.3-3.8,9c-0.4,0.7-2.2,1.7-3.2,1.7c-0.6-0.2-1.9-1.9-2.3-3.5
			c-0.4-1.3-0.3-2.9-0.2-4.6c0.1-1,0.1-2.1,0.1-3.2c0-0.6,0-1.2,0-1.8c0.1-3,0.1-6.4-2.1-8.6c-1.2-1.2-2.8-1.8-4.8-1.8h-0.2
			c-1.9,0-3.4,0.7-4.5,1.8c-2.2,2.3-2.2,6.1-2.1,9.1c0,0.5,0,0.9,0,1.4v4.3c-0.3,0-0.6,0-0.9-0.1c0-6.5-0.1-13-0.1-19.5
			c0-7.1,0-14.1-0.1-21.2c-0.2-19-14.3-34.4-33.4-36.8C152.5-260.3,151.1-260.4,149.8-260.4L149.8-260.4z"/>
	</g>
	<path class="st2" d="M149.8-257.9c1.3,0,2.5,0.1,3.8,0.2c17.7,2.2,31,16.6,31.2,34.3c0.1,14,0.1,28,0.2,42.1c0,0.2,0.2,0.3,0.7,0.9
		c1.1,0.1,2.8,0.2,5.3,0.3c0-2.5,0-4.7,0-7c0-3.9-0.8-9.7,4.1-9.8h0.1c5.4,0,4.3,5.9,4.4,9.9c0.1,2.8-0.6,5.8,0.2,8.5
		c0.6,2.1,2.4,4.8,4,5.3c0.2,0.1,0.5,0.1,0.7,0.1c1.8,0,4.4-1.4,5.3-2.9c2.1-3.4,3.2-7.1,4.5-11c3.9-11.8,7.4-23.8,11.8-35.5
		c1.2-3.3,4.6-5.9,7.4-8.2c0.2-0.1,0.5-0.2,0.8-0.2c1.3,0,3.4,0.8,4.1,1.7c0.9,1,0.8,3.6,0.2,5.1c-6.7,17-13.4,34.2-20.3,51.2
		c-3.7,8.7-7.6,17.4-10.7,26.3c-1.4,4-3.3,6.2-6.9,6.2c-0.9,0-1.9-0.1-3-0.4c-0.2,2-0.4,3.8-0.6,5.7c-0.1,1.1-1,1.9-2.1,1.9H33.7
		c-0.7,0-1.3-0.6-1.3-1.3v-44.2c0-0.7,0.6-1.3,1.3-1.3h80.5c0.6,0,1.2-0.5,1.1-1.2c0-2.6-0.1-4.9,0-7.1c0.4-14.1-0.6-28.5,1.4-42.5
		C119.1-246.8,134.1-257.9,149.8-257.9 M149.8-262.9c-8.9,0-17.6,3.1-24.6,8.7c-7.3,5.8-12.1,13.9-13.4,22.8
		c-1.4,10-1.4,20.2-1.4,30c0,4.3,0,8.7-0.1,13.1c0,0.7,0,1.5,0,2.2s-0.5,1.2-1.2,1.2H32.3h-3.7c-0.7,0-1.3,0.6-1.3,1.3v3.7v46.8v3.7
		c0,0.7,0.6,1.3,1.3,1.3h3.7h164.6h2.4c1.2,0,2.2-0.9,2.3-2.1l0.3-2.4c0.1-1,0.2-1.9,0.3-2.8c4.8-0.5,8.3-3.7,10.3-9.6
		c2.3-6.5,5.1-13.1,7.8-19.4c0.9-2.2,1.9-4.4,2.8-6.6l0,0l0,0c7-17.4,13.9-34.8,20.3-51.2c1.1-2.5,1.6-7.2-1-10.3
		c-1.9-2.2-5.5-3.4-7.9-3.4c-1.9,0-3.2,0.7-3.9,1.3l0,0l0,0l-0.3,0.2c-3.1,2.5-7.1,5.6-8.7,10.1c-2.8,7.7-5.3,15.5-7.7,23.1
		c-1.3,4.1-2.7,8.4-4.1,12.6c-0.2,0.5-0.3,1-0.5,1.5c-1,3.1-2,5.9-3.5,8.4c-0.1,0.1-0.3,0.2-0.4,0.3c-0.3-0.4-0.5-0.9-0.6-1.3l0,0
		l0,0c-0.3-0.9-0.2-2.3-0.1-3.8c0.1-1.1,0.1-2.2,0.1-3.4c0-0.5,0-1.1,0-1.7c0.1-3.1,0.2-7.4-2.8-10.4c-1.2-1.2-3.2-2.6-6.6-2.6h-0.2
		c-1.3,0-2.4,0.3-3.3,0.6c-0.8-0.5-1-0.7-1.8-1.2c0-6.9,0-14.1-0.1-21.1c-0.1-9.8-3.8-19.1-10.4-26.3c-6.5-7.1-15.5-11.7-25.3-12.9
		C152.7-262.8,151.2-262.9,149.8-262.9L149.8-262.9z"/>
</g>
<path class="st3" d="M150.3-215.6c-11.1,0-20.1,9-20.1,20.1c0,11.1,9,20.1,20.1,20.1s20.1-9,20.1-20.1
	C170.4-206.6,161.4-215.6,150.3-215.6z M150.3-178.9c-9.2,0-16.6-7.4-16.6-16.6s7.4-16.6,16.6-16.6s16.6,7.4,16.6,16.6
	S159.5-178.9,150.3-178.9z"/>
<g>
	<circle class="st3" cx="150.3" cy="-228" r="7.8"/>
</g>
<g>
	<path class="st3" d="M174.6-175.8l-16.9-16.9c0.7-2.4,0.1-5.1-1.7-6.9c-2.7-2.7-7.1-2.7-9.8,0s-2.7,7.1,0,9.8
		c1.9,1.9,4.5,2.5,6.9,1.7l16.9,16.9c0.7,0.7,1.5,0.9,2.3,0.9s1.7-0.3,2.3-0.9C175.9-172.5,175.9-174.6,174.6-175.8z M170.6-172.9
		c-0.7-0.7-0.7-1.8,0-2.5s1.8-0.7,2.5,0s0.7,1.8,0,2.5S171.3-172.1,170.6-172.9z"/>
</g>
<g>
	<path class="st3" d="M168.7-154.2h-19c-0.5,0-0.9-0.5-0.9-0.9v-3.3c0-0.7-0.7-1-1.2-0.8l-16,7c-0.7,0.3-0.7,1.2-0.1,1.6l16,8.8
		c0.6,0.3,1.4-0.1,1.4-0.8v-2.8c0-0.5,0.5-0.9,0.9-0.9h19c0.5,0,0.9-0.5,0.9-0.9v-6.1C169.6-153.8,169.2-154.2,168.7-154.2z"/>
</g>
<g>
	<rect x="44.1" y="-169.7" class="st3" width="104.8" height="4"/>
</g>
<g>
	<path class="st3" d="M59.3-146.2c-0.7,0.7-1.4,1.2-2.5,1.7l-0.5,0.2l1,2.2l0.5-0.2c1.3-0.6,2.4-1.4,3.2-2.2l0.3-0.4l-1.7-1.7
		L59.3-146.2z"/>
	<path class="st3" d="M48.3-157.2c0.8-0.8,1.7-1.3,2.6-1.6l0.5-0.2l-1.1-2.3l-0.5,0.2c-1.3,0.6-2.5,1.4-3.3,2.2l-0.4,0.4l1.7,1.7
		L48.3-157.2z"/>
	<path class="st3" d="M46-151.8c0-1.1,0.2-2.2,0.6-3l0.2-0.5l-2.2-0.9l-0.2,0.4c-0.5,1.1-0.8,2.4-0.8,3.9v0.5H46V-151.8z"/>
	<path class="st3" d="M61.7-151.9c0,1.1-0.2,2.2-0.6,3l-0.2,0.5l2.2,1l0.2-0.5c0.5-1.1,0.8-2.4,0.8-4v-0.5h-2.4
		C61.7-152.4,61.7-151.9,61.7-151.9z"/>
	<path class="st3" d="M46.7-148.9l-0.2-0.5l-2.2,1l0.2,0.5c0.6,1.3,1.4,2.5,2.2,3.3l0.4,0.4l1.6-1.9l-0.3-0.3
		C47.7-147.1,47.2-147.8,46.7-148.9z"/>
	<path class="st3" d="M51.1-144.5l-0.5-0.2l-1,2.2l0.5,0.2c1.1,0.5,2.3,0.8,3.9,0.8h0.5l0.2-2.4h-0.5
		C53-143.9,51.9-144.1,51.1-144.5z"/>
	<path class="st3" d="M61.2-154.8l0.2,0.4l2.3-0.8l-0.2-0.5c-0.6-1.3-1.4-2.5-2.2-3.3l-0.4-0.4l-1.7,1.7l0.4,0.4
		C60.2-156.6,60.7-155.9,61.2-154.8z"/>
	<path class="st3" d="M56.8-159l0.5,0.2l0.9-2.3l-0.4-0.2c-1.2-0.5-2.4-0.7-3.9-0.7h-0.5v2.4h0.5C55-159.5,56-159.3,56.8-159z"/>
	<path class="st3" d="M83.9-154.8l0.2,0.4l2.3-0.8l-0.2-0.5c-0.6-1.3-1.4-2.5-2.2-3.3l-0.4-0.4l-1.7,1.7l0.4,0.4
		C82.9-156.6,83.4-155.9,83.9-154.8z"/>
	<path class="st3" d="M71.2-157.2c0.8-0.8,1.7-1.3,2.6-1.6l0.5-0.2l-1.1-2.3l-0.5,0.2c-1.3,0.6-2.5,1.4-3.3,2.2l-0.4,0.4l1.7,1.7
		L71.2-157.2z"/>
	<path class="st3" d="M79.7-159l0.5,0.2l0.9-2.3l-0.4-0.2c-1.2-0.5-2.4-0.7-3.9-0.7h-0.5v2.4h0.5C77.9-159.5,78.9-159.3,79.7-159z"
		/>
	<path class="st3" d="M84.5-152.4v0.5c0,1.1-0.2,2.2-0.6,3l-0.2,0.5l2.2,1l0.2-0.5c0.5-1.1,0.8-2.4,0.8-4v-0.5H84.5z"/>
	<path class="st3" d="M68.9-151.8c0-1.1,0.2-2.2,0.6-3l0.2-0.5l-2.2-0.9l-0.2,0.4c-0.5,1.1-0.8,2.4-0.8,3.9v0.5h2.4V-151.8z"/>
	<path class="st3" d="M82.2-146.2c-0.7,0.7-1.4,1.2-2.5,1.7l-0.5,0.2l1,2.2l0.5-0.2c1.2-0.5,2.2-1.3,3.1-2.2l0.5-0.4l-1.7-1.7
		L82.2-146.2z"/>
	<path class="st3" d="M69.6-148.9l-0.2-0.5l-2.2,1l0.1,0.5c0.6,1.3,1.4,2.5,2.2,3.3l0.4,0.4l1.6-1.9l-0.3-0.3
		C70.6-147.1,70-147.8,69.6-148.9z"/>
	<path class="st3" d="M73.9-144.5l-0.5-0.2l-1,2.2l0.5,0.2c1.1,0.5,2.3,0.8,3.9,0.8h0.5l0.2-2.4H77
		C75.8-143.9,74.7-144.1,73.9-144.5z"/>
</g>
<g>
	<path class="st2" d="M413.4,216.3c4.9,0,8.9,0,13,0c2.6,0,3.8,1.2,3.7,3.8c-0.1,5,0.1,10-0.1,15c-0.1,2,0.6,2.5,2.5,2.4
		c2.6-0.2,5.2,0,7.8,0c2.4,0,3.7,1,3.7,3.5c0,10.1,0,20.2,0,30.3c0,2.6-1.3,3.5-3.7,3.5c-6.7,0-13.3,0-20,0c-24.6,0-49.3,0-73.9,0
		c-4.8,0-5.2-0.4-5.2-5.1c0-9.3,0-18.5,0-27.8c0-3.7,0.7-4.4,4.3-4.4c2.3,0,4.6-0.2,6.9,0s2.8-0.7,2.7-2.8c-0.1-4.5-0.1-8.9,0-13.4
		c0-4.5,0.5-4.9,5.1-4.9c1.1,0,2.3,0,3.6,0c-1.4-5.7-2.2-11.6,0.8-16.4c10.8-17.1,8.8-35.6,6.8-54.2c-0.8-7.3-2.1-14.6-3.1-21.9
		c-0.2-1.8-1-2.5-2.8-2.9c-8.4-1.7-14-8.1-14.7-16.7c-0.2-3.1-0.3-6.2,0-9.3c0.7-10.1,8.2-17.2,18.5-17.4c7.5-0.2,15-0.1,22.5,0
		c6.6,0.1,11.9,2.9,15.4,8.5c0.9,1.4,1.9,1.9,3.5,2c12.1,1.4,24.1,2.9,36.2,4.5c1.2,0.2,2.1,0.2,2.8-1.2c0.5-1.2,1.8-1.3,2.9-1.6
		c11.1-3.1,22.2-6.2,33.3-9.3c3.7-1,4.5-0.6,5.6,3.1c1.2,4.1,2.3,8.2,3.4,12.3c1.4,4.9,0.6,9.3-3,12.9c-1,1-0.9,1.8-0.6,3
		c1.6,5.7,3.1,11.4,4.8,17.1c1.9,6.6,0.3,12.1-5.3,16.2c-1.2,0.8-1.3,1.6-1,2.9c1,3.2,1.8,6.4,2.7,9.6c0.5,2,1.1,4.1-1.5,4.9
		c-2.6,0.8-3.4-1.3-3.9-3.3c-0.9-3.2-1.8-6.4-2.6-9.6c-0.4-1.4-1-1.9-2.5-2.1c-6.6-0.7-10.8-4.3-12.6-10.7c-1.7-5.9-3.3-11.8-5-17.7
		c-1.4,0-1.9,1.2-2.7,1.9c-7.6,6.8-16,11.9-26.4,13.1c-11.3,1.3-21-2.5-30-9.1c-1.4-1-2.7-2.3-4.1-3.3c-0.8-0.6-1.4-2.1-2.5-1.5
		s-0.1,1.9,0.1,2.8c3.3,11.5,6.6,22.9,10,34.4c0.1,0.4,0.2,0.8,0.3,1.2c1,5.3,3.2,8.8,8.8,11.5c14.3,6.9,16.7,26,5.4,37.2
		C420.3,210.3,417.1,213,413.4,216.3z"/>
	<path class="st4" d="M438.3,250c0,4.6,0,9.1,0,13.7c-1.2,1.1-2.7,1-4.1,1c-16.2,0-32.4,0-48.5,0c-1.2,0-2.5,0-3.6-0.6
		c-0.7-0.4-0.8-1.1-0.8-1.9c-0.3-3-3.6-4.6-6.2-3c-0.8,0.5-1,1.2-0.9,2.1c0.1,0.8,0.5,1.6,0,2.4c-1.7,0.8-3.4,1.6-4.5-0.8
		c1.7-3.3,0.8-4.9-2.8-4.9c-5.8,0-11.6-0.1-17.4,0c-1.9,0-2.9-0.4-2.7-2.5c0.5-4.1-0.9-8.3,0.6-12.4c0.5,0.6,0.7,1.2,0.9,2
		c0.8,3.9,0.8,3.9,4.7,3.9c26.7,0,53.4,0,80,0C434.7,249,436.7,248.6,438.3,250z"/>
	<path class="st0" d="M423,183.3c0.7,0.9,1.1,1.9,1,3.1c0.2,6.6-3.5,11.1-8.1,15c-4.9,4.2-9.1,9-14.1,13c-0.9,0.7-1.8,1.4-2.8,1.9
		c-9.3,0-18.6,0.1-27.9,0.1c-0.5,0-1,0-1.3-0.6c-1.3-7.4,1.3-13.1,6.8-17.9c6.2-5.5,12.5-10.9,18.6-16.5
		C403.5,173.8,415.9,174.4,423,183.3z"/>
	<path class="st0" d="M358.3,109.7c-0.3-0.4-0.5-0.9-0.8-1.3c-0.2-2.8-0.4-5.6-0.7-8.3c-0.7-7,5.2-13.9,13-14.3
		c8.3-0.4,16.6-0.4,24.9,0c3.8,0.2,6.9,2.1,8.6,5.7c0.4,2.6,0.4,5.1,0.4,7.7c-0.1,8.6-5.2,14.4-13.7,14.9c-7.4,0.5-14.9,0.3-22.4,0
		C363.9,114.1,360.8,112.5,358.3,109.7z"/>
	<path class="st5" d="M431.3,110.8c7.2,0.4,14.3,0.8,21.5,1c2.8,0.1,3.7,2.4,5.5,3.7c0.8,0.5-0.4,1.2-0.8,1.6
		c-14.4,13.1-30.7,15.9-47.3,4.5c-6.5-4.5-6.5-4.6-1.8-10.9c0.8-1.1,1.8-0.9,2.8-0.8C417.8,110.2,424.6,110.5,431.3,110.8
		C431.3,110.9,431.3,110.8,431.3,110.8z"/>
	<path class="st6" d="M438.3,250c-28.7,0-57.4,0-86.1,0c-5.7,0-4.9,0.7-5-5c0-0.6,0-1.2,0-1.9c2.1-0.1,4.1-0.2,6.2-0.2
		c26.9,0,53.7,0,80.6,0c4.9,0,4.4-0.7,4.4,4.5C438.4,248.3,438.3,249.2,438.3,250z"/>
	<path class="st7" d="M369.5,263c1.4,1.2,2.9,0.9,4.5,0.3c2.4-1.6,4.9-0.9,7.4-0.3c1,1.2,2.3,0.7,3.5,0.7c17.8,0,35.6,0,53.4,0
		c0.4,5.6,0.4,5.6-5.2,5.6c-27.6,0-55.2,0-82.9,0c-3.4,0-4.7-1.9-3.5-5c0.5-1.4,1.7-1,2.6-1C356.1,263.1,362.8,263.1,369.5,263z"/>
	<path class="st8" d="M389,121.5c3.8-0.9,3.9,1.9,4.3,4.4c-1.1,0.9-2.2,1.6-1.6,3.5c3.1,10.9,6.1,21.8,9.2,32.7
		c0.6,2.1,1.4,3.9,3.3,5c-3.8,0.8-7.5,1.7-10.6,4c-1.7,1.3-1.8-0.1-2.1-1.2c-2.5-8.1-5-16.2-7.4-24.3c-1.9-6.3-3.8-12.7-5.6-19
		c-0.1-1.4,1-1.3,1.8-1.5c1.2-0.2,2.5-0.3,3.7-0.1C386.7,125.4,388.6,124.6,389,121.5z"/>
	<path class="st9" d="M423,183.3c-1.7-0.6-2.9-2-4.3-3c-6.4-4.8-15.6-4.5-21.6,0.7c-6.9,6-13.7,12-20.5,18
		c-4.5,3.9-6.9,8.7-6.4,14.8c0.1,0.7,0.1,1.5-0.4,2.1c-3-6.5-1.9-14.5,3.4-19.6c7.4-7,14.9-13.9,22.9-20.2
		C405.2,168.9,418.3,172.7,423,183.3z"/>
	<path class="st8" d="M489.6,138.4c-2,3.1-4.9,4.1-8.3,3.5c-3.3-0.6-5.6-2.7-6.5-6c-1.2-4.2-2.3-8.4-3.4-12.6c-0.8-2,0-3.1,1.9-3.7
		c1.5-0.4,3-0.9,4.5-1.3c5.2-1.3,4.1-0.1,4.8-5.1c1.3-0.6,2.9-1.7,3.1,0.8c0.1,1.6,3.3,4.2-1.1,4.9c-1.8,0.3-3.6,0.8-5.4,1.4
		c-1.5,0.5-2.5,1.6-2,3.3c0.5,1.6,1.7,2.3,3.4,1.9c1.9-0.5,3.8-1,5.7-1.5C487.2,128.9,489.3,133.5,489.6,138.4z"/>
	<path class="st10" d="M458.9,107.1c-1.6-2.5-1-3.7,2-4.3c3.1-0.6,6.1-1.7,9.2-2.5c2.4-0.6,3.5-1.9,2.7-4.5c0.4-1.2,1.3-1.2,2.3-0.9
		c1.4,2,3.2,2.8,5.6,1.5c1.8-1,0.5-3,1.5-4.1c1.7-0.8,3.4-2,5.4-1c0.8,1.3,1,2.9,1.3,4.3c0.8,6-0.1,7.7-5.9,9.5
		c-4.8,1.5-9.7,2.9-14.6,4.1C465,110.3,461.4,110.8,458.9,107.1z"/>
	<path class="st11" d="M424.5,225c0,3.5,0,7.1,0.1,10.6c0,1.5-0.6,1.9-2,1.9c-20,0-39.9,0-59.9,0c-1.1,0-2.1,0-2.1-1.5
		c0.1-4.6-0.6-9.3,0.3-13.9c1,0.9,1,2.1,1,3.2c0.2,1.6,0.2,3.1,0.1,4.7c-0.1,2.6,1.1,3.6,3.5,3.4c0.5,0,1,0,1.6,0
		c16.9,0,33.9,0,50.8,0c4.9,0,4.9,0,5.1-4.9c0-1,0-2.1,0.5-3C423.7,225,424.1,224.9,424.5,225z"/>
	<path class="st12" d="M424.5,225c-0.2,0-0.4,0-0.5,0.1c-1.2,1-2.7,0.9-4.1,0.9c-18.2,0-36.4,0-54.6,0c-1.4,0-2.9,0.2-4.1-1
		c-0.1-1-0.2-2-0.2-3c0.9-0.1,1.8-0.3,2.7-0.3c19.3,0,38.6,0,57.9-0.1C424.2,221.7,425.1,222.4,424.5,225z"/>
	<path class="st13" d="M402.8,91.5c-2.1-3.1-5.1-4.8-8.8-4.9c-7.7-0.1-15.4,0-23.1-0.1c-7.6,0-13.9,6.4-13.1,13.5
		c0.3,2.7,0.4,5.6-0.3,8.4c-2.2-5.7-2.2-11.6-0.3-17.3c1.7-5.2,6-7.9,11.5-8.1c7.8-0.2,15.5-0.2,23.3,0c5.4,0.2,9.4,2.8,11.5,8
		C403.5,91.5,403.3,91.8,402.8,91.5z"/>
	<path class="st14" d="M376.7,185.5c2.9-15,1.5-29.2-0.1-43.6c0.9,1.1,1.1,2.1,1.4,3.1c2.9,9.4,5.7,18.8,8.7,28.2
		c0.7,2.3,0.3,3.6-1.5,5C382.4,180.3,379.9,182.7,376.7,185.5z"/>
	<path class="st15" d="M404.1,167.1c-2,0-3-0.7-3.5-2.8c-3.2-11.9-6.7-23.8-10.1-35.7c-0.8-2.8,0.9-2.9,2.8-2.7
		c0.4,0.9,1,1.8,1.3,2.7c3.5,11.8,6.9,23.6,10.2,35.4C405.1,165.1,406.4,166.6,404.1,167.1z"/>
	<path class="st8" d="M450.9,100.1c0.6,0.5,0.4,1.3,0.6,1.9c0.8,2.1-0.5,2.5-2.2,2.5c-6.2-0.1-12.4-0.6-18.6-1
		c-5.6-0.4-11.1-0.7-16.7-1.1c-1.3-0.1-2.7,0-3.8-1c-0.1-0.2-0.1-0.3,0-0.5c-0.4-1.7-0.3-3.4-0.1-5.1c0.7-0.8,1.7-0.7,2.6-0.6
		C425.4,96.9,438.2,98.3,450.9,100.1z"/>
	<path class="st1" d="M402.8,91.5c0.2-0.2,0.5-0.3,0.7-0.5c1.9,5.7,1.9,11.5-0.1,17c-1.8,5-6,7.7-11.3,7.8c-7.8,0.2-15.5,0.2-23.3,0
		c-4.5-0.1-8.2-2-10.5-6.1c4.2,2.8,8.7,3.9,13.8,3.7c5.5-0.2,11,0,16.5-0.1c7.7,0,14.8-5.2,14.2-14.1
		C402.6,96.7,402.8,94.1,402.8,91.5z"/>
	<path class="st16" d="M399,216.3c5.1-4.8,10-9.8,15.3-14.4c4.9-4.2,8.4-9.1,9.7-15.5c2,6.9-0.1,12.7-5.1,17.5
		c-4.1,4-8.5,7.6-12.8,11.4C404,217.2,401.4,216.2,399,216.3z"/>
	<path class="st17" d="M475,95.2c-0.8,0-1.5,0.2-2.2,0.6c-1.3-1.2-2.7-1.3-4.3-0.8c-3.5,1.1-7,1.9-10.5,3c-1.6,0.5-1.9-0.2-2.3-1.5
		c-0.4-1.4-0.3-2.1,1.3-2.5c9.2-2.5,18.4-5,27.5-7.7c1.5-0.4,2.1,0,2.4,1.3c0.2,1.2,0.5,2.4,0.8,3.6c-1.8,0.5-3.6,0.9-5.4,1.4
		C479.6,93,477.1,93.4,475,95.2z"/>
	<path class="st18" d="M410.2,101.5c10,0.1,20,0.9,29.9,1.8c3.3,0.3,6.6-0.4,9.9,0.5c1.5,0.4,1.3-0.9,1.5-1.8c0.2,0.7,0.4,1.4,0.7,2
		c0.8,1.9,0,2.3-1.8,2.2c-12.3-0.6-24.6-1.2-37-1.8C411.5,104.5,409.4,104.5,410.2,101.5z"/>
	<path class="st19" d="M450.9,100.1c-2.6,1.7-5.2,0.1-7.7-0.1c-8.2-0.7-16.4-1.9-24.6-2.9c-2.8-0.3-5.5-0.9-8.2-1.3
		c-0.4-2.3-0.3-2.3,3.1-1.9c11.7,1.4,23.5,2.9,35.2,4.3C449.9,98.4,451,98.5,450.9,100.1z"/>
	<path class="st20" d="M458.9,107.1c3.5,2.6,7.3,2.2,11.2,1c3.9-1.3,8-2.2,11.9-3.4c4.7-1.4,7.3-2.2,6.8-8.9
		c2.2,6.1,0.5,9.6-5.5,11.3c-5.4,1.5-10.8,3.1-16.2,4.5C463.2,112.6,460.3,110.9,458.9,107.1z"/>
	<path class="st21" d="M482.6,113.4c1.6,4.4,1.3,4.8-3,5.6c-2.1,0.4-4.2,1.1-6.3,1.5c-1.7,0.3-2.1,1.4-2,2.9
		c-0.1-0.1-0.2-0.2-0.2-0.2c-2.1-6.4-2.1-6.4,4.3-8.2C477.8,114.4,480.1,113.3,482.6,113.4z"/>
	<path class="st22" d="M389,121.5c0.1,0.6,0.1,1.2,0.3,1.8c0.7,2-0.1,2.5-2,2.6c-3,0.2-6.1-0.9-9,0.7c-2-5.2-2-5.2,3.3-5.2
		C384.1,121.4,386.6,121.5,389,121.5z"/>
	<path class="st23" d="M489.6,138.4c-1.9-4.1-2.6-8.6-3.8-12.9c-0.1-0.4,0.3-0.9,0.5-1.4c1.4-0.7,2.5-0.9,2.8,1.2
		c0.6,3.2,2.3,6.2,1.9,9.6C491,136.1,490.7,137.5,489.6,138.4z"/>
	<path class="st18" d="M413.4,93.9c-1,0.6-3.4-1.1-3.1,1.9c-0.1,1.7-0.1,3.5-0.2,5.2c-0.7-1.5-0.3-3-0.4-4.5
		C409.7,93,409.8,92.9,413.4,93.9z"/>
	<path class="st24" d="M381.4,263c-2.4,0.8-4.9,0.1-7.4,0.3c-1.3-1.5-1.9-3.4,0-4.5c2.2-1.4,4.9-1.2,7.1-0.1
		C382.9,259.6,382.5,261.4,381.4,263z"/>
	<path class="st25" d="M417.2,190.7c0.1,5.5-4.2,9.9-9.7,10c-5.4,0.1-10-4.3-10.2-9.7c-0.2-5.5,4.4-10.2,9.9-10.2
		C412.7,180.8,417.1,185.2,417.2,190.7z"/>
	<path class="st25" d="M380.3,109.1c-5.7,0.1-10.1-4.3-10.1-10c0-5.5,4.3-9.9,9.8-10s10.1,4.4,10.2,10
		C390.2,104.5,385.7,109.1,380.3,109.1z"/>
	<path class="st26" d="M475,95.2c1.7-3,3.9-3.8,7.3-2.4c1.1,2.4,0.5,4-2.1,4.8C477.7,98.4,475.6,98.4,475,95.2z"/>
	<path class="st27" d="M361.1,225.1c21,0,41.9,0,62.9,0c0,2.1-0.2,4.2,0,6.2c0.3,2.6-0.9,3.1-3.2,3.1c-18.9-0.1-37.8-0.1-56.7,0
		c-2.5,0-3.4-0.7-3.1-3.1C361.2,229.3,361.1,227.2,361.1,225.1z"/>
	<path class="st28" d="M407.3,186.3c2.4-0.1,4.3,1.8,4.4,4.2c0.1,2.7-1.8,4.6-4.3,4.6c-2.4,0-4.4-1.8-4.5-4.2
		C402.7,188.6,404.8,186.4,407.3,186.3z"/>
	<path class="st29" d="M380.1,103.5c-2.6,0-4.4-1.9-4.3-4.6c0.1-2.5,1.9-4.2,4.4-4.2s4.5,2.2,4.4,4.6
		C384.5,101.6,382.4,103.5,380.1,103.5z"/>
</g>
<g>
	<g>
		<path class="st30" d="M84.1,178V86.4c0-20.7,16.9-37.6,37.6-37.6c20.7,0,37.6,16.9,37.6,37.6V178H84.1z"/>
		<path class="st31" d="M121.7,50.8c19.7,0,35.6,15.9,35.6,35.6v89.5H86.1V86.4C86.1,66.8,102,50.8,121.7,50.8L121.7,50.8
			 M121.7,46.8c-21.8,0-39.6,17.8-39.6,39.6v89.5v4h4h71.2h4v-4V86.4C161.3,64.6,143.5,46.8,121.7,46.8L121.7,46.8z"/>
		<path class="st32" d="M121.7,54.8c17.4,0,31.6,14.2,31.6,31.6v85.5H90.1V86.4C90.1,69,104.3,54.8,121.7,54.8 M121.7,50.8
			L121.7,50.8c-19.7,0-35.6,15.9-35.6,35.6v89.5h71.2V86.4C157.3,66.8,141.4,50.8,121.7,50.8L121.7,50.8z"/>
	</g>
	<g>
		<rect x="5.9" y="126.1" class="st30" width="78" height="51.8"/>
		<path class="st31" d="M81.9,128.1v47.8h-74v-47.8H81.9 M85.9,124.1h-4h-74h-4v4v47.8v4h4h74h4v-4v-47.8V124.1L85.9,124.1z"/>
		<path class="st32" d="M77.9,132.1v39.8h-66v-39.8H77.9 M81.9,128.1h-74v47.8h74V128.1L81.9,128.1z"/>
	</g>
	<g>
		<rect x="160.1" y="135.1" class="st33" width="24" height="42.8"/>
		<path class="st31" d="M182.1,137.1v38.8h-20v-38.8H182.1 M186.1,133.1h-4h-20h-4v4v38.8v4h4h20h4v-4v-38.8V133.1L186.1,133.1z"/>
		<path class="st34" d="M178.1,141.1v30.8h-12v-30.8H178.1 M182.1,137.1h-20v38.8h20V137.1L182.1,137.1z"/>
	</g>
	<g>
		<path class="st33" d="M186.2,167.3c-0.8,0-1.5-0.7-1.5-1.5v-28.7c0-0.2,0.1-0.5,0.2-0.7L208,90.9c0.7-1.5,2.2-2.4,3.9-2.4h5.2
			c1.5,0,2.9,0.8,3.7,2c0.8,1.3,0.9,2.9,0.2,4.2l-22.4,44.1l-0.6,24.1c-0.1,2.3-2,4.2-4.3,4.2H186.2z"/>
		<path class="st31" d="M217,90c2.1,0,3.5,2.2,2.5,4.1L197,138.6l-0.6,24.5c0,1.5-1.3,2.8-2.8,2.8h-7.4v-28.7l23.1-45.5
			c0.5-1,1.5-1.6,2.5-1.6H217 M217,87h-5.2c-2.2,0-4.2,1.2-5.2,3.2l-23.1,45.5c-0.2,0.4-0.3,0.9-0.3,1.4v28.7c0,1.7,1.3,3,3,3h7.4
			c3.1,0,5.8-2.6,5.8-5.7l0.6-23.8l22.2-43.8c0.9-1.9,0.8-4-0.3-5.7S219.1,87,217,87L217,87z"/>
		<path class="st34" d="M212.9,93.4L212.9,93.4L212.9,93.4 M215.1,94l-21.7,42.7c-0.3,0.5-0.4,1.1-0.4,1.7l-0.6,23.3h-2.3v-23.7
			l22.3-44H215.1 M217,90h-5.2c-1.1,0-2,0.6-2.5,1.6l-23.1,45.5v28.7h7.4c1.5,0,2.8-1.2,2.8-2.8l0.6-24.5l22.6-44.4
			C220.5,92.3,219.1,90,217,90L217,90z"/>
	</g>
	<path class="st31" d="M120.6,103.1c-10,0-18.2,8.2-18.2,18.2c0,10,8.2,18.2,18.2,18.2s18.2-8.2,18.2-18.2
		C138.8,111.2,130.6,103.1,120.6,103.1z M133.8,121.2c0,7.3-5.9,13.2-13.2,13.2c-7.3,0-13.2-5.9-13.2-13.2c0-7.3,5.9-13.2,13.2-13.2
		C127.9,108.1,133.8,114,133.8,121.2z"/>
	<g>
		<g>
			<path class="st3" d="M139.4,144.3c-1.2,0-2.2-0.4-3-1.2l-13.8-13.8c-0.4,0.1-0.9,0.1-1.3,0.1c-1.9,0-3.7-0.8-5.2-2.2
				c-2.9-2.9-2.9-7.6,0-10.5c1.4-1.4,3.3-2.2,5.2-2.2c2,0,3.8,0.8,5.2,2.2c1.7,1.7,2.4,4.1,2,6.5l13.9,13.9c0.8,0.7,1.2,1.8,1.3,2.9
				c0,1.2-0.4,2.3-1.3,3.1C141.7,143.8,140.5,144.3,139.4,144.3z"/>
			<path class="st35" d="M121.3,116c1.5,0,3,0.6,4.2,1.7c1.5,1.5,2.1,3.8,1.5,5.9l14.4,14.4c1.1,1,1.1,2.8,0,3.9
				c-0.5,0.5-1.3,0.8-2,0.8s-1.4-0.2-2-0.8L123,127.6c-0.6,0.2-1.2,0.3-1.8,0.3c-1.5,0-2.9-0.6-4.1-1.7c-2.3-2.3-2.3-6.1,0-8.4
				C118.2,116.6,119.8,116,121.3,116 M139,141c0.4,0,0.8-0.2,1.1-0.5c0.6-0.6,0.6-1.5,0-2.1c-0.3-0.3-0.7-0.4-1.1-0.4
				c-0.4,0-0.8,0.1-1.1,0.4c-0.6,0.6-0.6,1.5,0,2.1C138.2,140.9,138.6,141,139,141 M121.3,113c-2.4,0-4.6,0.9-6.3,2.6
				c-3.5,3.5-3.5,9.1,0,12.6c1.7,1.7,3.9,2.6,6.2,2.6c0.3,0,0.5,0,0.8,0l13.3,13.3c1.1,1.1,2.5,1.6,4.1,1.6c1.6,0,3-0.6,4.1-1.6
				c1.1-1.1,1.7-2.7,1.7-4.2c0-1.5-0.6-2.9-1.7-4l-13.3-13.3c0.2-2.6-0.7-5.2-2.6-7C125.9,113.9,123.7,113,121.3,113L121.3,113z"/>
		</g>
	</g>
	<g>
		<circle class="st36" cx="120.6" cy="81.9" r="8.1"/>
	</g>
	<g>
		<path class="st31" d="M33.6,163.4c-0.7,0.7-1.3,1.1-2.3,1.6l-1,0.4l1.4,3.1l1-0.4c1.6-0.7,2.7-1.7,3.4-2.4l0.6-0.7l-2.4-2.4
			L33.6,163.4z"/>
		<path class="st31" d="M23.3,153.1L23.3,153.1c0.7-0.7,1.5-1.2,2.5-1.5l1-0.4l-1.5-3.2l-1,0.4c-1.4,0.6-2.6,1.5-3.4,2.3l-0.8,0.8
			l2.4,2.4L23.3,153.1z"/>
		<path class="st31" d="M21.2,158.1c0-1.1,0.2-2.1,0.6-2.8l0.4-1l-3.1-1.3l-0.4,0.8c-0.6,1.2-0.8,2.6-0.8,4.1v1h3.4V158.1z"/>
		<path class="st31" d="M35.9,158c0,1.1-0.2,2.1-0.6,2.8l-0.4,0.9l3.1,1.4l0.4-1c0.6-1.3,0.8-2.6,0.8-4.2v-1h-3.4V158z"/>
		<path class="st31" d="M23.5,163.2c-0.7-0.7-1.1-1.4-1.6-2.3l-0.4-1l-3.1,1.4l0.4,1c0.6,1.3,1.5,2.6,2.3,3.4l0.8,0.8l2.2-2.7
			L23.5,163.2z"/>
		<path class="st31" d="M26,165l-1-0.4l-1.4,3.1l1,0.4c1.3,0.6,2.6,0.8,4.1,0.8h1l0.3-3.4h-1C27.8,165.5,26.8,165.3,26,165z"/>
		<path class="st31" d="M33.9,152.9c0.6,0.7,1,1.3,1.5,2.4l0.4,0.8l3.2-1.1l-0.4-1c-0.6-1.4-1.5-2.6-2.3-3.4l-0.8-0.8l-2.4,2.4
			L33.9,152.9z"/>
		<path class="st31" d="M31.3,151.4l1,0.4l1.2-3.2l-0.8-0.4c-1.2-0.5-2.5-0.7-4.1-0.7h-1v3.4l1,0C29.7,150.9,30.6,151.1,31.3,151.4z
			"/>
		<path class="st31" d="M59.6,152.9c0.6,0.7,1,1.3,1.5,2.4l0.4,0.8l3.2-1.1l-0.4-1c-0.6-1.3-1.5-2.6-2.3-3.4l-0.8-0.8l-2.4,2.4
			L59.6,152.9z"/>
		<path class="st31" d="M49.2,153.1L49.2,153.1c0.7-0.7,1.5-1.2,2.5-1.5l1-0.4l-1.5-3.2l-1,0.4c-1.4,0.6-2.6,1.5-3.4,2.3l-0.8,0.8
			l2.4,2.4L49.2,153.1z"/>
		<path class="st31" d="M57.2,151.4l1,0.4l1.3-3.2l-0.8-0.4c-1.2-0.5-2.5-0.7-4.1-0.7h-1v3.4l1,0C55.5,150.9,56.5,151.1,57.2,151.4z
			"/>
		<path class="st31" d="M61.7,157v1c0,1.1-0.2,2.1-0.6,2.8l-0.4,0.9l3.1,1.4l0.4-1c0.6-1.3,0.8-2.6,0.8-4.2v-1H61.7z"/>
		<path class="st31" d="M47.1,158.1c0-1.1,0.2-2.1,0.6-2.8l0.4-1l-3.1-1.3l-0.4,0.8c-0.6,1.2-0.8,2.6-0.8,4.1v1h3.4V158.1z"/>
		<path class="st31" d="M59.5,163.4c-0.7,0.7-1.4,1.1-2.3,1.6l-1,0.4l1.4,3.1l1-0.4c1.1-0.5,2.2-1.2,3.2-2.3l0.9-0.8l-2.4-2.4
			L59.5,163.4z"/>
		<path class="st31" d="M49.3,163.2c-0.6-0.7-1.1-1.3-1.5-2.3l-0.4-1l-3,1.4l0.2,0.9l0,0.1c0.6,1.3,1.5,2.6,2.3,3.4l0.8,0.8l2.2-2.7
			L49.3,163.2z"/>
		<path class="st31" d="M51.8,165l-1-0.4l-1.4,3.1l1,0.4c1.3,0.6,2.6,0.8,4.1,0.8h1l0.3-3.4h-1C53.6,165.5,52.5,165.3,51.8,165z"/>
	</g>
	<path class="st37" d="M62.6,142.3H20.3c-1.1,0-2-0.9-2-2v0c0-1.1,0.9-2,2-2h42.4c1.1,0,2,0.9,2,2v0
		C64.6,141.4,63.7,142.3,62.6,142.3z"/>
	<g>
		<path class="st31" d="M138.9,154.8h-19c-0.5,0-0.9-0.5-0.9-0.9v-3.3c0-0.7-0.7-1-1.2-0.8l-16,7c-0.7,0.3-0.7,1.2-0.1,1.6l16,8.8
			c0.6,0.3,1.4-0.1,1.4-0.8v-2.8c0-0.5,0.5-0.9,0.9-0.9h19c0.5,0,0.9-0.5,0.9-0.9v-6.1C139.8,155.2,139.4,154.8,138.9,154.8z"/>
	</g>
</g>
</svg>
