<?xml version="1.0" encoding="utf-8"?>
<!-- Generator: Adobe Illustrator 24.0.1, SVG Export Plug-In . SVG Version: 6.00 Build 0)  -->
<svg version="1.1" id="Layer_1" xmlns="http://www.w3.org/2000/svg" xmlns:xlink="http://www.w3.org/1999/xlink" x="0px" y="0px"
	 viewBox="0 0 226.8 226.8" style="enable-background:new 0 0 226.8 226.8;" xml:space="preserve">
<style type="text/css">
	.st0{fill:#010101;}
	.st1{fill:#5A7F92;}
	.st2{fill:#F6A800;}
	.st3{fill:#779EAF;}
	.st4{fill:#2F5A6B;}
	.st5{fill:#93979A;}
	.st6{fill:#F9C462;}
	.st7{fill:#F6A802;}
	.st8{fill:#C88705;}
	.st9{fill:#FAC361;}
	.st10{fill:#F8C361;}
	.st11{fill:#C1C2C4;}
	.st12{fill:#CE8B05;}
	.st13{fill:#CC8A05;}
	.st14{fill:#F8C362;}
	.st15{fill:#727679;}
	.st16{fill:#BFC0C2;}
	.st17{fill:#CA8906;}
	.st18{fill:#74787B;}
	.st19{fill:#777A7D;}
	.st20{fill:#BCBDBF;}
	.st21{fill:#030404;}
	.st22{fill:#030304;}
	.st23{fill:#070504;}
	.st24{fill:#F5A802;}
	.st25{fill:#047CBB;}
	.st26{fill:#037DBC;}
</style>
<g>
	<path class="st0" d="M184.2,85.3c-0.3-1.3-0.2-2.1,1-2.9c5.6-4.1,7.2-9.6,5.3-16.2c-1.7-5.7-3.2-11.4-4.8-17.1
		c-0.3-1.2-0.4-2,0.6-3c3.6-3.6,4.4-8,3-12.9c-1.1-4.1-2.2-8.2-3.4-12.3c-1.1-3.7-1.9-4.1-5.6-3.1c-11.1,3.1-22.2,6.2-33.3,9.3
		c-1.1,0.3-2.4,0.4-2.9,1.6c-0.7,1.4-1.6,1.4-2.8,1.2c-12.1-1.6-24.1-3.1-36.2-4.5c-1.6-0.1-2.6-0.6-3.5-2
		c-3.5-5.6-8.8-8.4-15.4-8.5c-7.5-0.1-15-0.2-22.5,0c-10.3,0.2-17.8,7.3-18.5,17.4c-0.3,3.1-0.2,6.2,0,9.3c0.7,8.6,6.3,15,14.7,16.7
		c1.8,0.4,2.6,1.1,2.8,2.9c1,7.3,2.3,14.6,3.1,21.9c2,18.6,4,37.1-6.8,54.2c-3,4.8-2.2,10.7-0.8,16.4h-3.6c-4.6,0-5.1,0.4-5.1,4.9
		c-0.1,4.5-0.1,8.9,0,13.4c0.1,2.1-0.4,3-2.7,2.8c-2.3-0.2-4.6,0-6.9,0c-3.6,0-4.3,0.7-4.3,4.4V207c0,4.7,0.4,5.1,5.2,5.1h93.9
		c2.4,0,3.7-0.9,3.7-3.5v-30.3c0-2.5-1.3-3.5-3.7-3.5c-2.6,0-5.2-0.2-7.8,0c-1.9,0.1-2.6-0.4-2.5-2.4c0.2-5,0-10,0.1-15
		c0.1-2.6-1.1-3.8-3.7-3.8h-13c3.7-3.3,6.9-6,9.9-9c11.3-11.2,8.9-30.3-5.4-37.2c-5.6-2.7-7.8-6.2-8.8-11.5
		c-0.1-0.4-0.2-0.8-0.3-1.2c-3.4-11.5-6.7-22.9-10-34.4c-0.2-0.9-1.2-2.2-0.1-2.8c1.1-0.6,1.7,0.9,2.5,1.5c1.4,1,2.7,2.3,4.1,3.3
		c9,6.6,18.7,10.4,30,9.1c10.4-1.2,18.8-6.3,26.4-13.1c0.8-0.7,1.3-1.9,2.7-1.9c1.7,5.9,3.3,11.8,5,17.7c1.8,6.4,6,10,12.6,10.7
		c1.5,0.2,2.1,0.7,2.5,2.1c0.8,3.2,1.7,6.4,2.6,9.6c0.5,2,1.3,4.1,3.9,3.3c2.6-0.8,2-2.9,1.5-4.9C186,91.7,185.2,88.5,184.2,85.3z
		 M72.4,82.4c2.9,9.4,5.7,18.8,8.7,28.2c0.7,2.3,0.3,3.6-1.5,5c-2.8,2.1-5.3,4.5-8.5,7.3c2.9-15,1.5-29.2-0.1-43.6
		C71.9,80.4,72.1,81.4,72.4,82.4z M151.9,54.4c-14.4,13.1-30.7,15.9-47.3,4.5c-6.5-4.5-6.5-4.6-1.8-10.9c0.8-1.1,1.8-0.9,2.8-0.8
		c6.6,0.3,13.4,0.7,20.1,0.9c7.2,0.4,14.3,0.8,21.5,1c2.8,0.1,3.7,2.4,5.5,3.7C153.5,53.3,152.3,54,151.9,54.4z"/>
	<path class="st1" d="M132.6,187.3c0,4.6,0,9.1,0,13.7c-1.2,1.1-2.7,1-4.1,1c-16.2,0-32.4,0-48.5,0c-1.2,0-2.5,0-3.6-0.6
		c-0.7-0.4-0.8-1.1-0.8-1.9c-0.3-3-3.6-4.6-6.2-3c-0.8,0.5-1,1.2-0.9,2.1c0.1,0.8,0.5,1.6,0,2.4c-1.7,0.8-3.4,1.6-4.5-0.8
		c1.7-3.3,0.8-4.9-2.8-4.9c-5.8,0-11.6-0.1-17.4,0c-1.9,0-2.9-0.4-2.7-2.5c0.5-4.1-0.9-8.3,0.6-12.4c0.5,0.6,0.7,1.2,0.9,2
		c0.8,3.9,0.8,3.9,4.7,3.9c26.7,0,53.4,0,80,0C129.1,186.3,131,186,132.6,187.3z"/>
	<path class="st2" d="M117.4,120.6c0.7,0.9,1.1,1.9,1,3.1c0.2,6.6-3.5,11.1-8.1,15c-4.9,4.2-9.1,9-14.1,13c-0.9,0.7-1.8,1.4-2.8,1.9
		c-9.3,0-18.6,0.1-27.9,0.1c-0.5,0-1,0-1.3-0.6c-1.3-7.4,1.3-13.1,6.8-17.9c6.2-5.5,12.5-10.9,18.6-16.5
		C97.9,111.2,110.2,111.7,117.4,120.6z"/>
	<path class="st2" d="M52.7,47c-0.3-0.4-0.5-0.9-0.8-1.3c-0.2-2.8-0.4-5.6-0.7-8.3c-0.7-7,5.2-13.9,13-14.3c8.3-0.4,16.6-0.4,24.9,0
		c3.8,0.2,6.9,2.1,8.6,5.7c0.4,2.6,0.4,5.1,0.4,7.7c-0.1,8.6-5.2,14.4-13.8,15c-7.4,0.4-14.9,0.3-22.4,0
		C58.3,51.4,55.1,49.8,52.7,47z"/>
	<path class="st3" d="M132.6,187.3c-28.7,0-57.4,0-86.1,0c-5.7,0-4.9,0.7-5-5c0-0.6,0-1.2,0-1.9c2.1-0.1,4.1-0.2,6.2-0.2
		c26.9,0,53.7,0,80.6,0c4.9,0,4.4-0.7,4.4,4.5C132.8,185.7,132.7,186.5,132.6,187.3z"/>
	<path class="st4" d="M63.9,200.3c1.4,1.2,2.9,0.9,4.5,0.3c2.4-1.6,4.9-0.9,7.4-0.3c1,1.2,2.3,0.7,3.5,0.7c17.8,0,35.6,0,53.4,0
		c0.4,5.6,0.4,5.6-5.2,5.6c-27.6,0-55.2,0-82.9,0c-3.4,0-4.7-1.9-3.5-5c0.5-1.4,1.7-1,2.6-1C50.4,200.4,57.2,200.4,63.9,200.3z"/>
	<path class="st5" d="M83.4,58.9c3.8-0.9,3.9,1.9,4.3,4.4c-1.1,0.9-2.2,1.6-1.6,3.5c3.1,10.9,6.1,21.8,9.2,32.7
		c0.6,2.1,1.4,3.9,3.3,5c-3.8,0.8-7.5,1.7-10.6,4c-1.7,1.3-1.8-0.1-2.1-1.2c-2.5-8.1-5-16.2-7.4-24.3c-1.9-6.3-3.8-12.7-5.6-19
		c-0.1-1.4,1-1.3,1.8-1.5c1.2-0.2,2.5-0.3,3.7-0.1C81,62.7,82.9,61.9,83.4,58.9z"/>
	<path class="st6" d="M117.4,120.6c-1.7-0.6-2.9-2-4.3-3c-6.4-4.8-15.6-4.5-21.6,0.7c-6.9,6-13.7,12-20.5,18
		c-4.5,3.9-6.9,8.7-6.4,14.8c0.1,0.7,0.1,1.5-0.4,2.1c-3-6.5-1.9-14.5,3.4-19.6c7.4-7,14.9-13.9,22.9-20.2
		C99.6,106.3,112.7,110.1,117.4,120.6z"/>
	<path class="st5" d="M184,75.8c-2,3.1-4.9,4.1-8.3,3.5c-3.3-0.6-5.6-2.7-6.5-6c-1.2-4.2-2.3-8.4-3.4-12.6c-0.8-2,0-3.1,1.9-3.7
		c1.5-0.4,3-0.9,4.5-1.3c5.2-1.3,4.1-0.1,4.8-5.1c1.3-0.6,2.9-1.7,3.1,0.8c0.1,1.6,3.3,4.2-1.1,4.9c-1.8,0.3-3.6,0.8-5.4,1.4
		c-1.5,0.5-2.5,1.6-2,3.3c0.5,1.6,1.7,2.3,3.4,1.9c1.9-0.5,3.8-1,5.7-1.5C181.6,66.3,183.6,70.8,184,75.8z"/>
	<path class="st7" d="M153.3,44.5c-1.6-2.5-1-3.7,2-4.3c3.1-0.6,6.1-1.7,9.2-2.5c2.4-0.6,3.5-1.9,2.7-4.5c0.4-1.2,1.3-1.2,2.3-0.9
		c1.4,2,3.2,2.8,5.6,1.5c1.8-1,0.5-3,1.5-4.1c1.7-0.8,3.4-2,5.4-1c0.8,1.3,1,2.9,1.3,4.3c0.8,6-0.1,7.7-5.9,9.5
		c-4.8,1.5-9.7,2.9-14.6,4.1C159.4,47.6,155.7,48.1,153.3,44.5z"/>
	<path class="st8" d="M118.9,162.3c0,3.5,0,7.1,0.1,10.6c0,1.5-0.6,1.9-2,1.9c-20,0-39.9,0-59.9,0c-1.1,0-2.1,0-2.1-1.5
		c0.1-4.6-0.6-9.3,0.3-13.9c1,0.9,1,2.1,1,3.2c0.2,1.6,0.2,3.1,0.1,4.7c-0.1,2.6,1.1,3.6,3.5,3.4c0.5,0,1,0,1.6,0
		c16.9,0,33.9,0,50.8,0c4.9,0,4.9,0,5.1-4.9c0-1,0-2.1,0.5-3C118.1,162.4,118.4,162.2,118.9,162.3z"/>
	<path class="st9" d="M118.9,162.3c-0.2,0-0.4,0-0.5,0.1c-1.2,1-2.7,0.9-4.1,0.9c-18.2,0-36.4,0-54.6,0c-1.4,0-2.9,0.2-4.1-1
		c-0.1-1-0.2-2-0.2-3c0.9-0.1,1.8-0.3,2.7-0.3c19.3,0,38.6,0,57.9-0.1C118.5,159,119.5,159.8,118.9,162.3z"/>
	<path class="st10" d="M97.1,28.8C95,25.7,92,24,88.3,23.9c-7.7-0.1-15.4,0-23.1,0c-7.6,0-13.9,6.4-13.1,13.5
		c0.3,2.7,0.4,5.6-0.3,8.4c-2.2-5.7-2.2-11.6-0.3-17.3c1.7-5.2,6-7.9,11.5-8.1c7.8-0.2,15.5-0.2,23.3,0c5.4,0.2,9.4,2.8,11.5,8
		C97.8,28.9,97.6,29.1,97.1,28.8z"/>
	<path class="st11" d="M98.5,104.5c-2,0-3-0.7-3.5-2.8C91.8,89.8,88.3,77.9,84.9,66c-0.8-2.8,0.9-2.9,2.8-2.7c0.4,0.9,1,1.8,1.3,2.7
		c3.5,11.8,6.9,23.6,10.2,35.4C99.5,102.4,100.7,103.9,98.5,104.5z"/>
	<path class="st5" d="M145.3,37.5c0.6,0.5,0.4,1.3,0.6,1.9c0.8,2.1-0.5,2.5-2.2,2.5c-6.2-0.1-12.4-0.6-18.6-1
		c-5.6-0.4-11.1-0.7-16.7-1.1c-1.3-0.1-2.7,0-3.8-1c-0.1-0.2-0.1-0.3,0-0.5c-0.4-1.7-0.3-3.4-0.1-5.1c0.7-0.8,1.7-0.7,2.6-0.6
		C119.8,34.2,132.6,35.7,145.3,37.5z"/>
	<path class="st12" d="M97.1,28.8c0.2-0.2,0.5-0.3,0.7-0.5c1.9,5.7,1.9,11.5-0.1,17c-1.8,5-6,7.7-11.3,7.8c-7.8,0.2-15.5,0.2-23.3,0
		c-4.5-0.1-8.2-2-10.5-6.1c4.2,2.8,8.7,3.9,13.8,3.7c5.5-0.2,11,0,16.5-0.1c7.7,0,14.8-5.2,14.2-14.1C97,34,97.1,31.4,97.1,28.8z"/>
	<path class="st13" d="M93.4,153.6c5.1-4.8,10-9.8,15.3-14.4c4.9-4.2,8.4-9.1,9.7-15.5c2,6.9-0.1,12.7-5.1,17.5
		c-4.1,4-8.5,7.6-12.8,11.4C98.3,154.6,95.8,153.5,93.4,153.6z"/>
	<path class="st14" d="M169.3,32.6c-0.8,0-1.5,0.2-2.2,0.6c-1.3-1.2-2.7-1.3-4.3-0.8c-3.5,1.1-7,1.9-10.5,3
		c-1.6,0.5-1.9-0.2-2.3-1.5c-0.4-1.4-0.3-2.1,1.3-2.5c9.2-2.5,18.4-5,27.5-7.7c1.5-0.4,2.1,0,2.4,1.3c0.2,1.2,0.5,2.4,0.8,3.6
		c-1.8,0.5-3.6,0.9-5.4,1.4C174,30.4,171.4,30.7,169.3,32.6z"/>
	<path class="st15" d="M104.6,38.9c10,0.1,20,0.9,29.9,1.8c3.3,0.3,6.6-0.4,9.9,0.5c1.5,0.4,1.3-0.9,1.5-1.8c0.2,0.7,0.4,1.4,0.7,2
		c0.8,1.9,0,2.3-1.8,2.2c-12.3-0.6-24.6-1.2-37-1.8C105.9,41.8,103.8,41.9,104.6,38.9z"/>
	<path class="st16" d="M145.3,37.5c-2.6,1.7-5.2,0.1-7.7-0.1c-8.2-0.7-16.4-1.9-24.6-2.9c-2.8-0.3-5.5-0.9-8.2-1.3
		c-0.4-2.3-0.3-2.3,3.1-1.9c11.7,1.4,23.5,2.9,35.2,4.3C144.2,35.7,145.3,35.9,145.3,37.5z"/>
	<path class="st17" d="M153.3,44.5c3.5,2.6,7.3,2.2,11.2,1c3.9-1.3,8-2.2,11.9-3.4c4.7-1.4,7.3-2.2,6.8-8.9
		c2.2,6.1,0.5,9.6-5.5,11.3c-5.4,1.5-10.8,3.1-16.2,4.5C157.6,49.9,154.7,48.3,153.3,44.5z"/>
	<path class="st18" d="M177,50.7c1.6,4.4,1.3,4.8-3,5.6c-2.1,0.4-4.2,1.1-6.3,1.5c-1.7,0.3-2.1,1.4-2,2.9c-0.1-0.1-0.2-0.2-0.2-0.2
		c-2.1-6.4-2.1-6.4,4.3-8.2C172.2,51.7,174.4,50.7,177,50.7z"/>
	<path class="st19" d="M83.4,58.9c0.1,0.6,0.1,1.2,0.3,1.8c0.7,2-0.1,2.5-2,2.6c-3,0.2-6.1-0.9-9,0.7c-2-5.2-2-5.2,3.3-5.2
		C78.5,58.7,80.9,58.8,83.4,58.9z"/>
	<path class="st20" d="M184,75.8c-1.9-4.1-2.6-8.6-3.8-12.9c-0.1-0.4,0.3-0.9,0.5-1.4c1.4-0.7,2.5-0.9,2.8,1.2
		c0.6,3.2,2.3,6.2,1.9,9.6C185.3,73.4,185,74.8,184,75.8z"/>
	<path class="st15" d="M107.8,31.3c-1,0.6-3.4-1.1-3.1,1.9c-0.1,1.7-0.1,3.5-0.2,5.2c-0.7-1.5-0.3-3-0.4-4.5
		C104.1,30.3,104.2,30.2,107.8,31.3z"/>
	<path class="st21" d="M75.8,200.3c-2.4,0.8-4.9,0.1-7.4,0.3c-1.3-1.5-1.9-3.4,0-4.5c2.2-1.4,4.9-1.2,7.1-0.1
		C77.3,196.9,76.9,198.8,75.8,200.3z"/>
	<path class="st22" d="M111.6,128c0.1,5.5-4.2,9.9-9.7,10c-5.4,0.1-10-4.3-10.2-9.7c-0.2-5.5,4.4-10.2,9.9-10.2
		C107.1,118.1,111.5,122.5,111.6,128z"/>
	<path class="st22" d="M74.6,46.5c-5.7,0.1-10.1-4.3-10.1-10c0-5.5,4.3-9.9,9.8-10s10.1,4.4,10.2,10C84.6,41.8,80.1,46.4,74.6,46.5z
		"/>
	<path class="st23" d="M169.3,32.6c1.7-3,3.9-3.8,7.3-2.4c1.1,2.4,0.5,4-2.1,4.8C172,35.8,170,35.7,169.3,32.6z"/>
	<path class="st24" d="M55.5,162.4c21,0,41.9,0,62.9,0c0,2.1-0.2,4.2,0,6.2c0.3,2.6-0.9,3.1-3.2,3.1c-18.9-0.1-37.8-0.1-56.7,0
		c-2.5,0-3.4-0.7-3.1-3.1C55.5,166.6,55.4,164.5,55.5,162.4z"/>
	<path class="st25" d="M101.6,123.7c2.4-0.1,4.3,1.8,4.4,4.2c0.1,2.7-1.8,4.6-4.3,4.6c-2.4,0-4.4-1.8-4.5-4.2
		C97,125.9,99.1,123.7,101.6,123.7z"/>
	<path class="st26" d="M74.4,40.8c-2.6,0-4.4-1.9-4.3-4.6c0.1-2.5,1.9-4.2,4.4-4.2s4.5,2.2,4.4,4.6S76.8,40.9,74.4,40.8z"/>
</g>
</svg>
